<svg width="82" height="82" viewBox="0 0 82 82" fill="none" xmlns="http://www.w3.org/2000/svg">
<path d="M34 69.5C15.4209 69.5 0.499968 56.6685 0.499968 41C0.499969 25.3315 15.4209 12.5 34 12.5C52.5791 12.5 67.5 25.3315 67.5 41C67.5 56.6685 52.5791 69.5 34 69.5Z" stroke="#4658FD"/>
<path d="M41 7.5C58.9353 7.5 73.5 22.4843 73.5 41C73.5 59.5157 58.9353 74.5 41 74.5C23.0647 74.5 8.49997 59.5157 8.49997 41C8.49997 22.4843 23.0647 7.5 41 7.5Z" stroke="#4658FD"/>
<path d="M48 12.5C66.5791 12.5 81.5 25.3315 81.5 41C81.5 56.6685 66.5791 69.5 48 69.5C29.4209 69.5 14.5 56.6685 14.5 41C14.5 25.3315 29.4209 12.5 48 12.5Z" stroke="#4658FD"/>
</svg>
