<svg width="82" height="82" viewBox="0 0 82 82" fill="none" xmlns="http://www.w3.org/2000/svg">
<path d="M57.5 41C57.5 59.5791 44.6685 74.5 29 74.5C13.3315 74.5 0.5 59.5791 0.5 41C0.5 22.4209 13.3315 7.5 29 7.5C44.6685 7.5 57.5 22.4209 57.5 41Z" stroke="#4658FD"/>
<path d="M74.5 41C74.5 63.4592 59.418 81.5 41 81.5C22.582 81.5 7.5 63.4592 7.5 41C7.5 18.5408 22.582 0.5 41 0.5C59.418 0.5 74.5 18.5408 74.5 41Z" stroke="#4658FD"/>
<path d="M81.5 41C81.5 59.5791 68.6685 74.5 53 74.5C37.3315 74.5 24.5 59.5791 24.5 41C24.5 22.4209 37.3315 7.5 53 7.5C68.6685 7.5 81.5 22.4209 81.5 41Z" stroke="#4658FD"/>
</svg>
