<svg width="32" height="33" viewBox="0 0 32 33" fill="none" xmlns="http://www.w3.org/2000/svg">
<path d="M13.8102 2.61558L2.18978 14.236C0.980397 15.4454 0.980397 17.4062 2.18978 18.6156L13.8102 30.236C15.0196 31.4454 16.9804 31.4454 18.1898 30.236L29.8102 18.6156C31.0196 17.4062 31.0196 15.4454 29.8102 14.236L18.1898 2.61558C16.9804 1.4062 15.0196 1.4062 13.8102 2.61558Z" fill="white"/>
<path d="M16.0346 25.5887C21.0954 25.5887 25.198 21.486 25.198 16.4252C25.198 11.3643 21.0954 7.26172 16.0346 7.26172C10.9737 7.26172 6.87109 11.3643 6.87109 16.4252C6.87109 21.486 10.9737 25.5887 16.0346 25.5887Z" fill="#28292E"/>
<path d="M18.7474 10.6992H13.4054C11.6951 10.6992 10.3086 12.0857 10.3086 13.796V19.138C10.3086 20.8484 11.6951 22.2349 13.4054 22.2349H18.7474C20.4577 22.2349 21.8442 20.8484 21.8442 19.138V13.796C21.8442 12.0857 20.4577 10.6992 18.7474 10.6992Z" fill="white"/>
<path d="M16.0202 20.4036C18.2253 20.4036 20.013 18.616 20.013 16.4108C20.013 14.2056 18.2253 12.418 16.0202 12.418C13.815 12.418 12.0273 14.2056 12.0273 16.4108C12.0273 18.616 13.815 20.4036 16.0202 20.4036Z" fill="#28292E"/>
<path d="M15.4203 15.3258L15.0502 15.6959C14.6471 16.099 14.6471 16.7526 15.0502 17.1557L15.4203 17.5258C15.8234 17.9289 16.477 17.9289 16.8802 17.5258L17.2502 17.1557C17.6534 16.7526 17.6534 16.099 17.2502 15.6959L16.8802 15.3258C16.477 14.9227 15.8234 14.9227 15.4203 15.3258Z" fill="white"/>
</svg>
