<svg width="24" height="24" viewBox="0 0 24 24" fill="none" xmlns="http://www.w3.org/2000/svg">
<path d="M10.8919 1.85893C11.2491 0.713691 12.7509 0.713686 13.1081 1.85894L14.454 6.17389C14.8679 7.50078 16.0719 8.43729 17.4715 8.43729H21.8269C22.3692 8.43729 22.7745 8.78134 22.9351 9.29622C23.0965 9.81371 22.9651 10.3738 22.4983 10.7271L18.9747 13.3939C17.868 14.2315 17.4235 15.694 17.8356 17.0151L19.1815 21.33C19.3704 21.9358 19.1395 22.4621 18.7447 22.7609C18.356 23.0551 17.854 23.103 17.402 22.7609L13.8783 20.0941C12.7612 19.2486 11.2388 19.2486 10.1217 20.0941L6.59802 22.7609C6.14596 23.103 5.64399 23.0551 5.25525 22.7609C4.8605 22.4621 4.62955 21.9358 4.8185 21.33L6.16441 17.0151C6.57647 15.694 6.13204 14.2315 5.02534 13.3939L1.5017 10.7271C1.03486 10.3738 0.903539 9.81371 1.06495 9.29622C1.22555 8.78134 1.63079 8.43729 2.17309 8.43729H6.52855C7.92813 8.43729 9.13208 7.50078 9.54595 6.17389L10.8919 1.85893Z" stroke="#4658FD" stroke-width="2"/>
</svg>
