<svg width="32" height="32" viewBox="0 0 32 32" fill="none" xmlns="http://www.w3.org/2000/svg">
<path d="M29.2934 24.44C29.2934 24.92 29.1867 25.4133 28.9601 25.8933C28.7334 26.3733 28.4401 26.8267 28.0534 27.2533C27.4001 27.9733 26.6801 28.4933 25.8667 28.8267C25.0667 29.16 24.2001 29.3333 23.2667 29.3333C21.9067 29.3333 20.4534 29.0133 18.9201 28.36C17.3867 27.7067 15.8534 26.8267 14.3334 25.72C12.8001 24.6 11.3467 23.36 9.96008 21.9867C8.58675 20.6 7.34675 19.1467 6.24008 17.6267C5.14675 16.1067 4.26675 14.5867 3.62675 13.08C2.98675 11.56 2.66675 10.1067 2.66675 8.71999C2.66675 7.81332 2.82675 6.94666 3.14675 6.14666C3.46675 5.33332 3.97341 4.58666 4.68008 3.91999C5.53341 3.07999 6.46675 2.66666 7.45341 2.66666C7.82675 2.66666 8.20008 2.74666 8.53341 2.90666C8.88008 3.06666 9.18675 3.30666 9.42675 3.65332L12.5201 8.01332C12.7601 8.34666 12.9334 8.65332 13.0534 8.94666C13.1734 9.22666 13.2401 9.50666 13.2401 9.75999C13.2401 10.08 13.1467 10.4 12.9601 10.7067C12.7867 11.0133 12.5334 11.3333 12.2134 11.6533L11.2001 12.7067C11.0534 12.8533 10.9867 13.0267 10.9867 13.24C10.9867 13.3467 11.0001 13.44 11.0267 13.5467C11.0667 13.6533 11.1067 13.7333 11.1334 13.8133C11.3734 14.2533 11.7867 14.8267 12.3734 15.52C12.9734 16.2133 13.6134 16.92 14.3067 17.6267C15.0267 18.3333 15.7201 18.9867 16.4267 19.5867C17.1201 20.1733 17.6934 20.5733 18.1467 20.8133C18.2134 20.84 18.2934 20.88 18.3867 20.92C18.4934 20.96 18.6001 20.9733 18.7201 20.9733C18.9467 20.9733 19.1201 20.8933 19.2667 20.7467L20.2801 19.7467C20.6134 19.4133 20.9334 19.16 21.2401 19C21.5467 18.8133 21.8534 18.72 22.1867 18.72C22.4401 18.72 22.7067 18.7733 23.0001 18.8933C23.2934 19.0133 23.6001 19.1867 23.9334 19.4133L28.3467 22.5467C28.6934 22.7867 28.9334 23.0667 29.0801 23.4C29.2134 23.7333 29.2934 24.0667 29.2934 24.44Z" fill="#FBF7EB"/>
</svg>
