<svg width="37" height="41" viewBox="0 0 37 41" fill="none" xmlns="http://www.w3.org/2000/svg">
<path d="M20.3838 0L31.107 9.56351L18.4517 14.2979L13.8146 9.37413L20.3838 0Z" fill="black"/>
<path d="M13.235 9.18476L19.0313 0.757506L6.08616 9.84758L13.235 9.18476Z" fill="black"/>
<path d="M13.8146 40.3372L13.235 10.1316L0 20.7367L13.8146 40.3372Z" fill="black"/>
<path d="M0.483028 19.6005L12.4621 9.84758L5.40992 10.5104L0.483028 19.6005Z" fill="black"/>
<path d="M17.9687 14.7714L13.8146 10.321L14.2977 38.1594L17.9687 14.7714Z" fill="black"/>
<path d="M30.5274 20.4527L18.4517 15.0554L14.5875 41L30.3342 38.5381L30.5274 20.4527Z" fill="black"/>
<path d="M19.2245 14.582L30.5274 19.6952L37 12.2148L31.5901 10.1316L19.2245 14.582Z" fill="black"/>
<path d="M31.107 20.2633L37 13.067L33.6188 33.709L31.107 37.6859V20.2633Z" fill="black"/>
</svg>
