<svg width="32" height="32" fill="none" xmlns="http://www.w3.org/2000/svg"><g clip-path="url(#a)"><circle cx="16.5" cy="13.5" r="6.5" fill="#D9D9D9"/><path d="M27.493 11.267C26.093 5.107 20.72 2.333 16 2.333h-.013c-4.707 0-10.094 2.76-11.494 8.92-1.56 6.88 2.654 12.707 6.467 16.374a7.247 7.247 0 0 0 5.04 2.04c1.813 0 3.627-.68 5.027-2.04 3.813-3.667 8.026-9.48 6.466-16.36ZM16 17.947a4.2 4.2 0 1 1-.001-8.4 4.2 4.2 0 0 1 .001 8.4Z" fill="#FBF7EB"/></g><defs><clipPath id="a"><path fill="#fff" d="M0 0h32v32H0z"/></clipPath></defs></svg>