<svg width="46" height="46" fill="none" xmlns="http://www.w3.org/2000/svg"><path d="M29.58 1.909H14.533a2.123 2.123 0 0 0-2.124 2.12v35.406a4.663 4.663 0 0 0 4.657 4.657h17.456a.413.413 0 0 0 .069-.007.445.445 0 0 0 .069.007 4.345 4.345 0 0 0 4.343-4.34v-4.758a1.854 1.854 0 0 0-1.852-1.851h-3.675a.516.516 0 1 0 0 1.03h3.675a.822.822 0 0 1 .821.822v4.757a3.314 3.314 0 0 1-3.31 3.31.445.445 0 0 0-.069.007.436.436 0 0 0-.068-.007c-1.1 0-1.92-.618-2.435-1.837a5.058 5.058 0 0 1-.387-1.983V4.03a2.123 2.123 0 0 0-2.123-2.12Z" fill="#2E574D"/><path d="M22.349 10.77h-.796a.86.86 0 0 1 0-1.72H23.1a.516.516 0 1 0 0-1.031h-.628v-.54a.516.516 0 1 0-1.03 0v.545a1.888 1.888 0 1 0 .117 3.774h.795a.86.86 0 0 1 0 1.72h-1.548a.516.516 0 0 0 0 1.031h.629v.54a.515.515 0 1 0 1.03 0v-.545a1.887 1.887 0 1 0-.117-3.773Zm-.203 8.964h-5.472a.515.515 0 1 0 0 1.03h5.472a.515.515 0 0 0 0-1.03Zm4.838 0h-1.11a.516.516 0 0 0 0 1.03h1.11a.515.515 0 1 0 0-1.03Zm-4.838 5.052h-5.472a.515.515 0 1 0 0 1.03h5.472a.516.516 0 0 0 0-1.03Zm4.838 0h-1.11a.516.516 0 0 0 0 1.03h1.11a.515.515 0 1 0 0-1.03Zm-4.838 5.054h-5.472a.515.515 0 1 0 0 1.03h5.472a.515.515 0 0 0 0-1.03Zm4.838 0h-1.11a.516.516 0 0 0 0 1.03h1.11a.517.517 0 0 0 .378-.888.513.513 0 0 0-.378-.143Zm-4.838 5.051h-5.472a.515.515 0 1 0 0 1.03h5.472a.516.516 0 0 0 0-1.03Zm4.838 0h-1.11a.515.515 0 0 0 0 1.03h1.11a.515.515 0 1 0 0-1.03Z" fill="#FBF7EB"/></svg>