<svg width="110" height="110" fill="none" xmlns="http://www.w3.org/2000/svg"><circle cx="55" cy="55" r="55" fill="#2E574D"/><g clip-path="url(#a)"><path fill-rule="evenodd" clip-rule="evenodd" d="M67.75 34c1.127 0 2.208.443 3.005 1.23A4.175 4.175 0 0 1 72 38.2v21H58.187c-.845 0-1.656.332-2.253.923A3.131 3.131 0 0 0 55 62.35V76H42.25a4.276 4.276 0 0 1-3.005-1.23A4.175 4.175 0 0 1 38 71.8V38.2c0-1.114.448-2.182 1.245-2.97A4.276 4.276 0 0 1 42.25 34h25.5Zm4.159 29.4a4.185 4.185 0 0 1-1.154 2.1l-9.38 9.27a4.265 4.265 0 0 1-2.125 1.14V63.4h12.659ZM50.75 52.9h-2.125c-.564 0-1.104.221-1.503.615A2.087 2.087 0 0 0 46.5 55c0 .557.224 1.091.622 1.485.399.394.94.615 1.503.615h2.125c.564 0 1.104-.221 1.503-.615.398-.394.622-.928.622-1.485s-.224-1.091-.622-1.485a2.138 2.138 0 0 0-1.503-.615Zm10.625-8.4h-12.75c-.564 0-1.104.221-1.503.615A2.087 2.087 0 0 0 46.5 46.6c0 .557.224 1.091.622 1.485.399.394.94.615 1.503.615h12.75c.564 0 1.104-.221 1.503-.615.398-.394.622-.928.622-1.485s-.224-1.091-.622-1.485a2.138 2.138 0 0 0-1.503-.615Z" fill="#FBF7EB"/></g><defs><clipPath id="a"><path fill="#fff" transform="translate(32 32)" d="M0 0h46v46H0z"/></clipPath></defs></svg>