<svg width="110" height="110" fill="none" xmlns="http://www.w3.org/2000/svg"><circle cx="55" cy="55" r="55" fill="#FBF7EB"/><path d="M33.002 46.146h43.997v-1.88C77 40.103 74.896 38 70.71 38H39.292C35.105 38 33 40.103 33 44.267v1.879Zm0 19.608c0 4.164 2.103 6.246 6.29 6.246h31.416C74.895 72 77 69.918 77 65.754V50.735H33l.002 15.019Zm6.691-4.932v-3.74c0-1.132.782-1.94 1.964-1.94h4.909c1.182 0 1.963.808 1.963 1.94v3.74c0 1.152-.781 1.94-1.963 1.94h-4.91c-1.182 0-1.962-.788-1.962-1.94Z" fill="#2E574D"/></svg>