<svg width="110" height="110" fill="none" xmlns="http://www.w3.org/2000/svg"><circle cx="55" cy="55" r="55" fill="#2E574D"/><g clip-path="url(#a)"><path d="M73.688 43.5H38.842a2.874 2.874 0 0 1-3.42-2.823v-.055l36.828-1.434v-3.422a3.393 3.393 0 0 0-3.784-3.763l-32.7 5.316A5.762 5.762 0 0 0 32 42.715v30.97a4.313 4.313 0 0 0 4.313 4.312h37.374A4.313 4.313 0 0 0 78 73.685V47.78l.003-.118a4.169 4.169 0 0 0-4.169-4.169l-.152.003.005.003Zm-4.313 20.125a4.314 4.314 0 1 1 .003-8.627 4.314 4.314 0 0 1-.003 8.627Z" fill="#FBF7EB"/></g><defs><clipPath id="a"><path fill="#fff" transform="translate(32 32)" d="M0 0h46v46H0z"/></clipPath></defs></svg>