<svg width="110" height="110" fill="none" xmlns="http://www.w3.org/2000/svg"><circle cx="55" cy="55" r="55" fill="#FBF7EB"/><path d="M32 72.213a1.75 1.75 0 0 0 .537 1.267 1.861 1.861 0 0 0 1.298.52h42.337a1.86 1.86 0 0 0 1.294-.522A1.748 1.748 0 0 0 78 72.213v-1.787c0-.474-.193-.928-.535-1.263a1.85 1.85 0 0 0-1.293-.523H73.73c-.07-4.811-2.074-9.402-5.579-12.78-3.504-3.378-8.228-5.272-13.15-5.272-4.922 0-9.646 1.894-13.15 5.272-3.505 3.378-5.509 7.969-5.579 12.78h-2.436c-.484 0-.95.188-1.292.523-.343.335-.535.79-.535 1.263L32 72.213Zm23.915-23.845c.546-.209 1-.597 1.285-1.099.283-.501.38-1.084.271-1.647a2.448 2.448 0 0 0-.866-1.437 2.55 2.55 0 0 0-1.606-.566c-.586 0-1.154.2-1.605.566a2.448 2.448 0 0 0-.866 1.437 2.41 2.41 0 0 0 .271 1.647c.285.502.739.89 1.285 1.099v1.96h1.831v-1.96ZM38.96 37.536a.88.88 0 0 0 .08-1.2.93.93 0 0 0-1.213-.193c-.958.74-2.22 2.83-.146 5.384 1.556 1.913-.865 4.715-.888 4.74a.885.885 0 0 0-.222.648.873.873 0 0 0 .313.611.946.946 0 0 0 .98.138.918.918 0 0 0 .311-.226c.14-.163 3.437-3.947.937-7.015-1.397-1.713-.366-2.702-.151-2.887Zm7.995 0a.88.88 0 0 0 .08-1.2.93.93 0 0 0-1.213-.193c-.96.74-2.224 2.83-.147 5.384 1.555 1.913-.865 4.715-.888 4.74a.885.885 0 0 0-.222.648.873.873 0 0 0 .313.611.931.931 0 0 0 1.291-.088c.14-.163 3.437-3.947.937-7.015-1.398-1.713-.374-2.702-.151-2.887Zm15.618 9.99a.931.931 0 0 0 1.291-.089c.14-.162 3.437-3.946.937-7.014-1.382-1.706-.378-2.695-.136-2.88a.883.883 0 0 0 .067-1.19.935.935 0 0 0-1.2-.206c-.955.74-2.22 2.833-.147 5.387 1.556 1.913-.865 4.711-.888 4.737a.888.888 0 0 0 .076 1.255Zm10.083-9.99a.88.88 0 0 0 .08-1.2.93.93 0 0 0-1.213-.193c-.959.74-2.22 2.83-.147 5.384 1.556 1.913-.865 4.715-.888 4.74a.885.885 0 0 0-.222.648.873.873 0 0 0 .313.611.946.946 0 0 0 .98.138.918.918 0 0 0 .312-.226c.14-.163 3.436-3.947.936-7.015-1.397-1.713-.37-2.702-.15-2.887Z" fill="#2E574D"/><path d="M54.705 54C46.588 54 40 60.72 40 69h5.882c0-7.26 2.117-13.32 8.823-14.7-.941-.21 1-.3 0-.3Z" fill="#FBF7EB"/></svg>