<svg width="32" height="32" fill="none" xmlns="http://www.w3.org/2000/svg"><path d="M16 14.556v7.222-7.222ZM16 29a13 13 0 1 1 0-26 13 13 0 0 1 0 26Zm.072-18.778v.145h-.144v-.145h.144Z" fill="#2E574D"/><path d="M16 14.556v7.222M16 29a13 13 0 1 1 0-26 13 13 0 0 1 0 26Zm.072-18.778v.145h-.144v-.145h.144Z" stroke="#2E574D" stroke-linecap="round" stroke-linejoin="round"/><path d="M16 14.556v7.222m.072-11.556v.145h-.144v-.145h.144Z" stroke="#FBF7EB" stroke-linecap="round" stroke-linejoin="round"/></svg>