<svg width="110" height="110" fill="none" xmlns="http://www.w3.org/2000/svg"><circle cx="55" cy="55" r="55" fill="#FBF7EB"/><path d="M54.56 69.8c-4.92.021-9.768-1.285-14.103-3.8A2.546 2.546 0 0 0 40 67.355C40 70.087 45.963 72 54.498 72S69 70.096 69 67.355a2.536 2.536 0 0 0-.43-1.309c-4.31 2.486-9.124 3.776-14.01 3.754Z" fill="#2E574D"/><path d="M77 53c-1.93.307-3.875.502-5.828.584-4.461.273-10.397.423-16.707.423-6.31 0-12.245-.15-16.707-.423A51.554 51.554 0 0 1 32 53.011C32.841 61.008 40.66 69 54.5 69S76.166 61.008 77 53ZM62.2 66.16s9.47-9.73 6.595-10.611h5.079s.274 6.839-11.675 10.618v-.008Zm-.956-18.569c.662-6.073 13.85-3.036 11.1-10.908-.418-1.204-2.317-.684-1.895.531 1.207 3.454-3.363 3.875-5.703 4.665-2.803.949-5.12 2.539-5.464 5.693-.138 1.298 1.828 1.283 1.962.02Z" fill="#2E574D"/><path d="M66.779 48.354c.882-3.037 4.806-3.082 7.31-3.819 2.687-.793 4.227-2.687 3.857-5.59-.161-1.257-2.127-1.272-1.962 0 .444 3.51-2.736 3.769-5.378 4.399-2.572.618-4.922 1.734-5.722 4.482a.885.885 0 0 0 .288.987c.144.112 1.113.178 1.274.05a.98.98 0 0 0 .333-.51ZM54.498 51c-12.053 0-20.016.527-22.498 1 2.482.477 10.437 1 22.498 1 12.06 0 20.016-.523 22.502-1-2.486-.477-10.449-1-22.502-1Z" fill="#2E574D"/></svg>