<svg width="32" height="32" fill="none" xmlns="http://www.w3.org/2000/svg"><path d="M22.667 4.667H9.333c-4 0-6.666 2-6.666 6.666v9.334c0 4.666 2.666 6.666 6.666 6.666h13.334c4 0 6.666-2 6.666-6.666v-9.334c0-4.666-2.666-6.666-6.666-6.666Zm.626 8.12L19.12 16.12c-.88.707-2 1.053-3.12 1.053s-2.253-.346-3.12-1.053l-4.173-3.333a1.026 1.026 0 0 1-.16-1.414.997.997 0 0 1 1.4-.16l4.173 3.334c1.013.813 2.733.813 3.747 0l4.173-3.334a.984.984 0 0 1 1.4.16c.347.427.28 1.067-.147 1.414Z" fill="#FBF7EB"/></svg>