<svg width="32" height="32" fill="none" xmlns="http://www.w3.org/2000/svg"><path d="M19.016 12.487V11.05a11.93 11.93 0 0 1 2.762-.946c.982-.21 1.99-.315 3.022-.315.59 0 1.158.037 1.7.11a17.89 17.89 0 0 1 1.684.312v1.403a9.638 9.638 0 0 0-1.632-.359 14.267 14.267 0 0 0-1.752-.098 13.56 13.56 0 0 0-3.027.336c-.985.225-1.904.556-2.757.994Zm0 8.439v-1.499a10.77 10.77 0 0 1 2.746-.942 14.847 14.847 0 0 1 3.038-.317c.59 0 1.158.036 1.7.11.545.074 1.106.178 1.684.312v1.402a9.638 9.638 0 0 0-1.632-.358 14.267 14.267 0 0 0-1.752-.099 12.615 12.615 0 0 0-5.784 1.391Zm0-4.19v-1.498a11.88 11.88 0 0 1 2.762-.944c.98-.21 1.988-.315 3.022-.315.59 0 1.158.036 1.7.109a18.26 18.26 0 0 1 1.684.313v1.401a9.534 9.534 0 0 0-1.632-.357c-.53-.066-1.114-.1-1.752-.1a12.47 12.47 0 0 0-3.027.368c-.985.244-1.904.585-2.757 1.023Zm-2.216 7.69a15.915 15.915 0 0 1 3.925-1.513 17.814 17.814 0 0 1 4.075-.464c.96 0 1.823.057 2.589.171.767.116 1.442.268 2.027.458.245.099.47.084.677-.045.205-.129.307-.332.307-.609V8.494a.782.782 0 0 0-.154-.475c-.102-.14-.276-.258-.523-.356-.88-.301-1.68-.507-2.401-.618a16.905 16.905 0 0 0-2.522-.167c-1.397 0-2.79.2-4.18.597a12.96 12.96 0 0 0-3.82 1.792v15.16Zm-.8 2.24a16.315 16.315 0 0 0-4.192-1.98 15.49 15.49 0 0 0-4.608-.694c-.832 0-1.65.068-2.454.203-.804.135-1.585.351-2.346.649-.58.223-1.125.156-1.635-.203-.51-.358-.765-.854-.765-1.487V8.22c0-.382.104-.737.312-1.064.208-.327.5-.555.875-.683a14.11 14.11 0 0 1 2.938-.865A17.22 17.22 0 0 1 7.2 5.333c1.568 0 3.096.218 4.586.654 1.49.436 2.895 1.07 4.214 1.9a16.622 16.622 0 0 1 4.214-1.9 16.257 16.257 0 0 1 4.586-.654c1.038 0 2.063.092 3.075.274 1.014.183 1.993.472 2.938.867.375.128.667.356.875.683.208.327.312.682.312 1.064v14.933c0 .632-.275 1.117-.826 1.455-.551.34-1.138.397-1.76.173a11.689 11.689 0 0 0-2.268-.603 14.576 14.576 0 0 0-2.346-.188c-1.579 0-3.115.231-4.608.694A16.312 16.312 0 0 0 16 26.665" fill="#FBF7EB"/></svg>