<svg width="32" height="32" fill="none" xmlns="http://www.w3.org/2000/svg"><path d="M18.513 12.79v-1.24a9.722 9.722 0 0 1 2.302-.817 11.615 11.615 0 0 1 2.518-.272c.493 0 .965.032 1.418.095.453.063.92.153 1.402.27v1.21a7.803 7.803 0 0 0-1.36-.31 11.48 11.48 0 0 0-1.46-.085c-.862 0-1.703.097-2.522.291-.82.194-1.587.48-2.298.857Zm0 7.282V18.78a8.771 8.771 0 0 1 2.288-.814 11.962 11.962 0 0 1 2.532-.273c.493 0 .965.032 1.418.095.453.064.92.154 1.402.27v1.21a7.794 7.794 0 0 0-1.36-.31 11.5 11.5 0 0 0-1.46-.085 10.215 10.215 0 0 0-4.82 1.2Zm0-3.616v-1.292a9.675 9.675 0 0 1 2.302-.814 11.603 11.603 0 0 1 2.518-.272c.493 0 .965.03 1.418.093.453.064.92.154 1.402.27v1.21a7.706 7.706 0 0 0-1.36-.308 11.304 11.304 0 0 0-1.46-.087 10.379 10.379 0 0 0-4.82 1.2Zm-1.846 6.637a12.99 12.99 0 0 1 3.27-1.306c1.1-.267 2.232-.4 3.396-.4.8 0 1.52.05 2.158.148.639.1 1.202.231 1.69.395a.574.574 0 0 0 .563-.04c.17-.11.256-.285.256-.524V9.344a.691.691 0 0 0-.128-.41c-.085-.12-.23-.223-.436-.307-.733-.26-1.4-.438-2.001-.533a13.486 13.486 0 0 0-2.102-.144 12.21 12.21 0 0 0-3.484.514c-1.159.344-2.22.86-3.182 1.547v13.082ZM16 25.027a13.392 13.392 0 0 0-3.493-1.71 12.498 12.498 0 0 0-3.84-.598c-.694 0-1.375.058-2.046.174a9.64 9.64 0 0 0-1.954.56c-.484.193-.938.135-1.363-.174-.425-.31-.637-.738-.637-1.284V9.108c0-.33.086-.636.26-.918a1.37 1.37 0 0 1 .73-.59c.788-.34 1.604-.59 2.447-.746a13.871 13.871 0 0 1 2.563-.238c1.306 0 2.58.188 3.821.564 1.242.376 2.412.923 3.512 1.64 1.1-.717 2.27-1.264 3.512-1.64a13.114 13.114 0 0 1 3.821-.564c.865 0 1.72.079 2.563.236.845.158 1.66.408 2.448.748.313.111.556.308.73.59.173.282.26.588.26.918v12.887c0 .546-.23.964-.689 1.256-.46.293-.948.343-1.466.15a9.476 9.476 0 0 0-1.89-.52 11.748 11.748 0 0 0-1.956-.163c-1.315 0-2.595.2-3.84.598A13.39 13.39 0 0 0 16 25.026" fill="#2E574D"/></svg>