<svg width="66" height="66" fill="none" xmlns="http://www.w3.org/2000/svg"><path d="M51.294 21.742H11.837a1.78 1.78 0 0 0-1.268.534 1.835 1.835 0 0 0-.526 1.288V34.49c.006 3.1.659 6.164 1.916 8.99a21.903 21.903 0 0 0 5.38 7.4h-5.502a1.78 1.78 0 0 0-1.268.533 1.835 1.835 0 0 0-.526 1.288c0 .483.19.946.526 1.287a1.78 1.78 0 0 0 1.268.534h39.457a1.78 1.78 0 0 0 1.268-.534c.336-.341.525-.804.525-1.287 0-.483-.189-.947-.525-1.288a1.78 1.78 0 0 0-1.268-.533h-5.502a22.008 22.008 0 0 0 6.053-9.126 8.912 8.912 0 0 0 5.98-2.85 9.182 9.182 0 0 0 2.436-6.235v-1.821a9.178 9.178 0 0 0-2.627-6.439 8.9 8.9 0 0 0-6.34-2.666Zm5.38 10.927a5.519 5.519 0 0 1-1.072 3.268 5.381 5.381 0 0 1-2.784 1.968c.178-1.13.268-2.271.269-3.415v-8.791a5.39 5.39 0 0 1 2.6 1.996c.641.922.986 2.023.987 3.153v1.82Zm-26.902-16.39V8.995c0-.483.189-.946.525-1.288a1.78 1.78 0 0 1 1.268-.533c.476 0 .932.192 1.268.533.337.342.526.805.526 1.288v7.284c0 .483-.19.947-.526 1.288a1.78 1.78 0 0 1-1.268.533 1.78 1.78 0 0 1-1.268-.533 1.836 1.836 0 0 1-.525-1.288Zm7.174 0V8.995c0-.483.189-.946.525-1.288a1.78 1.78 0 0 1 1.268-.533c.476 0 .932.192 1.268.533.337.342.526.805.526 1.288v7.284c0 .483-.19.947-.526 1.288a1.78 1.78 0 0 1-1.268.533 1.78 1.78 0 0 1-1.268-.533 1.836 1.836 0 0 1-.525-1.288Zm-14.348 0V8.995c0-.483.189-.946.525-1.288a1.78 1.78 0 0 1 1.268-.533c.476 0 .932.192 1.269.533.336.342.525.805.525 1.288v7.284c0 .483-.19.947-.525 1.288a1.78 1.78 0 0 1-1.269.533 1.78 1.78 0 0 1-1.268-.533 1.836 1.836 0 0 1-.525-1.288Z" fill="#2E574D"/></svg>