<svg width="46" height="46" fill="none" xmlns="http://www.w3.org/2000/svg"><path d="M40.969 34.258c0-9.919-8.05-17.969-17.969-17.969S5.031 24.34 5.031 34.258" fill="#2E574D"/><path d="M23 16.29c-9.919 0-17.969 8.05-17.969 17.968h7.188c0-8.697 2.587-15.956 10.781-17.61-1.15-.251 1.222-.359 0-.359Z" fill="#2E574D" opacity=".1"/><path d="M15.777 21.464c-1.69 1.581-3.343 5.462-3.343 9.2l3.343-9.2Z" fill="#FBF7EB"/><path d="M15.748 20.97c-1.935 1.446-4.243 5.236-4.71 9.378a.89.89 0 0 0 .791.994.89.89 0 0 0 .994-.792c.39-3.464 2.373-6.93 3.99-8.122.394-.28.458-.852.177-1.245-.277-.43-.848-.494-1.242-.213Z" fill="#FBF7EB"/><path d="M44.563 33.36H41.83c-.431-8.77-6.828-15.993-15.237-17.61v-2.156A3.604 3.604 0 0 0 23 10a3.604 3.604 0 0 0-3.594 3.594v2.156c-8.41 1.617-14.842 8.84-15.237 17.61H1.438a.89.89 0 0 0-.899.898.89.89 0 0 0 .898.898h43.126a.89.89 0 0 0 .898-.898.89.89 0 0 0-.898-.899Zm-23.36-19.766A1.78 1.78 0 0 1 23 11.797a1.78 1.78 0 0 1 1.797 1.797v1.869c-.575-.072-1.186-.072-1.797-.072-.61 0-1.222.036-1.797.072v-1.87ZM23 17.188c9.128 0 16.567 7.187 17.034 16.171H5.966C6.433 24.375 13.872 17.187 23 17.187Zm21.563-1.798h-8.985a.89.89 0 0 0-.898.9.89.89 0 0 0 .898.898h8.984a.89.89 0 0 0 .899-.899.89.89 0 0 0-.898-.898Zm0 3.594H40.25a.89.89 0 0 0-.898.899.89.89 0 0 0 .898.898h4.313a.89.89 0 0 0 .898-.898.89.89 0 0 0-.898-.899Zm0 3.594h-1.797a.89.89 0 0 0-.899.899.89.89 0 0 0 .899.898h1.797a.89.89 0 0 0 .898-.898.89.89 0 0 0-.898-.899Z" fill="#2E574D"/></svg>