<svg width="45" height="33" fill="none" xmlns="http://www.w3.org/2000/svg"><path d="M31.213 32.5a.513.513 0 0 1-.563-.289.52.52 0 0 1 .338-.721.513.513 0 0 1 .225-.008h8.43a.515.515 0 0 1 .421.509.519.519 0 0 1-.42.509h-8.431Zm4.039-2.16a.516.516 0 0 1-.42-.51.519.519 0 0 1 .42-.509h2.686a.516.516 0 0 1 .42.51.519.519 0 0 1-.42.508h-2.686Z" fill="#2E574D"/><path d="M33.58 31.554a.515.515 0 0 1-.611-.51.52.52 0 0 1 .386-.5.513.513 0 0 1 .225-.008h8.288a.513.513 0 0 1 .563.288.52.52 0 0 1-.338.722.515.515 0 0 1-.225.008H33.58Z" fill="#2E574D"/><path fill-rule="evenodd" clip-rule="evenodd" d="M18.567 1.107a3.228 3.228 0 0 1 1.803.539 3.261 3.261 0 0 1 .51 5.003 3.233 3.233 0 0 1-3.53.712 3.24 3.24 0 0 1-1.456-1.197 3.26 3.26 0 0 1 .396-4.099 3.23 3.23 0 0 1 2.277-.958Z" fill="#B3C7FA"/><path d="M20.49 2.411a2.716 2.716 0 0 0-3.842 0 2.738 2.738 0 0 0 0 3.857 2.715 2.715 0 0 0 3.732-.11 2.738 2.738 0 0 0 .11-3.747ZM18.57.625a3.724 3.724 0 0 1 2.084.626 3.763 3.763 0 0 1 .566 5.785 3.735 3.735 0 0 1-2.669 1.126 3.723 3.723 0 0 1-2.668-1.126h.125a3.751 3.751 0 0 1-1.121-2.679 3.763 3.763 0 0 1 1.12-2.678A3.728 3.728 0 0 1 18.57.607v.018Z" fill="#2E574D"/><path fill-rule="evenodd" clip-rule="evenodd" d="M23.354 2.75C26.307.5 27.836.625 28.672 2.07c.676 1.125 1.566 7.357 2.206 9.5-4.109-.768-8.11-1.643-10.405-5.535-1.192-2.018-1.032-3.572 2.881-3.286Z" fill="#B3C7FA"/><path d="M26.84 1.536a6.78 6.78 0 0 0-3.166 1.625.497.497 0 0 1-.355.107c-1.779-.125-2.58.107-2.882.536-.267.41 0 1.125.48 1.964a8.992 8.992 0 0 0 4.287 3.66 23.423 23.423 0 0 0 5.034 1.5c-.178-.767-.356-1.785-.57-2.767a35.986 35.986 0 0 0-1.422-5.875 1.409 1.409 0 0 0-1.388-.804m-3.735.804A7.423 7.423 0 0 1 26.68.5a2.322 2.322 0 0 1 2.348 1.304 33.817 33.817 0 0 1 1.512 6.16c.285 1.411.534 2.732.73 3.482a.518.518 0 0 1-.588.626 27.17 27.17 0 0 1-5.976-1.625 9.973 9.973 0 0 1-4.749-4.143c-.694-1.161-.96-2.233-.462-3.036.587-.75 1.69-1.143 3.628-.982Z" fill="#2E574D"/><path d="M22.89 2.947a.52.52 0 0 1 .303-.606.514.514 0 0 1 .64.213l.214.535c.178.535.423 1.045.73 1.518.273.28.584.52.924.715l.854.571a.519.519 0 0 1-.57.84l-.835-.554a4.657 4.657 0 0 1-1.156-.911 6.938 6.938 0 0 1-.872-1.786l-.231-.535Z" fill="#2E574D"/><path fill-rule="evenodd" clip-rule="evenodd" d="M39.128 5.857c.642 0 1.269.192 1.802.55a3.262 3.262 0 0 1 .474 5.01 3.234 3.234 0 0 1-3.54.683 3.24 3.24 0 0 1-1.445-1.213 3.26 3.26 0 0 1 .432-4.09 3.23 3.23 0 0 1 2.277-.94Z" fill="#B3C7FA"/><path d="M41.034 7.143a2.716 2.716 0 0 0-3.842 0 2.737 2.737 0 0 0 0 3.857 2.715 2.715 0 0 0 3.732-.11 2.737 2.737 0 0 0 .11-3.747Zm-1.903-1.821a3.724 3.724 0 0 1 2.085.626 3.763 3.763 0 0 1 .566 5.785 3.736 3.736 0 0 1-2.669 1.125 3.722 3.722 0 0 1-2.668-1.126 3.751 3.751 0 0 1-1.12-2.678 3.763 3.763 0 0 1 1.12-2.679 3.716 3.716 0 0 1 2.686-1.053Z" fill="#2E574D"/><path fill-rule="evenodd" clip-rule="evenodd" d="M3.93 7.643a3.314 3.314 0 0 1 2.384.902 3.339 3.339 0 0 1 1.05 2.33 3.35 3.35 0 0 1-1.044 2.342 3.325 3.325 0 0 1-2.39.908 3.313 3.313 0 0 1-2.378-.915 3.34 3.34 0 0 1-1.036-2.335 3.345 3.345 0 0 1 1.042-2.324 3.319 3.319 0 0 1 2.373-.908Z" fill="#B3C7FA"/><path d="M6.011 8.964a3.017 3.017 0 0 0-2.081-.803 3.017 3.017 0 0 0-2.152.803 2.607 2.607 0 0 0-.84 1.92 2.616 2.616 0 0 0 .84 1.92c.566.524 1.31.811 2.08.803a3.023 3.023 0 0 0 2.082-.803 2.607 2.607 0 0 0 .84-1.92 2.616 2.616 0 0 0-.84-1.92M3.859 7.18a4.029 4.029 0 0 1 2.775 1.089 3.57 3.57 0 0 1 1.204 2.678 3.583 3.583 0 0 1-1.204 2.68 4.029 4.029 0 0 1-2.775 1.088 4.03 4.03 0 0 1-2.686-1.16 3.57 3.57 0 0 1-1.203-2.68 3.584 3.584 0 0 1 1.204-2.679 4.029 4.029 0 0 1 2.757-1.07l-.071.053Z" fill="#2E574D"/><path fill-rule="evenodd" clip-rule="evenodd" d="M18.445 6c.922 0 1.823.274 2.59.788a4.674 4.674 0 0 1 1.716 2.1 4.696 4.696 0 0 1-1.01 5.099A4.642 4.642 0 0 1 16.661 15a4.664 4.664 0 0 1-2.091-1.723 4.692 4.692 0 0 1 .58-5.908A4.65 4.65 0 0 1 18.444 6Z" fill="#B3C7FA"/><path d="M21.343 7.732a4.137 4.137 0 0 0-5.235-.464 4.16 4.16 0 0 0-1.64 2.265 4.177 4.177 0 0 0 .16 2.797 4.154 4.154 0 0 0 1.892 2.06 4.13 4.13 0 0 0 5.146-1.068 4.171 4.171 0 0 0-.323-5.59Zm-2.9-2.25a5.163 5.163 0 0 1 3.288 1.175 5.214 5.214 0 0 1 1.289 6.468 5.183 5.183 0 0 1-2.584 2.354 5.157 5.157 0 0 1-3.485.172 5.178 5.178 0 0 1-2.803-2.087A5.212 5.212 0 0 1 14.799 7a5.148 5.148 0 0 1 3.646-1.518Z" fill="#2E574D"/><path fill-rule="evenodd" clip-rule="evenodd" d="M6.385 15.536C4.535 11.375 2.596 6.482 4.215 2a23.106 23.106 0 0 0 4.304 2.643c2.437 1.107 5.958 1.66 7.826 3.41 2.544 2.376 1.512 5.93 0 9.661l-9.96-2.178Z" fill="#B3C7FA"/><path d="M4.5 8.786a34.983 34.983 0 0 0 2.24 6.321l9.267 2.018a16.836 16.836 0 0 0 1.387-4.803 4.5 4.5 0 0 0-1.387-3.911 13.44 13.44 0 0 0-4.838-2.268 27.49 27.49 0 0 1-2.863-1.054 20.073 20.073 0 0 1-2.117-1.125c-.551-.339-1.12-.714-1.779-1.142a12.172 12.172 0 0 0 0 5.946m1.405 6.929A36.726 36.726 0 0 1 3.557 9a12.69 12.69 0 0 1 .23-7.143.5.5 0 0 1 .588-.321h.124c.8.607 1.53 1.09 2.206 1.518.648.397 1.32.754 2.01 1.071.9.383 1.82.717 2.757 1A14.099 14.099 0 0 1 16.7 7.643a5.378 5.378 0 0 1 1.672 4.732 18.788 18.788 0 0 1-1.637 5.5.517.517 0 0 1-.569.304l-9.89-2.143a.496.496 0 0 1-.373-.322l-.089-.017Z" fill="#2E574D"/><path d="M15.189 17.179a.519.519 0 0 1-.302.648.514.514 0 0 1-.659-.273l-.231-.59A15.807 15.807 0 0 0 8.892 9.25a.52.52 0 0 1 .346-.836.514.514 0 0 1 .348.086 16.54 16.54 0 0 1 5.354 8.071l.249.608Z" fill="#2E574D"/><path fill-rule="evenodd" clip-rule="evenodd" d="M22.126 10.714c.382 0 .761.067 1.12.197v-.197a3.332 3.332 0 0 1 1.333-2.658 3.301 3.301 0 0 1 2.919-.52v-.322a3.332 3.332 0 0 1 .969-2.348 3.31 3.31 0 0 1 2.34-.973 3.297 3.297 0 0 1 2.338.973 3.321 3.321 0 0 1 .97 2.348 3.68 3.68 0 0 1 0 .393 3.297 3.297 0 0 1 4.058 1.018c.302.406.508.877.601 1.375a3.3 3.3 0 0 1 4.202.547 3.325 3.325 0 0 1 .828 2.85 3.328 3.328 0 0 1-1.773 2.376c-.459.23-.965.352-1.478.352a3.333 3.333 0 0 1-.676 0c-.195 3.572-3.557 6.286-7.826 6.286a7.467 7.467 0 0 1-4.956-1.484 7.52 7.52 0 0 1-2.817-4.355 3.302 3.302 0 0 1-2.985.698 3.303 3.303 0 0 1-2.275-2.064 3.334 3.334 0 0 1 .39-3.052 3.313 3.313 0 0 1 2.718-1.422" fill="#B3C7FA"/><path d="M22.606 11.214h-.48a2.785 2.785 0 0 0-2.589 1.711 2.814 2.814 0 0 0 .58 3.057 2.787 2.787 0 0 0 3.788.161.516.516 0 0 1 .854.304 5.835 5.835 0 0 0 2.383 3.803 8.46 8.46 0 0 0 9.996-.107 5.655 5.655 0 0 0 2.241-4.107.501.501 0 0 1 .605-.393h.569a2.784 2.784 0 0 0 1.553-.462 2.814 2.814 0 0 0 .457-4.306 2.787 2.787 0 0 0-3.557-.393h-.196a.514.514 0 0 1-.587-.41 2.83 2.83 0 0 0-1.218-1.856 2.804 2.804 0 0 0-2.748-.198.514.514 0 0 1-.765-.5v-.321a2.83 2.83 0 0 0-.474-1.545 2.813 2.813 0 0 0-2.84-1.206 2.806 2.806 0 0 0-1.435.733 2.809 2.809 0 0 0-.818 1.982v.25a.52.52 0 0 1-.396.556.513.513 0 0 1-.245-.003h-.801c-.74 0-1.45.296-1.974.822a2.81 2.81 0 0 0-.818 1.982v.16a.54.54 0 0 1 0 .197.502.502 0 0 1-.447.334.497.497 0 0 1-.193-.03l-.445-.215Zm-.48-1.053h.623c.113-.93.56-1.786 1.258-2.408a3.816 3.816 0 0 1 2.53-.967h.427c.07-.91.46-1.765 1.103-2.41a3.798 3.798 0 0 1 5.336 0 3.828 3.828 0 0 1 1.103 2.374 3.81 3.81 0 0 1 2.812.334 3.835 3.835 0 0 1 1.812 2.184l.374-.125a3.792 3.792 0 0 1 3.77.964 3.83 3.83 0 0 1 0 5.357 3.806 3.806 0 0 1-2.721 1.108h-.213a6.772 6.772 0 0 1-2.562 4.285 9.456 9.456 0 0 1-11.223.179 7 7 0 0 1-2.632-3.697l-.498.215a3.81 3.81 0 0 1-4.02-.893 3.845 3.845 0 0 1-.787-4.163 3.837 3.837 0 0 1 1.401-1.707 3.814 3.814 0 0 1 2.107-.648v.018Z" fill="#2E574D"/><path fill-rule="evenodd" clip-rule="evenodd" d="M27.694 9.947a3.244 3.244 0 0 1 2.993 2.01 3.261 3.261 0 0 1-.71 3.544 3.233 3.233 0 0 1-3.534.693 3.24 3.24 0 0 1-1.449-1.205 3.26 3.26 0 0 1-.537-1.81c0-.862.341-1.689.948-2.298a3.23 3.23 0 0 1 2.29-.952" fill="#B3C7FA"/><path d="M29.613 11.214a2.718 2.718 0 0 0-3.851-.027 2.74 2.74 0 0 0-.027 3.867 2.718 2.718 0 0 0 3.85.026 2.74 2.74 0 0 0 .027-3.866ZM27.692 9.43a3.724 3.724 0 0 1 2.084.626c.618.412 1.1.999 1.384 1.686a3.764 3.764 0 0 1-.818 4.098 3.735 3.735 0 0 1-2.668 1.126 3.724 3.724 0 0 1-2.668-1.126 3.755 3.755 0 0 1-.811-4.115 3.747 3.747 0 0 1 1.398-1.684 3.725 3.725 0 0 1 2.099-.611Z" fill="#2E574D"/><path fill-rule="evenodd" clip-rule="evenodd" d="M1.031 14.446h43.435c0 7.75-7.56 17.536-15.457 17.536H16.488C8.59 32 1.03 22.196 1.03 14.446Z" fill="#2E574D"/><path d="M21.878 14.964H1.548c.32 7.429 7.47 16.518 14.923 16.518h12.557a13.992 13.992 0 0 0 5.56-1.62 14.048 14.048 0 0 0 4.436-3.737 19.16 19.16 0 0 0 4.945-11.16H21.878ZM1.032 13.946h43.435a.515.515 0 0 1 .516.518A19.879 19.879 0 0 1 39.77 26.84a15.043 15.043 0 0 1-4.743 3.963 14.987 14.987 0 0 1-5.929 1.716H16.49C8.341 32.518.48 22.446.48 14.464a.52.52 0 0 1 .552-.518Z" fill="#2E574D"/><path fill-rule="evenodd" clip-rule="evenodd" d="M35.323 12.268c-2.935-2.25-4.465-2.125-5.336-.679-.658 1.143-1.637 7.375-2.206 9.5 4.109-.767 8.11-1.642 10.405-5.535 1.192-2.018 1.032-3.572-2.881-3.286" fill="#B3C7FA"/><path d="M31.926 10.036a7.423 7.423 0 0 1 3.557 1.785c2.046-.107 3.166.304 3.558 1.036.498.804.23 1.786-.463 3.036a9.972 9.972 0 0 1-4.749 4.143 27.124 27.124 0 0 1-5.976 1.625.494.494 0 0 1-.231 0 .515.515 0 0 1-.356-.625c.196-.75.462-2.072.73-3.483.31-2.096.815-4.159 1.511-6.16a2.322 2.322 0 0 1 2.348-1.304m3.095 2.643a6.785 6.785 0 0 0-3.166-1.625 1.4 1.4 0 0 0-1.388.804 35.997 35.997 0 0 0-1.405 5.839c-.195 1.036-.391 2-.569 2.768a23.425 23.425 0 0 0 4.998-1.41 8.993 8.993 0 0 0 4.287-3.733c.498-.84.729-1.554.48-1.964-.25-.411-1.156-.679-2.9-.554a.498.498 0 0 1-.284-.178l-.053.053Z" fill="#2E574D"/><path d="M34.86 12.072a.52.52 0 0 1 .482-.391.513.513 0 0 1 .508.355.52.52 0 0 1-.047.428l-.23.536a6.922 6.922 0 0 1-.873 1.786c-.334.363-.725.67-1.156.91l-.836.554a.514.514 0 0 1-.714-.523.518.518 0 0 1 .145-.316l.836-.625c.34-.194.651-.434.925-.714.306-.473.55-.983.73-1.518l.23-.482Z" fill="#2E574D"/><path d="M11.223 27.286a.517.517 0 1 1 .57-.84l.835.536.872.465a.518.518 0 0 1-.445.91l-.925-.5-.907-.571ZM4.322 17.5a.528.528 0 0 1 .373-.643.523.523 0 0 1 .64.375 17.68 17.68 0 0 0 1.78 4.232 16.416 16.416 0 0 0 2.845 3.572.513.513 0 0 1-.328.886.508.508 0 0 1-.365-.136 17.419 17.419 0 0 1-2.989-3.857A18.698 18.698 0 0 1 4.322 17.5Z" fill="#FBF7EB"/></svg>