<svg width="32" height="33" fill="none" xmlns="http://www.w3.org/2000/svg"><path d="M13.81 2.614 2.19 14.234a3.097 3.097 0 0 0 0 4.38l11.62 11.62a3.097 3.097 0 0 0 4.38 0l11.62-11.62a3.097 3.097 0 0 0 0-4.38L18.19 2.615a3.097 3.097 0 0 0-4.38 0Z" fill="#343333"/><path d="M16.036 25.587a9.163 9.163 0 1 0 0-18.327 9.163 9.163 0 0 0 0 18.327Z" fill="#fff"/><path d="M18.747 10.698h-5.342a3.097 3.097 0 0 0-3.097 3.097v5.342a3.097 3.097 0 0 0 3.097 3.096h5.342a3.097 3.097 0 0 0 3.096-3.096v-5.342a3.097 3.097 0 0 0-3.096-3.097Z" fill="#343333"/><path d="M16.02 20.402a3.993 3.993 0 1 0 0-7.985 3.993 3.993 0 0 0 0 7.985Z" fill="#fff"/><path d="m15.42 15.324-.371.37a1.032 1.032 0 0 0 0 1.46l.37.37a1.032 1.032 0 0 0 1.46 0l.37-.37a1.032 1.032 0 0 0 0-1.46l-.37-.37a1.032 1.032 0 0 0-1.46 0Z" fill="#343333"/></svg>