<svg width="110" height="110" fill="none" xmlns="http://www.w3.org/2000/svg"><circle cx="55" cy="55" r="55" fill="#FBF7EB"/><path d="M36.6 65.5V45.667h-2.3v-2.334h2.3V41h-2.3v-2.333h2.3v-2.334h-2.3V34h13.8c1.15.07 2.185.56 3.082 1.47a5.263 5.263 0 0 1 1.518 3.197h23V41h-23c-.115 1.237-.621 2.333-1.518 3.337-.897 1.003-1.932 1.446-3.082 1.33h-4.6v16.45c.115 0 .299-.024.552-.117.253-.093.46 0 .598 0 1.288 0 2.76.327 4.416.98.943-2.147 2.553-4.06 4.853-5.647 2.3-1.586 4.6-2.333 6.9-2.333 3.519 0 6.509 1.237 8.947 3.71 2.438 2.473 3.634 5.507 3.634 9.123v.63c0 .304-.069.467-.069.537H34.622c.299-1.167.943-2.333 1.978-3.5Zm4.6-2.963v-16.87h-2.3v17.966c1.15-.583 1.863-.933 2.3-1.096Zm6.9-19.204V41h-4.6v2.333h4.6Zm0-7h-4.6v2.334h4.6v-2.334Zm-9.2 0v2.334h2.3v-2.334h-2.3Zm0 4.667v2.333h2.3V41h-2.3ZM32 71.333h46L73.4 76H36.6L32 71.333Z" fill="#2E574D"/></svg>