<svg width="66" height="66" fill="none" xmlns="http://www.w3.org/2000/svg"><path d="M55.956 47.532c0 .826-.183 1.675-.574 2.502a9.469 9.469 0 0 1-1.564 2.341c-1.126 1.24-2.368 2.135-3.77 2.71-1.38.573-2.874.871-4.483.871-2.346 0-4.851-.55-7.495-1.675-2.645-1.125-5.288-2.64-7.91-4.546a66.081 66.081 0 0 1-7.54-6.428 65.272 65.272 0 0 1-6.415-7.506c-1.885-2.617-3.403-5.234-4.506-7.829-1.104-2.617-1.655-5.119-1.655-7.506 0-1.561.275-3.053.827-4.43.552-1.401 1.426-2.687 2.644-3.835 1.471-1.446 3.08-2.158 4.782-2.158.644 0 1.288.138 1.863.414a3.747 3.747 0 0 1 1.54 1.285l5.334 7.507c.414.574.713 1.102.92 1.607.206.482.321.964.321 1.4 0 .551-.16 1.102-.482 1.63-.3.528-.736 1.08-1.288 1.63l-1.747 1.814a1.228 1.228 0 0 0-.368.918c0 .184.023.344.069.528.069.184.138.321.184.46.414.757 1.126 1.744 2.138 2.937a78.558 78.558 0 0 0 3.334 3.628c1.241 1.216 2.437 2.341 3.655 3.374 1.196 1.01 2.184 1.7 2.966 2.112.115.046.253.115.414.184.184.069.368.092.575.092.39 0 .69-.138.942-.39l1.748-1.722c.574-.574 1.126-1.01 1.655-1.286.529-.321 1.057-.482 1.632-.482.437 0 .897.092 1.403.298.506.207 1.034.506 1.61.896l7.61 5.395c.597.413 1.01.895 1.264 1.469.23.574.367 1.148.367 1.79Z" fill="#2E574D"/></svg>