<svg width="32" height="32" fill="none" xmlns="http://www.w3.org/2000/svg"><g clip-path="url(#a)"><path d="M14.262 2h2.476l1.518.225 1.294.337 1.238.45 1.18.563 1.013.619.788.562.731.619.844.787.393.45.732.9.618.957.563 1.012.45 1.013.506 1.518.281 1.35.113.9v2.476l-.225 1.518-.337 1.294-.45 1.238-.563 1.18-.619 1.013-.562.788-.619.731-.788.844-.45.393-.9.732-.956.618-1.012.563-1.013.45-1.518.506-1.35.281-.9.113h-2.476l-1.518-.225-1.294-.337-1.237-.45-1.182-.563-1.012-.619-.788-.562-.731-.619-.844-.788-.393-.45-.732-.9-.618-.956-.563-1.012-.45-1.013-.506-1.518-.282-1.35-.112-.9v-2.476l.225-1.518.337-1.294.45-1.237.563-1.182.619-1.012.562-.788.619-.731.787-.844.45-.393.9-.732.957-.618L9.48 3.35l1.013-.45 1.518-.506 1.35-.282.9-.112Z" fill="#EEEEF0"/><path d="M27.814 15.895h1.18v.844l-.224 1.518-.338 1.294-.45 1.238-.562 1.181-.619 1.013-.562.787-.62.731-.787.844-.45.394-.9.731-.956.619-1.012.562-1.013.45-1.519.507-1.35.28-.9.113h-.843V27.54l.056-1.463.169-2.081.225-1.463.337-1.293.45-1.125.506-.844.507-.619.675-.675.787-.562.9-.45.9-.338 1.406-.337 1.407-.169.225-.056 2.08-.113 1.295-.056ZM15.889 2h.843l1.52.225 1.293.337 1.237.45 1.182.563 1.012.619.788.562.73.619.845.787.393.45.732.9.618.957.563 1.012.45 1.013.506 1.518.281 1.35.113.9v.844h-1.463l-1.462-.056-2.081-.169-1.463-.225-1.294-.337-1.125-.45-.843-.506-.62-.507-.674-.675-.563-.787-.562-1.181-.394-1.238-.169-.787-.225-1.688-.112-1.575-.056-1.744V2Zm-1.627 0h.844v1.181l-.112 2.363-.169 1.8-.281 1.631-.507 1.519-.45.9-.562.787-.45.507-.619.506-.787.506-1.069.506-1.125.338-1.125.225-1.35.168-1.575.113-1.744.056H2v-.844l.225-1.518.337-1.294.45-1.237.563-1.182.619-1.012.562-.788.619-.731.787-.844.45-.393.9-.732.957-.618L9.48 3.35l1.013-.45 1.518-.506 1.35-.282.9-.112ZM2 15.895h1.181l2.363.113 1.8.168 1.631.282 1.519.506 1.069.562.73.563.732.731.563.788.45.9.337.9.338 1.406.168 1.406.056.225.113 2.081.056 1.294v1.181h-.844l-1.518-.225-1.294-.337-1.237-.45-1.182-.563-1.012-.618-.788-.563-.731-.619-.844-.787-.393-.45-.732-.9-.618-.957-.563-1.012-.45-1.012-.506-1.52-.282-1.35-.112-.9v-.843Z" fill="#00A499"/></g><defs><clipPath id="a"><path fill="#fff" transform="translate(2 2)" d="M0 0h27v27H0z"/></clipPath></defs></svg>