<svg width="31" height="31" fill="none" xmlns="http://www.w3.org/2000/svg"><path fill-rule="evenodd" clip-rule="evenodd" d="M15.905 3.875c1.236 0 2.503.032 3.731.084l1.451.07 1.39.082 1.3.088 1.188.092a5.495 5.495 0 0 1 5.05 4.947l.057.614.108 1.315c.102 1.363.177 2.849.177 4.27 0 1.42-.075 2.906-.177 4.269l-.108 1.315a51.13 51.13 0 0 1-.058.614 5.495 5.495 0 0 1-5.05 4.947l-1.186.09-1.3.09-1.39.083-1.452.069a89.117 89.117 0 0 1-3.731.084 89.112 89.112 0 0 1-3.731-.084l-1.451-.07-1.39-.082-1.3-.09-1.188-.09a5.494 5.494 0 0 1-5.05-4.947l-.057-.614-.109-1.316a59.03 59.03 0 0 1-.176-4.269c0-1.42.075-2.906.176-4.269l.109-1.315c.019-.21.037-.415.058-.614a5.495 5.495 0 0 1 5.048-4.947L8.03 4.2l1.3-.088 1.391-.083 1.451-.07a89.136 89.136 0 0 1 3.733-.083Zm-2.89 8.057v7.009a.868.868 0 0 0 1.3.752l6.07-3.505a.867.867 0 0 0 0-1.503l-6.07-3.503a.866.866 0 0 0-1.3.751v-.001Z" fill="#00A499"/></svg>