<svg width="24" height="24" viewBox="0 0 24 24" fill="none" xmlns="http://www.w3.org/2000/svg">
<path d="M11.5 6.92656C11.2468 6.91388 10.9937 6.95279 10.756 7.04094C10.5184 7.12908 10.3011 7.26463 10.1174 7.43933C9.93373 7.61404 9.78748 7.82426 9.68755 8.05722C9.58762 8.29019 9.53608 8.54104 9.53608 8.79453C9.53608 9.04803 9.58762 9.29887 9.68755 9.53184C9.78748 9.76481 9.93373 9.97503 10.1174 10.1497C10.3011 10.3244 10.5184 10.46 10.756 10.5481C10.9937 10.6363 11.2468 10.6752 11.5 10.6625C11.7532 10.6752 12.0063 10.6363 12.244 10.5481C12.4816 10.46 12.6989 10.3244 12.8826 10.1497C13.0663 9.97503 13.2125 9.76481 13.3125 9.53184C13.4124 9.29887 13.4639 9.04803 13.4639 8.79453C13.4639 8.54104 13.4124 8.29019 13.3125 8.05722C13.2125 7.82426 13.0663 7.61404 12.8826 7.43933C12.6989 7.26463 12.4816 7.12908 12.244 7.04094C12.0063 6.95279 11.7532 6.91388 11.5 6.92656ZM19 2H4C2.34531 2 1 3.34531 1 5V20C1 21.6547 2.34531 23 4 23H19C20.6547 23 22 21.6547 22 20V5C22 3.34531 20.6547 2 19 2ZM11.5 4.99531C12.5076 4.99531 13.474 5.39559 14.1865 6.10808C14.8989 6.82057 15.2992 7.78692 15.2992 8.79453C15.2992 9.80215 14.8989 10.7685 14.1865 11.481C13.474 12.1935 12.5076 12.5938 11.5 12.5938C10.4924 12.5938 9.52604 12.1935 8.81355 11.481C8.10106 10.7685 7.70078 9.80215 7.70078 8.79453C7.70078 7.78692 8.10106 6.82057 8.81355 6.10808C9.52604 5.39559 10.4924 4.99531 11.5 4.99531ZM14.2797 12.8844C15.0672 12.2656 15.6625 12.6266 15.8781 13.0531C16.2437 13.8031 15.8266 14.1641 14.8703 14.7875C14.0687 15.2984 12.9625 15.5 12.2359 15.575L12.8453 16.1797L15.0812 18.4156C15.8969 19.2547 14.5656 20.5625 13.7406 19.7562C13.1781 19.1844 12.3578 18.3641 11.5047 17.5109L9.26875 19.7562C8.43906 20.5625 7.1125 19.2406 7.9375 18.4156L8.52344 17.8297C9.01094 17.3422 9.58281 16.7656 10.1734 16.1797L10.7781 15.575C10.0563 15.5 8.93594 15.3078 8.125 14.7875C7.17344 14.1641 6.75156 13.8078 7.12188 13.0531C7.3375 12.6266 7.93281 12.2656 8.72031 12.8844C8.72031 12.8844 9.78438 13.7281 11.5 13.7281C13.2156 13.7281 14.2797 12.8844 14.2797 12.8844Z" fill="#393C43"/>
</svg>
