<svg width="26" height="18" viewBox="0 0 26 18" fill="none" xmlns="http://www.w3.org/2000/svg">
  <path d="M13.0397 0.416504C9.54472 0.416504 6.74616 1.83347 4.70888 3.51996C2.68458 5.19106 1.33071 7.19329 0.690551 8.5679C0.547811 8.87208 0.547811 9.21092 0.690551 9.51511C1.33071 10.8897 2.68458 12.8919 4.70888 14.563C6.74616 16.2495 9.54472 17.6665 13.0397 17.6665C16.5346 17.6665 19.3332 16.2495 21.3705 14.563C23.3948 12.8881 24.7486 10.8897 25.3931 9.51511C25.5358 9.21092 25.5358 8.87208 25.3931 8.5679C24.7486 7.19329 23.3948 5.19106 21.3705 3.51996C19.3332 1.83347 16.5346 0.416504 13.0397 0.416504ZM6.81104 9.0415C6.81104 7.57097 7.46727 6.16067 8.63536 5.12085C9.80346 4.08103 11.3877 3.49686 13.0397 3.49686C14.6916 3.49686 16.2759 4.08103 17.444 5.12085C18.6121 6.16067 19.2683 7.57097 19.2683 9.0415C19.2683 10.512 18.6121 11.9223 17.444 12.9622C16.2759 14.002 14.6916 14.5861 13.0397 14.5861C11.3877 14.5861 9.80346 14.002 8.63536 12.9622C7.46727 11.9223 6.81104 10.512 6.81104 9.0415ZM13.0397 6.57722C13.0397 7.93643 11.7983 9.0415 10.2714 9.0415C9.96428 9.0415 9.67015 8.9953 9.39333 8.91444C9.15543 8.84513 8.8786 8.97605 8.88725 9.19937C8.90023 9.46505 8.94348 9.73073 9.02566 9.99641C9.61825 11.9678 11.8978 13.1384 14.1124 12.6109C16.327 12.0834 17.6419 10.0542 17.0493 8.08274C16.5692 6.48481 14.9818 5.41053 13.217 5.34508C12.9661 5.33737 12.8191 5.57995 12.8969 5.79558C12.9878 6.04201 13.0397 6.30384 13.0397 6.57722Z" fill="white" />
</svg>