<svg width="24" height="25" viewBox="0 0 24 25" fill="none" xmlns="http://www.w3.org/2000/svg">
<path d="M14.6957 21.7167C15.6411 22.3276 16.7677 22.5938 17.8861 22.4706C19.0045 22.3474 20.0464 21.8422 20.8367 21.0401L21.5275 20.3636C21.8304 20.0533 22 19.6366 22 19.2027C22 18.7688 21.8304 18.3521 21.5275 18.0418L18.5952 15.1357C18.288 14.8333 17.8745 14.6639 17.4438 14.6639C17.013 14.6639 16.5995 14.8333 16.2923 15.1357C15.9825 15.4391 15.5665 15.6089 15.1332 15.6089C14.6999 15.6089 14.2839 15.4391 13.9741 15.1357L9.36833 10.5229C9.21469 10.3712 9.09268 10.1905 9.0094 9.99121C8.92612 9.79191 8.88323 9.57802 8.88323 9.36198C8.88323 9.14593 8.92612 8.93204 9.0094 8.73275C9.09268 8.53345 9.21469 8.35272 9.36833 8.20108C9.67025 7.8934 9.83942 7.47926 9.83942 7.04787C9.83942 6.61648 9.67025 6.20234 9.36833 5.89466L6.45135 2.9732C6.14155 2.66985 5.7255 2.5 5.29224 2.5C4.85898 2.5 4.44293 2.66985 4.13312 2.9732L3.45761 3.66512C2.65674 4.4566 2.15239 5.50011 2.02937 6.62021C1.90635 7.74031 2.17216 8.86867 2.7821 9.81557C5.96014 14.5064 10.0038 18.5459 14.6957 21.7167Z" fill="#393C43"/>
</svg>
