<svg width="24" height="25" viewBox="0 0 24 25" fill="none" xmlns="http://www.w3.org/2000/svg">
<g clip-path="url(#clip0_834_26188)">
<path fill-rule="evenodd" clip-rule="evenodd" d="M23 12.5C23 18.5751 18.0751 23.5 12 23.5C5.92487 23.5 1 18.5751 1 12.5C1 6.42487 5.92487 1.5 12 1.5C18.0751 1.5 23 6.42487 23 12.5ZM12.3942 9.62068C11.3243 10.0657 9.18596 10.9868 5.97924 12.3839C5.45851 12.591 5.18574 12.7935 5.1609 12.9916C5.11894 13.3264 5.53815 13.4582 6.10901 13.6377C6.18667 13.6621 6.26712 13.6874 6.34961 13.7142C6.91125 13.8968 7.66676 14.1104 8.05951 14.1189C8.41578 14.1266 8.81342 13.9797 9.25242 13.6782C12.2486 11.6558 13.7952 10.6335 13.8923 10.6115C13.9608 10.5959 14.0557 10.5764 14.12 10.6335C14.1844 10.6907 14.178 10.799 14.1712 10.828C14.1297 11.005 12.4841 12.5349 11.6325 13.3266C11.367 13.5734 11.1787 13.7485 11.1402 13.7885C11.054 13.8781 10.9661 13.9628 10.8816 14.0442C10.3599 14.5472 9.96859 14.9244 10.9033 15.5404C11.3525 15.8364 11.712 16.0812 12.0705 16.3254C12.4622 16.5921 12.8528 16.8581 13.3581 17.1894C13.4869 17.2738 13.6099 17.3614 13.7296 17.4468C14.1854 17.7717 14.5949 18.0636 15.1007 18.0171C15.3946 17.99 15.6983 17.7136 15.8525 16.8893C16.2169 14.9412 16.9332 10.7203 17.0987 8.98089C17.1132 8.8285 17.095 8.63347 17.0803 8.54786C17.0657 8.46225 17.035 8.34027 16.9238 8.24997C16.792 8.14303 16.5885 8.12047 16.4975 8.12208C16.0838 8.12937 15.449 8.35008 12.3942 9.62068Z" fill="#787B83"/>
</g>
<defs>
<clipPath id="clip0_834_26188">
<rect width="22" height="22" fill="white" transform="translate(1 1.5)"/>
</clipPath>
</defs>
</svg>
