<svg width="22" height="22" viewBox="0 0 22 22" fill="none" xmlns="http://www.w3.org/2000/svg">
<path fill-rule="evenodd" clip-rule="evenodd" d="M11 0.6875C5.30819 0.6875 0.6875 5.30819 0.6875 11C0.6875 16.6918 5.30819 21.3125 11 21.3125C16.6918 21.3125 21.3125 16.6918 21.3125 11C21.3125 5.30819 16.6918 0.6875 11 0.6875ZM10.3125 9.80925C10.0499 9.96025 9.84446 10.1938 9.72827 10.4736C9.61207 10.7534 9.59159 11.0638 9.67 11.3564C9.74842 11.649 9.92133 11.9076 10.1619 12.0918C10.4024 12.276 10.697 12.3756 11 12.375C11.5087 12.375 11.9529 12.0986 12.1908 11.6875H17.875C18.0573 11.6875 18.2322 11.6151 18.3611 11.4861C18.4901 11.3572 18.5625 11.1823 18.5625 11C18.5625 10.8177 18.4901 10.6428 18.3611 10.5139C18.2322 10.3849 18.0573 10.3125 17.875 10.3125H12.1908C12.0695 10.1039 11.8961 9.93051 11.6875 9.80925V6.1875C11.6875 6.00516 11.6151 5.8303 11.4861 5.70136C11.3572 5.57243 11.1823 5.5 11 5.5C10.8177 5.5 10.6428 5.57243 10.5139 5.70136C10.3849 5.8303 10.3125 6.00516 10.3125 6.1875V9.80925Z" fill="#393C43"/>
</svg>