<svg width="24" height="24" viewBox="0 0 24 24" fill="none" xmlns="http://www.w3.org/2000/svg">
<g clip-path="url(#clip0_2007_6602)">
<path d="M18.074 4.29C17.2457 3.37956 16.7892 2.21034 16.7895 1H13.0453V15.4667C13.0164 16.2495 12.6731 16.9911 12.0877 17.5351C11.5023 18.0791 10.7205 18.3832 9.90689 18.3833C8.18622 18.3833 6.75638 17.03 6.75638 15.35C6.75638 13.3433 8.76786 11.8383 10.8399 12.4567V8.77C6.65944 8.23333 3 11.36 3 15.35C3 19.235 6.34439 22 9.89477 22C13.6996 22 16.7895 19.025 16.7895 15.35V8.01167C18.3078 9.06149 20.1307 9.62475 22 9.62167V6.01667C22 6.01667 19.7219 6.12167 18.074 4.29Z" fill="#393C43"/>
</g>
<defs>
<clipPath id="clip0_2007_6602">
<rect width="24" height="24" fill="white"/>
</clipPath>
</defs>
</svg>
