<svg width="24" height="25" viewBox="0 0 24 25" fill="none" xmlns="http://www.w3.org/2000/svg">
<g clip-path="url(#clip0_834_26186)">
<path fill-rule="evenodd" clip-rule="evenodd" d="M17.2634 2.09258C13.8759 1.30247 10.3631 1.30247 6.97556 2.09258L6.61056 2.17684C5.6577 2.39913 4.78255 2.89269 4.08233 3.6027C3.38211 4.31271 2.88423 5.21136 2.644 6.19883C1.78533 9.72934 1.78533 13.4277 2.644 16.9582C2.8731 17.9 3.33676 18.7618 3.98797 19.4563C4.63919 20.1508 5.45481 20.6533 6.35216 20.9128L6.85282 24.0315C6.8688 24.1306 6.90994 24.2233 6.97194 24.3001C7.03394 24.377 7.11455 24.435 7.20536 24.4683C7.29617 24.5016 7.39387 24.5088 7.48828 24.4893C7.5827 24.4698 7.67037 24.4242 7.74218 24.3574L10.6826 21.6127C12.89 21.7533 15.1053 21.5691 17.2634 21.0656L17.6295 20.9813C18.5824 20.7591 19.4575 20.2655 20.1577 19.5555C20.858 18.8455 21.3558 17.9468 21.5961 16.9594C22.4546 13.4288 22.4546 9.73048 21.5961 6.19996C21.3558 5.21234 20.8577 4.31359 20.1573 3.60357C19.4569 2.89355 18.5815 2.40007 17.6284 2.17796L17.2634 2.09258ZM7.8843 6.10783C7.68419 6.07744 7.48014 6.11947 7.30611 6.22692H7.29104C6.88728 6.47408 6.52335 6.78528 6.21326 7.15153C5.95485 7.46273 5.81488 7.7773 5.77828 8.08063C5.75674 8.26039 5.77182 8.44239 5.82242 8.61428L5.8418 8.62551C6.13251 9.51642 6.51151 10.3736 6.97449 11.1803C7.57147 12.3133 8.3061 13.3611 9.16019 14.2979L9.18603 14.3361L9.22694 14.3675L9.25171 14.3979L9.28185 14.4248C10.1828 15.3187 11.1894 16.0889 12.2772 16.7167C13.5208 17.4233 14.2756 17.757 14.7289 17.8963V17.9031C14.8613 17.9458 14.9819 17.9649 15.1036 17.9649C15.4896 17.9351 15.855 17.7713 16.1415 17.4997C16.4914 17.1762 16.7875 16.7953 17.0179 16.3718V16.3639C17.2344 15.937 17.1611 15.5348 16.8489 15.2618C16.2217 14.69 15.5435 14.1821 14.8236 13.7451C14.3413 13.4721 13.8514 13.6373 13.6533 13.9136L13.2301 14.4709C13.0126 14.7473 12.6185 14.7091 12.6185 14.7091L12.6078 14.7158C9.66731 13.9327 8.8824 10.8264 8.8824 10.8264C8.8824 10.8264 8.84579 10.404 9.1182 10.1882L9.64793 9.74336C9.90203 9.52765 10.0786 9.0176 9.80621 8.51429C9.39018 7.76243 8.90441 7.055 8.35589 6.40218C8.23626 6.24854 8.06849 6.1439 7.88215 6.10671L7.8843 6.10783ZM12.8522 4.75743C12.7094 4.75743 12.5725 4.81661 12.4715 4.92196C12.3706 5.0273 12.3138 5.17018 12.3138 5.31916C12.3138 5.46814 12.3706 5.61102 12.4715 5.71637C12.5725 5.82171 12.7094 5.88089 12.8522 5.88089C14.2142 5.88089 15.3447 6.34488 16.2395 7.23467C16.6992 7.72113 17.0578 8.29746 17.2925 8.92885C17.5283 9.56136 17.636 10.2366 17.608 10.9129C17.605 10.9866 17.616 11.0603 17.6403 11.1296C17.6646 11.199 17.7018 11.2626 17.7497 11.317C17.8464 11.4268 17.9809 11.4919 18.1237 11.4982C18.2665 11.5045 18.4058 11.4513 18.511 11.3504C18.6162 11.2494 18.6787 11.109 18.6847 10.9601C18.7181 10.1281 18.5857 9.298 18.296 8.52215C18.005 7.74262 17.5638 7.0337 16.9996 6.43926L16.9889 6.42802C15.8788 5.32141 14.4737 4.75743 12.8522 4.75743ZM12.8156 6.6044C12.6728 6.6044 12.5359 6.66359 12.4349 6.76893C12.334 6.87428 12.2772 7.01716 12.2772 7.16614C12.2772 7.31512 12.334 7.45799 12.4349 7.56334C12.5359 7.66868 12.6728 7.72787 12.8156 7.72787H12.8339C13.8158 7.80089 14.5308 8.14242 15.0314 8.70303C15.545 9.28049 15.811 9.99838 15.7905 10.8859C15.7872 11.0349 15.8408 11.1791 15.9394 11.2869C16.0381 11.3947 16.1737 11.4571 16.3165 11.4606C16.4592 11.464 16.5975 11.4081 16.7008 11.3052C16.804 11.2023 16.8639 11.0607 16.8672 10.9118C16.893 9.74673 16.5334 8.74123 15.8207 7.93908V7.93683C15.0917 7.1212 14.0915 6.68979 12.8877 6.60553L12.8694 6.60328L12.8156 6.6044ZM12.7951 8.4862C12.7231 8.47957 12.6505 8.48815 12.5817 8.51144C12.5129 8.53472 12.4493 8.57224 12.3947 8.62174C12.3401 8.67123 12.2956 8.7317 12.2639 8.79953C12.2322 8.86736 12.2139 8.94117 12.2102 9.01653C12.2064 9.0919 12.2173 9.16728 12.242 9.23818C12.2668 9.30908 12.305 9.37405 12.3544 9.4292C12.4038 9.48435 12.4633 9.52855 12.5294 9.55918C12.5955 9.5898 12.6668 9.6062 12.7391 9.60742C13.1892 9.63214 13.4767 9.77369 13.6576 9.96356C13.8395 10.1545 13.9752 10.4612 14 10.941C14.0013 11.0164 14.0172 11.0907 14.0466 11.1595C14.0761 11.2284 14.1185 11.2903 14.1714 11.3417C14.2243 11.3931 14.2866 11.4328 14.3545 11.4585C14.4224 11.4843 14.4946 11.4955 14.5668 11.4915C14.6389 11.4875 14.7096 11.4683 14.7745 11.4353C14.8394 11.4022 14.8973 11.3558 14.9447 11.2989C14.9921 11.2419 15.028 11.1756 15.0503 11.1039C15.0726 11.0322 15.0808 10.9565 15.0745 10.8814C15.04 10.2073 14.8376 9.61191 14.4231 9.17376C14.0064 8.73561 13.439 8.52215 12.7951 8.4862Z" fill="#787B83"/>
</g>
<defs>
<clipPath id="clip0_834_26186">
<rect width="24" height="24" fill="white" transform="translate(0 0.5)"/>
</clipPath>
</defs>
</svg>
