<svg width="24" height="25" viewBox="0 0 24 25" fill="none" xmlns="http://www.w3.org/2000/svg">
<g clip-path="url(#clip0_834_26187)">
<path d="M12 2.5C17.523 2.5 22 6.977 22 12.5C22 18.023 17.523 22.5 12 22.5C10.2328 22.5029 8.49667 22.0352 6.97001 21.145L2.00401 22.5L3.35601 17.532C2.46511 16.0049 1.99706 14.268 2.00001 12.5C2.00001 6.977 6.47701 2.5 12 2.5ZM8.59201 7.8L8.39201 7.808C8.26254 7.81589 8.13599 7.8499 8.02001 7.908C7.91153 7.96943 7.81251 8.04622 7.72601 8.136C7.60601 8.249 7.53801 8.347 7.46501 8.442C7.09514 8.9229 6.89599 9.51331 6.89901 10.12C6.90101 10.61 7.02901 11.087 7.22901 11.533C7.63801 12.435 8.31101 13.39 9.19901 14.275C9.41301 14.488 9.62301 14.702 9.84901 14.901C10.9524 15.8725 12.2673 16.573 13.689 16.947L14.257 17.034C14.442 17.044 14.627 17.03 14.813 17.021C15.1043 17.006 15.3886 16.9271 15.646 16.79C15.777 16.7225 15.9048 16.6491 16.029 16.57C16.029 16.57 16.072 16.542 16.154 16.48C16.289 16.38 16.372 16.309 16.484 16.192C16.567 16.106 16.639 16.005 16.694 15.89C16.772 15.727 16.85 15.416 16.882 15.157C16.906 14.959 16.899 14.851 16.896 14.784C16.892 14.677 16.803 14.566 16.706 14.519L16.124 14.258C16.124 14.258 15.254 13.879 14.722 13.637C14.6663 13.6127 14.6067 13.5988 14.546 13.596C14.4776 13.589 14.4085 13.5967 14.3433 13.6186C14.2781 13.6405 14.2183 13.6761 14.168 13.723C14.163 13.721 14.096 13.778 13.373 14.654C13.3315 14.7098 13.2744 14.7519 13.2088 14.7751C13.1433 14.7982 13.0723 14.8013 13.005 14.784C12.9399 14.7665 12.876 14.7445 12.814 14.718C12.69 14.666 12.647 14.646 12.562 14.61C11.9881 14.3595 11.4567 14.0211 10.987 13.607C10.861 13.497 10.744 13.377 10.624 13.261C10.2306 12.8842 9.88774 12.458 9.60401 11.993L9.54501 11.898C9.50264 11.8342 9.46837 11.7653 9.44301 11.693C9.40501 11.546 9.50401 11.428 9.50401 11.428C9.50401 11.428 9.74701 11.162 9.86001 11.018C9.97001 10.878 10.063 10.742 10.123 10.645C10.241 10.455 10.278 10.26 10.216 10.109C9.93601 9.425 9.64601 8.744 9.34801 8.068C9.28901 7.934 9.11401 7.838 8.95501 7.819C8.90101 7.813 8.84701 7.807 8.79301 7.803C8.65872 7.79633 8.52415 7.79766 8.39001 7.807L8.59201 7.8Z" fill="#787B83"/>
</g>
<defs>
<clipPath id="clip0_834_26187">
<rect width="24" height="24" fill="white" transform="translate(0 0.5)"/>
</clipPath>
</defs>
</svg>
