<svg width="24" height="24" viewBox="0 0 24 24" fill="none" xmlns="http://www.w3.org/2000/svg">
<g clip-path="url(#clip0_2007_6594)">
<path d="M24.741 5.9457C24.741 5.9457 24.4871 4.15313 23.7051 3.36602C22.7148 2.33008 21.6078 2.325 21.1 2.26406C17.4641 2 12.0051 2 12.0051 2H11.9949C11.9949 2 6.53594 2 2.9 2.26406C2.39219 2.325 1.28516 2.33008 0.294922 3.36602C-0.487109 4.15313 -0.735938 5.9457 -0.735938 5.9457C-0.735938 5.9457 -1 8.05313 -1 10.1555V12.1258C-1 14.2281 -0.741016 16.3355 -0.741016 16.3355C-0.741016 16.3355 -0.487109 18.1281 0.289844 18.9152C1.28008 19.9512 2.58008 19.9156 3.15898 20.0273C5.24102 20.2254 12 20.2863 12 20.2863C12 20.2863 17.4641 20.2762 21.1 20.0172C21.6078 19.9563 22.7148 19.9512 23.7051 18.9152C24.4871 18.1281 24.741 16.3355 24.741 16.3355C24.741 16.3355 25 14.2332 25 12.1258V10.1555C25 8.05313 24.741 5.9457 24.741 5.9457ZM9.31367 14.5176V7.21016L16.3367 10.8766L9.31367 14.5176Z" fill="#393C43"/>
</g>
<defs>
<clipPath id="clip0_2007_6594">
<rect width="24" height="24" fill="white"/>
</clipPath>
</defs>
</svg>
