<svg width="18" height="18" fill="none" xmlns="http://www.w3.org/2000/svg"><g clip-path="url(#a)"><path d="M17.207 5.128 15.57 3.49l.71-.71a.749.749 0 1 0-1.06-1.06l-.71.71L12.872.793a2.775 2.775 0 0 0-3.828 0 2.707 2.707 0 0 0 0 3.83l1.636 1.636-4.42 4.42-1.638-1.636a2.775 2.775 0 0 0-3.828 0 2.707 2.707 0 0 0 0 3.83l1.636 1.636-.71.71a.75.75 0 1 0 1.06 1.061l.71-.71 1.638 1.636a2.706 2.706 0 1 0 3.829-3.828L7.32 11.74l4.425-4.421 1.637 1.636a2.706 2.706 0 0 0 4.622-1.914 2.705 2.705 0 0 0-.794-1.914h-.003Z" fill="#787B83"/></g><defs><clipPath id="a"><path fill="#fff" d="M0 0h18v18H0z"/></clipPath></defs></svg>