<svg width="18" height="18" fill="none" xmlns="http://www.w3.org/2000/svg"><g clip-path="url(#a)"><path d="M9.838.044a8.979 8.979 0 0 1 8.118 8.117A7.152 7.152 0 0 1 11.85 6.15 7.15 7.15 0 0 1 9.838.044Zm7.076 9.706A8.647 8.647 0 0 1 8.329.036 8.956 8.956 0 0 0 .035 8.343a8.53 8.53 0 0 1 9.622 9.62 8.954 8.954 0 0 0 8.306-8.284 8.673 8.673 0 0 1-1.05.07ZM6.179 11.82A7.06 7.06 0 0 0 .045 9.853a8.981 8.981 0 0 0 8.1 8.1 7.056 7.056 0 0 0-1.966-6.131Z" fill="#787B83"/></g><defs><clipPath id="a"><path fill="#fff" d="M0 0h18v18H0z"/></clipPath></defs></svg>