<svg width="24" height="24" fill="none" xmlns="http://www.w3.org/2000/svg"><path d="M12.815 4.386s.016 2.002-.009 2.353l1.247-.254a.924.924 0 0 0 .644-1.319l-.134-.27a.923.923 0 0 0-.826-.51h-.922Zm-1.163 12.711.134.533.17.043a3.3 3.3 0 0 1 1.176.56l.434-.434a.869.869 0 0 0 .254-.614v-.235a.869.869 0 0 0-1.078-.841l-1.206.301c.012.068.02.136.032.204l.084.483Zm1.68-3.763v-.175a.975.975 0 0 0-.974-.975h-.738s-.237 2.276-.237 2.34l1.166-.233a.975.975 0 0 0 .784-.957Zm.976-3.861a.902.902 0 0 0-.095-.403l-.144-.287a.9.9 0 0 0-.805-.498h-.651c-.049.263-.591 2.33-.591 2.33l1.534-.255a.9.9 0 0 0 .752-.887ZM11.819.35l.622 1.944.744-.186a.84.84 0 0 0 .635-.814V.839a.838.838 0 0 0-1.104-.796l-.897.308ZM8.391 2.285l.04.11c.091.25.168.503.235.759l2.736-.912a13.75 13.75 0 0 0-.403-1.261L8.391 2.285Zm.463 1.834c.044.312.072.626.081.942l2.871-.574c-.04-.433-.102-.863-.184-1.29l-2.768.922Zm2.857 3.679H8.575c-.06.202-.126.403-.2.6l-.095.246 3.184.354c.098-.396.184-.797.245-1.2Zm-.851 3.35c.035-.13.063-.263.102-.393l.242-.805-3.285-.365-.456 1.186 3.397.377ZM8.812 6.824h3.013c.028-.359.046-.72.046-1.08 0-.091-.007-.182-.008-.273l-2.95.59c-.022.256-.056.51-.1.763Zm4.964 15.733-.346-.05a1.254 1.254 0 0 1-1.072-1.235c0-.333.13-.646.366-.882l.524-.525a2.306 2.306 0 0 0-1.529-1.246l-.21-.052-2.74 2.348c.06.027.126.041.192.042.754 0 1.474.36 1.926.964l.254.338a1.958 1.958 0 0 0 1.344.768l2.255.25c.17.02.334.056.493.107a2.312 2.312 0 0 0-1.457-.826Zm-2.968-4.817-3.453 1.036c.223.481.486.946.794 1.388l2.689-2.305-.03-.119Z" fill="#787B83"/><path d="m16.437 21.173-.556-.37-.154-.308a.924.924 0 0 0-.83-.513c-.245 0-.485.1-.658.272l-.072.072-.752.752a.275.275 0 0 0 .155.463l.345.05A3.315 3.315 0 0 1 16.63 24a1.785 1.785 0 0 0-.193-2.827Zm-5.929-5.049-3.858.386c.08.462.194.915.343 1.357l3.617-1.086a12.11 12.11 0 0 1-.101-.657Zm-.097-1.597c0-.132.01-.262.014-.393H6.549a8.813 8.813 0 0 0-.014 1.408l3.895-.39a13.461 13.461 0 0 1-.02-.625Zm.234-2.422-3.54-.394a9.129 9.129 0 0 0-.412 1.448h3.798c.037-.354.088-.705.154-1.054Z" fill="#787B83"/></svg>