<svg width="18" height="18" fill="none" xmlns="http://www.w3.org/2000/svg"><g clip-path="url(#a)"><path d="M6.674 12.066a4.417 4.417 0 0 0 1.577-.943v2.043a4.493 4.493 0 0 1-3.077 4.27l-1.225.407a3.013 3.013 0 0 1-.947.156h-.005a3.019 3.019 0 0 1-2.771-1.854A2.973 2.973 0 0 1 0 14.997c0-1.052.12-2.104.356-3.127l1.377-5.964A3.733 3.733 0 0 1 5.387 3H8.25v4.797a2.997 2.997 0 0 1-2.051 2.846l-1.936.646.475 1.422 1.936-.644Zm10.97-.195-1.376-5.965A3.732 3.732 0 0 0 12.614 3H9.751v4.797c0 1.294.825 2.438 2.051 2.846l1.936.645-.475 1.423-1.936-.645a4.418 4.418 0 0 1-1.577-.943v2.043a4.493 4.493 0 0 0 3.077 4.27l1.225.407c.309.104.654.176.952.156a3.019 3.019 0 0 0 2.77-1.854c.151-.364.228-.754.227-1.148 0-1.052-.12-2.104-.357-3.127v.001ZM9.752 0h-1.5v3h1.5V0Z" fill="#787B83"/></g><defs><clipPath id="a"><path fill="#fff" d="M0 0h18v18H0z"/></clipPath></defs></svg>