<svg width="732" height="692" fill="none" xmlns="http://www.w3.org/2000/svg"><circle cx="334" cy="347" r="333.5" stroke="url(#a)"/><g filter="url(#b)"><circle cx="24" cy="24" r="24" transform="matrix(-1 0 0 1 601 99)" fill="#393C43"/><path d="M577.28 128.28c-.933 1.32-2.26 1.98-3.98 1.98-1.72 0-3.047-.66-3.98-1.98-.947-1.333-1.42-3.093-1.42-5.28 0-2.187.473-3.947 1.42-5.28.933-1.32 2.26-1.98 3.98-1.98 1.72 0 3.047.66 3.98 1.98.947 1.333 1.42 3.093 1.42 5.28 0 2.187-.473 3.947-1.42 5.28Zm-7.52-5.28c0 1.733.307 3.073.92 4.02.613.947 1.487 1.42 2.62 1.42s2.007-.473 2.62-1.42c.627-.947.94-2.287.94-4.02 0-1.733-.313-3.073-.94-4.02-.613-.96-1.487-1.44-2.62-1.44s-2.007.473-2.62 1.42-.92 2.293-.92 4.04Zm9.727-5.72 3.68-1.28h1.6v14h-1.84v-12l-2.98.88-.46-1.6Z" fill="#fff"/></g><g filter="url(#c)"><circle cx="24" cy="24" r="24" transform="matrix(-1 0 0 1 692 333)" fill="#393C43"/><path d="M666.28 362.28c-.933 1.32-2.26 1.98-3.98 1.98-1.72 0-3.047-.66-3.98-1.98-.947-1.333-1.42-3.093-1.42-5.28 0-2.187.473-3.947 1.42-5.28.933-1.32 2.26-1.98 3.98-1.98 1.72 0 3.047.66 3.98 1.98.947 1.333 1.42 3.093 1.42 5.28 0 2.187-.473 3.947-1.42 5.28Zm-7.52-5.28c0 1.733.307 3.073.92 4.02.613.947 1.487 1.42 2.62 1.42s2.007-.473 2.62-1.42c.627-.947.94-2.287.94-4.02 0-1.733-.313-3.073-.94-4.02-.613-.96-1.487-1.44-2.62-1.44s-2.007.473-2.62 1.42-.92 2.293-.92 4.04Zm19.344 7h-9.04v-1.52l4.94-5.04c1.32-1.32 1.98-2.453 1.98-3.4 0-.773-.24-1.38-.72-1.82-.467-.453-1.054-.68-1.76-.68-1.32 0-2.28.627-2.88 1.88l-1.56-.92c.426-.893 1.026-1.573 1.8-2.04.773-.48 1.646-.72 2.62-.72 1.186 0 2.206.387 3.06 1.16.866.787 1.3 1.827 1.3 3.12 0 1.413-.834 2.953-2.5 4.62l-3.58 3.56h6.34v1.8Z" fill="#fff"/></g><g filter="url(#d)"><circle cx="24" cy="24" r="24" transform="matrix(-1 0 0 1 593 565)" fill="#393C43"/><path d="M567.28 594.28c-.933 1.32-2.26 1.98-3.98 1.98-1.72 0-3.047-.66-3.98-1.98-.947-1.333-1.42-3.093-1.42-5.28 0-2.187.473-3.947 1.42-5.28.933-1.32 2.26-1.98 3.98-1.98 1.72 0 3.047.66 3.98 1.98.947 1.333 1.42 3.093 1.42 5.28 0 2.187-.473 3.947-1.42 5.28Zm-7.52-5.28c0 1.733.307 3.073.92 4.02.613.947 1.487 1.42 2.62 1.42s2.007-.473 2.62-1.42c.627-.947.94-2.287.94-4.02 0-1.733-.313-3.073-.94-4.02-.613-.96-1.487-1.44-2.62-1.44s-2.007.473-2.62 1.42-.92 2.293-.92 4.04Zm18.729-5.36-3.04 4.1c1.093.2 1.973.667 2.64 1.4.667.733 1 1.64 1 2.72 0 1.373-.467 2.447-1.4 3.22-.947.787-2.08 1.18-3.4 1.18-1.093 0-2.047-.247-2.86-.74a4.096 4.096 0 0 1-1.74-2.1l1.56-.92c.413 1.293 1.427 1.94 3.04 1.94.88 0 1.587-.227 2.12-.68.547-.467.82-1.1.82-1.9 0-.8-.273-1.433-.82-1.9-.533-.467-1.24-.7-2.12-.7h-.48l-.74-1.14 3.24-4.38h-6.22V582h8.4v1.64Z" fill="#fff"/></g><circle cx="13" cy="13" r="13" transform="matrix(-1 0 0 1 368 666)" fill="#E7E7E7"/><circle cx="13" cy="13" r="13" transform="matrix(-1 0 0 1 368 0)" fill="#E7E7E7"/><defs><filter id="b" x="495" y="41" width="164" height="164" filterUnits="userSpaceOnUse" color-interpolation-filters="sRGB"><feFlood flood-opacity="0" result="BackgroundImageFix"/><feGaussianBlur in="BackgroundImageFix" stdDeviation="29"/><feComposite in2="SourceAlpha" operator="in" result="effect1_backgroundBlur_681_7940"/><feColorMatrix in="SourceAlpha" values="0 0 0 0 0 0 0 0 0 0 0 0 0 0 0 0 0 0 127 0" result="hardAlpha"/><feOffset dy="12"/><feGaussianBlur stdDeviation="20"/><feComposite in2="hardAlpha" operator="out"/><feColorMatrix values="0 0 0 0 0.678431 0 0 0 0 0.678431 0 0 0 0 0.678431 0 0 0 0.16 0"/><feBlend in2="effect1_backgroundBlur_681_7940" result="effect2_dropShadow_681_7940"/><feBlend in="SourceGraphic" in2="effect2_dropShadow_681_7940" result="shape"/></filter><filter id="c" x="586" y="275" width="164" height="164" filterUnits="userSpaceOnUse" color-interpolation-filters="sRGB"><feFlood flood-opacity="0" result="BackgroundImageFix"/><feGaussianBlur in="BackgroundImageFix" stdDeviation="29"/><feComposite in2="SourceAlpha" operator="in" result="effect1_backgroundBlur_681_7940"/><feColorMatrix in="SourceAlpha" values="0 0 0 0 0 0 0 0 0 0 0 0 0 0 0 0 0 0 127 0" result="hardAlpha"/><feOffset dy="12"/><feGaussianBlur stdDeviation="20"/><feComposite in2="hardAlpha" operator="out"/><feColorMatrix values="0 0 0 0 0.678431 0 0 0 0 0.678431 0 0 0 0 0.678431 0 0 0 0.16 0"/><feBlend in2="effect1_backgroundBlur_681_7940" result="effect2_dropShadow_681_7940"/><feBlend in="SourceGraphic" in2="effect2_dropShadow_681_7940" result="shape"/></filter><filter id="d" x="487" y="507" width="164" height="164" filterUnits="userSpaceOnUse" color-interpolation-filters="sRGB"><feFlood flood-opacity="0" result="BackgroundImageFix"/><feGaussianBlur in="BackgroundImageFix" stdDeviation="29"/><feComposite in2="SourceAlpha" operator="in" result="effect1_backgroundBlur_681_7940"/><feColorMatrix in="SourceAlpha" values="0 0 0 0 0 0 0 0 0 0 0 0 0 0 0 0 0 0 127 0" result="hardAlpha"/><feOffset dy="12"/><feGaussianBlur stdDeviation="20"/><feComposite in2="hardAlpha" operator="out"/><feColorMatrix values="0 0 0 0 0.678431 0 0 0 0 0.678431 0 0 0 0 0.678431 0 0 0 0.16 0"/><feBlend in2="effect1_backgroundBlur_681_7940" result="effect2_dropShadow_681_7940"/><feBlend in="SourceGraphic" in2="effect2_dropShadow_681_7940" result="shape"/></filter><linearGradient id="a" x1="385" y1="321.5" x2="354" y2="321.5" gradientUnits="userSpaceOnUse"><stop stop-color="#DDD"/><stop offset="1" stop-color="#DDD" stop-opacity="0"/></linearGradient></defs></svg>