<svg width="24" height="24" fill="none" xmlns="http://www.w3.org/2000/svg"><path d="M12.48 5.532a2.664 2.664 0 0 0-2.663-2.664H4.702a2.664 2.664 0 0 0-2.664 2.664V8.74a2.665 2.665 0 0 0 2.664 2.664h5.114A2.665 2.665 0 0 0 12.48 8.74V5.532Zm0 11.234a2.664 2.664 0 0 0-2.663-2.664H4.702a2.664 2.664 0 0 0-2.664 2.664v3.207a2.665 2.665 0 0 0 2.664 2.664h5.114a2.665 2.665 0 0 0 2.664-2.664v-3.207Z" fill="#fff"/><path d="M21.734 15.383a4.171 4.171 0 0 1-2.641 4.439l-3.64 1.392a4.171 4.171 0 0 1 2.64-4.439l3.64-1.392Zm.66-1.281-4.643 1.775a5.125 5.125 0 0 0-2.957 6.618l4.642-1.775a5.125 5.125 0 0 0 2.957-6.618Zm-.66-9.952a4.171 4.171 0 0 1-2.641 4.439L15.452 9.98a4.14 4.14 0 0 1 .327-2.248 4.136 4.136 0 0 1 2.315-2.191l3.64-1.392Zm.66-1.282L17.75 4.644a5.125 5.125 0 0 0-2.957 6.618l4.642-1.776a5.125 5.125 0 0 0 2.957-6.618Z" fill="#6AA448"/></svg>