<svg width="70" height="162" fill="none" xmlns="http://www.w3.org/2000/svg"><circle cx="5" cy="4" r="4" fill="#DDD"/><circle cx="4" cy="158" r="4" fill="#DDD"/><path d="M5 5c26.161 11.538 70.522 92.302 0 153" stroke="#DDD" stroke-width="1.5"/><circle cx="46" cy="85" r="24" fill="#DDD"/><path d="M46.48 78.532a2.664 2.664 0 0 0-2.663-2.664h-5.115a2.664 2.664 0 0 0-2.664 2.664v3.208a2.665 2.665 0 0 0 2.664 2.664h5.114a2.664 2.664 0 0 0 2.664-2.664v-3.208Zm0 11.234a2.664 2.664 0 0 0-2.663-2.664h-5.115a2.664 2.664 0 0 0-2.664 2.663v3.208a2.665 2.665 0 0 0 2.664 2.664h5.114a2.664 2.664 0 0 0 2.664-2.664v-3.207Z" fill="#fff"/><path d="M55.734 88.383a4.171 4.171 0 0 1-2.641 4.439l-3.64 1.392a4.171 4.171 0 0 1 2.64-4.439l3.64-1.392Zm.66-1.281-4.643 1.775a5.125 5.125 0 0 0-2.957 6.618l4.643-1.775a5.125 5.125 0 0 0 2.956-6.618Zm-.66-9.952a4.171 4.171 0 0 1-2.641 4.439l-3.641 1.392a4.14 4.14 0 0 1 .327-2.248 4.136 4.136 0 0 1 2.315-2.191l3.64-1.392Zm.66-1.282-4.643 1.776a5.125 5.125 0 0 0-2.957 6.618l4.643-1.775a5.125 5.125 0 0 0 2.956-6.619Z" fill="#6AA448"/></svg>