<svg width="325" height="96" fill="none" xmlns="http://www.w3.org/2000/svg"><g filter="url(#a)"><mask id="b" fill="#fff"><path fill-rule="evenodd" clip-rule="evenodd" d="M32 0C14.327 0 0 14.327 0 32v2c0 17.673 14.327 32 32 32h114l13.422 26.845c1.474 2.948 5.682 2.948 7.156 0L180 66h113c17.673 0 32-14.327 32-32v-2c0-17.673-14.327-32-32-32H32Z"/></mask><path fill-rule="evenodd" clip-rule="evenodd" d="M32 0C14.327 0 0 14.327 0 32v2c0 17.673 14.327 32 32 32h114l13.422 26.845c1.474 2.948 5.682 2.948 7.156 0L180 66h113c17.673 0 32-14.327 32-32v-2c0-17.673-14.327-32-32-32H32Z" fill="#E7E7E7"/><path d="m146 66 .894-.447-.276-.553H146v1Zm13.422 26.845-.894.447.894-.447Zm7.156 0 .894.447-.894-.447ZM180 66v-1h-.618l-.276.553L180 66ZM1 32C1 14.88 14.88 1 32 1v-2C13.775-1-1 13.775-1 32h2Zm0 2v-2h-2v2h2Zm31 31C14.88 65 1 51.12 1 34h-2c0 18.225 14.775 33 33 33v-2Zm114 0H32v2h114v-2Zm14.317 27.397-13.423-26.844-1.788.894 13.422 26.845 1.789-.895Zm5.366 0c-1.105 2.212-4.261 2.212-5.366 0l-1.789.895c1.842 3.685 7.102 3.685 8.944 0l-1.789-.895Zm13.423-26.844-13.423 26.844 1.789.895 13.422-26.845-1.788-.894ZM293 65H180v2h113v-2Zm31-31c0 17.12-13.879 31-31 31v2c18.225 0 33-14.775 33-33h-2Zm0-2v2h2v-2h-2ZM293 1c17.121 0 31 13.88 31 31h2c0-18.225-14.775-33-33-33v2ZM32 1h261v-2H32v2Z" fill="#fff" fill-opacity=".05" mask="url(#b)"/></g><defs><filter id="a" x="-58" y="-58" width="441" height="211.056" filterUnits="userSpaceOnUse" color-interpolation-filters="sRGB"><feFlood flood-opacity="0" result="BackgroundImageFix"/><feGaussianBlur in="BackgroundImageFix" stdDeviation="29"/><feComposite in2="SourceAlpha" operator="in" result="effect1_backgroundBlur_2001_3081"/><feBlend in="SourceGraphic" in2="effect1_backgroundBlur_2001_3081" result="shape"/></filter></defs></svg>