<svg width="144" height="880" fill="none" xmlns="http://www.w3.org/2000/svg"><path d="M5.81 315.323c-.63-1.305.14-2.25.835-3.201.695-.951 1.385-1.705 1.76-2.721.675-1.811 1.06-3.915.13-5.584-1.455-2.614-1.945 2.226-3.63.041-1.155 3.11-2.23 6.327-3.41 9.387-.615 1.593-1.365 3.479.345 4.45 2.155 1.224 2.975-.794 3.97-2.372Z" fill="#C9C9C9"/><path d="M58.565 659.049c-1.96 7.92-4.735 15.228-8.515 22.471-2.375 4.551-5.73 8.678-8.12 13.255-.73 4.916-2.94 8.851-5.44 13.038a63.394 63.394 0 0 0-5.745 12.523c-1.6 4.749-1.27 9.508-.45 14.393.63 3.753.43 7.162-.935 10.656-.8 2.044-1.435 4.178-1.245 6.186.22 2.321-.83 1.992-2.385 2.781.495 6.383 2.63 12.088 5.065 17.959 1.195.466 1.6.982 1.87 2.302 2.375 11.531 6.705 21.914 12.07 32.448 3.3 6.479 7.26 13.135 10.27 19.82.75 1.664 2.035 2.959 3.83 2.342 2.145-.738 1.995-2.696 1.385-4.597-1.76-5.487-3.04-10.884-5.79-16.093-1.41-2.675-2.05-5.047-.81-8.092 1.035-2.539-.16-4.946-1.185-7.338-2.075-1.411-3.08-2.934-3.26-5.478-.305-4.298-1.88-8.344-1.6-12.699.535 5.847.96 11.39 3.3 16.836 1.8.739 3.21 1.265 4.79-.161 1.225-2.752.415-5.296-.215-8.047-1.26-5.518-1.495-10.175.44-15.531.845-1.103.425-3.768 2.515-3.212 2.555.678 4.345 2.797 5.415 5.305.525 1.229.425 2.964.605 4.218.4 2.787 1.52 4.942 4.46 5.25 2.94.309 4.41-1.583 4.655-4.451.055-.632.165-1.481.15-2.189-.04-1.73-.625-3.379-1.29-4.972-1.795-2.428-.525-5.437-3.19-7.293-3.84-.146-6.345-.647-9.31-3.409-2.235-2.078-4.91-1.76-7.265.243-1.49 1.265-3.045 2.569-4.815 3.323-5.565 2.367-6.94 4.628-7.07 10.742-.025 1.178.04 2.493.115 3.839.145 2.533.48 5.33.955 7.884-2.755-7.191-4.58-14.555-5.935-22.126-.265-1.482-.175-2.853.185-4.253.24-.931.65-1.897 1.665-1.932 1.18-.041 1.33.996 1.56 1.977.43 1.831.745 3.363 2.59 4.203 7.97.202 11.575-4.173 12-11.981-.9-2.681-4.57-1.983-4.325-5.336.165-2.24 1.855-4.334 2.66-6.458 1.435-3.778 4.125-7.177 5.615-10.854.76-1.881 1.81-1.694 3.465-2.063 2.905-3.343 5.72-6.165 10.1-7.232 2.435-.592 5.12-.86 7.395-.294 3.05.759 5.365.455 8.31.051.985-.137 1.7-.481 2.53-.986 1.515-1.851 1.07-3.925.775-6.034-.435-3.105-.16-5.548.84-8.436.26-1.482-.25-2.726-.67-4.137-1.675-1.805-4.16-3.095-5.615-5.042-2.31-3.095-1.95-4.774 1.545-6.317 1.245-.551 2.45-.971 2.915-2.433-.16-2.205-1.38-3.155-3.265-4.091-4.69-.142-7.605 2.104-9.585 6.276-1.775 3.733-.96 6.863 1.44 10.024 2.05 2.696 3.07 5.751 2.355 9.043-.715 3.292-2.83 4.648-5.925 4.4-3.095-.253-3.63-2.6-3.415-5.356a71.47 71.47 0 0 1 4.48-19.906c4.36-11.465 4.02-12.381-6.65-18.227-3.105-1.699-6.315-3.111-8.395-6.211-.605-.42-1.17-.571-1.885-.5l-.015-.021Z" fill="#BFBFBF"/><path d="M75.29 274.363c.375-3.429.825-6.858 1.165-10.292-1-3.343-3.975-4.653-6.87-4.623-6.72.071-12.22-1.067-18.655-1.77-2.85 2.655-5.99 3.196-9.675 2.519-2.84-.526-5.29.167-7.92.586-5.405.86-8.87-1.532-12.64-5.027-1.38-1.279-2.72-1.901-4.29-2.771-.41-.228-.635-.637-1.02-.895-1.585-.354-2.775-.066-4.06.945-1.02 5.194-.955 6.565 3.64 9.296.755.45 1.61 1.108 2.285 1.76 3.815 3.687 3.895 6.297.395 10.282-.805 2.058-.96 4.213-.89 6.367.07 2.15-.45 3.277-2.65 3.217-2.655-1.487-4.515-2.458-6.585.344-.425 1.927.1 3.019 1.315 4.577.71.905 1.395 1.669 1.55 3.004.445 3.854.57 5.927 5.21 4.45 2.095-.667 4.195 2.357 5.255 4.244 1.175 2.098 3.06 3.459 5.43 2.867 8.405-2.094 13.29 2.615 19.215 7.956 2.385 2.149 4.095 4.637 7.24 5.664 5.7-.395 11.39.258 17.075-.551 2.23-.157 4.18-.076 6.205.966.8.794 1.325 1.851 2.06 2.68.305.344.735.324 1.14.349.53-5.325-.39-10.155-1.535-15.324-.06-1.082-.115-1.927-.265-3.045-.42-3.13-.905-6.402-1.365-9.578-1.165-1.406-2.62-2.393-4.405-2.59-7.98-.87-15.85-1.102-23.815-1.669-.45.122-.93.213-1.27.582-1.01 1.092-.72 2.569-.415 3.818 1.02 4.167.905 5.391-3.53 4.35-3.905-.916-7.84-2.246-11.625-3.849-1.785-.754-3.925-.799-5.725-1.649 1.58-3.57 1.565-7.025.985-10.798-.225-1.451.3-2.134 1.205-3.115 1.88-1.032 3.865-1.381 5.93-1.836 6.48-2.776 6.28-1.436 8.96 4.911.735 1.74 1.82 3.667 3.81 4.329 4.38.637 8.375 1.785 12.87 1.957 4.97.193 9.565-.637 14.07 2.302 1.13.738 1.87 2.377 2.955 3.246.725-2.751.16-5.361-.23-8.142" fill="#DDD"/><path d="M129.13 514.896c-.155-4.885-.425-9.538-1.99-14.181-1.06.228-1.545 1.254-1.705 2.129-.45 2.468-1.72 2.681-3.9 2.595-6.525 2.382-13.115 3.853-19.975 4.885-2.275.344-4.435.344-6.7-.131-3.365.096-6.655.778-10.02.591-3.125 2.114-5.25 2.853-8.435.268-1.17-.95-2.805-1.041-4.24-.298-.575.298-1.225.521-1.775.875-1.855 1.194-2.425 3.06-3.24 5.022.09 3.131.355 6.14 1.63 8.977 1.005 2.241-.41 3.702-.795 5.857 1.36 3.444 4.34 4.157 7.265 5.952.475.122.915.162 1.405.061 5.69-2.407 10.76-1.73 15.11 3.019 2.565 2.807 3.55 6.388 8.155 6.089 2.51-.161 5.265-.875 7.8-1.476 4.795-2.999 11.105-5.118 15.78-7.809 5.875-3.378 6.76-4.901 6.505-11.43-.02-.521-.19-1.143.01-1.699.08-.228.03-.521.095-.754" fill="#D1D1D1"/><path d="M138.445 557.854c-1.38-4.931-1.88-4.971-7.21-3.904-4.19.839-9.525 1.603-14.14 1.74-2.475.075-4.64.844-6.245 2.872-2.755 3.48-5.915 4.921-10.205 5.614-.405.101-.86.395-1.275.44-1.285.127-2.745.789-3.83 1.224-4.625 1.856-5.49 1.811-7.765-2.68-1.665-3.288-4.42-5.321-7.425-7.359 1.915 1.441 3.685 2.594 5.645 4.117 2.195 1.704 4.55 1.588 6.9.076 3.69-2.372 7.64-3.733 11.89-3.9 7.355-.293 13.905-2.139 20.965-3.682 1.37-.298 2.6-.637 3.835-1.355 1.825-1.057 2.555-2.276 1.19-4.132-5.385-.587-10.05 1.669-15.28 2.529-7.19.976-14.37 1.168-21.615 1.345-.445.01-.9.071-1.33.162-7.935 1.613-9.15 1.381-12.115-6.367-.855-2.241-1.72-4.32-1.985-6.712-.495-.865-1.1-1.289-2.095-1.365-.275-.02-.55.045-.825.02-1.145-.106-2.29-.425-3.225.42-.94.844-1.03 2.174-.72 3.247 1.18 4.142.14 5.603-3.83 7.212-3.75 1.517-5.67 4.309-5.135 8.587.05.405.14.809.425 1.138 1.125 1.28 2.045 2.332 3.33 3.596 1.99 1.952 3.75 3.191 6.585 1.902 1.22-.557 1.815.106 2.47 1.112-.01 5.159 1.115 8.729 5.525 11.607 1.75.536 3.595-.111 5.25-.394 6.285-1.073 9.36.116 12.725 5.588.51.825.745 1.861 1.665 2.397 11.2.997 22.02 1.371 32.815-2.296 3.395-1.031 5.805-2.751 7.935-5.613.115-3.546-1.21-6.697-1.86-10.131" fill="#CCC"/><path d="M80.965 333.262c-.49-4.309-.475-8.582-1.745-12.76-.1-.045-.165-.101-.29-.141-1.33-1.725-3.315-1.669-5.13-1.411-10.44 1.466-19.91.834-30.215-.602-5.93.192-9.58-2.398-13.86-6.307-3.05.051-3.08 2.377-4.085 4.769-.91 2.16-1.355 3.829-3.98 2.898-1.275-1.016-1.825-1.846-2.2-3.53-.375-1.684-1.08-3.07-3.095-2.721.31 2.387.61 4.795.835 7.202-.47.496-.425 1.199-.88.086-3.785.157-6.765 1.269-8.265 5.098-1.03 2.635.5 4.85 2.64 6.362 1.29-.738 2.365-.48 3.68-.015 5.725-1.548 9.42-2.053 14.405 2.018 1.75 1.426 4.26 1.826 6.89 1.912 4.31.146 7.9 1.76 10.68 5.467 1.925 2.564 5.06 4.248 7.695 6.094.515.056.98.051 1.48-.035 6.125.025 11.635-2.711 17.765-2.752 1.445-.01 2.995-.116 4.455.051 1.25.142 2.385-.035 3.595-.369.475-.132.82-.45 1.195-.749" fill="#DFDFDF"/><path d="M128.4 667.687c1.93-3.853 2.535-8.071 3.92-12.122.1-.764.69-1.275.805-2.028 1.605-5.144 4.82-9.402 5.445-14.849-1.1-1.391-2.385-1.624-4.08-1.568-4.81 1.588-9.74 1.76-14.49 3.717-2.565 1.057-5.465.622-7.74-.774-5.13-3.135-10.495-3.808-16.085-5.143-2.745-.657-4.42-1.831-5.725-4.319-.93-1.77-1.745-3.545-4.015-3.323-2.43.243-2.51 2.175-3.065 4.112.55 1.897.805 2.908.1 4.89-1.555 4.385.43 7.516 5.005 8.35 7.025 1.285 7.975 1.872 7.645 9.19-.055 1.229-.625 2.185-.62 3.403 5.89 7.819 13.615 11.607 23.25 10.945 1.825-.127 2.81.369 4.405.662 2.145.4 3.67.491 5.25-1.153l-.005.01Z" fill="#C3C3C3"/><path d="M108.055 447.571c-1.155-3.49-2.295-6.989-3.485-10.469-1.85-1.947-4.06-1.325-6.27-.865-5.205 1.083-9.96 1.963-15.18 2.236-5.055.334-10.04.597-14.975 1.922-4.13 4.354-4.95 8.299-1.015 13.164 2.01 2.483 2.71 4.259-.56 6.084-.73.41-1.365 1.209-1.255 2.215 7.385 5.372 11.105 9.938 20.88 8.103 7.08-1.326 13.83-1.882 20.79-4.112 2.74-.88 4.99-2.62 5.195-5.806-.395-1.588-.775-3.1-1.29-4.623" fill="#D7D7D7"/><path d="M125.14 496.755c-.19-4-2.815-7.02-3.875-10.788-.51-.9-1.33-1.127-2.28-1.163-.47-.015-.925.056-1.26.329-2.72 2.2-1.55 4.936-1.265 8.001-2.74-1.067-3.075-2.853-3.23-5.498-.46-7.904-4.965-13.356-12.455-15.374-3.615.44-7.16 1.102-10.805 1.128-5.125.273-10.165-.223-15.215.935-2.635 2.094-5.935 1.649-8.77 3.328-1.96 4.678-1.825 11.263.64 15.466.995 1.694 2.18 1.664 3.61 1.76 4.99.334 8.93 1.618 12.675 4.85 4.1 3.535 8.285 4.562 13.405 5.518 4.985-.44 9.575-1.927 14.25-3.637 3.065-1.118 6.01-1.436 9.25-1.355 1.075.212 2.065-.162 3.01-.592 1.28-.587 2.385-1.376 2.31-2.903l.005-.005Z" fill="#D5D5D5"/><path d="M91.575 387.114c-.95-4.339-1.915-8.679-2.9-13.008-3.38-1.229-6.665-.313-10.03.177-8.54 1.239-16.81 2.797-25.21 4.481-2.245 2.665-.94 4.132 1.78 5.24 2.08.849 4.08 1.542 3.24 4.015-.94 2.757-3.235 1.826-5.265.901-2.7-1.234-5.17-.739-8.07-.911-3.16-.187-4.89-.804-3.705-4.476.345-1.067-.01-2.468-.935-3.297-1.785-.991-2.965-.03-4.41.946-1.655 1.117-2.85 2.023-4.955 1.78-3.91-.45-7.13-1.735-10.355 1.401-.35 1.153-.805 2.003-1.86 2.67-1.295 4.087-.845 6.514 3.74 7.334 4.165.743 7.92.364 12.355.257 7.93-.192 14.755-1.122 22.035 3.627 4.435 2.893 9.865 5.254 15.27 6.271 5.515.217 10.12-2.67 15.495-3.287 2.655-.486 4.635-1.356 6.285-3.576" fill="#DCDCDC"/><path d="M77.045 246.092c.505-3.237 1.08-6.464 1.625-9.696-4.015-4.824-9.035-5.962-14.795-7.166-3.195-.668-5.64-1.548-8.68-2.362-1.16.071-2.335.172-3.46.551-1.8 1.022-2.665 3.121-5.13 2.478-4.36-1.132-5.58-4.516-4.705-8.865-.19-3.955-.285-7.136-4.015-9.159-1.95-.177-2.875 1.224-4.255 2.346-2.745 2.236-5.01 4.466-8.695 4.501-.605-.257-1.18-.399-1.79-.672-2.36-1.067-4.15-.835-6.18.799-1.135 2.448-.225 5.007-.555 7.576-.155 1.209.945 2.423 1.95 2.185 4.595-1.093 6.255 2.508 8.05 5.614 1.24 2.144 2.74 2.437 4.44 2.528 6.88.359 10.615 4.072 13.71 9.604 2.83 5.058 5.335 7.733 10.91 8.876 4.14.997 8.135 1.184 11.75 3.707 3.56.385 6.355 1.867 9.57-.389" fill="#DEDEDE"/><path d="M71.965 773.166c.03.582.155 1.401.16 1.947.015 3.02-1.56 5.336-4.5 4.036-2.59-1.148-3.225-3.54-3.37-5.958-.17-2.791-1.105-4.946-2.84-6.797-3.29-3.52-5.195-2.781-8.165.465-2.47 8.563-.18 16.144 1.41 24.656-2.405 2.453-1.33 4.996.01 7.606 2.455 4.779 4.54 8.952 7.965 13.064 1.99 2.387 3.205 4.344-.815 5.446-2.67.729-3.27 2.969-2.32 5.72.54 1.573.86 3.434.625 5.073-.59 4.117 1.005 6.241 4.06 8.689 1.65 1.026 2.825 2.549 4.04 4.01 2.225 2.681 4.445 4.046 7.91 3.262 1.715-4.106 1.71-7.829.525-12.051-2.725-9.726-1.415-19.391-1.96-29.253-.25-4.521-1.195-9.017-.305-13.342 1.27-6.16 4.26-10.317 8.64-14.525-2.845-4.223-6.76-3.889-11.07-2.038v-.01Z" fill="#C8C8C8"/><path d="M79.2 219.176c.695-3.227 1.385-6.449 2.08-9.675-2.17-2.832-4.7-4.264-8.12-5.098a288.918 288.918 0 0 0-19.315-4.911c-2.13-1.158-2.535-2.938-3.025-5.184-.73-3.373-2.16-5.336-5.58-6.064-2.53-.748-4.16.46-6.225 1.871-1.84 1.255-3.155 3.111-5.6 2.393-.735-.218-1.46-.511-2.265-.658-2.56-.45-3.79-2.357-5.76-3.96-1.97-1.603-3.78-1.967-6-.47 2.595 5.098 4.84 8.213 9.38 12.118 1.925 1.653 4.105 3.818 4.915 6.878.615 2.341 1.68 3.226 4.61 2.827 8.06-1.098 10.65 1.279 13.05 9.124 1.195 3.909 2.965 6.357 6.58 8.137 5.035 1.325 10.02 2.342 15.055 3.803 1.985.577 4.04.511 6.015-.263.075-.146.14-.288.18-.445" fill="#E0E0E0"/><path d="M68.65 104.325c1.225-.065 2.2-.859 3.445-.369-.55 1.295-1.705 1.462-2.72 2.251.135 3.125 2.625 3.793 5.06 4.218 2.615.455 2.825-1.947 3.675-3.637.845-1.694 1.64-3.12 2.855-4.531 2.9-4.157 6.265-7.91 9.49-11.804 1.03-1.806.78-3.844 2.465-5.29 1.285-1.103 3.015-1.826 4.49-2.676 3.775-3.742 8.02-6.493 10.45-11.374.52-.698 1.205-1.082 1.935-1.522 1.32-1.23 2.335-1.608 3.885-.425 1.15.875 2.01 2.18 3.575 2.483 1.285.248 2.3-.323 3.06-1.39.405-1.128.24-2.094-.715-2.772-2.43-1.725-3.175-3.904-3.93-6.681-4.065-1.163-5.205-3.5-4.795-7.647.11-1.113-.61-1.922-1.305-2.696-.29-.323-.77-.313-1.155-.389-1.07.597-2.225.85-3.35 1.295 1-.405 1.955-.622 2.955-1.078 1-.455 2.145.016 2.945-.93 1.545-3.712 3.96-6.469 4.245-10.641.075-1.072 1.66-1.123 2.425-1.644 1.23-1.603 3.935-1.542 3.4-4.147-.5-2.433-2.6-3.965-4.835-4.93-.93-.405-2.02-.658-2.995-.936-5.975.677-11.475 1.684-16.845 4.506-.685.86-.84 1.957-.92 2.984-.27 3.424-1.32 5.376-4.33 7.116-1.165.672-2.275 1.583-1.68 3.2.29.795 1.12.846 1.805.406 4.145-.724 7.365-3.343 11.205-4.901-.3 4.233-2.725 5.882-5.61 8.567-2.82 4.006-6.03 6.514-10.54 8.416-1.855.784-3.385 1.694-5.065 3.11-1.4 1.189-2.44 2.57-.155 3.692 5.375-2.069 10.38-4.547 16.195-5.093-.595 2.236-2.115 2.64-3.74 4.031-.455 1.244-1.495 2.62-.44 3.91 1.485 1.82 4.31-.704 5.03 2.361-2.16 2.787-4.37 4.501-7.775 5.685-3.405 1.183-6.635 2.685-9.195 5.422-.475 2.801-2.44 3.605-4.69 4.769-1.435.743-2.725 1.112-3.755 2.377-1.09 1.335-1.65 2.761-1.115 4.45.98 1.047 1.95 1.27 3.32.997 1.405-.683 2.705-1.138 3.65-2.468-3.635 2.928-6.475 6.175-9.89 9.492-1.49 1.447-2.665 3.08-.02 4.228l.005.005Z" fill="#B8B8B8"/><path d="M88.78 701.143c-1.78 4.809-.66 9.144.17 14.049-1.345 1.983-1.02 3.996-.895 6.256.075 1.346-.075 2.544.265 3.824 3.75 3.833 7.41 4.091 11.415.895 4.265-3.399 5.015-3.414 9.53-.243 3.475 2.443 6.175 6.236 7.69 10.409 4.07 2.073 7.185 1.906 10.865-.815 2.045-9.432-.44-17.22-3.57-26.066-.43-1.219-.99-2.175-1.51-3.323-4.25-.394-6.9-2.27-9.755-5.421-1.695-1.872-3.53-2.023-5.445-.294-.955 1.993.145 3.283 1.45 4.623 2.325 2.392 3.985 4.617 4.985 7.758.525 1.644 1.715 2.812 2.035 4.516.15.789 0 1.558-.71 2.018-.715.461-1.51-.222-1.875-.748-3.84-5.563-8.845-9.549-13.655-14.166-1.02-.981-2.45-2.428-1.445-3.884 1.005-1.457 2.73-.506 4.1-.046.98.329 1.88.997 2.985.885.665-.065 1.25-.419 1.715-.895 1.43-2.701.26-4.698-2.255-5.634-4.465-1.669-6.46-3.646-8.34-7.991-1.125-2.594-3.54-4.233-5.44-6.418-3.23-3.712-5.515-7.47-6.455-12.451-.72-3.824-3.355-5.528-6.865-6.666-1.6-.521-3.255-.592-4.725-1.441-2.06-1.194-3.06-2.655-2.115-5.032.7-1.766 1.28-3.424-.725-4.527-2.31-1.269-4.21-.49-5.755 1.543-1.125 2.139-2.705 3.879-3.49 6.185.12 2.164.815 3.439 2.665 4.663 3.22 2.129 6.545 3.581 10.27 4.896 2.85 1.001 4.415 2.473 4.135 5.826-.44 5.194.83 5.876 5.945 6.392.53.051 1.055.506 1.565.82 1.39.854 2.42 1.795 2.95 3.408-.175 3 1.545 4.992 2.685 7.617 1.52 1.871.48 3.186-.46 4.992-.795 1.537-.99 3.059-1.925 4.491l-.01-.005Z" fill="#C9C9C9"/><path d="M97.615 410.995c-.385-2.372-1.31-4.536-2.085-6.792-3.285-1.598-6.09-.632-9.5 0-9.025.526-17.88 1.659-26.765 3.369-1.405.9-1.685 1.931-.885 3.413.37.678 1.145 1.032 1.59 1.644 1.195 1.639 2.43 3.485 1.37 5.467-1.205 2.251-3.165 1.543-5.2 1.007-3.035-.8-4.915-.511-5.815 2.796.9 1.978 2.595 2.504 4.34 3.546 4.81 1.937 8.795 2.882 11.54 7.727.945 1.664 2.935 2.008 4.755 1.937a104.736 104.736 0 0 0 24.78-3.96c5.04-1.446 5.19-3.388 4.21-8.218-.22-1.087-.85-2.443-.18-3.586" fill="#DADADA"/><path d="M86.01 361.913c-1.235-4.608-1.355-9.367-3.1-13.838-4.22-1.593-8.115-.394-12.465-.227-5.705 1.456-11.545 1.699-17.34 2.544-2.125 1.143-1.335 2.862-.935 4.643.705 3.11-.665 5.032-3.67 4.167-5.92-1.694-11.01-1.148-17.16-.739-2.04.137-3.435.263-4.91-1.891-1.475-2.149-4.32-1.396-6.62-.799-2.64.683-3.365 2.569-3.68 5.118 1.83 3.566 4.765 4.496 8.33 5.75 5.98-1.426 11.925-1.38 17.995-.92 3.325.253 5.185 1.871 6.555 4.779 1.37 2.913 2.825 4.825 5.785 6.1 9.74.177 19.065-1.811 28.73-3.015 2.115-.263 3.115-2.033 3.86-3.879" fill="#DDD"/><path d="M65.505 652.51c1.47-.637 2.625-1.042 4.19-.587-.875 2.413-3.81 3.394-2.025 6.292 1.785 2.898 4.75 4.299 8.105 4.986 4.35.89 6.095 2.767 6.925 7.217 1.18 6.337 5.845 10.227 9.695 15.072.095.116.285.182.33.293 2.835 6.893 8.495 9.832 14.165 14.11.145.536.425.789.975.87 5.35 1.517 7.855 6.615 10.95 10.96 1.63-1.947 1.37-4.496 3.925-5.594-1.495-3.5-3.135-6.403-6.17-8.754-1.015-4.744-4.215-7.02-7.805-9.862-1.22-.966-2.525-1.416-3.52-2.62-2.15-1.275-4.195-2.605-6.025-4.329-2.295-3.621-3.705-6.929-3.155-11.289-1.93-4.253-5.6-6.837-8.5-10.332-1.29-1.553-2.14-3.04-2.46-5.032-1.32-2.038-2.61-3.985-4.43-5.614-1.68-.769-3.15-1.805-4.635-2.903-3.475-2.063-6.62-3.667-10.725-3.732-4.945 2.174-4.375 5.467-2.885 10.17.965 1.012 1.795 1.361 3.075.668v.01Z" fill="#D3D3D3"/><path d="M64.87 835.55c-1.195-1.866-2.705-3.849-3.245-5.988-1.675-6.61-1.845-8.32 4.89-10.201.98-.273 1.63-.4 2.67-.749s2.085-.693 2.005-2.139c-.065-1.153-1.105-1.573-1.905-2.139-8.205-5.781-11.195-13.701-14.625-22.835-.97-.526-1.705-1.203-2.85-.859-.96.94-1.14 1.82-.595 3.054.46 3.429 2.07 5.498-2.11 6.828-1.08.344.13 1.967.545 2.898 2.87 6.438 6.03 13.22 8.42 19.891.44 1.234 1.55 2.953.22 3.692-1.71.945-2.345-.992-3-2.377-7.895-16.72-15.875-32.803-20.99-51.02-.44-1.558-1.22-5.26-3.5-1.249 1.61 15.82 6.61 29.682 16.435 42.498 4.405 5.74 6.955 13.124 10.03 20.042 4.43 9.964 10.645 18.612 18.79 25.981 1.18-.496 2.26.172 3.08.854 2.26 1.882 3.955 2.033 6.45.673 1.685-2.407 1.135-4.147-.87-6.13-.125-.313-.315-.566-.465-.875-.565-1.153-.9-2.321-1.265-3.56-.47-1.613-1.215-2.847-2.705-3.667-6.8-2.64-11.57-6.322-15.41-12.633v.01Z" fill="#B5B5B5"/><path d="M62.835 560.1c-.56 2.549-2.365 3.955-4.39 5.275-5.17 3.373-9.975 6.347-15.27 9.7-1.565.991-3.655 1.694-2.815 4.208 2.1 2.159 4.1 4.855 6.015 7.096 2.315 2.705 4.265 2.817 7.325 1.385 4.47-2.094 8.36-2.888 13.1-1.117 1.165-.026 2.28.177 3.435-.076 2.925-1.644 5.045-2.185 7.235.864.74 1.032 2.04 2.044 3.32 1.674 3.705-1.072 4.835.238 7.33 2.823 2.14 2.22 4.335 2.71 7.63 2.164 5.175-.865 10.63-1.158 16.195-1.487 1.88-.111 4.41-.116 4.515-2.867-1.055-1.973-2.98-1.917-4.91-1.993-4.865-.182-9.49-.617-14.285-1.016-7.41-1.831-8.015-3.106-5.185-10.257a2.182 2.182 0 0 0-.515-1.189c-2.115-1.112-4.29-.718-6.485-.384-3.955.602-6.755-.076-9.715-2.741-4.635-2.64-6.87-6.898-9.98-11.071-.445-.597-.715-1.244-1.46-1.467-.41-.121-.8.213-1.095.471l.005.005Z" fill="#C7C7C7"/><path d="M71.835 512.848c.33-.218.665-.435 1-.647.41-4.921-1.27-8.305-4.48-11.891-1.965-.576-3.84-.02-5.845-.485-3.81-.885-6.86-1.967-8.975-5.558-.49-.83-1.125-1.366-2.18-1.062-4.3 3.252-8.68 6.458-13.12 9.498-3.82 2.614-4.985 5.356-3.665 9.862.63 2.149 1.355 4.354 1.92 6.539.93 1.482 2.445 1.512 3.935 1.487 7.15-.111 14.095-.202 21.19-.354 2.285-.051 3.955-.85 5.42-2.615 1.465-1.76 3.225-3.135 4.795-4.779l.005.005Z" fill="#C8C8C8"/><path d="M89.015 172.308c-.01-.243.01-.496-.01-.738-.34-3.839 1.21-7.061 2.02-10.737-.11-.41-.115-.916-.425-1.239-2.455-2.57-5.435-3.824-8.755-4.84-3.57-1.093-6.985-2.16-10.21-4.062-4.2-.905-6.195-2.822-6.655-7.232a3.743 3.743 0 0 0-1.535-2.695c-2.17-.42-3.85-.01-5.725 1.158-1.555 4.88-2.515 10.069-3.56 15.015-.49 2.332.675 3.212 2.34 4.411 3.755.126 5.685 1.375 7.025 5.057 1.275 3.51 2.84 6.817 5.535 9.554 3.99 1.633 8.125 3.297 12.25 4.329 1.54.384 2.075 1.138 2.97 2.266.75.94 1.165 1.785 2.395 2.068.115-.283.26-.561.345-.86" fill="#E1E1E1"/><path d="M101.03 763.754c6.33-3.732 12.44-7.435 17.95-12.366-.45-3.439-2.535-3.575-5.55-3.772 3.48-2.519 7.275-2.453 11.28-3.5.96-1.598 1.5-3.404 2.47-4.997-1.775-1.679-3.2-.061-5.305.131-2.105.188-4.07.734-5.895-.748-.44-.764-1.02-1.573-1.63-2.17-4.26-4.192-7.315-4.592-11.765-.43-3.12 2.919-5.215 3.394-8.725.688-2.865-2.205-5.475-1.74-7.485 1.487-4.085 6.56-8.01 13.322-12.845 19.482-1.315 1.679-1.945 3.621-.64 5.492 1.305 1.871 3.025.293 4.56.187 6.095-.415 10.83-3.748 16.815-4.203 2.725-.207 5.265-1.289 7.93-1.911-.57 1.593-1.885 2.478-2.55 4.03-.665 1.553-.6 2.726 1.385 2.6Z" fill="#B4B4B4"/><path d="M134.73 6.732c-4.75-.673-8.225-1.326-12.225-4.36C119.58.152 115.805.025 112.2.915c.345 1.614 1.735 1.664 2.76 2.726-1.855.976-3.905 1.442-5.76 2.418-.375.197-.59.576-.82.915.42 3.5 2.15 2.812 4.845 3.637-1.04.025-1.805.202-2.58.95-.825 3.632.98 4.562 4.09 5.634-.08.046-.025.172-.1.193-2.135.495-4.855-1.411-6.095 1.259-1.425 3.07-2.155 6.383-.665 9.675 1.79.566 3.46-.506 5.215.207.67.273 1.265.718 1.94 1.082 3.34 1.806 4.365 3.677 1.77 6.858-.265.324-.395.754-.27 1.194 2.395 1.947 4.88 3.404 6.455 6.16 2.475.617 4.835 1.568 7.37 1.912-.53-3.176-1.055-6.358-1.59-9.534" fill="#D9D9D9"/><path d="M128.66 71.932c.2-.748.21-1.512.285-2.28-.8-.643-1.395-1.376-1.91-2.271-.35-.273.17-.622-.04-.137-.04.091.31.506.55.617.49.228 1.075.4 1.645.127.425-2.711.88-5.432 1.285-8.148.1-.673.205-1.35.25-2.033.17-2.782.25-5.573.395-8.355-2.575-2.64-3.195-5.973-7.35-6.14-2.085-2.341-4.89-3.732-7.05-5.993.025-.288.065-.566.085-.865-.955-.98-2.595-2.872-3.125-.526-.955 4.264-2.685 8.41-3.62 12.715 1.46.966 3.14 1.102 4.285 2.513 1.89 1.892 3.61 3.257 6.085 1.568-1.11.683-2.16 1.39-3.105 2.296-1.475.243-1.52-.774-2.24-1.795-1.475-2.878-2.86-4.34-5.995-2.676.475 5.012-1.1 8.497-4.445 12.143 3.52.324 6.555-1.755 10.025-1.143 1.715 2.706 3.55 5.316 5.14 8.102l-2.915.592c-.85-.723-1.555-.622-2.395.056-1.06 2.164.145 3.454 1.55 4.88 1.4 1.427 2.13 2.544 2.645 4.395 1.695 2.6 2.505 4.977 5.84 5.528.71-2.063 1.415-4.132 2.125-6.2" fill="#DBDBDB"/><path d="M131.09 547.755c-7.02 3.125-13.94 4.946-21.625 5.725-6.48.657-12.34 1.107-18.11 4.688-2.25 1.396-4.5.774-6.52-.941-2.76-2.336-5.585-4.759-8.375-7.075.325 1.977 1.06 3.591.39 5.609-.545 1.628 1.02 2.427 2.23 2.528 4.665.385 6.33 3.687 7.405 7.369 1.235 4.228 2.94 4.243 6.535 3.303 2.355-.617 4.66-1.138 6.46-2.914-1.65-1.557-3.05-.04-4.97-.364 2.365.253 3.905-1.76 5.875.319 5.225-.359 9.02-1.77 12.215-6.089 1.205-1.629 2.8-1.947 4.715-2.028 5.68-.253 11.52-.961 16.83-2.539 2.84-.845 2.89.718 4.28 2.508-.17-6.433-1.69-12.658-2.725-18.97-1.76.283-2.175 1.942-2.145 3.297.05 2.013-.795 2.564-1.935 3.798-.52.562-.535 1.068-.53 1.786v-.01Z" fill="#D6D6D6"/><path d="M65.6 461.282c2.295-.43 4.935 2.534 6.575-.121 1.535-2.484-1.02-5.311-1.585-7.865-.06-.273-.265-.556-.45-.824-2.195-3.202-2.865-6.332-2.535-10.216-.22-2.033-1.46-2.843-3.31-3.151-3.055-.511-5.02-2.149-7.37-3.99-1.465-1.148-2.705-2.479-4.68-1.816-3.8 1.264-5.035 4.577-7.065 7.758-.635 1.538-1.37 3.009-2.39 4.294-3.19 4.005-3.115 7.414-.925 11.915.075.668.15 1.33.21 2.003.34.268.62.567.995.789 3.65 2.134 6.6 2.281 10.585.814 3.75-1.385 7.165-.622 10.795.89.465-.035.775-.212 1.15-.47v-.01Z" fill="#DCDCDC"/><path d="M95.42 153.13c.175-5.239 2.705-8.952 5.25-13.347.37-1.932-.925-3.08-2.335-3.96-5.215-3.252-10.635-5.441-16.215-7.773-2.61-1.123-4-2.372-4.84-5.305-.54-1.877-1.16-3.697-3.59-3.596-.46.202-.885.521-1.18.946-2.175 3.166-2.43 6.074-1.3 9.72 1.665 5.361 3.455 10.393 3.375 16.073-.02 1.552.56 2.963 1.17 4.324.94 2.104 2.68 2.908 4.645 3.702 3.21 1.295 6.255 2.468 9.25 4.162 1.465.435 2.67 1.351 4.23 1.457" fill="#DFDFDF"/><path d="M86.515 185.452c-1.73-1.931-3.13-3.904-5.5-5.072-2.755-.157-5.305-1.229-8.08-1.148-3.395-.314-6.4-1.973-9.845-1.74-1.9 1.725-3.265 2.62-5.76 1.285-1.245-.668-2.54-.41-3.49.794-1.055 2.068-.125 3.944 1.325 5.28 3.09 2.837 4.62 5.3 5.445 9.336.18.89.885 1.517 1.46 2.245 1.2 1.528 2.3 2.923 4.28 3.358 3.555.992 7.115 1.942 10.695 2.812 4.525-.748 4.335-4.142 5.87-7.798" fill="#E0E0E0"/><path d="M58.905 527.909a609.153 609.153 0 0 0-14.765 6.575c-1.48.687-2.8 1.674-4.235 2.513.29 1.568-.18 3.035.715 4.512 1.5 2.483 1.94 4.106 4.46 6.514 3.725 3.555 14.875 4.971 19.51 2.442 2.07-1.127 2.51-2.033 4.355-2.564 1.845-.531 3.24-.981 3.395-3.009.165-2.21-.945-3.505-2.97-4.557-2.025-1.052-4.19-1.709-3.465-4.632-.865-3.662-3.02-5.877-5.78-8.254-.515-.066-.87.066-1.215.455l-.005.005Z" fill="#CCC"/><path d="M67.2 594.091c-1.51 3.788-4.74 5.619-7.945 7.789-3.77 2.549-7.7 4.511-11.1 7.545-1.935 5.301.235 8.927 3.76 12.659 1.245 1.315 2.58 1.811 3.88.997 4.965-3.126 10.37-4.466 15.28-7.536 3.945-2.468 5.685-5.422 4.45-10.059-3.195-3.445-3.835-8.108-7.035-11.511-.475-.187-.845-.142-1.285.121l-.005-.005Z" fill="#C7C7C7"/><path d="M41.87 457.251c-.86-6.312 2.48-10.014 5.675-15.061.11-3.389 1.79-5.786 0-8.997-.41-.729 1.8-1.366 2.135-1.963 3.835-1.38 5.47-1.355 7.905 2.281 1.66 2.478 3.195 4.881 6.64 4.512.46-.051.835-.451 1.19-.739 1.01-4.147-.01-6.954-3.555-9.371-2.58-1.76-5.715-2.691-8.41-4.284-5.915-1.092-11.63.152-17.57.076-3.005-.035-5.16-1.047-7.24-3.247-.98-1.042-1.76-2.069-3.2-2.453-4.175.192-6.79 1.517-8.6 5.437 1.845 1.927 3.16 1.993 5.285.217 1.215-1.016 2.425-1.851 3.825-.288 2.445 2.731 5.355 4.001 8.955 4.597 1.575.258 2.255 1.164 2.855 2.57-1.62 3.246-2.14 6.139-.885 9.553.9 2.448.095 4.001-1.92 5.361-2.015 1.36-4.38 1.998-6.575 2.873-1.735.693-2.73-.101-3.64-1.654-.91-1.553-1.355-3.05-3.52-2.407 0 .44-.055.915-.01 1.355 1.06 10.782 1.24 11.212 11.645 8.679 3.955-.966 6.295.187 9.025 2.948l-.01.005Z" fill="#B1B1B1"/><path d="M54.085 374.703C48.81 363.926 43.52 361.913 32.03 363c-2.6.248-4.695.314-7.145.996-4.12.815-6.785.299-8.635-3.823-.33-.733-.835-1.199-1.7-.789.015 1.158.05 2.342.065 3.505-.055 2.918.905 5.437.85 8.415-.025 1.356 1.04 2.448 2.55 2.716 2.3.405 4.04-1.79 6.44-.45-3.635 3.844-7.39 6.003-5.915 11.86.84.678 1.505.809 2.36.091 3.84-1.517 7.205-.769 11.11.121 1.29-.9 1.92-2.164 2.7-3.504.215-1.057.655-2.003 1.055-3 .51-2.134 1.12-4.329 1.225-6.498.13-2.645 1.355-3.166 3.735-2.645 2.61.561 4.11 1.901 5.61 4.126 1.26 1.872 2.21 3.743 4.465 4.557 2.24-.47 3.07-1.714 3.28-3.965l.005-.01Z" fill="#B4B4B4"/><path d="M20.945 321.311c3.075 2.747 4.195 3.156 5.395-1.153.7-2.518 1.52-5.108 2.85-7.424.44-.036.91-.187 1.23-.465 3.455-3.03 4.895-2.919 7.255 1.097 1.54 2.615 3.135 3.864 6.26 4.142 3.125.278 5.95 1.022 7.76-2.24-4.095-4.719-7.34-9.792-12.995-12.781-4.09-2.159-7.74-3.777-12.235-1.911-2.325.966-3.525-.112-5.235-1.887-2.3-2.387-3.985-5.325-7.745-3.742-1.32.556-1.455-.663-1.545-1.664-.305-3.353-1.695-5.685-3.66-8.284-.02-.703.04-1.406.265-2.074.825-2.463.125-5.017.835-7.505.395-1.386.115-2.842-.92-3.743-1.585-1.375-2.125.233-3.39 1.012-4.045 4.481-5.345 8.314-2.955 14.049-.075 1.811 1.07 2.762 2.08 4.016 1.5 1.866 1.84 3.591 1.57 5.902.325.344.615.718.955 1.057 1.065 1.072 1.98 2.023 3.57 2.059 5.625.131 7.805 3.246 9.7 8.304.29.779.575 1.588 1.25 2.256 1.34 1.309 2.925 2.012 2.835 4.207-.1 2.398-1.715 2.474-3.43 3.485-.77 1.239-.54 2.17.31 3.287h-.01Z" fill="#CDCDCD"/><path d="M102.13 138.524a24.934 24.934 0 0 0 2.045-7.237c.305-.764.935-1.295 1.09-2.124 1.76-2.16 3.245-4.37 4.175-7.02-3.28-4.931-7.23-8.284-12.455-11-1.995-1.037-4.01-1.816-5.57-3.54-1.845-.996-2.51-3.075-4.91-2.534-1.2.268-1.65 1.73-2.25 2.675 0 5.457 1.825 12.74 8.255 13.028-1.575.709-3.09 1.093-4.225-.52-1.235-1.755-2.49-2.782-4.31-1.123-1.82 1.659-2.01 3.975-.68 5.902 1.17 1.699 2.31 3.065 3.505 4.668 5.32 2.645 10.425 5.437 15.325 8.825h.005Z" fill="#DBDBDB"/><path d="M42.035 460.989c-4.49 2.164-8.965 3.58-12.475 7.302-.845.931-1.585-.348-2.505.314-.025.44-.035.865-.07 1.31.675 3.753 1.115 7.758 2.28 11.364 1.23 3.798 3.905 4.886 6.95 2.261 2.825-2.433 5.395-3.773 9.145-3.859 2.585-.814 4.52-2.084 7.03-3.313 2.255-1.102 4.27-1.729 4.155-4.905-.115-3.177-1.52-5.341-4.68-6.277-3.555-.875-6.295-3.297-9.83-4.197Z" fill="#CCC"/><path d="M17.28 360.001a37.75 37.75 0 0 1 1.51-2.271c1.31-1.826 4-2.574 5.435-1.077 2.18 2.266-1.505 2.321-1.785 4.385 1.705 1.092 3.19.789 5.185.44 7.22-1.265 13.875-1.942 20.98.495 2.545.87 4.97.779 6.175-1.977 1.5-3.419.195-6.125-2.48-8.431-.035-.238.23-.526.16-.738-.14-.445-.38-1.002-.83-1.219-1.795-.86-3.56-.299-5.465-.273-3.16 0-4.855-1.275-5.84-4.319-.81-2.499-2.025-4.37-4.185-5.887-2.82.025-3.125 1.8-3.6 4.233-1.08 5.553-3.055 9.255-8.37 11.46-3.345.314-6.27.233-8.95 2.524.455 1.461.145 2.67 2.05 2.655h.01Z" fill="#E4E4E4"/><path d="M87.185 738.998c2.82-2.408 5.105-1.533 6.965 1.213 2.305 3.394 4.205 2.807 6.925.592 1.735-1.416 2.695-3.323 4.585-4.44 4.185-2.468 6.675-.405 7.92 3.945 4.71.526 9.04.131 13.595-1.179l.645-3.601c-3.36-.06-6.72-.091-10.075-.157-2.955-3.444-5.49-7.535-9.235-10.094-3.52-2.408-5.015-2.145-7.675 1.203-1.47 1.857-2.945 3.895-5.73 3.606-2.785-.288-4.37-1.962-5.33-4.572-.105-1.264-.2-2.493-.3-3.747-1.115-.556-1.88-1.497-3.22-1.325-.475.061-.85.485-1.19.794-.87 2.164-1.02 4.324-1.17 6.625a56.653 56.653 0 0 0-.95 8.37c.98 2.236 1.6 3.753 4.245 2.767h-.005Z" fill="#BCBCBC"/><path d="M58.59 224.208c-5.62-2.473-4.665-8.937-7.915-13.165-3.025-3.94-5.78-5.133-10.635-4.223-2.99.562-4.845.172-6.045-3.302-1.05-3.05-3.68-5.316-6.54-6.706-2.455-1.189-3.2-2.094-3.72-4.841-.46-2.427-1.545-4.41-4.34-4.526-1.89 4.183-2.515 7.743-.325 11.931 1.825 1.658 4.45 1.517 6.44 2.786 4.735 3.02 5.165 5.978 1.82 10.697-1.615 2.281-3.745 4.658-3.26 7.879 5.985.916 9.825-3.145 13.035-7.824 5.375.506 6.855 1.857 8.085 7.303.435 1.917.63 4.355 2.525 5.614 2.455.182 4.605.435 7.15.375 1.58-.041 2.995-.233 3.725-1.993v-.005Z" fill="#CBCBCB"/><path d="M96.83 656.981c1.365-3.278 2.235-5.301 2.455-9.291.145-2.604-5.02-4.84-8.145-4.89-5.355-.086-7.19-.825-5.31-6.732.635-1.993.22-3.303-1.195-4.476-.37-.303-1.545-.045-1.46-.222.635-1.315 1.17-2.347-.425-3.222-1.28-.698-2.53-.455-3.725.43-3.365 2.493-6.615 3.49-10.8 3.095-.35.167-.77.43-1.03.678-.26.248-.285.581-.54.779-.365.283-.695.475-.86.93-.34 1.684-1.365 2.241-2.71 3.207-1.715 1.234-2.39 2.63-1.02 4.501.655.329 1.305.369 2 .238 3.11-1.346 4.73-1.477 7.68.743 3.635 2.741 7.78 4.385 12.54 3.955 3.305-.678 4.715-.273 5.105 3.277.11.991-.26 1.993.015 2.979 2.405 2.696 3.4 5.042 7.415 4.016l.01.005Z" fill="#B6B6B6"/><path d="M25.72 754.342c1.085 2.18 2.16 4.38 3.25 6.545.295-.43.99-1.341.97-1.811-.395-10.191 3.68-18.966 2.215-29.252-1.13-7.92 2.835-14.46 6.365-21.282 1.685-3.257 2.875-6.423 4.315-9.62.8-1.77.02-2.726-.91-4.157-4.185 7.116-8.705 13.777-12.62 21.1-2.58 4.825-2.52 10.079-1.78 15.44.865 6.251.605 11.901-1.1 17.97-.46 1.643-.51 3.373-.71 5.062l.005.005Z" fill="#CFCFCF"/><path d="M55.385 253.531c-4.61-1.876-6.325-4.805-8.96-9.129-3.555-5.836-7.58-10.16-15.025-9.745-3.525.197-4.89-3.424-6.75-5.882-1.86-2.458-3.485-3.535-6.28-1.902-.225-2.508-.535-5.032-.695-7.551 1.11-2.002 1.15-3.626-.04-5.593-.66-.546-1.445-.612-2.23-.855-.785-.243-1.43-.703-2.145-1.077-.37-.192-.77-.278-1.17-.395-3.05 1.179-5.96 2.458-9.215 2.913-1.065 5.265-1.335 7.956 4.905 6.206 3.485 1.022 4.145 2.24 2.795 5.73-.28.728-.7 1.507-.305 2.337.74.935 1.515 1.851 2.26 2.776 1.52-.243 2.27.825 3.795.976 3.78.369 4.97 1.968 4.24 5.958-.225 1.229.1 2.625 1.235 3.454 1.545.577 2.905-.126 4.48-.121 9.41-.855 11.14 1.527 14.155 10.267.45 1.299.79 2.604 2.04 3.368 3 .293 5.455.753 8.46-.233 1.615-.531 3.35.359 4.455-1.497l-.005-.005Z" fill="#CCC"/><path d="M87.175 738.982c-1.39-.384-1.5-1.522-2.09-2.675-2.905-.324-3.66 2.018-4.735 4.132-2.69 5.275-4.96 10.054-9.005 14.297-.795 1.052-1.79 1.912-2.405 3.106-.185 1.446-.585 2.609.23 3.934-.14 2.539-.2 4.613 1.485 6.661.475.278 1.11.739 1.66.541 6.505-2.311 13.165-3.803 19.79-5.614-2.38 1.649-4.69 3.227-6.38 5.624-1.325 1.882-.9 2.58.745 3.981 5.225-2.59 10.035-5.508 14.575-9.215.035-3.277 2.645-3.687 4.59-5.578 1.215-1.184 2.645-2.029 2.245-3.723-.575-2.417-2.42-.779-3.585-.379-6.33 2.165-12.415 2.984-18.46 5.644-3.73 1.639-7.835.258-11.445 2.468 3.055-8.491 9.33-14.909 12.795-23.198l-.01-.006Z" fill="#C2C2C2"/><path d="M72.505 401.639c-6.145-.379-10.73-3.884-16.22-6.291-1.84-.81-3.395-2.099-5.45-2.104-7.085-.015-13.69-1.037-20.755.495-2.685.582-5.385.026-7.925-1.304-2.22-1.164-2.9-2.848-1.745-5.179-.55-1.512-1.515-1.664-2.995-1.578-.91 3.419-3.11 6.301-4.52 9.462-.955 2.14-1.11 4.046.34 5.973 1.835 2.438 3.37 3.11 5.38-.05 1.76-2.767 3.865-5.543 7.76-4.931 2.7-.476 5.115-.446 7.635.637 1.54.662 2.79.769 4.39.359 3.355-.86 6.08-.324 9.135 1.239 2.795.85 4.655 2.256 6.265 4.739 1.07 1.649 2.245 2.67 4.27 2.781 4.32.612 8.08-.475 12.33-1.37 1.455-.304 2.29-1.29 2.105-2.883v.005Z" fill="#C5C5C5"/><path d="M111.14 12.113c3.555-.855 6.905.652 10.33-1.037-4.41-.926-8.65-1.462-12.59-3.813-3.985-1.983-6.255-1.376-8.52 2.513-4.035 3.51-8.095 6.95-12.115 10.49-.675.591-1.295 1.157-2.045 1.74-1.845 1.43-3.385 2.846-2.745 5.43.59 2.368 2.43 3.152 4.685 3.349 3.145-1.27 5.625-3.11 8.025-5.477 2.815-3.404 5.205-6.024 9.81-6.444 2.815-.258 5.505-.682 8.46-.404 1.18.111 2.52-.9 3.46-1.715 0 0 .02.01.02.005.155-1.75-3.435-.819-4.765-1.107-1.765-.38-2.7-1.563-2.02-3.525l.01-.005Z" fill="#B9B9B9"/><path d="M16.4 253.005c2.37 3.652 5.545 6.681 8.335 9.958 1.305 1.533 2.815 1.603 4.605 1.229 4.395-.92 8.325-1.072 12.835-.885 3.335.137 6.105-1.067 8.47-3.52-1.655-3.611-3.935-4.101-7.625-4.208-2-1.057-3.51-2.22-5.695-3.054-2.785-1.057-4.085-3.439-5.26-6.211-1.06-2.498-2.165-4.885-5.25-4.622-.425.035-.88.166-1.19.515-2.125 2.413-2.33 5.877-4.43 8.355-1.21 1.098-2.845 1.199-3.985 2.392-.27.021-.54.031-.815.051h.005Z" fill="#E3E3E3"/><path d="M24.18 354.832c4.515 1.098 6.67-.48 8.38-4.946 1.165-3.04 1.57-6.994 3.205-9.999 2.535.562 3.475 2.544 4.84 4.542 1.615 2.367 2.675 4.309 5.805 4.567 3 .248 5.525-.369 7.25-3.126-2.595-2.796-4.565-5.295-7.07-8.365-2.5-3.07-6.915-4.278-10.83-4.121-2.725.106-5.355-.37-7.4-1.816-5.07-3.591-9.09-2.509-14.675-1.598-.54 1.841 1.02 3.085 2.355 3.267 7.285.986 9.99 4.698 11.74 11.475 2.885 3.106 1.645 4.577-1.59 6.737a89.678 89.678 0 0 0-1.96 2.372c-.015.339-.04.652-.055 1.006l.005.005Z" fill="#CACACA"/><path d="M87.79 128.096c-2.175-2.908-3.355-4.866-2.435-8.623 2.925 4.248 6.315 2.397 10.445 1.744 1.72-.273 2.28-1.097 1.91-2.564-.37-1.471-1.755-.708-2.58-.202-3.77 2.306-5.51 1.209-6.7-2.777-.77-2.574-1.67-4.834-2.565-7.318-.89-4.01-3.65-5.517-6.825-7.687-.21-.051-.42-.096-.63-.142-1.625 2.661-2.03 5.746-3.87 8.3l-5.18-2.63c-.925.323-1.865.632-2.78.971-.6.804-.53 2.008.225 2.513 3.31 2.21 4.51 5.164 6.225 8.563 3.135.404 4.295 1.75 4.68 4.905.34 2.777 1.38 4.239 4.225 5.164 2.105.683 3.965 1.917 5.855-.217Z" fill="silver"/><path d="M53.61 116.893c-4.39 2.57-9.13 4.067-13.92 5.376-3.5.961-6.465 2.914-8.425 5.731-1.96 2.817-.955 5.209.53 7.586 1.485 2.377 3.29.885 5.16.253 4.225-2.671 7.97-3.9 12.795-5.811 2.94-1.164 7.275-6.337 7.55-9.534.275-3.196-1.535-3.095-3.69-3.606v.005Z" fill="#D4D4D4"/><path d="M44.515 478.497c-3.08-2.801-5.22-.414-7.475 1.594-4.77 4.243-5.35 3.605-7.36-1.993-.955-2.655-1.725-5.518-2.7-8.173.03 4.87.345 9.786 1.88 14.414 1.04 3.135 2.54 4.021 5.675 2.392 8.49-4.41 8.735-4.319 14.59 3.565.71.961 1.505 1.948 2.235 2.903 3.795 7.071 9.025 8.092 16.55 8.027 4.665 1.198 8.53 2.488 11.965 6.059 1.195 1.239 2.585 1.127 4.25 1.198 2.405.106 4.42.592 6.06-1.613.23-1.452-.43-2.104-1.525-2.984-7.43-5.943-13.51-9.493-23.34-7.915-3.145.506-6.265-.668-8.655-3.105-4-4.077-7.795-8.062-10.315-13.301-.59-.405-1.19-.759-1.835-1.068Z" fill="#B4B4B4"/><path d="M21.23 444.274c1.095 2.493 1.48 6.938 3.9 8.309 3.305 1.871 4.745-2.964 7.92-3.601 2.105-.42 4.065-1.76 5.755-3.414 2.055-2.008 2.685-3.666.775-6.241-1.91-2.574-1.515-5.684-1.83-8.779-4.915 3.722-10.315 6.645-14.84 10.898.53.623 1.11.789 1.905.794-.56.061-1.075.061-1.645.112-.905.081-1.725.222-2.04 1.178-.07.213.015.551.1.744Z" fill="#C4C4C4"/><path d="M122.925 90.18c.215-.734.29-1.487.415-2.24-.31-2.873-1.87-4.451-4.015-6.196a3.124 3.124 0 0 0-1.385.076c-2.19 1.674-3.78 1.922-5.925-.04-.74-.678-1.605-1.29-2.74-1.407-1.53-.156-3.065-.54-4.325.744-1.26 1.284-1.355 2.948-.82 4.658.63 2.008 2.155 3.58 2.49 5.705 2.81 4.283 7.4 6.321 10.62 10.271.505.617 1.39.461 2.065.122 1.03-1.285 1.31-2.68 1.6-4.269" fill="#DADADA"/><path d="M53.605 116.929c2.175 4.622-.365 9.493-4.805 11.672-4.235 2.079-8.765 3.232-11.82 7.223 2.13-.693 4.3-1.356 6.43-2.089 3.015-1.037 6.155-1.098 9.27-1.649 1.435-.253 1.735.663 1.54 1.937.64 2.969 1.66 5.265 4.02 7.222 1.185.071 2.125-.162 2.8-1.244 2.545-4.107 4.815-8.264 7.72-12.168 1.02-1.371.54-2.954-.36-4.269-.895-1.315-1.71-2.478-2.18-3.985-1.925-2.043-3.615-3.52-4.39-6.403-.275-1.032-1.23-1.644-2.37-1.102-1.715 1.911-3.835 3.297-5.85 4.86l-.005-.005Z" fill="#BBB"/><path d="M86.47 772.969c1.11-4.249 4.145-5.66 7.605-7.794 2.105-1.3 5.36-1.73 4.055-4.85-1.4-3.333-4.185-.951-6.335.121-4.71 2.342-9.685 2.827-14.59 4.289-2.555.764-4.61 1.876-6.555 3.702.445 1.578.88 3.151 1.32 4.729 3.69.688 7.38 1.401 11.08 2.053 1.145-.748 2.28-1.492 3.425-2.245l-.005-.005Z" fill="#CECECE"/><path d="M31.155 191.881c.375.682.785 1.32 1.17 1.982 4.67-1.659 7.53-4.445 9.635-8.952.18-5.199.255-9.745-2.565-14.277-2.79-.941-5.67-1.193-8.58-1.542-3.87 4.455-8.755 7.717-13.065 11.667-1.13 1.032-1.925 2.069-1.46 3.611.33 1.093 1.385.885 2.155.364 2.405-.571 4.75-1.249 7.155-1.82 2.405-.567 4.9-1.437 6.54 1.067 1.76 2.685.52 5.356-.99 7.894l.005.006Z" fill="#BABABA"/><path d="M73.72 605.971c-.045 5.938-2.915 9.068-8.57 10.267-2.425.516-4.52 1.638-6.585 2.751-5.035 2.716-7.865 1.553-9.475-3.935-.52-1.785-.575-3.803-.94-5.634-.845.476-1.35 1.037-1.635 2.013.22 4.992 1.4 9.837 3.745 14.156 1.89 3.485 3.925 4.309 7.225 2.053 3.82-2.604 7.275-5.816 11.75-7.434 3.545-3.93 7.14-4.805 12.245-3.682 1.61.354 3.07.89 4.7.152 1.895-1.669 2.12-4.137 3.635-6.084.025-.476-.145-1.356-.655-1.421-5.11-.668-9.565-3.096-14.675-3.606-.265-.026-.545.252-.76.404h-.005Z" fill="#BCBCBC"/><path d="M44.17 135.697c-.4 1.118-.98 2.584-1.03 3.707-.19 4.284-1.87 6.059-5.735 7.384-3.22 6.14-8.305 6.615-14.33 8.664-2.155.733-3.67.93-3.215 3.58 1.405 1.77 3.11 1.007 4.825.496 4.78-1.421 9.375-2.018 14.245-2.327 4-.258 4.37 1.518 2.655 4.815.075.253.14.486.225.723 1.82 1.679 3.285.85 4.375-1.047 1.085-1.896 2.7-3.838 3.81-5.441 3.345-4.835 3.665-6.181.015-10.844-1.13-1.446-2.55-3.095-2.34-5.239-.545-2.311-.95-4.071-3.5-4.471Z" fill="#B7B7B7"/><path d="M44.17 135.687c.895 1.901.66 3.803.61 5.851.215.263.51.461.8.612.63.329.52.83.495 1.442.77 1.674 2.54 1.866 3.92 2.63 3.585 1.982 3.86 3.707 1.885 7.242-1.155 2.068-2.4 4.567-2.89 6.868-1.14 5.336-.205 7.237 4.79 9.068 3.42-1.31 3.94-4.354 5.755-7.207.09-1.204-.535-1.608-1.42-2.175-1.945-1.239-2.27-2.812-1.975-5.093.57-4.364 2.41-8.547 2.345-13.043.225-.146.375-.45.32-.662-.055-.213-.095-.283-.25-.354-.11-2.741-1.495-4.825-2.395-7.344-3.765-3.151-7.065-1.891-11.08.258-.3.637-.605 1.27-.91 1.907Z" fill="#D8D8D8"/><path d="M22.345 310.018c-2.48-11.253-3.865-13.827-15.635-12.3-.53 2.064-1.2 4.117-1.805 6.14.255 3.409 1.13 5.862-.905 9.114-.605.966.07 2.746 1.81 2.326 1.255-1.411 2.195-2.691 3.6-4.132 4.41-4.536 4.845-3.414 6.95 2.286 1.59 2.964 1.2 6.332 4.58 7.864.2-.981.405-1.967.605-2.948 3.57-2.362 2.52-4.967.795-8.34l.005-.01Z" fill="#B4B4B4"/><path d="M5.07 272.684c2.065-.041 2.475.854 2.525 3.125.065 2.858-2.445 5.336-.37 8.173 4.695-3.363 4.67-2.594 6.76 2.61 2.65 1.916 3.995 1.704 4.315-1.978.245-2.802.4-6.306.7-9.23 2.785-9.796.325-13.898-9.785-14.96-.74.612-.995 1.179-.74 2.135 1.77 1.476 1.74 2.766.23 4.475-1.505 1.71-2.75 3.556-3.645 5.645l.01.005Z" fill="#B6B6B6"/><path d="M16.84 423.442a39.615 39.615 0 0 0 8.34-4.198c3.795-1.841 7.06-4.187 11.195-5.33 1.4-.385 2.05-1.594 2.085-3.065-.33-1.502-.775-2.929-.925-4.461-.33-3.49-1.765-5.037-5.285-5.062-4.375 2.351-6.72 6.468-9.995 10.034-1.55 1.689-2.945 3.398-4.425 5.087-1.98 2.261-2.155 4.274-.995 6.995h.005Z" fill="#C2C2C2"/><path d="M128.4 667.687c-1.835-.207-3.67-.414-5.5-.622-7.46 1.088-11.845 4.997-16.495 10.742.495 1.482 1.71 2.216 2.705 3.338 2.27 1.052 4.705 1.71 7.105 2.337 2.665.693 4.38.167 5.825-2.215 4.04-3.834 5.45-8.168 6.36-13.58Z" fill="#767676"/><path d="M17.215 252.944c2.335 1.366 3.87 2.034 5.465-.612-.085-.475-.19-.93-.235-1.416-.335-3.565 1.035-6.842-.15-10.332.115-.652-.035-1.28.305-1.902 1.035-1.896 2.98-2.599 1.485-5.047-1.265-2.069-2.835-4.081-5.645-3.879-2.02.147-4.135.41-5.9 1.598.305 1.052-.07 1.603-.805 2.316-1.69 4.208-5.035 7.045-7.385 10.839-.085 1.4-.245 2.478 1.455 2.442 1.815-.844 3.515-1.861 5.37-2.64 4.95-2.063 6.15-.172 6.31 4.992.03 1.052-.2 2.534-.265 3.641h-.005Z" fill="#B7B7B7"/><path d="M79.605 52.188c1.915-1.067 3.53-2.392 5.055-3.97 2.425-3.156 5.505-5.371 8.445-8.006 2.94-2.63 2.415-4.43-.455-6.888-3.61.445-6.955 1.891-10.58 2.23-2.09.9-3.805.526-2.925 3.419-.985 2.867-2.705 4.658-4.765 6.903-1.695 1.851-3.33 3.692-1.54 6.15s3.605 1.113 5.88.304c.32-.117.575-.127.885-.147v.005Z" fill="#D2D2D2"/><path d="M122.035 681.267c-4.47 1.153-7.915-.703-12.11-2.054-4.795.663-6.025 2.605-5.855 7.415 4.585 3.105 8.425 7.024 12.5 10.757 1.82-5.432 4.44-10.429 5.47-16.113l-.005-.005ZM54.1 374.748c-1.84.172-2.53 1.604-3.3 3.07-.61.627-.73 1.219-.565 2.064.695 1.026 1.37 1.3 2.445.617 12.16-1.295 24.12-3.444 35.995-6.398-.425-1.477-.85-2.943-1.28-4.42-6.33 2.948-13.045 2.751-19.79 3.924-4.495.784-9.005.724-13.51 1.138l.005.005Z" fill="#9E9E9E"/><path d="M12.765 213.977c.45.92 1.065.783 1.955.708 2.1-1.143 3.825-1.77 6.015-.521 1.045 1.734 1.165 3.803 2.28 5.502.27.41.735.688 1.03 1.093 1.26-2.241 2.54-3.955 4.34-5.857 2.44-2.579 5.21-4.299 4.11-8.643-.9-3.566-5.535-6.939-9.38-7.197-1.445-.096-2.685.248-4.06.324-.035.323-.075.607-.095.93-.295 4.446-1.215 7.839-4.715 10.747-.91.759-1 1.892-1.485 2.914h.005Z" fill="#B8B8B8"/><path d="M141.71 626.606c1.075-7.809.865-15.699 2.065-23.487-1.695-1.599-3.805-.279-5.78.106-2.46 1.102-2.44 3.12-2.125 5.366.365 2.584.455 4.87-.17 7.232-1.165 4.415-2.865 5.669-7.495 5.568-5.94-.131-12.36-.49-18.41-1.168-1.645-.187-3.275-.228-4.82.561-.385.198-.69.496-.97.835.79 3.277 2.815 4.875 5.92 5.877 2.895.935 5.735 1.284 8.755 1.107 3.39-.197 6.66-1.193 10.07-1.153 4.29-1.345 8.56-.344 12.95-.839l.01-.005Z" fill="#BDBDBD"/><path d="M24.24 353.826c.81-.364 1.63-.728 2.445-1.088 2.545-2.837 4.145-4.84 2.115-8.531 1.03-7.652-4.1-12.26-11.225-13.231-1.555-.212-2.59-.152-3.91-1.006-1.35.339-2.195 1.067-2.96 2.235.785.551 1.575 1.118 2.36 1.664-.35 2.873-.125 5.447-.005 8.385.08 1.917.885 3.192 3.01 2.939.52-.526 1-1.174 1.62-1.604 1.685-1.173 2.835-3.813 5.195-2.72 2.56 1.193 2.38 4.071 2.315 6.559-.06 2.2-.615 4.269-.96 6.403v-.005Z" fill="#B1B1B1"/><path d="M89.04 859.78c-.94-1.745-2.145-3.287-3.275-4.906-1.26-1.426-1.88-3.348-3.995-2.205.28 1.037 1.01 3.399 1.285 4.087.21.531.05.121.05.126 1.345 1.442 1.975 2.372 1.49 4.289-1.435 2.19-1.41 3.844.705 5.639 3.85 3.267 7.12 7.192 11.15 10.424 1.335 1.067 2.655 2.468 4.535 1.684-1.655-3.94-5.205-6.312-7.195-10.055" fill="silver"/><path d="M16.075 345.188c-.67-.84-1.165-1.907-.845-2.929 1.09-3.484-.2-5.603-2.16-8.39-6.08 6.418-5.48 13.554-6.055 21.909-.11 1.583.925 2.64 2.365 2.959 1.605.354 2.51-.764 2.985-2.13 1.335-3.828 2.465-7.586 3.715-11.419h-.005Z" fill="#CDCDCD"/><path d="M141.71 626.606c-4.205-2.873-7.92-1.442-12.535-.587.08 1.087 1.475 1.725 1.39 2.837-.24 3.156-2.145 4.446-5.175 4.683-2.28.177-4.44.142-6.775-.202s-3.76.349-3.105 2.994c1.5 1.573 3.46 2.16 5.525 2.342 4.42.394 8.645.576 13.03.359 1.515-.076 2.995-.253 4.505-.344 2.185-3.859 3.18-7.637 3.14-12.082Z" fill="#818181"/><path d="M141.335 575.045c-3.07.308-5.32 1.219-7.165 3.778-3.35 4.101-5.45 6.984-11.12 7.672-1.89.227-2.765 2.458-1.345 4.218 4.06 1.901 7.865.445 12.13.217 1.49-.081 2.855-.571 4.33-.546 1.065.015 1.84-.566 2.735-.981 1.205-.556 1.79-1.3 2.43-2.423.195-4.319.165-8.087-2-11.935h.005Z" fill="#848484"/><path d="M30.755 170.113c-.335-1.158-.64-2.306-.975-3.454-.735-.678-1.27-.536-1.92.197.89 2.033-.475 3.029-1.995 3.99-3.545 2.236-6.97 4.319-10.425 6.545-1.185.763-2.43 1.623-3.31 2.64-1.6 1.841-2.625 4.208-1.29 6.301 1.495 2.337 3.315.466 5.155-.197.91-.329 1.64-.93 2.455-1.391-.835-.526-1.03-1.026-.135-1.689 3.5-2.589 6.475-5.932 10.605-7.394 3.135-1.107.845-3.257 1.835-5.543v-.005Z" fill="#CACACA"/><path d="M130.02 524.202c-1.265.728-.87 1.927-1.08 3.075-.73 3.975-2.53 5.983-6.04 7.92-4.935 2.731-10.37 5.249-15.42 7.859.925 3.08 3.495 2.994 6.065 2.595 4.87-.759 8.82-2.18 13.16-4.269 2.555-.46 3.855-2.362 5.765-3.93.725-.591 1.03-1.244 1.33-2.093-.605-3.981-2.275-7.491-3.78-11.167v.01Z" fill="#C3C3C3"/><path d="M59.455 112.058c.47 3.864 1.085 6.858 4.85 8.558 3.75 2.22 6.235 2.468 9.285-.966.025-.016.075-.041.1-.061.62-.617.62-1.209.135-1.917.475-5.846-2.325-8.147-7.25-10.514-2.54 1.547-5.145 2.574-7.115 4.9h-.005Z" fill="#DCDCDC"/><path d="M58.59 224.228c-3.875-.172-7.06-1.558-10.665.496-1.14.48-1.48 1.289-1.55 2.498 1.04 2.964 2.63 2.767 5.345 2.241.99.111 1.98.227 2.97.344 8.42.298 16.135 2.943 24.04 5.689.045-1.826.115-3.631.27-5.447-6.595-2.781-13.565-3.854-20.41-5.826v.005Z" fill="#A1A1A1"/><path d="M53.775 424.2c1.565 1.659 3.56 1.983 5.41 3.298 3.385 2.412 5.655 4.794 5.445 9.25.59 1.042 1.335 1.735 2.57 1.806 2.535.151 4.44-.461 6.81-1.503 4.055-1.785 8.23-1.846 12.62-1.249 1.045.142 2.03.546 3.1.405 2.305-.309 4.285-1.371 6.65-1.548 3.23-.242 4.91-1.967 6.115-4.926-.83-3.565-1.905-7.045-2.77-10.595-1.505-.89-2.6-.379-4.115.197 2.365 1.578 4.04 3.47 3.75 6.443-.29 2.974-2.85 3.768-5.15 4.274-7.48 1.633-14.38 2.989-21.945 3.55-2.46.182-4.435-.642-5.81-2.802-2.865-4.506-6.81-5.482-11.705-6.686-.385-.369-.665-.343-.975.081v.005Z" fill="#C9C9C9"/><path d="M81.08 64.164c1.32-2.842 4.255-4.501 6.9-5.295 5.675-1.7 7.815-4.294 8.85-9.938-5.955 3.328-11.58 6.802-17.95 9.31-2.47.972-4.5 2.676-5.795 5.063-.705 1.295-1.21 2.68-.19 3.94 1.02 1.26 2.485.8 3.765.066 1.55-.895 2.935-2.079 4.415-3.146h.005Z" fill="#CDCDCD"/><path d="M68.65 104.331c-.125-2.074 1.585-3.004 2.91-4.046 3.775-2.98 6.25-6.565 9.195-10.227-2.115-1.365-3.62.107-5.75.633-1.015.318-2.04.657-3.05.966-4.27-.906-7.03.202-10.22 3.388-1.205 1.204-1.565 2.858 1.035 2.306.5-.106 1.6-.9 1.595.238 0 .541-1.285 1.406-1.735 1.76-1.58 4.456-4.03 6.393-8.36 8.249-2.055.88-4.265 1.183-3.87 4.147 6.895-.395 12.22-4.329 18.25-7.414Z" fill="#C5C5C5"/><path d="M42.51 257.415c2.71.799 5.43 1.573 8.14 2.367 8.825.814 17.38 1.406 25.83 4.294.1-1.841.2-3.682.305-5.528-3.12-.683-6.245-1.36-9.36-2.063-5.955-.213-11.295-.643-16.735-3.308-2.95.233-5.28-1.072-7.835 1.082-1.015.86-1.27 2.018-.345 3.156Z" fill="#9B9B9B"/><path d="M66.975 585.443c-4.165-2.519-8.435-1.821-12.565-.142-4.13 1.679-6.065.986-8.905-2.078-1.58-1.705-2.685-3.5-5.16-3.935.085.263.16.561.22.844 2.39 3.844 3.815 8.072 6.03 12.027 1.28 2.291 2.87 3.166 5.365 2.104.205-.238.41-.475.595-.713 4.215-3.308 7.195-5.245 12.825-4.658 1.9.197 2.885-1.689 1.595-3.454v.005Z" fill="#BEBEBE"/><path d="M19.865 159.032c4.56-1.471 9.45-2.893 13.94-4.415 4.49-1.522 5.265-3.525 3.61-7.844-4.62 1.477-9.08 2.433-13.63 4.324-3.57 1.482-5.255 4.016-3.92 7.93v.005Z" fill="#D2D2D2"/><path d="M32.245 401.315c2 1.275 2.905 2.565 3.06 5.028.125 2.023.245 3.803 2.215 4.921.735.768 1.495.89 2.495.632 1.965-1.32 1.845-3.601 1.885-5.569.075-3.565 1.345-5.092 4.33-6.524 1.21-.92 2.045-1.75 2.06-3.363-.21-.243-.62-.875-.935-.88-7.18-.116-13.925-1.199-20.98.546 1.785.45 3.125.344 4.91 1.255 1.79.91 3.005 2.21.96 3.949v.005Z" fill="#B1B1B1"/><path d="M89.945 474.785c4-.025 7.9-.253 11.83-1.072 3.64 1.113 6.6 1.548 9.99-.495 1.765-.719 3.22-1.371 3.375-3.566.26-3.616-.895-6.661-2.94-9.624-1.8 1.34-3.57 2.685-5.36 4.035-3.55 4.102-7.43 6.12-12.81 6.398-2.31.122-4.44.45-6.58 1.265-1.175.445-2.4 1.087-2.125 2.452.34 1.685 1.745.906 2.94 1.052.665.086 1.16-.04 1.68-.45v.005Z" fill="#888"/><path d="M40.955 541.529c-.05-1.634-.16-3.105-1.04-4.522-.275 6.671 1.04 12.998 2.865 19.345.78 2.706 3.205 1.942 5.315 1.411 5.595-1.396 9.98-1.173 14.74 2.347.325-.111.775 0 1.075-.157.555-.278.9-.784.92-1.421.025-.829-.145-1.735-.91-2.144-.015-.01-.01.005-.02 0-.35-3.627-2.285-4.719-5.73-4.719-1.635 0-3.35-.137-4.93.015-5.095.486-7.865-1.466-9.85-6.064-.695-1.613-1.49-2.695-2.435-4.096v.005Z" fill="#B2B2B2"/><path d="M18.235 372.791c-.565-.359-1.52-1.638-1.07-2.19 3.91-4.804.515-4.612-2.545-7.707-4.485 4.476-2.955 9.336-3.275 15.076-.14 2.544.795 3.915 2.79 5.275.455.309.92.324 1.445.238 3.12-3.328 4.395-6.271 2.66-10.687l-.005-.005Z" fill="#CFCFCF"/><path d="M50.39 111.74c3.32-1.512 7.045-3.121 10.175-4.82 4.255-2.311 4.41-3.535 2.045-7.566-2.81.845-5.935 1.31-8.575 2.519-4.49 2.053-6.025 5.441-3.64 9.867h-.005Z" fill="#D5D5D5"/><path d="M62.75 97.341c.345-2.382 2.35-2.539 4.115-2.984 2.22-.556 3.505-1.274 5.055-2.72.92-.86 1.495-1.963 2.365-2.858 2.72-2.14 5.5-2.868 2.89-6.52-3.105 1.245-6.035 2.17-9.08 3.708-3.835 1.932-6.465 4.172-7.66 8.653-.49 1.841-.195 3.621 2.31 2.721h.005Z" fill="#D3D3D3"/><path d="M124.7 744.121c-2.78-2.326-5.7-1.588-8.81-.693-3.11.9-5.305 2.529-8.005 4.071-.84.481-1.395 1.361-1.115 2.302.335 1.148 1.285.91 2.22.758 3.62-.602 6.665-1.016 9.99.835 2.36-2.13 4.23-4.456 5.725-7.268l-.005-.005Z" fill="#A6A6A6"/><path d="M117.91 16.74c-4.35 1.76-8.32.693-12.815.198-2.29.844-3.025 2.073-2.29 4.47l-.18 1.826c-.37 3.156-2.595 4.86 1.195 6.59 1.915-.455 3.605-.207 4.88-1.947.005-.304-.07-.607-.025-.916.905-6.16 3.165-8.91 9.65-8.036.845.116 2.175.04 2.745-.946-.88-.95-2.095-.617-3.16-1.234v-.005Z" fill="#C4C4C4"/><path d="M2.87 214.315c2.37 3.08 4.41 3.217 7.26.537.725-.683 1.71-1.295 2.585-1.841 2.36-1.143 3.665-3.212 4.945-5.402 1.42-2.432.59-4.061-1.97-4.82-4.72 3.596-9.44 6.509-12.82 11.531v-.005Z" fill="#D7D7D7"/><path d="M90.635 108.614c1.32 2.337 3.415 3.561 5.715 4.679 4.48 2.174 8.175 4.379 11.09 8.481.54.764 1.215.627 2 .369.385-.855.775-1.694 1.16-2.549-.19-1.745-1.52-2.792-2.385-4.177-2.375-3.799-5.51-6.332-9.135-8.805-.955-.653-2.07-.354-3.13-.658-1.405-.399-2.34-1.001-3.235-2.24-1-1.386-2.1-1.518-3.425-.339-.84 2.19-.075 3.535 1.35 5.239h-.005Z" fill="#989898"/><path d="M67.755 618.584c-2.93 2.12-5.98 4.588-8.77 6.793-3.62 2.862-5.63 2.412-8.16-1.442-2.41-3.677-2.83-8.39-4.325-12.497-.805 6.428 1.085 12.017 3.835 17.661 1.07 2.19 2.775 1.775 4.6 1.067 4.17-1.623 6.875-5.437 11.06-7.04 1.905.015 2.245-1.072 2.77-2.716-.085-.799-.345-1.375-1.015-1.826h.005Z" fill="#B0B0B0"/><path d="M102.495 429.733c-2.355.461-4.045 2.054-6.16 3.07-4.405 3.97-9.365 3.197-14.825 4.653-1.475.395-2.915.572-3.095 2.488 1.625.673 3.03.607 4.675-.015 7.27-.435 14.375-1.234 21.495-2.832 0-2.741-.74-5.007-2.09-7.369v.005Z" fill="#8C8C8C"/><path d="M87.805 128.101c-2.175-.309-4.345-.617-6.52-.931-.495.607-.545 1.133-.16 1.816 2.99 2.534 6.44 3.403 9.995 4.931 3.555 1.527 6.795 2.736 8.845 6.281.045.592.28.916.825 1.138.895-.764 1.065-1.709 1.34-2.812-3.495-5.649-8.835-7.293-14.325-10.428v.005Z" fill="#A0A0A0"/><path d="M9.185 261.451c9.235-.283 10.035 6.054 9.83 13.938 1.07-1.466 4.045-.222 4.205-2.437.16-2.215-1.22-4.633-2.45-6.671-1.825-3.024-3.5-5.998-7.03-7.03-2.9-.85-1.17-3.409-1.74-5.599-.05-3.944-1.375-5.244-5.095-3.909-.3.106-.5.126-.785.217-.165 4.284 1.1 7.754 3.07 11.491h-.005Z" fill="#C8C8C8"/><path d="M100.99 878.923c-7.515-4.127-11.68-10.752-16.385-17.742-1.885.339-3.24.526-4.965-.571-1.34-.855-2.55-1.285-3.585.278 6.405 5.831 12.685 11.561 19.68 16.765 1.685 1.255 3.16 2.888 5.255 1.27Z" fill="#A0A0A0"/><path d="M67.2 594.086h.825c.7 4.051 2.85 6.888 5.885 9.498 2.025 1.745 3.99 1.983 5.545-.334 1.705-2.544 3.62-4.961 4.68-7.844-1.125-2.357-3.275-2.19-5.195-1.426-3.49 1.386-5.11.475-6.7-2.655-1.13-2.231-1.775-3.839-4.54-3.91-2.45 1.568-.685 2.686-.605 4.947.035.571.075 1.148.11 1.719l-.005.005Z" fill="#BEBEBE"/><path d="M94.98 867.741c-.65-.046-1.705-.43-2.255.02l2.255-.02Z" fill="#3A3A3A"/><path d="M5.605 244.878c4.27-3.009 6.805-5.584 6.125-11.203-3.97 2.013-7.76 3.672-10.935 6.919.45.738.295 1.558.28 2.362-.025 1.284-.19 2.792 1.08 3.449 1.62.845 2.185-.637 3.45-1.527Z" fill="#D6D6D6"/><path d="M88.155 30.775c-3.535-3.702-2.305-6.524.08-10.53-4.155 1.103-6.71 3.282-8.45 7.268-.695 1.593-1.005 3.373.165 4.754 1.17 1.38 2.69.698 4.13.258 1.44-.445 2.715-1.164 4.08-1.75h-.005Z" fill="#C9C9C9"/><path d="M81.76 852.644c1.335.744 2.67 1.492 4.005 2.235a4427.789 4427.789 0 0 0-9.12-22.561c-1.215 4.066-2.8 6.711-.695 10.788-.46 3.247 1.05 4.673 3.645 6.281l2.16 3.262.005-.005Z" fill="#D8D8D8"/><path d="M114.435 111.487c-.56.642-.69 1.199-.235 1.942l.235-1.942Z" fill="#7A7A7A"/><path d="M117.525 2.605c-1.78-.562-3.56-1.128-5.34-1.69-5.715.693-10.005 1.012-12.555 6.823 3.98.799 7.245-1.553 11.195-1.411 2.65-.845 4.98-1.34 6.695-3.717l.005-.005Z" fill="#C3C3C3"/><path d="M143.34 586.98c-.895.374-1.775.759-2.665 1.118-1.91 3.737-3.855 6.954-4.675 11.228-.4 2.088-.23 3.944 2.23 4.546 1.955-.152 3.75.192 5.555-.753-1.6-3.596-.1-6.965-.24-10.682-.07-1.876-.205-3.601-.2-5.457h-.005Z" fill="#BFBFBF"/><path d="M92.32 34.113c1.34 1.967 1.175 3.585-.525 5.219-2.36 2.27-4.835 4.425-7.185 6.615-.94.88-.68 1.426.04 2.27 2.22-.985 4.37-1.956 6.61-2.953-1.33-1.047-.325-1.86.535-2.286 4.57-2.25 5.21-5.406 5.26-10.12-2.075-1.036-3.41-.652-4.73 1.255h-.005Z" fill="#C5C5C5"/><path d="M86.555 405.71c3.13-.227 6.06-.293 8.98-1.507 0-2.321-.73-4.369-1.455-6.544-2.39-.041-4.19.976-6.245 2.094-.64.89-1.48 1.411-2.54 1.613-1.94.369-3.615 1.371-2.9 3.51.71 2.139 2.57 1.345 4.165.834h-.005Z" fill="#888"/><path d="M84.9 69c-4.345 1.269-8.67 2.305-12.66 4.546-2.095 1.173-3.445 3.06-2.98 5.482.395 2.069 2.115 1.558 3.57 1.017 2.87-2.544 6.06-4.416 9.295-6.393.4-.243.8-.43 1.175-.718 1.42-1.103 2.325-2.074 1.6-3.93V69Z" fill="#D3D3D3"/><path d="M119.315 101.888c-3.58-4.107-7.21-7.47-11.44-11.076-1.475-1.26-2.91-2.731-4.93-1.138-1.735 3.095.6 5.174 2.79 6.393 4.535 2.523 6.32 5.71 9.29 9.477.475.602 1.105.658 1.815.663 1.46-1.153 2.045-2.549 2.475-4.314v-.005Z" fill="#979797"/><path d="M10.27 228.603c1.93-.602 3.725 1.593 4.61-1.265.66-2.139.595-4.809-1.285-6.579-1.88-1.77-3.82-2.175-5.81-.238 1.425 2.539 1.12 5.482 2.485 8.087v-.005Z" fill="#E3E3E3"/><path d="M133.8 535.369c-.63.333-1.255.677-1.89 1.001-1.62 2.332-2.395 4.734-3.225 7.48-.875 2.908.58 3.859 3.375 3.035 2.11-.092 4.41.035 4.52-2.716.065-1.624-.87-3.601-.88-5.301-.39-1.4-.835-2.518-1.905-3.499h.005Z" fill="#7E7E7E"/><path d="M67.095 592.361c.63-1.461-.025-2.984.825-4.39 1.845-.692 2.57-1.623 1.765-3.55-.885.334-1.805.642-2.665 1.017-.66 1.451-.985 2.179-2.825 2.083-5.305-.273-8.75 1.356-11.625 6.019 2.305-.071 4.01-1.902 5.965-2.716 3.5-1.462 5.935-1.108 8.56 1.537Z" fill="#AEAEAE"/><path d="M70.36 349.304c4.41-.399 8.335-.819 12.555-1.224-.135-1.421-.255-2.842-.385-4.258-.245-.05-.5-.116-.73-.182-3.88.617-7.49 1.103-11.295 2.256-4.675 1.421-9.03 1.082-14.125 1.674-1.87.217-4.37.248-4.345 3.201 1.695.076-2.26-.091.84.041 3.1.131 13.115-.466 17.485-1.503v-.005Z" fill="#8A8A8A"/><path d="M9.17 261.446c1.76-4.8-.165-7.708-3.05-11.491-2.305 5.432-2.74 9.003 2.365 12.604.18-.385.54-.724.685-1.113Z" fill="#E3E3E3"/><path d="M92.02 153.16c1.23-.121 2.45-.202 3.675-.308 1.255-4.081 3.96-7.394 5.09-11.516-.275-.364-.545-.784-.825-1.107-2.04-1.103-2.465.9-2.905 2.134-1.445 4.056-2.885 7.288-5.035 10.803v-.006Z" fill="#CFCFCF"/><path d="M79.585 52.198c-.62-.136-1.45-.41-2.085-.263-1.59.374-3.055.435-3.885-1.143-.955-1.82-.01-3.04 1.26-4.39 2.205-2.336 4.365-3.899 4.26-7.424a479.669 479.669 0 0 1-5.54 6.726c-1.935 2.312-3.83 4.866-1.32 7.587 2.505 2.72 4.94.784 7.31-1.093Z" fill="#C1C1C1"/><path d="M98.12 69.363c.725-1.077 1.445-2.16 2.17-3.237-2.42-1.092-4.195-.303-6.465.77-2.295-1.21-3.895-.35-5.775 1.213-1.88 1.563-3.535 3.348-5.635 4.638 0 0 .01 0 0-.005-.615-.612-1.315 1.057-1.245 1.658.04.354.52.496.95.324 5.32-2.134 10.18-4.941 15.995-5.366l.005.005Z" fill="#9E9E9E"/><path d="M56.655 641.444c1.855-.131 3.71-.217 5.565-.329.795-1.426 1.82-2.473 3.09-3.489 1.27-1.017 2.06-1.872 1.14-3.465l-1.935.243c-3.03 2.387-6.595 3.009-7.865 7.035l.005.005Z" fill="#C8C8C8"/><path d="M78.73 235.501c-.435-2.443-.8-2.792-3.415-2.847-4.37-.091-8.545-1.649-12.95-2.772-2.575-.657-5.105-1.648-7.665-.07 8.13 1.714 16.22 3.474 23.98 6.584 0-.288.1-.607.05-.89v-.005Z" fill="#858585"/><path d="M116.84 106.197c-.2-.314-.365-.642-.57-.951-1.31-.713-2.895-.506-3.54.84-1.78 3.692-4.14 6.691-5.41 10.549.825 1.401 1.775 2.347 3.28 2.964l3.6-6.17c.08-.647.155-1.295.235-1.942 1.445-1.568 2.26-3.131 2.405-5.29Z" fill="#CDCDCD"/><path d="M125.205 496.75c-.9.465-1.805.92-2.715 1.37-1.84 2.555-1.55 5.038-1.66 8.118-.035.93.955 1.446 1.855 1.138 4.155-.511 4.74-2.792 4.45-6.666-.645-1.32-1.285-2.64-1.93-3.96Z" fill="#7E7E7E"/><path d="M102.805 21.403c.565-1.643 1.16-3.14 2.29-4.47.84-.547 1.685-1.093 2.525-1.64l-.735-1.076c-5.08 2.948-8.275 7.91-13.88 10.003 1.1 1.022 1.82.885 3.17 1.078 2.205-1.417 4.09-3.116 6.63-3.89v-.005Z" fill="#A6A6A6"/><path d="M15.685 202.784c2.195 4.572-.77 6.454-2.975 10.222.02.323.035.647.06.976 3.435-2.736 6.2-4.992 7.27-9.493.38-1.598.39-3.126-1.065-4.168-1.105.81-2.19 1.644-3.285 2.463h-.005Z" fill="#C6C6C6"/><path d="M90 160.529c-2.515 3.839-3.575 6.934-.99 11.036 1.195-2.807 2.49-5.564 3.765-8.335-.595-1.796-.475-3.186-2.775-2.701Z" fill="#D1D1D1"/><path d="M82.415 72.752c4.25-1.133 7.39-4.188 11.41-5.852l-.285-3.808c-3.08 1.745-6.035 3.47-8.635 5.912-.83 1.25-1.665 2.494-2.49 3.748Z" fill="#C3C3C3"/><path d="M51.955 594.258c-3.24-.759-4.785-2.938-6.305-5.765-1.625-3.025-2.485-6.029-5.09-8.366 1.325 4.567 3.15 8.623 5.215 12.953 1.465 3.08 3.635 3.651 6.18 1.178Z" fill="#AEAEAE"/><path d="M94.445 31.594c3.265-.526 6.405-1.3 9.51-2.448-1.585-1.826-.35-3.874-1.335-5.917-2.73 2.787-5.455 5.573-8.18 8.365h.005Z" fill="#B4B4B4"/><path d="M45.08 133.785c3.845-1.011 7.25-1.613 11.085-.263.105-1.79.205-3.58.315-5.371-4.2 2.645-9.05 2.605-13.395 4.876-.055.03-.045.318.03.394.075.076.165.283.305.299.53.06 1.12.03 1.66.065Z" fill="#AAA"/><path d="M42.035 460.989c2.18 3.054 5.01 4.157 8.46 5.36 2.105.294 5.08 1.528 5.28-1.663.16-2.645-2.865-2.448-4.875-2.539-3.08-.147-5.685-1.098-8.145-2.979-.23.025-.45.071-.68.096-.015.576-.025 1.153-.04 1.73v-.005Z" fill="#A4A4A4"/><path d="M118.54 82.588c1.605 1.78 3.205 3.566 4.805 5.351.875-.789.965-1.72 1.195-2.832-1.49-2.018-2.985-4.036-4.48-6.054-.375-2.007-1.08-2.978-3.21-2.67-.44.278-.735.612-.955 1.087-.005 2.276 1.04 3.637 2.65 5.114l-.005.004Z" fill="#9C9C9C"/><path d="M77.18 82.27c.04 2.746-1.035 4.577-2.895 6.504 4.005-1.82 7.625-3.298 6.86-8.3a560.15 560.15 0 0 1-3.965 1.79v.006Z" fill="#C5C5C5"/><path d="M129.19 67.993c-2.01-2.246-3.315-4.774-6.045-6.226 1.235 3.586 2.015 6.484 5.805 7.885.08-.557.16-1.108.245-1.664l-.005.005Z" fill="#979797"/><path d="M83.145 193.898c-.755.243-1.075 1.078-1.83 1.315-.87 2.701-1.325 4.916-4.24 5.862-.315 1.831.445 2.635 2.09 3.257.925.121 1.83.308 2.765.334 1.01-3.54.84-7.141 1.22-10.768h-.005Z" fill="#D1D1D1"/><path d="M81.925 204.666c-.425-.936-1.02-1.492-1.96-1.846-2.055.106-3.28 1.315-5.51 1.082-.995-.106-1.92.824-1.43 2.064 2.715 1.188 5.505 2.366 8.255 3.54l.645-4.84Z" fill="#8C8C8C"/><path d="M5.585 244.888c-3.785 1.274-3.34-1.674-4.79-4.299-.135.951-.425 1.897-.48 2.868-.095 1.775-.445 3.585 1.205 4.759 1.65 1.173 3.015-.061 4.275-1.255-.055-.703-.145-1.38-.215-2.073h.005Z" fill="#C6C6C6"/><path d="M17.275 360.006c-.68-.885-1.365-1.77-2.045-2.655-.225.678-.455 1.355-.685 2.033 2.825 4.799 4.925 6.453 10.345 4.617-3.435-.268-5.965-.657-7.615-3.995Z" fill="#CECECE"/><path d="M123.415 43.337c3.34 1.326 4.185 5.083 7.7 6.115-.235-1.24-.5-2.478-.755-3.712-2.05-2.17-3.83-3.52-6.89-2.863-.02.157-.04.309-.055.466v-.006Z" fill="#9E9E9E"/><path d="M67.78 620.324c-.6.921-1.185 1.866-1.78 2.797.385 3.085.76 6.165 1.175 9.245.32-.046.66.03.975-.035 1.07-.228 1.69-.779 2.1-1.791.05-2.412.235-4.562-.245-6.999-.28-1.421-.685-2.701-2.225-3.222v.005Z" fill="#BCBCBC"/><path d="M82.12 74.724c.1-.657.2-1.32.305-1.977-4.085 1.542-7.13 3.59-9.58 7.287 3.3-1.466 6.37-3.145 9.275-5.31Z" fill="#C3C3C3"/><path d="M6.895 249.748c2.885-.172 4.195 1.244 5.11 3.899 2.36 3.045 2.695 1.219 3.39-1.557-2.73-2.494-4.935-4.39-8.5-2.337v-.005Z" fill="#E3E3E3"/><path d="M90 160.529c.925.895 1.85 1.801 2.775 2.701.37-1.234.735-2.463 1.105-3.697-.47-1.492-1.475-2.16-2.785-2.878-2.5.723-1.67 1.791-1.005 3.753l-.09.121Z" fill="#949494"/><path d="M80.235 182.984c2.09.825 4.19 1.644 6.28 2.473.095-.308.055-.526.175-.849.4-1.042.815-2.064.795-3.222-3.15.213-5.805-2.478-7.25 1.598Z" fill="#898989"/><path d="M16.33 320.745c-1.605 2.195.365 3.353.61 5.629 1.755-1.897 1.29-3.54.26-5.72-.29.035-.58.066-.87.091Z" fill="#C9C9C9"/><path d="M59.545 659.07c.015.293.035.586.05.88-.63 1.931-.25 3.054 1.705 3.788 5.045 1.886 9.06 5.674 13.84 8.031 1.895.935 1.72 2.529 1.03 4.172-3.785 8.987-6.365 18.177-7.75 27.71-.425 2.913-1.02 5.922 1.845 7.404 2.865 1.487 5.975 2.231 8.965-.151 4.4-3.51 5.125-9.711 2.05-14.748-4.975-8.153-4.335-11.162 4.24-15.516-.195-.41-.505-1.3-.9-1.442-4.875-1.75-5.425-4.066-4.375-8.936.7-3.247-2.465-4.198-5.105-4.81-3.4-.789-6.68-1.32-9.605-3.424-1.465-1.052-2.645-2.301-3.325-4.01-1.21-.349-1.73.419-2.66 1.052h-.005Z" fill="#C2C2C2"/><path d="M69.175 761.782c.505-1.017 1.045-2.018 1.55-3.025-.705-1.107-1.81-1.537-2.95-1.987-3.55-1.406-5.4-3.662-4.28-7.536 1.83-6.312 2.17-12.704 3.845-19.036 2.46-9.311 7.255-12.664 16.485-9.382.48.172.865.243 1.34.304.22.025.39.02.64.015.25 0 .61-.061.885-.071 1.545-2.129 1.26-3.697-.44-5.639-5.1.875-10.4-.248-15.445 0-5.54.268-8.01 3.024-10.29 7.788-1.615 1.002-2.54 2.479-3.215 4.198a165.357 165.357 0 0 0-5.22 15.456c-.565 1.987-.905 3.96.52 5.75-1.025 6.762-4.785 9.23-10.885 11.309-2.74 5.441-2.06 11.429 1.41 16.35.955-2.483.38-5.087.25-7.581-.17-3.317.805-5.118 4.19-5.174 2.76-.045 4.395-.606 5.81-3.186 1.335-2.438 3.64-2.877 5.645-1.117 3.29 2.892 6.065 2.887 10.155 2.569v-.005Z" fill="#B8B8B8"/><path d="M53.275 723.744c4.785-9.063 5.565-15.273-.845-23.132-2.77-3.399-4.46-2.919-6.225.47-3.85 7.389-7.165 15.698-8.59 24.129-.495 2.933.51 5.932.735 8.825.14 1.786 1.375 2.726 3.2 2.387 5.465-1.021 8.16-4.126 9.245-9.619-.1-.121-.21-.227-.325-.334-1.75-1.669-5.105.582-5.39-2.705-.35-3.981.705-8.34 2.69-11.855.985-1.75 2.15-1.093 2.935.404 1.04 1.993.82 4.117.64 6.343-.18 2.225-.16 3.949 1.935 5.082l-.005.005ZM43.13 776.276c-.485-5.452-.96-10.898-1.415-16.355 0-1.872.06-3.824.065-5.685 0-1.694-.44-3.217-2.065-3.844-1.625-.627-2.955.101-3.98 1.386-1.405 1.76-2.485 3.601-2.275 5.968.93 10.514 3.49 20.068 7.705 29.824.43 1.001 1.35 2.073 2.655 2.088.475-4.491-.44-8.885-.695-13.382h.005Z" fill="#CECECE"/><path d="M53.29 723.77c.06-2.382.195-5.134.605-7.405.68-3.742-1.125-6.514-2.69-9.513-1.215-2.336-3.065-1.31-4.145.612-2.85 5.083-3.95 10.99-5.075 16.771-.39 1.993.725 3.672 2.31 4.708 1.59 1.032 2.755.016 4.105-.824.8-.496 1.575-.885 2.395-1.315.83-1.016 1.65-2.008 2.495-3.039v.005Z" fill="#D7D7D7"/><path d="M52.59 748.637a2121.417 2121.417 0 0 1 7.915-25.398c-1.8-1.69-2.98.177-3.755 1.416-3.675 5.892-6.79 11.394-9.455 17.605-1 2.336-2.07 5.017-.355 7.09 1.83 2.211 3.555-.763 5.65-.713Z" fill="#D2D2D2"/><path d="M92.61 690.932c.47-3.541-1.845-4.684-4.135-6.894-2.65-.455-4.975-.45-6.91 1.715-1.73 1.932-2.205 3.621-.265 5.811 2.355 2.66 4.05 5.77 8.1 5.821 2.675-1.487 2.87-3.611 3.21-6.458v.005Z" fill="#B8B8B8"/><path d="M60.865 703.535c.145 1.962.865 4.647 2.925 4.926 2.37.323 2.275-2.018 2.62-3.556 1.17-5.194 2.135-10.145 3.21-15.344.24-1.168.635-2.473-.855-2.989-1.215-.42-2.315.339-3.035 1.31-3.55 4.799-3.7 9.978-4.865 15.653Z" fill="#CECECE"/><path d="M51.21 793.699c.2-1.016.4-2.038.595-3.059-2.14-5.928-1.635-11.638-1.4-17.828.07-1.861 1.115-4.284-1.385-4.795-2.11-.435-3.125 2.145-3.9 3.809-.115.248-.235.602-.205.92.66 7.733 1.92 14.434 6.295 20.953Z" fill="#CCC"/><path d="M53.25 766.844c5.77-2.195 7.95-.076 9.5 5.877.765 2.938 1.585 6.286 4.725 7.748 1.975.92 3.33.071 4.73-1.462 1.265-1.38 1.57-2.625-.07-3.869-.585 1.74-1.625 3.101-3.58 2.615-1.955-.491-2.56-2.21-2.78-4.021-.465-3.858-1.705-7.009-4.78-9.295-4.335-3.217-5.715-2.21-7.745 2.407Zm39.365-75.917c-1.955 1.785-2.35 4.056-3.205 6.468-.205 1.249-.42 2.498-.62 3.743 1.28-1.72 2.695-3.551 4.1-5.109 1.765-1.967 1.485-3.337-.275-5.102Zm-6.355 24.508.435 5.624c.715 1.259 1.54 1.279 2.775.703-.17-2.19-.345-4.385-.515-6.575l-2.695.243v.005Z" fill="#C2C2C2"/><path d="M26.34 275.668c-3.015 1.765-2.205 4.885-1.99 7.712.235 3.075.085 4.886-3.02 5.654-1.015.253-2.33.284-2.215 1.766.115 1.476 1.305 2.341 2.485 2.822 3.88 1.588 7.86 1.613 11.7 3.236 3.59 1.518 7.455 2.58 11.11 3.955 2.885 1.088 4.585.602 5.725-2.427 1.14-3.03.45-5.164-2.21-7-.52-.359-1.025-.9-1.48-1.355-.955-2.848-2.705-2.488-5.115-3.429-5.235-2.104-9.165-4.243-12.17-9.235-.615-1.027-1.855-1.143-2.815-1.699h-.005Z" fill="#E8E8E8"/><path d="M51.695 315.268c-3.13.253-6.28.263-9.42.379-1.27 1.219-.91 2.696-.165 4.066.82 1.512 2.155 1.77 3.63 1.841 11.315.536 22.26.202 33.49-1.052.185-1.77.43-3.53.185-5.29-1.495-1.001-4.595-.733-5.81-.015-3.765 2.235-6.575 1.982-10.595 1.901 2.27-.075 3.97.375 6.34-.096.995-.197 2.1-.662 1.45-2.119-6.335.187-12.74.309-19.105.385Z" fill="#9A9A9A"/><path d="M41.3 287.011c-.185.435-.455.891-.66 1.326 1.93.571 3.865 1.127 5.795 1.694.34-.091.655-.152.995-.243 4.59-1.214 8.675.314 13.35.298 3.205-.01 6.08-.096 9.45.612 2.625.552 5.24-.536 6.01-3.459-5.46-2.165-11.1-2.61-16.935-2.913-4.23 1.274-8.16.425-12.39-.248-2.93-.465-4.43.152-5.615 2.928v.005Z" fill="#A0A0A0"/><path d="M32.355 272.83c5.84 1.922 6.745 7.192 9.095 12.335 1.47-.505 2.905-.814 4.155-1.795-.36-.779-.79-1.644-1-2.458-2.025-7.824-4.12-10.555-12.25-8.082Z" fill="#CACACA"/><path d="M70.185 313.644c1.375-.288 2.835-1.36 2.15-3.53-.585-1.846-1.09-4.739-3.84-4.279-2.2.365-4.245 1.3-4.08 4.299.115 2.054 3.1 4.077 5.77 3.515v-.005Z" fill="#EDEDED"/><path d="M76.255 287.234c-4.6 3.652-9.9 1.861-15.135 1.866-4.985.01-9.195-1.35-13.51.622 6.965 3.136 22.34 4.886 27.275 3.227 3.715-1.244.85-.283.85-.288 1.36-1.947.585-3.586.52-5.432v.005Z" fill="#909090"/><path d="M70.81 314.878c-5 2.22-10.455 1.649-15.705 2.918 4.695-.01 9.455.263 14.125.395 3.795.111 6.405-3.277 10.21-2.984-2.85-1.204-5.66-.642-8.63-.334v.005Z" fill="#B7B7B7"/><path d="M45.6 283.375c-1.565.364-2.935.673-4.155 1.791-.045.617-.09 1.229-.14 1.846 3.44-2.17 6.735-2.013 10.645-1.508 2.715.354 5.015.471 7.355-1.168-4.565-.329-9.135-.662-13.705-.961Z" fill="#888"/><path d="M127.41 540.007c-3.61.895-7.17 1.851-10.77 2.847-3.125.865-6.02 1.057-9.175.212-2.72.4-5.43.764-8.155 1.133-1.435.683-2.76.607-4.155-.02-1.965-.88-3.18-.491-4.57 1.067-.74 3.176-.675 5.295 2.375 6.944 7.845 1.386 15.095-.076 22.83-1.391.21-.632-2.265-.48.02-.839 4.845-.759 9.085-1.497 12.41-5.685 1.34-1.684 1.555-3.388-.81-4.274v.006Z" fill="#999"/><path d="M85.555 530.155c5.28-1.664 10.33-2.979 15.575-4.957 1.825-.688 2.74-2.883 1.89-4.779-.85-1.897-2.575-1.406-4.225-1.249-3.735.344-6.82 2.149-10.405 3.009-1.675.399-3.1.693-4.945.394-1.845-.298-3.875-1.977-4.535 1.078-.66 3.054.725 5.871 4.105 6.519.505.096 1.92-.015 2.54-.005v-.01Z" fill="#DCDCDC"/><path d="M89.865 505.808c-2.15 1.026-4.29.844-6.61.895-1.58 2.488-1.405 4.086 1.31 5.432 3.48 1.426 6.5 1.355 10.055.222 5.63-1.512 11.595-1.537 17.17-3.196 4.555-1.355 5.285-4.441 2.845-8.32-3.78-.141-6.905 1.624-10.505 2.479-3.005.708-5.78 1.385-8.855.728-2.185.126-3.97-.177-5.41 1.76Z" fill="#9F9F9F"/><path d="M114.37 501.929c.235 4.531-2.05 6.413-6.17 7.257-4.71.966-9.11 1.639-13.79 2.458-.05.01-.11.263-.065.359.05.101.175.253.275.339 9.635-.541 18.84-2.114 28.07-4.966.105-3.359 1.44-6.064-.195-9.261l-2.695-.03c-1.69 1.816-4.22 1.452-5.425 3.839l-.005.005Z" fill="#929292"/><path d="M92.25 545.276c2.44-.591 4.765.167 7.08-1.087-3.515-.096-3.73-2.327-5.975-4.643-3.41-3.515-9.945-5.947-14.67-5.553-1.98.167-1.4 1.492-2.36 2.504.34.677.745 1.284 1.015 1.947.625 1.522 1.7 1.861 3.175 1.608 3.635-.627 5.785.415 8.06 3.262 1 1.249 1.995 2.048 3.675 1.957v.005Z" fill="#B9B9B9"/><path d="M68.41 530.756c-3.015-1.401-5.06-3.449-8.56-2.771 1.03 3.009 2.8 5.366 4.775 7.809 2.41 3.651 4.64 4.329 8.21 1.679.9-.314 1.795-.622 2.695-.926-2.13-1.75-4.24-3.53-6.38-5.27-.235-.192-.52-.303-.735-.521h-.005Z" fill="#B7B7B7"/><path d="M121.57 589.428c.79-.85 1.485-1.194 2.665-1.295 7.79-.672 8.695-1.466 9.925-9.31-11.05 3.029-22.24 2.564-33.585 2.69-1.175-.976-2.215-1.36-3.715-.941-.005 2.544.185 4.754-.795 7.162 4.5 2.19 9.08 1.795 13.94 2.119 2.135.141 4.15-.147 6.195.642.665.89 1.575 1.214 2.66 1.143 1.5-.096 2.335-.753 2.705-2.21h.005Z" fill="#999"/><path d="M72.835 537.473c-3.01.45-5.33-1.118-8.225-1.689-2.325-.349-3.66-.39-2.03 2.447 1.05 1.826 2.6 3.586 5.02 3.965 1.465.228 2.94 1.143 2.94 2.797 0 1.654-1.45 1.957-2.575 2.731-3.365 2.296-6.175 2.731-10.075 1.442-2.335-.774-4.64-1.032-7.145-.794-2.51.242-4.225-.789-5.685-2.823-1.195-1.658-2.205-3.145-4.105-4.015.13.425.195.885.325 1.31 3.19 10.686 3.025 10.681 14.37 11.111 2.725.101 6.535-1.057 8.225 2.438-.055-4.441 1.965-6.914 6.06-7.976 3.85-.996 5.015-2.336 3.96-6.21-.42-1.543-.8-3.146-1.065-4.734h.005Z" fill="silver"/><path d="M63.925 558.173v1.8c2.475 5.462 5.055 10.434 9.33 14.682 2.855-.465 5.43.602 8.265.754.195-.385.19-.713-.12-1.032-3.855-3.909-3.99-7.869-2.9-13.053-1.38-.794-2.95-.344-4.095.389-3.65 2.347-5.58 1.608-7.82-1.937-.635-1.006-1.23-1.987-2.66-1.603Z" fill="#B2B2B2"/><path d="M127.41 539.996c-.645 4.112-2.885 6.54-6.7 7.951-3.64 1.35-7.415 1.75-11.05 3.044 2.045-.081 4.09-.131 6.14-.197 5.09-1.042 10.195-2.038 15.295-3.045.325-.293.645-.571.97-.869-1.825-.112-1.855-1.057-1.415-2.559.79-2.691 1.26-5.169 1.265-7.951-2.79-.055-2.43 2.453-4.505 3.626Z" fill="#8E8E8E"/><path d="M81.4 574.372c.01.293 0 .566.01.85 3.33.966 6.625-.218 9.975.627.015.242.035.48.05.728 1.155 2.746 2.25 4.643 5.405 5.017 1.17.142 2.54-.142 3.735-.071-1.39-7.343-6.625-8.886-13.375-8.35-2.055.162-3.81.845-5.795 1.199H81.4Z" fill="#BABABA"/><path d="M100.38 566.002c1.52-1.088 3.355-.936 4.35-2.696-1.28-1.153-2.705-.713-4.14-.349-3.515.89-6.595 1.745-10.195 1.285-.905-.116-1.925-.061-2.11 1.006-.23 1.29.765 1.72 1.87 1.801 3.21.232 6.225-.167 9.325-1.007.3-.015.6-.025.905-.04h-.005Z" fill="#E2E2E2"/><path d="M63.92 558.173c1.53 1.032 2.1 2.756 3.025 4.223 2.325 3.692 4.4 3.778 7.71 1.062 1.115-.915 2.33-1.917 3.835-2.134-.57-.329-1.75-1.032-2.335-.875-5.35 1.436-8.385-.536-12.245-4.066.005.596.005 1.178 0 1.785l.01.005Z" fill="#C7C7C7"/><path d="M52.13 350.771c1.545-1.062 3.32-1.28 5.105-1.401 6.72-.45 13.455-1.654 20.03-2.508 2.34-.304 2.95-1.841 4.54-3.222-.95-.238-1.87-.455-2.8-.688-2.94 1.371-5.55 1.522-8.795 1.396-5.255-.207-10.5.314-15.675 1.457-.285.06-.59.01-.875.07-2.675.562-5.345 1.164-8.015 1.735-1.02 1.335-.845 2.377.15 3.672 2.115-.167 4.215-.339 6.34-.506l-.005-.005Z" fill="#A0A0A0"/><path d="M69.19 339.26c.8 2.468 2.695 2.741 4.92 2.817 1.73.061 2.615-.779 2.345-2.498-.35-2.215-1.195-4.805-3.795-4.855-2.6-.046-2.815 2.544-3.47 4.531v.005Z" fill="#ECECEC"/><path d="M54.535 345.81c2.24-.101 4.555-.122 6.745-.536 3.75-.713 6.985.526 10.675.92 3.015.319 5.15-.941 7.045-3.232-8.24.774-16.4.744-24.46 2.848h-.005Z" fill="#CACACA"/><path d="M69.08 630.55c-.34.567-.595 1.204-.925 1.796 2.355 2.397 4.44 2.736 7.42 1.001 2.22-1.295 4.565-2.999 6.8-4.375-.95 3.075-3.655 4.936-3.245 8.365 2.385-1.492 3.44-3.914 5.445-5.795.65-1.017.41-2.509 2.005-2.458 1.16.04 1.26 1.335 1.635 2.281 1.46 3.656 3.56 5.042 7.485 5.846 4.935 1.011 9.235 1.745 14.075 4.299 4.835 2.554 9.74 3.146 14.77-.192 1.725-1.148 3.92-1.356 6.07-1.108 1.395.162 2.665.258 3.45-1.163-6.085-1.254-12.19-2.519-18.28-3.778-.535-.642-.91-1.361-1.58-1.871-3.455-1.335-6.615-3.09-9.745-5.078-3.265-.819-5.66-2.584-8.185-4.764-4.07-1.33-6.475-4.496-9.615-7.237-3.63.369-5.83 2.857-8.82 4.678-.39.237-.725.495-1.095.753-1.98 2.443-4.58 4.198-6.64 6.565-.33.769-.585 1.522-1.02 2.245l-.005-.01Z" fill="#D0D0D0"/><path d="M107.16 677.489c1.66-.749 3.625-.106 4.835-1.73 2.95-3.965 6.515-6.494 10.91-8.694-2.245-.844-3.66-1.375-5.885-.03-1.18.713-2.555-.121-3.815-.526-6.3-2.003-11.435-5.194-16.4-9.554-2.215-1.507-4.115-2.64-5.725-5.001-1.58-2.312-1.635-5.139-5.215-5.139-2.31.87-3.31 2.291-3.145 4.86.07 1.113 1.87 1.133 1.105 2.504 1.59 6.752 5.92 10.696 10.78 15.243 1.26 3.373 2.8 4.896 6.165 6.479 2.25 1.057 3.615 3.773 6.395 1.573l-.005.015Z" fill="#8E8E8E"/><path d="M89.94 474.785c-1.13-.07-2.29-.151-3.405-.222 2.63-1.219 5.605-1.679 8.365-1.755 3.6-.101 6.38-1.148 9.44-2.741 2.69-1.401 3.255-3.161 2.51-6.004-7.75 1.629-15.28 2.671-23.175 3.849-3.97.592-7.205.258-10.535-2.513-2.095-1.745-5.05-2.924-7.55-4.132-.28-.01-.53-.005-.8-.031-1.245-.738-2.12-.779-2.995.481.005.627.045 1.239.615 1.613 4.67 3.06 7.825 6.165 9.77 11.582.31.865 1.35 1.072 2.3 1.062 5.205-.03 10.355.202 15.455-1.189h.005Z" fill="#A1A1A1"/><path d="m83.09 439.929-2.635-.121c-.03-.218-.055-.44-.085-.658 3.16-.526 6.23-1.092 9.44-1.345 3.495-.273 5.53-1.487 6.525-5.002-2.115.374-4.23.754-6.345 1.128-7.59.708-15.13 1.8-22.69 2.756-.89.026-1.78.026-2.665.061-.35.015-.7.081-1.05.106-.995 1.32-.83 2.367.11 3.667l3.915 1.73c5.21-.617 10.395-.941 15.48-2.327v.005Z" fill="#9E9E9E"/><path d="M99.185 453.933c.08.89.055 1.998.135 2.812.22 2.367 1.175 3.773 3.205 4.83.88.46 1.805.607 2.45-.288 1.235-1.71.85-3.5.125-5.361-.34-.875-.56-1.922-.965-2.691-.865-1.623-1.5-4.622-3.695-4.121-2.37.536-1 3.14-1.255 4.819Z" fill="#E9E9E9"/><path d="M89.875 505.813c1.795-.349 3.645-.612 5.445-1.022.445-.101.675-.526.9-.885-5.47-1.684-9.895-3.884-14.585-7.363-3.095-2.297-6.45-3.9-10.515-3.743-1.185.046-2.755-.046-2.82-1.613-.2-4.759-3.045-8.446-1.06-13.175-.815-4.395-2.73-4.977-6.785-3.647-2.13 3.667-2.725 7.162-2.285 11.37-.755-2.868.49-5.523-1.175-8.178-1.15-.895-2.455-1.158-3.71-.481-2.82 1.528-5.795 2.089-8.685 3.237 6.505 12.042 12.45 20.361 27.02 17.555 6.18-1.189 8.815 2.806 13.32 5.714 1.74 1.123 2.915 1.963 4.945 2.231h-.01Z" fill="#CCC"/><path d="M121.265 486.008c-.94-3.596-1.52-5.639-3.075-9.453-.725-1.775-1.67-6.514-2.965-8.562-4.755 1.28-8.51 5.037-13.45 5.715 3.55 2.529 6.335 5.083 8.35 9.078.735 1.452.93 2.575.46 4.324-.745 2.762.33 5.432 2.275 7.496 1.525 1.613 3.645 2.675 5.68 1.395 1.815-1.143.78-3.307.285-5.072-.495-1.76 1.725-3.434 2.44-4.921Z" fill="#E2E2E2"/><path d="M96.21 503.896c-.295.304-.595.607-.89.91 5.02 1.027 9.37-.622 14.205-1.724 1.675-.385 3.205-.739 4.85-1.158 2.415-.83 4.4-1.234 5.415-3.834-8.07 1.168-15.545 4.476-23.58 5.806Z" fill="#C2C2C2"/><path d="M75.885 491.07c3.165-.733 6.145-1.345 9.31-2.179 1-.263 2.01-1.032 1.655-2.251-.4-1.365-1.62-.976-2.615-.784-3.12.607-6.205 1.335-9.205 2.018-1.32.299-3.705-.106-3.55 1.684.19 2.17 2.945 1.234 4.41 1.507l-.005.005Z" fill="#E9E9E9"/><path d="M52.7 380.494c-.705-.273-1.36-.587-2.035-.87-1.965-1.816-3.085-4.016-4.8-6.104-1.71-2.084-3.255-3.379-5.905-1.912-.155 3.216-1.66 5.781-.115 8.871.135 2.129-1.52 3.58-2.43 5.194-1.66 2.953-.94 4.395 2.54 4.486 5.265.136 10.985.217 15.78 2.533 3.485 1.685 4.515-.581 5.62-3.272 1.205-2.938 1.055-5.108-1.85-6.726-1.975-1.098-4.92-.607-6.805-2.205v.005Z" fill="#E4E4E4"/><path d="M86.555 405.705c-1-.197-2.25.253-2.57-1.062-.25-1.016.635-1.416 1.54-1.795 1.505-.632 2.675-1.168 2.3-3.095-5.27.162-9.99 2.589-15.32 1.886-4.995 1.558-10.09 2.089-15.25 2.868-.86.652-1.26 1.512-.985 2.594.275 1.088 1.075 1.603 2.075 1.912 9.515-.536 18.885-1.396 28.215-3.303l-.005-.005Z" fill="#999"/><path d="M39.86 380.474c.45-2.994 1.61-5.392.215-8.31-.33-.202-.805-.49-1.195-.319-1.83.8-1.715 2.544-2.225 4.183-.73 2.352-1.205 4.253-3.175 5.786-.49 1.269-.98 2.554-1.47 3.828 3.29-.794 5.11-3.378 7.85-5.163v-.005Z" fill="#CACACA"/><path d="M47.005 226.777c-2.66-1.588-5.435-2.756-7.53-5.118-.89 4.633.69 8.173 4.585 10.489 3.51 2.089 5.38-.334 7.67-2.665-1.59-.961-3.13-1.755-4.72-2.706h-.005Z" fill="#E9E9E9"/><path d="M50.685 253.187c-.265.789-.66 1.785.43 2.104 5.715 1.664 10.535 3.727 16.31 1.199-3.83-1.882-7.95-1.998-12.04-2.969-1.565-.111-3.125-.238-4.695-.329l-.005-.005Z" fill="#ACACAC"/><path d="M79.59 849.352c-1.195-2.018-2.43-4.178-3.635-6.246-3.41-.147-5.37-1.275-7.355-4.183-.865-1.264-2.475-2.372-3.72-3.368.82 4.203 3.12 6.382 6.29 9.134 2.3 1.997 4.46 2.625 5.41 6.155.38 1.416 2.435-.228 3.015-1.492h-.005Z" fill="#A5A5A5"/><path d="M41.745 165.01c-.625 1.376-1.25 2.767-1.865 4.137 1.6 3.829 1.59 7.48 1.955 11.653.145 1.669.05 3.464-1.6 4.501-2.695 2.898-5.74 5.214-7.915 8.572 3.095 1.902 4.665 2.332 7.025-1.047 1.115-1.593 3.535-2.625 5.51-3.125 2.165-.83 4.28-1.012 6.09-2.554 1.07-1.588 1.875-2.524 3.17-.375.88 1.462 1.185 3.394 1.825 5.139 1.295 3.525 3.815 4.577 7.405 3.692-1.715-6.12-6.21-10.414-8.72-16.149.105-3.585-2.41-4.809-4.32-7.399-1.445-1.957-2.155-3.429-1.52-5.856-1.885-3.197-4.03-1.821-7.035-1.184l-.005-.005Z" fill="#DADADA"/><path d="M73.015 205.971c1.08-.724 2.27-.476 3.375-.182 2.63.702 3.29-.562 3.57-2.969a400.84 400.84 0 0 1-2.885-1.745 332.816 332.816 0 0 0-10.055-2.979c-3-.839-5.83-2.154-8.855-2.918-1.795-.455-3.255-.592-4.69.85-1.43 1.441-1.54 3.221-.9 5.128 6.625 2.63 13.655 2.797 20.44 4.81v.005Z" fill="#9D9D9D"/><path d="M118.54 82.588c.275-2.129-.51-3.444-2.03-4.85-2.275-.84-2.95-2.508-3.585-4.743-.955-2.084-2.01-3.591-4.155-4.497-1.205-1.001-1.88-1.957-3.555-1.406.595 1.194.075 2.383-.14 3.546-.89 4.885.155 7.93 4.615 10.15 3.39 1.436 5.135 3.748 8.865 1.79-.005 0-.015.01-.02.01h.005Z" fill="#DBDBDB"/><path d="M88.385 89.608c-1.88 2.817-2.855 5.275-6.675 4.952-.82-.071-1.59.743-1.265 1.486 1.235 2.797-1.75 2.261-1.975 4.522 0 .015-.535-.339.185.121s3.54 1.431 5.035.551c.355-.207.94-.268 1.36-.556 2.43-1.669 4.77-2.969 7.575-4.122 3.5-1.436 5.585-3.92 6.655-7.631-.46-1.887-1.01-3.42-2.575-4.628-2.115-.657-3.585-.035-4.565 1.927-.89 1.785-2.035 2.549-3.755 3.378Z" fill="silver"/><path d="M109.64 79.842c-3.24-3.788-4.37-7.793-4.42-12.755-.38 6.712-4.455 10.044-9.06 14.374.71 1.42 1.77 1.618 3.25 1.563 3.44-.972 6.78-2.236 10.225-3.182h.005Z" fill="#CBCBCB"/><path d="M88.38 89.613c1.07 1.674.495 3.96 3.305 2.959 1.93-.688 3.285-2.392 2.74-4.739-.265-1.143.01-2.109 1.24-2.549.285-.43.355-.774.175-1.254-1.39-1.047-2.915-.567-4.515-.88-1.545 1.957-2.26 4.071-2.95 6.468l.005-.005Z" fill="#C9C9C9"/><path d="M116.51 47.626c-2.525-1.29-4.035.288-6.45 1.017-.665.536-1.345 1.087-2.01 1.598-.025.02.01.03.02.035.31.187.67.192 1.02.273 2.655.35 3.54 2.12 4.875 4.233 1.72 1.098 2.08 2.782 3.98.78-.82-2.605-.985-5.26-1.44-7.936h.005Z" fill="#A4A4A4"/><path d="M108.765 68.488c.92 1.68 1.825 3.323 2.735 4.992.97 1.057 1.54 2.018 3.1 1.922 2.295-1.745-.785-2.468.26-4.44.675-.238 1.35-.476 2.03-.714-1.1-1.214-2.1-2.417-3.275-3.59-.94-.941-1.87-2.165-3.345-1.685-1.79.582-.665 2.271-1.505 3.52v-.005Zm11.055 1.184c1.85-1.947 3.96-2.185-.165-3.465-2.005-.622-2.28-4.4-4.965-4.627.22 3.813 1.965 6.033 5.13 8.092Z" fill="#C3C3C3"/><path d="M108.045 50.246c-3.485.192-5.41 1.912-7.21 4.82 2.41-1.598 4.825-3.192 7.235-4.79-.01-.01-.015-.025-.025-.035v.005Z" fill="#999"/><path d="M89.76 725.514c-.495 2.954-.62 5.812 2.84 6.813 3.46 1.001 6.365 1.239 8.765-2.291 3.475-5.108 3.545-5.498 8.565-1.219 2.67 2.271 4.02 5.791 7.815 6.544-2.48-7.662-6.635-11.88-14.35-14.186-1.725-.516-3.27-.308-4.315 1.391-2.295 3.732-4.69 4.531-8.635 2.422-.105-.055-.58.39-.685.516v.01Zm15.305-25.469c-2.085-1.861-4.975-1.998-7.13-3.732-1.34-1.078-2.125.202-2.17 1.547-.105 3.308 1.34 5.811 3.54 8.107 4.115 4.299 8.535 8.295 12.205 12.917 1.475 1.861 2.775 5.644 5.59 3.677 2.515-1.755 1.69-5.76.63-8.39-.285-.713-1.195-1.472-1.73-2.039-.9.091-1.8.87-2.45-.111-2.445-3.687-6.425-5.548-9.12-9.048-.525-.677.77-2.088.64-2.928h-.005Z" fill="#C2C2C2"/><path d="M105.075 700.035c-1.805.273-4.37-.516-5.21 1.537-.84 2.054 1.34 3.895 2.84 4.567 5.35 2.387 8.075 6.181 11.73 10.545.605.723 1.24 1.492 2.37 1.386.625-2.139-.56-3.844-.81-5.948-1.18-5.047-4.79-7.702-8.135-11.339-.31-.338-.655-.556-.97-.885-.58.076-1.235.056-1.815.142v-.005Z" fill="#B8B8B8"/><path d="m59.545 659.07 2.66-1.052c1.14-1.892 2.755-3.298 3.3-5.508-.63-.263-1.26-.521-1.895-.784-2.45 1.917-3.085 4.496-4.065 7.344Z" fill="#BFBFBF"/><path d="M58.35 409.008c-.305-.627-.61-1.265-.91-1.892-2.95-1.143-5.08-3.004-7.22-5.315-1.12-1.209-1.95-2.2-3.715-1.993-2.875 3.323-3.93 7.566-6.345 11.187-.88.091-1.76.188-2.635.268-2.005.648-3.96 1.154-5.985 1.786-3.315 1.032-5.29 2.802-6.35 6.19 2.285 4.061 4.895 6.332 9.58 6.873 1.825.83 3.535.02 5.185-.607 3.79-1.446 7.475-1.987 10.975-3.975 1.955-1.112 3.65-.43 5.64.127 3.31.92 6.365 1.921 8.05-2.226 1.26-3.1-1.455-8.178-4.565-9.7-.6-.293-1.13-.475-1.695-.728l-.01.005Z" fill="#E3E3E3"/><path d="M88.62 423.685c.43 2.144 1.315 3.762 3.665 3.606 2.35-.157 3.49-1.593 3.255-3.93-.185-1.856-1.275-3.849-3.275-3.783-2.415.081-3.185 2.028-3.645 4.107Z" fill="#E6E6E6"/><path d="M50.915 421.52c-2.75-.607-4.765.486-7.19 1.623-2.89 1.356-5.95 2.029-8.96 2.974 1.575.789 3.21.845 4.805.243 4.715-1.77 9.275-1.983 14.21-2.165.335-.01.64-.065.97-.086-1.28-.864-2.555-1.734-3.835-2.594v.005Z" fill="#CCC"/><path d="M78.59 370.055c1.79-.364 3.67-.404 3.235-2.913-.375-2.16-.165-5.047-3.465-4.683-2.255.253-4.755 1.78-4.415 4.597.315 2.615 2.47 2.681 4.645 2.999Z" fill="#EAEAEA"/><path d="M70.48 349.309c-6.115.435-12.225.971-18.34 1.467.045.263.1.521.15.784 6.145-.516 12.2-.607 18.19-2.251Z" fill="#A0A0A0"/><path d="M83.64 652.176c.76-1.37 1.72-3.004 2.435-4.324 1.175-2.154-.305-2.321-1.845-3.308-4.905.041-8.835-1.137-12.855-3.985-2.785-1.972-4.885-2.073-7.265.521 1.075.147 2-.111 2.72.87-.01-.01-.015-.02-.025-.025 2.82 2.134 5.965 3.707 8.53 6.18 1.145.637 2.29 1.274 3.44 1.912 1.93.571 2.665 2.458 4.87 2.154l-.005.005Z" fill="#CCC"/><path d="M107.16 677.504c-1.915-1.072-3.865-2.074-5.79-3.126-3.9 1.27-3.88 3.591-3.095 7.248 1.53 2.402 3.005 4.177 5.795 5.002 2.92-1.867 3.025-5.457 5.855-7.415-.935-.546-1.82-1.178-2.765-1.704v-.005Z" fill="#AEAEAE"/><path d="M98.27 681.621c1.725-2.16 1.73-4.901 3.105-7.243-2.26-1.653-4.5-3.277-6.77-4.936-.915.81-2.635.673-1.86 2.398 1.55 3.449 2.57 7.151 5.53 9.786l-.005-.005Z" fill="#BEBEBE"/><path d="M83.125 856.999c-1.275-1.285-2.65-2.58-3.895-.602-.555.88.325 1.912 1.125 2.508 2.05 1.528 2.9-.571 2.79-1.699-.085-.865-.02-.202-.025-.207h.005Z" fill="silver"/><path d="M118.74 590.773c-.855-.086-1.67-.197-2.555-.273-6.23-.217-13.21-.222-19.16.855-7.655 1.386-7.76-1.386-11.735-6.403-1.09-1.375-1.45-1.922-2.875-2.69-.135 1.81 1.865 2.751.61 4.47-.32.44-1.43.43-2.035.39-1-.066-2.115-.885-2.14-1.841-.14-5.659-2.455-3.727-6.01-2.625-1.52.475-2.31.607-3.115 1.77-.805 1.163-1.085 2.372-1.825 3.54 1.38 2.645 2.125 5.093 3.815 7.688 1.69 2.594 3.59 3.489 6.4 1.249 1.405-1.118 3.495-1.74 5.375-1.74.475 1.361-1.13 2.433-1.14 3.611-.04 4.481.775 5.027 4.595 3.323 1.155-.516 1.655-.081 2.035.612 1.755 3.186 4.25 4.344 7.165 6.074 1.12.02 2.2-.02 3.25-.465.4-.172.695-.506 1.06-.734 2.65-1.643 5.095-3.58 7.82-5.098.375-.207.725-.475 1.08-.713 2.04-2.432 4.59-4.071 7.17-5.846.295-.359.525-.658.745-1.087.73-1.432 1.97-2.322 1.47-4.072v.005Z" fill="#CFCFCF"/><path d="M91.38 575.849c-3.305-1.391-6.515-.45-9.975-.627-2.72-2.059-5.115-1.866-8.15-.567 6.035 1.806 11.905 1.523 18.125 1.194Z" fill="#9F9F9F"/><path d="M73.585 119.655c-3.06.703-6.135.935-9.27.951 2.71 4.132 2.62 6.569-.665 10.575-2.105 2.564-3.7 6.494-5.08 9.68-.045.369-.045.683-.075 1.031 1.63.734 3.025.658 4.625-.111 3.02 1.239 4.61 2.731 5.255 6.024.485 2.498 2.44 2.903 4.53 3.752 2.05.304 3.425.026 4.565-1.81-.605-8.168-2.27-15.855-4.815-23.649-.7-2.149.65-4.299.935-6.433l-.005-.01Z" fill="#C9C9C9"/><path d="M77.47 149.731c-1.89.031-3.78.066-5.675.132-.625.536-1.035 1.037-1.025 1.902 1.14 2.371 3.24 3.1 5.545 3.808 4.785 1.461 9.34 2.559 13.78 4.84.33-1.254.67-2.504 1-3.753-4.085-3.252-9.165-4.314-13.625-6.923v-.006Zm2.765 33.253c2.4-.915 5.01-.212 7.25-1.598-5.335-3.717-11.485-4.921-17.495-7.045-.885-.313-1.51-.774-2.475-.728-1.695.703-2.675 2.094-2.41 3.935.265 1.841 1.9 1.304 3.18 1.643 1.67.44 3.1.592 4.405 1.77 2.51.688 5.035 1.341 7.55 2.023h-.005Z" fill="#A4A4A4"/><path d="M67.24 174.65c.915-.096 1.815-.198 2.74-.294-2.72-3.676-3.58-8.066-6.425-11.728-1.445-1.856-2.935-3.232-5.445-2.579.275.627.585 1.259.875 1.886-.32.997-.45 1.872-.12 2.883 1.08 1.32 1.46 2.731 1.64 4.405.32 3.024 1.37 5.093 4.045 6.565 1.08-.041 1.84-.501 2.69-1.133v-.005Z" fill="#C6C6C6"/><path d="M123.415 43.337c-.015-.146.075-.323.045-.465-.745-3.945-3.36-4.415-6.745-5.558.805 3.854 3.55 4.43 6.7 6.023Z" fill="#9A9A9A"/><path d="M110.785 5.487c-.39.536-.78 1.078-1.17 1.614 3.62-.865 7.24-1.73 10.86-2.59-.585-1.497-1.55-1.547-2.95-1.906l-6.74 2.882Z" fill="#B9B9B9"/><path d="M111.14 12.113c-1.975 1.82-.76 2.953 1.135 3.596 2.095.708 3.625.667 5.65 1.036-2.645-1.643-5.43-1.482-6.785-4.632Z" fill="#C4C4C4"/><path d="M116.51 47.631c-.225 3.085-.48 5.67 1.11 8.441.195.344.52.314.81.127 2.725-2.58 5.99-3.065 6.63-7.222-4.785-.587-5.86 6.923-8.555-1.34l.005-.006Z" fill="#C6C6C6"/><path d="M114.865 70.966c-.85-.976-.995-1.87-2.45-1.962-.07 2.529 1.655 3.748 2.71 5.852-.405 1.4.2 1.846 1.51 2.104 1.125.723 2.28 1.406 3.42 2.098.97-1.836.525-2.968-1.205-4.005s-2.84-2.453-3.985-4.092v.005Z" fill="#DBDBDB"/><path d="M118.435 56.194c-.275-.046-.55-.036-.82-.127-1.22-.4-2.43-.86-3.645-1.284 1.485 2.958 3.355 4.273 6.63 4.551-.105-1.613-1.19-2.058-2.165-3.145v.005Z" fill="#898989"/><path d="M59.97 476.181c-.565-1.8-1.21-3.363-1.745-5.214-1.3-4.456-.94-7.394 3.89-8.755.895-.328 1.795-.647 2.68-.971-3.8-3.388-7.39-4.582-12.145-2.66-3.53 1.426-6.29 1.578-9.895.577 2.94 4.435 7.18 4.45 11.89 5.791-1.205 1.355-2.52 1.168-4.15 1.39 2.075 1.088 4.32 1.796 4.36 4.527.045 2.726-2.47 2.706-4.26 3.722-2.195 1.244-3.99 2.584-6.07 3.889.03.617.035 1.234.055 1.851 2.815 1.856 5.02 1.669 7.795-.177 1.245-.829 2.63-1.34 3.99-1.947 1.945.577 2.765-.344 3.61-2.023h-.005Z" fill="#D3D3D3"/><path d="M52.56 434.523c-1.315-1.492-2.63-2.984-3.945-4.471-2.81 1.826-4.46 4.031-5.565 7.217 2.22.364 2.56-1.77 4.535-2.225-.69 2.427-.29 4.683-.045 7.146 1.38-3.05 1.945-5.922 5.015-7.667h.005Z" fill="#C7C7C7"/><path d="M59.92 163.7c-.305-.607-.625-1.178-.935-1.77-2.295 1.619-3.53 4.117-5.495 6.079-2.275.582-3.22-1.75-5.45-1.522-3.79 2.777-4.18 3.692-.28 6.676 2.36 1.805 4.265 4.648 6.855 6.276 1.275.88 2.135 1.937 3.66 2.478 2.895 1.027 4.535.324 4.53-3.024.315-.379.46-.754.46-1.239-2.32-3.242-3.16-6.18-2.785-10.247.11-1.213.435-2.665-.565-3.717l.005.01Z" fill="#E8E8E8"/><path d="M50.255 186.317c2.24 1.315 2.57 3.298 2.81 5.715.195 1.917.125 3.591 1.11 5.28 4.48-1.128 8.375.486 12.84.774-1.23-.809-2.455-1.674-3.665-2.478-3.33-1.249-4.615-2.539-5.48-6.271-.72-3.106-2.44-5.837-6.065-6.216-1.235-.132-2.5.405-2.91 1.704-.27.865.85 1.062 1.36 1.482v.01Z" fill="#C8C8C8"/><path d="M62.53 177.77c.05.369.21.749.28 1.123 3.285.622 6.62 1.36 9.84 2.073.36-2.69-2.11-2.139-3.445-2.356-3.025-.496-2.785-1.69-1.985-3.96-.85.116-1.755.076-2.63.242-1.635.319-2.3 1.189-2.06 2.878Z" fill="#8C8C8C"/><path d="M83.555 598.623c.05-1.508 1.455-2.266-.045-3.47a92.45 92.45 0 0 0-3.56 3.94c-3.605 4.192-5.975 4.142-9.405-.172-1.075-1.35-1.685-3.287-2.515-4.83.125 4.901 3.08 7.996 5.695 11.88 4.955 3.055 9.865 4.117 15.61 4.471.65 1.254 1.63 1.578 2.96 1.75 1.28-.309 2.065-.946 2.59-2.16-.475-3.545-3.315-4.147-6.195-4.607-4.905-.784-5.515-2.074-5.13-6.797l-.005-.005Z" fill="#B1B1B1"/><path d="M15.415 382.916c1.235.562 2.47 1.123 3.705 1.695 1.48-4.006 2.96-6.787 7.255-7.88 2.095-.531 2.7-1.558 1.74-3.707-.88-1.962-1.12-4.4-4.08-3.616-2.02.531-4.19 1.891-5.795 3.388-.96 3.389-1.885 6.747-2.825 10.12Z" fill="#FBFBFB"/><path d="M39.24 372.149c-.035-.288-.045-.627-.08-.92-2.44-.597-3.26.915-3.815 2.989-.465 1.734-.515 3.181-1.07 4.789-.325.946-.5 1.861-.795 2.782 2.37.566 2.965-1.27 3.665-2.974.98-2.392 1.405-4.314 2.095-6.671v.005Z" fill="#E4E4E4"/><path d="M34.26 379.012c1.8-2.878 1.655-6.074 4.905-7.788.56-.941 1.125-1.887 1.675-2.828-2.895-.95-4.435.127-5.35 2.969-.82 2.549-1.29 4.982-1.235 7.647h.005Z" fill="#CCC"/><path d="M22.345 310.003c-.24 2.817-.455 5.568-.79 8.365.58 1.851 1.66 2.923 2.875.748 1.215-2.174 1.855-4.703 2.39-7.217.36-1.709.285-4.162-1.45-4.936-2.36-1.062-2.075 1.694-3.03 3.045l.005-.005Z" fill="#DFDFDF"/><path d="M84.17 99.779c-2.02-.152-3.85.025-5.75.759.89 4.41 4.36 5.188 7.455 7.813.375-.87.91-1.947 1.27-2.771 1.465-3.374.005-4.522-2.975-5.801Z" fill="#C9C9C9"/><path d="M72.31 755.784c4.065-4.416 7.49-8.709 9.705-14.343-.055-.142-.095-.309-.17-.44-4.595-7.961-4.57-8.907 3.595-13.18.82-2.236.5-4.355.36-6.676 0 0-.005.03-.01 0-2.45-.212-4.77-1.613-7.255-1.527-3.12.101-5.595.708-7.81 3.307-4.755 5.574-5.245 13.655-1.935 20.104 1.655 3.221 2.33 5.801 1.48 9.047-.785 3-.61 3.045 2.045 3.708h-.005Z" fill="#A7A7A7"/><path d="M85.425 727.816c-2.85-1.892-5.555-.663-8.12.864-2.355 1.406-.985 3.348-.855 5.417.265 4.142 1.13 6.883 5.565 7.343a310.486 310.486 0 0 1 3.08-5.143c.105-2.827.245-5.654.33-8.481Z" fill="#9D9D9D"/><path d="M84.23 644.549c.615 1.098 1.245 2.185 1.87 3.278 1.655 1.411 3.305 2.822 4.96 4.233-.195-6.352-.145-8.001-6.825-7.506l-.005-.005Z" fill="#9F9F9F"/><path d="m26.365 243.153-.42-2.928c-1.35-.531-2.42-.41-3.645.359-.935 4.248-2.49 7.581-.68 11.819 2.33-2.65 2.28-6.276 4.47-9.017.06-.076.2-.157.275-.233Z" fill="#D9D9D9"/><path d="M17.395 214.548c1.74-.637 3.485-1.274 5.215-1.917 1.035-1.684.675-2.852-1.315-2.139-2.685.966-4.765 1.972-6.585 4.193.9-.041 1.785-.091 2.68-.137h.005Z" fill="#9F9F9F"/><path d="M72.31 755.768c-.88-.495-.94-.971-.58-1.881 2.095-5.331 1.965-8.198-1.525-13.119-2.835-4.001-2.57-8.745-.045-13.362 2.195-4.016 5.59-6.812 10.375-6.312 1.975.208 3.395 1.007 5.23.066-8.675-6.251-16.08-3.702-19.32 6.266-2.235 6.868-3.125 13.403-5.15 20.003-1.09 3.555-.67 6.483 1.31 9.351 2.135 3.09 4.93 2.706 8.115 1.987.55-1.026 1.055-2.002 1.595-2.999h-.005Z" fill="#B1B1B1"/><path d="M26.085 243.386c-2.815 2.362-3.18 5.73-4.465 9.017.355-.025.71-.045 1.06-.071 1.85-2.751 2.665-5.735 3.405-8.946Z" fill="#979797"/><path d="M28.815 344.176c-.71 2.893-1.41 5.74-2.115 8.527 2.935-1.001 5.82-5.123 5.355-7.89-.515-3.07-1.795-1.158-3.24-.637Z" fill="#DDD"/><path d="M99.89 81.8c-.01.293-.01.586-.04.874.44 1.305-.385 2.276-.47 3.561-.195 2.964.815 4.486 3.885 4.289 1.665-.567 2.995.177 4.65.344-.49-1.902-.94-3.834-1.53-5.71-.33-1.047-.81-2.114.12-2.954 1.09-.986 2.25-.455 3.405.066.865.39 1.51.94 2.255 1.472 2.69 1.937 4.525 1.583 6.4-1.164-3.225-.207-5.865-1.86-8.92-2.736-3.615-.1-6.69-.258-9.745 1.957h-.01Z" fill="#BBB"/><path d="M40.24 185.331c.725-.061 1.505.91 1.935-.374 1.655-4.926.785-11.445-2.295-15.8-.595.976-1.185 1.983-1.77 2.974 2.81 4.213 2.875 8.269 2.13 13.2Z" fill="#CCC"/><path d="M69.07 630.54c.42-.273.81-.602 1.24-.865 3.06-1.886 5.71-4.268 8.525-6.493-.02.02-.045.04-.065.06 2.435-2.235 5.27-3.848 7.29-6.524 0-.202-.015-.384 0-.602-2.495-.687-4.39-2.255-7.1-2.346-4.665-.157-8.3.854-11.19 4.799.005.582 0 1.174.02 1.745.1 3.49.42 6.848 1.29 10.226h-.01Z" fill="#CFCFCF"/><path d="M48.05 166.593c2.03.784 3 3.03 5.43 1.411-2.525-1.426-3.185-2.878-2.5-5.978 1.325-5.983 4.2-11.966 6.265-17.832-3.875.617-7.255 1.714-10.66-.825.315-.935.01-1.522-.895-1.836-.3-.106-.62.066-.895 0-.25 2.585 1.585 3.51 3.25 4.835 3.925 3.131 3.63 5.007.275 8.659-1.58 1.719-3.64 3.499-4.225 6.114-.24 1.062-1.315 1.174-2.245.86-.045 1.001-.06 2.023-.1 2.994 1.91 1.876 3.995.708 6.305 1.598h-.005Z" fill="silver"/><path d="M116.23 593.929c-.13.01-.305.01-.455.02-3.06 1.877-5.715 4.254-8.57 6.418.025-.02.05-.045.08-.065-2.515 2.2-5.375 3.833-7.51 6.458-.13.364-.395.855-.215 1.234 2.02 4.228 3.87 7.763 3.53 12.593-.06.83 1.475 1.062 2.065 1.366 6.91.531 13.91 1.153 20.755 1.866 2.945.308 5.72-.405 8.555-.607 1.79-.131 2.465-1.355 2.805-2.923 1.22-5.594 1.98-10.5.125-16.012-.01-.243-.075-.486-.02-.728 1.17-5.245 3.42-9.979 3.3-15.446-.62.192-1.22.389-1.855.577-4.23 3.11-8.83 3.454-13.79 3.075-3.55-.268-5.82.526-8.8 2.174Z" fill="#CBCBCB"/><path d="M95.015 624.79c2.03 2.928 4.855 4.218 7.9 5.786 4.125 1.001 7.93 2.898 12.09 3.742 3.47-.283 6.775-.374 10.23-1.148 3.45-.774 5.77-2.23 5.805-6.094-4.35-.4-8.47-1.012-12.905-.556-1.865.49-7.375.106-8.235-1.26-1.82-2.882-3.905-1.522-5.58-3.221-2.465-2.504-3.31-4.729-3.86-7.996-.495-2.944-2.34-3.894-5.125-4.365-1.035.536-1.63 1.254-2.05 2.352.605 2.948 1.075 5.851.61 8.81-.255 1.598.29 2.736 1.13 3.95h-.01Z" fill="#9C9C9C"/><path d="M94.9 610.042c1.39 1.411 3.6 3.07 3.38 5.164-.5 4.79 1.82 5.796 5.92 6.838.315-.046.64-.046.955-.091-.145-.294-.5-.88-.39-1.179 2.195-6.21.295-9.943-4.605-13.903-.245-.546-.545-.576-.99-.197.02-.015.045-.025.065-.04-1.55 1.249-3.99 1.082-4.335 3.403v.005Z" fill="silver"/><path d="M118.175 626.55c4.27.405 8.545.814 12.815 1.219 1.06.48 1.67.394 1.775-.88-1.125-.759-2.295-.789-3.605-.87-3.82.47-7.31-1.057-10.985.531Z" fill="#DBDBDB"/><path d="M132.795 626.874c-.65.338-1.2.591-1.8.9-3.38.678-5.61 3.232-8.9 4.253-2.34.728-4.86 1.391-7.335 1.598-.365.324-.805.43-.935.941.65.238 1.32.45 1.95.703 3.19-1.027 5.53.253 8.84.435 3.765.202 9.045-3.075 10.37-6.448.915-2.337-1.105-1.695-2.185-2.387l-.005.005Z" fill="#919191"/><path d="M116.245 593.939c4.93-.566 10.055-.177 14.895.167 4.245.304 5.495-2.407 7.695-5.416-5.795.222-11.465 1.127-17.265.733-.945.45-1.89.895-2.835 1.345-.83 1.057-1.675 2.094-2.49 3.171Z" fill="#D5D5D5"/><path d="M67.3 436.693c7.785.126 15.18-.638 22.69-2.757-7.885-.693-15.095.693-22.69 2.757Z" fill="#B1B1B1"/><path d="M46.795 400.41c-.385-.622-.77-1.244-1.16-1.861-6.045-.617-6.38-.435-5.91 5.7.175 2.281.305 4.476.43 6.747 4.58-2.307 6.25-5.518 6.635-10.586h.005Z" fill="#CFCFCF"/><path d="M103.265 90.519c-2.59-2.059-2.855-4.734-3.41-7.844-.825 2.18-2.09 1.937-4.105 1.709-.025.298-.055.592-.085.89 1.175 1.087 1.695 2.387 2.195 3.884-.515 4.699-.725 8.638 3.565 11.385-1.785-1.174-3.025-2.023-4.885.207-1.86 2.23-.925 6.008 1.405 8.001 3.475 2.245 6.355 5.088 9.38 7.874 3.445-1.446 5.02-3.884 6.265-7.323.63-1.74 1.12-3.034 2.69-4.071-.955-4.213-3.32-6.828-6.71-9.25-2.385-1.705-4.395-3.272-6.3-5.467l-.005.005Z" fill="#DADADA"/><path d="M97.93 108.791c-.63-1.578-1.38-2.518-.895-4.385.645-2.478 1.245-4.212 4.08-2.22.675.471 1.975.602 3.01.759 1.645.248 3.71.667 3.93-1.659.205-2.16-1.89-1.68-3.33-1.664-2.345.025-3.47-1.188-4.25-3.237-.925-2.432-1.675-4.825-2.62-7.227-1.41 2.741-3.55 4.37-6.28 5.584-2.91 1.294-5.19 2.832-7.46 5.032 1.935-.111 3.635-.617 5.435.344 1.99.49 2.825 1.927 3.425 3.737.54 1.639 1.15 2.726 2.36 3.879.86.344 1.745.688 2.595 1.052v.005Z" fill="#C9C9C9"/><path d="M95.34 107.739c-.405-1.825-.58-3.55-1.08-5.391-.71-2.635-2.185-3.358-4.705-2.225.185 1.239.385 2.483.575 3.727 1.85 1.563 2.59 3.606 5.205 3.889h.005Z" fill="#B4B4B4"/><path d="m116.63 76.96-1.51-2.104a1069.53 1069.53 0 0 1-3.62-1.376c.875 3.095 1.41 5.007 5 4.258.04-.258.085-.52.125-.778h.005Z" fill="#9A9A9A"/><path d="M113.82 634.566c.31-.314.62-.632.935-.946-4.055-.865-7.635-2.903-11.835-3.049 3.53 1.734 7.065 3.125 10.905 3.995h-.005Z" fill="#818181"/><path d="M59.97 476.176c-1.21.678-2.4 1.35-3.615 2.028-.515 2.62-1.06 5.139-.435 7.804.705 2.999 2.36 4.749 5.25 5.695.755.247 1.54.106 1.895-.698.205-.461.005-1.28-.285-1.644-3.385-4.183-2.835-8.072-1.955-13.084-.285-.035-.57-.071-.85-.101h-.005Z" fill="#B4B4B4"/><path d="M73.66 202.653c-1.765-1.73-3.62-2.084-6.02-1.932 1.79 1.512 3.765 1.73 6.02 1.932Z" fill="#C5C5C5"/><path d="M83.555 598.623c-1.075 3.029-1.23 5.371.915 8.031 1.085 1.345 2.23 2.099 4.135 1.492 2.16-.693 3.92-.223 5.295 1.745 1.62-.051 2.59-.466 2.745-2.195-3.775-3.146-6.605-5.67-6.325-10.95.03-.581-.255-1.168-.895-1.269-.98-.157-1.77.369-2.22 1.163-.96 1.699-1.62 3.378-2.45 5.108-1.35-.839-.99-1.724-1.2-3.115v-.01Z" fill="#C4C4C4"/></svg>