<svg width="24" height="24" fill="none" xmlns="http://www.w3.org/2000/svg"><g clip-path="url(#a)"><path fill-rule="evenodd" clip-rule="evenodd" d="M12 1.688C6.308 1.688 1.687 6.308 1.687 12c0 5.692 4.621 10.313 10.313 10.313S22.313 17.691 22.313 12 17.691 1.687 12 1.687Zm-.688 9.121a1.375 1.375 0 1 0 1.879 1.879h5.684a.687.687 0 1 0 0-1.376h-5.684a1.391 1.391 0 0 0-.504-.503V7.188a.687.687 0 1 0-1.374 0v3.621Z" fill="#393C43"/></g><defs><clipPath id="a"><path fill="#fff" transform="translate(1 1)" d="M0 0h22v22H0z"/></clipPath></defs></svg>