<svg width="32" height="32" viewBox="0 0 32 32" fill="none" xmlns="http://www.w3.org/2000/svg">
<path d="M10.013 26.4023L10.3877 25.7526L10.3877 25.7526L10.013 26.4023ZM9.09873 26.3001L9.3359 27.0116H9.3359L9.09873 26.3001ZM6.02344 27.3252L5.78627 26.6137C5.77853 26.6163 5.77084 26.619 5.7632 26.6218L6.02344 27.3252ZM4.67448 25.9763L3.96291 25.7391L3.95998 25.7483L4.67448 25.9763ZM5.69958 22.901L4.98806 22.6639H4.98806L5.69958 22.901ZM5.59759 21.9865L4.9479 22.3612L4.9479 22.3612L5.59759 21.9865ZM5.7925 22.5527L5.04425 22.5016L5.7925 22.5527ZM5.60153 21.9933L4.95184 22.368L4.95184 22.368L5.60153 21.9933ZM5.77094 22.3291L5.04805 22.5289H5.04805L5.77094 22.3291ZM6.0154 27.3282L6.25257 28.0397C6.2603 28.0371 6.26799 28.0344 6.27564 28.0316L6.0154 27.3282ZM4.83073 27.5743L5.08265 26.8679L5.08264 26.8678L4.83073 27.5743ZM4.67319 25.9804L5.38476 26.2176L5.38769 26.2084L4.67319 25.9804ZM4.42585 27.1698L3.71942 27.4217H3.71942L4.42585 27.1698ZM10.0075 26.3992L9.6328 27.0489L9.63283 27.0489L10.0075 26.3992ZM9.67057 26.2292L9.47075 26.9521L9.47077 26.9521L9.67057 26.2292ZM9.44746 26.2064L9.39629 25.4581L9.44746 26.2064ZM16 16V15.25C15.5858 15.25 15.25 15.5858 15.25 16H16ZM16.0027 16L16.7525 16.0175C16.7572 15.8156 16.6803 15.6204 16.5392 15.4759C16.398 15.3314 16.2046 15.25 16.0027 15.25V16ZM16.0026 16.0027L15.9847 16.7525C16.1836 16.7572 16.3763 16.6827 16.5202 16.5454C16.6642 16.408 16.7478 16.2191 16.7524 16.0202L16.0026 16.0027ZM16 16.0026H15.25C15.25 16.4098 15.575 16.7426 15.9821 16.7524L16 16.0026ZM21.3333 16V15.25C20.9191 15.25 20.5833 15.5858 20.5833 16H21.3333ZM21.336 16L22.0858 16.0175C22.0905 15.8156 22.0136 15.6204 21.8725 15.4759C21.7314 15.3314 21.538 15.25 21.336 15.25V16ZM21.3359 16.0027L21.318 16.7525C21.5169 16.7572 21.7096 16.6827 21.8536 16.5454C21.9976 16.408 22.0811 16.2191 22.0857 16.0202L21.3359 16.0027ZM21.3333 16.0026H20.5833C20.5833 16.4098 20.9083 16.7426 21.3154 16.7524L21.3333 16.0026ZM10.6667 16V15.25C10.2525 15.25 9.91667 15.5858 9.91667 16H10.6667ZM10.6693 16L11.4191 16.0175C11.4238 15.8156 11.3469 15.6204 11.2058 15.4759C11.0647 15.3314 10.8713 15.25 10.6693 15.25V16ZM10.6693 16.0027L10.6513 16.7525C10.8503 16.7572 11.0429 16.6827 11.1869 16.5454C11.3309 16.408 11.4144 16.2191 11.4191 16.0202L10.6693 16.0027ZM10.6667 16.0026H9.91667C9.91667 16.4098 10.2416 16.7426 10.6487 16.7524L10.6667 16.0026ZM15.9995 27.2499C13.9544 27.2499 12.0388 26.7049 10.3877 25.7526L9.63832 27.052C11.5112 28.1322 13.6844 28.7499 15.9995 28.7499V27.2499ZM8.86156 25.5886L5.78627 26.6137L6.26061 28.0367L9.3359 27.0116L8.86156 25.5886ZM5.38599 26.2135L6.41109 23.1382L4.98806 22.6639L3.96297 25.7392L5.38599 26.2135ZM6.24728 21.6118C5.29504 19.9607 4.75 18.0451 4.75 16H3.25C3.25 18.3152 3.86774 20.4883 4.9479 22.3612L6.24728 21.6118ZM4.75 16C4.75 9.7868 9.7868 4.75 16 4.75V3.25C8.95837 3.25 3.25 8.95837 3.25 16H4.75ZM16 4.75C22.2132 4.75 27.25 9.7868 27.25 16H28.75C28.75 8.95837 23.0416 3.25 16 3.25V4.75ZM27.25 16C27.25 22.2132 22.2128 27.2499 15.9995 27.2499V28.7499C23.0411 28.7499 28.75 23.0417 28.75 16H27.25ZM6.41109 23.1382C6.45797 22.9976 6.52694 22.8058 6.54075 22.6039L5.04425 22.5016C5.04607 22.4749 5.05084 22.4646 5.04332 22.4916C5.03421 22.5243 5.01905 22.5709 4.98806 22.6639L6.41109 23.1382ZM4.9479 22.3612L4.95184 22.368L6.25122 21.6186L6.24728 21.6118L4.9479 22.3612ZM4.95184 22.368C5.00402 22.4585 5.03098 22.5056 5.04889 22.5401C5.06502 22.5712 5.05671 22.5603 5.04805 22.5289L6.49384 22.1293C6.43964 21.9332 6.32579 21.7479 6.25121 21.6186L4.95184 22.368ZM6.54075 22.6039C6.55143 22.4478 6.53933 22.2939 6.49384 22.1293L5.04805 22.5289C5.04798 22.5287 5.04739 22.5265 5.04669 22.5228C5.04598 22.5189 5.04535 22.5146 5.04493 22.5101C5.04402 22.5003 5.04462 22.4961 5.04425 22.5016L6.54075 22.6039ZM5.7632 26.6218L5.75515 26.6248L6.27564 28.0316L6.28368 28.0286L5.7632 26.6218ZM5.77822 26.6167C5.44099 26.7291 5.23741 26.7962 5.09038 26.8307C4.9327 26.8677 4.97759 26.8304 5.08265 26.8679L4.57881 28.2807C4.89956 28.3951 5.21378 28.3424 5.43301 28.291C5.66289 28.2371 5.94379 28.1426 6.25257 28.0397L5.77822 26.6167ZM3.95998 25.7483L3.95869 25.7524L5.38769 26.2084L5.38898 26.2043L3.95998 25.7483ZM3.96168 25.7432C3.85827 26.0534 3.76351 26.3353 3.70936 26.5659C3.65778 26.7856 3.60487 27.1005 3.71942 27.4217L5.13227 26.9179C5.16974 27.023 5.13235 27.0676 5.16964 26.9088C5.20437 26.7609 5.27182 26.5562 5.3847 26.2175L3.96168 25.7432ZM5.08264 26.8678C5.10539 26.876 5.12358 26.8935 5.13227 26.9179L3.71942 27.4217C3.86253 27.8231 4.1791 28.1382 4.57882 28.2807L5.08264 26.8678ZM10.3877 25.7526L10.3822 25.7495L9.63283 27.0489L9.63834 27.052L10.3877 25.7526ZM10.3822 25.7495C10.2521 25.6744 10.0667 25.5605 9.87038 25.5063L9.47077 26.9521C9.43959 26.9434 9.4288 26.9352 9.45995 26.9513C9.49459 26.9693 9.5419 26.9964 9.6328 27.0489L10.3822 25.7495ZM9.3359 27.0116C9.38055 26.9968 9.41538 26.9852 9.44566 26.9754C9.47585 26.9656 9.49601 26.9595 9.51044 26.9554C9.53892 26.9474 9.5275 26.9527 9.49862 26.9546L9.39629 25.4581C9.19338 25.472 8.99698 25.5435 8.86156 25.5886L9.3359 27.0116ZM9.87039 25.5063C9.71417 25.4631 9.56131 25.4468 9.39629 25.4581L9.49862 26.9546C9.49973 26.9546 9.49846 26.9547 9.49533 26.9546C9.49211 26.9546 9.488 26.9544 9.48339 26.9539C9.47879 26.9535 9.47494 26.9528 9.47222 26.9523C9.46959 26.9518 9.46894 26.9516 9.47075 26.9521L9.87039 25.5063ZM16 16.75H16.0027V15.25H16V16.75ZM15.2529 15.9825L15.2528 15.9851L16.7524 16.0202L16.7525 16.0175L15.2529 15.9825ZM16.0205 15.2529L16.0179 15.2528L15.9821 16.7524L15.9847 16.7525L16.0205 15.2529ZM16.75 16.0026V16H15.25V16.0026H16.75ZM21.3333 16.75H21.336V15.25H21.3333V16.75ZM20.5862 15.9825L20.5861 15.9851L22.0857 16.0202L22.0858 16.0175L20.5862 15.9825ZM21.3539 15.2529L21.3513 15.2528L21.3154 16.7524L21.318 16.7525L21.3539 15.2529ZM22.0833 16.0026V16H20.5833V16.0026H22.0833ZM10.6667 16.75H10.6693V15.25H10.6667V16.75ZM9.91954 15.9825L9.91948 15.9851L11.4191 16.0202L11.4191 16.0175L9.91954 15.9825ZM10.6872 15.2529L10.6846 15.2528L10.6487 16.7524L10.6513 16.7525L10.6872 15.2529ZM11.4167 16.0026V16H9.91667V16.0026H11.4167Z" fill="#676767"/>
</svg>
