<svg width="32" height="32" viewBox="0 0 32 32" fill="none" xmlns="http://www.w3.org/2000/svg">
<path fill-rule="evenodd" clip-rule="evenodd" d="M23.4528 3.47865L26.8012 6.20381C27.1245 6.51882 27.3057 6.95181 27.3031 7.40319C27.3005 7.85456 27.1143 8.28545 26.7874 8.59671L24.243 11.6954L15.5838 22.2604C15.4339 22.4369 15.232 22.5616 15.0071 22.6167L10.5174 23.6497C9.92163 23.6743 9.40789 23.2349 9.33984 22.6426L9.54987 18.2131C9.56543 17.987 9.65496 17.7722 9.80465 17.602L18.0903 7.50527L21.0083 3.94518C21.5752 3.17348 22.6415 2.96998 23.4528 3.47865Z" stroke="#676767" stroke-width="1.5" stroke-linecap="round" stroke-linejoin="round"/>
<path d="M3.19922 28.2577C2.78501 28.2577 2.44922 28.5935 2.44922 29.0077C2.44922 29.4219 2.78501 29.7577 3.19922 29.7577V28.2577ZM26.784 29.7577C27.1982 29.7577 27.534 29.4219 27.534 29.0077C27.534 28.5935 27.1982 28.2577 26.784 28.2577V29.7577ZM18.785 7.22523C18.63 6.84112 18.1929 6.65543 17.8088 6.81046C17.4247 6.9655 17.239 7.40256 17.3941 7.78667L18.785 7.22523ZM24.4075 12.4328C24.8115 12.3416 25.0651 11.94 24.9738 11.536C24.8825 11.132 24.481 10.8784 24.077 10.9697L24.4075 12.4328ZM3.19922 29.7577H26.784V28.2577H3.19922V29.7577ZM17.3941 7.78667C17.771 8.72055 18.551 10.0592 19.6998 11.0808C20.8617 12.1141 22.4661 12.8714 24.4075 12.4328L24.077 10.9697C22.7492 11.2697 21.6215 10.7824 20.6966 9.95987C19.7585 9.12565 19.0967 7.99737 18.785 7.22523L17.3941 7.78667Z" fill="#676767"/>
</svg>
