<svg width="32" height="32" viewBox="0 0 32 32" fill="none" xmlns="http://www.w3.org/2000/svg">
<path d="M15.4684 19.4703C15.1755 19.7632 15.1755 20.2381 15.4684 20.531C15.7613 20.8239 16.2361 20.8239 16.529 20.531L15.4684 19.4703ZM19.9987 16.0007L20.529 16.531C20.8219 16.2381 20.8219 15.7632 20.529 15.4703L19.9987 16.0007ZM16.529 11.4703C16.2361 11.1774 15.7613 11.1774 15.4684 11.4703C15.1755 11.7632 15.1755 12.2381 15.4684 12.531L16.529 11.4703ZM5.33203 15.2507C4.91782 15.2507 4.58203 15.5864 4.58203 16.0007C4.58203 16.4149 4.91782 16.7507 5.33203 16.7507V15.2507ZM11.2487 9.66543C11.2487 10.0796 11.5845 10.4154 11.9987 10.4154C12.4129 10.4154 12.7487 10.0796 12.7487 9.66543H11.2487ZM12.7487 22.334C12.7487 21.9198 12.4129 21.584 11.9987 21.584C11.5845 21.584 11.2487 21.9198 11.2487 22.334H12.7487ZM13.4544 26.377L13.1139 27.0452L13.4544 26.377ZM12.2893 25.2108L12.9576 24.8703H12.9576L12.2893 25.2108ZM26.375 25.2112L27.0433 25.5517H27.0433L26.375 25.2112ZM25.2086 26.377L25.549 27.0452L25.5491 27.0452L25.2086 26.377ZM25.2086 5.62463L25.5491 4.95638L25.549 4.95638L25.2086 5.62463ZM26.375 6.78971L27.0433 6.44922V6.44922L26.375 6.78971ZM12.2893 6.78971L12.9576 7.13021V7.13021L12.2893 6.78971ZM13.4544 5.62463L13.1139 4.95638L13.4544 5.62463ZM16.529 20.531L20.529 16.531L19.4684 15.4703L15.4684 19.4703L16.529 20.531ZM20.529 15.4703L16.529 11.4703L15.4684 12.531L19.4684 16.531L20.529 15.4703ZM19.9987 15.2507H5.33203V16.7507H19.9987V15.2507ZM12.7487 9.66543V9.60091H11.2487V9.66543H12.7487ZM16.2656 6.08398H22.399V4.58398H16.2656V6.08398ZM12.7487 22.4007V22.334H11.2487V22.4007H12.7487ZM16.2612 25.9173C15.5036 25.9173 14.9802 25.9167 14.5737 25.8835C14.1759 25.851 13.9565 25.791 13.7949 25.7087L13.1139 27.0452C13.5222 27.2532 13.961 27.3384 14.4515 27.3785C14.9333 27.4179 15.5283 27.4173 16.2612 27.4173V25.9173ZM11.2487 22.4007C11.2487 23.135 11.2481 23.7308 11.2875 24.2129C11.3276 24.7039 11.4129 25.1427 11.6211 25.5513L12.9576 24.8703C12.8751 24.7084 12.8151 24.4889 12.7825 24.0908C12.7493 23.6839 12.7487 23.1598 12.7487 22.4007H11.2487ZM13.7949 25.7087C13.4349 25.5253 13.1417 25.2316 12.9576 24.8703L11.6211 25.5513C11.9483 26.1935 12.4704 26.7173 13.1139 27.0452L13.7949 25.7087ZM25.9154 22.4054C25.9154 23.1631 25.9148 23.6862 25.8816 24.0924C25.8491 24.4898 25.7891 24.709 25.7067 24.8707L27.0433 25.5517C27.2513 25.1434 27.3365 24.705 27.3766 24.2147C27.4159 23.7331 27.4154 23.1383 27.4154 22.4054H25.9154ZM22.4028 27.4173C23.1357 27.4173 23.7305 27.4179 24.2121 27.3785C24.7024 27.3384 25.1408 27.2532 25.549 27.0452L24.8681 25.7087C24.7064 25.7911 24.4872 25.851 24.0898 25.8835C23.6836 25.9167 23.1605 25.9173 22.4028 25.9173V27.4173ZM25.7067 24.8707C25.5232 25.2309 25.2291 25.5247 24.8681 25.7087L25.5491 27.0452C26.1915 26.7178 26.7155 26.1949 27.0433 25.5517L25.7067 24.8707ZM22.399 6.08398C23.1581 6.08398 23.682 6.08457 24.0888 6.11782C24.4867 6.15035 24.7061 6.21037 24.8681 6.29289L25.549 4.95638C25.1406 4.74825 24.7019 4.66294 24.211 4.62281C23.7289 4.5834 23.1333 4.58398 22.399 4.58398V6.08398ZM27.4154 9.59653C27.4154 8.86362 27.4159 8.26856 27.3766 7.78678C27.3365 7.29628 27.2513 6.85752 27.0433 6.44922L25.7067 7.13021C25.7891 7.29178 25.8491 7.51115 25.8816 7.90895C25.9148 8.31547 25.9154 8.83889 25.9154 9.59653H27.4154ZM24.8681 6.29289C25.2295 6.47706 25.5234 6.77037 25.7067 7.13021L27.0433 6.44922C26.7153 5.80552 26.1911 5.28353 25.5491 4.95638L24.8681 6.29289ZM12.7487 9.60091C12.7487 8.84181 12.7493 8.31742 12.7825 7.91023C12.8151 7.51173 12.8752 7.29203 12.9576 7.13021L11.6211 6.44922C11.4129 6.85783 11.3276 7.29699 11.2875 7.78812C11.2481 8.27054 11.2487 8.86654 11.2487 9.60091H12.7487ZM16.2656 4.58398C15.5313 4.58398 14.9353 4.5834 14.4528 4.6228C13.9617 4.66292 13.5225 4.74818 13.1139 4.95638L13.7949 6.29289C13.9567 6.21044 14.1764 6.15037 14.5749 6.11783C14.9821 6.08457 15.5065 6.08398 16.2656 6.08398V4.58398ZM12.9576 7.13021C13.1414 6.76956 13.4343 6.47665 13.7949 6.29289L13.1139 4.95638C12.471 5.28395 11.9487 5.80633 11.6211 6.44922L12.9576 7.13021ZM25.9154 9.59653V22.4054H27.4154V9.59653H25.9154ZM22.4028 25.9173H16.2612V27.4173H22.4028V25.9173Z" fill="#676767"/>
</svg>
