<svg width="171" height="26" viewBox="0 0 171 26" fill="none" xmlns="http://www.w3.org/2000/svg">
<g clip-path="url(#clip0_4801_1856)">
<path fill-rule="evenodd" clip-rule="evenodd" d="M59.805 12.4108C62.5782 11.6408 64.0383 9.7548 64.0383 6.99461V6.85317C64.0383 2.3112 60.8849 0.529297 56.5126 0.529297H49.476V11.7785H51.38V2.10657H56.4748C60.1173 2.10657 62.1192 3.59448 62.1192 6.82713V6.96478C62.1192 10.1119 60.3168 11.8007 56.5426 11.8007H51.365V13.3408H56.8437C61.1747 13.3408 63.3609 15.0891 63.3609 18.5115V18.6529C63.3609 22.1125 61.3816 23.965 57.5021 23.965H51.365V13.3185H49.4609V25.5163H57.5473C62.2584 25.5163 65.2348 23.2098 65.2348 18.6269V18.4855C65.2273 15.1152 63.4964 13.1027 59.805 12.4108Z" fill="#012028"/>
<path fill-rule="evenodd" clip-rule="evenodd" d="M73.2269 13.4933H83.2135V11.8863H73.2269V2.13627H85.5314V0.529297H71.2891V11.8863H73.2269V13.4933H71.2891V25.5163H86.1598V23.9055H73.2269V13.4933Z" fill="#012028"/>
<path fill-rule="evenodd" clip-rule="evenodd" d="M101.395 13.9842C105.105 13.456 107.825 11.5514 107.825 7.38124V7.23613C107.825 2.4003 104.21 0.540283 99.3856 0.540283H92.5938V12.5595H94.5353V14.133H92.5938V25.5272H94.5353V14.1218H99.3555L101.395 13.9842ZM94.5353 12.5482V2.13234H99.4872C103.333 2.13234 105.865 3.38971 105.865 7.23613V7.37757C105.865 11.0232 103.472 12.5482 99.4872 12.5482H94.5353Z" fill="#012028"/>
<path fill-rule="evenodd" clip-rule="evenodd" d="M118.486 25.5165H120.428V2.16996H118.486V0.562988H110.648V2.16996H118.486V25.5165Z" fill="#012028"/>
<path fill-rule="evenodd" clip-rule="evenodd" d="M136.488 13.4933H146.47V11.8863H136.488V2.13627H148.788V0.529297H134.547V11.8863H136.488V13.4933H134.547V25.5163H149.417V23.9055H136.488V13.4933Z" fill="#012028"/>
<path d="M128.267 0.562988H120.43V2.16996H128.267V0.562988Z" fill="#012028"/>
<path fill-rule="evenodd" clip-rule="evenodd" d="M161.757 11.3255L155.042 0.487183H152.93L160.671 13.077L161.757 11.3255ZM161.757 14.842L162.842 13.077L170.583 25.5716H168.354L161.757 14.842Z" fill="#012028"/>
<path fill-rule="evenodd" clip-rule="evenodd" d="M161.757 11.3255L168.473 0.487183H170.583L162.842 13.077L161.757 11.3255ZM161.757 14.842L160.671 13.077L152.93 25.5716H155.159L161.757 14.842Z" fill="#012028"/>
<path d="M25.0687 25.5133H23.0859V0.487183H25.0687V22.7832L40.3637 0.487183H42.311V25.5133H40.3283V3.21729L25.0687 25.5133Z" fill="#012028"/>
<path fill-rule="evenodd" clip-rule="evenodd" d="M8.7369 25.5135C13.5584 25.5135 16.6073 22.9233 16.6073 18.3381V18.198C16.6073 13.5428 13.3812 11.2327 8.27599 11.2327H2.45595V12.8078H8.09879C12.4594 12.8078 14.693 14.7679 14.693 18.198V18.3381C14.693 21.8033 12.6722 23.9383 8.70148 23.9383H2.42642V12.8446H0.476562V25.5135H8.7369ZM0.476562 11.2025V0.487183H14.7992V2.09732H2.42642V11.2025H0.476562Z" fill="#012028"/>
</g>
<defs>
<clipPath id="clip0_4801_1856">
<rect width="171" height="26" fill="white"/>
</clipPath>
</defs>
</svg>
