<svg width="252" height="80" viewBox="0 0 252 80" fill="none" xmlns="http://www.w3.org/2000/svg">
<path fill-rule="evenodd" clip-rule="evenodd" d="M95.5974 39.3071C98.8784 38.4012 100.606 36.1823 100.606 32.935V32.7686C100.606 27.4252 96.8751 25.3288 91.7021 25.3288H83.3772V38.5631H85.6298V27.1844H91.6575C95.9669 27.1844 98.3354 28.9349 98.3354 32.738V32.8999C98.3354 36.6024 96.2029 38.5893 91.7377 38.5893H85.6121V40.4012H92.0939C97.2179 40.4012 99.8044 42.458 99.8044 46.4843V46.6507C99.8044 50.7208 97.4628 52.9002 92.8729 52.9002H85.6121V40.3749H83.3594V54.7252H92.9263C98.5001 54.7252 102.021 52.0118 102.021 46.6201V46.4537C102.013 42.4886 99.9648 40.1211 95.5974 39.3071Z" fill="white"/>
<path fill-rule="evenodd" clip-rule="evenodd" d="M111.484 40.5805H123.299V38.69H111.484V27.2194H126.042V25.3288H109.191V38.69H111.484V40.5805H109.191V54.7252H126.785V52.8302H111.484V40.5805Z" fill="white"/>
<path fill-rule="evenodd" clip-rule="evenodd" d="M144.803 41.1582C149.193 40.5368 152.411 38.2961 152.411 33.39V33.2193C152.411 27.5301 148.133 25.3419 142.426 25.3419H134.391V39.4821H136.688V41.3332H134.391V54.7383H136.688V41.3201H142.39L144.803 41.1582ZM136.688 39.4688V27.2149H142.546C147.096 27.2149 150.092 28.6941 150.092 33.2193V33.3857C150.092 37.6746 147.261 39.4688 142.546 39.4688H136.688Z" fill="white"/>
<path fill-rule="evenodd" clip-rule="evenodd" d="M165.03 54.7252H167.328V27.2587H165.03V25.3682H155.758V27.2587H165.03V54.7252Z" fill="white"/>
<path fill-rule="evenodd" clip-rule="evenodd" d="M186.32 40.5805H198.13V38.69H186.32V27.2194H200.872V25.3288H184.023V38.69H186.32V40.5805H184.023V54.7252H201.617V52.8302H186.32V40.5805Z" fill="white"/>
<path d="M176.6 25.3682H167.328V27.2587H176.6V25.3682Z" fill="white"/>
<path fill-rule="evenodd" clip-rule="evenodd" d="M216.216 38.0299L208.272 25.2789H205.773L214.932 40.0905L216.216 38.0299ZM216.216 42.167L217.501 40.0905L226.659 54.79H224.022L216.216 42.167Z" fill="white"/>
<path fill-rule="evenodd" clip-rule="evenodd" d="M216.216 38.0299L224.162 25.2789H226.659L217.501 40.0905L216.216 38.0299ZM216.216 42.167L214.932 40.0905L205.773 54.79H208.411L216.216 42.167Z" fill="white"/>
<path d="M54.502 54.7213H52.1562V25.2788H54.502V51.5094L72.5976 25.2788H74.9014V54.7213H72.5557V28.4907L54.502 54.7213Z" fill="white"/>
<path fill-rule="evenodd" clip-rule="evenodd" d="M35.1829 54.7215C40.8873 54.7215 44.4944 51.6742 44.4944 46.2798V46.1151C44.4944 40.6384 40.6776 37.9206 34.6377 37.9206H27.752V39.7737H34.428C39.587 39.7737 42.2296 42.0797 42.2296 46.1151V46.2798C42.2296 50.3566 39.8387 52.8684 35.141 52.8684H27.717V39.817H25.4102V54.7215H35.1829ZM25.4102 37.8851V25.2788H42.3553V27.1731H27.717V37.8851H25.4102Z" fill="white"/>
</svg>
