<svg width="32" height="32" viewBox="0 0 32 32" fill="none" xmlns="http://www.w3.org/2000/svg">
<path d="M25.3346 20H6.66797C4.45883 20 2.66797 21.7909 2.66797 24C2.66797 26.2091 4.45883 28 6.66797 28H25.3346C27.5438 28 29.3346 26.2091 29.3346 24C29.3346 21.7909 27.5438 20 25.3346 20Z" stroke="#676767" stroke-width="1.5"/>
<path d="M8 12C8 8.22876 8 6.34315 9.17157 5.17157C10.3431 4 12.2288 4 16 4C19.7712 4 21.6568 4 22.8284 5.17157C24 6.34315 24 8.22876 24 12C24 15.7712 24 17.6568 22.8284 18.8284C21.6568 20 19.7712 20 16 20C12.2288 20 10.3431 20 9.17157 18.8284C8 17.6568 8 15.7712 8 12Z" stroke="#676767" stroke-width="1.5"/>
<path d="M15.9927 24H16.0047M9.33203 24H9.34399M22.6534 24H22.6654" stroke="#676767" stroke-width="2" stroke-linecap="round" stroke-linejoin="round"/>
<path d="M14 8H18" stroke="#676767" stroke-width="1.5" stroke-linecap="round" stroke-linejoin="round"/>
</svg>
