<svg width="1080" height="161" viewBox="0 0 1080 161" fill="none" xmlns="http://www.w3.org/2000/svg">
<path fill-rule="evenodd" clip-rule="evenodd" d="M377.455 76.5526C394.996 71.7093 404.232 59.8459 404.232 42.4842V41.5946C404.232 13.0254 384.286 1.81714 356.628 1.81714H312.119V72.5751H324.162V11.7382H356.39C379.43 11.7382 392.093 21.0973 392.093 41.4308V42.2966C392.093 62.0919 380.692 72.715 356.818 72.715H324.068V82.4023H358.723C386.118 82.4023 399.947 93.3991 399.947 114.926V115.816C399.947 137.576 387.428 149.229 362.888 149.229H324.068V82.2616H312.023V158.986H363.173C392.974 158.986 411.801 144.479 411.801 115.652V114.762C411.753 93.5629 400.805 80.9045 377.455 76.5526Z" fill="white" fill-opacity="0.5"/>
<path fill-rule="evenodd" clip-rule="evenodd" d="M462.391 83.3611H525.56V73.2532H462.391V11.9251H540.223V1.81714H450.133V73.2532H462.391V83.3611H450.133V158.986H544.197V148.854H462.391V83.3611Z" fill="white" fill-opacity="0.5"/>
<path fill-rule="evenodd" clip-rule="evenodd" d="M640.536 86.4498C664.004 83.1274 681.208 71.1472 681.208 44.917V44.0043C681.208 13.5867 658.339 1.88708 627.825 1.88708H584.863V77.4883H597.145V87.3855H584.863V159.056H597.145V87.3156H627.635L640.536 86.4498ZM597.145 77.4175V11.9012H628.468C652.793 11.9012 668.812 19.8101 668.812 44.0043V44.8939C668.812 67.8248 653.674 77.4175 628.468 77.4175H597.145Z" fill="white" fill-opacity="0.5"/>
<path fill-rule="evenodd" clip-rule="evenodd" d="M748.676 158.986H760.961V12.1356H748.676V2.02771H699.102V12.1356H748.676V158.986Z" fill="white" fill-opacity="0.5"/>
<path fill-rule="evenodd" clip-rule="evenodd" d="M862.503 83.3611H925.648V73.2532H862.503V11.9251H940.31V1.81714H850.227V73.2532H862.503V83.3611H850.227V158.986H944.289V148.854H862.503V83.3611Z" fill="white" fill-opacity="0.5"/>
<path d="M810.539 2.02771H760.965V12.1356H810.539V2.02771Z" fill="white" fill-opacity="0.5"/>
<path fill-rule="evenodd" clip-rule="evenodd" d="M1022.35 69.7241L979.872 1.55078H966.512L1015.48 80.7415L1022.35 69.7241ZM1022.35 91.8432L1029.21 80.7415L1078.18 159.333H1064.08L1022.35 91.8432Z" fill="white" fill-opacity="0.5"/>
<path fill-rule="evenodd" clip-rule="evenodd" d="M1022.35 69.7241L1064.83 1.55078H1078.18L1029.21 80.7415L1022.35 69.7241ZM1022.35 91.8432L1015.48 80.7415L966.512 159.333H980.616L1022.35 91.8432Z" fill="white" fill-opacity="0.5"/>
<path d="M157.729 158.966H145.188V1.55005H157.729V141.793L254.478 1.55005H266.795V158.966H254.254V18.7226L157.729 158.966Z" fill="white" fill-opacity="0.5"/>
<path fill-rule="evenodd" clip-rule="evenodd" d="M54.442 158.966C84.9404 158.966 104.226 142.674 104.226 113.833V112.952C104.226 83.6704 83.8195 69.1398 51.5265 69.1398H14.712V79.0474H50.4056C77.9886 79.0474 92.117 91.3766 92.117 112.952V113.833C92.117 135.629 79.3344 149.059 54.218 149.059H14.5252V79.2787H2.19141V158.966H54.442ZM2.19141 68.9498V1.55005H92.789V11.6779H14.5252V68.9498H2.19141Z" fill="white" fill-opacity="0.5"/>
</svg>
