<svg width="60" height="90" viewBox="0 0 60 90" fill="none" xmlns="http://www.w3.org/2000/svg">
<path d="M60 30.8406C60 48.9505 35.4904 83.188 30.7783 89.6029C30.3881 90.1341 29.6119 90.1341 29.2217 89.6029C24.5096 83.188 0 48.9505 0 30.8406C0 13.8078 13.4315 0 30 0C46.5685 0 60 13.8078 60 30.8406Z" fill="#013341"/>
<circle cx="30" cy="30" r="26" fill="white"/>
<path fill-rule="evenodd" clip-rule="evenodd" d="M12.1328 25.2046L16.1262 33.4377L30.5819 42.1495L31.1045 41.3874L24.7577 37.256L24.8713 37.0857L31.3465 41.0064L31.6853 40.5581L23.4028 27.0373L27.9401 25.8285L25.4098 24.9501L26.652 24.8236L27.8867 25.0936L26.9507 24.4991L27.6979 24.392L29.8695 25.1613L29.723 24.1606L32.9688 24.704L35.6342 26.7227L35.938 27.9798L37.708 28.6068L40.5432 25.7971L44.3304 26.9752L46.0274 26.3774L47.3419 28.2418L44.7245 31.7273L43.1168 31.427L46.901 28.5461L45.8346 27.0373L44.4942 27.5713L40.7513 26.5639L39.2415 28.3324L42.2744 31.398L36.4531 32.0935L33.0478 31.427L32.0341 30.0906L31.6207 30.2922L32.9699 32.328L36.303 33.2813L34.8553 41.365L37.9889 41.3874L47.999 28.357L46.571 25.9006L36.8879 19.646L36.5976 19.9823L38.0737 21.103L37.8801 21.3047L34.1273 19.2584L29.5529 18.0322H24.2563H21.8606L21.7154 18.3685L23.4028 18.8019V19.0661L18.5291 19.2584L12.9506 24.4904L17.8115 31.1434L17.5246 31.2649L12.6168 24.7788L12.1328 25.2046ZM30.4549 26.0372L34.0024 27.294C34.0024 27.294 34.1347 26.9561 34.1297 26.5741H34.1295L34.1273 26.5748L34.122 26.5766L34.1201 26.5772L34.1199 26.5773L34.1181 26.5778L34.1124 26.5795L34.1111 26.5799L34.1104 26.5801L34.1103 26.5801L34.1102 26.5802H34.1101L34.11 26.5802L34.1098 26.5803H34.1097L34.1096 26.5803L34.1094 26.5804L34.103 26.5821L34.1029 26.5822H34.1027L34.1026 26.5822L34.1023 26.5823L34.1021 26.5824H34.1019L34.1018 26.5825H34.1017C34.0995 26.5831 34.0972 26.5836 34.0949 26.5842L34.0948 26.5842L34.0945 26.5843L34.0944 26.5843H34.0943L34.0941 26.5844L34.094 26.5844H34.0939L34.0938 26.5845L34.0933 26.5846L34.0927 26.5847H34.0925L34.0868 26.5861L34.0848 26.5865L34.0843 26.5866L34.0835 26.5867L34.0756 26.5883L34.0752 26.5884L34.0747 26.5886L34.0669 26.5899L34.0653 26.5902H34.0652L34.065 26.5903H34.0649L34.0648 26.5903H34.0646H34.0645L34.064 26.5904H34.0638L34.0581 26.5913H34.0579L34.0578 26.5914H34.0577H34.0575L34.0574 26.5914H34.0573L34.0571 26.5915H34.057H34.0569L34.0567 26.5915L34.0563 26.5916C34.0536 26.5919 34.0509 26.5923 34.0482 26.5926H34.0481L34.0473 26.5927H34.0471L34.0469 26.5928H34.0468H34.0467H34.0465L34.0464 26.5929H34.0463H34.0461L34.046 26.5929L34.0387 26.5936H34.0386H34.0385L34.0384 26.5937H34.038L34.0377 26.5938H34.0375L34.0372 26.5938H34.0369L34.0299 26.5944H34.0296L34.0293 26.5944H34.029L34.0287 26.5945H34.0284H34.0282L34.0279 26.5945H34.0276L34.0205 26.595H34.0202L34.0199 26.595H34.0196H34.0193L34.0189 26.5951H34.0188H34.0184H34.0181C34.0153 26.5952 34.0124 26.5953 34.0096 26.5954H34.0093H34.009C34.006 26.5955 34.0031 26.5955 34.0001 26.5955H33.9999H33.9996C33.7924 26.5955 33.6245 26.4399 33.6245 26.2481V26.2479V26.2478V26.2477V26.2476V26.2474C33.6245 26.245 33.6245 26.2426 33.6246 26.2401V26.24V26.2399V26.2398V26.2396V26.2391L33.6247 26.2368L33.6249 26.2315L33.6251 26.2278L33.6255 26.2228L33.6257 26.2198L33.6263 26.2142V26.2139L33.6265 26.2114L33.6272 26.2063L33.6276 26.203V26.2028L33.6286 26.1963L33.6288 26.1951L33.6289 26.1947V26.1945L33.629 26.1944V26.1943C33.6293 26.1923 33.6296 26.1902 33.63 26.1882V26.1881V26.188L33.6301 26.1879V26.1878L33.6302 26.1876V26.1875V26.1874L33.6302 26.1873V26.1872V26.1871L33.6303 26.1866L33.6308 26.1843L33.632 26.1786L33.6326 26.176L33.6336 26.1713L33.6337 26.1712L33.6347 26.1672L33.6358 26.1631L33.6359 26.1627L33.6366 26.1602L33.6367 26.1599L33.6382 26.1547L33.639 26.1521L33.6407 26.1468L33.6413 26.1448L33.6415 26.1442L33.6433 26.1392L33.6441 26.1368L33.6442 26.1366L33.645 26.1344L33.647 26.129L33.6472 26.1286L33.6481 26.1265L33.6499 26.122L33.6515 26.1185L33.6516 26.118L33.6531 26.1148L33.6549 26.1108L33.655 26.1107L33.6563 26.1077L33.6585 26.1033L33.6597 26.101L33.6621 26.0963L33.6622 26.0961L33.6655 26.0899L33.6657 26.0895L33.6694 26.0831L33.6697 26.0824L33.6713 26.0798L33.6735 26.0762L33.6737 26.076L33.6759 26.0724L33.6778 26.0695L33.6778 26.0694L33.68 26.066V26.066L33.6824 26.0625L33.6826 26.0623L33.6846 26.0593L33.6868 26.0563L33.687 26.0559L33.6894 26.0527L33.6894 26.0526L33.6912 26.0503L33.6917 26.0495L33.6941 26.0464L33.6941 26.0464L33.6943 26.0462L33.6989 26.0404L33.7024 26.0361L33.703 26.0353L33.7036 26.0345L33.7038 26.0344L33.7077 26.0299L33.7087 26.0286L33.7089 26.0285L33.7123 26.0247L33.7142 26.0225L33.7181 26.0184L33.7191 26.0174L33.7192 26.0173L33.7234 26.013L33.725 26.0114L33.7251 26.0113L33.729 26.0075L33.7299 26.0066L33.7302 26.0063L33.7304 26.0061L33.7306 26.0059L33.7309 26.0057L33.7311 26.0054L33.7313 26.0052L33.7315 26.005L33.7318 26.0048L33.7321 26.0045L33.7323 26.0043L33.7325 26.0041L33.7327 26.0039L33.733 26.0037L33.7332 26.0034L33.7335 26.0032L33.7346 26.0021L33.7349 26.0019L33.7352 26.0017L33.7354 26.0015L33.7356 26.0013L33.7358 26.001L33.7361 26.0008L33.7364 26.0006L33.7366 26.0004L33.7368 26.0001L33.737 25.9999L33.7373 25.9997L33.7376 25.9995L33.7385 25.9986L33.7388 25.9984L33.739 25.9982L33.7392 25.998L33.7395 25.9978L33.7397 25.9975L33.74 25.9973L33.7402 25.9971L33.7409 25.9964L33.7412 25.9962L33.7415 25.996L33.7417 25.9958L33.7419 25.9956L33.7422 25.9954L33.7424 25.9952L33.7427 25.9949L33.7429 25.9947L33.7432 25.9945L33.7434 25.9943L33.7436 25.9941L33.7439 25.9939L33.7449 25.993L33.7451 25.9928L33.7454 25.9926L33.7459 25.9921L33.7507 25.9882L33.7522 25.9869L33.7563 25.9836L33.7567 25.9833L33.7584 25.982L33.7585 25.9819L33.763 25.9784L33.7644 25.9774L33.7649 25.9771L33.7653 25.9767L33.7658 25.9764L33.7663 25.9761L33.7695 25.9737L33.7699 25.9733L33.7704 25.973L33.7709 25.9727L33.7714 25.9723L33.7718 25.972L33.7723 25.9717L33.7727 25.9714L33.7732 25.971L33.7737 25.9707L33.7765 25.9687L33.777 25.9684L33.7775 25.9681L33.7779 25.9678L33.7784 25.9675L33.7789 25.9671L33.7794 25.9668L33.7798 25.9665L33.7803 25.9662L33.7808 25.9659L33.7837 25.964L33.7841 25.9636L33.7846 25.9633L33.7851 25.963L33.7856 25.9627L33.7861 25.9624L33.7866 25.9621L33.7871 25.9618L33.7876 25.9615L33.788 25.9611L33.7885 25.9608L33.789 25.9605L33.7905 25.9596L33.7909 25.9593L33.7915 25.959L33.7919 25.9587L33.7924 25.9584L33.7929 25.9581L33.7934 25.9578L33.7944 25.9572L33.7949 25.9569L33.7952 25.9567L33.8008 25.9534L33.8009 25.9533L33.8023 25.9525L33.8026 25.9523L33.8079 25.9494L33.8082 25.9492L33.8086 25.949L33.8093 25.9486L33.8101 25.9482L33.8108 25.9478L33.8145 25.9459L33.8152 25.9454L33.8159 25.9451L33.8167 25.9447L33.8174 25.9443L33.8182 25.9439L33.8227 25.9417L33.8234 25.9413L33.8242 25.9409L33.8249 25.9406L33.8257 25.9402L33.8264 25.9398L33.8272 25.9394L33.8279 25.9391L33.831 25.9376L33.8317 25.9373L33.8325 25.937L33.8333 25.9366L33.834 25.9363L33.8348 25.9359L33.8394 25.9338L33.8402 25.9335L33.841 25.9332L33.8417 25.9328L33.8425 25.9325L33.8432 25.9322L33.8479 25.9302L33.8487 25.9299L33.8495 25.9296L33.8503 25.9293L33.8511 25.9289L33.8519 25.9286L33.855 25.9274L33.8558 25.9271L33.8566 25.9268L33.8574 25.9265L33.858 25.9262L33.8589 25.9259L33.8599 25.9255L33.8608 25.9252L33.8635 25.9242L33.8644 25.9239L33.8654 25.9236L33.8663 25.9233L33.8672 25.9229L33.8681 25.9226L33.869 25.9223L33.8718 25.9213L33.8727 25.921L33.8737 25.9207L33.8746 25.9204L33.8756 25.9201L33.8765 25.9198L33.8774 25.9195L33.8812 25.9183L33.8821 25.918L33.8831 25.9177L33.884 25.9175L33.8849 25.9172L33.8859 25.9169L33.8868 25.9166L33.8897 25.9158L33.8906 25.9155L33.8916 25.9153L33.8925 25.915L33.8935 25.9148L33.8945 25.9145L33.8983 25.9135L33.8993 25.9132L33.9002 25.913L33.9012 25.9128L33.9021 25.9125L33.9031 25.9123L33.9079 25.9111L33.9089 25.9109L33.9099 25.9106L33.9108 25.9104L33.9118 25.9102L33.9128 25.91L33.9177 25.909L33.9186 25.9088C33.5573 25.4543 32.6355 25.2442 30.4549 26.0372ZM37.5834 40.5504L38.1239 40.5176L44.3116 32.2773L42.77 31.9987L37.5834 40.5504ZM41.9369 31.9957L37.9889 32.4678L35.7943 40.6297L37.093 40.5721L41.9369 31.9957ZM21.1841 24.0903L22.6071 24.5944L23.1888 24.2927L22.6195 23.4824L22.6256 22.7387L24.016 23.3738L23.6993 22.6483C23.4569 22.0933 20.006 21.0451 21.1841 24.0903Z" fill="#012028"/>
</svg>
