<svg width="32" height="32" viewBox="0 0 32 32" fill="none" xmlns="http://www.w3.org/2000/svg">
<path d="M8.7701 20.6415C6.88374 21.7647 1.93782 24.0582 4.95022 26.9282C6.42175 28.33 8.06066 29.3327 10.1212 29.3327H21.8788C23.9393 29.3327 25.5783 28.33 27.0497 26.9282C30.0621 24.0582 25.1163 21.7647 23.2299 20.6415C18.8064 18.0075 13.1936 18.0075 8.7701 20.6415Z" stroke="#676767" stroke-width="1.5" stroke-linecap="round" stroke-linejoin="round"/>
<path d="M22 8.66602C22 11.9797 19.3137 14.666 16 14.666C12.6863 14.666 10 11.9797 10 8.66602C10 5.35231 12.6863 2.66602 16 2.66602C19.3137 2.66602 22 5.35231 22 8.66602Z" stroke="#676767" stroke-width="1.5"/>
</svg>
