<svg width="16" height="17" viewBox="0 0 16 17" fill="none" xmlns="http://www.w3.org/2000/svg">
<path fill-rule="evenodd" clip-rule="evenodd" d="M11.7284 2.23932L13.4025 3.6019C13.5642 3.75941 13.6548 3.97591 13.6535 4.20159C13.6522 4.42728 13.5591 4.64272 13.3957 4.79836L12.1235 6.34772L7.79385 11.6302C7.71888 11.7185 7.61797 11.7808 7.50549 11.8084L5.26063 12.3248C4.96277 12.3371 4.7059 12.1175 4.67188 11.8213L4.77689 9.60655C4.78467 9.49348 4.82944 9.3861 4.90428 9.30098L9.04711 4.25264L10.5061 2.47259C10.7896 2.08674 11.3227 1.98499 11.7284 2.23932Z" stroke="#676767" stroke-width="1.5" stroke-linecap="round" stroke-linejoin="round"/>
<path d="M1.60156 14.2528C1.18735 14.2528 0.851562 14.5886 0.851562 15.0028C0.851562 15.417 1.18735 15.7528 1.60156 15.7528V14.2528ZM13.394 15.7528C13.8082 15.7528 14.144 15.417 14.144 15.0028C14.144 14.5886 13.8082 14.2528 13.394 14.2528V15.7528ZM9.7422 3.97123C9.58717 3.58713 9.1501 3.40143 8.766 3.55647C8.3819 3.71151 8.1962 4.14857 8.35124 4.53267L9.7422 3.97123ZM12.2883 7.08119C12.6924 6.98991 12.9459 6.58839 12.8546 6.18435C12.7634 5.78032 12.3618 5.52678 11.9578 5.61806L12.2883 7.08119ZM1.60156 15.7528H13.394V14.2528H1.60156V15.7528ZM8.35124 4.53267C8.55603 5.04005 8.97558 5.76197 9.60265 6.3196C10.2429 6.88892 11.1643 7.33512 12.2883 7.08119L11.9578 5.61806C11.4473 5.73339 11.0027 5.55726 10.5994 5.19869C10.183 4.82841 9.88171 4.31687 9.7422 3.97123L8.35124 4.53267Z" fill="#676767"/>
</svg>
