<svg width="24" height="24" viewBox="0 0 24 24" fill="none" xmlns="http://www.w3.org/2000/svg">
<path d="M3 12C3 7.05171 7.05171 3 12 3C16.9483 3 21 7.05171 21 12C21 16.9483 16.9483 21 12 21C7.05171 21 3 16.9483 3 12Z" stroke="white" stroke-width="1.5"/>
<path d="M12.0996 15.25C8.45738 15.25 6.39344 12.8323 6.3125 8.75H8.13362C8.17409 11.7226 9.55005 12.9909 10.6023 13.2287V8.75H12.302V11.3262C13.3542 11.2073 14.4468 10.0579 14.8111 8.75H16.5108C16.2275 10.3354 15.0134 11.5244 14.1636 12C15.0134 12.3963 16.3894 13.4268 16.875 15.25H14.9729C14.5682 14.0213 13.5565 13.0701 12.221 12.9116V15.25H12.0996Z" fill="white"/>
</svg>
