<svg width="24" height="24" viewBox="0 0 24 24" fill="none" xmlns="http://www.w3.org/2000/svg">
<path d="M3 21L4.26525 16.3777C3.4845 15.0247 3.07425 13.491 3.075 11.9182C3.07725 7.00124 7.07849 3 11.9947 3C14.3805 3.00075 16.62 3.93 18.3045 5.61599C19.9882 7.30199 20.9152 9.54299 20.9145 11.9265C20.9122 16.8442 16.911 20.8455 11.9947 20.8455C10.5022 20.8447 9.03149 20.4705 7.72874 19.7595L3 21ZM7.94774 18.1447C9.20474 18.891 10.4047 19.338 11.9917 19.3387C16.0777 19.3387 19.4062 16.0132 19.4085 11.925C19.41 7.82849 16.0972 4.5075 11.9977 4.506C7.90874 4.506 4.5825 7.83149 4.581 11.919C4.58025 13.5877 5.06925 14.8372 5.89049 16.1445L5.14125 18.8805L7.94774 18.1447ZM16.488 14.0467C16.4325 13.9537 16.284 13.8982 16.0605 13.7865C15.8377 13.6747 14.742 13.1355 14.5372 13.0612C14.3332 12.987 14.1847 12.9495 14.0355 13.173C13.887 13.3957 13.4595 13.8982 13.3297 14.0467C13.2 14.1952 13.0695 14.214 12.8467 14.1022C12.624 13.9905 11.9055 13.7557 11.0542 12.996C10.392 12.405 9.94423 11.6752 9.81448 11.4517C9.68473 11.229 9.80098 11.1082 9.91198 10.9972C10.0125 10.8975 10.1347 10.737 10.2465 10.6065C10.3597 10.4775 10.3965 10.3845 10.4715 10.2352C10.5457 10.0867 10.509 9.95623 10.4527 9.84449C10.3965 9.73349 9.95098 8.63624 9.76573 8.18999C9.58424 7.75574 9.40049 7.81424 9.26399 7.80749L8.83649 7.79999C8.68799 7.79999 8.44649 7.85549 8.24249 8.07899C8.03849 8.30249 7.46249 8.84099 7.46249 9.93823C7.46249 11.0355 8.26124 12.0952 8.37224 12.2437C8.48399 12.3922 9.94348 14.6437 12.1792 15.609C12.711 15.8385 13.1265 15.9757 13.4497 16.0785C13.9837 16.248 14.4697 16.224 14.8537 16.167C15.282 16.1032 16.1722 15.6277 16.3582 15.1072C16.5442 14.586 16.5442 14.1397 16.488 14.0467Z" fill="white"/>
</svg>
