

<svg width="24" height="24" viewBox="0 0 24 24" fill="none" xmlns="http://www.w3.org/2000/svg">
<path d="M3.29651 6.42855L3.29647 6.42852L3.2908 6.43487C3.04955 6.70499 2.88597 7.05756 2.76748 7.40447C2.64521 7.76244 2.55125 8.17413 2.47883 8.6098C2.3339 9.4817 2.26501 10.513 2.25222 11.5348C2.23939 12.5593 2.28273 13.5945 2.36862 14.4798C2.45149 15.3341 2.58025 16.1216 2.76719 16.6175C2.91369 17.0351 3.16122 17.4101 3.48616 17.7127C3.81217 18.0164 4.20681 18.2387 4.63593 18.3639C4.91237 18.4486 5.33637 18.5052 5.80115 18.5492C6.2933 18.5957 6.90272 18.6339 7.58459 18.6639C8.94955 18.7241 10.6304 18.7531 12.2958 18.7497C13.9607 18.7464 15.6195 18.7108 16.9397 18.6407C17.5988 18.6057 18.1827 18.5617 18.6447 18.5075C18.8752 18.4804 19.0847 18.4497 19.2627 18.4142C19.425 18.3819 19.6147 18.3356 19.7748 18.2596C20.3446 17.9912 20.8109 17.5443 21.0919 16.9836L21.0919 16.9836L21.0944 16.9786C21.3469 16.4652 21.4995 15.6927 21.596 14.887C21.6958 14.0537 21.7454 13.0892 21.7497 12.1314C21.754 11.1731 21.7128 10.2073 21.6273 9.3701C21.5443 8.55745 21.413 7.79536 21.2075 7.28424C21.0515 6.88537 20.8045 6.52826 20.4875 6.23808C20.1721 5.94934 19.7952 5.73401 19.3858 5.60557C19.1516 5.52715 18.8013 5.48037 18.4462 5.44509C18.0547 5.4062 17.5636 5.3737 17.0064 5.34703C15.8905 5.29362 14.4808 5.26229 13.0136 5.25297C10.0978 5.23443 6.89725 5.3024 5.29738 5.46538C4.53168 5.52251 3.81207 5.8643 3.29651 6.42855ZM10.528 10.2394L13.657 11.8044L10.528 13.3574V10.2394Z" stroke="#676767" stroke-width="1.5"/>
</svg>
