<svg width="24" height="24" viewBox="0 0 24 24" fill="none" xmlns="http://www.w3.org/2000/svg">
<path d="M12.8153 4.38648C12.8153 4.38648 12.8309 6.38804 12.806 6.73942L14.0532 6.48454C14.1923 6.45659 14.3231 6.39695 14.4355 6.31025C14.5479 6.22354 14.6387 6.11211 14.7011 5.9846C14.7634 5.85708 14.7955 5.71693 14.7948 5.575C14.7942 5.43308 14.7609 5.2932 14.6974 5.16625L14.5629 4.89674C14.4862 4.74334 14.3683 4.61435 14.2224 4.52422C14.0765 4.43409 13.9084 4.3864 13.7369 4.38648H12.8153ZM11.652 17.0971L11.7855 17.6303L11.9566 17.6732C12.3818 17.7795 12.7813 17.9701 13.1316 18.2336L13.5663 17.7989C13.6468 17.7183 13.7107 17.6227 13.7543 17.5174C13.7978 17.4121 13.8202 17.2993 13.8202 17.1853V16.9504C13.8202 16.8185 13.7902 16.6884 13.7324 16.5698C13.6745 16.4513 13.5904 16.3475 13.4864 16.2663C13.3824 16.1852 13.2613 16.1288 13.1323 16.1015C13.0032 16.0742 12.8696 16.0767 12.7417 16.1088L11.5365 16.41C11.5477 16.4777 11.556 16.5464 11.5681 16.6142L11.652 17.0971ZM13.3329 13.3343V13.1588C13.3329 12.9003 13.2302 12.6524 13.0474 12.4696C12.8646 12.2868 12.6167 12.1841 12.3581 12.1841H11.6198C11.6198 12.1841 11.3834 14.4601 11.3834 14.5234L12.5492 14.2905C12.7702 14.2463 12.9691 14.1269 13.112 13.9525C13.2549 13.7782 13.3329 13.5597 13.3329 13.3343ZM14.3076 9.4725C14.3075 9.33276 14.275 9.19495 14.2125 9.06994L14.0688 8.78289C13.9941 8.63338 13.8793 8.50762 13.7372 8.41972C13.595 8.33183 13.4312 8.28529 13.2641 8.28531H12.613C12.5643 8.54848 12.0219 10.6158 12.0219 10.6158L13.5561 10.36C13.766 10.3248 13.9568 10.2164 14.0944 10.0539C14.2319 9.8914 14.3075 9.68541 14.3076 9.4725ZM11.8191 0.3512L12.4415 2.29476L13.1852 2.10908C13.3666 2.06348 13.5276 1.95859 13.6427 1.81106C13.7577 1.66352 13.8202 1.4818 13.8202 1.29472V0.838553C13.8203 0.705658 13.7887 0.574656 13.7282 0.456354C13.6676 0.338052 13.5798 0.235841 13.472 0.158152C13.3642 0.0804631 13.2394 0.0295235 13.108 0.00953553C12.9767 -0.0104524 12.8424 0.00108399 12.7164 0.0431932L11.8191 0.3512ZM8.39109 2.28502L8.43106 2.39467C8.52219 2.64468 8.59919 2.89811 8.66596 3.15397L11.402 2.24213C11.2881 1.81548 11.1538 1.39457 10.9994 0.98086L8.39109 2.28502ZM8.85408 4.11893C8.89843 4.43083 8.92572 4.74517 8.93498 5.06147L11.806 4.48736C11.7654 4.05434 11.7041 3.62351 11.6222 3.19637L8.85408 4.11893ZM11.7105 7.79795H8.5758C8.5166 8.00048 8.44995 8.20076 8.37599 8.39837L8.28144 8.64448L11.4648 8.9983C11.5633 8.6016 11.6486 8.20148 11.7105 7.79795ZM10.8595 11.1485C10.8946 11.0174 10.9229 10.8848 10.9624 10.7547L11.2036 9.9501L7.91934 9.58508L7.46317 10.7708L10.8595 11.1485ZM8.81217 6.82325H11.8245C11.8532 6.46407 11.8708 6.10391 11.8708 5.74279C11.8708 5.65165 11.8645 5.561 11.863 5.46987L8.91305 6.06005C8.89095 6.31584 8.85729 6.5705 8.81217 6.82325ZM13.7759 22.5565L13.4298 22.5068C13.1329 22.4632 12.8614 22.3146 12.6647 22.0879C12.4681 21.8612 12.3593 21.5714 12.3581 21.2713C12.3581 20.938 12.4878 20.6246 12.7237 20.3887L13.2481 19.8638C13.1011 19.5561 12.8878 19.2848 12.6234 19.0695C12.3591 18.8541 12.0503 18.6999 11.7192 18.6182L11.5092 18.5655L8.76977 20.9136C8.8298 20.9409 8.89485 20.9555 8.96081 20.9565C9.71474 20.9565 10.4351 21.3166 10.8873 21.92L11.1407 22.2577C11.3008 22.4704 11.5025 22.6482 11.7337 22.7803C11.9648 22.9123 12.2204 22.9959 12.4849 23.0258L14.7403 23.2763C14.9099 23.2953 15.0742 23.3318 15.2326 23.383C14.8674 22.9351 14.3477 22.6402 13.7759 22.5565ZM10.8079 17.7395L7.35547 18.7751C7.57819 19.2561 7.84136 19.7206 8.14888 20.1631L10.8376 17.8584L10.8079 17.7395Z" fill="#787B83"/>
<path d="M16.4367 21.1734L15.8806 20.8025L15.7271 20.495C15.6503 20.3404 15.5318 20.2104 15.3849 20.1197C15.238 20.029 15.0687 19.9813 14.8961 19.9818C14.652 19.9818 14.4122 20.0812 14.2392 20.2537L14.1666 20.3264L13.4146 21.0783C13.3636 21.1297 13.3349 21.199 13.3347 21.2713C13.3347 21.4063 13.4355 21.5228 13.5691 21.5418L13.9151 21.5915C15.2373 21.7801 16.2919 22.7568 16.6301 24C16.8354 23.8188 16.9963 23.5928 17.1003 23.3394C17.2044 23.0861 17.2487 22.8122 17.23 22.539C17.2113 22.2658 17.1301 22.0005 16.9925 21.7637C16.8549 21.527 16.6647 21.325 16.4367 21.1734ZM10.5085 16.1244L6.64964 16.5104C6.72908 16.9719 6.84361 17.4247 6.99274 17.8667L10.6099 16.7814C10.5703 16.5633 10.5365 16.3443 10.5085 16.1244ZM10.4105 14.5269C10.4105 14.3953 10.4208 14.2647 10.4247 14.1336H6.54876C6.52444 14.4039 6.51208 14.6751 6.51172 14.9465C6.51172 15.1463 6.52195 15.3442 6.53462 15.542L10.4295 15.1526C10.4183 14.9442 10.412 14.7356 10.4105 14.5269ZM10.6445 12.1047L7.10531 11.7114C6.92646 12.1842 6.79048 12.6676 6.69253 13.1589H10.4905C10.5275 12.8055 10.5792 12.4542 10.6445 12.1047Z" fill="#787B83"/>
</svg>
