<svg width="18" height="18" viewBox="0 0 18 18" fill="none" xmlns="http://www.w3.org/2000/svg">
<g clip-path="url(#clip0_894_31577)">
<path d="M17.2066 5.12767L15.5701 3.49042L16.2803 2.78017C16.352 2.71098 16.4091 2.62822 16.4484 2.53672C16.4877 2.44522 16.5084 2.3468 16.5093 2.24722C16.5101 2.14763 16.4912 2.04887 16.4534 1.9567C16.4157 1.86453 16.36 1.78079 16.2896 1.71037C16.2192 1.63995 16.1355 1.58426 16.0433 1.54655C15.9511 1.50884 15.8524 1.48986 15.7528 1.49073C15.6532 1.49159 15.5548 1.51228 15.4633 1.55159C15.3718 1.5909 15.289 1.64803 15.2198 1.71967L14.5096 2.42992L12.8723 0.793415C12.3563 0.301657 11.6708 0.0273438 10.958 0.0273438C10.2451 0.0273437 9.55962 0.301657 9.04358 0.793415C8.792 1.04479 8.59242 1.34328 8.45625 1.67182C8.32009 2.00037 8.25 2.35252 8.25 2.70817C8.25 3.06381 8.32009 3.41597 8.45625 3.74451C8.59242 4.07305 8.792 4.37154 9.04358 4.62292L10.6801 6.25942L6.25958 10.6799L4.62233 9.04342C4.10628 8.55166 3.42079 8.27734 2.70795 8.27734C1.99512 8.27734 1.30962 8.55166 0.793578 9.04342C0.541996 9.29479 0.342419 9.59328 0.206253 9.92182C0.0700861 10.2504 0 10.6025 0 10.9582C0 11.3138 0.0700861 11.666 0.206253 11.9945C0.342419 12.3231 0.541996 12.6215 0.793578 12.8729L2.43008 14.5094L1.71983 15.2197C1.6482 15.2889 1.59106 15.3716 1.55175 15.4631C1.51245 15.5546 1.49176 15.653 1.49089 15.7526C1.49002 15.8522 1.509 15.951 1.54671 16.0431C1.58442 16.1353 1.64011 16.219 1.71053 16.2895C1.78095 16.3599 1.86469 16.4156 1.95686 16.4533C2.04903 16.491 2.14779 16.51 2.24738 16.5091C2.34696 16.5082 2.44538 16.4875 2.53688 16.4482C2.62838 16.4089 2.71114 16.3518 2.78033 16.2802L3.49058 15.5699L5.12783 17.2064C5.37919 17.4579 5.67763 17.6574 6.0061 17.7935C6.33458 17.9296 6.68665 17.9996 7.0422 17.9996C7.39776 17.9996 7.74983 17.9296 8.0783 17.7935C8.40678 17.6574 8.70522 17.4579 8.95658 17.2064C9.20814 16.9551 9.4077 16.6567 9.54385 16.3282C9.68001 15.9997 9.75009 15.6476 9.75009 15.292C9.75009 14.9365 9.68001 14.5844 9.54385 14.2559C9.4077 13.9274 9.20814 13.629 8.95658 13.3777L7.32008 11.7412L11.7451 7.31992L13.3816 8.95642C13.6329 9.20789 13.9314 9.40737 14.2599 9.54347C14.5883 9.67957 14.9404 9.74962 15.296 9.74962C15.6515 9.74962 16.0036 9.67957 16.3321 9.54347C16.6605 9.40737 16.959 9.20789 17.2103 8.95642C17.4619 8.70511 17.6614 8.40668 17.7976 8.0782C17.9338 7.74972 18.0038 7.39762 18.0038 7.04204C18.0038 6.68646 17.9338 6.33436 17.7976 6.00588C17.6614 5.6774 17.4619 5.37898 17.2103 5.12767H17.2066Z" fill="#787B83"/>
</g>
<defs>
<clipPath id="clip0_894_31577">
<rect width="18" height="18" fill="white"/>
</clipPath>
</defs>
</svg>
