<svg width="18" height="18" viewBox="0 0 18 18" fill="none" xmlns="http://www.w3.org/2000/svg">
<g clip-path="url(#clip0_894_31562)">
<path d="M9.83841 0.0441387C11.9263 0.236526 13.881 1.15353 15.3636 2.63615C16.8463 4.11877 17.7633 6.0735 17.9557 8.16139C16.8516 8.32586 15.7243 8.2296 14.664 7.88031C13.6038 7.53102 12.6401 6.93841 11.8499 6.14989C11.0612 5.35988 10.4684 4.39614 10.1191 3.33586C9.76984 2.27559 9.6737 1.14825 9.83841 0.0441387ZM16.9139 9.74989C15.688 9.75044 14.4759 9.49029 13.3582 8.98671C12.2405 8.48314 11.2426 7.74764 10.4308 6.82901C9.61898 5.91039 9.01178 4.82963 8.64949 3.65846C8.2872 2.48728 8.17809 1.25245 8.32941 0.0358887C6.1784 0.189903 4.15519 1.11491 2.63148 2.64096C1.10776 4.16702 0.185866 6.19164 0.0351562 8.34289C1.34109 8.16158 2.67127 8.28549 3.92125 8.70486C5.17123 9.12424 6.30698 9.82767 7.23931 10.7599C8.17163 11.6922 8.87515 12.8279 9.29463 14.0778C9.7141 15.3278 9.83811 16.6579 9.65691 17.9639C11.8066 17.8137 13.8301 16.8933 15.3559 15.3715C16.8816 13.8497 17.8074 11.8287 17.9632 9.67939C17.6152 9.72409 17.2648 9.74764 16.9139 9.74989ZM6.17916 11.8206C5.38621 11.0293 4.41635 10.4381 3.3497 10.0957C2.28305 9.75341 1.15025 9.66982 0.0449063 9.85189C0.240891 11.9339 1.15724 13.8822 2.63592 15.3609C4.11461 16.8396 6.06293 17.7559 8.14491 17.9519C8.32717 16.8472 8.24396 15.7151 7.90215 14.649C7.56034 13.5829 6.96974 12.6134 6.17916 11.8206Z" fill="#787B83"/>
</g>
<defs>
<clipPath id="clip0_894_31562">
<rect width="18" height="18" fill="white"/>
</clipPath>
</defs>
</svg>
