<svg width="18" height="18" viewBox="0 0 18 18" fill="none" xmlns="http://www.w3.org/2000/svg">
<g clip-path="url(#clip0_894_31567)">
<path d="M6.67352 12.066C7.25954 11.8658 7.79692 11.5446 8.25077 11.1233V13.1663C8.25187 14.111 7.9551 15.0321 7.40265 15.7985C6.85019 16.5649 6.07018 17.1376 5.17352 17.4352L3.94877 17.8433C3.64127 17.946 3.32177 17.9985 3.00152 17.9993H2.99702C2.20194 17.9958 1.4403 17.6789 0.877522 17.1172C0.598083 16.8396 0.37661 16.5092 0.225969 16.1452C0.0753285 15.7812 -0.00147491 15.3909 2.14512e-05 14.997C2.14512e-05 13.9455 0.120021 12.8932 0.356271 11.8702L1.73252 5.90625C1.92042 5.0785 2.38476 4.33949 3.049 3.81105C3.71324 3.2826 4.53772 2.99627 5.38652 2.99925H8.25002V7.79625C8.25002 9.09 7.42502 10.2337 6.19877 10.6425L4.26302 11.2875L4.73777 12.7103L6.67352 12.066ZM17.6445 11.871L16.2683 5.90625C16.0804 5.07858 15.616 4.33966 14.9517 3.81134C14.2875 3.28302 13.463 2.99684 12.6143 3H9.75077V7.797C9.75077 9.09075 10.5758 10.2345 11.802 10.6432L13.7378 11.2882L13.263 12.711L11.3273 12.066C10.7413 11.8658 10.2039 11.5446 9.75002 11.1233V13.1663C9.74892 14.111 10.0457 15.0321 10.5981 15.7985C11.1506 16.5649 11.9306 17.1376 12.8273 17.4352C12.8273 17.4352 14.052 17.8433 14.052 17.8433C14.361 17.9468 14.706 18.0188 15.0038 17.9993C15.7989 17.9958 16.5605 17.6789 17.1233 17.1172C17.4027 16.8396 17.6242 16.5092 17.7748 16.1452C17.9255 15.7812 18.0023 15.3909 18.0008 14.997C18.0008 13.9455 17.8808 12.8932 17.6445 11.8702V11.871ZM9.75077 0H8.25077V3H9.75077V0Z" fill="#787B83"/>
</g>
<defs>
<clipPath id="clip0_894_31567">
<rect width="18" height="18" fill="white"/>
</clipPath>
</defs>
</svg>
