                <svg
                  width="732"
                  height="692"
                  viewBox="0 0 732 692"
                  fill="none"
                  xmlns="http://www.w3.org/2000/svg"
                >
                  <circle cx="334" cy="347" r="333.5" stroke="url(#paint0_linear_681_7940)" />
                  <g filter="url(#filter0_bd_681_7940)">
                    <circle cx="24" cy="24" r="24" transform="matrix(-1 0 0 1 601 99)" fill="#393C43" />
                    <path
                      d="M577.28 128.28C576.347 129.6 575.02 130.26 573.3 130.26C571.58 130.26 570.253 129.6 569.32 128.28C568.373 126.947 567.9 125.187 567.9 123C567.9 120.813 568.373 119.053 569.32 117.72C570.253 116.4 571.58 115.74 573.3 115.74C575.02 115.74 576.347 116.4 577.28 117.72C578.227 119.053 578.7 120.813 578.7 123C578.7 125.187 578.227 126.947 577.28 128.28ZM569.76 123C569.76 124.733 570.067 126.073 570.68 127.02C571.293 127.967 572.167 128.44 573.3 128.44C574.433 128.44 575.307 127.967 575.92 127.02C576.547 126.073 576.86 124.733 576.86 123C576.86 121.267 576.547 119.927 575.92 118.98C575.307 118.02 574.433 117.54 573.3 117.54C572.167 117.54 571.293 118.013 570.68 118.96C570.067 119.907 569.76 121.253 569.76 123ZM579.487 117.28L583.167 116H584.767V130H582.927V118L579.947 118.88L579.487 117.28Z"
                      fill="white"
                    />
                  </g>
                  <g filter="url(#filter1_bd_681_7940)">
                    <circle cx="24" cy="24" r="24" transform="matrix(-1 0 0 1 692 333)" fill="#393C43" />
                    <path
                      d="M666.28 362.28C665.347 363.6 664.02 364.26 662.3 364.26C660.58 364.26 659.253 363.6 658.32 362.28C657.373 360.947 656.9 359.187 656.9 357C656.9 354.813 657.373 353.053 658.32 351.72C659.253 350.4 660.58 349.74 662.3 349.74C664.02 349.74 665.347 350.4 666.28 351.72C667.227 353.053 667.7 354.813 667.7 357C667.7 359.187 667.227 360.947 666.28 362.28ZM658.76 357C658.76 358.733 659.067 360.073 659.68 361.02C660.293 361.967 661.167 362.44 662.3 362.44C663.433 362.44 664.307 361.967 664.92 361.02C665.547 360.073 665.86 358.733 665.86 357C665.86 355.267 665.547 353.927 664.92 352.98C664.307 352.02 663.433 351.54 662.3 351.54C661.167 351.54 660.293 352.013 659.68 352.96C659.067 353.907 658.76 355.253 658.76 357ZM678.104 364H669.064V362.48L674.004 357.44C675.324 356.12 675.984 354.987 675.984 354.04C675.984 353.267 675.744 352.66 675.264 352.22C674.797 351.767 674.21 351.54 673.504 351.54C672.184 351.54 671.224 352.167 670.624 353.42L669.064 352.5C669.49 351.607 670.09 350.927 670.864 350.46C671.637 349.98 672.51 349.74 673.484 349.74C674.67 349.74 675.69 350.127 676.544 350.9C677.41 351.687 677.844 352.727 677.844 354.02C677.844 355.433 677.01 356.973 675.344 358.64L671.764 362.2H678.104V364Z"
                      fill="white"
                    />
                  </g>
                  <g filter="url(#filter2_bd_681_7940)">
                    <circle cx="24" cy="24" r="24" transform="matrix(-1 0 0 1 593 565)" fill="#393C43" />
                    <path
                      d="M567.28 594.28C566.347 595.6 565.02 596.26 563.3 596.26C561.58 596.26 560.253 595.6 559.32 594.28C558.373 592.947 557.9 591.187 557.9 589C557.9 586.813 558.373 585.053 559.32 583.72C560.253 582.4 561.58 581.74 563.3 581.74C565.02 581.74 566.347 582.4 567.28 583.72C568.227 585.053 568.7 586.813 568.7 589C568.7 591.187 568.227 592.947 567.28 594.28ZM559.76 589C559.76 590.733 560.067 592.073 560.68 593.02C561.293 593.967 562.167 594.44 563.3 594.44C564.433 594.44 565.307 593.967 565.92 593.02C566.547 592.073 566.86 590.733 566.86 589C566.86 587.267 566.547 585.927 565.92 584.98C565.307 584.02 564.433 583.54 563.3 583.54C562.167 583.54 561.293 584.013 560.68 584.96C560.067 585.907 559.76 587.253 559.76 589ZM578.489 583.64L575.449 587.74C576.542 587.94 577.422 588.407 578.089 589.14C578.756 589.873 579.089 590.78 579.089 591.86C579.089 593.233 578.622 594.307 577.689 595.08C576.742 595.867 575.609 596.26 574.289 596.26C573.196 596.26 572.242 596.013 571.429 595.52C570.616 595.027 570.036 594.327 569.689 593.42L571.249 592.5C571.662 593.793 572.676 594.44 574.289 594.44C575.169 594.44 575.876 594.213 576.409 593.76C576.956 593.293 577.229 592.66 577.229 591.86C577.229 591.06 576.956 590.427 576.409 589.96C575.876 589.493 575.169 589.26 574.289 589.26H573.809L573.069 588.12L576.309 583.74H570.089V582H578.489V583.64Z"
                      fill="white"
                    />
                  </g>
                  <circle cx="13" cy="13" r="13" transform="matrix(-1 0 0 1 368 666)" fill="#E7E7E7" />
                  <circle cx="13" cy="13" r="13" transform="matrix(-1 0 0 1 368 0)" fill="#E7E7E7" />
                  <defs>
                    <filter
                      id="filter0_bd_681_7940"
                      x="495"
                      y="41"
                      width="164"
                      height="164"
                      filterUnits="userSpaceOnUse"
                      color-interpolation-filters="sRGB"
                    >
                      <feFlood flood-opacity="0" result="BackgroundImageFix" />
                      <feGaussianBlur in="BackgroundImageFix" stdDeviation="29" />
                      <feComposite in2="SourceAlpha" operator="in" result="effect1_backgroundBlur_681_7940" />
                      <feColorMatrix
                        in="SourceAlpha"
                        type="matrix"
                        values="0 0 0 0 0 0 0 0 0 0 0 0 0 0 0 0 0 0 127 0"
                        result="hardAlpha"
                      />
                      <feOffset dy="12" />
                      <feGaussianBlur stdDeviation="20" />
                      <feComposite in2="hardAlpha" operator="out" />
                      <feColorMatrix
                        type="matrix"
                        values="0 0 0 0 0.678431 0 0 0 0 0.678431 0 0 0 0 0.678431 0 0 0 0.16 0"
                      />
                      <feBlend
                        mode="normal"
                        in2="effect1_backgroundBlur_681_7940"
                        result="effect2_dropShadow_681_7940"
                      />
                      <feBlend
                        mode="normal"
                        in="SourceGraphic"
                        in2="effect2_dropShadow_681_7940"
                        result="shape"
                      />
                    </filter>
                    <filter
                      id="filter1_bd_681_7940"
                      x="586"
                      y="275"
                      width="164"
                      height="164"
                      filterUnits="userSpaceOnUse"
                      color-interpolation-filters="sRGB"
                    >
                      <feFlood flood-opacity="0" result="BackgroundImageFix" />
                      <feGaussianBlur in="BackgroundImageFix" stdDeviation="29" />
                      <feComposite in2="SourceAlpha" operator="in" result="effect1_backgroundBlur_681_7940" />
                      <feColorMatrix
                        in="SourceAlpha"
                        type="matrix"
                        values="0 0 0 0 0 0 0 0 0 0 0 0 0 0 0 0 0 0 127 0"
                        result="hardAlpha"
                      />
                      <feOffset dy="12" />
                      <feGaussianBlur stdDeviation="20" />
                      <feComposite in2="hardAlpha" operator="out" />
                      <feColorMatrix
                        type="matrix"
                        values="0 0 0 0 0.678431 0 0 0 0 0.678431 0 0 0 0 0.678431 0 0 0 0.16 0"
                      />
                      <feBlend
                        mode="normal"
                        in2="effect1_backgroundBlur_681_7940"
                        result="effect2_dropShadow_681_7940"
                      />
                      <feBlend
                        mode="normal"
                        in="SourceGraphic"
                        in2="effect2_dropShadow_681_7940"
                        result="shape"
                      />
                    </filter>
                    <filter
                      id="filter2_bd_681_7940"
                      x="487"
                      y="507"
                      width="164"
                      height="164"
                      filterUnits="userSpaceOnUse"
                      color-interpolation-filters="sRGB"
                    >
                      <feFlood flood-opacity="0" result="BackgroundImageFix" />
                      <feGaussianBlur in="BackgroundImageFix" stdDeviation="29" />
                      <feComposite in2="SourceAlpha" operator="in" result="effect1_backgroundBlur_681_7940" />
                      <feColorMatrix
                        in="SourceAlpha"
                        type="matrix"
                        values="0 0 0 0 0 0 0 0 0 0 0 0 0 0 0 0 0 0 127 0"
                        result="hardAlpha"
                      />
                      <feOffset dy="12" />
                      <feGaussianBlur stdDeviation="20" />
                      <feComposite in2="hardAlpha" operator="out" />
                      <feColorMatrix
                        type="matrix"
                        values="0 0 0 0 0.678431 0 0 0 0 0.678431 0 0 0 0 0.678431 0 0 0 0.16 0"
                      />
                      <feBlend
                        mode="normal"
                        in2="effect1_backgroundBlur_681_7940"
                        result="effect2_dropShadow_681_7940"
                      />
                      <feBlend
                        mode="normal"
                        in="SourceGraphic"
                        in2="effect2_dropShadow_681_7940"
                        result="shape"
                      />
                    </filter>
                    <linearGradient
                      id="paint0_linear_681_7940"
                      x1="385"
                      y1="321.5"
                      x2="354"
                      y2="321.5"
                      gradientUnits="userSpaceOnUse"
                    >
                      <stop stop-color="#DDDDDD" />
                      <stop offset="1" stop-color="#DDDDDD" stop-opacity="0" />
                    </linearGradient>
                  </defs>
                </svg>