<svg width="24" height="24" viewBox="0 0 24 24" fill="none" xmlns="http://www.w3.org/2000/svg">
<path d="M12.4806 5.53228C12.4806 4.06106 11.2879 2.86835 9.8167 2.86835H4.70179C3.23056 2.86835 2.03784 4.06106 2.03784 5.53228C2.03784 5.92251 2.03784 8.34938 2.03784 8.73961C2.03784 10.2114 3.23107 11.4041 4.7023 11.4041H5.65531C6.04554 11.4041 8.47238 11.4041 8.86261 11.4041H9.81567C11.2874 11.4041 12.4801 10.2108 12.4801 8.73961C12.4801 8.34938 12.4801 5.92251 12.4801 5.53228H12.4806Z" fill="white"/>
<path d="M12.4806 16.7656C12.4806 15.2943 11.2879 14.1016 9.8167 14.1016H4.70179C3.23056 14.1016 2.03784 15.2943 2.03784 16.7656C2.03784 17.1558 2.03784 19.5827 2.03784 19.9729C2.03784 21.4446 3.23107 22.6374 4.7023 22.6374H5.65531C6.04554 22.6374 8.47238 22.6374 8.86261 22.6374H9.81567C11.2874 22.6374 12.4801 21.4441 12.4801 19.9729C12.4801 19.5827 12.4801 17.1558 12.4801 16.7656H12.4806Z" fill="white"/>
<path d="M21.7338 15.383C21.9824 17.2518 20.9287 19.1201 19.093 19.8218L15.4529 21.2139C15.2043 19.3451 16.258 17.4768 18.0937 16.775L21.7338 15.383ZM22.3931 14.1016L17.7507 15.8771C15.1067 16.8883 13.7829 19.8512 14.7942 22.4952L19.4365 20.7198C22.0805 19.7085 23.4044 16.7456 22.3931 14.1016Z" fill="#6AA448"/>
<path d="M21.7338 4.1497C21.9824 6.0185 20.9287 7.88677 19.093 8.58856L15.4519 9.98111C15.3496 9.22268 15.4592 8.44904 15.7791 7.73257C16.2328 6.71714 17.0547 5.93878 18.0937 5.54173L21.7338 4.1497ZM22.3931 2.86835L17.7507 4.64378C15.1067 5.65502 13.7829 8.61793 14.7942 11.2619L19.4365 9.4865C22.0805 8.47526 23.4044 5.51236 22.3931 2.86835Z" fill="#6AA448"/>
</svg>
