<svg width="70" height="162" viewBox="0 0 70 162" fill="none" xmlns="http://www.w3.org/2000/svg">
<circle cx="5" cy="4" r="4" fill="#DDDDDD"/>
<circle cx="4" cy="158" r="4" fill="#DDDDDD"/>
<path d="M5 5C31.1613 16.5377 75.5218 97.3016 5 158" stroke="#DDDDDD" stroke-width="1.5"/>
<circle cx="46" cy="85" r="24" fill="#DDDDDD"/>
<path d="M46.4806 78.5323C46.4806 77.0611 45.2879 75.8684 43.8167 75.8684H38.7018C37.2306 75.8684 36.0378 77.0611 36.0378 78.5323C36.0378 78.9226 36.0378 81.3494 36.0378 81.7397C36.0378 83.2114 37.2311 84.4041 38.7023 84.4041H39.6553C40.0455 84.4041 42.4724 84.4041 42.8626 84.4041H43.8157C45.2874 84.4041 46.4801 83.2109 46.4801 81.7397C46.4801 81.3494 46.4801 78.9226 46.4801 78.5323H46.4806Z" fill="white"/>
<path d="M46.4806 89.7655C46.4806 88.2943 45.2879 87.1016 43.8167 87.1016H38.7018C37.2306 87.1016 36.0378 88.2943 36.0378 89.7655C36.0378 90.1557 36.0378 92.5826 36.0378 92.9728C36.0378 94.4446 37.2311 95.6373 38.7023 95.6373H39.6553C40.0455 95.6373 42.4724 95.6373 42.8626 95.6373H43.8157C45.2874 95.6373 46.4801 94.4441 46.4801 92.9728C46.4801 92.5826 46.4801 90.1557 46.4801 89.7655H46.4806Z" fill="white"/>
<path d="M55.7338 88.3829C55.9824 90.2517 54.9287 92.12 53.093 92.8218L49.4529 94.2138C49.2043 92.345 50.258 90.4767 52.0937 89.775L55.7338 88.3829ZM56.3931 87.1016L51.7507 88.877C49.1067 89.8882 47.7829 92.8511 48.7942 95.4952L53.4365 93.7197C56.0805 92.7085 57.4044 89.7456 56.3931 87.1016Z" fill="#6AA448"/>
<path d="M55.7338 77.1498C55.9824 79.0186 54.9287 80.8868 53.093 81.5886L49.4519 82.9812C49.3496 82.2227 49.4592 81.4491 49.7791 80.7326C50.2328 79.7172 51.0547 78.9388 52.0937 78.5418L55.7338 77.1498ZM56.3931 75.8684L51.7507 77.6438C49.1067 78.6551 47.7829 81.618 48.7942 84.262L53.4365 82.4866C56.0805 81.4753 57.4044 78.5124 56.3931 75.8684Z" fill="#6AA448"/>
</svg>
