<svg width="325" height="96" viewBox="0 0 325 96" fill="none" xmlns="http://www.w3.org/2000/svg">
<g filter="url(#filter0_b_2001_3081)">
<mask id="path-1-inside-1_2001_3081" fill="white">
<path fill-rule="evenodd" clip-rule="evenodd" d="M32 0C14.3269 0 0 14.3269 0 32V34C0 51.6731 14.3269 66 32 66H146L159.422 92.8446C160.896 95.7928 165.104 95.7928 166.578 92.8446L180 66H293C310.673 66 325 51.6731 325 34V32C325 14.3269 310.673 0 293 0H32Z"/>
</mask>
<path fill-rule="evenodd" clip-rule="evenodd" d="M32 0C14.3269 0 0 14.3269 0 32V34C0 51.6731 14.3269 66 32 66H146L159.422 92.8446C160.896 95.7928 165.104 95.7928 166.578 92.8446L180 66H293C310.673 66 325 51.6731 325 34V32C325 14.3269 310.673 0 293 0H32Z" fill="#E7E7E7"/>
<path d="M146 66L146.894 65.5528L146.618 65H146V66ZM159.422 92.8446L158.528 93.2918L158.528 93.2918L159.422 92.8446ZM166.578 92.8446L167.472 93.2918L167.472 93.2918L166.578 92.8446ZM180 66V65H179.382L179.106 65.5528L180 66ZM1 32C1 14.8792 14.8792 1 32 1V-1C13.7746 -1 -1 13.7746 -1 32H1ZM1 34V32H-1V34H1ZM32 65C14.8792 65 1 51.1208 1 34H-1C-1 52.2254 13.7746 67 32 67V65ZM146 65H32V67H146V65ZM160.317 92.3974L146.894 65.5528L145.106 66.4472L158.528 93.2918L160.317 92.3974ZM165.683 92.3974C164.578 94.6085 161.422 94.6085 160.317 92.3974L158.528 93.2918C160.37 96.977 165.63 96.977 167.472 93.2918L165.683 92.3974ZM179.106 65.5528L165.683 92.3974L167.472 93.2918L180.894 66.4472L179.106 65.5528ZM293 65H180V67H293V65ZM324 34C324 51.1208 310.121 65 293 65V67C311.225 67 326 52.2254 326 34H324ZM324 32V34H326V32H324ZM293 1C310.121 1 324 14.8792 324 32H326C326 13.7746 311.225 -1 293 -1V1ZM32 1H293V-1H32V1Z" fill="white" fill-opacity="0.05" mask="url(#path-1-inside-1_2001_3081)"/>
</g>
<defs>
<filter id="filter0_b_2001_3081" x="-58" y="-58" width="441" height="211.056" filterUnits="userSpaceOnUse" color-interpolation-filters="sRGB">
<feFlood flood-opacity="0" result="BackgroundImageFix"/>
<feGaussianBlur in="BackgroundImageFix" stdDeviation="29"/>
<feComposite in2="SourceAlpha" operator="in" result="effect1_backgroundBlur_2001_3081"/>
<feBlend mode="normal" in="SourceGraphic" in2="effect1_backgroundBlur_2001_3081" result="shape"/>
</filter>
</defs>
</svg>
