<svg width="24" height="24" viewBox="0 0 24 24" fill="none" xmlns="http://www.w3.org/2000/svg">
<g clip-path="url(#clip0_2007_6626)">
<path fill-rule="evenodd" clip-rule="evenodd" d="M12 1.6875C6.30819 1.6875 1.6875 6.30819 1.6875 12C1.6875 17.6918 6.30819 22.3125 12 22.3125C17.6918 22.3125 22.3125 17.6918 22.3125 12C22.3125 6.30819 17.6918 1.6875 12 1.6875ZM11.3125 10.8092C11.0499 10.9603 10.8445 11.1938 10.7283 11.4736C10.6121 11.7534 10.5916 12.0638 10.67 12.3564C10.7484 12.649 10.9213 12.9076 11.1619 13.0918C11.4024 13.276 11.697 13.3756 12 13.375C12.5087 13.375 12.9529 13.0986 13.1908 12.6875H18.875C19.0573 12.6875 19.2322 12.6151 19.3611 12.4861C19.4901 12.3572 19.5625 12.1823 19.5625 12C19.5625 11.8177 19.4901 11.6428 19.3611 11.5139C19.2322 11.3849 19.0573 11.3125 18.875 11.3125H13.1908C13.0695 11.1039 12.8961 10.9305 12.6875 10.8092V7.1875C12.6875 7.00516 12.6151 6.8303 12.4861 6.70136C12.3572 6.57243 12.1823 6.5 12 6.5C11.8177 6.5 11.6428 6.57243 11.5139 6.70136C11.3849 6.8303 11.3125 7.00516 11.3125 7.1875V10.8092Z" fill="#393C43"/>
</g>
<defs>
<clipPath id="clip0_2007_6626">
<rect width="22" height="22" fill="white" transform="translate(1 1)"/>
</clipPath>
</defs>
</svg>
