<svg width="32" height="32" viewBox="0 0 32 32" fill="none" xmlns="http://www.w3.org/2000/svg">
<g clip-path="url(#clip0_1793_662)">
<circle cx="16.5" cy="13.5" r="6.5" fill="#D9D9D9"/>
<path d="M27.4933 11.2667C26.0933 5.10667 20.72 2.33334 16 2.33334C16 2.33334 16 2.33334 15.9867 2.33334C11.28 2.33334 5.89334 5.09334 4.49334 11.2533C2.93334 18.1333 7.14667 23.96 10.96 27.6267C12.3733 28.9867 14.1867 29.6667 16 29.6667C17.8133 29.6667 19.6267 28.9867 21.0267 27.6267C24.84 23.96 29.0533 18.1467 27.4933 11.2667ZM16 17.9467C13.68 17.9467 11.8 16.0667 11.8 13.7467C11.8 11.4267 13.68 9.54667 16 9.54667C18.32 9.54667 20.2 11.4267 20.2 13.7467C20.2 16.0667 18.32 17.9467 16 17.9467Z" fill="#2E574D"/>
</g>
<defs>
<clipPath id="clip0_1793_662">
<rect width="32" height="32" fill="white"/>
</clipPath>
</defs>
</svg>
