<svg width="110" height="110" viewBox="0 0 110 110" fill="none" xmlns="http://www.w3.org/2000/svg">
<circle cx="55" cy="55" r="55" fill="#2E574D"/>
<g clip-path="url(#clip0_2044_3367)">
<path fill-rule="evenodd" clip-rule="evenodd" d="M67.75 34C68.8772 34 69.9582 34.4425 70.7552 35.2302C71.5522 36.0178 72 37.0861 72 38.2V59.2H58.1875C57.3421 59.2 56.5314 59.5319 55.9336 60.1226C55.3358 60.7134 55 61.5146 55 62.35V76H42.25C41.1228 76 40.0418 75.5575 39.2448 74.7698C38.4478 73.9822 38 72.9139 38 71.8V38.2C38 37.0861 38.4478 36.0178 39.2448 35.2302C40.0418 34.4425 41.1228 34 42.25 34H67.75ZM71.9086 63.4C71.7379 64.1956 71.337 64.9252 70.7547 65.5L61.375 74.7694C60.7933 75.3448 60.0551 75.741 59.25 75.9097V63.4H71.9086ZM50.75 52.9H48.625C48.0614 52.9 47.5209 53.1212 47.1224 53.5151C46.7239 53.9089 46.5 54.443 46.5 55C46.5 55.557 46.7239 56.0911 47.1224 56.4849C47.5209 56.8787 48.0614 57.1 48.625 57.1H50.75C51.3136 57.1 51.8541 56.8787 52.2526 56.4849C52.6511 56.0911 52.875 55.557 52.875 55C52.875 54.443 52.6511 53.9089 52.2526 53.5151C51.8541 53.1212 51.3136 52.9 50.75 52.9ZM61.375 44.5H48.625C48.0614 44.5 47.5209 44.7212 47.1224 45.1151C46.7239 45.5089 46.5 46.043 46.5 46.6C46.5 47.157 46.7239 47.6911 47.1224 48.0849C47.5209 48.4787 48.0614 48.7 48.625 48.7H61.375C61.9386 48.7 62.4791 48.4787 62.8776 48.0849C63.2761 47.6911 63.5 47.157 63.5 46.6C63.5 46.043 63.2761 45.5089 62.8776 45.1151C62.4791 44.7212 61.9386 44.5 61.375 44.5Z" fill="#FBF7EB"/>
</g>
<defs>
<clipPath id="clip0_2044_3367">
<rect width="46" height="46" fill="white" transform="translate(32 32)"/>
</clipPath>
</defs>
</svg>
