<svg width="46" height="46" viewBox="0 0 46 46" fill="none" xmlns="http://www.w3.org/2000/svg">
<path d="M29.5799 1.90869H14.5328C13.9701 1.90845 13.4303 2.13165 13.032 2.52924C12.6338 2.92682 12.4096 3.46626 12.4089 4.029V39.4346C12.4104 40.6694 12.9015 41.8533 13.7747 42.7264C14.6478 43.5995 15.8316 44.0907 17.0664 44.0921H34.5222C34.5451 44.0916 34.5679 44.0892 34.5905 44.0849C34.6133 44.0891 34.6364 44.0915 34.6596 44.0921C35.8109 44.0917 36.9149 43.6343 37.7292 42.8205C38.5435 42.0067 39.0015 40.903 39.0027 39.7518V34.9945C39.0022 34.5036 38.807 34.0329 38.4598 33.6857C38.1127 33.3386 37.642 33.1433 37.151 33.1429H33.4764C33.4069 33.14 33.3376 33.1511 33.2725 33.1757C33.2075 33.2003 33.1481 33.2378 33.0979 33.2859C33.0477 33.3341 33.0078 33.3918 32.9805 33.4558C32.9532 33.5198 32.9392 33.5886 32.9392 33.6581C32.9392 33.7277 32.9532 33.7965 32.9805 33.8604C33.0078 33.9244 33.0477 33.9822 33.0979 34.0303C33.1481 34.0784 33.2075 34.1159 33.2725 34.1405C33.3376 34.1651 33.4069 34.1763 33.4764 34.1734H37.151C37.3687 34.1736 37.5775 34.2602 37.7314 34.4142C37.8853 34.5681 37.9719 34.7768 37.9722 34.9945V39.7518C37.971 40.6292 37.6219 41.4704 37.0014 42.0909C36.381 42.7113 35.5398 43.0604 34.6623 43.0616C34.6391 43.0622 34.616 43.0646 34.5932 43.0688C34.5706 43.0646 34.5478 43.0622 34.5249 43.0616C33.4243 43.0616 32.6049 42.4435 32.0901 41.2252C31.829 40.597 31.6973 39.9226 31.7029 39.2424V4.029C31.7022 3.46641 31.4782 2.92711 31.0801 2.52955C30.682 2.13199 30.1425 1.90869 29.5799 1.90869Z" fill="#2E574D"/>
<path d="M22.3485 10.7706H21.5534C21.3251 10.7706 21.1062 10.6799 20.9448 10.5185C20.7834 10.3571 20.6927 10.1382 20.6927 9.90988C20.6927 9.68161 20.7834 9.46268 20.9448 9.30127C21.1062 9.13986 21.3251 9.04918 21.5534 9.04918H23.1005C23.17 9.05208 23.2393 9.0409 23.3044 9.01631C23.3694 8.99173 23.4288 8.95424 23.479 8.90611C23.5292 8.85798 23.5691 8.8002 23.5964 8.73623C23.6237 8.67227 23.6377 8.60346 23.6377 8.53392C23.6377 8.46439 23.6237 8.39557 23.5964 8.33161C23.5691 8.26765 23.5292 8.20987 23.479 8.16173C23.4288 8.1136 23.3694 8.07612 23.3044 8.05153C23.2393 8.02695 23.17 8.01577 23.1005 8.01867H22.4716V7.47961C22.4745 7.41013 22.4633 7.34079 22.4387 7.27574C22.4142 7.2107 22.3767 7.1513 22.3285 7.10112C22.2804 7.05093 22.2226 7.011 22.1587 6.98372C22.0947 6.95645 22.0259 6.94238 21.9563 6.94238C21.8868 6.94238 21.818 6.95645 21.754 6.98372C21.6901 7.011 21.6323 7.05093 21.5842 7.10112C21.536 7.1513 21.4985 7.2107 21.474 7.27574C21.4494 7.34079 21.4382 7.41013 21.4411 7.47961V8.02406C20.9407 8.03967 20.467 8.25341 20.1242 8.61828C19.7814 8.98314 19.5976 9.46924 19.6132 9.96963C19.6288 10.47 19.8426 10.9437 20.2074 11.2865C20.5723 11.6293 21.0584 11.8131 21.5588 11.7975H22.3539C22.5822 11.7975 22.8011 11.8882 22.9625 12.0496C23.1239 12.211 23.2146 12.4299 23.2146 12.6582C23.2146 12.8865 23.1239 13.1054 22.9625 13.2668C22.8011 13.4282 22.5822 13.5189 22.3539 13.5189H20.8059C20.673 13.5245 20.5473 13.5812 20.4552 13.6772C20.3631 13.7732 20.3117 13.9011 20.3117 14.0342C20.3117 14.1672 20.3631 14.2951 20.4552 14.3911C20.5473 14.4871 20.673 14.5439 20.8059 14.5494H21.4348V15.0885C21.4319 15.1579 21.4431 15.2273 21.4677 15.2923C21.4923 15.3574 21.5297 15.4168 21.5779 15.467C21.626 15.5171 21.6838 15.5571 21.7477 15.5844C21.8117 15.6116 21.8805 15.6257 21.9501 15.6257C22.0196 15.6257 22.0884 15.6116 22.1524 15.5844C22.2163 15.5571 22.2741 15.5171 22.3222 15.467C22.3704 15.4168 22.4079 15.3574 22.4325 15.2923C22.457 15.2273 22.4682 15.1579 22.4653 15.0885V14.544C22.9657 14.5284 23.4394 14.3147 23.7822 13.9498C24.125 13.5849 24.3088 13.0988 24.2932 12.5985C24.2776 12.0981 24.0638 11.6244 23.699 11.2816C23.3341 10.9388 22.848 10.755 22.3476 10.7706H22.3485Z" fill="#FBF7EB"/>
<path d="M22.1463 19.7343H16.6739C16.6045 19.7314 16.5351 19.7426 16.4701 19.7672C16.405 19.7918 16.3456 19.8293 16.2955 19.8774C16.2453 19.9255 16.2053 19.9833 16.1781 20.0473C16.1508 20.1112 16.1367 20.1801 16.1367 20.2496C16.1367 20.3191 16.1508 20.3879 16.1781 20.4519C16.2053 20.5159 16.2453 20.5736 16.2955 20.6218C16.3456 20.6699 16.405 20.7074 16.4701 20.732C16.5351 20.7566 16.6045 20.7677 16.6739 20.7648H22.1463C22.2793 20.7593 22.4049 20.7026 22.497 20.6066C22.5891 20.5105 22.6405 20.3826 22.6405 20.2496C22.6405 20.1165 22.5891 19.9886 22.497 19.8926C22.4049 19.7966 22.2793 19.7399 22.1463 19.7343Z" fill="#FBF7EB"/>
<path d="M26.9836 19.7343H25.8731C25.7402 19.7399 25.6145 19.7966 25.5224 19.8926C25.4303 19.9886 25.3789 20.1165 25.3789 20.2496C25.3789 20.3826 25.4303 20.5105 25.5224 20.6066C25.6145 20.7026 25.7402 20.7593 25.8731 20.7648H26.9836C27.053 20.7677 27.1224 20.7566 27.1874 20.732C27.2525 20.7074 27.3119 20.6699 27.362 20.6218C27.4122 20.5736 27.4522 20.5159 27.4794 20.4519C27.5067 20.3879 27.5208 20.3191 27.5208 20.2496C27.5208 20.1801 27.5067 20.1112 27.4794 20.0473C27.4522 19.9833 27.4122 19.9255 27.362 19.8774C27.3119 19.8293 27.2525 19.7918 27.1874 19.7672C27.1224 19.7426 27.053 19.7314 26.9836 19.7343Z" fill="#FBF7EB"/>
<path d="M22.1463 24.7861H16.6739C16.6045 24.7832 16.5351 24.7944 16.4701 24.819C16.405 24.8435 16.3456 24.881 16.2955 24.9292C16.2453 24.9773 16.2053 25.0351 16.1781 25.099C16.1508 25.163 16.1367 25.2318 16.1367 25.3013C16.1367 25.3709 16.1508 25.4397 16.1781 25.5037C16.2053 25.5676 16.2453 25.6254 16.2955 25.6735C16.3456 25.7217 16.405 25.7592 16.4701 25.7837C16.5351 25.8083 16.6045 25.8195 16.6739 25.8166H22.1463C22.2793 25.811 22.4049 25.7543 22.497 25.6583C22.5891 25.5623 22.6405 25.4344 22.6405 25.3013C22.6405 25.1683 22.5891 25.0404 22.497 24.9444C22.4049 24.8484 22.2793 24.7916 22.1463 24.7861Z" fill="#FBF7EB"/>
<path d="M26.9836 24.7861H25.8731C25.7402 24.7916 25.6145 24.8484 25.5224 24.9444C25.4303 25.0404 25.3789 25.1683 25.3789 25.3013C25.3789 25.4344 25.4303 25.5623 25.5224 25.6583C25.6145 25.7543 25.7402 25.811 25.8731 25.8166H26.9836C27.053 25.8195 27.1224 25.8083 27.1874 25.7837C27.2525 25.7592 27.3119 25.7217 27.362 25.6735C27.4122 25.6254 27.4522 25.5676 27.4794 25.5037C27.5067 25.4397 27.5208 25.3709 27.5208 25.3013C27.5208 25.2318 27.5067 25.163 27.4794 25.099C27.4522 25.0351 27.4122 24.9773 27.362 24.9292C27.3119 24.881 27.2525 24.8435 27.1874 24.819C27.1224 24.7944 27.053 24.7832 26.9836 24.7861Z" fill="#FBF7EB"/>
<path d="M22.1463 29.8393H16.6739C16.6045 29.8364 16.5351 29.8476 16.4701 29.8722C16.405 29.8968 16.3456 29.9342 16.2955 29.9824C16.2453 30.0305 16.2053 30.0883 16.1781 30.1523C16.1508 30.2162 16.1367 30.285 16.1367 30.3546C16.1367 30.4241 16.1508 30.4929 16.1781 30.5569C16.2053 30.6208 16.2453 30.6786 16.2955 30.7268C16.3456 30.7749 16.405 30.8124 16.4701 30.837C16.5351 30.8615 16.6045 30.8727 16.6739 30.8698H22.1463C22.2793 30.8643 22.4049 30.8076 22.497 30.7115C22.5891 30.6155 22.6405 30.4876 22.6405 30.3546C22.6405 30.2215 22.5891 30.0936 22.497 29.9976C22.4049 29.9016 22.2793 29.8449 22.1463 29.8393Z" fill="#FBF7EB"/>
<path d="M26.9836 29.8393H25.8731C25.7402 29.8449 25.6145 29.9016 25.5224 29.9976C25.4303 30.0936 25.3789 30.2215 25.3789 30.3546C25.3789 30.4876 25.4303 30.6155 25.5224 30.7115C25.6145 30.8076 25.7402 30.8643 25.8731 30.8698H26.9836C27.053 30.8727 27.1224 30.8615 27.1874 30.837C27.2525 30.8124 27.3119 30.7749 27.362 30.7268C27.4122 30.6786 27.4522 30.6208 27.4794 30.5569C27.5067 30.4929 27.5208 30.4241 27.5208 30.3546C27.5208 30.285 27.5067 30.2162 27.4794 30.1523C27.4522 30.0883 27.4122 30.0305 27.362 29.9824C27.3119 29.9342 27.2525 29.8968 27.1874 29.8722C27.1224 29.8476 27.053 29.8364 26.9836 29.8393Z" fill="#FBF7EB"/>
<path d="M22.1463 34.8911H16.6739C16.6045 34.8882 16.5351 34.8993 16.4701 34.9239C16.405 34.9485 16.3456 34.986 16.2955 35.0341C16.2453 35.0823 16.2053 35.1401 16.1781 35.204C16.1508 35.268 16.1367 35.3368 16.1367 35.4063C16.1367 35.4759 16.1508 35.5447 16.1781 35.6086C16.2053 35.6726 16.2453 35.7304 16.2955 35.7785C16.3456 35.8266 16.405 35.8641 16.4701 35.8887C16.5351 35.9133 16.6045 35.9245 16.6739 35.9216H22.1463C22.2793 35.916 22.4049 35.8593 22.497 35.7633C22.5891 35.6673 22.6405 35.5394 22.6405 35.4063C22.6405 35.2733 22.5891 35.1454 22.497 35.0494C22.4049 34.9533 22.2793 34.8966 22.1463 34.8911Z" fill="#FBF7EB"/>
<path d="M26.9836 34.8911H25.8731C25.7402 34.8966 25.6145 34.9533 25.5224 35.0494C25.4303 35.1454 25.3789 35.2733 25.3789 35.4063C25.3789 35.5394 25.4303 35.6673 25.5224 35.7633C25.6145 35.8593 25.7402 35.916 25.8731 35.9216H26.9836C27.053 35.9245 27.1224 35.9133 27.1874 35.8887C27.2525 35.8641 27.3119 35.8266 27.362 35.7785C27.4122 35.7304 27.4522 35.6726 27.4794 35.6086C27.5067 35.5447 27.5208 35.4759 27.5208 35.4063C27.5208 35.3368 27.5067 35.268 27.4794 35.204C27.4522 35.1401 27.4122 35.0823 27.362 35.0341C27.3119 34.986 27.2525 34.9485 27.1874 34.9239C27.1224 34.8993 27.053 34.8882 26.9836 34.8911Z" fill="#FBF7EB"/>
</svg>
