<svg width="110" height="110" viewBox="0 0 110 110" fill="none" xmlns="http://www.w3.org/2000/svg">
<circle cx="55" cy="55" r="55" fill="#FBF7EB"/>
<path d="M33.0017 46.146H76.9991V44.2658C76.9991 40.1027 74.8962 38 70.7083 38H39.2926C35.1055 38 33.0009 40.1027 33.0009 44.2667L33.0017 46.146ZM33.0017 65.754C33.0017 69.918 35.1046 72 39.2926 72H70.7083C74.8954 72 77 69.918 77 65.754V50.7351H33L33.0017 65.754ZM39.6935 60.8216V57.082C39.6935 55.9504 40.4748 55.1414 41.6571 55.1414H46.5656C47.7479 55.1414 48.5292 55.9504 48.5292 57.082V60.8216C48.5292 61.9739 47.7479 62.7622 46.5656 62.7622H41.6562C40.474 62.7622 39.6935 61.9739 39.6935 60.8216Z" fill="#2E574D"/>
</svg>
