<svg width="110" height="110" viewBox="0 0 110 110" fill="none" xmlns="http://www.w3.org/2000/svg">
<circle cx="55" cy="55" r="55" fill="#2E574D"/>
<g clip-path="url(#clip0_2044_3295)">
<path d="M73.6875 43.5H38.8425C38.4263 43.5806 37.9975 43.5681 37.5867 43.4635C37.1759 43.3589 36.7933 43.1647 36.4664 42.8949C36.1394 42.6251 35.8762 42.2863 35.6955 41.9028C35.5148 41.5194 35.4212 41.1007 35.4213 40.6768V40.6222L72.25 39.1875V35.7663C72.31 35.2558 72.2533 34.7384 72.0841 34.2531C71.9149 33.7678 71.6376 33.3273 71.2732 32.9648C70.9088 32.6023 70.4668 32.3274 69.9806 32.1608C69.4943 31.9941 68.9766 31.9402 68.4665 32.0029L35.7662 37.3188C34.6626 37.7262 33.7102 38.4617 33.0369 39.4264C32.3636 40.3911 32.0018 41.5388 32 42.7152V73.6847C32 74.8284 32.4544 75.9253 33.2631 76.7341C34.0719 77.5428 35.1688 77.9972 36.3125 77.9972H73.6875C74.8312 77.9972 75.9281 77.5428 76.7369 76.7341C77.5457 75.9253 78 74.8284 78 73.6847V47.7809L78.0029 47.663C78.0029 46.5574 77.5637 45.4971 76.7819 44.7153C76.0001 43.9335 74.9397 43.4943 73.8341 43.4943L73.6818 43.4972L73.6875 43.5ZM69.375 63.625C68.2309 63.6247 67.1338 63.1698 66.325 62.3605C65.5163 61.5512 65.0621 60.4538 65.0625 59.3097C65.0629 58.1655 65.5177 57.0684 66.327 56.2597C67.1363 55.4509 68.2337 54.9968 69.3779 54.9972C69.9444 54.9974 70.5053 55.1091 71.0286 55.3261C71.552 55.5431 72.0274 55.861 72.4279 56.2617C72.8283 56.6624 73.1459 57.1381 73.3625 57.6616C73.5792 58.185 73.6906 58.746 73.6904 59.3125C73.6902 59.8791 73.5784 60.44 73.3614 60.9633C73.1445 61.4866 72.8266 61.9621 72.4258 62.3625C72.0251 62.763 71.5494 63.0806 71.026 63.2972C70.5025 63.5138 69.9415 63.6252 69.375 63.625Z" fill="#FBF7EB"/>
</g>
<defs>
<clipPath id="clip0_2044_3295">
<rect width="46" height="46" fill="white" transform="translate(32 32)"/>
</clipPath>
</defs>
</svg>
