<svg width="66" height="66" viewBox="0 0 66 66" fill="none" xmlns="http://www.w3.org/2000/svg">
<path d="M56 33.5C56 39.4674 53.6295 45.1903 49.4099 49.4099C45.1903 53.6295 39.4674 56 33.5 56C27.5326 56 21.8097 53.6295 17.5901 49.4099C13.3705 45.1903 11 39.4674 11 33.5C11 27.5326 13.3705 21.8097 17.5901 17.5901C21.8097 13.3705 27.5326 11 33.5 11C39.4674 11 45.1903 13.3705 49.4099 17.5901C53.6295 21.8097 56 27.5326 56 33.5ZM33.5 20.8438C33.5 20.4708 33.3518 20.1131 33.0881 19.8494C32.8244 19.5857 32.4667 19.4375 32.0938 19.4375C31.7208 19.4375 31.3631 19.5857 31.0994 19.8494C30.8357 20.1131 30.6875 20.4708 30.6875 20.8438V36.3125C30.6876 36.5604 30.7532 36.8038 30.8776 37.0182C31.0021 37.2325 31.181 37.4102 31.3962 37.5331L41.24 43.1581C41.563 43.3327 41.9416 43.374 42.2946 43.2732C42.6477 43.1724 42.9474 42.9375 43.1296 42.6187C43.3118 42.2999 43.362 41.9224 43.2696 41.5671C43.1772 41.2117 42.9494 40.9065 42.635 40.7169L33.5 35.4969V20.8438Z" fill="#2E574D"/>
</svg>
