<svg width="110" height="110" viewBox="0 0 110 110" fill="none" xmlns="http://www.w3.org/2000/svg">
<circle cx="55" cy="55" r="55" fill="#FBF7EB"/>
<path d="M32 72.2132C31.9995 72.4486 32.0467 72.6818 32.1388 72.8993C32.231 73.1168 32.3663 73.3143 32.5369 73.4804C32.7075 73.6465 32.9101 73.778 33.133 73.8672C33.3558 73.9564 33.5945 74.0015 33.8353 74.0001H76.1722C76.4124 74.0005 76.6503 73.9547 76.8723 73.865C77.0943 73.7754 77.2959 73.6438 77.4658 73.4778C77.6356 73.3118 77.7702 73.1146 77.8619 72.8976C77.9536 72.6806 78.0005 72.448 78 72.2132V70.4264C78 69.9525 77.8074 69.498 77.4647 69.1629C77.1219 68.8279 76.657 68.6396 76.1722 68.6396H73.7289C73.659 63.8287 71.6551 59.2379 68.1503 55.86C64.6456 52.4821 59.9217 50.5884 55 50.5884C50.0783 50.5884 45.3544 52.4821 41.8497 55.86C38.3449 59.2379 36.341 63.8287 36.2711 68.6396H33.8353C33.3506 68.6396 32.8857 68.8279 32.5429 69.1629C32.2001 69.498 32.0076 69.9525 32.0076 70.4264L32 72.2132Z" fill="#2E574D"/>
<path d="M55.9152 48.3678C56.4612 48.1591 56.9154 47.7706 57.1995 47.2693C57.4835 46.768 57.5796 46.1855 57.471 45.6224C57.3624 45.0592 57.056 44.5508 56.6047 44.1851C56.1534 43.8193 55.5856 43.6191 54.9994 43.6191C54.4132 43.6191 53.8455 43.8193 53.3942 44.1851C52.9429 44.5508 52.6365 45.0592 52.5279 45.6224C52.4193 46.1855 52.5153 46.768 52.7994 47.2693C53.0835 47.7706 53.5377 48.1591 54.0837 48.3678V50.3281H55.9152V48.3678Z" fill="#2E574D"/>
<path d="M38.9608 37.5363C39.1244 37.382 39.2233 37.1736 39.2382 36.9519C39.2531 36.7302 39.1829 36.511 39.0413 36.3371C38.8998 36.1632 38.6971 36.0472 38.4727 36.0116C38.2484 35.9759 38.0185 36.0233 37.8279 36.1445C36.8687 36.8829 35.6074 38.9724 37.6807 41.5271C39.2365 43.4395 36.8159 46.2415 36.7932 46.2674C36.7143 46.3557 36.654 46.4584 36.6158 46.5696C36.5776 46.6808 36.5623 46.7982 36.5707 46.9152C36.5791 47.0322 36.6111 47.1464 36.6649 47.2513C36.7186 47.3562 36.793 47.4496 36.8838 47.5263C37.0514 47.6659 37.2641 47.743 37.4843 47.7441C37.6152 47.7441 37.7445 47.7168 37.8637 47.664C37.9829 47.6111 38.0892 47.534 38.1754 47.4377C38.3151 47.2752 41.6119 43.4911 39.1119 40.4233C37.7146 38.7103 38.7456 37.7209 38.9608 37.5363Z" fill="#2E574D"/>
<path d="M46.9547 37.5363C47.1182 37.382 47.2171 37.1736 47.232 36.9519C47.2469 36.7302 47.1767 36.511 47.0352 36.3371C46.8936 36.1632 46.6909 36.0472 46.4665 36.0116C46.2422 35.9759 46.0123 36.0233 45.8218 36.1445C44.8626 36.8829 43.5975 38.9724 45.6745 41.5271C47.2303 43.4395 44.8097 46.2415 44.787 46.2674C44.7081 46.3557 44.6478 46.4584 44.6096 46.5696C44.5714 46.6808 44.5561 46.7982 44.5645 46.9152C44.5729 47.0322 44.6049 47.1464 44.6587 47.2513C44.7124 47.3562 44.7868 47.4496 44.8777 47.5263C45.0612 47.6814 45.3001 47.7592 45.5421 47.7426C45.7842 47.726 46.0096 47.6163 46.1692 47.4377C46.3089 47.2752 49.6057 43.4911 47.1057 40.4233C45.7085 38.7103 46.7319 37.7209 46.9547 37.5363Z" fill="#2E574D"/>
<path d="M62.5727 47.526C62.7563 47.6812 62.9952 47.7589 63.2372 47.7423C63.4792 47.7257 63.7047 47.6161 63.8643 47.4374C64.004 47.275 67.3008 43.4909 64.8008 40.423C63.4186 38.7174 64.4232 37.728 64.6648 37.5435C64.823 37.3876 64.9171 37.1804 64.9295 36.9612C64.9419 36.742 64.8717 36.526 64.7321 36.3541C64.5925 36.1821 64.3932 36.0662 64.172 36.0282C63.9509 35.9902 63.7231 36.0328 63.5319 36.148C62.5765 36.8863 61.3114 38.9796 63.3847 41.5343C64.9405 43.4466 62.5199 46.245 62.4972 46.2708C62.3399 46.4484 62.2598 46.679 62.2739 46.9134C62.288 47.1479 62.3952 47.3677 62.5727 47.526Z" fill="#2E574D"/>
<path d="M72.6562 37.5363C72.8197 37.382 72.9186 37.1736 72.9335 36.9519C72.9484 36.7302 72.8782 36.511 72.7367 36.3371C72.5951 36.1632 72.3924 36.0472 72.168 36.0116C71.9437 35.9759 71.7138 36.0233 71.5232 36.1445C70.564 36.8829 69.3027 38.9724 71.376 41.5271C72.9318 43.4395 70.5112 46.2415 70.4885 46.2674C70.4096 46.3557 70.3493 46.4584 70.3111 46.5696C70.2729 46.6808 70.2576 46.7982 70.266 46.9152C70.2744 47.0322 70.3064 47.1464 70.3602 47.2513C70.4139 47.3562 70.4883 47.4496 70.5791 47.5263C70.7467 47.6659 70.9594 47.743 71.1796 47.7441C71.3105 47.7441 71.4398 47.7168 71.559 47.664C71.6782 47.6111 71.7845 47.534 71.8707 47.4377C72.0104 47.2752 75.3072 43.4911 72.8072 40.4233C71.4099 38.7103 72.4371 37.7209 72.6562 37.5363Z" fill="#2E574D"/>
<path d="M54.705 54C46.5878 54 40 60.72 40 69H45.882C45.882 61.74 47.9995 55.68 54.705 54.3C53.7639 54.09 55.7049 54 54.705 54Z" fill="#FBF7EB"/>
</svg>
