<svg width="32" height="32" viewBox="0 0 32 32" fill="none" xmlns="http://www.w3.org/2000/svg">
<path d="M16 14.5556V21.7778V14.5556ZM16 29C14.2928 29 12.6023 28.6637 11.0251 28.0104C9.44788 27.3571 8.01477 26.3995 6.80761 25.1924C5.60045 23.9852 4.64288 22.5521 3.98957 20.9749C3.33626 19.3977 3 17.7072 3 16C3 14.2928 3.33626 12.6023 3.98957 11.0251C4.64288 9.44788 5.60045 8.01477 6.80761 6.80761C8.01477 5.60045 9.44788 4.64288 11.0251 3.98957C12.6023 3.33625 14.2928 3 16 3C19.4478 3 22.7544 4.36964 25.1924 6.80761C27.6304 9.24558 29 12.5522 29 16C29 19.4478 27.6304 22.7544 25.1924 25.1924C22.7544 27.6304 19.4478 29 16 29ZM16.0722 10.2222V10.3667H15.9278V10.2222H16.0722Z" fill="#2E574D"/>
<path d="M16 14.5556V21.7778M16 29C14.2928 29 12.6023 28.6637 11.0251 28.0104C9.44788 27.3571 8.01477 26.3995 6.80761 25.1924C5.60045 23.9852 4.64288 22.5521 3.98957 20.9749C3.33626 19.3977 3 17.7072 3 16C3 14.2928 3.33626 12.6023 3.98957 11.0251C4.64288 9.44788 5.60045 8.01477 6.80761 6.80761C8.01477 5.60045 9.44788 4.64288 11.0251 3.98957C12.6023 3.33625 14.2928 3 16 3C19.4478 3 22.7544 4.36964 25.1924 6.80761C27.6304 9.24558 29 12.5522 29 16C29 19.4478 27.6304 22.7544 25.1924 25.1924C22.7544 27.6304 19.4478 29 16 29ZM16.0722 10.2222V10.3667H15.9278V10.2222H16.0722Z" stroke="#2E574D" stroke-linecap="round" stroke-linejoin="round"/>
<path d="M16 14.5555V21.7777M16.0722 10.2222V10.3666H15.9277V10.2222H16.0722Z" stroke="#FBF7EB" stroke-linecap="round" stroke-linejoin="round"/>
</svg>
