<svg width="110" height="110" viewBox="0 0 110 110" fill="none" xmlns="http://www.w3.org/2000/svg">
<circle cx="55" cy="55" r="55" fill="#FBF7EB"/>
<path d="M54.5606 69.8001C49.6401 69.821 44.7925 68.5148 40.4572 66C40.181 66.3912 40.0215 66.8639 40 67.3554C40 70.0873 45.9633 72 54.498 72C63.0327 72 69 70.0957 69 67.3554C68.9786 66.883 68.8292 66.4278 68.5701 66.0465C64.26 68.5318 59.4461 69.8216 54.5606 69.8001Z" fill="#2E574D"/>
<path d="M77 53C75.0705 53.3074 73.1247 53.5025 71.1724 53.5843C66.711 53.8573 60.7753 54.0072 54.4653 54.0072C48.1552 54.0072 42.2196 53.8573 37.7581 53.5843C35.8295 53.5013 33.9071 53.3101 32 53.0115C32.8413 61.0077 40.6604 69 54.5 69C68.3396 69 76.1664 61.0077 77 53ZM62.1994 66.1591C62.1994 66.1591 71.6702 56.4291 68.795 55.5488H73.8739C73.8739 55.5488 74.1479 62.3878 62.1994 66.1667V66.1591Z" fill="#2E574D"/>
<path d="M61.2444 47.5911C61.9059 41.5182 75.0947 44.5546 72.3441 36.6826C71.9255 35.4794 70.027 35.9994 70.4493 37.214C71.6564 40.6679 67.0858 41.0893 64.7462 41.8787C61.9433 42.8276 59.6262 44.418 59.2824 47.5721C59.1441 48.8702 61.1099 48.855 61.2444 47.5911Z" fill="#2E574D"/>
<path d="M66.7787 48.3537C67.6607 45.3173 71.5848 45.2717 74.0888 44.5354C76.7759 43.7421 78.3156 41.8481 77.9456 38.9445C77.7849 37.6882 75.8191 37.673 75.9836 38.9445C76.4283 42.4554 73.2479 42.7135 70.6057 43.3436C68.0344 43.9623 65.6837 45.0782 64.8839 47.8262C64.8227 48.0004 64.8176 48.1899 64.8694 48.3672C64.9211 48.5446 65.0269 48.7007 65.1717 48.813C65.3164 48.9253 66.2847 48.9915 66.4461 48.8623C66.6075 48.7331 66.724 48.5549 66.7787 48.3537Z" fill="#2E574D"/>
<path d="M54.4981 51C42.445 51 34.4817 51.5267 32 52C34.4817 52.4771 42.4372 53 54.4981 53C66.5589 53 74.5144 52.4771 77 52C74.5144 51.5229 66.5512 51 54.4981 51Z" fill="#2E574D"/>
</svg>
