<svg width="32" height="32" viewBox="0 0 32 32" fill="none" xmlns="http://www.w3.org/2000/svg">
<path d="M19.016 12.4868V11.05C19.8747 10.6297 20.7952 10.3146 21.7776 10.1045C22.76 9.89433 23.7675 9.78927 24.8 9.78927C25.3909 9.78927 25.9579 9.82584 26.5008 9.89897C27.0448 9.9721 27.6059 10.0761 28.184 10.2111V11.6139C27.6261 11.4419 27.0821 11.3224 26.552 11.2555C26.0219 11.1896 25.4379 11.1566 24.8 11.1566C23.7653 11.1566 22.7563 11.2689 21.7728 11.4934C20.7883 11.7179 19.8693 12.0491 19.016 12.4868ZM19.016 20.9256V19.427C19.8341 19.0078 20.7493 18.6936 21.7616 18.4845C22.7739 18.2734 23.7867 18.1678 24.8 18.1678C25.3909 18.1678 25.9579 18.2044 26.5008 18.2775C27.0448 18.3517 27.6059 18.4557 28.184 18.5896V19.9924C27.6261 19.8204 27.0821 19.7009 26.552 19.634C26.0219 19.5681 25.4379 19.5351 24.8 19.5351C23.7653 19.5351 22.7563 19.6556 21.7728 19.8966C20.7883 20.1387 19.8693 20.4817 19.016 20.9256ZM19.016 16.7356V15.2385C19.8747 14.8182 20.7952 14.5036 21.7776 14.2945C22.7589 14.0844 23.7664 13.9793 24.8 13.9793C25.3909 13.9793 25.9579 14.0154 26.5008 14.0875C27.0448 14.1616 27.6059 14.2662 28.184 14.4011V15.8024C27.6261 15.6304 27.0821 15.5114 26.552 15.4455C26.0219 15.3786 25.4379 15.3451 24.8 15.3451C23.7653 15.3451 22.7563 15.4677 21.7728 15.7128C20.7883 15.9569 19.8693 16.2978 19.016 16.7356ZM16.8 24.4266C18.096 23.7272 19.4043 23.2225 20.7248 22.9125C22.0443 22.6035 23.4027 22.449 24.8 22.449C25.76 22.449 26.6229 22.5061 27.3888 22.6205C28.1557 22.7358 28.8315 22.8883 29.416 23.0778C29.6613 23.1767 29.8869 23.1617 30.0928 23.033C30.2976 22.9042 30.4 22.7013 30.4 22.4243V8.49456C30.4 8.31637 30.3488 8.15775 30.2464 8.0187C30.144 7.87965 29.9696 7.7612 29.7232 7.66335C28.8432 7.36156 28.0427 7.15556 27.3216 7.04535C26.6005 6.93411 25.76 6.87849 24.8 6.87849C23.4027 6.87849 22.0091 7.07728 20.6192 7.47486C19.2283 7.87347 17.9552 8.47087 16.8 9.26706V24.4266ZM16 26.6668C14.6987 25.8078 13.3013 25.1476 11.808 24.6861C10.3147 24.2237 8.77867 23.9924 7.2 23.9924C6.368 23.9924 5.54987 24.0599 4.7456 24.1948C3.9424 24.3298 3.16053 24.5461 2.4 24.8437C1.81973 25.0672 1.27467 24.9998 0.7648 24.6413C0.254933 24.2829 0 23.787 0 23.1535V8.2211C0 7.83897 0.104 7.48413 0.312 7.15659C0.52 6.83008 0.811734 6.60245 1.1872 6.4737C2.13333 6.07922 3.11253 5.79082 4.1248 5.60851C5.13707 5.42517 6.16213 5.3335 7.2 5.3335C8.768 5.3335 10.2965 5.55134 11.7856 5.98703C13.2757 6.42272 14.6805 7.05617 16 7.88738C17.3195 7.05617 18.7243 6.42272 20.2144 5.98703C21.7045 5.55134 23.2331 5.3335 24.8 5.3335C25.8379 5.3335 26.8629 5.42465 27.8752 5.60696C28.8885 5.7903 29.8677 6.07922 30.8128 6.4737C31.1883 6.60245 31.48 6.83008 31.688 7.15659C31.896 7.48413 32 7.83897 32 8.2211V23.1535C32 23.7859 31.7248 24.2711 31.1744 24.6089C30.6229 24.9488 30.0363 25.0065 29.4144 24.7819C28.6741 24.5038 27.9179 24.303 27.1456 24.1794C26.3733 24.0537 25.5915 23.9909 24.8 23.9909C23.2213 23.9909 21.6853 24.2221 20.192 24.6846C18.6987 25.146 17.3013 25.8063 16 26.6653" fill="#FBF7EB"/>
</svg>
