<svg width="32" height="32" viewBox="0 0 32 32" fill="none" xmlns="http://www.w3.org/2000/svg">
<path d="M18.5134 12.7895V11.5495C19.229 11.1869 19.9961 10.9149 20.8147 10.7335C21.6334 10.5522 22.473 10.4615 23.3334 10.4615C23.8259 10.4615 24.2983 10.4931 24.7507 10.5562C25.2041 10.6193 25.6716 10.7091 26.1534 10.8255V12.0362C25.6885 11.8878 25.2352 11.7847 24.7934 11.7269C24.3516 11.67 23.865 11.6415 23.3334 11.6415C22.4712 11.6415 21.6303 11.7384 20.8107 11.9322C19.9903 12.126 19.2245 12.4118 18.5134 12.7895ZM18.5134 20.0722V18.7789C19.1952 18.4171 19.9579 18.146 20.8014 17.9655C21.645 17.7833 22.489 17.6922 23.3334 17.6922C23.8259 17.6922 24.2983 17.7238 24.7507 17.7869C25.2041 17.8509 25.6716 17.9407 26.1534 18.0562V19.2669C25.6885 19.1184 25.2352 19.0153 24.7934 18.9575C24.3516 18.9007 23.865 18.8722 23.3334 18.8722C22.4712 18.8722 21.6303 18.9762 20.8107 19.1842C19.9903 19.3931 19.2245 19.6891 18.5134 20.0722ZM18.5134 16.4562V15.1642C19.229 14.8015 19.9961 14.53 20.8147 14.3495C21.6325 14.1682 22.4721 14.0775 23.3334 14.0775C23.8259 14.0775 24.2983 14.1087 24.7507 14.1709C25.2041 14.2349 25.6716 14.3251 26.1534 14.4415V15.6509C25.6885 15.5024 25.2352 15.3998 24.7934 15.3429C24.3516 15.2851 23.865 15.2562 23.3334 15.2562C22.4712 15.2562 21.6303 15.362 20.8107 15.5735C19.9903 15.7842 19.2245 16.0784 18.5134 16.4562ZM16.6667 23.0935C17.7467 22.49 18.837 22.0544 19.9374 21.7869C21.037 21.5202 22.169 21.3869 23.3334 21.3869C24.1334 21.3869 24.8525 21.4362 25.4907 21.5349C26.1299 21.6344 26.693 21.766 27.1801 21.9295C27.3845 22.0149 27.5725 22.002 27.7441 21.8909C27.9147 21.7798 28.0001 21.6047 28.0001 21.3655V9.34421C28.0001 9.19043 27.9574 9.05354 27.8721 8.93354C27.7867 8.81354 27.6414 8.71132 27.4361 8.62688C26.7027 8.36643 26.0356 8.18866 25.4347 8.09354C24.8339 7.99754 24.1334 7.94954 23.3334 7.94954C22.169 7.94954 21.0076 8.1211 19.8494 8.46421C18.6903 8.80821 17.6294 9.32377 16.6667 10.0109V23.0935ZM16.0001 25.0269C14.9156 24.2855 13.7512 23.7158 12.5067 23.3175C11.2623 22.9184 9.9823 22.7189 8.66675 22.7189C7.97341 22.7189 7.29164 22.7771 6.62141 22.8935C5.95208 23.01 5.30053 23.1967 4.66675 23.4535C4.18319 23.6464 3.72897 23.5882 3.30408 23.2789C2.87919 22.9695 2.66675 22.5415 2.66675 21.9949V9.10821C2.66675 8.77843 2.75341 8.47221 2.92675 8.18954C3.10008 7.90777 3.34319 7.71132 3.65608 7.60021C4.44453 7.25977 5.26053 7.01088 6.10408 6.85354C6.94764 6.69532 7.80186 6.61621 8.66675 6.61621C9.97341 6.61621 11.2472 6.80421 12.4881 7.18021C13.7299 7.55621 14.9005 8.10288 16.0001 8.82021C17.0996 8.10288 18.2703 7.55621 19.5121 7.18021C20.7539 6.80421 22.0276 6.61621 23.3334 6.61621C24.1983 6.61621 25.0525 6.69488 25.8961 6.85221C26.7405 7.01043 27.5565 7.25977 28.3441 7.60021C28.657 7.71132 28.9001 7.90777 29.0734 8.18954C29.2467 8.47221 29.3334 8.77843 29.3334 9.10821V21.9949C29.3334 22.5407 29.1041 22.9593 28.6454 23.2509C28.1859 23.5442 27.697 23.594 27.1787 23.4002C26.5619 23.1602 25.9316 22.9869 25.2881 22.8802C24.6445 22.7718 23.993 22.7175 23.3334 22.7175C22.0179 22.7175 20.7379 22.9171 19.4934 23.3162C18.249 23.7144 17.0845 24.2842 16.0001 25.0255" fill="#2E574D"/>
</svg>
