<svg width="66" height="66" viewBox="0 0 66 66" fill="none" xmlns="http://www.w3.org/2000/svg">
<path d="M51.2935 21.7425H11.8369C11.3613 21.7425 10.9051 21.9344 10.5688 22.2759C10.2324 22.6174 10.0435 23.0806 10.0435 23.5636V34.49C10.0488 37.5903 10.7018 40.6543 11.9593 43.4795C13.2168 46.3047 15.0502 48.8269 17.3384 50.8796H11.8369C11.3613 50.8796 10.9051 51.0715 10.5688 51.413C10.2324 51.7545 10.0435 52.2177 10.0435 52.7007C10.0435 53.1837 10.2324 53.6469 10.5688 53.9884C10.9051 54.3299 11.3613 54.5218 11.8369 54.5218H51.2935C51.7691 54.5218 52.2253 54.3299 52.5616 53.9884C52.898 53.6469 53.0869 53.1837 53.0869 52.7007C53.0869 52.2177 52.898 51.7545 52.5616 51.413C52.2253 51.0715 51.7691 50.8796 51.2935 50.8796H45.792C48.5387 48.4077 50.6216 45.2675 51.845 41.7538C54.1229 41.6113 56.2616 40.5922 57.8253 38.9042C59.389 37.2162 60.26 34.9863 60.2608 32.6689V30.8479C60.2608 28.433 59.3161 26.117 57.6344 24.4094C55.9526 22.7018 53.6718 21.7425 51.2935 21.7425ZM56.6739 32.6689C56.6731 33.8471 56.2972 34.9935 55.6023 35.937C54.9074 36.8805 53.9307 37.5707 52.8179 37.9045C52.9956 36.7753 53.0856 35.6336 53.0869 34.49V25.6988C54.1357 26.0753 55.0437 26.7726 55.6861 27.6947C56.3284 28.6168 56.6735 29.7184 56.6739 30.8479V32.6689ZM29.7717 16.2793V8.99502C29.7717 8.51204 29.9607 8.04885 30.297 7.70733C30.6334 7.36581 31.0895 7.17395 31.5652 7.17395C32.0409 7.17395 32.497 7.36581 32.8334 7.70733C33.1697 8.04885 33.3587 8.51204 33.3587 8.99502V16.2793C33.3587 16.7623 33.1697 17.2255 32.8334 17.567C32.497 17.9085 32.0409 18.1004 31.5652 18.1004C31.0895 18.1004 30.6334 17.9085 30.297 17.567C29.9607 17.2255 29.7717 16.7623 29.7717 16.2793ZM36.9456 16.2793V8.99502C36.9456 8.51204 37.1346 8.04885 37.4709 7.70733C37.8073 7.36581 38.2634 7.17395 38.7391 7.17395C39.2148 7.17395 39.6709 7.36581 40.0073 7.70733C40.3436 8.04885 40.5326 8.51204 40.5326 8.99502V16.2793C40.5326 16.7623 40.3436 17.2255 40.0073 17.567C39.6709 17.9085 39.2148 18.1004 38.7391 18.1004C38.2634 18.1004 37.8073 17.9085 37.4709 17.567C37.1346 17.2255 36.9456 16.7623 36.9456 16.2793ZM22.5978 16.2793V8.99502C22.5978 8.51204 22.7868 8.04885 23.1231 7.70733C23.4594 7.36581 23.9156 7.17395 24.3913 7.17395C24.8669 7.17395 25.3231 7.36581 25.6595 7.70733C25.9958 8.04885 26.1848 8.51204 26.1848 8.99502V16.2793C26.1848 16.7623 25.9958 17.2255 25.6595 17.567C25.3231 17.9085 24.8669 18.1004 24.3913 18.1004C23.9156 18.1004 23.4594 17.9085 23.1231 17.567C22.7868 17.2255 22.5978 16.7623 22.5978 16.2793Z" fill="#2E574D"/>
</svg>
