<svg width="46" height="46" viewBox="0 0 46 46" fill="none" xmlns="http://www.w3.org/2000/svg">
<path d="M40.9688 34.2578C40.9688 24.3391 32.9188 16.2891 23 16.2891C13.0813 16.2891 5.03125 24.3391 5.03125 34.2578" fill="#2E574D"/>
<g opacity="0.1">
<path d="M23 16.2891C13.0812 16.2891 5.03125 24.3391 5.03125 34.2578H12.2187C12.2187 25.5609 14.8062 18.3016 23 16.6484C21.85 16.3969 24.2219 16.2891 23 16.2891Z" fill="#2E574D"/>
</g>
<path d="M15.7765 21.4639C14.0875 23.0451 12.4343 26.9264 12.4343 30.6639L15.7765 21.4639Z" fill="#FBF7EB"/>
<path d="M15.7481 20.9703C13.813 22.4156 11.5048 26.2057 11.0375 30.3482C10.9811 30.8481 11.3296 31.2853 11.8295 31.3417C12.3295 31.3981 12.7666 31.0496 12.823 30.5496C13.2138 27.0856 15.196 23.6204 16.8133 22.4285C17.2066 22.1474 17.2711 21.576 16.99 21.1827C16.7129 20.7536 16.1415 20.6891 15.7481 20.9703Z" fill="#FBF7EB"/>
<path d="M44.5625 33.3594H41.8312C41.4 24.5906 35.0031 17.3672 26.5938 15.75V13.5938C26.5938 11.6172 24.9766 10 23 10C21.0234 10 19.4062 11.6172 19.4062 13.5938V15.75C10.9969 17.3672 4.56406 24.5906 4.16875 33.3594H1.4375C0.934375 33.3594 0.539062 33.7547 0.539062 34.2578C0.539062 34.7609 0.934375 35.1562 1.4375 35.1562H44.5625C45.0656 35.1562 45.4609 34.7609 45.4609 34.2578C45.4609 33.7547 45.0656 33.3594 44.5625 33.3594ZM21.2031 13.5938C21.2031 12.5875 21.9937 11.7969 23 11.7969C24.0063 11.7969 24.7969 12.5875 24.7969 13.5938V15.4625C24.2219 15.3906 23.6109 15.3906 23 15.3906C22.3891 15.3906 21.7781 15.4266 21.2031 15.4625V13.5938ZM23 17.1875C32.1281 17.1875 39.5672 24.375 40.0344 33.3594H5.96563C6.43281 24.375 13.8719 17.1875 23 17.1875Z" fill="#2E574D"/>
<path d="M44.5625 15.3906H35.5781C35.075 15.3906 34.6797 15.7859 34.6797 16.2891C34.6797 16.7922 35.075 17.1875 35.5781 17.1875H44.5625C45.0656 17.1875 45.4609 16.7922 45.4609 16.2891C45.4609 15.7859 45.0656 15.3906 44.5625 15.3906Z" fill="#2E574D"/>
<path d="M44.5625 18.9844H40.25C39.7469 18.9844 39.3516 19.3797 39.3516 19.8828C39.3516 20.3859 39.7469 20.7812 40.25 20.7812H44.5625C45.0656 20.7812 45.4609 20.3859 45.4609 19.8828C45.4609 19.3797 45.0656 18.9844 44.5625 18.9844Z" fill="#2E574D"/>
<path d="M44.5625 22.5781H42.7656C42.2625 22.5781 41.8672 22.9734 41.8672 23.4766C41.8672 23.9797 42.2625 24.375 42.7656 24.375H44.5625C45.0656 24.375 45.4609 23.9797 45.4609 23.4766C45.4609 22.9734 45.0656 22.5781 44.5625 22.5781Z" fill="#2E574D"/>
</svg>
