<svg width="45" height="33" viewBox="0 0 45 33" fill="none" xmlns="http://www.w3.org/2000/svg">
<path d="M31.2127 32.4999C31.1382 32.514 31.0615 32.5114 30.9881 32.4923C30.9147 32.4733 30.8464 32.4382 30.7881 32.3896C30.7297 32.341 30.6828 32.2801 30.6505 32.2112C30.6183 32.1423 30.6016 32.0671 30.6016 31.991C30.6016 31.9149 30.6183 31.8397 30.6505 31.7708C30.6828 31.7019 30.7297 31.641 30.7881 31.5924C30.8464 31.5438 30.9147 31.5087 30.9881 31.4897C31.0615 31.4706 31.1382 31.468 31.2127 31.4821H39.6436C39.7618 31.5044 39.8685 31.5675 39.9452 31.6604C40.022 31.7533 40.064 31.8703 40.064 31.991C40.064 32.1117 40.022 32.2287 39.9452 32.3216C39.8685 32.4145 39.7618 32.4776 39.6436 32.4999H31.2127Z" fill="#2E574D"/>
<path d="M35.2525 30.3391C35.1343 30.3168 35.0276 30.2537 34.9508 30.1608C34.874 30.0679 34.832 29.9509 34.832 29.8302C34.832 29.7095 34.874 29.5925 34.9508 29.4996C35.0276 29.4067 35.1343 29.3436 35.2525 29.3213H37.9382C38.0564 29.3436 38.1631 29.4067 38.2399 29.4996C38.3167 29.5925 38.3587 29.7095 38.3587 29.8302C38.3587 29.9509 38.3167 30.0679 38.2399 30.1608C38.1631 30.2537 38.0564 30.3168 37.9382 30.3391H35.2525Z" fill="#2E574D"/>
<path d="M33.5799 31.5536C33.5054 31.5677 33.4287 31.5651 33.3553 31.5461C33.2819 31.527 33.2136 31.4919 33.1553 31.4433C33.0969 31.3947 33.0499 31.3338 33.0177 31.2649C32.9855 31.196 32.9688 31.1208 32.9688 31.0447C32.9688 30.9686 32.9855 30.8934 33.0177 30.8245C33.0499 30.7556 33.0969 30.6947 33.1553 30.6461C33.2136 30.5975 33.2819 30.5624 33.3553 30.5434C33.4287 30.5243 33.5054 30.5217 33.5799 30.5358H41.8685C41.943 30.5217 42.0197 30.5243 42.0931 30.5434C42.1665 30.5624 42.2348 30.5975 42.2931 30.6461C42.3515 30.6947 42.3985 30.7556 42.4307 30.8245C42.4629 30.8934 42.4796 30.9686 42.4796 31.0447C42.4796 31.1208 42.4629 31.196 42.4307 31.2649C42.3985 31.3338 42.3515 31.3947 42.2931 31.4433C42.2348 31.4919 42.1665 31.527 42.0931 31.5461C42.0197 31.5651 41.943 31.5677 41.8685 31.5536H33.5799Z" fill="#2E574D"/>
<path fill-rule="evenodd" clip-rule="evenodd" d="M18.567 1.10698C19.208 1.10345 19.8356 1.29105 20.3703 1.646C20.905 2.00096 21.3227 2.5073 21.5704 3.10084C21.8182 3.69438 21.8848 4.3484 21.7619 4.98001C21.639 5.61162 21.3321 6.19238 20.8801 6.64869C20.4281 7.105 19.8513 7.41631 19.2229 7.54317C18.5945 7.67002 17.9427 7.60671 17.3501 7.36126C16.7576 7.11581 16.251 6.69927 15.8945 6.16443C15.538 5.62959 15.3477 5.00053 15.3477 4.35698C15.3476 3.49811 15.6863 2.67416 16.2895 2.06518C16.8927 1.45619 17.7116 1.1117 18.567 1.10698Z" fill="#B3C7FA"/>
<path d="M20.49 2.41099C19.98 1.90066 19.2892 1.61411 18.5691 1.61411C17.849 1.61411 17.1582 1.90066 16.6481 2.41099C16.1398 2.9231 15.8544 3.61659 15.8544 4.33957C15.8544 5.06254 16.1398 5.75603 16.6481 6.26814C17.1669 6.731 17.8422 6.97739 18.536 6.95688C19.2297 6.93638 19.8894 6.65054 20.3802 6.15784C20.8709 5.66514 21.1556 5.0028 21.1761 4.30631C21.1965 3.60983 20.9511 2.93183 20.49 2.41099ZM18.5691 0.625279C19.3105 0.621666 20.0361 0.839638 20.6537 1.25144C21.2713 1.66325 21.7529 2.25025 22.0371 2.93772C22.3213 3.62519 22.3953 4.38202 22.2496 5.11185C22.104 5.84168 21.7453 6.51149 21.2193 7.03599C20.8715 7.39235 20.4564 7.67545 19.9983 7.86872C19.5402 8.06199 19.0482 8.16154 18.5513 8.16154C18.0544 8.16154 17.5624 8.06199 17.1043 7.86872C16.6462 7.67545 16.2311 7.39235 15.8833 7.03599H16.0078C15.6529 6.68684 15.3709 6.27009 15.1784 5.81014C14.9859 5.3502 14.8867 4.85632 14.8867 4.35742C14.8867 3.85852 14.9859 3.36464 15.1784 2.9047C15.3709 2.44476 15.6529 2.02801 16.0078 1.67885C16.6929 1.00478 17.61 0.621139 18.5691 0.607422V0.625279Z" fill="#2E574D"/>
<path fill-rule="evenodd" clip-rule="evenodd" d="M23.3541 2.74988C26.3067 0.499876 27.8363 0.624876 28.6723 2.0713C29.3482 3.1963 30.2375 9.42845 30.8778 11.5713C26.7691 10.8034 22.7671 9.92845 20.4727 6.03559C19.281 4.01773 19.4411 2.46416 23.3541 2.74988Z" fill="#B3C7FA"/>
<path d="M26.8405 1.53576C25.6602 1.78566 24.5674 2.34654 23.6745 3.16076C23.5741 3.24118 23.4467 3.27957 23.3188 3.2679C21.5401 3.1429 20.7397 3.37504 20.4373 3.80361C20.1705 4.21433 20.4373 4.92861 20.9176 5.7679C21.919 7.41762 23.4216 8.70086 25.2041 9.42861C26.8209 10.1159 28.5093 10.619 30.2377 10.9286C30.0599 10.1608 29.882 9.1429 29.6686 8.16076C29.3598 6.16571 28.8838 4.2004 28.2456 2.28576C28.1234 2.02589 27.9251 1.80969 27.6772 1.66609C27.4292 1.52248 27.1435 1.45832 26.8583 1.48219M23.1231 2.28576C24.1253 1.37724 25.3551 0.759908 26.6804 0.500043C27.1579 0.447912 27.6397 0.545175 28.06 0.778522C28.4802 1.01187 28.8184 1.3699 29.0282 1.80361C29.724 3.8049 30.2302 5.86761 30.5401 7.96433C30.8247 9.37504 31.0737 10.6965 31.2693 11.4465C31.288 11.5292 31.286 11.6153 31.2637 11.6971C31.2414 11.779 31.1995 11.854 31.1415 11.9158C31.0835 11.9775 31.0113 12.024 30.9313 12.0511C30.8512 12.0783 30.7658 12.0853 30.6824 12.0715C28.6353 11.7595 26.6302 11.2143 24.7061 10.4465C22.7189 9.61689 21.0527 8.1634 19.9571 6.30361C19.2634 5.1429 18.9966 4.07147 19.4946 3.2679C20.0816 2.5179 21.1844 2.12504 23.1231 2.28576Z" fill="#2E574D"/>
<path d="M22.8907 2.94656C22.8604 2.82604 22.8742 2.69859 22.9297 2.58747C22.9852 2.47635 23.0787 2.38898 23.1931 2.34133C23.3074 2.29367 23.435 2.2889 23.5526 2.32789C23.6702 2.36688 23.7698 2.44703 23.8334 2.5537L24.0469 3.08942C24.2251 3.62425 24.4702 4.13426 24.7761 4.60727C25.0499 4.88726 25.3612 5.12766 25.701 5.32156L26.5548 5.89299C26.6381 5.97849 26.6893 6.0903 26.6998 6.20944C26.7104 6.32858 26.6795 6.4477 26.6124 6.54656C26.5454 6.64543 26.4463 6.71795 26.332 6.7518C26.2178 6.78565 26.0954 6.77875 25.9856 6.73227L25.1496 6.1787C24.7189 5.93818 24.3287 5.63081 23.9935 5.26799C23.619 4.71792 23.3254 4.11649 23.122 3.48227L22.8907 2.94656Z" fill="#2E574D"/>
<path fill-rule="evenodd" clip-rule="evenodd" d="M39.128 5.85742C39.7697 5.85746 40.397 6.04901 40.9301 6.40772C41.4632 6.76644 41.878 7.27615 42.122 7.87209C42.3659 8.46803 42.4279 9.12332 42.3001 9.75472C42.1723 10.3861 41.8604 10.9651 41.4041 11.4182C40.9478 11.8712 40.3677 12.1779 39.7374 12.2993C39.1072 12.4206 38.4552 12.3511 37.8643 12.0997C37.2735 11.8482 36.7704 11.4261 36.419 10.8869C36.0676 10.3478 35.8838 9.71597 35.8908 9.07171C35.9002 8.21596 36.2454 7.39845 36.8514 6.79666C37.4575 6.19487 38.2756 5.85737 39.128 5.85742Z" fill="#B3C7FA"/>
<path d="M41.0342 7.14298C40.5242 6.63265 39.8334 6.3461 39.1133 6.3461C38.3932 6.3461 37.7024 6.63265 37.1924 7.14298C36.684 7.65508 36.3986 8.34858 36.3986 9.07155C36.3986 9.79453 36.684 10.488 37.1924 11.0001C37.7111 11.463 38.3864 11.7094 39.0802 11.6889C39.7739 11.6684 40.4336 11.3825 40.9244 10.8898C41.4151 10.3971 41.6999 9.73479 41.7203 9.0383C41.7407 8.34182 41.4953 7.66382 41.0342 7.14298ZM39.1311 5.32155C39.8725 5.31794 40.5981 5.53591 41.2157 5.94772C41.8333 6.35952 42.3149 6.94653 42.5991 7.634C42.8833 8.32147 42.9573 9.0783 42.8116 9.80813C42.666 10.538 42.3073 11.2078 41.7813 11.7323C41.4335 12.0886 41.0184 12.3717 40.5603 12.565C40.1022 12.7583 39.6102 12.8578 39.1133 12.8578C38.6164 12.8578 38.1244 12.7583 37.6663 12.565C37.2082 12.3717 36.7931 12.0886 36.4453 11.7323C36.0904 11.3831 35.8084 10.9664 35.6159 10.5064C35.4234 10.0465 35.3242 9.55259 35.3242 9.0537C35.3242 8.5548 35.4234 8.06092 35.6159 7.60098C35.8084 7.14103 36.0904 6.72428 36.4453 6.37513C36.8005 6.02878 37.2211 5.75717 37.6823 5.57625C38.1435 5.39532 38.6361 5.30873 39.1311 5.32155Z" fill="#2E574D"/>
<path fill-rule="evenodd" clip-rule="evenodd" d="M3.93065 7.64289C4.36749 7.62859 4.80286 7.70087 5.21186 7.8556C5.62086 8.01034 5.99547 8.24448 6.31429 8.54466C6.6331 8.84484 6.88986 9.20515 7.06988 9.60501C7.2499 10.0049 7.34966 10.4364 7.36345 10.875C7.35196 11.3151 7.25389 11.7486 7.07488 12.1506C6.89588 12.5525 6.63948 12.9149 6.32044 13.2169C6.00139 13.519 5.626 13.7547 5.21586 13.9106C4.80573 14.0664 4.36894 14.1393 3.93065 14.125C3.49382 14.1369 3.05894 14.0623 2.65086 13.9053C2.24278 13.7484 1.86951 13.5123 1.55236 13.2105C1.23521 12.9086 0.980416 12.547 0.802528 12.1463C0.62464 11.7456 0.527149 11.3136 0.515625 10.875C0.54352 9.99243 0.918489 9.15685 1.55849 8.55112C2.19849 7.94539 3.05142 7.61883 3.93065 7.64289Z" fill="#B3C7FA"/>
<path d="M6.01107 8.96435C5.44468 8.44013 4.70035 8.15271 3.93004 8.16078C3.13531 8.1341 2.36211 8.4228 1.77786 8.96435C1.51319 9.20855 1.30189 9.50526 1.15735 9.83569C1.01282 10.1661 0.938187 10.5231 0.938187 10.884C0.938187 11.2449 1.01282 11.6018 1.15735 11.9323C1.30189 12.2627 1.51319 12.5594 1.77786 12.8036C2.34426 13.3279 3.08859 13.6153 3.85889 13.6072C4.6292 13.6153 5.37353 13.3279 5.93992 12.8036C6.2046 12.5594 6.41589 12.2627 6.56043 11.9323C6.70497 11.6018 6.7796 11.2449 6.7796 10.884C6.7796 10.5231 6.70497 10.1661 6.56043 9.83569C6.41589 9.50526 6.2046 9.20855 5.93992 8.96435M3.85889 7.17863C4.88829 7.17333 5.88083 7.56298 6.6336 8.26792C7.01212 8.60307 7.31527 9.01524 7.52292 9.47707C7.73058 9.93889 7.83797 10.4398 7.83797 10.9465C7.83797 11.4532 7.73058 11.9541 7.52292 12.4159C7.31527 12.8777 7.01212 13.2899 6.6336 13.6251C5.88083 14.33 4.88829 14.7196 3.85889 14.7143C2.85063 14.6779 1.89249 14.2638 1.17312 13.5536C0.7946 13.2185 0.491444 12.8063 0.283793 12.3445C0.0761425 11.8827 -0.03125 11.3818 -0.03125 10.8751C-0.03125 10.3684 0.0761425 9.86746 0.283793 9.40564C0.491444 8.94382 0.7946 8.53164 1.17312 8.19649C1.92413 7.50228 2.9092 7.11945 3.93004 7.12506L3.85889 7.17863Z" fill="#2E574D"/>
<path fill-rule="evenodd" clip-rule="evenodd" d="M18.4452 6C19.3669 6 20.2679 6.27439 21.0342 6.78848C21.8006 7.30257 22.3979 8.03326 22.7506 8.88816C23.1033 9.74306 23.1956 10.6838 23.0158 11.5913C22.836 12.4989 22.3921 13.3325 21.7404 13.9868C21.0887 14.6411 20.2583 15.0867 19.3544 15.2672C18.4504 15.4478 17.5134 15.3551 16.6619 15.001C15.8104 14.6469 15.0826 14.0472 14.5705 13.2778C14.0585 12.5085 13.7852 11.6039 13.7852 10.6786C13.7852 9.43774 14.2761 8.24772 15.1501 7.37032C16.024 6.49292 17.2093 6 18.4452 6Z" fill="#B3C7FA"/>
<path d="M21.3429 7.73194C20.6583 7.05908 19.7626 6.64513 18.8083 6.56053C17.854 6.47593 16.8999 6.7259 16.1084 7.26792C15.317 7.80993 14.737 8.6105 14.4672 9.53343C14.1974 10.4564 14.2545 11.4446 14.6286 12.3301C15.0028 13.2156 15.671 13.9435 16.5195 14.3901C17.368 14.8367 18.3445 14.9744 19.2827 14.7797C20.2209 14.585 21.0629 14.07 21.6656 13.3222C22.2682 12.5745 22.5941 11.6402 22.588 10.6784C22.5845 10.129 22.4726 9.58586 22.2589 9.08015C22.0452 8.57445 21.7339 8.11623 21.3429 7.73194ZM18.4437 5.48194C19.6418 5.47973 20.8036 5.89489 21.7309 6.65662C22.6582 7.41835 23.2935 8.47947 23.5286 9.65898C23.7636 10.8385 23.5838 12.0633 23.0197 13.1246C22.4557 14.1859 21.5424 15.0178 20.4357 15.4785C19.3289 15.9392 18.0972 16.0002 16.9507 15.651C15.8042 15.3018 14.8138 14.5641 14.1485 13.5637C13.4833 12.5633 13.1843 11.3621 13.3027 10.1651C13.421 8.96812 13.9493 7.84941 14.7975 6.9998C15.7643 6.0285 17.0759 5.48252 18.4437 5.48194Z" fill="#2E574D"/>
<path fill-rule="evenodd" clip-rule="evenodd" d="M6.38456 15.5357C4.53475 11.375 2.59602 6.48214 4.2146 2C5.54906 3.03595 6.99243 3.92217 8.51894 4.64286C10.9557 5.75 14.4774 6.30357 16.345 8.05357C18.8885 10.4286 17.8569 13.9821 16.345 17.7143L6.38456 15.5357Z" fill="#B3C7FA"/>
<path d="M4.49924 8.7859C5.04227 10.9604 5.79277 13.0774 6.74034 15.1073L16.0071 17.1252C16.7059 15.6025 17.1736 13.9834 17.3945 12.3216C17.4945 11.6058 17.4205 10.8762 17.179 10.1953C16.9374 9.51432 16.5354 8.90212 16.0071 8.4109C14.5615 7.33829 12.9165 6.56718 11.1692 6.14304C10.1961 5.84506 9.24005 5.49334 8.30556 5.08947C7.57838 4.75704 6.87159 4.38137 6.18896 3.96447C5.63758 3.62518 5.06841 3.25018 4.4103 2.82161C3.91867 4.77303 3.91867 6.81663 4.4103 8.76804M5.81544 15.6966C4.84914 13.5428 4.09266 11.3002 3.55655 9.00018C2.94779 6.64645 3.02807 4.1664 3.78777 1.85733C3.82846 1.74019 3.91107 1.64243 4.01954 1.58303C4.12802 1.52362 4.25461 1.50683 4.37473 1.5359H4.49924C5.29963 2.14304 6.02888 2.62518 6.70477 3.05375C7.35297 3.4506 8.02412 3.80838 8.71465 4.12518C9.61517 4.50771 10.5355 4.84152 11.4716 5.12518C13.3694 5.59224 15.15 6.4496 16.7008 7.64304C17.3434 8.23466 17.8317 8.97534 18.1232 9.80028C18.4147 10.6252 18.5003 11.5093 18.3728 12.3752C18.112 14.282 17.5601 16.1371 16.7364 17.8752C16.69 17.9831 16.6083 18.072 16.5048 18.1272C16.4014 18.1824 16.2823 18.2006 16.1672 18.1788L6.27789 16.0359C6.19324 16.0194 6.11432 15.9811 6.04884 15.9247C5.98337 15.8684 5.93359 15.7959 5.90438 15.7145L5.81544 15.6966Z" fill="#2E574D"/>
<path d="M15.1887 17.1786C15.2312 17.3048 15.2235 17.4427 15.1672 17.5634C15.111 17.6841 15.0106 17.7784 14.8869 17.8267C14.7632 17.875 14.6257 17.8736 14.5031 17.8227C14.3804 17.7718 14.282 17.6754 14.2283 17.5536L13.997 16.9643C13.101 13.9387 11.323 11.2519 8.8923 9.24999C8.81599 9.15301 8.77675 9.03182 8.78166 8.90833C8.78657 8.78484 8.83531 8.66718 8.91908 8.57661C9.00284 8.48605 9.11611 8.42854 9.23841 8.41449C9.36072 8.40044 9.48399 8.43077 9.58597 8.49999C12.1339 10.5928 13.9987 13.4042 14.9397 16.5714L15.1887 17.1786Z" fill="#2E574D"/>
<path fill-rule="evenodd" clip-rule="evenodd" d="M22.1262 10.7145C22.5083 10.7142 22.8875 10.7806 23.2468 10.9109C23.2468 10.9109 23.2468 10.7859 23.2468 10.7145C23.2476 10.1978 23.3684 9.68851 23.5997 9.22698C23.831 8.76545 24.1663 8.36444 24.579 8.05584C24.9917 7.74724 25.4704 7.53956 25.9771 7.4493C26.4838 7.35905 27.0045 7.38871 27.4978 7.53592C27.4978 7.42878 27.4978 7.32164 27.4978 7.21449C27.4978 6.77832 27.5833 6.34641 27.7496 5.94344C27.9159 5.54046 28.1595 5.17431 28.4667 4.86589C28.774 4.55747 29.1387 4.31281 29.54 4.1459C29.9414 3.97898 30.3716 3.89307 30.8061 3.89307C31.2405 3.89307 31.6707 3.97898 32.0721 4.1459C32.4735 4.31281 32.8382 4.55747 33.1454 4.86589C33.4526 5.17431 33.6963 5.54046 33.8625 5.94344C34.0288 6.34641 34.1144 6.77832 34.1144 7.21449C34.1219 7.34534 34.1219 7.47651 34.1144 7.60735C34.5716 7.39134 35.0721 7.28337 35.5774 7.29173C36.0827 7.3001 36.5794 7.42457 37.0293 7.6556C37.4793 7.88663 37.8705 8.21808 38.173 8.62451C38.4755 9.03094 38.6813 9.50154 38.7744 10.0002C39.2076 9.72395 39.6988 9.55265 40.2093 9.49985C40.7198 9.44704 41.2355 9.51418 41.7156 9.69596C42.1958 9.87774 42.6273 10.1692 42.9759 10.5472C43.3246 10.9252 43.5808 11.3795 43.7245 11.8741C43.8681 12.3688 43.8951 12.8901 43.8035 13.397C43.7118 13.904 43.504 14.3825 43.1963 14.7949C42.8887 15.2073 42.4897 15.5421 42.031 15.773C41.5722 16.0039 41.0663 16.1245 40.5531 16.1252C40.3284 16.1481 40.1019 16.1481 39.8772 16.1252C39.6816 19.6966 36.3199 22.4109 32.0511 22.4109C30.2759 22.5231 28.5188 21.9971 27.0946 20.9271C25.6704 19.8572 24.6721 18.3132 24.2784 16.5716C23.8737 16.9212 23.3909 17.1672 22.871 17.2887C22.3511 17.4102 21.8096 17.4036 21.2928 17.2695C20.776 17.1354 20.2992 16.8777 19.9031 16.5184C19.507 16.1592 19.2033 15.709 19.0181 15.2064C18.8329 14.7038 18.7715 14.1637 18.8393 13.6321C18.907 13.1005 19.1019 12.5933 19.4073 12.1537C19.7127 11.7142 20.1194 11.3553 20.5929 11.1078C21.0663 10.8603 21.5924 10.7315 22.1262 10.7324" fill="#B3C7FA"/>
<path d="M22.6064 11.2145H22.1262C21.5745 11.211 21.0343 11.3717 20.5735 11.6761C20.1127 11.9806 19.7521 12.4153 19.5371 12.9253C19.3221 13.4353 19.2623 13.9978 19.3654 14.5419C19.4685 15.086 19.7298 15.5872 20.1163 15.9823C20.6117 16.4829 21.277 16.7775 21.9792 16.8073C22.6815 16.837 23.3691 16.5999 23.9048 16.143C23.9738 16.0809 24.0582 16.0386 24.1491 16.0205C24.24 16.0025 24.3341 16.0093 24.4215 16.0404C24.5088 16.0714 24.5862 16.1256 24.6455 16.197C24.7049 16.2685 24.7439 16.3547 24.7586 16.4466C24.885 17.2075 25.1608 17.9356 25.57 18.5886C25.9791 19.2416 26.5135 19.8064 27.142 20.2502C28.6048 21.2972 30.361 21.8509 32.1574 21.8316C33.9538 21.8124 35.6978 21.2211 37.138 20.143C37.7818 19.6586 38.3149 19.0415 38.7015 18.3331C39.088 17.6246 39.3191 16.8414 39.3791 16.0359C39.3917 15.9695 39.4176 15.9064 39.4552 15.8503C39.4928 15.7942 39.5413 15.7463 39.5978 15.7096C39.6543 15.6729 39.7177 15.6481 39.784 15.6366C39.8504 15.6252 39.9184 15.6274 39.9839 15.643H40.2685H40.553C41.1047 15.6465 41.6449 15.4859 42.1057 15.1814C42.5665 14.8769 42.9271 14.4422 43.1421 13.9322C43.3571 13.4222 43.4169 12.8597 43.3138 12.3156C43.2107 11.7716 42.9494 11.2703 42.5629 10.8752C42.1097 10.4018 41.5053 10.1032 40.8552 10.0315C40.2051 9.95966 39.5505 10.1192 39.0056 10.4823H38.81C38.6782 10.5034 38.5435 10.4723 38.434 10.3957C38.3246 10.3192 38.2489 10.203 38.223 10.0716C38.1556 9.69557 38.0129 9.33718 37.8035 9.01817C37.594 8.69917 37.3223 8.42619 37.0046 8.2158C36.6869 8.00541 36.33 7.86198 35.9555 7.79422C35.5809 7.72646 35.1966 7.73578 34.8258 7.82161C34.6294 7.8659 34.4386 7.93178 34.2566 8.01804C34.1746 8.06397 34.0816 8.08653 33.9877 8.0833C33.8938 8.08007 33.8026 8.05117 33.7239 7.99971C33.6452 7.94826 33.582 7.8762 33.5411 7.79131C33.5002 7.70643 33.4831 7.61194 33.4918 7.51804V7.35733C33.4918 7.35733 33.4918 7.26804 33.4918 7.19661C33.487 6.64647 33.3221 6.10973 33.0175 5.65245C32.7128 5.19517 32.2816 4.83729 31.7769 4.62286C31.2723 4.40844 30.7162 4.34681 30.1771 4.44558C29.638 4.54435 29.1394 4.79919 28.7428 5.17876C28.219 5.70441 27.9247 6.4174 27.9246 7.1609V7.4109C27.9329 7.49373 27.9211 7.57734 27.8904 7.65464C27.8596 7.73195 27.8108 7.80067 27.7479 7.85499C27.6851 7.90931 27.6101 7.94762 27.5294 7.96668C27.4487 7.98574 27.3646 7.98498 27.2843 7.96447H26.893H26.4839C25.7433 7.96447 25.033 8.25985 24.5093 8.78562C23.9856 9.31139 23.6914 10.0245 23.6914 10.768C23.6914 10.768 23.6914 10.8752 23.6914 10.9288C23.7034 10.9937 23.7034 11.0603 23.6914 11.1252C23.6695 11.1875 23.6355 11.2449 23.5914 11.294C23.5473 11.3431 23.4939 11.3829 23.4343 11.4111C23.3748 11.4394 23.3102 11.4555 23.2445 11.4585C23.1787 11.4615 23.1129 11.4514 23.0511 11.4288L22.6064 11.2145ZM22.1262 10.1609H22.7487C22.8615 9.23123 23.3089 8.37502 24.0066 7.75343C24.7044 7.13184 25.6044 6.78774 26.5372 6.7859H26.9641C27.0332 5.8759 27.4244 5.02077 28.0669 4.37519C28.7787 3.67285 29.7368 3.2793 30.7349 3.2793C31.7329 3.2793 32.691 3.67285 33.4028 4.37519C34.0377 5.01163 34.4283 5.85278 34.5056 6.75019C35.4509 6.49609 36.4573 6.61552 37.3176 7.08391C38.1779 7.55229 38.8266 8.33398 39.1301 9.26804L39.5036 9.14304C40.1604 8.94835 40.8574 8.93516 41.521 9.10487C42.1847 9.27458 42.7904 9.6209 43.2744 10.1073C43.9739 10.822 44.3659 11.7839 44.3659 12.7859C44.3659 13.7879 43.9739 14.7498 43.2744 15.4645C42.9164 15.8207 42.4915 16.102 42.0243 16.2921C41.5572 16.4822 41.0571 16.5772 40.553 16.5716H40.3396C40.0618 18.2759 39.1455 19.8092 37.7783 20.8573C36.1703 22.083 34.2145 22.7614 32.1958 22.7935C30.1771 22.8256 28.2009 22.2098 26.555 21.0359C25.2925 20.1319 24.3662 18.8312 23.9226 17.3395L23.4246 17.5538C22.7395 17.8053 21.9971 17.855 21.2848 17.6968C20.5726 17.5386 19.9202 17.1791 19.4048 16.6609C18.8812 16.1211 18.5274 15.4386 18.3874 14.6984C18.2474 13.9582 18.3275 13.1929 18.6176 12.4981C18.9078 11.8032 19.3951 11.2094 20.019 10.7906C20.6429 10.3719 21.3757 10.1466 22.1262 10.143V10.1609Z" fill="#2E574D"/>
<path fill-rule="evenodd" clip-rule="evenodd" d="M27.6942 9.94657C28.3352 9.94658 28.9618 10.1376 29.4945 10.4956C30.0273 10.8535 30.4422 11.3621 30.6866 11.957C30.9311 12.5519 30.9942 13.2063 30.8678 13.8372C30.7415 14.4681 30.4314 15.0472 29.9769 15.501C29.5224 15.9548 28.9439 16.2629 28.3148 16.3863C27.6857 16.5097 27.0342 16.4427 26.4431 16.194C25.8519 15.9453 25.3475 15.526 24.994 14.9892C24.6404 14.4523 24.4536 13.8222 24.4571 13.1787C24.4571 12.3168 24.7981 11.4901 25.4052 10.8806C26.0123 10.2711 26.8357 9.92871 27.6942 9.92871" fill="#B3C7FA"/>
<path d="M29.6125 11.2143C29.1054 10.6981 28.4148 10.4053 27.6927 10.4002C26.9705 10.3952 26.2759 10.6784 25.7617 11.1875C25.2476 11.6967 24.9559 12.39 24.9509 13.115C24.9459 13.8401 25.2279 14.5374 25.7351 15.0536C26.2422 15.5698 26.9328 15.8627 27.6549 15.8677C28.3771 15.8727 29.0717 15.5895 29.5858 15.0804C30.1 14.5713 30.3917 13.8779 30.3967 13.1529C30.4017 12.4279 30.1196 11.7306 29.6125 11.2143ZM27.6916 9.42862C28.433 9.425 29.1586 9.64297 29.7762 10.0548C30.3938 10.4666 30.8754 11.0536 31.1596 11.7411C31.4438 12.4285 31.5177 13.1854 31.3721 13.9152C31.2265 14.645 30.8678 15.3148 30.3418 15.8393C29.994 16.1957 29.5789 16.4788 29.1208 16.6721C28.6626 16.8653 28.1707 16.9649 27.6738 16.9649C27.1769 16.9649 26.6849 16.8653 26.2268 16.6721C25.7687 16.4788 25.3536 16.1957 25.0058 15.8393C24.4775 15.3127 24.118 14.6396 23.9734 13.9064C23.8289 13.1731 23.9059 12.4133 24.1945 11.7243C24.4832 11.0353 24.9703 10.4487 25.5934 10.0396C26.2165 9.63057 26.9472 9.4178 27.6916 9.42862Z" fill="#2E574D"/>
<path fill-rule="evenodd" clip-rule="evenodd" d="M1.03125 14.4463H44.466C44.466 22.1963 36.9067 31.982 29.0095 31.982H16.4878C8.59054 31.9999 1.03125 22.1963 1.03125 14.4463Z" fill="#2E574D"/>
<path d="M21.8777 14.9644H1.54766C1.86782 22.393 9.01802 31.4823 16.4706 31.4823H29.0279C30.9735 31.336 32.8673 30.784 34.5884 29.8616C36.3096 28.9392 37.8202 27.6666 39.024 26.1251C41.843 23.0475 43.5799 19.1273 43.9686 14.9644H21.8777ZM1.03185 13.9465H44.4666C44.6034 13.9465 44.7346 14.0011 44.8314 14.0982C44.9281 14.1953 44.9825 14.3271 44.9825 14.4644C44.7318 19.0724 42.8889 23.4485 39.771 26.8394C38.4801 28.4755 36.8651 29.8249 35.0282 30.8023C33.1913 31.7797 31.1723 32.3639 29.0991 32.518H16.4884C8.34213 32.518 0.48047 22.4465 0.48047 14.4644C0.480302 14.3933 0.494725 14.3229 0.522843 14.2576C0.55096 14.1923 0.592169 14.1336 0.6439 14.085C0.69563 14.0364 0.756774 13.999 0.823521 13.9752C0.890267 13.9514 0.961185 13.9416 1.03185 13.9465Z" fill="#2E574D"/>
<path fill-rule="evenodd" clip-rule="evenodd" d="M35.3228 12.2679C32.388 10.0179 30.8583 10.1429 29.9868 11.5894C29.3287 12.7322 28.3504 18.9644 27.7812 21.0894C31.8899 20.3215 35.8919 19.4465 38.1864 15.5537C39.3781 13.5358 39.218 11.9822 35.305 12.2679" fill="#B3C7FA"/>
<path d="M31.926 10.0356C33.2513 10.2955 34.4811 10.9128 35.4833 11.8214C37.5288 11.7142 38.6493 12.1249 39.0407 12.8571C39.5387 13.6606 39.2719 14.6428 38.5782 15.8928C37.4826 17.7526 35.8164 19.2061 33.8292 20.0356C31.9052 20.8038 29.9001 21.349 27.8529 21.6606C27.7769 21.6789 27.6977 21.6789 27.6217 21.6606C27.4932 21.6231 27.3843 21.537 27.318 21.4203C27.2516 21.3037 27.2329 21.1658 27.2659 21.0356C27.4616 20.2856 27.7284 18.9642 27.9952 17.5535C28.3051 15.4568 28.8113 13.3941 29.5071 11.3928C29.7169 10.9591 30.0551 10.601 30.4753 10.3677C30.8956 10.1343 31.3774 10.0371 31.8549 10.0892M34.9497 12.7321C34.0568 11.9179 32.964 11.357 31.7837 11.1071C31.4985 11.0832 31.2128 11.1474 30.9649 11.291C30.7169 11.4346 30.5186 11.6508 30.3964 11.9106C29.7662 13.8142 29.2962 15.7675 28.9912 17.7499C28.7956 18.7856 28.5999 19.7499 28.4221 20.5178C30.1349 20.2344 31.8111 19.7612 33.4201 19.1071C35.2131 18.3607 36.717 17.0513 37.7067 15.3749C38.2047 14.5356 38.4359 13.8214 38.1869 13.4106C37.9379 12.9999 37.0308 12.7321 35.2877 12.8571C35.1751 12.8324 35.0745 12.7693 35.0031 12.6785L34.9497 12.7321Z" fill="#2E574D"/>
<path d="M34.8606 12.0716C34.8788 11.9995 34.9122 11.9322 34.9586 11.8742C35.005 11.8162 35.0633 11.769 35.1295 11.7356C35.1957 11.7023 35.2683 11.6836 35.3423 11.681C35.4163 11.6783 35.49 11.6917 35.5584 11.7202C35.6269 11.7487 35.6883 11.7917 35.7387 11.8462C35.7891 11.9007 35.8272 11.9655 35.8505 12.0361C35.8737 12.1067 35.8815 12.1815 35.8734 12.2554C35.8652 12.3293 35.8413 12.4006 35.8033 12.4644L35.5721 13.0001C35.3688 13.6345 35.0753 14.2359 34.7005 14.7859C34.3658 15.1491 33.9755 15.4566 33.5444 15.6966L32.7084 16.2501C32.5987 16.2966 32.4763 16.3035 32.362 16.2697C32.2477 16.2358 32.1487 16.1633 32.0816 16.0644C32.0146 15.9656 31.9837 15.8465 31.9942 15.7273C32.0047 15.6082 32.056 15.4964 32.1393 15.4109L32.9752 14.7859C33.315 14.592 33.6263 14.3516 33.9001 14.0716C34.2059 13.5985 34.4509 13.0885 34.6294 12.5537L34.8606 12.0716Z" fill="#2E574D"/>
<path d="M11.2231 27.2857C11.1528 27.2559 11.0899 27.2108 11.039 27.1537C10.9881 27.0965 10.9505 27.0287 10.9289 26.9552C10.9072 26.8816 10.9022 26.8042 10.914 26.7284C10.9258 26.6527 10.9542 26.5805 10.9972 26.5171C11.0402 26.4538 11.0967 26.4008 11.1625 26.362C11.2284 26.3232 11.302 26.2995 11.3781 26.2927C11.4542 26.286 11.5308 26.2963 11.6024 26.3228C11.674 26.3494 11.7389 26.3916 11.7923 26.4465L12.6283 26.9822L13.4998 27.4465C13.5936 27.5195 13.6594 27.6227 13.6862 27.7388C13.713 27.8548 13.6991 27.9766 13.6468 28.0836C13.5946 28.1906 13.5072 28.2762 13.3994 28.326C13.2917 28.3759 13.1701 28.3869 13.0552 28.3572L12.1302 27.8572L11.2231 27.2857ZM4.32195 17.5C4.28657 17.3651 4.30604 17.2215 4.37609 17.1009C4.44614 16.9804 4.56102 16.8927 4.69547 16.8572C4.82991 16.8217 4.9729 16.8412 5.09298 16.9115C5.21306 16.9819 5.3004 17.0972 5.33578 17.2322C5.74243 18.7147 6.34038 20.1374 7.11444 21.4643C7.89255 22.7822 8.85045 23.9843 9.96029 25.0357C10.0594 25.1281 10.1178 25.2562 10.1228 25.3918C10.1278 25.5274 10.079 25.6595 9.98697 25.759C9.89498 25.8584 9.76741 25.9171 9.63232 25.9221C9.49722 25.9272 9.36567 25.8781 9.26661 25.7857C8.09509 24.6473 7.08916 23.3488 6.27847 21.9286C5.43739 20.544 4.77967 19.0553 4.32195 17.5Z" fill="#FBF7EB"/>
</svg>
