<svg width="32" height="33" viewBox="0 0 32 33" fill="none" xmlns="http://www.w3.org/2000/svg">
<g id="Group 33712">
<path id="Vector" d="M13.8102 2.61411L2.18978 14.2345C0.980397 15.4439 0.980397 17.4047 2.18978 18.6141L13.8102 30.2345C15.0196 31.4439 16.9804 31.4439 18.1898 30.2345L29.8102 18.6141C31.0196 17.4047 31.0196 15.4439 29.8102 14.2345L18.1898 2.61411C16.9804 1.40473 15.0196 1.40473 13.8102 2.61411Z" fill="#343333"/>
<path id="Vector_2" d="M16.0357 25.5872C21.0965 25.5872 25.1991 21.4846 25.1991 16.4237C25.1991 11.3629 21.0965 7.26025 16.0357 7.26025C10.9748 7.26025 6.87219 11.3629 6.87219 16.4237C6.87219 21.4846 10.9748 25.5872 16.0357 25.5872Z" fill="white"/>
<path id="Vector_3" d="M18.7466 10.6978H13.4046C11.6942 10.6978 10.3077 12.0842 10.3077 13.7946V19.1366C10.3077 20.8469 11.6942 22.2334 13.4046 22.2334H18.7466C20.4569 22.2334 21.8434 20.8469 21.8434 19.1366V13.7946C21.8434 12.0842 20.4569 10.6978 18.7466 10.6978Z" fill="#343333"/>
<path id="Vector_4" d="M16.0193 20.4022C18.2245 20.4022 20.0121 18.6145 20.0121 16.4093C20.0121 14.2042 18.2245 12.4165 16.0193 12.4165C13.8141 12.4165 12.0265 14.2042 12.0265 16.4093C12.0265 18.6145 13.8141 20.4022 16.0193 20.4022Z" fill="white"/>
<path id="Vector_5" d="M15.4191 15.3243L15.049 15.6944C14.6459 16.0975 14.6459 16.7511 15.049 17.1542L15.4191 17.5243C15.8222 17.9274 16.4758 17.9274 16.8789 17.5243L17.249 17.1542C17.6521 16.7511 17.6521 16.0975 17.249 15.6944L16.8789 15.3243C16.4758 14.9212 15.8222 14.9212 15.4191 15.3243Z" fill="#343333"/>
</g>
</svg>
