<svg width="110" height="110" viewBox="0 0 110 110" fill="none" xmlns="http://www.w3.org/2000/svg">
<circle cx="55" cy="55" r="55" fill="#FBF7EB"/>
<path d="M36.6 65.5V45.6667H34.3V43.3333H36.6V41H34.3V38.6667H36.6V36.3333H34.3V34H48.1C49.25 34.07 50.285 34.56 51.182 35.47C52.079 36.38 52.585 37.5 52.7 38.6667H75.7V41H52.7C52.585 42.2367 52.079 43.3333 51.182 44.3367C50.285 45.34 49.25 45.7833 48.1 45.6667H43.5V62.1167C43.615 62.1167 43.799 62.0933 44.052 62C44.305 61.9067 44.512 62 44.65 62C45.938 62 47.41 62.3267 49.066 62.98C50.009 60.8333 51.619 58.92 53.919 57.3333C56.219 55.7467 58.519 55 60.819 55C64.338 55 67.328 56.2367 69.766 58.71C72.204 61.1833 73.4 64.2167 73.4 67.8333V68.4633C73.4 68.7667 73.331 68.93 73.331 69H34.622C34.921 67.8333 35.565 66.6667 36.6 65.5ZM41.2 62.5367V45.6667H38.9V63.6333C40.05 63.05 40.763 62.7 41.2 62.5367ZM48.1 43.3333V41H43.5V43.3333H48.1ZM48.1 36.3333H43.5V38.6667H48.1V36.3333ZM38.9 36.3333V38.6667H41.2V36.3333H38.9ZM38.9 41V43.3333H41.2V41H38.9ZM32 71.3333H78L73.4 76H36.6L32 71.3333Z" fill="#2E574D"/>
</svg>
