<svg width="66" height="66" viewBox="0 0 66 66" fill="none" xmlns="http://www.w3.org/2000/svg">
<path d="M55.9565 47.5315C55.9565 48.3579 55.7726 49.2073 55.3817 50.0337C54.9909 50.8601 54.4851 51.6407 53.8183 52.3753C52.6918 53.6149 51.4503 54.5102 50.0478 55.0841C48.6683 55.6581 47.1739 55.9565 45.5646 55.9565C43.2195 55.9565 40.7135 55.4055 38.0695 54.2807C35.4255 53.1558 32.7816 51.6407 30.1606 49.7353C27.5166 47.8069 25.0106 45.672 22.6195 43.3075C20.2515 40.92 18.1133 38.4177 16.205 35.8007C14.3198 33.1836 12.8024 30.5666 11.6988 27.9725C10.5952 25.3555 10.0435 22.8532 10.0435 20.4657C10.0435 18.9047 10.3193 17.4125 10.8711 16.0351C11.4229 14.6348 12.2966 13.3492 13.5151 12.2014C14.9865 10.7551 16.5959 10.0435 18.2972 10.0435C18.941 10.0435 19.5847 10.1812 20.1595 10.4567C20.7573 10.7322 21.2861 11.1454 21.6999 11.7422L27.0338 19.249C27.4476 19.8229 27.7465 20.3509 27.9535 20.856C28.1604 21.3381 28.2753 21.8202 28.2753 22.2563C28.2753 22.8073 28.1144 23.3582 27.7925 23.8862C27.4936 24.4142 27.0568 24.9652 26.505 25.5162L24.7577 27.3297C24.5048 27.5822 24.3898 27.8807 24.3898 28.248C24.3898 28.4316 24.4128 28.5923 24.4588 28.776C24.5278 28.9596 24.5968 29.0974 24.6427 29.2351C25.0566 29.9927 25.7693 30.9798 26.7809 32.1735C27.8155 33.3673 28.9191 34.584 30.1146 35.8007C31.3561 37.0174 32.5517 38.1422 33.7702 39.1753C34.9657 40.1854 35.9543 40.8741 36.736 41.2873C36.851 41.3332 36.9889 41.4021 37.1499 41.4709C37.3338 41.5398 37.5177 41.5628 37.7246 41.5628C38.1155 41.5628 38.4144 41.425 38.6673 41.1725L40.4146 39.4508C40.9894 38.8768 41.5411 38.4407 42.0699 38.1652C42.5987 37.8438 43.1275 37.6831 43.7023 37.6831C44.1391 37.6831 44.5989 37.7749 45.1047 37.9815C45.6105 38.1882 46.1393 38.4866 46.7141 38.8768L54.3241 44.2716C54.9219 44.6848 55.3357 45.1669 55.5886 45.7408C55.8186 46.3148 55.9565 46.8887 55.9565 47.5315Z" fill="#2E574D"/>
</svg>
