<svg width="33" height="33" fill="none" xmlns="http://www.w3.org/2000/svg"><path d="M27.828 6.764a1.098 1.098 0 0 0-.729.25c-.096.076-.194.18-.28.296-1.43 1.952-3.017 3.584-4.698 5.063-.548.918.668 2.775 1.6 2.775 2.133-.808 4.35-1.407 6.671-1.644 2.664-.273 1.106-4.259-1.64-2.842 1.893-1.417.443-3.862-.924-3.899Zm-8.106.63a2.102 2.102 0 0 0-1.1.268 1.941 1.941 0 0 0-.275.193l-.008-.011c-4.994 4.15-7.27 4.591-9.888 5.427-.43.138-.767.45-1.032.97-.264.52-.43 1.24-.459 2.07-.056 1.66.434 3.745 1.483 5.564 1.045 1.812 2.71 3.372 4.228 4.195.76.412 1.48.636 2.024.652.543.017.87-.121 1.111-.46 1.937-2.716 5.584-4.316 9.76-5.766v-.002c.127-.041.25-.096.365-.162.513-.296.846-.806 1.018-1.383.171-.577.201-1.234.127-1.953a9.805 9.805 0 0 0-.385-1.836c-.37.085-.727.197-1.12.342.178.578.294 1.124.345 1.613.062.609.025 1.129-.087 1.502-.11.373-.275.584-.482.703-.207.12-.471.157-.85.067-.378-.09-.846-.317-1.341-.676-.99-.718-2.084-1.951-2.977-3.5-.893-1.549-1.413-3.115-1.539-4.332-.063-.609-.025-1.127.086-1.5.111-.373.276-.586.483-.705a.855.855 0 0 1 .468-.115 1.7 1.7 0 0 1 .381.05c.378.09.845.315 1.34.674.514.372 1.055.886 1.582 1.508a5.54 5.54 0 0 0 .838-.824 10.25 10.25 0 0 0-1.734-1.63c-.585-.423-1.171-.725-1.756-.864a2.888 2.888 0 0 0-.606-.078Zm.498 2.137a.874.874 0 0 0-.08.008c-1.083.159-.935 2.252.315 4.66 1.25 2.408 3.157 4.223 4.24 4.065.375-.055.579-.356.666-.805a.616.616 0 0 1-.42.244c-.957.14-2.645-1.443-3.75-3.572-1.105-2.13-1.203-3.995-.246-4.135.227-.033.48.026.771.174-.542-.425-1.084-.662-1.496-.639ZM6.693 20.955a60.373 60.373 0 0 1-3.567.273c-3.07.158-1.597 4.474 1.881 3.264-3.085 1.869.242 5.433 1.686 2.922a17.82 17.82 0 0 1 2.148-2.988 12.496 12.496 0 0 1-1.41-1.967c-.28-.484-.526-.987-.738-1.504Z" fill="#fff"/></svg>