<svg width="107" height="107" fill="none" xmlns="http://www.w3.org/2000/svg"><g clip-path="url(#a)"><path d="M50.044 43.938h13.894V57.83m-.965-12.928-18.91 18.91" stroke="#fff" stroke-width="1.5" stroke-linecap="round" stroke-linejoin="round"/></g><path d="M15.56 53.94a4.762 4.762 0 0 1-1.875-.671 4.926 4.926 0 0 1-1.404-1.302 5.242 5.242 0 0 1-.826-1.771 5.248 5.248 0 0 1-.104-2.05 4.73 4.73 0 0 1 .67-1.862 4.905 4.905 0 0 1 1.291-1.419 4.904 4.904 0 0 1 1.722-.846 4.612 4.612 0 0 1 1.949-.13 4.73 4.73 0 0 1 1.861.67 5.102 5.102 0 0 1 2.234 3.047 4.99 4.99 0 0 1 .111 1.998 4.991 4.991 0 0 1-.661 1.89 5.483 5.483 0 0 1-1.296 1.457 5.116 5.116 0 0 1-1.711.86 4.701 4.701 0 0 1-1.962.13Zm.136-.965c.55.078 1.088.045 1.616-.099.52-.145.99-.376 1.411-.693a4.328 4.328 0 0 0 1.045-1.165c.285-.467.467-.98.546-1.538a3.906 3.906 0 0 0-.1-1.616 4.332 4.332 0 0 0-.68-1.409 4.214 4.214 0 0 0-1.163-1.057 3.874 3.874 0 0 0-1.512-.543 3.938 3.938 0 0 0-1.629.098 4.133 4.133 0 0 0-2.472 1.882 4.028 4.028 0 0 0-.548 1.55 3.716 3.716 0 0 0 .116 1.592c.145.52.376.99.693 1.412.318.412.707.76 1.165 1.044a3.86 3.86 0 0 0 1.512.542Zm-.369-17.692.484-.832 3.808 2.218-1.604-6.004.641-1.1 1.724 6.494 6.578-1.66-.654 1.123-6.056 1.513 3.865 2.25-.484.832-8.302-4.834Zm8.046-4.391a4.762 4.762 0 0 1-1.074-1.676 4.924 4.924 0 0 1-.318-1.889c.02-.65.162-1.285.426-1.907a5.25 5.25 0 0 1 1.17-1.687 4.73 4.73 0 0 1 1.666-1.065 4.906 4.906 0 0 1 1.889-.337c.643.002 1.27.128 1.88.38a4.61 4.61 0 0 1 1.624 1.086 4.73 4.73 0 0 1 1.065 1.667c.226.616.332 1.245.318 1.889a5.126 5.126 0 0 1-.408 1.888 4.99 4.99 0 0 1-1.131 1.651 4.99 4.99 0 0 1-1.677 1.093 5.485 5.485 0 0 1-1.917.364 5.125 5.125 0 0 1-1.88-.362 4.7 4.7 0 0 1-1.633-1.095Zm.698-.681c.387.397.834.699 1.34.907a4.21 4.21 0 0 0 1.541.312c.521 0 1.034-.095 1.539-.285.51-.197.968-.491 1.37-.885.404-.394.706-.84.908-1.34.202-.501.31-1.012.321-1.532a4.213 4.213 0 0 0-.276-1.548 3.872 3.872 0 0 0-.866-1.352c-.4-.41-.85-.715-1.35-.917a4.131 4.131 0 0 0-3.107-.018 4.026 4.026 0 0 0-1.38.894 3.72 3.72 0 0 0-.88 1.332 4.214 4.214 0 0 0-.312 1.54c0 .522.095 1.035.285 1.54.19.504.48.955.867 1.352Zm6.645-12.286 1.35-.641 6.668 5.885-.362-8.881 1.35-.642 4.123 8.677-.869.413-3.67-7.726.406 9.277-.751.357-6.924-6.18 3.671 7.726-.869.413-4.123-8.678Zm12.602-5.145 6.64-1.043 1.491 9.49-.95.15-1.357-8.63-4.738.744 1.356 8.63-.95.15-1.492-9.49Zm13.818-.867 1.072.114 3.094 9.991-1.047-.111-1.04-3.366-4.448-.474-1.739 3.07-1.008-.108 5.116-9.116Zm1.796 5.721-1.37-4.577-2.34 4.182 3.71.395Zm6.275-4.313.897.346-1.52 3.942L69.23 19.4l1.52-3.942.898.346-3.456 8.964-.897-.346 1.622-4.21-4.646-1.79-1.622 4.21-.898-.347 3.456-8.964Zm9.623 4.15.777.567-4.816 6.608 9.439-3.24.777.567-5.658 7.764-.778-.566 4.816-6.609-9.438 3.24-.778-.567 5.658-7.764Zm9.024 7.187.596.755-6.419 5.066 9.963-.576.596.755-7.541 5.952-.597-.755 6.42-5.066-9.963.576-.596-.755 7.54-5.952Zm7.5 27.865a4.76 4.76 0 0 1 1.883.646c.568.343 1.043.77 1.423 1.281.388.521.672 1.108.851 1.76a5.25 5.25 0 0 1 .133 2.048 4.73 4.73 0 0 1-.644 1.87 4.904 4.904 0 0 1-1.27 1.438 4.904 4.904 0 0 1-1.71.87 4.612 4.612 0 0 1-1.946.16 4.73 4.73 0 0 1-1.87-.644 5.124 5.124 0 0 1-1.423-1.282 5.124 5.124 0 0 1-.855-1.733 4.99 4.99 0 0 1-.14-1.997c.088-.688.3-1.32.635-1.898a5.484 5.484 0 0 1 1.275-1.476 5.124 5.124 0 0 1 1.698-.885 4.7 4.7 0 0 1 1.96-.158Zm-.123.968a3.965 3.965 0 0 0-1.615.122c-.517.153-.984.39-1.4.713a4.328 4.328 0 0 0-1.028 1.18 3.997 3.997 0 0 0-.524 1.545 3.904 3.904 0 0 0 .122 1.615c.153.517.386.984.7 1.4.323.416.716.763 1.179 1.04.462.277.969.45 1.52.52.567.073 1.11.032 1.626-.12a4.135 4.135 0 0 0 2.445-1.917 4.02 4.02 0 0 0 .526-1.559 3.716 3.716 0 0 0-.139-1.59 4.212 4.212 0 0 0-.713-1.4 4.332 4.332 0 0 0-1.18-1.029 3.873 3.873 0 0 0-1.52-.52Zm.622 17.685-.472.838-3.84-2.162 1.69 5.98-.625 1.11-1.817-6.47-6.553 1.755.638-1.133 6.033-1.6-3.896-2.194.472-.838 8.37 4.714Zm-7.983 4.506a4.76 4.76 0 0 1 1.099 1.66c.24.619.355 1.247.345 1.884a5.243 5.243 0 0 1-.4 1.913 5.25 5.25 0 0 1-1.144 1.704 4.73 4.73 0 0 1-1.652 1.089 4.903 4.903 0 0 1-1.883.363 4.903 4.903 0 0 1-1.886-.353 4.608 4.608 0 0 1-1.639-1.062 4.73 4.73 0 0 1-1.089-1.652 5.125 5.125 0 0 1-.345-1.883 5.123 5.123 0 0 1 .381-1.895c.25-.62.619-1.175 1.108-1.667a4.993 4.993 0 0 1 1.66-1.117 5.486 5.486 0 0 1 1.912-.39 5.125 5.125 0 0 1 1.885.335 4.7 4.7 0 0 1 1.648 1.07Zm-.687.69a3.964 3.964 0 0 0-1.354-.887 4.214 4.214 0 0 0-1.545-.29c-.52.007-1.032.11-1.534.307a3.993 3.993 0 0 0-1.358.905c-.398.399-.694.85-.888 1.353a4.333 4.333 0 0 0-.3 1.536c.002.527.101 1.042.299 1.544.197.502.492.948.886 1.34.405.403.86.702 1.362.897a4.132 4.132 0 0 0 3.107-.027 4.028 4.028 0 0 0 1.368-.914 3.72 3.72 0 0 0 .86-1.344 4.215 4.215 0 0 0 .29-1.545 4.33 4.33 0 0 0-.307-1.534 3.872 3.872 0 0 0-.886-1.34Zm-6.469 12.38-1.341.661-6.752-5.789.49 8.875-1.341.66-4.247-8.617.863-.425 3.781 7.673-.54-9.27.747-.368 7.011 6.08-3.78-7.672.862-.425 4.247 8.617Zm-12.527 5.325-6.624 1.138-1.627-9.468.948-.163 1.48 8.61 4.727-.812-1.48-8.61.949-.163 1.627 9.468Zm-13.804 1.065-1.074-.099-3.236-9.946 1.048.097 1.089 3.35 4.453.41 1.695-3.094 1.01.093-4.985 9.189Zm-1.878-5.695 1.435 4.557 2.28-4.215-3.715-.342Zm-6.212 4.403-.902-.333 1.462-3.964-4.67-1.724-1.464 3.964-.902-.334 3.327-9.012.902.333-1.562 4.232 4.671 1.724 1.562-4.232.903.333-3.327 9.013Zm-9.681-4.013-.786-.555 4.721-6.677-9.391 3.375-.786-.556 5.547-7.844.785.555-4.72 6.677 9.39-3.374.786.555-5.546 7.844Zm-9.127-7.057-.606-.746 6.345-5.157-9.953.719-.607-.747 7.455-6.06.607.747-6.345 5.157 9.953-.718.607.746-7.456 6.06Z" fill="#fff"/><defs><clipPath id="a"><path fill="#fff" transform="translate(38 38)" d="M0 0h32v32H0z"/></clipPath></defs></svg>