<svg width="108" height="108" fill="none" xmlns="http://www.w3.org/2000/svg"><g clip-path="url(#a)"><path d="M50.864 44.573h13.893v13.893m-.965-12.929-18.91 18.91" stroke="#fff" stroke-width="1.5" stroke-linecap="round" stroke-linejoin="round"/></g><path d="M88.33 65.374c-1.569-1.305-2.16-2.918-1.775-4.838a5.243 5.243 0 0 1 .764-1.889 4.906 4.906 0 0 1 1.334-1.363 4.895 4.895 0 0 1 1.74-.738 5.077 5.077 0 0 1 1.999.017c.705.142 1.33.395 1.876.761a4.758 4.758 0 0 1 2.073 3.081 5.207 5.207 0 0 1-.022 2.024 5.44 5.44 0 0 1-.457 1.354 4.71 4.71 0 0 1-.771 1.132 4.287 4.287 0 0 1-1.015.83 4.012 4.012 0 0 1-1.24.494l.212-1.058c1.311-.497 2.11-1.46 2.396-2.887a4.088 4.088 0 0 0 .01-1.63 3.988 3.988 0 0 0-.589-1.43 3.953 3.953 0 0 0-1.105-1.097 4.27 4.27 0 0 0-1.522-.61 4.14 4.14 0 0 0-1.63-.01 4.333 4.333 0 0 0-1.445.599c-.43.294-.8.661-1.11 1.103-.31.442-.519.934-.628 1.478-.133.663-.112 1.286.062 1.87.183.584.534 1.171 1.052 1.762l-.21 1.045Zm6.048 4.43-2.028 4.845-.803-.337 1.656-3.957-3.178-1.33-1.601 3.825-.803-.336 1.6-3.825-3.273-1.37-1.656 3.956-.804-.336 2.028-4.844 8.862 3.709Zm-3.418 7.442-1.505 2.184c-.355.514-.674.91-.96 1.186-.285.277-.59.489-.911.635a2.235 2.235 0 0 1-1.272.15c-.455-.071-.908-.262-1.358-.572a3.287 3.287 0 0 1-.94-.948 2.156 2.156 0 0 1-.334-1.098c-.01-.366.057-.74.205-1.122.15-.37.407-.82.77-1.348l1.048-1.52-3.2-2.205.545-.792 7.911 5.45Zm-5.55-.492a7.548 7.548 0 0 0-.522.872 2.346 2.346 0 0 0-.258.832c-.023.279.033.55.168.81.13.27.37.525.72.766.407.28.77.425 1.09.434.327.015.625-.059.894-.22.27-.162.52-.389.753-.681.228-.285.45-.584.667-.899l.774-1.124-3.276-2.257-1.01 1.467Zm-1.434 8.006 1.564-1.543.612.62-3.815 3.76-.611-.62 1.565-1.542-6.133-6.222.686-.676 6.132 6.222Zm-3.639 4.467-.796.54-4.588-6.768-.146 9.978-.797.54-5.39-7.952.796-.54 4.588 6.768.146-9.978.796-.54 5.391 7.952Zm-16.263-1.546a5.74 5.74 0 0 1 1.815-.074 4.52 4.52 0 0 1 1.553.484c.467.256.866.59 1.197 1.002.333.42.577.905.73 1.456.15.534.185 1.064.107 1.59a4.104 4.104 0 0 1-.515 1.493c-.275.464-.636.88-1.082 1.247-.447.368-.963.66-1.55.878l.14.501-.927.259-.14-.5a5.333 5.333 0 0 1-1.78.05 4.586 4.586 0 0 1-1.56-.509 4.005 4.005 0 0 1-1.226-1.007 3.783 3.783 0 0 1-.732-1.415 4.078 4.078 0 0 1-.13-1.624 3.97 3.97 0 0 1 .506-1.478 4.48 4.48 0 0 1 1.09-1.222 5.6 5.6 0 0 1 1.578-.872l-.189-.676.927-.259.188.676Zm2.017 7.225a3.984 3.984 0 0 0 1.208-.702c.343-.284.622-.61.834-.975.205-.363.335-.75.392-1.162a3.08 3.08 0 0 0-.095-1.256 3.263 3.263 0 0 0-.56-1.139 3.235 3.235 0 0 0-.937-.791 3.608 3.608 0 0 0-1.203-.393 4.349 4.349 0 0 0-1.418.045l1.78 6.373Zm-2.705-6.115a4.198 4.198 0 0 0-1.224.693 3.564 3.564 0 0 0-.838.963 3.06 3.06 0 0 0-.379 1.158c-.056.412-.023.834.098 1.269a3.081 3.081 0 0 0 1.519 1.91c.363.205.765.34 1.206.406.444.074.91.066 1.397-.025l-1.78-6.374Zm-5.728 9.242-.962-.019.158-8.175-5.877 8.065-.962-.019.186-9.605.962.019-.158 8.175 5.877-8.065.961.018-.185 9.606Zm-11.339-.773-.929-.252 1.153-4.254-5.381 3.108-1.23-.333 5.825-3.352-3.312-5.92 1.255.34 3.033 5.455 1.17-4.317.929.252-2.513 9.273Z" fill="#fff"/><path d="m34.459 92.873-.94-.532 1.136-10.397.917.519-.385 3.502 3.892 2.203 2.816-2.125.883.5-8.32 6.33Zm.627-5.964-.564 4.744 3.811-2.906-3.247-1.838Zm-7.589.07 1.636 1.466-.582.649-3.988-3.575.582-.649 1.635 1.467 5.832-6.505.716.642-5.831 6.505Zm-4.682-3.378-.584-.764 3.243-2.479-1.12-1.466c-.742-.971-1.111-1.818-1.108-2.541-.003-.718.368-1.36 1.112-1.929.77-.59 1.517-.783 2.238-.582.716.195 1.463.802 2.242 1.82l1.61 2.108-7.633 5.833Zm5.528-7.153c-.22-.29-.448-.573-.683-.852a3.294 3.294 0 0 0-.758-.648 1.599 1.599 0 0 0-.888-.221c-.324.019-.675.172-1.054.462-.517.395-.766.847-.747 1.356.013.503.304 1.126.872 1.87l1.081 1.415 3.006-2.297-.829-1.085Zm-10.145 1.11-.585-.764 7.634-5.833.584.764-7.633 5.834Zm2.883-34.853c1.568 1.305 2.16 2.918 1.774 4.838a5.243 5.243 0 0 1-.764 1.889 4.904 4.904 0 0 1-1.334 1.363c-.522.355-1.102.6-1.74.738a5.077 5.077 0 0 1-1.998-.017 5.148 5.148 0 0 1-1.876-.76 4.758 4.758 0 0 1-2.074-3.082 5.21 5.21 0 0 1 .022-2.024c.098-.485.25-.936.458-1.354.209-.426.466-.803.77-1.131.296-.33.635-.607 1.016-.83a4.01 4.01 0 0 1 1.24-.495l-.213 1.058c-1.311.497-2.11 1.46-2.396 2.887a4.078 4.078 0 0 0-.01 1.63c.108.525.304 1.002.589 1.43.285.429.654.794 1.106 1.097a4.27 4.27 0 0 0 1.521.61 4.14 4.14 0 0 0 1.63.01 4.333 4.333 0 0 0 1.445-.599c.43-.294.8-.661 1.11-1.103.31-.442.52-.934.628-1.478.133-.663.113-1.286-.062-1.869-.183-.585-.534-1.172-1.052-1.762l.21-1.046Zm-6.049-4.43 2.028-4.844.804.336-1.657 3.957 3.178 1.33 1.601-3.825.804.336-1.601 3.826 3.273 1.37 1.657-3.957.803.336-2.028 4.845-8.862-3.71Zm3.419-7.442 1.505-2.184c.354-.514.674-.91.959-1.186.286-.277.59-.489.911-.635a2.236 2.236 0 0 1 1.272-.15c.456.072.908.262 1.358.572.407.28.72.596.94.948.214.348.325.713.334 1.098a2.85 2.85 0 0 1-.205 1.122c-.15.37-.407.82-.77 1.348l-1.048 1.52 3.2 2.205-.545.792-7.911-5.45Zm5.55.492c.2-.293.375-.583.521-.872.146-.288.232-.566.258-.832a1.464 1.464 0 0 0-.168-.81c-.13-.27-.37-.524-.72-.765-.407-.28-.77-.426-1.09-.435a1.563 1.563 0 0 0-.894.22c-.27.162-.52.389-.753.681-.228.285-.45.585-.667.899l-.774 1.124 3.276 2.257L24 31.325Zm1.433-8.005-1.564 1.542-.612-.62 3.815-3.76.611.62-1.564 1.542 6.132 6.223-.685.675-6.133-6.222Zm3.639-4.468.796-.54 4.589 6.768.145-9.977.797-.54 5.39 7.952-.795.54-4.589-6.769-.146 9.978-.796.54-5.391-7.952Zm16.263 1.546a5.74 5.74 0 0 1-1.815.075 4.521 4.521 0 0 1-1.552-.485 3.97 3.97 0 0 1-1.198-1.002 4.078 4.078 0 0 1-.73-1.456 3.783 3.783 0 0 1-.107-1.59 4.108 4.108 0 0 1 .515-1.493c.275-.464.636-.88 1.082-1.247.447-.368.963-.66 1.55-.878l-.14-.501.927-.259.14.501a5.333 5.333 0 0 1 1.78-.052 4.586 4.586 0 0 1 1.56.51c.476.254.885.59 1.226 1.007.34.41.583.881.733 1.415.153.551.196 1.093.129 1.624a3.972 3.972 0 0 1-.505 1.478 4.48 4.48 0 0 1-1.09 1.222c-.449.359-.975.65-1.579.872l.19.676-.927.259-.19-.676Zm-2.017-7.225a3.981 3.981 0 0 0-1.208.702c-.343.284-.621.61-.834.975-.205.363-.335.75-.391 1.162-.056.411-.025.83.094 1.256.121.434.308.814.56 1.139.262.323.574.587.937.791.36.197.762.328 1.203.393.45.064.922.049 1.418-.045l-1.779-6.373Zm2.706 6.115c.472-.177.88-.408 1.224-.693.351-.287.63-.608.837-.963.205-.363.331-.749.379-1.158a3.115 3.115 0 0 0-.098-1.268 3.084 3.084 0 0 0-1.518-1.912 3.477 3.477 0 0 0-1.207-.405 3.983 3.983 0 0 0-1.396.025l1.779 6.374Zm5.727-9.242.962.019-.158 8.175 5.877-8.065.962.019-.186 9.605-.962-.018.158-8.176-5.876 8.065-.962-.018.185-9.606Zm11.339.774.929.251-1.153 4.254 5.381-3.108 1.23.333-5.824 3.352 3.311 5.92-1.255-.34-3.033-5.455-1.17 4.317-.928-.252 2.512-9.272Z" fill="#fff"/><path d="m74.951 15.207.94.531-1.136 10.397-.916-.519.384-3.502-3.892-2.203-2.816 2.125-.883-.5 8.32-6.33Zm-.627 5.963.565-4.744-3.812 2.906 3.247 1.838Zm7.589-.07-1.635-1.466.581-.649 3.988 3.575-.581.649-1.636-1.467-5.832 6.505-.716-.642 5.832-6.505Zm4.682 3.378.584.764-3.243 2.479 1.12 1.466c.743.971 1.112 1.818 1.108 2.541.003.718-.368 1.36-1.111 1.929-.772.59-1.518.783-2.239.582-.716-.195-1.463-.802-2.242-1.82l-1.61-2.108 7.633-5.833Zm-5.528 7.153c.22.29.449.573.683.852.242.273.495.49.758.648a1.6 1.6 0 0 0 .888.221c.324-.018.676-.172 1.054-.462.517-.394.766-.846.747-1.356-.013-.502-.304-1.126-.872-1.87l-1.081-1.415-3.006 2.298.829 1.084Zm10.146-1.11.584.764-7.634 5.833-.584-.764 7.634-5.834Z" fill="#fff"/><defs><clipPath id="a"><path fill="#fff" transform="translate(38.818 38.635)" d="M0 0h32v32H0z"/></clipPath></defs></svg>