<svg width="60" height="60" fill="none" xmlns="http://www.w3.org/2000/svg"><path d="M43.751 4.512c-.05.001-2.207 1.684-2.207 1.684l-3.394-.678c-.025.007-2.83 2.679-2.83 2.679l-3.005-.18-1.812 1.97-3.29-.084-2.17 2.416-2.973.343-2.006 2.153-3.19 1.049-1.882 2.648-2.78.73-1.523 2.399-2.48 1.323-.866 2.552-2.774 1.635-.36 2.8c1.724-.625 3.336.083 4.564.985l3.015-1.871 4.092-.65 3.518-3.175 5.298-.62 3.863-3.481 3.83-.959 2.374-3.115c1.224-.685 2.991-1.171 4.553-1.824l1.149-2.917 3.318-1.262.055-.06.361-2.198L46.6 6.98a4.78 4.78 0 0 0 .017-.043L44.75 6.24l-.999-1.728ZM30 24.316h-.083c-.336.2-.673.396-1.01.592a99.672 99.672 0 0 1-2.838 1.57c1.31-.035 2.62-.053 3.931-.053 7.198 0 13.717.525 18.376 1.357 2.33.416 4.2.916 5.4 1.423.602.254 1.031.515 1.247.703a.846.846 0 0 1 .144.15.838.838 0 0 1-.144.15c-.216.189-.645.45-1.246.703-1.202.508-3.071 1.007-5.4 1.423-4.66.832-11.18 1.357-18.377 1.357-7.053 0-13.45-.504-18.088-1.307-.124.034-.252.071-.375.104-1.752.468-3.34.767-4.742.872 1.244.395 2.736.743 4.458 1.051 4.842.865 11.447 1.39 18.747 1.39 7.3 0 13.905-.525 18.747-1.39 2.42-.432 4.395-.942 5.85-1.557.728-.307 1.33-.635 1.813-1.057.484-.422.895-1.016.895-1.739 0-.722-.411-1.317-.895-1.74-.483-.421-1.085-.749-1.813-1.056-1.455-.614-3.43-1.125-5.85-1.557C43.905 24.841 37.3 24.316 30 24.316ZM56.25 33.8c-2.096 1.097-4.957 1.84-8.303 2.462-5.188.966-11.562 1.457-17.94 1.502-6.377.045-12.75-.357-17.932-1.209-2.59-.425-4.884-.962-6.753-1.629-.562-.2-1.087-.41-1.572-.635v13.183c6.413 2.327 16.345 3.56 26.25 3.56 9.905 0 19.837-1.233 26.25-3.56V33.8ZM2.737 49.352c-.028.13-.042.261-.042.394 0 .722.411 1.317.895 1.739.483.422 1.085.75 1.813 1.057 1.455.614 3.43 1.124 5.85 1.557 4.842.864 11.447 1.389 18.747 1.389 7.3 0 13.905-.525 18.747-1.39 2.42-.432 4.395-.942 5.85-1.556.728-.307 1.33-.635 1.813-1.057.484-.422.895-1.017.895-1.74 0-.135-.015-.267-.042-.393-6.858 2.576-17.045 3.792-27.263 3.792S9.595 51.928 2.737 49.352Z" fill="#CBCCCA"/></svg>