<svg width="60" height="60" fill="none" xmlns="http://www.w3.org/2000/svg"><path fill-rule="evenodd" clip-rule="evenodd" d="M37.476.3c-3.143.794-5.877 3.074-7.441 6.207-.835 1.672-.921 2.093-.913 4.462.006 2.024.157 2.992.668 4.281l.66 1.665-6.734 6.899c-3.704 3.794-6.78 6.899-6.837 6.899-.056 0-.7-.289-1.431-.64-1.627-.785-1.868-.552-1.875 1.807-.003 1.268.167 1.866.822 2.891 2.268 3.547 8.377 6.088 15.57 6.475l3.192.172 5.458-5.444 5.457-5.444 1.942.405c6.117 1.277 11.505-1.556 13.461-7.078.833-2.35.657-5.92-.403-8.176-1.367-2.909-4.229-5.45-7.068-6.274-1.055-.306-1.23-.492-1.705-1.824C48.364 2.17 42.732-1.028 37.476.3ZM13.899 3.166c-1.464.552-3.233 2.157-3.84 3.483-.666 1.454-.725 4.386-.118 5.829.24.568.436 1.066.436 1.106 0 .04-.529-.187-1.175-.504-1.824-.895-3.4-.96-5.157-.21-4.83 2.062-5.485 8.594-1.147 11.444 1.038.682 1.486.785 3.394.785 1.21 0 3.1-.11 4.204-.244l2.005-.243-.878 1.107c-1.815 2.288-2.255 3.486-2.255 6.145 0 2.686.356 3.643 2.221 5.973 5.063 6.325 18.086 9.142 28.927 6.258 5.475-1.456 10.577-4.9 12.176-8.22.813-1.688.842-2.86.07-2.86-.393 0-.849.53-1.505 1.752-2.706 5.036-10.43 8.324-19.558 8.324-9.145 0-16.882-3.373-19.445-8.475-2.4-4.776 1.453-10.009 9.46-12.85 2.606-.925 3.23-1.483 2.484-2.222-.352-.35-.656-.36-1.913-.06-.82.195-1.568.28-1.66.19-.091-.092.177-1.356.596-2.81 1.88-6.52 1.974-8.657.483-10.989-1.55-2.424-5.199-3.69-7.805-2.709ZM5.408 30.961c-1.94 1.22-3.347 2.79-4.397 4.907-.845 1.701-.936 2.138-.936 4.482 0 2.26.11 2.832.843 4.408 1.266 2.72 4.328 5.251 7.225 5.972.564.141.842.515 1.209 1.628 1.793 5.44 7.678 8.714 13.156 7.322 3.695-.94 5.885-2.681 7.395-5.882.707-1.499.923-2.397 1.021-4.245l.124-2.342-2.77-.194c-7.51-.523-14.704-3.711-18.255-8.088-1.803-2.224-2.548-4.207-2.548-6.788 0-2.324-.13-2.398-2.067-1.18Z" fill="#CBCCCA"/></svg>