<svg width="60" height="60" fill="none" xmlns="http://www.w3.org/2000/svg"><mask id="a" style="mask-type:alpha" maskUnits="userSpaceOnUse" x="-8" y="-8" width="76" height="76"><path fill="#D9D9D9" d="M-7.5-7.5h75v75h-75z"/></mask><g mask="url(#a)"><path d="M29.796 60c-2.023 0-3.985-.224-5.888-.672-1.902-.448-3.623-1.02-5.165-1.717-2.215-.995-4.017-2.205-5.408-3.632-1.39-1.426-2.085-3.015-2.085-4.767V31.871c0-1.551.564-2.978 1.691-4.28 1.128-1.303 2.58-2.455 4.354-3.457 1.823-1.002 3.835-1.775 6.034-2.318a27.694 27.694 0 0 1 13.342 0c2.2.543 4.21 1.316 6.034 2.317 1.823 1.002 3.286 2.153 4.39 3.455 1.103 1.302 1.655 2.729 1.655 4.28v17.349a5.99 5.99 0 0 1-.539 2.477 7.98 7.98 0 0 1-1.544 2.25c-.67.7-1.458 1.362-2.361 1.987a19.383 19.383 0 0 1-3.002 1.688c.052-.25.13-.952.234-2.103 0-2.905-.986-5.383-2.96-7.436S34.226 45 31.442 45c-2.073 0-3.906.57-5.497 1.712a10.717 10.717 0 0 0-3.595 4.42c1.526.433 2.928.72 4.206.862 1.278.141 2.399.212 3.363.212.82 0 1.483-.027 1.99-.081.505-.054.831-.081.976-.081v7.794a14.65 14.65 0 0 1-1.56.137c-.507.017-1.017.025-1.53.025Zm8.85-16.5c1.584 0 2.943-.587 4.076-1.76 1.134-1.173 1.701-2.584 1.701-4.231 0-1.648-.566-3.061-1.698-4.24-1.133-1.18-2.494-1.769-4.084-1.769-1.59 0-2.947.589-4.07 1.766-1.124 1.178-1.686 2.594-1.686 4.247 0 1.654.564 3.065 1.692 4.234 1.128 1.169 2.484 1.753 4.068 1.753ZM30 18c2.404 0 4.447-.867 6.13-2.6 1.682-1.733 2.524-3.87 2.524-6.412 0-2.492-.842-4.613-2.526-6.363C34.446.875 32.402 0 29.997 0c-2.453 0-4.508.875-6.165 2.625S21.346 6.5 21.346 9c0 2.533.83 4.667 2.488 6.4C25.493 17.133 27.548 18 30 18Z" fill="#CBCCCA"/></g></svg>