<svg width="60" height="60" fill="none" xmlns="http://www.w3.org/2000/svg"><path fill-rule="evenodd" clip-rule="evenodd" d="M52.2 9.412H39.656a11.156 11.156 0 0 0-9.694-5.662 11.156 11.156 0 0 0-9.693 5.662H7.725c-1.838 0-3.37 1.405-3.844 3.323-.137.548-.178 1.027.14 1.523a1.678 1.678 0 0 0 1.416.78h.188V56.25h48.75V15.038h.15a1.675 1.675 0 0 0 1.395-.749c.32-.474.302-.92.176-1.453-.472-1.969-2.025-3.424-3.896-3.424ZM19.914 54.376c-.64 0-1.164.525-1.164 1.163v-40.5h1.875v39.337h-.71Zm19.46 0h.712c.639 0 1.164.525 1.164 1.163v-40.5h-1.875v39.337ZM11.25 44.417v-4.468a.584.584 0 0 0-.581-.581H8.08a.584.584 0 0 0-.581.58v4.47c0 .32.262.582.581.582h2.569a.59.59 0 0 0 .6-.583Zm5.625 0v-4.468a.584.584 0 0 0-.581-.581h-2.588a.584.584 0 0 0-.581.58v4.47c0 .32.262.582.581.582h2.569a.59.59 0 0 0 .6-.583Zm-5.625-9.388v-4.47a.584.584 0 0 0-.581-.582H8.08a.584.584 0 0 0-.581.582v4.47c0 .318.262.581.581.581h2.569c.337 0 .6-.263.6-.581Zm5.625 0v-4.47a.584.584 0 0 0-.581-.582h-2.588a.584.584 0 0 0-.581.582v4.47c0 .318.262.581.581.581h2.569c.337 0 .6-.263.6-.581Zm-5.625-9.353v-4.468a.586.586 0 0 0-.581-.583H8.08a.584.584 0 0 0-.581.581v4.47c0 .319.262.582.581.582h2.569a.59.59 0 0 0 .6-.582Zm5.625-.002v-4.468a.584.584 0 0 0-.581-.581h-2.588a.584.584 0 0 0-.581.581v4.468c0 .32.262.582.581.582h2.569a.59.59 0 0 0 .6-.582Zm29.989 18.741v-4.468a.587.587 0 0 0-.585-.581h-2.575a.584.584 0 0 0-.58.58v4.47a.585.585 0 0 0 .582.582h2.576a.586.586 0 0 0 .582-.583Zm5.634 0v-4.468a.586.586 0 0 0-.583-.581H49.34a.584.584 0 0 0-.582.58v4.47a.585.585 0 0 0 .583.582h2.575a.586.586 0 0 0 .581-.583Zm-5.636-9.388v-4.47a.586.586 0 0 0-.583-.581h-2.575a.584.584 0 0 0-.58.58v4.47a.585.585 0 0 0 .582.582h2.575a.584.584 0 0 0 .58-.581Zm5.636 0v-4.47a.586.586 0 0 0-.583-.581H49.34a.584.584 0 0 0-.582.58v4.47a.585.585 0 0 0 .583.582h2.575a.584.584 0 0 0 .581-.581Zm-5.636-9.353v-4.468a.586.586 0 0 0-.583-.581h-2.575a.584.584 0 0 0-.58.581v4.468a.585.585 0 0 0 .582.582h2.575a.584.584 0 0 0 .58-.582Zm5.636 0v-4.468a.586.586 0 0 0-.583-.581H49.34a.584.584 0 0 0-.582.581v4.468a.585.585 0 0 0 .583.582h2.575a.584.584 0 0 0 .581-.582ZM28.125 29.42v-4.463a.586.586 0 0 0-.585-.581h-2.58a.585.585 0 0 0-.585.581v4.463a.585.585 0 0 0 .585.581h2.58a.585.585 0 0 0 .585-.581Zm-3.07 21.206h3.327c.367 0 .68-.298.68-.692v-8.68h-4.687v8.678a.686.686 0 0 0 .68.694Zm5.882-11.25v.004h4.688v-.004h1.961a.843.843 0 0 0 .851-.844.713.713 0 0 0-.075-.356c-.009-.01-.009-.022-.009-.037s0-.029-.01-.038a9.666 9.666 0 0 0-8.324-4.744 9.665 9.665 0 0 0-8.325 4.744v.017c-.002.004-.005.007-.01.012l-.01.009a.88.88 0 0 0-.112.393.844.844 0 0 0 .852.844h1.96v.004h4.688v-.004h1.875Zm0 10.558v-8.68h4.688v8.678a.686.686 0 0 1-.68.694h-3.327a.684.684 0 0 1-.68-.692Zm4.688-24.977v4.463a.586.586 0 0 1-.585.581h-2.58a.585.585 0 0 1-.585-.581v-4.463a.587.587 0 0 1 .585-.581h2.58c.322 0 .585.262.585.581ZM32.253 18.2c.574-.375 1.073-.95 1.497-1.727h-1.113c-.38.497-.76.855-1.14 1.073-.37.21-.817.314-1.338.314-.406 0-.786-.074-1.14-.223a3.022 3.022 0 0 1-.927-.602 2.91 2.91 0 0 1-.623-.903 2.817 2.817 0 0 1-.225-1.126c0-.4.075-.776.225-1.125.15-.35.353-.65.61-.903.256-.262.556-.467.9-.615a2.913 2.913 0 0 1 1.14-.223c.54 0 1.02.127 1.445.38.432.244.79.602 1.073 1.073h1.1a3.385 3.385 0 0 0-.583-.969 3.485 3.485 0 0 0-.822-.746c-.31-.2-.65-.353-1.02-.458a4.01 4.01 0 0 0-1.18-.17c-.538 0-1.046.096-1.523.288a3.878 3.878 0 0 0-1.233.798 3.633 3.633 0 0 0-.835 1.178 3.685 3.685 0 0 0-.291 1.466c0 .533.102 1.03.305 1.492a3.784 3.784 0 0 0 2.08 1.99 4.216 4.216 0 0 0 1.564.288c.795 0 1.48-.183 2.054-.55Z" fill="#CBCCCA"/></svg>