<svg width="24" height="24" fill="none" xmlns="http://www.w3.org/2000/svg"><g clip-path="url(#a)" fill="#240403"><path d="M16.02 2.85h.01c.49 1.27.88 2.55 1.16 3.81.08.37.15.74.22 1.12h4.75c-1.22-2.9-3.64-5.19-6.64-6.18l.07.18.05.11c.14.32.26.63.38.96Zm5.44 5.93h-3.91c.16 1.08.23 2.16.23 3.22s-.07 2.14-.22 3.22h4.96a11.052 11.052 0 0 0 0-6.44h-1.06ZM7.96 21.14c-.47-1.22-.86-2.5-1.16-3.81-.08-.37-.15-.74-.21-1.11H1.84c1.22 2.91 3.64 5.18 6.64 6.18h.01l-.29-.66-.24-.6Zm9.45-4.92c-.06.37-.13.73-.21 1.1-.3 1.32-.69 2.6-1.16 3.82-.04.12-.09.24-.14.36l-.3.71-.08.19c3-.99 5.42-3.28 6.64-6.18h-4.75Zm-4.91-1h4.04c.16-1.09.24-2.17.24-3.22 0-1.06-.08-2.14-.23-3.22H12.5v6.44Zm2.26-12.83-.03-.09-.05-.12-.39-.93c-.58-.14-1.18-.21-1.79-.24v6.77h3.89c-.05-.3-.11-.6-.18-.9-.32-1.49-.81-3-1.44-4.49h-.01ZM6.59 7.78c.07-.38.14-.75.22-1.12.28-1.26.67-2.54 1.16-3.81h.01c.05-.16.11-.31.17-.46L8.32 2l.065-.157.105-.243c-3 .99-5.43 3.27-6.65 6.18h4.75Zm-.15 7.44c-.15-1.08-.22-2.16-.22-3.22s.07-2.14.23-3.22H1.48a11.052 11.052 0 0 0 0 6.44h4.96ZM7.22 12c0 1.05.08 2.13.24 3.22h4.04V8.78H7.45c-.15 1.08-.23 2.16-.23 3.22Zm.56 5.11c.35 1.57.84 3.08 1.46 4.5l.08.2.4.94c.58.14 1.17.21 1.78.24v-6.77H7.61c.05.29.11.59.17.89ZM9.35 2.08l-.11.31h-.01c-.63 1.49-1.12 3-1.44 4.49-.07.3-.13.6-.18.9h3.89V1.01c-.63.03-1.26.11-1.86.26l-.29.81Zm5.41 19.53c.62-1.42 1.11-2.93 1.46-4.5.06-.3.12-.6.17-.89H12.5v6.77c.6-.03 1.2-.1 1.77-.24l.41-.94.049-.122.081-.188-.05.11Z"/></g><defs><clipPath id="a"><path fill="#fff" d="M0 0h24v24H0z"/></clipPath></defs></svg>