<svg width="33" height="33" fill="none" xmlns="http://www.w3.org/2000/svg"><path fill-rule="evenodd" clip-rule="evenodd" d="M17.736 2.92c-.73.18-1.502.808-2.26 1.833-.244.33-.823 1.242-1.736 2.732l-.85 1.389c-.242.394-.504.825-.583.956-.255.422-.98 1.601-1.235 2.006-.787 1.255-.803 1.286-.77 1.507.065.43.558 2.318.626 2.393.027.03.688-.216.747-.279.012-.013-.011-.012-.053.003-.102.036-.272-.089-.272-.2 0-.205.61-.313.88-.154.126.074.14.07.566-.14.347-.172.47-.26.599-.431.242-.322.36-.39.724-.418.46-.035.939-.295 1.341-.727.184-.196.286-.264.488-.323.278-.082.657-.318 1.359-.847l.453-.34-.093-.1c-.117-.125-.116-.155.007-.387.117-.22.094-.385-.077-.556-.14-.139-.355-.146-.591-.02-.095.05-.203.08-.242.065-.107-.04-.135-.196-.057-.314.19-.29.758-.342 1.076-.1.28.212.354.373.336.72a1.74 1.74 0 0 1-.055.394c-.03.07-.002.058.118-.05a5.17 5.17 0 0 1 .344-.274c.233-.168.239-.177.325-.486.039-.14.153-.526.253-.857.386-1.271.716-2.471.797-2.904.314-1.669.158-2.938-.447-3.636-.373-.431-1.068-.615-1.718-.454Zm.912.901c.239.151.379.395.357.621-.011.115-.039.153-.121.165-.127.018-.242-.065-.242-.175 0-.043-.063-.138-.14-.212-.29-.276-.645-.122-.76.329-.064.25-.186.319-.325.18-.152-.15-.035-.621.209-.838.268-.238.709-.268 1.022-.07Zm9.268 1.05c.01.028-.134.268-.323.534-.188.265-.393.573-.454.683l-.113.2.115.078c.064.042.208.147.322.233l.206.156.452-.457c.62-.627.683-.881.324-1.313-.117-.14-.162-.162-.341-.163-.132 0-.2.017-.188.05Zm-11.463.69c.307.158.552.581.44.76-.09.139-.262.093-.35-.093-.122-.257-.301-.377-.52-.348-.236.031-.307.109-.374.408-.055.24-.061.248-.215.248-.152 0-.16-.009-.174-.182a.823.823 0 0 1 1.193-.793Zm2.248.445a1.1 1.1 0 0 1 .57.465c.169.324.005.862-.315 1.036-.164.089-.17.089-.264.004-.053-.048-.096-.102-.096-.122 0-.019.073-.122.162-.228.211-.252.223-.483.036-.67-.122-.121-.143-.126-.439-.096-.286.028-.315.022-.364-.069-.066-.124.04-.257.253-.32.196-.056.255-.056.457 0Zm5.41.092c-.272.067-.598.25-.793.445-.21.21-.542.692-.542.788 0 .07.276.066 1.078-.014.202-.02.386-.01.521.028.21.059.546.306.632.466.047.087.198.803.257 1.213.035.245.062.256.42.174.106-.024.42-.049.697-.054.572-.01.764.049.978.302.177.209.235.376.296.843.03.227.061.438.07.469.017.057.373-.11.544-.256.045-.038.081-.05.081-.029 0 .08.474-.423.571-.604.292-.548-.034-1.276-.957-2.133-.662-.616-1.931-1.374-2.511-1.5a1.69 1.69 0 0 1-.307-.093c-.12-.064-.833-.095-1.035-.045Zm-8.425 1.388c.251.158.417.457.393.706-.014.14-.025.15-.2.15-.164 0-.188-.015-.2-.117-.041-.346-.259-.542-.543-.489-.181.034-.272.13-.348.365-.063.197-.131.241-.303.198-.312-.078.064-.823.464-.92a.919.919 0 0 1 .738.107Zm7.973.446c-.115.008-.323.028-.461.043-.28.03-.15-.077-1.703 1.407-3.474 3.32-6.216 5.216-9.617 6.648-.748.315-2.336.866-3.014 1.045-.42.111-.547.166-.513.22.013.02.133.008.268-.028.24-.063 1.383-.095 1.47-.04.044.026-.12.78-.246 1.131-.088.245-.088.237-.01.237.108 0 1.156.695 1.446.96 1.463 1.333 2.135 3.039 1.942 4.931-.031.307-.028.405.014.405.097 0 1.037-.39 1.703-.708l.638-.303v-.432c.001-1.014.162-2.11.517-3.526.517-2.06 1.154-3.34 2.06-4.146.392-.349.7-.484 1.158-.506.392-.02.597.024.992.209l.244.114.22-.195c.552-.488 1.272-.631 1.983-.393.45.15.855.372 1.237.676.158.126.305.23.327.23.022 0 .052-.058.067-.128.143-.67.421-1.314.745-1.724.187-.237 1.512-1.51 1.735-1.667.143-.1.347-1.072.284-1.354a8.43 8.43 0 0 1-.093-.597c-.094-.759-.123-.783-.833-.688-.922.123-1.043.13-1.199.059-.22-.1-.27-.21-.383-.869-.187-1.087-.168-1.068-.978-1.01Zm-5.354.23a.848.848 0 0 1 .271 1.01c-.129.308-.493.402-.49.127a.42.42 0 0 1 .07-.214c.119-.157.087-.431-.068-.585-.17-.17-.349-.176-.58-.02-.094.064-.18.116-.19.116-.033 0-.209-.2-.209-.239 0-.059.2-.23.349-.3a.96.96 0 0 1 .405-.05c.213.013.302.044.442.155Zm-2.228 1.232c.177.116.296.3.36.552.022.091.005.148-.068.22-.124.125-.26.066-.304-.131-.038-.174-.213-.362-.373-.402-.161-.04-.429.084-.482.224a4.371 4.371 0 0 0-.08.239c-.1.33-.365.241-.35-.118.023-.6.767-.934 1.297-.584Zm-2.189.847c.356.208.49.706.293 1.09-.123.24-.287.321-.416.205-.115-.104-.115-.155 0-.301a.526.526 0 0 0 .092-.284c.002-.358-.36-.555-.679-.367-.264.156-.389.112-.389-.137 0-.095.213-.264.409-.326.184-.058.47-.008.69.12Zm-8.438.15c0 .02.084.147.187.283.494.656.841 1.307 1.162 2.18.35.953.46 1.593.462 2.655v.733l.179-.03c.159-.026.213-.006.5.186l.32.215.372-.1c.76-.2 1.696-.518 1.696-.574 0-.032-.096-.4-.213-.819a31.691 31.691 0 0 1-.324-1.261c-.13-.583-.222-.807-.504-1.228-.606-.905-1.59-1.549-3.156-2.064-.71-.234-.68-.226-.68-.176Zm10.462 1.03c.246.069.426.238.544.51.094.22.096.245.028.349-.04.062-.098.112-.127.112-.085 0-.223-.146-.223-.236 0-.153-.196-.324-.404-.351-.173-.024-.212-.01-.337.115-.078.077-.142.19-.142.25 0 .253-.267.416-.37.225-.076-.143-.056-.314.064-.548.197-.383.553-.54.967-.425Zm-2.935.648c.3.213.41.714.232 1.061-.158.309-.45.464-.596.317-.093-.092-.064-.171.13-.355.196-.187.234-.338.133-.528a.475.475 0 0 0-.62-.22c-.206.081-.365-.159-.203-.305.106-.096.422-.15.628-.106a.963.963 0 0 1 .296.136Zm13.688 1.283c-1.011.989-1.136 1.124-1.274 1.385-.15.281-.448 1.172-.407 1.213.028.028.55.138.57.12.009-.006.045-.139.082-.295.09-.388.255-.694.483-.9.226-.203.308-.238.661-.278a.884.884 0 0 1 .502.063c.302.12.622.157.748.09.092-.049.097-.08.076-.43-.05-.85-.367-1.419-.787-1.419-.181 0-.22.027-.654.451Zm-15-.177c.327.167.521.45.52.76 0 .21-.24.603-.422.69-.171.083-.255.065-.328-.071-.043-.08-.033-.112.06-.192.285-.244.344-.479.174-.694-.138-.175-.29-.223-.512-.163-.166.044-.191.04-.269-.056-.106-.131-.083-.196.105-.288a.774.774 0 0 1 .672.014Zm9.823 2.457c-.373.188-.495.34-.92 1.157-.84 1.611-1.478 3.427-1.725 4.908-.09.534-.116 2.097-.046 2.736.032.3.026.364-.039.428-.115.116-.378.1-.457-.028-.062-.1-.135-.551-.194-1.195-.035-.387.051-1.527.168-2.219.222-1.308.917-3.303 1.637-4.696.157-.306.293-.57.3-.59.037-.08-.4-.238-.717-.259-.284-.018-.368-.005-.58.093-.749.346-1.536 1.64-2.033 3.341-.25.857-.497 1.969-.584 2.634-.155 1.187-.136 2.502.049 3.389.172.828.598 1.829.962 2.262.464.552 1.205.784 1.988.623.512-.105.865.112 1.183.73.207.402.472.726.687.84.198.104 1.174.103 1.635-.001.793-.18 1.715-.58 2.506-1.087.866-.556 2.107-1.672 2.811-2.53l.55-.664c.402-.48.925-1.29 1.194-1.846.573-1.184.606-2.059.094-2.506-.184-.162-.495-.335-.6-.335-.037 0-.147.1-.245.22a20.98 20.98 0 0 1-.4.475c-.645.742-1.616 2.064-2.466 3.356-.368.56-.464.623-.664.436-.062-.058-.112-.141-.112-.186 0-.223 1.039-1.785 2.011-3.025a52.244 52.244 0 0 1 1.327-1.603c.14-.15.125-.31-.084-.93-.37-1.097-.86-1.813-1.526-2.232-.259-.163-1.044-.475-1.463-.582-.402-.103-1.428-.28-1.619-.28-.09 0-.199-.058-.33-.175a3.29 3.29 0 0 0-.905-.603c-.305-.145-.417-.173-.732-.186-.34-.014-.396-.003-.661.13ZM7.355 16.907c-.336.486-.511 1.083-.511 1.74 0 .48-.031.551-.24.551-.207 0-.239-.12-.207-.782.015-.321.04-.67.056-.777.028-.188.024-.196-.153-.286-.264-.134-.714-.218-.894-.165-.185.053-.17.118.04.19.543.187.76.696.492 1.153l-.116.198-.211-.118c-.179-.1-.257-.115-.5-.1-.24.016-.333.049-.557.197a1.16 1.16 0 0 1-.477.201c-.26.03-.289.072-.125.187.24.168.413.235.805.31.586.114.687.155.764.303.098.19.085.378-.047.693a1.34 1.34 0 0 0-.116.542c.001.395.029.42.356.32.561-.174.975-.515 1.109-.915.101-.305.204-.38.546-.4.24-.015.348.006.642.124.46.184.897.246 1.369.192.4-.046.723-.137.747-.212.027-.082-.366-.299-.758-.418-.8-.244-1.046-.642-.558-.905.124-.066.287-.183.363-.26.14-.138.386-.734.32-.774-.073-.046-.846.066-1.035.15-.11.048-.341.2-.513.335-.275.219-.32.278-.385.502-.041.14-.08.376-.088.524-.014.286-.064.383-.216.422-.163.043-.274-.118-.273-.396.002-.606.235-1.236.67-1.812.142-.188.258-.364.258-.39 0-.045-.205-.219-.357-.304-.033-.018-.113.053-.2.18Zm-4.112 2.956c-.72.572-1.384 1.504-1.673 2.349-.355 1.038-.332 2.443.055 3.412.674 1.685 2.027 2.848 3.918 3.366.547.15 1.618.206 2.234.118.688-.099 1.55-.381 2.07-.678 1.692-.966 2.658-2.45 2.795-4.292.019-.25.025-.463.014-.474a1.28 1.28 0 0 1-.033-.287c-.015-.3-.153-.917-.294-1.324-.208-.596-.696-1.316-1.255-1.853-.235-.225-.438-.399-.45-.386-.014.013.018.106.07.207l.094.183-.103.096a1.748 1.748 0 0 1-.357.214c-.696.321-1.535.341-2.397.057-.283-.093-.528-.17-.543-.17-.016 0-.091.132-.168.293-.3.625-1.266 1.19-1.941 1.134-.256-.02-.396-.288-.424-.806-.017-.336-.006-.41.102-.644.166-.362.161-.439-.03-.44-.235-.001-.71-.126-.962-.254a1.23 1.23 0 0 0-.291-.116c-.034 0-.228.133-.431.295Zm12.659.492c0 .026-.022.047-.05.047-.027 0-.036-.021-.02-.047.016-.025.038-.046.05-.046.01 0 .02.021.02.046Zm-1.045 4.076c-.358.175-.808.372-1 .438-.78.268-.717.228-.808.522a6.17 6.17 0 0 1-.564 1.29c-.194.342-.23.433-.167.433.137 0 1.14-.27 1.622-.438.501-.174 1.79-.768 1.84-.849.017-.027.008-.15-.02-.272a15.831 15.831 0 0 1-.182-1.369c0-.044-.017-.079-.036-.077-.02.002-.328.147-.685.322Zm-12.844.12c0 .268.455 1.288.8 1.795.394.577 1.122 1.21 1.813 1.574.436.23 1.304.51 1.94.627.724.132.742.136.742.19 0 .06-.57.021-1.11-.077-1.034-.186-2.2-.766-2.866-1.426-.634-.628-1.105-1.377-1.348-2.143-.09-.286-.15-.541-.135-.567.047-.076.164-.056.164.027Z" fill="#6AA64C"/></svg>