<svg width="24" height="24" fill="none" xmlns="http://www.w3.org/2000/svg"><g clip-path="url(#a)"><path fill-rule="evenodd" clip-rule="evenodd" d="M5.957 3.15A8.66 8.66 0 0 1 12 .706a8.66 8.66 0 0 1 6.042 2.444c6.128 6.008-.768 13.467-5.059 19.186a1.24 1.24 0 0 1-1.968 0C6.725 16.616-.17 9.158 5.957 3.15ZM12 5.84c-.607 0-1.2.177-1.703.507-.504.33-.897.8-1.13 1.348a2.95 2.95 0 0 0-.174 1.736 2.99 2.99 0 0 0 .839 1.54c.428.42.975.706 1.57.822.594.116 1.21.056 1.77-.17a3.053 3.053 0 0 0 1.376-1.107 2.963 2.963 0 0 0-.38-3.795c-.285-.28-.623-.5-.995-.652A3.119 3.119 0 0 0 12 5.841Z" fill="#240403"/></g><defs><clipPath id="a"><path fill="#fff" d="M0 0h24v24H0z"/></clipPath></defs></svg>