<svg width="108" height="108" fill="none" xmlns="http://www.w3.org/2000/svg"><g clip-path="url(#a)"><path d="M50.364 44.573h13.893v13.893m-.965-12.929-18.91 18.91" stroke="#fff" stroke-width="1.5" stroke-linecap="round" stroke-linejoin="round"/></g><path d="m96.309 56.238-.801 6.673-9.539-1.145.115-.955 8.674 1.04.572-4.762-8.674-1.041.114-.955 9.539 1.145Zm-1.722 10.038-.84 2.515c-.198.592-.396 1.06-.594 1.406-.198.345-.43.632-.7.862-.329.274-.722.44-1.18.497-.457.057-.945-.001-1.463-.174a3.285 3.285 0 0 1-1.167-.65 2.158 2.158 0 0 1-.624-.963 2.853 2.853 0 0 1-.114-1.135c.041-.397.164-.9.367-1.508l.585-1.751-3.686-1.233.305-.912 9.111 3.046ZM89.12 67.34c-.113.337-.2.664-.26.982-.06.318-.066.609-.017.872.054.274.183.518.385.732.2.222.501.4.904.535.469.157.858.195 1.168.116a1.56 1.56 0 0 0 .798-.46c.214-.23.392-.517.535-.862.14-.337.27-.687.391-1.048l.433-1.295-3.773-1.261-.564 1.689Zm-1.682 4.87c.56.409 1.007.9 1.34 1.474.333.574.542 1.177.63 1.808a5.245 5.245 0 0 1-.102 1.952 5.25 5.25 0 0 1-.87 1.859 4.73 4.73 0 0 1-1.465 1.33 4.904 4.904 0 0 1-1.806.647 4.903 4.903 0 0 1-1.917-.06 4.61 4.61 0 0 1-1.782-.799 4.729 4.729 0 0 1-1.33-1.465 5.122 5.122 0 0 1-.63-1.809 5.124 5.124 0 0 1 .087-1.93c.152-.65.431-1.256.84-1.817a4.991 4.991 0 0 1 1.47-1.358 5.484 5.484 0 0 1 1.828-.68 5.125 5.125 0 0 1 1.914.043 4.7 4.7 0 0 1 1.793.806Zm-.573.79a3.965 3.965 0 0 0-1.474-.67 4.214 4.214 0 0 0-1.571-.05 4.335 4.335 0 0 0-1.47.538c-.47.28-.871.647-1.203 1.102a3.903 3.903 0 0 0-.67 1.474 4.333 4.333 0 0 0-.06 1.563 4.23 4.23 0 0 0 .53 1.48c.273.466.633.862 1.082 1.188.462.337.957.563 1.484.678a4.132 4.132 0 0 0 3.066-.502 4.03 4.03 0 0 0 1.211-1.113 3.71 3.71 0 0 0 .645-1.46 4.229 4.229 0 0 0 .05-1.572 4.333 4.333 0 0 0-.54-1.469A3.873 3.873 0 0 0 86.865 73Zm-8.887 5.64-.807.57 1.976 9.297-.893.63-8.095-4.981-.807.57-1.52-2.157.552-.39 1.316 1.235 6.926-4.885-.721-1.655.552-.39 1.521 2.157Zm-6.98 4.924 7.073 4.366-1.74-8.128L71 83.564Zm-4.483 3.877 5.21 5.644-.955.338-4.338-4.698-.417 6.381-.956.339.68-10.432.955-.338-.18 2.766Zm-4.432 8.662-.955.114-.525-4.375-3.825 4.898-1.264.151 4.144-5.29-5.29-4.248 1.291-.155 4.857 3.92-.533-4.44.955-.114 1.145 9.539Zm-10.433-.285 2.192.161-.064.869-5.342-.392.064-.869 2.191.161.64-8.713.96.07-.64 8.713Zm-5.81.205-.927-.254 1.077-3.937-1.78-.487c-1.179-.323-1.986-.772-2.42-1.35-.438-.569-.533-1.305-.286-2.207.256-.937.732-1.543 1.428-1.82.687-.28 1.65-.25 2.887.09l2.558.7-2.536 9.265Zm.062-9.04a22.974 22.974 0 0 0-1.06-.263 3.29 3.29 0 0 0-.995-.057c-.316.04-.597.16-.84.363-.247.211-.433.547-.56 1.006-.17.627-.095 1.138.228 1.532.316.392.925.71 1.827.958l1.718.47.999-3.649-1.317-.36Zm-7.397 7.033-.927-.254 2.535-9.266.928.254-2.535 9.266ZM11.812 51.711l.801-6.673 9.539 1.145-.115.955-8.674-1.041-.572 4.763 8.674 1.04-.114.956-9.539-1.145Zm1.722-10.038.84-2.515c.199-.592.396-1.06.594-1.405.198-.346.43-.633.7-.863.329-.274.722-.44 1.18-.496.458-.058.945 0 1.463.174.469.156.858.373 1.167.65.301.274.51.595.624.963.112.348.15.726.114 1.134-.041.398-.164.9-.367 1.509l-.585 1.75 3.686 1.233-.305.912-9.111-3.046Zm5.469-1.064c.112-.337.199-.664.26-.982.06-.318.066-.608.016-.872a1.464 1.464 0 0 0-.385-.732c-.2-.222-.502-.4-.904-.535-.469-.157-.858-.195-1.168-.116-.318.076-.584.23-.797.46-.214.23-.393.517-.536.862-.14.337-.27.687-.391 1.048l-.433 1.295 3.773 1.261.565-1.689Zm1.68-4.87a4.763 4.763 0 0 1-1.34-1.473 4.928 4.928 0 0 1-.63-1.809 5.245 5.245 0 0 1 .102-1.952 5.248 5.248 0 0 1 .87-1.858 4.73 4.73 0 0 1 1.465-1.33 4.904 4.904 0 0 1 1.806-.648 4.903 4.903 0 0 1 1.917.06 4.61 4.61 0 0 1 1.782.799c.554.403.997.891 1.33 1.465.325.57.535 1.172.63 1.809.094.636.065 1.28-.087 1.93a4.992 4.992 0 0 1-.84 1.817 4.99 4.99 0 0 1-1.47 1.358 5.475 5.475 0 0 1-1.828.68 5.126 5.126 0 0 1-1.914-.043 4.7 4.7 0 0 1-1.793-.805Zm.573-.789c.449.326.94.55 1.474.67.527.116 1.05.132 1.572.05a4.334 4.334 0 0 0 1.469-.539c.47-.279.872-.646 1.203-1.102.331-.455.555-.947.67-1.474a4.333 4.333 0 0 0 .06-1.563 4.213 4.213 0 0 0-.53-1.48 3.873 3.873 0 0 0-1.082-1.188 3.936 3.936 0 0 0-1.484-.678 4.135 4.135 0 0 0-3.066.502 4.03 4.03 0 0 0-1.211 1.113 3.716 3.716 0 0 0-.645 1.46 4.214 4.214 0 0 0-.05 1.572c.088.513.268 1.003.54 1.469a3.87 3.87 0 0 0 1.08 1.188Zm8.887-5.642.807-.57-1.976-9.297.893-.629 8.095 4.981.807-.57 1.521 2.157-.552.39-1.317-1.235-6.926 4.885.721 1.655-.552.39-1.521-2.157Zm6.98-4.923-7.073-4.366 1.74 8.127 5.332-3.761Zm4.483-3.877-5.21-5.644.956-.338 4.338 4.698.416-6.381.956-.338-.679 10.431-.956.338.18-2.766Zm4.432-8.661.955-.115.525 4.376 3.825-4.898 1.264-.152-4.144 5.29 5.29 4.248-1.291.155-4.857-3.92.533 4.44-.955.114-1.145-9.538Zm10.432.283-2.19-.16.063-.869 5.342.392-.064.87-2.191-.162-.64 8.713-.96-.07.64-8.713Zm5.81-.204.928.254-1.077 3.937 1.78.487c1.179.323 1.986.773 2.42 1.35.438.569.533 1.305.286 2.208-.256.936-.732 1.543-1.428 1.82-.687.278-1.65.249-2.886-.09l-2.558-.7 2.535-9.266Zm-.061 9.04c.351.096.704.184 1.06.263.358.071.69.09.995.057a1.6 1.6 0 0 0 .841-.363c.247-.211.433-.546.558-1.006.172-.627.096-1.138-.227-1.532-.316-.391-.924-.71-1.827-.958l-1.718-.47-.999 3.649 1.317.36Zm7.397-7.033.927.254-2.535 9.266-.928-.253 2.536-9.267Z" fill="#fff"/><defs><clipPath id="a"><path fill="#fff" transform="translate(38.318 38.635)" d="M0 0h32v32H0z"/></clipPath></defs></svg>