<svg width="97" height="97" fill="none" xmlns="http://www.w3.org/2000/svg"><g clip-path="url(#a)"><path fill-rule="evenodd" clip-rule="evenodd" d="M56.53 30.177a39.6 39.6 0 0 0 2.96-17.96 50.52 50.52 0 0 0-15.4 20 39.6 39.6 0 0 0-2.96 17.96 50.16 50.16 0 0 0 15.4-20.2v.2Zm-40 25.24a61.92 61.92 0 0 1-1.52-30.68 62.038 62.038 0 0 0 2.32 26.04 56 56 0 0 0 7.4 15.48 35.36 35.36 0 0 0-7.44-54.68 36 36 0 0 0-9.24 30.32 35.4 35.4 0 0 0 10.72 20 59.697 59.697 0 0 1-2.36-6.36l.12-.12Zm17.52 17.12a87.204 87.204 0 0 0-6.96 6.2 51.2 51.2 0 0 1 63.24-27.88 51.24 51.24 0 0 1-66.28 37.84.52.52 0 0 0 0-.24 84 84 0 0 1 16.32-17.08 91.28 91.28 0 0 1 32-16.52 90.88 90.88 0 0 0-38.48 18.04l.16-.36Z" fill="#CBCCCA"/></g><defs><clipPath id="a"><path fill="#fff" transform="translate(.318 .635)" d="M0 0h96v96H0z"/></clipPath></defs></svg>