<svg width="343" height="193" fill="none" xmlns="http://www.w3.org/2000/svg" xmlns:xlink="http://www.w3.org/1999/xlink"><path fill-rule="evenodd" clip-rule="evenodd" d="M268 45c21.444 0 39.384-14.999 43.903-35.078C313.115 4.534 317.477 0 323 0c11.046 0 20 8.954 20 20v153c0 11.046-8.954 20-20 20H20c-11.046 0-20-8.954-20-20V20C0 8.954 8.954 0 20 0h183c11.046 0 19.606 9.382 24.362 19.352C234.597 34.519 250.075 45 268 45Z" fill="#D9D9D9"/><path fill-rule="evenodd" clip-rule="evenodd" d="M268 45c21.444 0 39.384-14.999 43.903-35.078C313.115 4.534 317.477 0 323 0c11.046 0 20 8.954 20 20v153c0 11.046-8.954 20-20 20H20c-11.046 0-20-8.954-20-20V20C0 8.954 8.954 0 20 0h183c11.046 0 19.606 9.382 24.362 19.352C234.597 34.519 250.075 45 268 45Z" fill="url(#a)"/><defs><pattern id="a" patternContentUnits="objectBoundingBox" width="1" height="1"><use xlink:href="#image0_4808_10051" transform="matrix(.00076 0 0 .00135 -.07 -.154)"/></pattern></defs></svg>