<svg width="27" height="22" fill="none" xmlns="http://www.w3.org/2000/svg"><path d="M24.746 14.83v-.174c0-3.849-3.02-6.934-6.74-6.934-.083 0-1.34 0-2.949-.033-.164.11-.319.196-.484.284-1.34.817-2.731 1.472-3.989 1.897-.082-.175-.165-.316-.237-.458 1.206-.37 2.598-1.014 3.989-1.865 3.607-2.18 5.968-4.983 5.246-6.28-.69-1.276-4.174-.567-7.761 1.646-2.453 1.505-4.329 3.315-5.03 4.71a5.171 5.171 0 0 0-.886.197 7.263 7.263 0 0 0-1.711.676c-2.752 1.56-4.092 4.558-2.99 6.738.825 1.669 2.866 2.345 4.979 1.898l.052.109a2.924 2.924 0 0 0-.32.654c-1.742.196-3.102 1.755-3.102 3.652l.185-.196-.216.284 2.731-.033h5.968c0-2.148 1.69-3.936 3.72-3.936v.512c-1.793 0-3.236 1.527-3.236 3.391h6.257a6.667 6.667 0 0 0 4.927-2.486c.37.317.855.513 1.391.513 1.258 0 2.278-1.08 2.278-2.41.02-1.243-.897-2.268-2.072-2.355ZM6.101 11.866c-.567 0-1.02-.48-1.02-1.08 0-.599.453-1.079 1.02-1.079.566 0 1.02.48 1.02 1.08 0 .6-.464 1.08-1.02 1.08Z" fill="#fff"/></svg>