<svg width="33" height="33" fill="none" xmlns="http://www.w3.org/2000/svg"><path d="M30.116 18.303c1.915-3.65-1.978-6.18-7.069-7.42.383-.871.494-2.01-.586-3.099-1.385-1.392-.464-3.42-.464-3.42s-2.907 2.68-1.072 4.53c.677.681 1.03 1.28 1.198 1.78a32.422 32.422 0 0 0-4.26-.587c.428-1.162.47-2.621-.877-4.019-1.844-1.915-.616-4.705-.616-4.705s-3.877 3.687-1.43 6.23c.894.926 1.365 1.742 1.593 2.426-1.517-.045-2.977.021-4.274.203.154-.748.025-1.607-.8-2.437-1.384-1.393-.463-3.422-.463-3.422s-2.908 2.682-1.072 4.53c.575.58.912 1.097 1.106 1.547-.22.048-.432.1-.636.157-6.321-.592-9.078.714-7.819 3.276C.377 16.071 1.203 18.58 3.954 20.5c1.435 5.91 1.804 10.864 12.612 10.864 9.644 0 10.977-3.945 12.171-8.994 3.584-.713 2.82-2.431 1.379-4.066Zm-.894-.59c-1.2 2.56-6.41 4.486-12.656 4.486-6.245 0-11.455-1.927-12.656-4.487l-.074-.232c.572-1.45 2.43-2.71 5.042-3.553-.614.593-.741 1.479.873 1.79.462.088 1.73-.22 1.176-1.794a.814.814 0 0 0-.36-.456c1.795-.41 3.831-.647 6-.647.242 0 .48.008.72.014-1.25.444-2.271 1.812.283 2.215.564.09 2.113-.219 1.436-1.793a.872.872 0 0 0-.275-.355c2.393.176 4.562.637 6.315 1.302-1.542-.086-3.252.864-.513 2.201.587.287 2.372.55 2.127-1.187a.893.893 0 0 0-.13-.353c1.401.738 2.379 1.634 2.766 2.616l-.074.232Z" fill="#6AA64C"/><path d="M13.236 18.784c1.617 0 2.695-1.462 3.54-2.034 1.18-.8 4.146-1.112 1.533-1.175-2.478-.06-5.538 1.953-7.583 1.814-3.386-.23.082 1.395 2.51 1.395Zm3.493 2.986c.571.11 2.14-.271 1.454-2.218-.775-2.202-5.47 1.445-1.454 2.218Zm-8.888-4.818c-.545-.77-1.336-1.746-1.664-1.238-.447.696-.588 2.095-.263 2.157 2.548.489 2.37-.295 1.927-.919Zm14.813.312c.46-.569-.458-1.938-1.047-1.699-.922.375-1.454.121-1.859.69-.948 1.333 2.281 1.782 2.906 1.01Zm-.287 1.63c-.661-.29-.505.686-1.482-.098-.699-.56-2.203.854-1.21 1.815 1.103 1.07 1.397.053 1.861.139.943.173 2.565-1.09.83-1.855Zm-10.991.335c-.345-.34-.807.07-1.068.569-.258-.127-.469-.157-.469-.157-.197-.563-.785-.949-.785-.949s.054.586.131.871c-.649-.23-.669-1.39-.669-1.39s-.435.26-.396.703c-.714-.577-1.323-.307-1.323-.307s.907.51 1.032.854c-.51.04-.806.215-.98.625.001.003 1.007-.479 1.75-.13-.293.24-.147.839-.147.839.693-.734 1.246-.656 1.688-.524-.053.224-.05.43.045.554.768 1.009 3.441.782 4.16.036.869-.903-1.547-.195-2.97-1.594Z" fill="#6AA64C"/><path d="M13.265 15.428c-.228.457-.229.802.034 1.161.004.001.106-1.109.787-1.569.055.375.644.557.644.557-.471-1.668.904-1.755.897-2.353a1.733 1.733 0 0 0-1.143.591c-.584-.12-1.217.186-1.217.186s.53.255.815.335c-.532.439-1.538-.14-1.538-.14s0 .508.4.7c-.861.318-.942.978-.942.978s.903-.515 1.263-.446Zm12.776 2.278c.206-.393-.096-.801-.096-.801s-.464 1.063-1.151 1.027c.18-.234.456-.754.456-.754s-.692.131-1.09.575c0 0-.648-.18-1.27.204.35.485 1.508-.263 2.121 1.358 0 0 .365-.497.187-.831.82-.036 1.564.795 1.566.792-.003-.445-.209-.72-.665-.953.248-.27 1.282-.392 1.282-.392s-.459-.482-1.34-.225Z" fill="#6AA64C"/></svg>