<svg width="143" height="32" fill="none" xmlns="http://www.w3.org/2000/svg"><path d="M44.423 15.946v4.137h-1.93V9.032c.544 0 1.135-.006 1.773-.016.638-.01 1.161-.016 1.57-.016 2.657 0 3.986 1.137 3.986 3.41 0 .842-.215 1.537-.644 2.084-.429.526-.92.884-1.475 1.073l3.437 4.516H48.8l-3.028-4.137h-1.35Zm1.318-5.13a3.22 3.22 0 0 0-.25.015 10.4 10.4 0 0 0-.487.016h-.581v3.284h1.255c.618 0 1.12-.153 1.507-.458.398-.305.596-.721.596-1.247 0-1.074-.68-1.61-2.04-1.61Zm11.46 7.277.517 1.28c-.701.588-1.6.883-2.7.883-1.13 0-2.05-.342-2.761-1.026-.69-.674-1.036-1.573-1.036-2.7 0-1.052.34-1.936 1.02-2.652.68-.716 1.585-1.073 2.715-1.073.931 0 1.721.31 2.37.931.648.621.973 1.41.973 2.368 0 .421-.037.748-.11.979h-5.1c.074.516.299.92.675 1.216.387.294.868.442 1.444.442.785 0 1.449-.216 1.993-.648Zm-2.324-3.773c-1.025 0-1.642.516-1.851 1.547h3.468c.01-.452-.136-.82-.44-1.105-.293-.294-.685-.442-1.177-.442Zm11.61 8.92h-1.805v-3.52a3.115 3.115 0 0 1-1.742.536c-1.12 0-2.014-.337-2.684-1.01-.66-.684-.989-1.59-.989-2.715 0-1.063.382-1.948 1.146-2.653.774-.716 1.742-1.073 2.903-1.073 1.214 0 2.27.284 3.17.852v9.583Zm-3.312-4.673c.607 0 1.109-.216 1.507-.647v-3.063c-.471-.231-.932-.347-1.382-.347-.648 0-1.16.2-1.537.6-.377.389-.565.889-.565 1.5 0 .568.178 1.036.533 1.405.366.368.848.552 1.444.552Zm9.88-5.589h1.805v7.105h-1.805v-.869c-.565.695-1.318 1.042-2.26 1.042-.753 0-1.355-.252-1.805-.758-.45-.505-.674-1.23-.674-2.178v-4.342h1.804v3.963c0 1.084.45 1.626 1.35 1.626.617 0 1.145-.29 1.585-.868v-4.72Zm9.355 5.115.518 1.28c-.701.588-1.6.883-2.7.883-1.13 0-2.05-.342-2.761-1.026-.691-.674-1.036-1.573-1.036-2.7 0-1.052.34-1.936 1.02-2.652.68-.716 1.585-1.073 2.715-1.073.931 0 1.72.31 2.37.931.648.621.973 1.41.973 2.368 0 .421-.037.748-.11.979h-5.1c.073.516.297.92.674 1.216.387.294.868.442 1.444.442.785 0 1.449-.216 1.993-.648Zm-2.323-3.773c-1.025 0-1.642.516-1.852 1.547h3.469c.01-.452-.136-.82-.44-1.105-.293-.294-.685-.442-1.177-.442Zm4.64.647c0-.662.241-1.189.722-1.578.482-.39 1.104-.584 1.868-.584 1.15 0 2.045.3 2.684.9l-.675 1.294c-.576-.453-1.214-.679-1.915-.679-.251 0-.46.063-.628.19-.167.116-.25.258-.25.426 0 .347.444.637 1.333.868.325.074.612.158.863.253.251.084.508.21.77.379.271.158.48.368.627.631.146.263.22.569.22.916 0 .694-.262 1.247-.785 1.657-.513.411-1.203.616-2.072.616a4.363 4.363 0 0 1-1.804-.394c-.597-.274-.978-.548-1.146-.821l.879-1.184c.199.242.528.447.989.615.47.18.873.269 1.208.269.408.042.696-.09.863-.395.168-.316.058-.574-.33-.774-.156-.084-.402-.173-.737-.268-.324-.095-.628-.19-.91-.284a7.5 7.5 0 0 1-.848-.395 1.817 1.817 0 0 1-.675-.647c-.167-.284-.25-.621-.25-1.01Zm7.052 2.416v-6.378h1.805v1.973h2.275v1.705h-2.275v2.59c0 .852.282 1.278.847 1.278.356 0 .717-.137 1.083-.41l.55 1.405c-.576.463-1.272.694-2.088.694-.764 0-1.323-.231-1.68-.694-.344-.474-.517-1.195-.517-2.163Zm9.916 2.7h-.134V9.646h.163c.426 0 .821-.006 1.186-.015.435-.014.87-.024 1.304-.03.999 0 1.878.14 2.639.417.77.269 1.383.647 1.838 1.133.446.464.79 1.018 1.007 1.626.228.596.341 1.242.341 1.938 0 1.57-.518 2.863-1.556 3.877-1.027 1.013-2.49 1.52-4.387 1.52-.425 0-.815-.005-1.171-.014-.41-.011-.82-.016-1.23-.015Zm2.49-9.707c-.217 0-.538.01-.964.03-.415.01-.696.015-.844.015v8.886c.326 0 .633.006.918.015.287 0 .495.005.623.015h.207c1.612 0 2.857-.427 3.736-1.282.879-.865 1.319-1.978 1.319-3.34 0-1.282-.42-2.326-1.26-3.131-.849-.805-2.094-1.208-3.735-1.208Zm13.035 8.29.252.596c-.603.636-1.423.955-2.46.955-1.068 0-1.923-.319-2.565-.954-.652-.636-.978-1.482-.978-2.535 0-1.014.297-1.849.889-2.505.603-.656 1.433-.984 2.491-.984.859 0 1.58.278 2.163.835.573.546.86 1.277.86 2.192 0 .238-.015.447-.044.626h-5.499c.029.805.291 1.44.785 1.908.494.457 1.142.686 1.942.686.929 0 1.65-.274 2.164-.82Zm-2.446-4.697c-.711 0-1.289.21-1.734.627-.435.417-.687.969-.756 1.655h4.803c-.011-.706-.223-1.263-.638-1.67-.415-.408-.974-.612-1.675-.612Zm8.396 4.354a.883.883 0 0 0-.386-.745 2.84 2.84 0 0 0-.919-.448c-.355-.11-.716-.228-1.082-.357a2.342 2.342 0 0 1-.933-.642c-.248-.298-.371-.67-.371-1.118 0-.537.197-.965.593-1.282.395-.328.914-.492 1.556-.492.919 0 1.616.248 2.09.745l-.326.582c-.455-.427-1.038-.641-1.749-.641-.396 0-.722.104-.978.313a.939.939 0 0 0-.371.76c0 .319.123.582.371.79.256.2.563.358.919.478.365.11.73.228 1.096.357.366.13.672.334.919.612.257.278.386.631.386 1.058 0 .606-.228 1.08-.682 1.417-.445.337-1.018.507-1.719.507-.435 0-.89-.1-1.364-.298-.445-.189-.751-.413-.919-.671l.43-.507c.187.228.469.417.845.566.385.15.75.224 1.097.224.434 0 .789-.104 1.067-.313.286-.22.43-.518.43-.895Zm3.882 1.76h-.771v-6.71h.771v6.71Zm-.904-9.32a.437.437 0 0 1 .163-.357.587.587 0 0 1 .385-.134c.128 0 .243.05.341.149a.419.419 0 0 1 .163.343.533.533 0 0 1-.148.402.457.457 0 0 1-.356.15.572.572 0 0 1-.4-.15.545.545 0 0 1-.148-.402Zm2.664 10.304c0-.507.178-.934.534-1.283.356-.348.86-.59 1.512-.73a.972.972 0 0 1-.223-.641c0-.249.084-.472.252-.671a2.27 2.27 0 0 1-1.393-2.133c0-.685.242-1.252.726-1.7.484-.447 1.122-.67 1.912-.67.632 0 1.19.17 1.675.507h.015l1.897-.507v.73l-1.349.343c.267.408.401.84.401 1.298 0 .666-.248 1.232-.742 1.7-.494.447-1.126.67-1.897.67-.277 0-.499-.02-.667-.06a.854.854 0 0 0-.133.493c0 .228.064.407.193.536.375-.02.582-.03.622-.03 1.018 0 1.828.19 2.431.567.602.377.904.904.904 1.58 0 .667-.302 1.184-.904 1.551-.603.377-1.413.567-2.431.567-1.028 0-1.843-.184-2.445-.552-.593-.368-.89-.89-.89-1.565Zm.786 0c0 .437.226.78.682 1.028.463.26 1.086.388 1.867.388.771 0 1.388-.129 1.853-.388.464-.258.696-.601.696-1.028 0-.438-.232-.785-.696-1.044-.455-.268-1.073-.403-1.853-.403-.771 0-1.389.13-1.853.388-.464.259-.696.611-.696 1.059Zm1.2-6.65a1.558 1.558 0 0 0-.518 1.193c0 .477.172.874.518 1.192.346.319.79.477 1.334.477.543 0 .988-.158 1.334-.477.346-.318.519-.715.519-1.192 0-.478-.178-.875-.534-1.193-.346-.319-.785-.477-1.319-.477-.524 0-.968.158-1.334.477Zm7.014 5.666h-.77v-6.71h.77v.94a3.208 3.208 0 0 1 1.068-.761 3.24 3.24 0 0 1 1.334-.298c.928 0 1.625.244 2.089.73.464.487.697 1.243.697 2.267v3.832h-.771V16.4c0-1.61-.731-2.416-2.193-2.416-.426 0-.841.1-1.245.299a2.75 2.75 0 0 0-.979.73v5.07ZM13.728 2.19 2.177 13.81a3.11 3.11 0 0 0 0 4.38l11.551 11.62a3.066 3.066 0 0 0 4.354 0l11.551-11.62a3.11 3.11 0 0 0 0-4.38L18.082 2.19a3.066 3.066 0 0 0-4.354 0Z" fill="#240403"/><path d="M15.941 25.163c5.031 0 9.11-4.103 9.11-9.164 0-5.06-4.079-9.163-9.11-9.163-5.03 0-9.109 4.103-9.109 9.163 0 5.061 4.079 9.164 9.11 9.164Z" fill="#fff"/><path d="M18.636 10.273h-5.31a3.088 3.088 0 0 0-3.078 3.097v5.342a3.088 3.088 0 0 0 3.078 3.097h5.31c1.7 0 3.079-1.386 3.079-3.097V13.37a3.088 3.088 0 0 0-3.079-3.097Z" fill="#240403"/><path d="M15.925 19.978c2.192 0 3.97-1.788 3.97-3.993s-1.778-3.993-3.97-3.993-3.969 1.788-3.969 3.993 1.777 3.993 3.97 3.993Z" fill="#fff"/><path d="m15.327 14.9-.368.37c-.4.403-.4 1.057 0 1.46l.368.37c.4.403 1.05.403 1.451 0l.368-.37c.4-.403.4-1.057 0-1.46l-.368-.37a1.022 1.022 0 0 0-1.451 0Z" fill="#240403"/></svg>