<svg width="233" height="181" fill="none" xmlns="http://www.w3.org/2000/svg"><path d="M103.331 62.907c52.213-27.203 100.675-37.265 108.45-22.49 7.783 14.791-27.993 48.955-80.075 76.601M96.62 66.606c-49.783 27.22-83.432 59.942-75.86 74.33 7.571 14.389 53.597 5.184 104.224-20.434" stroke="#5A7B67" stroke-width=".8"/><path d="M94.124 53.629 118 78.846l.155.163.219-.047 33.96-7.263-25.217 23.877-.163.154.047.22 7.263 33.96-23.877-25.218-.154-.163-.22.047-33.96 7.263 25.218-23.876.163-.155-.047-.22-7.263-33.96Z" stroke="#5A7B67" stroke-width=".8"/></svg>