<svg width="489" height="489" fill="none" xmlns="http://www.w3.org/2000/svg"><circle cx="244.5" cy="244.5" r="53.034" transform="rotate(45 244.5 244.5)" stroke="#5A7B67"/><path d="M411.077 411.077c-6.438 6.438-16.476 8.826-29.35 7.494-12.868-1.332-28.486-6.375-45.961-14.687-34.946-16.62-77.218-46.259-119.605-85.154-1.083-.994-2.573-1.524-4.304-1.743-1.733-.219-3.752-.133-5.944.145-4.236.537-9.213 1.804-14.173 3.067l-.501.128c-5.144 1.309-10.243 2.588-14.538 3.058-2.147.234-4.066.264-5.675.005s-2.868-.8-3.742-1.674c-.874-.874-1.415-2.133-1.674-3.742-.259-1.609-.229-3.528.005-5.675.47-4.295 1.749-9.393 3.058-14.538l.128-.501c1.263-4.959 2.53-9.937 3.067-14.173.278-2.192.364-4.211.145-5.944-.219-1.731-.749-3.221-1.743-4.304-38.895-42.387-68.534-84.659-85.155-119.605-8.31-17.475-13.354-33.093-14.686-45.961-1.332-12.874 1.056-22.912 7.494-29.35 6.438-6.438 16.476-8.826 29.35-7.494 12.868 1.332 28.486 6.375 45.961 14.686 34.946 16.621 77.218 46.26 119.605 85.155 1.083.994 2.573 1.524 4.304 1.743 1.733.219 3.752.133 5.944-.145 4.237-.537 9.214-1.804 14.173-3.067l.501-.128c5.145-1.309 10.243-2.588 14.538-3.058 2.147-.234 4.066-.264 5.675-.005s2.868.8 3.742 1.674c.874.874 1.416 2.133 1.674 3.742.259 1.609.23 3.528-.005 5.675-.47 4.295-1.749 9.393-3.058 14.538l-.128.501c-1.263 4.96-2.53 9.937-3.067 14.173-.278 2.192-.364 4.211-.145 5.944.219 1.731.749 3.221 1.743 4.304 38.895 42.387 68.534 84.659 85.155 119.605 8.311 17.475 13.354 33.093 14.686 45.961 1.332 12.874-1.056 22.912-7.494 29.35Z" stroke="#5A7B67"/></svg>