<svg width="548" height="470" fill="none" xmlns="http://www.w3.org/2000/svg"><path d="m267.899 196.259 25.169 37.752a3 3 0 0 1-.153 3.538l-49.036 61.284c-2.141 2.676 1.155 6.271 4.007 4.37l65.149-43.435a3 3 0 0 1 3.716.308l117.58 110.251c2.706 2.537 6.703-1.128 4.41-4.043l-99.643-126.695a3.001 3.001 0 0 1 .016-3.729l48.919-61.138c2.141-2.676-1.155-6.272-4.006-4.371l-65.304 43.538a3 3 0 0 1-3.539-.153l-35.378-28.307" stroke="#5A7B67"/><path d="m267.913 196.297-35.346-28.282a3.003 3.003 0 0 0-3.539-.154l-65.304 43.538c-2.851 1.901-6.147-1.694-4.006-4.37l48.919-61.139a2.998 2.998 0 0 0 .015-3.728L109.009 15.466c-2.292-2.915 1.705-6.58 4.411-4.042L231 121.675a3 3 0 0 0 3.716.307l65.149-43.435c2.852-1.9 6.148 1.695 4.007 4.37l-49.036 61.284a3.001 3.001 0 0 0-.153 3.539l25.142 37.711" stroke="#5A7B67"/></svg>