<svg width="464" height="551" fill="none" xmlns="http://www.w3.org/2000/svg"><path d="m245.381 203.6-13.026 1.042v-17.194l-2.084-8.336-4.168-5.21-.521-5.731-3.126-6.773-3.126-8.858v-6.773l3.126-5.731 3.647-7.815-3.647-14.068V89.498l-7.294-22.404V47.295l-3.647-4.689-22.925-15.63-2.605-5.732-36.992-8.336.521-10.42-2.084-29.177h70.858l-2.084 1.042-7.815 6.252-3.127 35.43 17.715-2.606 14.588 4.168 13.026 5.21 22.924 9.379 12.505 3.647 18.235 2.084 21.362.521 12.504 4.168 18.236 14.588 8.336-4.168-3.647 8.337v6.252l-5.731 4.168-7.815 5.731-8.337 10.942-1.042 6.773-6.252 2.084 2.084 15.63-2.084 1.042-6.252-13.546-3.647 4.168.521 6.252-3.647 9.378-5.21 8.337-6.253 2.084v9.378l-1.042 13.025-3.126 8.858-9.378 17.714-5.21 14.589-2.084 11.983-10.941-11.983-1.043 10.42h-11.983l-1.042 5.731-5.21 5.731-4.689-2.084-2.605-3.126-3.647-1.563V203.6Z" stroke="#B3C7FA" stroke-width="5"/><path d="m180.254 259.349-4.168-1.563-14.067-28.135-1.563-11.463-6.773-23.966-10.942-22.404v-9.899l3.126-9.378-9.899-4.69-7.294-22.924-14.068-38.034-2.605-14.589-11.462-9.9 2.084-4.167h20.32l10.42-2.605 53.144-34.387 1.563 6.252 23.966 16.151 2.084 5.21v19.799l6.774 20.32v29.177l3.647 15.109-5.731 9.899v9.379l4.689 12.504 1.042 6.773 3.647 6.252h2.605l1.563 26.051-4.168 25.53-32.303 5.731-7.815 3.647-3.647 18.757-4.169 1.563Z" fill="#B3C7FA" fill-opacity=".5" stroke="#B3C7FA" stroke-width="5"/><path d="m170.875 265.08 7.295-2.605-12.505-24.488-5.731-14.588-4.689-23.446-12.504-26.571v-11.463l2.605-7.294-8.337-5.21-8.336-21.883-14.588-40.64-2.605-14.587-10.421-8.337-10.941 4.69L78.656 59.8l-10.42-5.21-2.606-20.84-8.336-6.253-1.042-12.504-6.773-2.605-11.984 4.168-1.042 10.941-4.168 4.69 6.773 8.336 1.563 14.067 2.084 6.773 3.648 7.294 21.882 3.648 3.647 8.857-10.94 22.403-3.648 2.606h-9.378l-3.647-2.606V91.582l2.084-6.773-3.648-3.647-12.504 3.647-9.9 6.773-6.251 2.605-3.126 14.068-6.774 9.899 13.026 6.773-6.252 4.168 4.689 7.294 4.689 15.631v5.21h7.815l5.731-7.815 12.505-5.731 13.025-2.084-5.21 31.782L42.706 203.6l-6.253 2.605 2.605 5.732-1.563 26.05h34.387l21.362-2.084 11.462-7.815 9.379 3.647 7.815 13.547-2.605 10.941-18.236 13.546-2.605 4.169 6.252 8.336 9.379 2.605 11.983-7.815 6.252-7.295-1.563-20.319 4.689-7.815 14.068 1.563 14.588 11.462 6.773 10.42Z" stroke="#B3C7FA" stroke-width="5"/><path d="m40.102 281.753-3.647-41.161 16.152-1.042 31.781-1.563 11.463-2.084 10.42-4.689 7.294 1.563 6.253 14.589-2.084 8.857-13.547 6.773-6.252 8.857 3.126 9.379 12.504 4.689 4.169-2.605 11.983-7.295 4.168-5.21-1.042-7.815v-10.941l3.647-7.294 8.857-.521 9.9 4.689 7.815 7.294 7.294 10.941 9.378-4.168-1.042-2.084 6.774-3.647 3.647-17.715 38.034-8.336 2.084-2.084 3.647-23.446h9.378l6.252 6.774 7.816 4.168 5.731-6.253 1.042-5.21h11.983l.521-8.857 11.463 10.42v-2.605l5.731-19.277 9.378-17.715 5.731-16.151v-19.799l6.773-2.084 6.774-13.546 1.563-9.9 2.084-3.647 7.294 13.547 2.605-2.605-2.605-15.11 6.773-3.126v-5.21l8.857-11.463 13.547-10.42 1.563 1.563 44.807 38.555 48.976 46.371 3.647 32.824v115.144l-8.336 47.413-2.606 26.571 7.295 47.413-81.279 89.093-43.244 27.614-27.614 13.547-46.891-6.252-33.866-4.69-60.438-27.092-49.497-71.901-35.95-78.152-12.504-16.151-16.673-34.908-8.857-32.824Z" stroke="#B3C7FA" stroke-width="5"/></svg>