<svg width="36" height="16" fill="none" xmlns="http://www.w3.org/2000/svg"><path d="M13.737 3.01c.841 0 1.522.17 2.04.514.53.343.925.899 1.184 1.668.26.77.39 1.799.39 3.088v3.86h-2.477V8.326c0-.987-.181-1.824-.545-2.51-.363-.696-1.017-1.045-1.962-1.045-.675 0-1.19.156-1.542.468-.353.301-.587.702-.701 1.2-.114.5-.171 1.113-.171 1.84v3.861H7.46V8.326c0-1.008-.167-1.85-.499-2.526-.322-.686-.95-1.029-1.884-1.029-.8 0-1.387.172-1.76.515-.364.332-.592.78-.686 1.34-.083.552-.124 1.337-.124 2.355v3.159H0V2.603h2.476v1.872c.842-.977 2.134-1.466 3.879-1.466.789 0 1.427.151 1.915.453.499.301.883.795 1.153 1.48a3.192 3.192 0 0 1 1.589-1.48c.706-.302 1.614-.453 2.725-.453Zm15.272.28v8.498c-.032.821-.307 1.892-.826 2.391a4.151 4.151 0 0 1-1.853 1.045c-.717.197-1.332.25-2.196.296-1.064.057-2.03-.042-2.726-.125a3.832 3.832 0 0 1-1.87-.701c-.54-.396-.81-1.142-.81-2.005h2.555c.01.697.737 1.045 2.18 1.045l.67-.015c.55 0 1.08-.12 1.59-.36.518-.238.778-1.01.778-1.727v-.795c-.893.82-2.238 1.122-4.034 1.122-.8 0-1.516-.202-2.15-.608a4.53 4.53 0 0 1-1.48-1.621 4.72 4.72 0 0 1-.56-2.105c.01-.853.192-1.622.545-2.308a4.059 4.059 0 0 1 1.48-1.622c.633-.395 1.355-.592 2.165-.592 1.838-.052 3.188.333 4.05 1.154l.28-.967h2.212Zm-5.25 7.048c.831 0 1.496-.25 1.994-.749.499-.509.748-1.143.748-2.12v-.047c0-.457-.11-.894-.327-1.31a2.693 2.693 0 0 0-.92-1.013 2.408 2.408 0 0 0-1.354-.39c-.623 0-1.158.13-1.604.39-.447.26-.79.613-1.028 1.06a3.22 3.22 0 0 0-.359 1.45c.021.832.28 1.403.78 1.934.498.53 1.188.795 2.07.795ZM34.38 3.29H36v1.902h-1.62v6.89h-2.492v-6.89H30.19V3.29h1.698V1.45L34.38 0v3.29Z" fill="#00A499"/></svg>