<svg width="1116" height="820" fill="none" xmlns="http://www.w3.org/2000/svg"><path fill-rule="evenodd" clip-rule="evenodd" d="M68.5 410C30.669 410 0 440.668 0 478.5v16C0 532.332 30.669 563 68.5 563c37.832 0 68.5-30.668 68.5-68.5v-16c0-37.832-30.668-68.5-68.5-68.5Zm839 0c-37.831 0-68.5 30.668-68.5 68.5v16c0 37.832 30.669 68.5 68.5 68.5s68.5-30.668 68.5-68.5v-16c0-37.832-30.669-68.5-68.5-68.5ZM560 478.5c0-37.832 30.669-68.5 68.5-68.5s68.5 30.668 68.5 68.5v140c0 37.832-30.669 68.5-68.5 68.5S560 656.331 560 618.5v-140ZM348.5 410c-37.832 0-68.5 30.669-68.5 68.5v273c0 37.832 30.668 68.5 68.5 68.5s68.5-30.669 68.5-68.5v-273c0-37.832-30.668-68.5-68.5-68.5Zm139.002 0c37.831 0 68.5-30.669 68.5-68.5v-273c0-37.831-30.669-68.5-68.5-68.5-37.832 0-68.5 30.669-68.5 68.5v273c0 37.832 30.668 68.5 68.5 68.5Zm348.5-68.5c0 37.832-30.669 68.5-68.5 68.5-37.832 0-68.5-30.668-68.5-68.5v-140c0-37.832 30.668-68.5 68.5-68.5 37.831 0 68.5 30.669 68.5 68.5v140Zm-627.5 68.5c37.831 0 68.5-30.668 68.5-68.5s-30.669-68.5-68.5-68.5c-37.832 0-68.5 30.668-68.5 68.5s30.668 68.5 68.5 68.5Zm838.998 0c37.83 0 68.5-30.668 68.5-68.5s-30.67-68.5-68.5-68.5-68.498 30.668-68.498 68.5S1009.67 410 1047.5 410Z" fill="#fff"/></svg>