<svg width="1274" height="682" fill="none" xmlns="http://www.w3.org/2000/svg"><path d="M378.358 166.07c.983.28 1.995-.548 2.133-2.153-.268-.509-.539-1.572-1.215-2.151-.808-.7-2.847.908-2.758 2.177.06 1.096.769 1.811 1.84 2.127Zm7.176 50.009c-.453-.329-1.358-.376-1.877-.154-1.906.817-2.618 4.699-1.221 6.189 1.27 1.373 2.843 1.885 4.618 1.397.545-.141.96-.825 1.442-1.269.016-2.537-.868-4.685-2.962-6.163Zm-6.586-64.293c-.055-.255-.052-.639-.214-.743-.266-.173-.728-.327-.936-.199-.806.501-.696 1.026.271 1.258.258.068.589-.198.879-.316Zm15.355 39.315-.647.235.569.373.078-.608Zm7.924-79.517c.647-.874.222-1.871-.837-2.338-.727-.324-1.356-.066-1.656.72-.409 1.083-.054 2.096.801 2.456.587-.268 1.356-.381 1.692-.838Zm-3.272 79.765c.01.102.459.222.688.198.091-.013.162-.36.237-.558-.649-.431-.998-.319-.925.36Zm7.809-17.346c.449-.613.326-.953-.341-.88-.102.008-.23.429-.217.663.005.076.363.144.558.217ZM367.141 31.115c-.185 1.081.462 1.744 1.786 1.956.986.167 2.224-.024 2.928.514 2.019 1.522 4.245 2.232 6.691 2.466.324.037.696.183.918.408.451.477.12.814-.866.966-1.382.211-2.748.394-4.106.66-1.393.269-2.608.835-3.434 2.086-.556.835-.086 1.913 1.543 3.404 2.037 1.863 4 3.777 6.086 5.575.454.392 1.293.637 1.877.533 4.183-.804 6.955-5.166 5.914-9.353-.24-.94-1.04-1.757-.579-2.82.136-.281.412-.576.707-.694.294-.125.879-.188.996-.02 1.426 1.941 2.993 3.84 2.626 6.512-.188 1.373-.324 2.746-.511 4.117-.506 3.516-.524 3.701 2.615 3.816 2.607.094 4.759.7 6.138 3.099 1.927 3.36 5.022 4.5 8.727 4.557 5.851.1 11.705.37 17.376 2.125.928.295 2.143.34 3.012-.02 2.563-1.058 4.897-2.535 6.698-4.736.702-.85.832-3.093.165-3.92-.431-.544-.822-1.139-1.333-1.58-1.048-.895-2.112-1.84-3.296-2.524-1.452-.838-1.708-1.987-1.447-3.477.524-3.107-2.453-4.837-2.996-7.55-1.043-5.26-4.891-8.19-9.113-10.736-1.903-1.15-4.075-1.566-5.872-.227-1.794 1.332-3.082.846-4.607-.18-2.297-1.56-4.54-1.313-6.73.293-.48.35-1.025.582-1.559.848-.013.138-.006.269-.019.41-.182-.021-.326.023-.513.008-1.531 1.55-3.041 3.106-4.616 4.61-.597.555-1.238.451-1.593-.225-.114-.222-.044-.663.112-.885 1.521-2.107 3.372-3.642 6.097-3.503.091-.089.187-.17.276-.266.086-.045.167-.102.256-.152.294-3.054-.071-5.803-2.918-7.875-2.386-1.744-3.155-4.406-3.288-7.34a2.946 2.946 0 0 0-2.652-2.778c-4.5-.457-7.538-3.085-10.422-6.226-1.103-1.221-2.787-1.952-4.274-2.78-1.074-.603-3.243.167-3.564 1.259-.769 2.665-1.551 5.317-3.142 7.627-2.566 3.759-2.866 7.996-1.259 11.935 1.379 3.396 1.786 6.583 1.165 10.083Zm4.808 122.707c.021.113.514.233.78.222.094 0 .182-.383.258-.605-.73-.514-1.121-.387-1.038.383Zm34.122 27.125-.741-.384-.065.65.806-.266Zm-48.896 32.235c.157-.152.06-.598.089-.911-.219-.23-.537-.697-.628-.65-.561.24-1.215.498-1.552.953-.477.65-.187 1.454.561 1.521.485.047 1.069-.519 1.53-.913ZM205.192 316.191c-.198 1.013-.35 2.039-.603 3.537.332 1.248.639 2.945 1.218 4.537.733 2.013 2.986 2.872 5.137 2.253 4.203-1.196 5.88-4.477 6.852-8.291.149-.548-.211-1.417-.615-1.874-2.206-2.477-5.053-3.477-8.336-3.349-1.471.058-3.322 1.629-3.653 3.187Zm5.655-258.88c.462.21 1.515-.08 1.81-.478 1.601-2.125 1.961-5.06 4.378-6.699.407-.266.696-1.407.464-1.783-1.778-2.824-2.795-6.105-5.171-8.567-.482-.511-2.43-.55-2.857-.013-1.26 1.59-2.577 3.151-3.667 4.863-.516.815-.568 1.927-.743 2.592-.083 5.339 1.479 8.05 5.786 10.084Zm-10.792-21.985c1.476-.185 2.297-1.243 1.966-2.08-.373-.99-1.147-1.418-2.164-1.348-1.007.066-1.977 1.266-1.507 2.024.42.66 1.285 1.07 1.705 1.404Zm170.28 148.228c-.276.721.013 1.282.72 1.606.24-.22.592-.387.686-.653.281-.72.005-1.326-.712-1.556-.172-.049-.589.337-.694.603Zm-143.976 94.357c-.561.279-1.158.511-1.682.874-.104.068.005.71.196.906.889.945 1.781 1.918 2.813 2.689.389.3 1.184.208 1.745.093.829-.198.884-1.678.182-2.584-.829-1.08-1.76-1.978-3.254-1.978ZM195.424 60.555c-.537.324-1.199.955-1.246 1.488-.266 3.07-.524 6.233.899 9.07.561 1.134 1.763 2.478 2.858 2.69 3.124.581 6.112-.142 8.62-2.293.65-.543.926-1.942.491-2.787a6.99 6.99 0 0 0-.514-.898c-.402-.559-.834-1.084-1.205-1.66-1.056-1.588-1.043-1.588.428-3.47 1.632-2.093 1.796-3.224.764-4.416-1.369-1.564-2.926-1.363-4.605-.583-.926.429-1.935.677-2.902 1.01l.055-.049c-.016.01-.021 0-.026.01-.008 0-.013.011-.013.011-1.202.621-2.457 1.17-3.604 1.877Zm169.378 157.662c-.034-.154-.44-.222-.678-.318-.216.133-.503.224-.638.425-.053.079.179.522.338.556.717.172 1.109-.104.978-.663Zm-8.75 8.62c.18-.011.318-.465.532-.838-.118-.846-.126-1.849-.449-2.731-.177-.47-.918-1.013-1.366-1-.511.006-1.189.554-1.416 1.045-.602 1.302-.243 2.581.876 3.43.409.315 1.223.164 1.823.094Zm-30.638.746c2.707 1.731 7.311-.039 8.625-3.19.128-.29.042-.676.06-1.023-.675-2.454-2.448-4.056-4.44-5.406-.501-.35-1.34-.478-1.948-.35-4.081.828-5.496 3.503-4 7.57.324.906.936 1.908 1.703 2.399Zm-104.927 11.013c-2.735 3.08-2.297 7.223-4.307 10.47-1.03 1.686-.392 3.266.988 4.626.725.718 1.35 1.592 1.843 2.49 1.205 2.127.483 5.153-1.663 6.296-1.536.822-3.223 1.326-3.617 3.31-.425 2.073-.391 4.164.467 6.121.837 1.942 2.182 3.571 4.005 4.665.845.514 1.948.882 2.899.814 1.362-.096 2.655-.788 4.016-1.012 2.271-.381 4.13.631 5.437 2.372.797 1.06 1.543 2.41 1.673 3.702.355 3.373 2.511 4.688 5.385 5.479 1.632.465 3.332.882 4.863 1.629 1.606.767 3.152 1.245 4.964.976 1.359-.185 2.762-.036 4.144-.036 0 .081 0 .164-.008.232 2.083 0 4.174.081 6.229-.044.55-.05 1.27-.643 1.531-1.165.456-.918.584-1.989.881-2.968.467-1.534-.083-2.824-1.259-3.638-1.993-1.373-4.214-2.41-6.224-3.77-5.672-3.827-9.442-9.141-11.46-15.633-.921-2.978-1.533-6.048-2.224-9.1-.989-4.497.195-8.977.232-13.48.01-2.224 1.387-3.829 2.44-5.617.681-1.162 1.142-2.548 1.356-3.884.902-5.806 1.773-11.624 2.438-17.448.295-2.571 1.053-4.973 3.184-6.225 3.204-1.898 5.11-4.665 6.344-7.923 1.619-4.27 4.505-7.758 6.85-11.553 2.182-3.501 4.782-6.698 7.999-9.505 3.666-3.184 7.168-6.465 11.491-8.823 1.8-.976 3.205-2.628 4.931-3.771 3.697-2.465 4.847-5.673 3.262-9.875-.36-.966-.621-1.976-.827-3-.299-1.456-1.105-2.487-2.297-3.317a35.583 35.583 0 0 1-2.474-1.896c-2.467-2.07-5.301-1.918-7.797-.582-3.702 1.979-7.024 4.516-7.619 9.228-.37 3.012-2.393 5.093-4.766 6.466-3.262 1.874-6.607 4.257-10.459 4.257-6.396 0-10.109 3.689-13.407 8.364-.193.29-.42.558-.569.872-.777 1.722-2.213 2.558-3.911 3.127-1.358.477-2.286 1.339-2.636 2.887-.388 1.663-.858 3.396-1.718 4.837-.967 1.603-1.327 3.08-.879 4.897.117.491-.383 1.187-.709 1.723-.162.266-.561.407-.892.522-1.768.603-2.73 2.049-3.692 3.5-.884 1.313-2.214 1.405-3.627 1.514-.892.071-1.622 1.694-1.215 2.383 1.223 2.081 3.15 4.033 3.544 6.268.466 2.605-.598 5.456-.606 8.189-.005 1.84-.479 3.375-1.337 4.91a327.537 327.537 0 0 0-3.497 6.364c-.8 1.501-.438 3.056.989 4.607 2.565 2.806 3.155 4.098 1.311 6.168Zm534.191-159.02c-.754-.326-2.115-.107-2.782.415-.668.512-1.2 1.757-1.119 2.608.271 2.91 1.901 4.978 4.587 6.197.756.337 2.203-.115 2.571-.99.385-.907.641-1.894.868-2.594-.321-2.88-1.867-4.625-4.125-5.636Zm-49.099-22.195c1.617 2.231 3.549 4.085 3.653 7.12.034.802 1.109 1.776 1.938 2.29 1.749 1.073 3.577 2.232 5.522 2.733 2.464.64 4.454 1.77 6.157 3.57 1.533 1.632 3.368 2.155 5.632 1.85 1.674-.218 3.449.21 5.126-.048.847-.125 1.854-.987 2.294-1.785.793-1.447.864-3.11 2.642-4.166 1.382-.818 2.276-2.527 3.257-3.932 1.947-2.803 4.281-4.409 7.918-3.406.843.23 2.034-.199 2.882-.666.878-.475 1.608-1.302 2.263-2.093.386-.502.72-1.245.675-1.864-.068-1.28.806-1.754 1.601-2.36.553-.423 1.137-.85 1.497-1.41.563-.848 1.207-1.78 1.358-2.756.214-1.323.232-2.77-.088-4.07-.397-1.631-1.231-3.155-1.878-4.737 1.007-3.258-.962-4.339-3.601-4.874-4.393-.908-8.776-1.79-13.17-2.665-.336-.07-.743-.14-1.017-.013-.876.433-1.841.828-2.49 1.49-.331.324-.276 1.405.021 1.883 1.862 3.012 2.944 6.202 2.79 9.794-.044.864.216 1.735.409 2.605.118.073.251.13.363.198.109.256.258.465.386.71-.217-.154-.42-.313-.65-.452l-.099-.454c-.495-.266-1.037-.511-1.314-.926-2.12-3.167-4.135-6.435-4.435-10.356-.188-2.581-1.844-3.547-3.935-4.095-1.997-.535-4.034-.977-6.07-1.256-.519-.068-1.39.465-1.653.966-.66 1.19-1.338 2.48-1.473 3.79-.193 1.934 0 3.91.06 5.863.088.037.187.06.281.097.284.404.574.814.918 1.138-.396-.293-.785-.585-1.186-.885 0-.115-.008-.238-.013-.35-2.751-.976-5.75-1.128-7.922-3.8-1.718-2.11-4.691-2.807-7.335-3.642-1.131-.36-2.842.624-3.269 1.895-.853 2.616-1.638 5.27-2.571 7.852-.391 1.094-.219 2.06.237 2.992 1.358 2.78 2.493 5.747 4.289 8.225Zm37.725-5.093.365.43-.6-.187c-.06-.303-.252-.47-.38-.687.203.149.344.347.615.444Zm-18.526-6.529.068.522-.277-.279c-.38-.28-.753-.556-1.129-.838.355.316.757.561 1.338.595Zm-1.126 48.903c-.79-.303-1.401-.037-1.568.79-.049.196.397.674.66.71.584.081 1.179 0 1.776-.023.057-.686-.19-1.222-.868-1.477Zm.868 1.477c0 .081.05.128.031.212.078-.027.167-.04.245-.063-.013-.058-.054-.091-.065-.149h-.211ZM129.179 389.767c.412.438.824.882 1.22 1.313.271-.154.754-.28.769-.444.092-.768-.359-1.253-1.129-1.279-.289-.013-.571.271-.86.41Zm595.615-293.48c.62 2.316 2.406 2.68 4.461 2.468.172-.013.404-.522.404-.802a1.413 1.413 0 0 0-.388-.887c-1.325-1.277-2.882-1.193-4.477-.778Zm37.174 5.224c.24.175.72.34.908.214 2.936-2.072 6.218-2.443 9.731-2.516 3.773-.081 7.546-.757 11.319-1.253 1.752-.248 2.492-2.49 1.491-4.085-1.877-3.028-4.177-5.477-7.747-6.49-1.65-.467-3.22-1.339-4.889-1.665-1.668-.326-3.428-.274-5.149-.243-1.463.026-3.531 1.686-3.838 3.083-.446 2.01-.741 4.06-1.466 8.225.024-.091-.485 1.919-.923 3.944-.052.228.3.611.563.786ZM278.216 308.53l.832-.337-.806-.363-.026.7ZM773.897 44.329c5.072 2.198 10.467 3.15 15.557 3.837 1.747-.216 3.142-.243 4.448-.59 2.826-.757 4.925-2.477 5.752-5.361.274-.922.396-2.204-.031-2.968-1.604-2.864-4.164-4.736-7.494-4.62-2.336.072-4.636 1.27-6.993 1.409-2.686.164-5.39-.326-8.097-.439-.659-.026-1.418.17-1.968.522-1.596 1.024-3.244.778-4.97.632-.842-.073-1.45 1.545-.991 2.37 1.14 2.16 2.482 4.221 4.787 5.208ZM443.258 53.91c.339.922.305 1.98.25 1.655-.166 2.384-.471 3.454-.268 4.428.777 3.738 1.588 7.46 2.631 11.12.761 2.667 1.773 5.307 4.028 7.131.444.363 1.304.467 1.886.329.625-.164 1.275-.632 1.671-1.154 4.023-5.364 4.125-5.26 11.319-9.969 2.005-1.33 3.872-2.947 5.554-4.677 1.178-1.212 2.078-2.773 2.795-4.315.402-.849.493-2.117.177-2.99-.597-1.61-1.684-3.025-2.417-4.583-1.098-2.328-2.725-4.062-5.277-4.607-3.486-.734-6.237-2.992-9.416-4.292-3.16-1.294-6.547-1.897-9.311-4.176-.97-.788-2.579-.927-3.93-1.125-.555-.07-1.533.337-1.757.801-1.512 3.114-3.098 6.19-.881 9.781 1.259 2.052 2.075 4.388 2.946 6.643Zm6.289 60.816a1.26 1.26 0 0 0-.61.734c-.216.707.149 1.232.942 1.253.737.036 1.105-.452 1.069-1.209-.183-.827-.663-1.127-1.401-.778Zm5.627-3.631.827.152-.569-.405-.357-.245.099.498Zm-15.543-2.733c3.1.233 5.28-1.55 5.632-4.479-.326-.543-.597-1.151-1.006-1.629-.133-.151-.699-.128-.936.024-1.393.929-2.806 1.848-4.083 2.915-.446.376-.715 1.225-.665 1.817.044.504.654 1.318 1.058 1.352Zm52.564-48.033c.258-.148.386-.522.574-.788-.303-.566-.493-1.498-.934-1.64-2.529-.78-5.272 1.188-7.809-.474-.058-.047-.532.407-.668.697-.13.269-.221.744-.073.921 2.258 2.804 5.698 3.302 8.91 1.284Zm83.241 77.16c-.152 2.511 1.35 3.732 3.473 4.375.975.287 2.013.394 2.998.579.371 0 .707-.01 1.041.016 2.719.125 4.443-1.851 4.156-4.553-.24-2.104-1.02-3.944-2.216-5.656-.746-1.055-2.305-1.721-3.599-1.253a35.474 35.474 0 0 0-4.646 2.049c-1.351.705-1.849 1.9-1.361 3.438.107.321.164.678.154 1.005Zm123.979-71.722c.165.211.808.323.962.185.457-.381.775-.927 1.265-1.584-.185-.857-.344-1.856-.657-2.825-.887-2.722-2.36-4.93-5.332-5.792-.639-.183-1.197-.653-1.771-1.044-.717-.504-1.345-.468-1.791.263-.151.243-.175.76-.016.969 2.42 3.302 4.874 6.58 7.34 9.828Zm-36.452 61.403c.206.016.441-.337.675-.535-.214-.222-.391-.619-.597-.627-.214-.013-.448.337-.675.533.203.224.391.608.597.629ZM506.111 79.446c.642-.848.227-1.932-.837-2.511-.707-.381-1.338-.154-1.648.629-.427 1.08-.063 2.221.777 2.652.587-.245 1.377-.34 1.708-.77Zm606.219 406.961c-.19-.071-.49.112-.75.169.05.269-.02.64.13.781.6.608 1.06.467 1.14-.334 0-.196-.28-.533-.52-.616Zm-28.6-198.306c-.18.087-.37.144-.57.212 0 .034-.01.081-.02.117.11.045.2.105.29.149.1-.149.21-.313.3-.478ZM1120 486.629c-.58-.013-1.19.112-1.76.3-.29.094-.63.363-.75.639-1.27 2.744-2.62 5.456-3.63 8.283-.25.684.56 1.788 1 2.639.1.198.62.199.95.287.55-.336 1.24-.553 1.63-1.033 2.5-3.002 3.52-6.482 3.15-10.353-.03-.285-.38-.762-.59-.762Zm-35.91-199.086c-.12.185-.23.376-.36.558.07-.023.14-.023.19-.052.13-.091.13-.329.17-.506ZM280.438 676.779l.049-.146c-.154-.253-.383-.438-.55-.684.188.259.323.561.501.83Zm668.663-48.86c.086-.099.151-.206.247-.3-.096.094-.159.198-.247.292v.008ZM199.035 58.67c.587-.825 1.309-1.605 1.69-2.514.696-1.675-.441-3.57-2.159-3.952-1.416-.3-2.696-.01-3.901.755-1.575.99-1.681 2.978-.281 4.351 1.324 1.305 2.842 1.835 4.651 1.36Zm998.775 87.183c-1.46-.141-2.1-1.694-2.46-3.067-.17-.653-.07-1.383-.04-2.073.16-3.328-.53-6.084-3.77-7.932-1.41-.802-2.33-2.501-3.41-3.838-1.27-1.584-1.4-2.26.13-3.432 2.69-2.049 3.82-4.85 4.68-7.899.3-1.097.17-2.117-.52-2.898-2.93-3.289-4.02-7.178-4.02-11.503 0-1.407-.63-1.898-1.96-1.898-.68 0-1.41.41-2.04.271-3.67-.856-7.22-2.234-11.02-2.657-1.28-.128-2.44-1.253-3.68-1.885-2.13-1.09-4.09-.64-5.7.969-2.18 2.187-4.04 4.722-7.39 5.338-.54.091-.95.945-1.39 1.475-.9 1.13-1.05 2.955-.27 3.86 1.57 1.849 3.31 3.558 4.73 5.511.82 1.12.92 2.655.24 3.973-.28.532-.96.877-1.52 1.216-.22.131-.82.05-.89-.102-2.29-5.22-7.52-8.107-10.17-13.041-3.73-3.13-7.38-6.28-12.91-5.129-1.96.41-4.26.467-6.12-.165-3.07-1.026-6.1-.966-9.23-1.013-3.81-.057-7.54-.35-11.26-1.628-3.24-1.1-6.82-1.478-10.21-.068-2.6 1.08-4.59.28-6.64-1.37-1.9-1.549-4.2-2.42-6.68-2.702-7.54-.849-14.91-3.245-22.62-2.558-1.04.093-2.14.033-3.11-.243-5.02-1.478-9.71.044-14.14 1.931-3.19 1.36-6.36 3.292-9.73 3.456-3.82.199-7.43 1.64-11.28 1.454-1.69-.099-3.41.311-5.11.56-.86.124-1.08.693-.99 1.571.32 3.44 3.73 5.93 2.97 9.781-.12.558 1.16 1.801 2.01 2.062 2.69.832 5.36 1.634 7.28 3.811 2.06 2.339 4 4.769 5.95 7.202.79.971.67 3.022-.22 3.884-1.01.953-2.04 1.887-3.15 2.723-1.71 1.292-3.7 1.31-4.52-.327-2.13-4.296-5.73-5.792-10.13-6.168-.7-.055-1.44-.115-2.03-.42-.89-.478-1.85-1.011-2.46-1.778-.85-1.073-1.42-2.373-2.1-3.584-.41-.744-.22-1.305.35-1.83 2.26-2.07 1.71-4.359.34-6.581-1.5-2.406-3.95-2.594-6.45-2.388-1.37.11-3.5 2.25-3.51 3.482-.05 2.757.04 5.529-.05 8.283-.05 1.814-1.44 3.383-3.117 3.673-3.411.579-6.926.814-10.216 1.769-2.404.708-4.631 1.293-7.1.596-.605-.165-1.424-.118-1.974.172-3.979 2.093-7.992 4.143-11.846 6.458-5.52 3.292-11.384 4.954-17.806 4.325-1.387-.141-2.54-1.02-3.093-2.438-.135-.331-.326-.645-.396-.968-1.283-6.563-5.019-11.319-10.704-14.67-.584-.361-1.004-.99-1.575-1.363-6.085-3.963-12.335-6.5-19.449-2.373-1.163.689-2.604.885-3.903 1.399-5.494 2.162-10.824 4.642-15.598 8.215-2.495 1.869-5.157 3.535-7.809 5.174-1.823 1.138-4.347.553-5.244-1.478-1.053-2.406-2.685-3.962-5.016-4.965a75.777 75.777 0 0 1-4.728-2.177c-1.851-.931-3.225-.258-4.683.953-1.583 1.303-1.729 1.279-3.298.071-1.14-.883-2.227-1.697-3.729-1.219-1.061.326-2.203.381-2.907-.361-1.554-1.628-3.544-1.978-5.541-2.5-.775-.196-.775-.872-.31-1.66 1.762-3.122 1.736-4.647.007-6.271-.263-.232-.456-.558-.743-.73-3.929-2.376-8.015-4.164-12.779-2.971-2.018.501-4.081.885-6.049 1.571-1.267.442-2.762 1.06-3.523 2.057-2.248 2.968-4.566 3.269-8.161 2.235-3.552-1.023-7.575-.757-11.353-.653-4.516.131-9.017.603-13.507 1.107-4.49.501-8.92 1.177-13.392-.256-.769-.256-1.971.444-2.805.969-.48.287-.697 1.112-.866 1.751-.055.206.289.721.553.817 1.588.653 3.243 1.138 4.803 1.859.571.256.978.945 1.343 1.501.357.543-.514 1.989-1.492 2.417-.954.405-2.021.585-2.91 1.094-2 1.127-2.735 3.012-2.686 5.246.032 1.757 1.442 3.373 3.244 3.49 1.343.105 2.704-.036 4.055-.065.026-.109.031-.203.062-.295l.128-.522-.133.817h-.057c-.352 1.647-.238 3.24.735 4.683 1.562 2.305 3.249 4.49 5.616 6.085.95.639.916 1.676.233 2.743-.637.979-1.76 1.522-2.569.964-2.193-1.509-4.349-1.987-6.704-.382-1.428.977-2.99 1.768-4.333 2.851-1.742 1.417-3.554 1.919-5.778 1.511-1.693-.313-3.487-.522-5.158-.276-2.464.347-4.878 1.37-5.59 4.014-.775 2.812-2.355 3.757-5.16 4.023-5.15.501-9.601-.694-13.384-4.265-.233-.225-.558-.431-.864-.491-.281-.044-.68.034-.907.211-.248.199-.493.556-.506.862-.109 3.208.871 6.152 2.149 9.034 1.7 3.83 3.199 7.701 3.778 11.877.159 1.138-.516 1.851-1.846 1.71-2.044-.232-4.013-.454-6.047-1.117-6.19-1.989-10.195-6.931-15.251-10.436-.172-.128.013-.684-.091-1-.853-2.733-.9-2.746-3.205-1.352-2.135 1.294-3.103 1.305-4.568-.209-.636-.65-.918-1.652-1.34-2.522-.086.045-.175.094-.269.141a2.4 2.4 0 0 1-.24-.222c-.779.084-1.538.165-2.018-.767.264-.115.655-.405.785-.316.441.316.827.713 1.233 1.083.149-.01.305-.018.454-.034.026.034.039.081.055.118 1.124-.572 2.307-1.086 3.329-1.817.446-.324.738-1.235.684-1.827-.266-2.522-1.893-4.433-3.46-6.21-1.153-1.303-3.035-1.428-4.819-1.509-1.491-.083-1.83-.551-1.434-1.968.37-1.35.928-2.603-.245-3.78-2.668-2.689-5.272-5.445-8.07-8.003-2.144-1.968-11.578-4.655-14.657-4.399-.673.058-1.478.107-1.992.478-1.45 1.049-2.662 1.365-4.599.78-4.318-1.292-8.856-1.688-13.325-.629-1.28.303-2.495 1.128-3.585 1.919-2.128 1.571-2.613 3.344-1.478 5.377 1.337 2.407 2.855 4.709 4.284 7.059.464.757.12 2.493-.61 2.79-4.125 1.699-8.203 3.561-12.428 4.981-2.685.911-5.374.595-7.718-1.595-1.567-1.449-1.749-1.206-3.46-.008-4.725 3.362-8.941 1.963-9.926-3.292-.128-.676-.053-1.383-.193-2.049-.347-1.639-2.271-2.788-3.979-2.44-5.398 1.117-10.821 2.184-16.219 3.383-2.007.443-4.054.976-5.89 1.863-2.159 1.044-4.128 2.524-6.169 3.814-2.146-1.036-4.292-2.086-6.443-3.085-.24-.102-.545-.045-.85-.034-.136.595-.24 1.213-.449 1.783-1.358 3.735-5.434 4.954-8.093 2.338-.949-.932-1.617-2.166-2.287-3.336-.563-.999-1.312-1.605-2.36-1.057-1.585.815-3.111 1.057-4.91.789-1.911-.28-3.23.905-3.791 2.733a12.869 12.869 0 0 0-.597 3.025c-.084 1.488.597 2.736 1.953 3.302 1.147.488 2.414.676 3.635.955.018-.057.031-.13.049-.175.097-.065.193-.138.298-.206.036-.49.044-.981.252-1.386.222-.454.822-.723 1.242-1.06.062.259.229.523.177.757-.044.303-.204.643-.425.828-.389.326-.832.579-1.246.861-.016.152-.019.301-.047.436-.092-.018-.196-.031-.3-.055-.266.943-.329 2.13-.955 2.673-1.895 1.616-3.324 3.584-4.477 5.691-2.271 4.103-5.864 5.651-10.263 6.035-1.59.141-2.258-.35-1.582-1.639.998-1.908 1.374-3.887 1.528-5.983.177-2.428 3.123-2.616 3.887-4.589.371-.969 1.132-2.083.905-2.924-.899-3.317.172-6.163 1.559-9.013.642-1.269 1.083-2.587.759-4.005-.339-1.404-.164-2.662.428-3.999 1.411-3.163 3.079-6.291 3.901-9.629.824-3.326 1.087-6.787 2.367-10.076 1.147-2.978.746-6.202-.563-9.155-1.395-3.127-3.591-5.896-4.206-9.397-.112-.629-.581-1.464-1.103-1.697-3.723-1.618-5.543-5.129-8.138-7.865-.74-.767-1.888-.7-2.618.126-.623.71-.566 3.388-2.326 1.073-1.986-2.592-4.654-4.109-7.433-5.55-2.451-1.269-5.15-2.153-7.377-3.72-2.31-1.631-4.37-1.955-6.675-.433-4.078 2.71-8.651 4.315-13.212 5.957-.975.35-1.58 1.629-1.181 2.535.422.952 1.077 1.803 1.447 2.756.704 1.83.125 3.203-1.682 4.388-1.979 1.303-4.297.29-4.573-2.083-.193-1.71-.068-3.443-.23-5.156-.148-1.707-.352-3.427-.738-5.092-.349-1.561-2.495-2.898-4.023-2.618-1.358.253-2.678.662-4.002 1.036-2.149.61-4.06.018-6.016-.864-1.465-.65-2.305-1.603-1.971-3.15.72-3.387-1.393-5.096-3.705-6.76-3.909.476-7.335-1.85-11.105-1.944-.9-.02-1.888.71-2.717 1.274-.551.358-1.028.976-1.315 1.59-2.743 5.758-4.007 11.921-3.481 18.183.326 3.898.115 8.455 4.608 10.909 2.075 1.141 1.447 3.769 2.172 5.68.865 2.289.633 2.592-1.166 2.788-2.412.258-4.873.198-7.071 1.477-.988.57-1.486 1.374-1.319 2.527.151 1 .74 2.193.396 2.963-.994 2.198-2.318 4.258-3.601 6.294-.344.535-1.012.952-1.625 1.195a115.616 115.616 0 0 1-6.696 2.386c-.565.185-.941-.454-.73-1.35.3-1.336.785-2.631 1.096-3.957.302-1.313-1.064-2.571-2.553-2.467-2.177.175-4.261.692-4.806 3.107-.352 1.535-.787 2.527-2.472 2.678-1.363.13-2.73.522-4.114.595-2.326.128-3.75 1.663-5.173 3.153-1.789 1.906-1.867 3.023.039 5.386.808.999.735 2.166-.018 2.628-2.637 1.632-5.195 3.433-7.966 4.78-2.506 1.211-4.947 2.211-6.67 4.657-1.575 2.195-4.143 3.568-5.001 6.452-.608 2.023-1.93 3.864-4.052 4.49-2.855.841-2.141 4.177-4.206 5.479-1.233.791-1.76 2.047-2.381 3.302-1.186 2.433-.349 4.691.144 7.077.313 1.522 1.176 2.219 2.305 3.096 2.432 1.913 4.74 3.837 7.814 4.868 3.244 1.094 6.48 2.527 8.824 5.257.386.457.602 1.293.493 1.888-.099.603-.558 1.326-1.08 1.639-1.471.885-1.64-.439-1.989-1.36-.397-1.047-.986-1.885-2.251-1.697-1.35.196-3.04.092-3.979.864-3.256 2.731-7.165 3.942-10.927 5.639-3.823 1.712-7.698 3.096-11.682 4.301-1.338.397-2.675.734-3.963 1.235-3.739 1.454-4.832 4.503-2.882 8.296.778 1.522 1.727 3.023 2.848 4.323 1.611 1.882 2.871 3.839 3.322 6.366.221 1.324.798 2.699 1.567 3.801.748 1.081 1.825 2.13 2.998 2.712 2.561 1.292 5.448.77 8.198.968 2.235 2.117 4.428 4.268 6.722 6.331.472.417 1.281.464 1.919.73 1.586.65 3.192 1.293 4.754 2.013 1.296.606 2.386 1.548 2.644 2.999.816 4.49 2.154 8.724 4.816 12.506.683.964-.091 1.906-1.043 2.488-1.145.7-2.31 1.397-3.473 2.096.062.092.12.186.18.28-.162.258-.35.501-.464.767-.097.222-.131.491-.181.733.133-.582.272-1.166.407-1.746l.055-.031c-.289-.512-.55-1.049-.913-1.491-2.93-3.547-3.728-7.327-1.441-11.54.305-.556.226-1.347.305-2.033.208-1.956-1.823-4.237-3.789-4.096a39.74 39.74 0 0 0-5.103.733c-3.251.676-6.133.246-8.719-2.072-1.531-1.373-3.223-2.686-5.059-3.582-3.082-1.508-6.247-3.106-9.556-3.86-3.377-.77-6.563-1.976-9.864-2.924-.816-.232-2.135.235-2.821.841-1.58 1.383-2.569 3.255-2.587 5.419 0 .558.498 1.373.991 1.618.907.449 1.987.556 2.998.799-.093-.081-.185-.175-.265-.243l.412-.572-.147.815c.639.605 1.26 1.279 2.021 1.676.887.475 2.011.511 2.973.895 1.207.478 1.679 2.323 1.024 3.527-.558 1.054-1.561 1.522-2.573 1.3-1.301-.29-2.537-.953-3.781-1.512-.941-.417-1.815-1.203-2.79-1.315-1.416-.186-2.795.545-3.593 1.662-.54.744-.939 2.117-.618 2.851 1.778 3.895 4.388 6.954 8.759 8.277 2.354.716 4.633 1.389 7.097 1.491 1.001.047 2 .441 2.957.759.279.092.54.455.647.755.255.733-.212 1.315-.934.989-1.609-.715-3.22-1.396-4.996-1.107-3.126.528-6.237.188-9.347-.081-1.794-.148-3.354-.811-4.222-2.558-.318-.616-.561-1.279-.923-1.863-2.222-3.532-4.229-7.059-4.477-11.465-.185-3.514-1.836-6.693-3.958-9.502-.597-.799-1.51-1.365-2.334-1.968-.182-.141-.646-.11-.871.021-.271.164-.649.595-.6.793.817 2.629 1.753 5.234 2.532 7.873.608 2.096.381 4.14-.784 6.012-.378.595-.699 1.222-1.153 1.746-1.65 1.955-2.631 3.976-1.763 6.677.756 2.303-.74 5.044.791 7.121 1.418 1.906 3.405 3.42 5.167 5.083 1.257 1.177 2.501 2.373 3.839 3.479 1.992 1.663 3.022 3.718 3.079 6.331.044 2.764.052 5.497.477 8.287.814 5.341 4.12 9.492 6.115 14.253.568 1.363 2.08 1.733 3.53 1.639 2.829-.175 5.398-.71 7.369-3.174 2.193-2.754 4.925-1.796 7.522-.467.29.151.65.475.671.744.018.232-.386.535-.655.733-2.772 2.07-5.643 4.036-8.313 6.234-2.464 2.036-2.8 6.084-.863 8.504 1.09 1.35 2.459 2.477 3.471 3.871 1.497 2.06 2.19 4.49 1.225 6.91-1.316 3.292-1.867 6.586-1.749 10.144.047 1.629-.535 3.511-1.424 4.91-2.041 3.208-4.48 6.142-5.134 10.071-.073.396-1.139.952-1.695.911-4.133-.413-8.237-.922-12.362-1.467-.631-.087-1.624-.41-1.734-.818-.253-.908-.114-1.931-.109-2.92-.042-.019-.089-.047-.131-.071-.745-.021-.821-.243-.224-.639l.365.569c0 .049-.01.094-.01.141.889.443 1.757.939 2.67 1.305 3.567 1.407 6.127.323 7.533-3.062 2.552-6.15 3.788-12.629 4.891-19.134.165-.963 0-2.175-.482-3.012-1.431-2.522-2.065-5.072-1.575-7.991.318-1.85-.633-3.346-2.146-4.44-1.405-1.013-2.878-1.958-4.276-2.984-2.013-1.464-3.413-3.39-4.227-5.792-2.678-7.886-5.697-15.665-8.078-23.647-1.455-4.887-3.801-8.794-7.958-11.715-2.114-1.478-3.212-3.571-3.181-6.221.065-7.003-1.066-13.842-2.824-20.59-.349-1.394-1.267-2.524-2.636-3.025-5.28-1.903-10.571-3.431-16.242-1.41-1.215.444-2.798-.232-4.101.083-.806.196-1.802 1.222-1.977 2.037-.349 1.66-.315 3.44-.26 5.16.203 5.563.511 11.107.758 16.67.128 2.85-.365 5.526-2.339 7.758-2.198 2.49-2.886 5.377-2.703 8.69.14 2.224.365 4.072 2.38 5.398 1.771 1.161 3.463 2.806 3.831 4.792.529 2.955 2.742 5.748 1.165 9.014-.261.561-.245 1.477.039 2.015a130.872 130.872 0 0 0 4.686 8.069c.138.235 1.267.096 1.736-.196 1.68-1.026 3.294-1.253 4.66.326 2.722 3.177 5.465 6.257 9.71 7.505.449.138.902 1.125.923 1.731.076 1.725-.031 3.443-.159 5.168-.081 1.102-1.413 1.694-2.336 1.091-2.029-1.323-4.034-2.707-6.07-4.035-1.437-.956-2.809-2.07-4.368-2.757-2.529-1.104-5.22-1.858-7.788-2.887-2.238-.882-4.412-1.942-6.621-2.918-3.272.639-4.764-2.477-7.241-3.574-4.899-2.161-9.783-3.534-15.147-2.558-.68.13-1.368.279-2.052.292-5.986.008-11.694-.72-16.536-4.876-2.349-2.012-5.095-3.571-7.666-5.317-.675-.465-2.242.13-2.704.955-.169.303-.391.588-.501.911-.941 2.976-.02 5.419 2.386 7.359 2.686 2.177 6.644 2.2 8.764 5.351.305.454 1.244.559 1.919.676 1.455.243 2.618 1.013 3.497 2.107 1.966 2.417 3.846 4.894 5.739 7.374.876 1.162.74 2.811-.365 3.756-2.047 1.778-4.577 3.091-5.294 6.038-.052.196-.63.473-.763.405-.532-.327-1.244-.69-1.442-1.212-.48-1.266-.551-2.696-1.054-3.952-.68-1.689-2.879-2.662-4.271-2.028-2.477 1.13-4.644 3.086-7.661 2.699-.258-.018-.727.282-.818.538-1.077 2.712-3.231 3.312-5.867 3.143-2.576-.162-5.111.65-6.607 2.508-1.88 2.342-4.652 2.806-6.871 4.341-.694.491-1.945.173-2.952.222-.013-.642-.114-1.302-.013-1.931.506-2.908-.55-5.234-2.414-7.304-2.287-.199-4.055.37-4.811 2.858-.159.514-.892 1.237-1.33 1.209-2.128-.068-2.607 2.119-4.075 2.772-1.56.699-3.314.979-4.986 1.396-2.459.614-4.252 2.06-5.903 3.989-3.807 4.493-7.658 8.972-12.711 12.143-1.283.802-1.87 1.924-2.055 3.386-.209 1.723-.475 3.443-.863 5.132-.149.611-.636 1.229-1.098 1.694-2.793 2.757-8.362 3.096-10.417.741-1.374-1.558-2.91-2.962-4.344-4.471-1.298-1.373-1.311-3.49.123-4.607 1.611-1.269 3.423-2.305 5.129-3.446 1.037-.694 1.288-2.65.386-3.712-1.333-1.579-2.895-2.97-4.084-4.646-2.258-3.216-5.397-4.482-9.037-3.77-2.795.554-5.434.441-8.154-.06-.258-.047-.628.212-.842.434-.506.501-.524 1.245.144 1.743 4.995 3.736 6.435 8.768 5.59 14.717-.183 1.368-.316 2.765-.287 4.151.018 1.433.501 2.85 1.851 3.477 2.59 1.195 3.364 3.352 3.382 5.92.018 1.373-.122 2.757-.266 4.13-.151 1.339-1.71 2.654-2.878 2.42-2.042-.408-4.091-.778-6.107-1.314-2.946-.77-5.4-.511-7.306 2.279-.944 1.399-2.203 2.707-3.593 3.663-2.063 1.433-3.413 3.351-4.834 5.34-3.036 4.276-5.028 5.908.299 11.606.454.488.785 1.141 1.069 1.757.663 1.42.107 2.709-.649 3.908-.787 1.255-2.464 1.962-3.546 1.383-4.899-2.558-10.513-3.594-14.917-7.189-.751-.603-1.953-.65-2.947-.94-.884-.258-2.203.337-2.563 1.219-.537 1.282-1.019 2.582-1.507 3.874-.568 1.444-.169 2.801.761 3.874 2.058 2.383 4.311 4.524 7.799 4.571.652.007 1.314.381 1.912.697 1.069.522 1.306 1.558 1.295 2.615-.023 1.642-1.89 3.328-3.449 3.088-3.426-.548-6.868-1.013-9.223-4.098-1.343-1.757-3.483-2.117-5.504-2.639-1.442-.36-2.48-1.347-2.821-2.757-.751-3.059-1.685-5.993-3.513-8.611-1.262-1.804-1.11-3.79-.85-5.952.6-5.189-.98-7.818-5.718-9.747-1.955-.796-3.741-1.477-5.157-3.19-1.447-1.743-3.872-2.605-4.764-4.923-.12 0-.243-.023-.381-.023-.026-.209-.159-.316-.214-.486-.623-.279-1.092-.71-1.379-1.328-.183-.058-.292-.199-.508-.212l-.068-.532.323.289c.042.199.18.29.256.452.701.198 1.152.645 1.379 1.329.162.07.284.185.461.242.024.105.11.165.133.267 3.072-.047 5.831 1.044 8.634 2.153 7.408 2.911 15.04 4.991 22.888 6.315 5.995 1.015 11.76.185 17.285-2.266.939-.42 1.901-.942 2.589-1.676 3.366-3.618 5.935-7.721 6.482-12.749.149-1.302-.018-2.978-.743-3.991-2.164-3.047-3.736-6.664-7.559-8.351-1.525-.663-2.751-2.067-4.002-3.257-1.531-1.441-3.095-2.258-5.335-2.639-3.335-.593-6.498-2.083-9.275-4.399-2.633-2.211-5.619-4.049-8.586-5.816-8.537-5.061-10.999-5.716-20.633-5.703-1.377 0-2.743.584-4.102.571-1.705-.013-3.436-.258-5.11-.618-1.526-.327-.923-1.384-.553-2.35.396-1.057.143-2.161-.722-2.816-1.088-.825-2.35-1.441-3.59-2.057-.21-.105-.42-.092-.637-.152h-2.206c-.32.165-.647.371-.933.687-1.518 1.626-3.163 2.699-5.476 1.764-.042-.007-.073-.007-.091-.02l.062 1.78-1.108 1.535-1.888-1.024-1.455.515.17 2.232-1.367 1.963-1.966.258-2.13 2.057-.055 1.42.556 1.323-.592.107.005-.464-.01.613-1.033.256-.336-3.764.315 3.558-3.828.718L70 332.772l2.401.353-.685 5.304 2.902 5.651 2.912 1.037 2.402 4.281 4.27 3.082-3.76 9.087 2.739 3.08 7.191 17.482-1.2.167-.169 6.515 1.541 1.546-.858.336 1.197 4.962 1.888.35.683 1.885-.514 4.109 3.26 3.43-.691 3.085-.689 4.111 3.257 5.145 2.227 1.201 3.418 4.633.686 2.394-1.877 4.793-4.284 8.397-3.927 7.027-.52 2.908-3.25 1.895-4.282 3.934.855 1.034s-.902 1.618-1.776 3.291c.28-.034.556-.067.838-.091.618-.034 1.687.175 1.827.543 1.25 3.2 4.699 2.396 6.855 3.908.28.198.657.292.884.524.167.167.28.676.204.721-1.145.754-2.287 1.584-3.52 2.156-1.89.869-4.091 1.477-5.166 3.279a8.51 8.51 0 0 1-.912 1.266c.013-.011.026-.011.041-.021l1.184 2.884-.117.804-1.481.676-.683.916.336.455-.117 1.837-4.449 1.246-.688.924 1.838 5.139.107 1.024h.581l1.244.582 2.97 5.481.23.904.563.12-.11 1.148-1.36.909.338 1.827-.91 1.723.271-.528 1.156.737v1.279l-.27 1.114.773.514.519 1.627-.17 1.12 1.447 2.487 1.21 2.989 1.275 1.292.253 2.49-.005-.125.607.235 1.26.681 1.935-.916 1.833 2.744 2.046-1.026 2.17.237 1.249 2.851 2.399-1.608 2.628-.909.675 1.256 1.372.337 3.426.804 1.145 2.292-.806 2.049 1.257 2.054.232 2.399 3.314 5.257 3.645 3.655.681 2.407 2.972 1.255 3.307 2.851.117 1.607 1.71 1.024-.912 2.396s-1.706 1.94-2.055 1.94c-.336 0-4.211.117-4.211.117l-1.15-1.023-1.374 2.044.568 1.947 1.025 2.404 1.716 3.537.631 2.825 1.421.198 1.721-.848-.183-1.713 1.372-1.208 4.79 1.545 7.533-1.196 2.062 4.631 2.219 1.71-1.024 1.885 2.743 2.571 3.587-.862 1.375 1.723 1.54 2.049 2.744 5.14 2.735 3.433 1.71-1.371 3.249 1.021 1.533-.162h1.893l3.427-2.057 2.56 4.104 3.252 3.093 2.221-.864 6.853 1.71 3.937 1.2 3.77-1.2 1.706 4.63-1.541 2.572-1.547.336-.685 3.605 2.232 1.198.172 2.574-.519 3.417v2.407l-3.254.848-2.225.35-2.737 3.08-.511 4.456-1.056 1.399c.602.011 1.199-.013 1.799.06.534.055 1.056.076 1.572.115l.23-.222.578-.384-.326.64c-.159-.008-.318-.024-.482-.034-1.622 1.642-3.212 3.292-4.876 4.894-1.202 1.152-1.142 2.41-.493 3.757.47.979.696 1.968.12 2.944-1.723 2.934-3.017 6.166-6.133 8.071-.352.212-.482 1.444-.211 1.851 1.974 2.861 4.162 5.255 7.872 6.254 4.355 1.162 8.206 3.587 11.444 6.9 3.925 4.025 8.751 6.711 13.773 9.178 5.121 2.508 7.543 6.946 7.874 12.55.021.327-.018.64-.047.956l2.251 1.558 1.546 1.198 3.596.175.855-.864 1.71.352 3.257 2.219 2.222 1.023-.284-.125 6.875-1.838 1.288.347h4.704l.577.442.195-1.647 3.252-1.11 4.787 2.652 3.251.259 3.085 1.545.511-2.743-1.541-2.235-2.055-1.101.861-3.352 2.566.525 3.851 3.255 1.116 2.049 4.193.258.594-1.535 2.394-1.117 3.267-3.918c-.647-.559-1.262-1.154-1.974-1.665-4.485-3.143-7.288-7.455-8.333-12.747-.931-4.62-3.017-8.366-6.67-11.297-1.846-1.478-2.104-3.545-1.549-5.675.529-1.989 1.212-3.955 1.953-5.873.644-1.663 1.77-3.002 3.502-3.631 3.674-1.34 6.86-3.271 9.045-6.652.537-.838 1.387-1.571 2.245-2.08.013-.013.029-.024.047-.024l-3.749-3.273-2.058.235-2.738-1.141-.448-2.057 3.423.233-6.164-8.69s-2.284-1.595-3.653-1.595c-1.371 0-3.423-.919-3.423-.919l-.681 1.149-2.743-2.292-1.369-3.655-2.964-1.37 1.363-7.536-.683-6.176 3.2-3.877V578.5l2.508-1.138 3.421 3.654 1.142 3.433 5.027.232.224-3.665-2.049-6.398h5.251l.451-3.2-.915-1.36 3.429-3.665 1.366.465 1.142-3.211h2.282v-3.655l5.483 2.065-2.054 2.741 2.738-.235 3.189-2.279 3.874-2.059 2.063 2.749 2.054 1.14 2.965-1.83 2.738 2.514 3.869 2.06 3.888 2.962 2.057 1.595.686 2.746 1.369-4.103 1.372-1.608 2.497 2.295 2.293.905 1.587 1.595 2.055-1.595.689-3.43 2.748-1.589 1.822.449.908-.909 2.281-.684 1.828 3.195h2.284l.23-2.054 1.374-.235 2.957-.454 3.421.919-1.596 1.824 2.511 2.733 4.795.233 3.194 1.373 2.29-.233.226-2.513.225-1.141h1.83l2.508.684 4.796-.684-.689-7.99-2.972-.919-2.055-2.279-4.326-.919-.923-2.968 1.38-.684.91-1.827.685-1.373-.456-1.827-1.137-1.606 3.651-5.024 2.964-.455 2.97.455v-2.06l-2.756-2.047-2.049.468-4.563-.922.451-1.592 1.603.222-2.519-2.049-.685-2.979 1.83-.684 1.591-1.138 2.054 1.138 1.601-.219 1.145.684 1.142-1.373 1.828-1.827 2.498 1.827v-1.827l6.62-1.606 2.276-.684h1.609l2.506-2.278 2.284-.455 2.509-.924 1.368.924.689-2.978 2.287-.908 1.593-1.825 1.822 1.141 6.402-3.433 4.56-1.825 1.366-1.375 3.195.235-.689-2.511 2.514-.69 1.371-2.294 4.107-.452 3.875.233 4.333 1.589 2.968-1.373 2.281 4.122 2.97 3.198-.227 4.338-.685 1.138 1.142 1.373 1.83-.451 1.585.908.923-.457v-1.824l1.142-.233.459 1.141h1.137v-1.592l.454-1.141 2.049 2.279 1.15 3.43 1.369 1.141 1.366-.906-1.144-1.373 1.825-.922 3.202 1.371 2.738-.449.68 1.138-1.366 2.062-.451 2.73 2.276.233 2.743-1.595 4.782 1.36 1.142-.906-.221-1.608 2.965-1.138 3.191-1.59 1.604-2.292 1.828-2.733 2.972-2.059 4.099-.235.227 1.827-2.279 1.825 15.29 12.574 21.903 26.732 3.202-2.292v-2.049l1.593-1.373 2.047 1.593v2.278l2.287.468 2.516.911 2.511-.911 2.73 1.138 2.518-.919 2.282-.909-.462-1.822 4.334-.686 5.716 1.37 2.508 3.42 1.812 2.976 3.21.689 2.503 2.049 1.374 2.976 3.187 3.649 3.431-1.138 4.568-1.149 3.648-2.968.456 2.968 2.963 2.744 3.879 1.608-.644.522 2.929.817-.243-.885 2.287-3.203 5.246-.454 1.15-2.054 2.962-1.608.227-2.279 3.661-3.198 3.869-4.122-.227-2.73 3.651.452 2.052-2.282 10.273-2.057 3.181 2.746 6.853-.689 2.281 3.2 7.995 5.247 6.391-2.279 4.555.687 6.172.232 5.014-.232 1.601-2.744-1.828-2.049v-6.178l-3.648-2.279-2.054-4.119.683-3.887 2.743-3.652 2.745-.452-.925-2.294 2.062-2.511 5.476 2.054 7.077 3.433 6.841.686 7.075.687 1.366 5.711 5.481 5.933 7.525 3.887 7.082-1.83 5.71-3.197 8.673-.906 8.667 1.814 5.481 2.979 3.196-.23 5.703 5.709 6.85 1.373 12.779.232 5.702-2.965 5.711-2.525 3.869-.454 2.29-3.2 3.428-2.968 2.511-3.198 3.88-1.14 4.79.908 3.872 2.054 5.254-2.054h3.653l1.946 1.731 2.907.094h2.047l3.593 1.548 5.65-4.806 3.768-1.198 1.883-2.222.164-2.573-3.08-.35-.164-2.571-.521-3.77 1.374-3.417-.509-3.941-1.032-2.921 1.885-3.081.681-2.223 2.049-2.235-.167-3.255-1.885-3.594s-1.533-2.744-1.877-3.258c-.345-.509-2.227 1.201-2.227 1.201l-1.546.347-1.364-1.034 1.71-4.453 2.05-3.77 5.653-.686 2.56-1.71 3.601-1.026 3.765-.861 2.055-1.885 3.585-.339 4.104 1.201 2.749 1.884 1.535-.172 3.424 1.023.688-1.023s3.938.172 4.449.172c.513 0 1.713 1.885 1.713 1.885l3.084 2.06 2.738 2.396 2.055 2.062 1.197 4.106 2.566.35-.517 2.73 4.569 5.375 1.827 4.106 1.145-.102 2.276 4.336 3.653 2.514 1.716 5.025 1.706 1.595.338 3.195 3.14 3.432 5.306 1.024 3.598-.165 3.932 3.25 3.94-1.198 2.733 2.407 6.333 4.789h5.306l-.855 2.399 2.224 2.569-.852 4.633 5.301 5.135 3.434-.684 1.536 1.548 5.303-1.036 2.399-2.744 2.899-4.106 3.098-1.882 4.276-3.769 3.416 1.023 1.546 3.43 2.225 3.944 1.024 3.422-2.232 2.744.352 4.106.509 5.142 1.371 5.487-1.024 5.479-1.547 7.377-2.56 3.083-.177 8.562-1.192.684-2.913-2.569-2.054-4.62-5.995 2.558 4.623 10.12.167 6.853 1.713 1.373-.339 4.617v2.744l-4.289-.172-.159 3.607.016-.198.49.885 1.713 2.396.295.141c.667-.603 1.345-1.198 1.968-1.851.957-.976 1.909-1.986 2.751-3.07 1.218-1.602 1.238-4.116 3.507-4.931 2.946-1.057 4.172 1.943 6.3 2.851 2.393 1.01 4.617 1.266 7.003.141 2.227-1.05 4.167-2.389 5.737-4.365 2.633-3.291 4.782-6.946 6.159-10.817 2.218-6.2 5.908-11.83 7.074-18.437.226-1.339.727-2.78 1.556-3.837 4.305-5.513 4.741-12.107 5.333-18.625.492-5.547 2.875-10.747 2.725-16.398-.02-.989.31-2.154.87-2.968 2.41-3.513 1.6-7.306 1.22-11.086-.7-6.998-2.63-13.618-6.205-19.656-1.479-2.503-2.266-5.038-2.342-7.868-.172-5.904-.323-11.814-.417-17.727-.01-.535.425-1.08.668-1.626.281.159.667.243.821.483 2.195 3.146 4.777 5.933 7.345 8.76 2.63 2.908 2.08 7.283 3.94 10.656.83 1.524 1.63 3.059 2.42 4.607 1.9 3.756 3.34 7.654 3.51 11.909.02.702.03 1.42.22 2.072 1.32 4.621 1.69 9.515 5.04 13.506 1.45 1.731 2.19 4.43 2.39 6.766.29 3.574 1.31 6.834 2.94 9.914 1.17 2.243 1.61 4.534 1.51 7.027-.05 1.018 0 2.089.24 3.094.59 2.451 1.84 4.513 4.28 5.5.43.172 1.65-.311 1.67-.58.14-1.349.02-2.722-.05-4.085-.09-2.222 1.01-2.817 3.28-2.558 2.28.266 3.61 1.976 5.46 2.827.29.125.88.195.97.068.35-.543.88-1.238.79-1.789-.38-2.456-1.25-5.077-3.48-6.11-4.45-2.047-5.38-7.197-9.25-9.609-1.02-2.569-2.33-5.072-2.96-7.732-.82-3.349-1.11-6.839-1.58-10.285-.14-1.023-.11-2.07-.15-3.116-.05-1.266 1.11-2.814 2.4-3 1.64-.221 3.32-.329 5-.48.44-1.744-.14-3.328-1.01-4.777-6.35-10.728-11.86-21.997-19.76-31.747-2.51-3.085-4.24-6.26-4.05-10.405.06-1.66-.29-3.579-1.11-4.993-2.73-4.762-4.03-10.423-8.78-13.921-1.754-1.308-1.981-3.61-2.993-5.401-1.064-1.895-2.907-2.945-5.082-3.117-.503-.047-1.134.616-1.614 1.081-.188.172-.253.72-.138.986a7.106 7.106 0 0 0 1.082 1.726c3.489 4.106 3.379 4.153.287 9.408-.323.561-.603 1.373-.454 1.955.363 1.313.829 2.686 1.58 3.813 2.201 3.292 2.868 7.051 3.554 10.794.105.535-.386 1.256-.751 1.791-.474.686-1.822-.149-2.091-1.509-.394-2.072-.733-4.095-2.289-5.701-.991-1.023-1.703-2.302-1.588-3.722.26-3.221-1.414-5.27-3.885-6.855-4.068-2.629-8.498-4.665-12.305-7.734-.738-.596-1.974-.794-2.96-.781-1.731 0-3.449.397-5.181.454-1.945.055-3.165.684-3.587 2.812-.475 2.372-1.249 4.711-3.223 6.353-.196.152-.897.047-.991-.13-1.39-2.744-2.714-5.534-4.089-8.293-.138-.277-.597-.708-.68-.661-.571.311-1.147.684-1.609 1.151-1.15 1.125-.91 2.452-.571 3.869.117.478-.357 1.329-.816 1.665-.605.455-1.272.079-1.559-.639-.994-2.595-1.922-5.2-2.941-7.784-.95-2.397-2.17-2.895-4.947-2.117-1.001.292-1.94.851-2.946 1.013-1.004.164-2.068.047-3.098-.045-1.867-.154-3.278-2.072-2.691-3.631.363-.968.655-1.981 1.14-2.882 1.616-3.075 3.298-6.124 4.949-9.17 1.812-3.359 3.78-6.735 4.145-10.621.673-7.022 2.989-13.472 5.948-19.844 2.023-4.346 3.81-8.956 2.795-14.036-.427-2.143.146-4.213 1.361-5.97 1.919-2.769 2.545-5.607 1.33-8.851-.503-1.374.047-2.747.801-3.942 1.705-2.715 3.767-4.56 7.243-5.26 4.031-.801 7.815-2.77 11.742-4.14 1.684-.585 3.415-.465 5.037.441 1.784 1 3.411.744 4.378-1.104 1.32-2.54 3.768-3.561 6.049-3.143 4.032.76 7.4-1.509 11.179-1.634.5-.013 1.243-.796 1.418-1.352.524-1.653.733-3.396 1.207-5.056.47-1.642 2.334-2.911 3.974-2.749 4.82.465 9.64.919 14.45 1.511.95.131 1.92.794 2.69 1.41.41.316.65 1.151.55 1.676-.13.626-.78 1.13-1.05 1.757-.68 1.527-.41 2.579.73 3.722 1.05 1.07 2.51 1.871 3.69 1.114 3.45-2.197 7.62-3.382 10.01-7.092.85-1.315 2.13-1.548 3.64-1.013 1.43.502 2.8.047 3.69-1.127 1.18-1.572 3.86-2.284 3.34-4.829-.54-2.632-2.92-2.551-4.97-2.804-.35-.044-.69-.107-1.04-.164-1.11-.16-1.9-.825-2.29-1.825-1.4-3.675-1.83-7.411-.34-11.18.27-.653.35-1.368.66-1.987 1.39-2.908 1.61-5.923 1.47-9.131-.16-4.142.24-8.282-.16-12.459-.29-2.981 1.28-5.354 4.19-6.528 2.26-.919 4.67-1.509 6.77-2.684 2.31-1.289 4.46-1.595 6.94-.793 1.47.48 2.55-.601 3.72-1.347 1.15-.734 2.28-.293 2.42.778.31 2.409.68 4.816.85 7.222.17 2.329 1.4 3.908 3.24 5.028 2 1.222 4.29 1.945 6.14 3.516.25.204 1.38-.188 1.75-.611.67-.741 1.35-1.683 1.56-2.636.82-4.085 1.71-8.181 2.13-12.318.29-2.874 1.68-4.271 4.23-5.169 1.49-.522 1.41-2.114 1.66-3.417-.22-.104-.43-.201-.62-.352-4.68-3.71-6.13-8.99-6.99-14.54-.05-.279.19-.642.36-.932 1.29-2.302 4.7-3.328 7.31-2.195.76.326 1.56 1.801 1.07 2.605-1.82 3.07-1.32 5.991.32 8.875 2.05 3.597 4.44 7.051 4.1 11.53-.05.577.51 1.279.96 1.801 2.45 2.921 1.08 6.761 2.44 9.938-.55 2.501-2.56 4.036-3.96 5.978-.21.279-.47.498-.7.78-1.36 1.652-1.91 3.422-1.84 5.701.14 5.487.62 11.058-1.73 16.341-.54 1.198-.46 2.723-.49 4.103-.12 5.216-.43 10.421-.15 15.61.22 4.373-.3 8.27-3.37 11.611-.67.72-.85 1.895-1.46 2.72-.59.801-1.42 1.454-2.2 2.094-2.79 2.218-3.02 2.383-1.3 4.489 2.21 2.723 2.46 5.675 1.81 8.829-.33 1.686-1 3.315-1.61 4.93-.88 2.339-.92 4.689-.61 7.166.52 4.2 2.44 7.946 3.55 11.937 3.73 13.279 11.38 24.448 18.69 35.798 2.07 3.188 4.3 6.283 6.21 9.588 1.2 2.094 2.28 4.503 4.06 5.965 2.56 2.109 3.95 4.769 5.22 7.585 1.3 2.838 2.38 5.769 3.52 8.688 1.22 3.153 4.12 4.398 6.71 5.99.2.118.69-.128.95-.323 2.03-1.632 2.19-4.268 3.32-6.388 2.93-5.482 2.99-11.06.87-17.04-2.24-6.291-3.04-8.121 4.09-11.632.32-.154.6-.36.89-.545 1.08-.721 1.28-1.475.61-2.551-.93-1.475-2-2.848-2.79-4.382-.62-1.212-1.23-2.598-1.26-3.921-.03-3.096.11-6.236.48-9.306.27-2.172 1.66-3.72 3.78-4.571 1.6-.634 3.16-1.37 4.64-2.234 1.36-.791 1.84-3.383.85-4.639-1.5-1.905-3.02-3.803-4.69-5.547-4.42-4.641-5.79-10.123-4.8-16.333.13-.919 1.13-1.874 2.13-1.757.69.081 1.36.374 2.04.397 2.04.094 4-2.537 3.07-4.213-1.36-2.394-3.16-4.571-4.29-7.058-1.04-2.337-2.47-3.062-4.85-2.689-.51.084-1.44-.392-1.63-.861-1.24-2.814-2.96-5.563-1.45-8.896.39-.872.34-2.076.15-3.049-.18-.987-.61-2.049-1.25-2.801-1.41-1.645-3.42-2.305-5.49-2.621-.54-.081-1.34.42-1.75.882-.61.676-1.05 1.491-1.53 2.271.03.008.04.034.06.045.07.198.12.224.18.349.22.034.4.071.4.105 0 .491-.17.36-.4-.105-.16-.02-.32-.057-.44-.08.06-.107.13-.212.2-.314-1.95-.921-3.19-2.443-4.05-4.409-1.57-3.618-1.9-7.41-1.7-11.25.31-5.988-.02-11.796-3.4-17.027-.36-.559-.43-1.311-.61-1.977-1.11-3.719.68-6.755 4.67-7.781.63-.172 1.38.162 2.07.105 2.06-.199 2.49-.452 2.83-2.326.32-1.71.51-3.386 1.72-4.793.67-.767 2.04-.94 2.53-.094.86 1.501 1.6 3.085 2.59 4.513.27.41 1.25.632 1.79.491.58-.138 1.29-.72 1.46-1.268.49-1.64.79-3.36 1.08-5.059.45-2.491 1.83-4.501 3.4-6.351 2.14-2.522 5.21-3.441 8.27-3.992 2.17-.391 3.96 1.06 5.67 2.235 1.72 1.175 3.36 2.443 5.05 3.662.57.394 1.13.896 1.77 1.083.97.29 2.02.395 3.03.51.95.109 2.01-1.092 1.97-1.95-.09-2.433-1.94-4.506-1.36-7.067.55-2.37.96-4.766 1.62-7.118.92-3.346 1.43-6.711 1.72-10.199.42-5.189 1.8-10.206 4.69-14.704 1.67-2.618 2.89-5.445 4.09-8.337 1.83-4.446 4.7-8.39 8.28-11.702 1.32-1.235 2.99-1.828 4.75-1.838 2.43-.026 4.86.256 7.28.29 1.02.008 2.11-.097 3.08-.421.54-.185 1.25-.895 1.28-1.407.24-4.56.39-9.084-3.86-12.331-1.02-.778-1.45-2.315-2.25-3.44-.58-.841-1.15-1.992-1.99-2.269-3.89-1.347-6.71-4.792-10.85-5.594.02.058.04.126.06.186l-.83.229.58-.482c.07.007.13.054.19.067-.35-1.271-.67-2.56-1.08-3.806-.83-2.521-2.27-4.314-5.27-4.012-.77.081-1.38-.104-1.71-.858-.28-.632-.4-1.329-.69-1.956-1.44-2.983-2.48-3.792-5.58-3.189-3.27.639-5.16-1.073-7.03-3.164-.68-.765-.37-2.363.55-2.655 1.3-.418 2.62-.775 3.96-1.138 3.9-1.047 5.67-3.918 6-7.63.35-4.14.36-8.317.34-12.467-.01-1.339-.47-2.736-.99-3.991-.68-1.585-1.83-2.989-2.44-4.594-.98-2.512-2.56-4-5.26-4.399-2.57-.397-4.41-1.955-5.8-4.046-.6-.869-.94-1.804-.4-2.887.46-.927.74-1.942 1.22-2.861.84-1.663 2.47-1.861 2.98-.465.89 2.405 2.48 4.065 4.77 5.258 6.2 3.247 6.76 3.082 9.84-3.621.27-.621.43-1.334.8-1.903 1.21-1.851 3.08-2.769 5.13-3.271 1.55-.383 2.58.851 3.58 1.747 1.28 1.148 2.44 2.453 3.58 3.759 1.89 2.14 4.41 2.607 6.57 1.208 2.19-1.441 4.34-1.918 6.79-1.754 1.73.104 3.46.371 5.2.316 1.35-.05 2.73-.413 4.05-.781.64-.174 1.28-.584 1.75-1.049.45-.465 1.07-1.198.98-1.72-.51-3.321-.28-7.145-5.18-7.646Zm-633.772-39.327c.178.175.363.347.545.511-.273-.078-.545-.151-.811-.245l-.388-.627.654.361ZM103.48 382.625c-.128-.045-.243-.092-.363-.141l-.297-.455.532.215c.037.208.084.253.128.381.154.057.279.117.425.175-.162.394-.3.258-.425-.175Zm-18.401 102.5c-.149.269-.477.478-.777.572-.749.222-1.283-.115-1.59-.906-.37-1-.407-1.992.409-2.804.164-.164.57-.083.863-.12 1.405.596 1.875 1.924 1.095 3.258Zm3.382 8.027-.43-.673.69.42.384.663-.644-.41Zm16.63-140.549c.305-.373.616-.746.918-1.117-.3.451-.61.906-.918 1.357.151.71-.026.796-.446.246-.021-.034.298-.324.446-.486Zm9.264 108.875c-.302.175-.578.397-.876.559-1.663.908-2.602.793-3.595-.267-3.353-3.547-5.518-7.912-8.167-11.934-.352-.522-.532-1.35-.401-1.953.519-2.446 1.642-4.536 3.945-5.769.3-.164.657-.208.991-.313.61.274 1.327.441 1.851.846 2.195 1.676 4.326 3.42 6.477 5.142.539.428 1.108.849 1.59 1.326 4.59 4.464 3.883 9.199-1.815 12.363Zm14.227-47.644c-.496-.373-1.15-.653-1.416-1.149-.24-.433-.01-1.109.005-1.665.514.206 1.155.287 1.481.663.373.428.501 1.102.634 1.684.026.094-.462.305-.704.467Zm14.27 34.986c-.378.515-1.04.943-1.663 1.107-.712.17-1.257-.36-1.299-1.127-.166-3.073-1.744-5.177-4.453-6.448-2.368-1.115-3.687-2.999-4.441-5.43-.492-1.561-.078-2.701 1.552-2.934 1.41-.198 2.672-.556 3.718-1.534.503-.468.973-.945 1.455-1.423.086.339.183.663.253 1 .897 3.782 2.946 6.946 5.048 10.136.722 1.091.905 2.547 1.345 3.829-.563 1.068-.92 2.023-1.515 2.824Zm14.315 11.765c-.268.021-.67-.258-.792-.504-.097-.221.122-.579.185-.882.292.034.675-.047.871.115.761.653.657 1.162-.264 1.271Zm11.134 25.425c-1.846.744-3.288-.01-4.537-1.279-.743-.754-1.043-1.689-.532-2.736.146-.3.279-.637.347-.96.177-.862.337-1.736.493-2.6-.057-.065-.13-.126-.19-.199-.188-.091-.373-.172-.571-.266-.454-.016-.889-.047-1.135-.279-.472-.465-.026-.606.793.13.091.068.227.105.342.152.286.013.586.013.847.047-.036.141-.055.274-.086.415 1.593 1.644 3.197 3.271 4.774 4.931.689.736.326 2.294-.545 2.644Zm88.719 32.481.266-.794.271.269-.537.525Zm92.474-235.044-.597-.36.727-.141-.13.501Zm61.476 26.769c-.138.186-.469.22-.709.327-2.159-3.874-5.395-6.934-7.974-10.505-.148-.216-.167-.858-.008-.978.478-.355 1.184-.906 1.617-.778 1.285.373 2.691.791 3.653 1.636 1.531 1.342 2.761 3.015 4.06 4.595 1.006 1.211.654 4.017-.639 5.703Zm2.962 8.499c-.261-.146-.733-.279-.743-.438-.081-.801.31-.861.991-.131-.089.186-.164.376-.248.569Zm20.599-51.167c-.798 1.127-1.862 1.433-2.12.616-.086-.267-.141-.603-.052-.849.396-1.161 1.267-1.744 2.086-1.349.224.091.326.477.477.733-.128.279-.219.593-.391.849Zm42.966 241.624c-.649.047-1.314-.011-1.951-.115-.203-.037-.357-.353-.534-.538.931-.245 1.854-.501 2.8-.686.071-.011.253.498.389.759-.243.206-.462.567-.704.58Zm3.027-383.813c-.785-.639-1.575-1.266-2.368-1.897-.14-.207-.284-.408-.419-.616.224.127.459.255.688.381.759.631 1.502 1.268 2.261 1.895l.174.584-.336-.347Zm12.61-36.187.039-.514.641.245-.68.269Zm22.958 59.472c-.083-.008-.166.013-.26.013-.423 2.153-.856 4.294-1.239 6.445-.232 1.234-1.173 1.404-2.128 1.532-2.456.35-2.636 2.234-2.93 4.035.065.061.143.094.214.154.688.69 1.368 1.387 2.059 2.081.762.629 1.508 1.248 2.258 1.872l.173.587-.339-.353c-.78-.616-1.568-1.234-2.347-1.85-.702-.695-1.393-1.397-2.081-2.081.018-.141.042-.271.063-.41-1.7-1.417-4.342-1.602-5.426-3.685-.895-1.736-1.296-3.744-1.815-5.665-.232-.872-.285-1.801-.391-2.722-.079-.058-.165-.128-.245-.175l-.491-.303.717.243c.008.07.013.151.019.235 1.03.673 1.994 1.44 3.102 1.929 2.188.986 4.459 1.347 6.571-.233 1.281-.952 2.626-1.696 4.256-1.639.013-.081.026-.164.047-.232.213-.071.346-.217.532-.303-.097.19-.251.305-.319.525Zm12.383-7.954c-2.651 1.456-5.233 2.989-7.551 5.004-.529.475-1.583.368-2.503.405-.047.08-.104.172-.167.266-.203.088-.339.243-.534.35.096-.212.247-.363.292-.606.12-.024.278-.01.406-.01.631-1.037 1.181-2.117 1.919-3.062 1.359-1.731 2.822-3.373 4.243-5.038a.093.093 0 0 1-.021-.008 6.111 6.111 0 0 1-.19-.303c-2.222-.057-4.279-.418-4.996-3.036-.102-.418.453-1.062.81-1.514.1-.128.676-.023.897.149.53.373 1.062.807 1.419 1.339.675.982 1.257 2.026 1.872 3.059.154 0 .303.019.459.019l-.248.292c.986.211 1.998.352 2.934.689.508.183.951.684 1.316 1.128.1.13-.13.749-.357.877Zm14.597-1.295-.709-.35.761-.185-.052.535Zm14.935 40.575a7.272 7.272 0 0 1-.372-.222l-.183-.394.469.128c.006.266.05.34.086.488.141.092.277.175.407.259-.206.324-.318.164-.407-.259Zm105.749 297.222c-.212.165-.712.235-.884.084-1.802-1.572-3.815-2.989-4.318-5.558-.073-.339-.026-.71.049-1.039.253-1.08.767-1.174 1.348-.219.54.885.996 1.83 1.429 2.642.934 1.143 1.823 2.187 2.641 3.281.105.138-.07.658-.265.809Zm.01-10.026c-.55-.42-.342-.713.568-.663.081 0 .154.337.23.512-.269.057-.655.268-.798.151Zm62.717 29.126c-.949 1.05-1.444 2.428-.67 3.824.639 1.191 1.134 2.052.365 3.634-2.649 5.395-6.448 9.831-11.024 13.561-2.037 1.662-3.309 3.351-3.502 5.98-.182 2.237-1.575 3.767-3.494 4.85-2.115 1.196-4.279 2.328-6.824 2.14-.639-.049-1.28-.383-1.898-.655-.044-.021.131-.637.277-.939.8-1.475 1.601-2.955 2.417-4.433-.073-.065-.154-.112-.222-.185-.782.316-.897.164-.318-.444.185.193.378.379.574.548a.369.369 0 0 0-.034.081c.975.935 2.156 1.478 3.447.841.863-.434 1.809-1.258 2.117-2.133 1.163-3.278 2.537-6.395 4.532-9.269.774-1.117 1.16-2.514 1.64-3.806.863-2.253 1.489-4.626 2.508-6.803 4.55-9.723 5.739-19.857 4.065-30.395-.091-.629.17-1.339.371-1.976.078-.292.456-.757.617-.72.639.125 1.625.256 1.797.676 1.549 3.85 2.336 7.907 2.873 12.013.318 2.409.331 4.863 1.583 7.053 1.432 2.535.597 4.568-1.197 6.557Zm58.113-342.621c-1.609.71-3.299.037-4.11-1.582-.318-.603.12-1.313.905-1.292 1.283.047 2.55.371 3.82.65.172.039.266.467.407.713-.342.524-.556 1.3-1.022 1.511Zm32.598-38.536c-.672.72-1.35 1.443-2.07 2.117-.216.211-.595.235-.91.336-.707.058-1.189-.303-1.319-1.083-.313-1.919.602-2.79 3.035-2.757.612 0 1.233.361 1.835.572-.198.269-.341.572-.571.815Zm9.927 7.935c-.253 1.24-1.001 2.378-1.593 3.532-.086.164-.65.198-.918.094-.248-.107-.597-.478-.571-.684.235-2.141.524-4.278.808-6.411-.088-.024-.148-.071-.229-.081l-.331-.78.597.508a2.99 2.99 0 0 0-.037.35c1.718.488 2.634 1.666 2.274 3.472Zm44.126 342.303c-.154.128-.318.248-.477.373l-.467.303.23-.548c.247-.045.474-.079.714-.128.305-.217.608-.452.913-.676.039.167.096.339.148.503-.352.055-.709.115-1.061.173Zm94.596-325.952c-.383-.381-.688-.825-1.014-1.268-.144.02-.287.034-.43.034-.162-.16-.321-.327-.48-.481.25.073.495.154.73.227.06.079.125.152.18.22.759-.068 1.562-.246 1.789.942.015.07-.694.397-.775.326Zm178.667 60.336c-.94.631-2 1.396-3.13 2.012-.69.384-1.87-.336-2.3-1.294-.35-.763-.05-1.23.81-1.431 1.29-.287 2.56-.637 3.86-.893.25-.049.65.209.79.442.14.208.01.582-.03 1.164ZM85.757 318.475c-1.971-.717-3.909-.503-5.945-.151 2.036-.352 3.99-.566 5.945.151ZM1031.3 524.479c-.03-.105-.07-.178-.09-.282-.04 0-.09.01-.15.01-.01.058 0 .118-.02.178.11.002.15.081.26.094ZM93.605 315.847c.324 0 .634.138.957.232h.198a3.409 3.409 0 0 0-1.155-.232Zm151.52 3.639c-.138 0-.284.013-.43.013.075.081.138.172.206.255h.023c.068-.094.141-.174.201-.268Zm1.744-1.199c-.185-.125-.693-.094-.863.071-.331.326-.597.733-.881 1.128.475.013.939.034 1.387-.034.913-.152 1.064-.629.357-1.165ZM590.937 148.27c.042.136.081.154.123.353.062 0 .122 0 .185-.013.023-.066.041-.136.054-.217-.096-.039-.239-.084-.362-.123Zm444.833 380.464c-.14-.139-.29-.267-.43-.405-.16-.024-.25-.131-.38-.178.02.165.14.246.14.434.22.047.44.104.67.149ZM590.496 148.111c-.01.011.206.081.441.157-.162-.481-.323-.632-.441-.157Zm444.464 380.04c-.14-.814-.62-1.346-1.41-1.626.09.872.6 1.384 1.41 1.626Zm-1.41-1.626c-.02-.149-.13-.211-.12-.384-.13.011-.22-.039-.33-.039.02.094.1.139.11.246.14.034.21.133.34.177ZM132.058 79.167c-3.043.117-3.622 2.184-3.81 4.57 2.73.549 2.79.642 2.485 2.827-.136 1.026-.462 2.047-.448 3.073.033 2.683 1.483 4.255 4.317 4.84 1.028.208 2.016.524 3.054.673 1.515.248 2.56-.478 3.481-1.674 1.082-1.417 1.953-2.86 2.062-4.677.086-1.418.358-2.853 1.554-3.723 2.597-1.887 2.908-5.385 5.497-7.374 1.429-1.107 1.311-3.422.318-4.745-1.45-1.932-2.881-3.874-4.448-5.699-.326-.373-1.294-.457-1.865-.318-3.209.783-4.018 1.477-4.166 4.889-.118 2.824-1.411 4.524-3.685 5.792l.214-.224c-.073.026-.151 0-.232.034 0 .023.008.07.013.104-1.231 1.11-2.707 1.564-4.341 1.632ZM1033.1 526.102c-.24-.942-.81-1.532-1.8-1.623.23.953.78 1.558 1.8 1.623ZM117.724 84.772c2.663.644 5.348 1.234 8.052 1.643 1.979.293 1.799-1.524 2.209-2.722-.345-.418-.72-.817-.968-1.292-.975-1.885-.946-3.699.172-4.597 1.343-1.044 2.837-1.812 4.6-.84 1.468.817 2.999.978 4.602.467-.109-.611-.104-1.337-.461-1.707-2.185-2.34-5.04-3.61-8.094-4.2-1.272-.243-2.886-.074-3.976.558-3.317 1.887-5.906 4.665-8.133 7.735-1.158 1.595-.021 4.469 1.997 4.954ZM937.75 447.587c-.044.12.451.598.61.556.712-.169.989-.707.738-1.391-.088-.243-.414-.418-.631-.616-.25.475-.55.94-.717 1.451ZM173.897 35.568c.746 0 1.066-.018 1.4 0 1.296.095 2.514-1.845 1.977-2.847-.381-.71-1.531-1.28-2.41-1.41-1.405-.198-2.967 1.352-2.479 2.373.38.783 1.116 1.407 1.512 1.885Zm-5.807 28.093c.524.243.965.702 1.445 1.094.13-.05.26-.081.38-.128l.188.525-.42-.267c-.049-.044-.101-.083-.148-.128-1.187.382-2.399.721-3.513 1.27-.539.265-1.092 1.022-1.144 1.589-.045.511.485 1.266.975 1.584 2.662 1.7 6.159.744 8.839 2.757.608.438 2.003-.047 2.994-.28.644-.15 1.632-.503 1.741-.94.853-3.338 3.591-4.888 5.998-6.807 1.483-1.185 1.441-2.373-.165-4.466-.201-.256-.563-.394-.839-.595l.266-.277h-.292l.018.188c-.647.43-1.296.326-1.958-.013a.918.918 0 0 0-.084-.139c-.055 0-.125 0-.185.014l.3.198c-1.239-.585-2.54-1.063-3.703-1.77-.521-.31-1.197-1.196-1.095-1.642 1.02-4.106-2.414-7.98-.605-12.14.144-.306-.61-1.235-1.129-1.549-2.899-1.803-5.893-.56-6.112 2.619-.24 3.42-.226 6.826-2.289 9.861-.67.969.078 1.909 1.082 2.467.279.15.655.371.725.627.175.663-.303.968-1.2 1.036-1.668.152-3.95-.112-4.273 1.898-.485 2.976 2.49 2.59 4.203 3.414Zm7.744-2.73.496.196-.764-.139-.18-.723.448.666Zm-47.849 22.762c.091.104.151.209.245.313 0-.094.018-.175.018-.269-.107-.023-.136-.034-.258-.057l-.005.013Zm818.753 360.395c-1.783-.794-3.768.138-4.831 2.271-.684 1.368.315 2.882 2.372 3.545.624.211 1.273.336 2.185.579.639-.428 1.643-.809 2.128-1.543 1.181-1.746.263-3.912-1.854-4.852ZM183.513 55.183c-.393-.337-1.165-.363-1.739-.316-.905.07-1.171.652-.759 1.428.423.796.905 1.558 1.351 2.328.675 0 1.351-.023 2.023-.036-.122-1.183.17-2.506-.876-3.404Zm13.663 31.512c.092 1.292 1.401 2.43 2.681 2.315 1.833-.154 3.111-1.49 3.035-3.163-.065-1.154-1.437-2.305-2.748-2.305-1.776.013-3.085 1.41-2.968 3.153Zm-18.651-8.437c-.456.12-.944 1.026-.975 1.585-.13 2.581 1.126 4.664 2.727 6.546.767.925 2.704 1.46 3.815.943 1.244-.58 2.362-1.684 3.645-1.885 2.011-.3 2.968-1.336 3.666-3.083.496-1.279 1.281-2.44 1.612-3.072 1.011-2.206.727-3.13-.923-4.023-1.21-.64-2.462-1.268-3.76-1.71-.582-.208-1.664-.208-1.956.152-2.041 2.56-4.792 3.746-7.851 4.547Zm3.4-33.872c.331-.707.06-1.279-.633-1.616-.261.199-.65.337-.749.59-.312.724-.057 1.342.66 1.598.172.06.597-.318.722-.572Zm3.168 25.58.295.743.435-.676-.73-.068Zm933.767 262.932c-.81.595-1.65 1.211-2.34 1.926-1.22 1.292-1.9 2.785-1.29 4.657.71 2.266 1.36 4.581 2.06 6.862.05.183.41.269.64.395.22-.259.57-.478.64-.781.73-2.756 2.79-4.685 4.24-6.99 1.05-1.666.56-3.851-1.15-5.55-.74-.718-2.11-1.021-2.8-.519ZM150.87 91.976c.037.094.068.2.11.3.06-.021.133-.068.203-.094.024-.068.055-.136.068-.206h-.381Zm-2.959-3.9c-.54.096-1.434.72-1.4 1.06.062.887.336 2.244.907 2.477 1.038.407 2.269.313 3.452.363-.385-1.144-.706-2.29-1.264-3.342-.219-.394-1.15-.64-1.695-.558Zm2.464 6.748c-.06.535.315 1.326.743 1.686 1.377 1.138 4.274.676 5.343-.778.169-.233.362-.655.261-.828-.65-1.138-1.169-2.477-2.133-3.278-1.129-.953-2.287.047-3.406.556-.31.872-.706 1.749-.808 2.641Zm19.066-18.565c-.968-.186-1.943-.499-2.928-.546-.621-.034-1.341.209-1.862.559-.496.337-.934.918-1.161 1.49-.26.65.157 1.384.942 1.43 2.618.15 4.941 1.243 7.353 2.079.018-.849.029-1.708-.021-2.559-.094-1.978-.203-2.057-2.323-2.453Zm-26.148-14.365c.266-.07.597-.441.665-.72.185-.778-.162-1.397-.926-1.478-.771-.086-1.189.452-1.225 1.235.182.765.686 1.15 1.486.963Zm28.492 19.377c0 .154.01.302.01.456h.3c.005-.12.005-.222.011-.323-.11-.05-.209-.097-.321-.133Zm3.635 1.396c-.543-.303-1.054-.72-1.635-.87-.532-.13-1.114-.08-1.69-.07a92.032 92.032 0 0 1-.044 1.885c.568 0 1.147.034 1.663-.097.6-.148 1.135-.558 1.706-.848Zm-9.854 5.99c2.336-1.08 3.979-3.056 5.851-4.745-2.146-.055-4.292-.138-6.443-.172-1.157-.01-2.206 1.326-2.125 2.944.031.593.396 1.36.863 1.697.462.334 1.364.501 1.854.277Zm6.485-5.045h-.324c-.104.102-.198.193-.31.298l.623.026c.006-.105.006-.222.011-.324Z" fill="#EEEEF0"/></svg>