<svg width="1452" height="1085" fill="none" xmlns="http://www.w3.org/2000/svg"><path fill-rule="evenodd" clip-rule="evenodd" d="M1189.59 542.272c-48.31 0-87.47 39.158-87.47 87.462v34.984c0 48.304 39.16 87.462 87.47 87.462 48.3 0 87.46-39.158 87.46-87.462v-34.984c0-48.304-39.16-87.462-87.46-87.462Zm-1102.01 0c-48.304 0-87.462 39.158-87.462 87.462v34.985c0 48.303 39.158 87.461 87.462 87.461s87.462-39.158 87.462-87.461v-34.985c0-48.304-39.158-87.462-87.462-87.462Zm647.239 87.462c0-48.304 39.158-87.462 87.462-87.462 48.303 0 87.461 39.158 87.461 87.462V822.15c0 48.303-39.158 87.461-87.461 87.461-48.304 0-87.462-39.158-87.462-87.461V629.734Zm-279.935-87.462c-48.304 0-87.462 39.158-87.462 87.462v367.339c0 48.307 39.158 87.457 87.462 87.457s87.462-39.15 87.462-87.457V629.734c0-48.304-39.158-87.462-87.462-87.462Z" fill-opacity=".4" fill="#fff"/><path fill-rule="evenodd" clip-rule="evenodd" d="M629.813 542.263c48.303 0 87.461-39.158 87.461-87.462V87.461C717.274 39.159 678.116 0 629.813 0c-48.304 0-87.462 39.158-87.462 87.462V454.8c0 48.304 39.158 87.462 87.462 87.462Zm454.767-87.462c0 48.304-39.16 87.462-87.462 87.462-48.304 0-87.462-39.158-87.462-87.462V262.385c0-48.304 39.158-87.462 87.462-87.462 48.302 0 87.462 39.158 87.462 87.462v192.416Zm-822.163 87.462c48.304 0 87.462-39.158 87.462-87.462s-39.158-87.462-87.462-87.462c-48.303 0-87.461 39.158-87.461 87.462s39.158 87.462 87.461 87.462Zm1102.003 0c48.3 0 87.46-39.158 87.46-87.462s-39.16-87.462-87.46-87.462-87.46 39.158-87.46 87.462 39.16 87.462 87.46 87.462Z" fill="#fff" fill-opacity=".2"/></svg>