<svg width="32" height="32" viewBox="0 0 32 32" fill="none" xmlns="http://www.w3.org/2000/svg">
<g clip-path="url(#clip0_664_44327)">
<path d="M14.2625 2H16.7375L18.2563 2.225L19.55 2.5625L20.7875 3.0125L21.9688 3.575L22.9812 4.19375L23.7687 4.75625L24.5 5.375L25.3438 6.1625L25.7375 6.6125L26.4688 7.5125L27.0875 8.46875L27.65 9.48125L28.1 10.4937L28.6062 12.0125L28.8875 13.3625L29 14.2625V16.7375L28.775 18.2563L28.4375 19.55L27.9875 20.7875L27.425 21.9688L26.8062 22.9812L26.2437 23.7687L25.625 24.5L24.8375 25.3438L24.3875 25.7375L23.4875 26.4688L22.5312 27.0875L21.5187 27.65L20.5063 28.1L18.9875 28.6062L17.6375 28.8875L16.7375 29H14.2625L12.7437 28.775L11.45 28.4375L10.2125 27.9875L9.03125 27.425L8.01875 26.8062L7.23125 26.2437L6.5 25.625L5.65625 24.8375L5.2625 24.3875L4.53125 23.4875L3.9125 22.5312L3.35 21.5187L2.9 20.5063L2.39375 18.9875L2.1125 17.6375L2 16.7375V14.2625L2.225 12.7437L2.5625 11.45L3.0125 10.2125L3.575 9.03125L4.19375 8.01875L4.75625 7.23125L5.375 6.5L6.1625 5.65625L6.6125 5.2625L7.5125 4.53125L8.46875 3.9125L9.48125 3.35L10.4937 2.9L12.0125 2.39375L13.3625 2.1125L14.2625 2Z" fill="#EEEEF0"/>
<path d="M27.8137 15.895H28.9949V16.7388L28.7699 18.2575L28.4324 19.5513L27.9824 20.7888L27.4199 21.97L26.8012 22.9825L26.2387 23.77L25.6199 24.5013L24.8324 25.345L24.3824 25.7388L23.4824 26.47L22.5262 27.0888L21.5137 27.6513L20.5012 28.1013L18.9824 28.6075L17.6324 28.8888L16.7324 29.0013H15.8887V27.5388L15.9449 26.0763L16.1137 23.995L16.3387 22.5325L16.6762 21.2388L17.1262 20.1138L17.6324 19.27L18.1387 18.6513L18.8137 17.9763L19.6012 17.4138L20.5012 16.9638L21.4012 16.6263L22.8074 16.2888L24.2137 16.12L24.4387 16.0638L26.5199 15.9513L27.8137 15.895Z" fill="#00A499"/>
<path d="M15.8887 2H16.7324L18.2512 2.225L19.5449 2.5625L20.7824 3.0125L21.9637 3.575L22.9762 4.19375L23.7637 4.75625L24.4949 5.375L25.3387 6.1625L25.7324 6.6125L26.4637 7.5125L27.0824 8.46875L27.6449 9.48125L28.0949 10.4937L28.6012 12.0125L28.8824 13.3625L28.9949 14.2625V15.1062H27.5324L26.0699 15.05L23.9887 14.8812L22.5262 14.6562L21.2324 14.3187L20.1074 13.8687L19.2637 13.3625L18.6449 12.8562L17.9699 12.1812L17.4074 11.3938L16.8449 10.2125L16.4512 8.975L16.2824 8.1875L16.0574 6.5L15.9449 4.925L15.8887 3.18125V2Z" fill="#00A499"/>
<path d="M14.2625 2H15.1062V3.18125L14.9937 5.54375L14.825 7.34375L14.5437 8.975L14.0375 10.4937L13.5875 11.3938L13.025 12.1812L12.575 12.6875L11.9563 13.1937L11.1687 13.7L10.1 14.2062L8.975 14.5437L7.85 14.7687L6.5 14.9375L4.925 15.05L3.18125 15.1062H2V14.2625L2.225 12.7437L2.5625 11.45L3.0125 10.2125L3.575 9.03125L4.19375 8.01875L4.75625 7.23125L5.375 6.5L6.1625 5.65625L6.6125 5.2625L7.5125 4.53125L8.46875 3.9125L9.48125 3.35L10.4937 2.9L12.0125 2.39375L13.3625 2.1125L14.2625 2Z" fill="#00A499"/>
<path d="M2 15.895H3.18125L5.54375 16.0075L7.34375 16.1763L8.975 16.4575L10.4937 16.9638L11.5625 17.5263L12.2937 18.0888L13.025 18.82L13.5875 19.6075L14.0375 20.5075L14.375 21.4075L14.7125 22.8138L14.8812 24.22L14.9375 24.445L15.05 26.5263L15.1062 27.82V29.0013H14.2625L12.7437 28.7763L11.45 28.4388L10.2125 27.9888L9.03125 27.4263L8.01875 26.8075L7.23125 26.245L6.5 25.6263L5.65625 24.8388L5.2625 24.3888L4.53125 23.4888L3.9125 22.5325L3.35 21.52L2.9 20.5075L2.39375 18.9888L2.1125 17.6388L2 16.7388V15.895Z" fill="#00A499"/>
</g>
<defs>
<clipPath id="clip0_664_44327">
<rect width="27" height="27" fill="white" transform="translate(2 2)"/>
</clipPath>
</defs>
</svg>
