<svg width="32" height="32" viewBox="0 0 32 32" fill="none" xmlns="http://www.w3.org/2000/svg">
<path fill-rule="evenodd" clip-rule="evenodd" d="M29 16C29 23.732 22.732 30 15 30C7.26801 30 1 23.732 1 16C1 8.26801 7.26801 2 15 2C22.732 2 29 8.26801 29 16ZM15.5017 12.3354C14.14 12.9018 11.4185 14.0741 7.33721 15.8522C6.67447 16.1158 6.3273 16.3736 6.2957 16.6257C6.24228 17.0517 6.77583 17.2195 7.50238 17.448C7.60121 17.4791 7.70361 17.5113 7.80859 17.5454C8.52341 17.7777 9.48496 18.0496 9.98484 18.0604C10.4383 18.0702 10.9443 17.8832 11.5031 17.4996C15.3164 14.9255 17.2848 13.6244 17.4084 13.5964C17.4955 13.5766 17.6164 13.5517 17.6982 13.6245C17.7801 13.6972 17.772 13.835 17.7634 13.872C17.7105 14.0973 15.6161 16.0444 14.5323 17.0521C14.1944 17.3662 13.9548 17.589 13.9058 17.6399C13.796 17.7539 13.6841 17.8617 13.5766 17.9654C12.9126 18.6055 12.4146 19.0856 13.6042 19.8696C14.1759 20.2463 14.6334 20.5579 15.0898 20.8687C15.5882 21.2081 16.0853 21.5466 16.7285 21.9683C16.8924 22.0757 17.0489 22.1873 17.2014 22.2959C17.7814 22.7095 18.3025 23.081 18.9464 23.0217C19.3204 22.9873 19.7069 22.6355 19.9031 21.5864C20.3669 19.107 21.2786 13.7349 21.4893 11.5211C21.5077 11.3272 21.4845 11.079 21.4658 10.97C21.4472 10.861 21.4082 10.7058 21.2666 10.5909C21.0989 10.4548 20.8399 10.4261 20.7241 10.4281C20.1975 10.4374 19.3896 10.7183 15.5017 12.3354Z" fill="#00A499"/>
</svg>
