<svg width="31" height="31" viewBox="0 0 31 31" fill="none" xmlns="http://www.w3.org/2000/svg">
<path fill-rule="evenodd" clip-rule="evenodd" d="M15.9049 3.875C17.1405 3.875 18.408 3.90679 19.6364 3.95882L21.0873 4.02819L22.4761 4.11056L23.7768 4.19872L24.9647 4.29121C26.2539 4.38988 27.467 4.94002 28.3906 5.84483C29.3141 6.74965 29.8891 7.95118 30.0142 9.23806L30.072 9.85226L30.1804 11.1674C30.2815 12.5302 30.3567 14.0158 30.3567 15.4364C30.3567 16.857 30.2815 18.3427 30.1804 19.7055L30.072 21.0206C30.0532 21.2316 30.0344 21.4354 30.0142 21.6348C29.889 22.9219 29.3139 24.1236 28.39 25.0285C27.4661 25.9333 26.2527 26.4833 24.9633 26.5816L23.7782 26.6727L22.4776 26.7623L21.0873 26.8447L19.6364 26.914C18.3933 26.968 17.1492 26.996 15.9049 26.9979C14.6606 26.996 13.4166 26.968 12.1735 26.914L10.7225 26.8447L9.33368 26.7623L8.03302 26.6727L6.84509 26.5816C5.55591 26.483 4.34283 25.9328 3.41925 25.028C2.49567 24.1232 1.92075 22.9217 1.79563 21.6348L1.73783 21.0206L1.62944 19.7055C1.51893 18.2851 1.46013 16.8611 1.45312 15.4364C1.45312 14.0158 1.52827 12.5302 1.62944 11.1674L1.73783 9.85226C1.75661 9.64126 1.7754 9.43749 1.79563 9.23806C1.9207 7.95141 2.49541 6.75006 3.4187 5.84527C4.34199 4.94049 5.55473 4.39021 6.84364 4.29121L8.03013 4.19872L9.33079 4.11056L10.7211 4.02819L12.172 3.95882C13.4156 3.90482 14.6602 3.87687 15.9049 3.875ZM13.0146 11.9319V18.941C13.0146 19.6087 13.7371 20.0249 14.3152 19.6925L20.385 16.1879C20.517 16.1119 20.6267 16.0024 20.703 15.8705C20.7793 15.7385 20.8195 15.5888 20.8195 15.4364C20.8195 15.284 20.7793 15.1343 20.703 15.0024C20.6267 14.8705 20.517 14.761 20.385 14.6849L14.3152 11.1818C14.1834 11.1057 14.0338 11.0656 13.8815 11.0657C13.7293 11.0657 13.5797 11.1058 13.4479 11.182C13.316 11.2581 13.2066 11.3677 13.1305 11.4996C13.0544 11.6315 13.0145 11.7811 13.0146 11.9333V11.9319Z" fill="#00A499"/>
</svg>
