<svg width="101" height="100" viewBox="0 0 101 100" fill="none" xmlns="http://www.w3.org/2000/svg">
<g clip-path="url(#clip0_1380_5877)">
<path d="M76.5373 10.0166L76.5873 10.0177C77.314 10.0054 78.0167 10.6988 77.4751 11.4046C77.0578 11.9485 76.4008 12.3965 75.9133 12.8919L72.2678 16.5645C71.3403 17.4697 70.3611 18.3358 69.5045 19.3097L75.4536 25.3436C76.3126 26.2883 75.2111 27.4006 74.2622 26.6445C72.7778 25.4619 71.3673 23.5375 69.8005 22.1958L65.9092 25.8244L68.2087 28.1761C68.6458 28.593 69.4298 28.9613 69.4867 29.6392C69.5492 30.3824 68.7908 30.9356 68.1686 30.4809C67.5894 30.0578 67.065 29.4488 66.5447 28.9495L62.6015 25.0342L57.7087 19.8705C57.2601 19.3731 56.6887 18.858 56.3242 18.2983C55.7397 17.4009 56.649 16.022 58.0739 17.6517L61.6776 21.3506L65.5084 17.7199L61.5555 13.6711C60.2731 12.3848 61.7467 11.5822 62.4025 12.0368C62.6508 12.209 62.8598 12.4637 63.0662 12.6832L64.0208 13.688C65.3939 15.1066 66.7578 16.5838 68.2551 17.8722L74.6151 11.75C75.2197 11.1509 75.7714 10.4074 76.5373 10.0166ZM66.7111 18.9839L62.8451 22.5899L64.79 24.4878L68.5947 20.8325C68.0442 20.1555 67.3795 19.5425 66.7111 18.9839Z" fill="#427AA1"/>
<path d="M75.6339 83.4995L68.4583 83.5128C66.4005 83.528 64.7453 82.5197 64.6836 80.2325L64.6855 55.9614C64.6739 53.9011 64.8483 53.8436 66.9083 53.858L66.9078 49.8391C66.9089 48.1949 66.5087 46.8166 68.9091 47.31L68.9553 45.0824C68.9564 43.8875 68.912 42.9277 69.5642 41.8699C71.3498 38.9734 76.0823 39.7131 76.8303 43.0744C76.9305 43.5249 76.8744 44.0586 76.8739 44.5217L76.8684 47.2569C79.1953 47.0878 78.7845 48.0033 78.7786 49.7483L78.7936 53.9164C81.0662 53.6856 81.0734 54.0813 81.0752 55.997L81.0737 73.8514L81.0786 78.3858C81.0792 79.3434 81.2486 80.4594 80.8891 81.3717L80.8575 81.4542C79.9641 83.7225 77.6391 83.5189 75.6339 83.4995ZM75.0912 81.6935L77.7692 81.6556C78.29 81.6003 78.6723 81.4206 78.9994 81.0036L79.0484 80.9395C79.4855 80.39 79.2758 78.0327 79.2767 77.2902L79.2806 71.5186L79.2814 61.9355L66.4759 61.9127L66.5017 76.3956L71.3741 76.4205C72.2199 76.422 73.0458 76.2884 73.001 77.4624C72.9641 78.4297 72.0149 78.2714 71.3289 78.2728L66.6792 78.278C66.2502 78.2775 66.0159 81.6042 67.9408 81.6886L75.0912 81.6935ZM66.4817 55.6722L66.468 60.0555L79.2825 60.0966L79.292 55.6867L66.4817 55.6722ZM68.6797 49.1408L68.6883 53.8517L76.1895 53.8555C76.4544 53.8556 76.7548 53.8859 77.0155 53.7839L77.0383 49.128L68.6797 49.1408ZM72.612 41.8091C70.835 42.1583 70.7205 43.2644 70.7253 44.8138L70.7472 47.2767L73.2769 47.2908L75.0072 47.2905L75.0206 44.8583C75.0242 44.3303 75.0933 43.7305 74.9492 43.2184C74.6823 42.2699 73.5548 41.6509 72.612 41.8091Z" fill="#427AA1"/>
<path d="M70.3882 71.7494L73.9702 71.7598C74.5204 71.7562 75.1296 71.6816 75.6708 71.7577C76.8993 71.9305 76.7571 73.4491 75.4618 73.548L71.6671 73.5602C71.0877 73.5612 70.4296 73.6205 69.8587 73.5343C69.0163 73.4069 68.5899 71.8126 70.3882 71.7494Z" fill="#427AA1"/>
<path d="M69.402 65.0314C69.5957 64.9634 69.8046 65.0002 70 64.9999L71.6621 64.9985C72.2645 65.0074 72.2732 66.4937 71.828 66.9321C71.4386 67.0432 71.0161 66.9607 70.6227 66.9617L69.8994 66.9623C69.646 66.9618 69.3371 67.0583 69.18 66.408C69.0628 65.9232 69.2282 65.2522 69.402 65.0314Z" fill="#427AA1"/>
<path d="M74.2791 76.5702C74.4728 76.5021 74.6817 76.539 74.8771 76.5387L76.5392 76.5372C77.1416 76.5461 77.093 77.7954 76.6478 78.2338C76.2584 78.3449 75.836 78.2624 75.4425 78.2634L74.7193 78.2641C74.4658 78.2636 74.1569 78.36 73.9998 77.7097C73.8826 77.2249 74.1053 76.791 74.2791 76.5702Z" fill="#427AA1"/>
<path d="M74.1132 65.0993C74.3069 65.0312 74.5158 65.0681 74.7112 65.0678L76.3733 65.0663C76.9757 65.0753 76.9844 66.5616 76.5392 67C76.1498 67.1111 75.7273 67.0286 75.3339 67.0296L74.6106 67.0302C74.3572 67.0297 74.0483 67.1262 73.8912 66.4759C73.774 65.991 73.9394 65.3201 74.1132 65.0993Z" fill="#427AA1"/>
<path d="M56.567 21.3135C57.4452 21.2684 58.4567 22.7123 59.0025 23.2646L63.0844 27.3593C63.4234 27.6873 63.7744 27.9962 64.0625 28.3715C63.4795 29.0395 62.7705 29.6168 62.1206 30.2192L59.7616 32.582C59.488 32.876 59.3949 32.8279 59.4817 33.2035C59.8158 34.6453 57.7164 35.8428 56.6925 36.8565L49.8511 43.7082C49.2499 44.3138 48.9713 44.7164 48.4669 45.3093L51.7444 45.3246C54.6253 45.3437 53.9031 45.9806 53.9005 48.6264L53.8892 54.0528C53.9695 54.1207 54.0347 54.1763 54.1342 54.2138C56.1305 54.9635 56.9186 57.2395 56.9263 59.1984L56.9331 79.0679C56.9227 82.9492 55.5278 83.4942 51.7713 83.4971L43.1944 83.4987C42.1197 83.4984 40.9555 83.7065 39.9653 83.2245C38.6189 82.5692 38.0278 81.427 37.9703 79.9995L37.9983 58.5299C38.1059 56.6503 39.007 54.8167 40.8355 54.0579C41.1084 53.9446 41.0705 53.9081 41.0677 53.6448L41.0609 46.2123C41.0781 45.0976 42.387 45.179 43.1608 45.1763L45.3394 45.169C45.7334 45.1663 46.8633 45.0668 46.7481 44.4159C46.7263 44.2918 46.1942 43.8426 46.0906 43.7432L44.2866 41.8943C43.7388 41.2782 43.0919 40.5746 42.8055 39.7917C42.942 39.5168 43.4227 39.1496 43.7025 39.0426C44.1914 39.1145 47.4788 42.5798 47.9459 43.1393L49.6011 41.3753L48.4534 40.246C47.7866 39.5378 47.437 39.1249 46.9803 38.2573C47.2745 37.884 47.5328 37.644 47.9459 37.4056C48.6228 37.7931 48.88 38.0928 49.4367 38.6309L51.0211 40.246C51.5338 39.7993 51.9714 39.2612 52.4116 38.7449L50.552 36.6439C50.0411 36.0692 49.3727 35.4513 49.0094 34.774C49.1964 34.3354 49.6449 34.0354 50.03 33.7857C50.7736 34.3099 53.1475 36.6723 53.6953 37.4056L55.1239 36.0059L52.4116 33C53.5595 30.9066 54.5699 32.807 55.7133 34.0119C56.2177 34.5431 56.0475 34.2128 56.5177 34.7757L57.5497 33.7795L54.7714 31.007C54.1675 30.4449 53.4719 29.7892 52.6839 29.5001C52.1678 29.7824 51.743 30.161 51.3108 30.5548C50.3189 31.4163 49.4255 32.3834 48.5031 33.3167L42.788 39.1251L26.5139 55.2748C25.1378 56.6276 22.6295 58.2468 24.0947 60.2378C26.7352 63.8254 27.6781 62.4387 29.8522 60.2287L36.8349 53.0543C37.2331 52.6328 37.7558 51.8124 38.4395 51.9542C39.2508 52.1223 39.4244 52.9495 38.9139 53.5023L29.6019 62.9499C28.6553 63.8434 27.3808 64.6378 26.0149 64.1898L25.9691 64.1732C25.8944 64.2193 25.9033 64.2068 25.855 64.2545L24.0066 65.9751C22.1981 67.7103 21.1786 69.0396 18.7159 67.4953C18.4114 67.9213 18.0375 68.2757 17.6686 68.6448L11.1389 75.0934C10.5859 75.6256 10.0239 76.3321 9.39148 76.7568C8.43285 76.692 7.88484 76.0525 8.57551 75.2981L16.3667 67.4724C16.7941 67.0682 17.2367 66.6721 17.7128 66.3262C17.5275 65.8471 17.4124 65.2646 17.5206 64.7543L17.5333 64.6973C17.75 63.5667 18.7392 62.7778 19.5258 62.0087L21.1558 60.4309C21.3874 60.212 21.7534 59.9524 21.9366 59.7009C22.0947 59.4835 21.6939 57.7299 22.7477 56.5292C23.6586 55.4909 24.7478 54.5484 25.728 53.5721L49.5547 29.7463C51.2584 28.0606 52.057 27.0987 54.5578 28.2917L58.1542 24.7107C57.4109 24.0363 54.9334 21.9229 56.567 21.3135ZM50.3134 52.4806L42.7686 52.5092L42.7792 53.9967C42.7827 56.2132 39.9119 55.3382 39.7531 58.4514L39.7403 77.1332C39.7397 78.7818 39.0603 81.6107 41.3103 81.6974L52.3022 81.7015C54.4045 81.7193 55.6394 81.4724 55.0674 78.8014L47.5291 78.7789C46.9638 78.7989 46.4117 78.8879 45.9836 78.4214C45.6366 78.0434 45.8988 77.3507 46.2434 77.0679C46.4348 76.9109 46.7581 76.9885 46.9888 76.9887L53.6617 77.0004L54.688 76.9967C54.8522 76.9959 55.0345 77.019 55.1892 76.9618L55.2139 75.7159L50.1831 75.7323C49.4095 75.7334 48.5405 75.8146 47.7763 75.7181C46.8813 75.6049 46.9795 74.1045 47.9123 73.9956L55.1445 73.9734L55.1791 71.051L51.5989 71.0626C51.0614 71.064 50.4277 71.1285 49.8997 71.0424C48.9278 70.884 48.8755 69.4263 49.8916 69.2903C50.9986 69.1421 54.0172 69.2437 55.1383 69.309L55.1416 62.9446L47.818 62.9492C47.4819 62.9492 47.1225 62.9704 46.7886 62.9256C45.9075 62.807 46.0072 61.2551 46.9233 61.1998C47.7127 61.1521 48.5327 61.1973 49.3249 61.1981L54.0283 61.2092C54.3831 61.2124 54.7927 61.2803 55.1384 61.2459C55.1591 58.7037 55.493 56.924 53.0549 55.5348C52.2827 55.0948 52.1072 55.0963 52.1059 54.2334L52.1081 52.4673L50.3134 52.4806ZM48.4534 47.106L42.7881 47.1314L42.7841 50.7215L46.5574 50.7206L52.1044 50.7245L52.148 47.216C52.152 47.1518 52.1513 47.1748 52.1378 47.1024L48.4534 47.106ZM59.2966 25.8912C58.4349 27.1226 56.7492 28.3476 56.1108 29.5812L58.0467 31.714C58.1039 31.6778 58.1536 31.6484 58.2016 31.6001L61.5667 28.3653L59.2966 25.8912ZM22.7205 61.2756C21.7774 62.2921 20.1492 63.4815 19.3959 64.5265L19.3497 64.5898C18.7897 65.3912 20.0559 66.6123 20.9116 66.371L20.9738 66.3517C21.6527 66.0148 22.1677 65.3953 22.6927 64.8603L24.4484 63.0751L22.7205 61.2756Z" fill="#427AA1"/>
<path d="M45.3939 69.3694C45.5876 69.3013 45.7966 69.3382 45.9919 69.3379L47.654 69.3364C48.2564 69.3453 48.2079 70.5946 47.7626 71.0331C47.3733 71.1441 46.9508 71.0616 46.5574 71.0626L45.8341 71.0633C45.5806 71.0628 45.2718 71.1592 45.1146 70.5089C44.9975 70.0241 45.2202 69.5902 45.3939 69.3694Z" fill="#427AA1"/>
</g>
<defs>
<clipPath id="clip0_1380_5877">
<rect width="100" height="100" fill="white" transform="translate(0.5)"/>
</clipPath>
</defs>
</svg>
