<svg width="101" height="100" viewBox="0 0 101 100" fill="none" xmlns="http://www.w3.org/2000/svg">
<g clip-path="url(#clip0_1380_6803)">
<path d="M55.7395 57.4766C57.3482 57.6481 57.0459 59.5681 55.7096 59.8748C53.9955 59.6966 54.2791 57.7628 55.7395 57.4766Z" fill="#427AA1"/>
<path d="M20.1786 48.1589C21.89 47.9697 22.176 49.8347 20.8654 50.5752C19.1882 50.7908 18.8066 48.8127 20.1786 48.1589Z" fill="#427AA1"/>
<path d="M55.4406 61.1408C57.2555 61.027 57.3816 64.1055 55.9061 64.7492C54.2159 64.8025 53.7992 61.7703 55.4406 61.1408Z" fill="#427AA1"/>
<path d="M18.016 27.8513L23.046 27.8321C24.5916 27.8331 26.1797 27.7595 27.721 27.8456C28.99 27.9165 29.1436 30.1246 27.3788 30.1301L18.7686 30.1262C16.7341 30.1254 16.7624 31.1699 16.7641 32.9676L16.7649 41.2012C16.7647 41.9965 16.8275 42.5349 17.6427 42.9071L17.7167 42.9402C18.3141 43.2107 19.0572 43.1113 19.6953 43.1115H80.4719C81.9219 43.112 84.2095 43.5541 84.3114 41.4198L84.3056 32.8665C84.2999 30.6681 83.8199 30.1395 81.7775 30.1348L74.1199 30.1323L73.5572 30.1268C71.9886 30.094 72.1049 27.9479 73.3686 27.8377C73.9883 27.7837 74.6536 27.8307 75.2774 27.8302L82.0619 27.8307C82.4961 27.8316 83.0042 27.7784 83.4274 27.8709C84.8792 28.1885 86.3481 29.6891 86.541 31.2027C86.6155 31.7874 86.5753 32.4149 86.5763 33.0049L86.5742 40.0973C86.5728 40.8068 86.6519 41.6437 86.4952 42.332C86.1706 43.7568 84.7392 45.2884 83.1983 45.3831C82.7228 45.4121 82.2327 45.3837 81.7556 45.3832L20.246 45.3734C19.436 45.3727 18.4474 45.4816 17.6667 45.2876C14.9115 44.6027 14.5857 42.6846 14.5799 40.1074L14.5703 31.5999C14.622 29.6357 16.1622 28.1932 18.016 27.8513Z" fill="#427AA1"/>
<path d="M80.5059 47.7679C81.8959 47.6991 81.7083 49.2215 81.709 50.1299L81.7075 77.1113C81.7073 77.7604 81.7484 78.4429 81.6615 79.0862C81.2773 81.9282 78.9889 84.2043 76.1597 84.6133C74.9004 84.7954 73.5722 84.723 72.3022 84.7235L27.1672 84.7269C26.3158 84.7271 25.4314 84.7866 24.5917 84.6316C22.0109 84.1548 19.8528 81.8416 19.5276 79.2313C19.3695 77.9616 19.4583 76.6021 19.4598 75.3215L19.457 57.5291C19.457 57.1794 19.4073 56.7355 19.495 56.3982C19.7392 55.4598 21.302 55.3254 21.6108 56.5037C21.7192 56.9174 21.6515 57.4807 21.6517 57.9152L21.6618 78.2501C21.6661 78.5885 21.6383 79.0402 21.7906 79.3457C23.0978 81.9665 23.8064 82.4112 26.8895 82.418L29.8706 82.4198L44.2025 82.4049L44.1967 56.5315C44.1968 55.4927 44.1401 54.4199 44.2009 53.3844C44.274 52.1369 46.2908 51.9404 46.4165 53.3101C46.5089 54.3149 46.4345 55.3819 46.4354 56.3941L46.4293 82.3998L54.5267 82.421L54.5154 74.0952C54.5161 73.2882 54.3978 71.8921 55.5551 71.7879C56.7908 71.6766 56.7923 72.9062 56.7933 73.7435L56.795 82.4057L73.327 82.4215C75.9172 82.4219 78.2512 82.4633 79.2433 79.3804C79.5923 78.2955 79.4453 76.9937 79.4442 75.866L79.4487 48.7797C79.4793 48.1685 79.975 47.9308 80.5059 47.7679Z" fill="#427AA1"/>
<path d="M34.7099 13.7916C41.6704 13.8878 47.6716 19.4471 50.4844 25.5149C50.6849 25.233 50.8176 24.8413 50.9752 24.5291L51.8585 22.9466C54.5146 18.5719 59.2224 14.9641 64.2449 13.9564C65.2713 13.7504 66.3677 13.6658 67.3946 13.9093L67.6299 13.9674C72.1235 15.2078 72.9062 19.7785 71.7679 23.7547C70.7955 26.7016 68.5715 29.7286 65.2699 30.1122C64.7394 30.1739 64.1704 30.133 63.636 30.133L37.2829 30.1341C36.7448 30.1346 36.1684 30.1718 35.6355 30.1077C30.1594 29.4483 26.5573 20.2279 30.2326 16.0064C31.4051 14.6596 32.9351 13.9068 34.7099 13.7916ZM65.6652 16.0839C60.0673 16.5916 54.2027 21.6494 52.444 27.0171C52.3673 27.2514 52.2444 27.565 52.2237 27.8047L56.628 27.8335L64.4394 27.836C68.1371 27.8327 70.2576 23.1118 69.9471 19.9218L69.9384 19.8236C69.7241 17.5518 67.9855 15.9249 65.6652 16.0839ZM34.6891 16.0804C31.8518 16.4388 30.7124 18.8063 31.0873 21.4714C31.5665 24.8786 33.498 27.8233 37.1571 27.831L45.251 27.8336L48.8294 27.7669C48.7034 27.5399 48.679 27.2105 48.5798 26.9605C46.7227 22.2805 42.7262 18.2321 37.919 16.6497C36.9249 16.3225 35.7433 16.0183 34.6891 16.0804Z" fill="#427AA1"/>
</g>
<defs>
<clipPath id="clip0_1380_6803">
<rect width="100" height="100" fill="white" transform="translate(0.5)"/>
</clipPath>
</defs>
</svg>
