<svg width="101" height="100" viewBox="0 0 101 100" fill="none" xmlns="http://www.w3.org/2000/svg">
<g clip-path="url(#clip0_1380_5898)">
<path d="M27.0721 72.228C28.784 71.9871 28.7348 73.7083 27.2499 74.421C25.827 74.7913 25.5129 72.9071 27.0721 72.228Z" fill="#427AA1"/>
<path d="M48.0306 26.0352L49.9412 26.0444C50.3976 26.0489 50.9167 26.0073 51.3537 26.1506C52.0665 26.9395 51.7914 27.8028 50.769 28.0161L49.0319 28.0108C48.5559 28.0067 47.87 28.0795 47.4567 27.8167C46.4809 27.1964 47.1395 26.2236 48.0306 26.0352Z" fill="#427AA1"/>
<path d="M22.6333 75.366C23.188 75.2015 23.6119 75.5966 23.7953 76.0983C24.1789 77.148 21.5261 78.5872 20.7102 78.8602C19.7828 79.0005 19.0063 78.2636 19.8157 77.4346C20.1982 77.0426 22.0472 75.7191 22.6333 75.366Z" fill="#427AA1"/>
<path d="M52.8047 41.1537C53.2556 41.1061 53.8204 41.1065 54.2598 41.2242C54.8812 41.8992 54.9548 43.1386 53.7389 43.1442L48.8783 43.1364C48.495 43.1087 47.7183 43.1694 47.4012 42.9567C46.7808 42.5403 46.9276 41.2701 47.7084 41.1909L47.7675 41.1867C48.3956 41.1251 49.0448 41.1558 49.6762 41.155L52.8047 41.1537Z" fill="#427AA1"/>
<path d="M36.6759 26.0854L42.5768 26.0459C44.3034 26.0606 44.8742 27.2829 43.4185 28.0117L39.1057 28.0143C38.479 28.0142 36.9371 28.2384 36.4392 27.8579L36.3924 27.8211C35.8067 27.3751 35.687 26.5981 36.442 26.1973L36.6759 26.0854Z" fill="#427AA1"/>
<path d="M37.0511 41.1309L40.8188 41.1541C41.6303 41.1544 42.5105 41.0817 43.315 41.1613C44.5014 41.2786 44.5133 42.9702 43.0913 43.1364L39.0275 43.1356C38.3378 43.1347 37.5359 43.2136 36.8606 43.1125C35.6531 42.9319 35.6289 41.32 37.0511 41.1309Z" fill="#427AA1"/>
<path d="M15.4603 43.9213C16.71 43.6596 16.6583 44.7563 16.66 45.5088L16.654 51.7437C16.6283 52.2431 16.3769 52.5652 15.9057 52.7545C15.4209 52.8606 14.9453 52.409 14.7374 52.014L14.7332 45.4877C14.7238 44.7963 14.6982 44.2098 15.4603 43.9213Z" fill="#427AA1"/>
<path d="M37.4786 65.2383L37.8047 65.2927C38.6036 65.5239 38.8016 66.6822 38.1313 67.1577C37.618 67.5219 37.0227 67.7967 36.4938 68.1494L33.5254 70.1511C32.9575 70.5245 32.4064 70.9228 31.7785 71.1895C30.6611 71.1794 30.2346 70.0511 31.4794 69.2066L36.033 66.0969C36.4785 65.8037 36.9664 65.3816 37.4786 65.2383Z" fill="#427AA1"/>
<path d="M55.824 26.047L61.1116 26.0376C61.909 26.0375 62.7922 25.9568 63.5766 26.0572C64.696 26.2004 64.8258 27.8089 63.3483 28.0142L58.079 28.0158C57.2611 28.0154 56.3619 28.0912 55.5535 27.9904C54.0707 27.8058 54.3613 26.0858 55.824 26.047Z" fill="#427AA1"/>
<path d="M61.4507 65.9165C62.303 65.8796 63.0577 66.564 63.7293 67.0002L80.0819 77.2865C80.9085 77.8819 81.0261 78.7908 79.9999 79.204C79.2811 79.2265 78.7191 78.779 78.1347 78.4179L61.3886 67.9244C60.4508 67.3076 60.4258 66.399 61.4507 65.9165Z" fill="#427AA1"/>
<path d="M36.6371 33.7121C37.5702 33.6093 38.6033 33.6938 39.5468 33.6938L63.343 33.7043C63.7847 33.713 64.2536 33.9623 64.3669 34.4232L64.3777 34.4729C64.5091 35.0516 64.1628 35.4896 63.6472 35.6769L37.3211 35.6552C35.6305 35.6476 35.4302 34.236 36.6371 33.7121Z" fill="#427AA1"/>
<path d="M15.4428 55.2787C16.7291 55.154 16.6585 55.941 16.6581 56.8734L16.6499 76.7341C16.6436 78.9293 16.7858 80.9649 19.5256 81.6012C20.0642 81.7262 20.7139 81.6623 21.2669 81.6602L37.4971 81.6515C37.8231 81.6507 38.2744 81.5988 38.5816 81.6948C39.6042 82.0141 39.3583 83.1232 38.5991 83.5555C37.9342 83.6863 37.1155 83.5946 36.4311 83.5935H21.2363C19.8319 83.5935 18.5842 83.5705 17.34 82.7924C16.19 82.0732 15.1038 80.5965 14.8215 79.2579L14.8099 79.1984C14.7069 78.703 14.7461 78.1609 14.747 77.6555L14.7532 57.1637C14.7536 56.7218 14.5819 55.8768 15.0016 55.5855L15.4428 55.2787Z" fill="#427AA1"/>
<path d="M49.5524 12.9573C52.1565 12.7334 53.772 13.9496 55.7732 15.4842L58.6264 17.6679C59.2371 18.1353 59.0979 18.1597 59.8748 18.1633L66.1124 18.1647C67.1065 18.1651 68.2931 18.0381 69.2551 18.2804C71.2128 18.7736 72.7156 20.2228 73.3363 22.1293C73.6585 23.1186 73.5895 24.0323 73.5915 25.0661L73.5985 44.1712C74.4095 43.2387 75.5337 42.4387 76.4712 41.63L80.9815 37.7192L78.0129 35.4223C77.4756 35.0125 76.8757 34.6312 76.3871 34.1673C75.3874 33.2186 76.4923 32.009 77.6023 32.6401C78.1854 32.9717 78.7368 33.4753 79.2773 33.8742L82.1892 36.0248C85.6737 38.6847 85.5673 40.1292 85.5679 44.1433L85.5664 76.4776C85.5623 79.6993 85.0212 82.412 81.3243 83.4137C80.4217 83.6582 79.5528 83.6042 78.6298 83.6014L43.266 83.5667C41.446 83.4986 41.7765 81.7195 42.8093 81.6481C43.8693 81.5747 44.9926 81.6517 46.0598 81.6534L78.2576 81.6546C78.9749 81.6543 79.8165 81.7351 80.5182 81.6001C83.8887 80.9514 83.5448 77.8367 83.5463 75.3181L83.5507 42.5211C83.5496 41.91 83.5795 41.2403 83.4463 40.6417L83.4257 40.5514C83.2981 39.9793 82.9717 39.4836 82.6045 39.037L60.0245 58.3679C59.3307 58.9406 58.8284 59.5342 57.9279 59.7536C55.9087 58.8311 58.2826 57.3759 59.0484 56.7115L62.8479 53.4028L71.6132 45.8592L71.5879 23.4103C71.5734 23.1217 71.5448 22.77 71.4195 22.5054L71.3843 22.4412C70.7613 21.1756 69.6601 20.1737 68.1706 20.1428L33.6003 20.1411C31.4999 20.1378 29.1862 20.5761 28.8249 23.1542C28.7223 23.8862 28.7992 24.7175 28.8015 25.4592L28.8029 46.127C28.8985 46.297 30.1174 47.2429 30.3673 47.4631L45.9238 61.2814C48.636 63.7747 50.1935 65.1418 53.4049 61.9354C53.6682 61.6728 53.959 61.2843 54.2813 61.1039L54.3328 61.0767C55.2617 60.5462 56.2862 61.7593 55.5381 62.6306C55.234 62.9848 54.8339 63.2928 54.4856 63.6042C51.209 66.5329 48.5868 66.4481 45.3179 63.4736L17.7328 38.9934L17.1049 39.8062C16.8259 40.1934 16.464 40.8484 15.9657 40.9462C15.6279 41.0125 15.1869 40.6681 15.147 40.3317C14.8543 37.8659 19.166 35.2015 20.7937 34.0101C21.4626 33.5204 23.1003 31.8014 23.946 32.6915C24.9971 33.7979 23.4548 34.5173 22.7167 35.0573L19.1832 37.6793L26.3195 43.9208C26.4956 44.0728 26.6943 44.1554 26.8389 44.3431L26.8645 25.2248C26.8646 24.5218 26.7931 23.7275 26.9139 23.0373C27.3196 20.719 28.6937 18.9811 31.0418 18.3425C31.9474 18.0962 32.9662 18.1697 33.8992 18.1697L38.8323 18.1725C39.4246 18.1729 41.1545 18.4253 41.5382 17.9333L41.5784 17.8795C41.7132 17.7175 41.919 17.5865 42.0862 17.4589L45.6318 14.7468C46.8953 13.7982 47.9514 13.1425 49.5524 12.9573ZM49.7249 14.9606C48.3457 15.1184 47.5457 15.6792 46.4695 16.5275L44.4437 18.1878L50.7828 18.1665L55.9159 18.1317C55.5232 17.9615 54.9546 17.3589 54.6053 17.0687C53.4515 16.11 52.1454 15.0245 50.5771 14.9456L49.7249 14.9606Z" fill="#427AA1"/>
</g>
<defs>
<clipPath id="clip0_1380_5898">
<rect width="100" height="100" fill="white" transform="translate(0.5)"/>
</clipPath>
</defs>
</svg>
