<svg width="160" height="44" viewBox="0 0 160 44" fill="none" xmlns="http://www.w3.org/2000/svg">
  <path d="M44.2397 11.4999H10.9358L22.3685 0H55.6724V10.4999L44.2397 21.9998V11.4999Z" fill="#121820" />
  <path d="M33.3039 33.5001H0L11.4327 22.0002H44.7366V32.5001L33.3039 44V33.5001Z" fill="#121820" />
  <path d="M68.2648 28.1597L71.6768 10.7111L72.5082 11.7782H65.1395L65.885 7.97128H83.289L82.5435 11.7782H75.0027L76.2643 10.7111L72.8523 28.1597H68.2648Z" fill="#121820" />
  <path d="M91.7392 16.1043H101.402L100.685 19.7383H91.0224L91.7392 16.1043ZM90.4202 24.4105H101.373L100.599 28.1597H85.0586L89.0727 7.97128H104.24L103.466 11.7206H92.9434L90.4202 24.4105Z" fill="#121820" />
  <path d="M107.246 28.1597L111.261 7.97128H115.045L120.751 22.2762L118.744 22.2474L129.84 7.97128H133.826L129.84 28.1597H125.511L128.177 14.6335H129.037L120.206 26.0255H118.113L113.411 14.6046L114.242 14.6912L111.576 28.1597H107.246Z" fill="#121820" />
  <path d="M137.722 28.1597L141.736 7.97128H160L155.986 28.1597H151.398L154.782 10.7111L155.613 11.7782H144.431L145.721 10.7111L142.309 28.1597H137.722Z" fill="#121820" />
  <path d="M66.8487 39.9206L68.7102 35.6669H69.6105L67.1724 41.1723H66.5249L64.0969 35.6669H64.9973L66.8487 39.9206ZM64.7241 35.6669V41.1723H63.7883V35.6669H64.7241ZM68.9428 41.1723V35.6669H69.8837V41.1723H68.9428Z" fill="#121820" />
  <path d="M72.1792 38.4807V38.3636C72.1792 37.9668 72.2365 37.5987 72.3512 37.2595C72.4658 36.9169 72.6311 36.6201 72.8469 36.3691C73.0627 36.1147 73.3241 35.9179 73.631 35.7789C73.9378 35.6364 74.2818 35.5652 74.6629 35.5652C75.0473 35.5652 75.393 35.6364 75.6998 35.7789C76.0101 35.9179 76.2731 36.1147 76.489 36.3691C76.7082 36.6201 76.8751 36.9169 76.9897 37.2595C77.1044 37.5987 77.1617 37.9668 77.1617 38.3636V38.4807C77.1617 38.8775 77.1044 39.2456 76.9897 39.5848C76.8751 39.924 76.7082 40.2208 76.489 40.4752C76.2731 40.7262 76.0118 40.923 75.7049 41.0654C75.4014 41.2045 75.0574 41.274 74.673 41.274C74.2885 41.274 73.9429 41.2045 73.636 41.0654C73.3291 40.923 73.0661 40.7262 72.8469 40.4752C72.6311 40.2208 72.4658 39.924 72.3512 39.5848C72.2365 39.2456 72.1792 38.8775 72.1792 38.4807ZM73.115 38.3636V38.4807C73.115 38.7554 73.147 39.0149 73.2111 39.2591C73.2752 39.5 73.3713 39.7137 73.4994 39.9002C73.631 40.0868 73.7945 40.2344 73.9901 40.3429C74.1857 40.4481 74.4133 40.5006 74.673 40.5006C74.9293 40.5006 75.1535 40.4481 75.3457 40.3429C75.5413 40.2344 75.7032 40.0868 75.8314 39.9002C75.9595 39.7137 76.0556 39.5 76.1197 39.2591C76.1871 39.0149 76.2209 38.7554 76.2209 38.4807V38.3636C76.2209 38.0923 76.1871 37.8362 76.1197 37.5953C76.0556 37.3511 75.9578 37.1357 75.8263 36.9491C75.6982 36.7592 75.5363 36.6099 75.3407 36.5014C75.1485 36.3928 74.9225 36.3386 74.6629 36.3386C74.4066 36.3386 74.1806 36.3928 73.985 36.5014C73.7928 36.6099 73.631 36.7592 73.4994 36.9491C73.3713 37.1357 73.2752 37.3511 73.2111 37.5953C73.147 37.8362 73.115 38.0923 73.115 38.3636Z" fill="#121820" />
  <path d="M81.4907 35.6669V41.1723H80.5498V35.6669H81.4907ZM83.3269 35.6669V36.4301H78.749V35.6669H83.3269Z" fill="#121820" />
  <path d="M84.8232 38.4807V38.3636C84.8232 37.9668 84.8805 37.5987 84.9951 37.2595C85.1098 36.9169 85.275 36.6201 85.4909 36.3691C85.7067 36.1147 85.968 35.9179 86.2749 35.7789C86.5818 35.6364 86.9258 35.5652 87.3068 35.5652C87.6913 35.5652 88.0369 35.6364 88.3438 35.7789C88.654 35.9179 88.9171 36.1147 89.1329 36.3691C89.3521 36.6201 89.519 36.9169 89.6337 37.2595C89.7483 37.5987 89.8057 37.9668 89.8057 38.3636V38.4807C89.8057 38.8775 89.7483 39.2456 89.6337 39.5848C89.519 39.924 89.3521 40.2208 89.1329 40.4752C88.9171 40.7262 88.6557 40.923 88.3489 41.0654C88.0453 41.2045 87.7014 41.274 87.3169 41.274C86.9325 41.274 86.5869 41.2045 86.28 41.0654C85.9731 40.923 85.7101 40.7262 85.4909 40.4752C85.275 40.2208 85.1098 39.924 84.9951 39.5848C84.8805 39.2456 84.8232 38.8775 84.8232 38.4807ZM85.759 38.3636V38.4807C85.759 38.7554 85.791 39.0149 85.8551 39.2591C85.9191 39.5 86.0153 39.7137 86.1434 39.9002C86.2749 40.0868 86.4385 40.2344 86.6341 40.3429C86.8296 40.4481 87.0573 40.5006 87.3169 40.5006C87.5732 40.5006 87.7975 40.4481 87.9897 40.3429C88.1853 40.2344 88.3472 40.0868 88.4753 39.9002C88.6035 39.7137 88.6996 39.5 88.7636 39.2591C88.8311 39.0149 88.8648 38.7554 88.8648 38.4807V38.3636C88.8648 38.0923 88.8311 37.8362 88.7636 37.5953C88.6996 37.3511 88.6018 37.1357 88.4703 36.9491C88.3421 36.7592 88.1802 36.6099 87.9846 36.5014C87.7924 36.3928 87.5665 36.3386 87.3068 36.3386C87.0505 36.3386 86.8246 36.3928 86.629 36.5014C86.4368 36.6099 86.2749 36.7592 86.1434 36.9491C86.0153 37.1357 85.9191 37.3511 85.8551 37.5953C85.791 37.8362 85.759 38.0923 85.759 38.3636Z" fill="#121820" />
  <path d="M92.951 36.7253V43.2889H92.0101V35.6669H92.87L92.951 36.7253ZM96.6386 38.3738V38.4807C96.6386 38.8809 96.5913 39.2524 96.4969 39.595C96.4025 39.9342 96.2642 40.2293 96.0821 40.4803C95.9034 40.7313 95.6825 40.9264 95.4195 41.0654C95.1564 41.2045 94.8546 41.274 94.514 41.274C94.1667 41.274 93.8598 41.2164 93.5934 41.101C93.327 40.9857 93.1011 40.8178 92.9156 40.5973C92.7301 40.3768 92.5817 40.1123 92.4704 39.8036C92.3625 39.4949 92.2883 39.1472 92.2479 38.7605V38.1906C92.2883 37.7836 92.3642 37.4189 92.4755 37.0967C92.5868 36.7744 92.7335 36.4997 92.9156 36.2724C93.1011 36.0417 93.3253 35.8671 93.5883 35.7483C93.8514 35.6262 94.1549 35.5652 94.4988 35.5652C94.8428 35.5652 95.148 35.633 95.4144 35.7687C95.6808 35.901 95.9051 36.0909 96.0872 36.3386C96.2693 36.5862 96.4059 36.883 96.4969 37.229C96.5913 37.5716 96.6386 37.9532 96.6386 38.3738ZM95.6977 38.4807V38.3738C95.6977 38.099 95.669 37.8412 95.6117 37.6004C95.5544 37.3562 95.465 37.1425 95.3436 36.9593C95.2256 36.7727 95.0738 36.6269 94.8884 36.5217C94.7029 36.4132 94.482 36.3589 94.2257 36.3589C93.9896 36.3589 93.7839 36.3996 93.6086 36.481C93.4366 36.5624 93.2899 36.6727 93.1685 36.8118C93.0471 36.9474 92.9476 37.1035 92.87 37.2799C92.7959 37.4529 92.7402 37.6326 92.7031 37.8192V39.137C92.7706 39.3745 92.865 39.5984 92.9864 39.8087C93.1078 40.0156 93.2697 40.1835 93.472 40.3124C93.6743 40.4379 93.9289 40.5006 94.2358 40.5006C94.4887 40.5006 94.7062 40.4481 94.8884 40.3429C95.0738 40.2344 95.2256 40.0868 95.3436 39.9002C95.465 39.7137 95.5544 39.5 95.6117 39.2591C95.669 39.0149 95.6977 38.7554 95.6977 38.4807Z" fill="#121820" />
  <path d="M102.581 38.0533V38.8165H99.6878V38.0533H102.581ZM99.885 35.6669V41.1723H98.9492V35.6669H99.885ZM103.34 35.6669V41.1723H102.399V35.6669H103.34Z" fill="#121820" />
  <path d="M106.652 37.5597H108.296C108.738 37.5597 109.111 37.6377 109.414 37.7938C109.718 37.9464 109.947 38.1584 110.102 38.4298C110.26 38.6978 110.34 39.003 110.34 39.3456C110.34 39.6 110.296 39.8392 110.208 40.0631C110.121 40.2836 109.989 40.4769 109.814 40.6431C109.642 40.8093 109.428 40.9399 109.171 41.0349C108.918 41.1265 108.627 41.1723 108.296 41.1723H105.969V35.6669H106.905V40.3989H108.296C108.566 40.3989 108.782 40.3497 108.944 40.2513C109.105 40.153 109.222 40.0258 109.293 39.8697C109.363 39.7137 109.399 39.5509 109.399 39.3813C109.399 39.215 109.363 39.0522 109.293 38.8928C109.222 38.7334 109.105 38.6011 108.944 38.4959C108.782 38.3874 108.566 38.3331 108.296 38.3331H106.652V37.5597ZM112.287 35.6669V41.1723H111.351V35.6669H112.287Z" fill="#121820" />
  <path d="M117.233 41.274C116.852 41.274 116.507 41.2096 116.196 41.0807C115.889 40.9484 115.625 40.7635 115.402 40.5261C115.183 40.2886 115.014 40.0071 114.896 39.6815C114.778 39.3558 114.719 38.9996 114.719 38.6129V38.3992C114.719 37.9515 114.785 37.5529 114.917 37.2035C115.048 36.8508 115.227 36.5523 115.453 36.308C115.679 36.0638 115.935 35.8789 116.222 35.7534C116.508 35.6279 116.805 35.5652 117.112 35.5652C117.503 35.5652 117.84 35.633 118.124 35.7687C118.41 35.9044 118.645 36.0943 118.827 36.3386C119.009 36.5794 119.144 36.8643 119.231 37.1934C119.319 37.519 119.363 37.8752 119.363 38.2619V38.6842H115.276V37.9159H118.427V37.8446C118.414 37.6004 118.363 37.363 118.275 37.1323C118.191 36.9016 118.056 36.7117 117.871 36.5624C117.685 36.4132 117.432 36.3386 117.112 36.3386C116.899 36.3386 116.704 36.3843 116.525 36.4759C116.346 36.5641 116.193 36.6964 116.065 36.8728C115.937 37.0492 115.837 37.2646 115.766 37.519C115.696 37.7734 115.66 38.0668 115.66 38.3992V38.6129C115.66 38.8741 115.696 39.1201 115.766 39.3507C115.841 39.578 115.947 39.7781 116.085 39.9511C116.227 40.1241 116.397 40.2598 116.596 40.3582C116.798 40.4565 117.028 40.5057 117.284 40.5057C117.614 40.5057 117.894 40.4379 118.124 40.3022C118.353 40.1665 118.554 39.9851 118.726 39.7578L119.292 40.2106C119.174 40.3904 119.024 40.5617 118.842 40.7245C118.66 40.8873 118.436 41.0196 118.169 41.1214C117.906 41.2232 117.594 41.274 117.233 41.274Z" fill="#121820" />
  <path d="M128.243 39.9206L130.105 35.6669H131.005L128.567 41.1723H127.92L125.492 35.6669H126.392L128.243 39.9206ZM126.119 35.6669V41.1723H125.183V35.6669H126.119ZM130.338 41.1723V35.6669H131.278V41.1723H130.338Z" fill="#121820" />
  <path d="M137.049 40.231V37.3969C137.049 37.1798 137.005 36.9915 136.918 36.8321C136.833 36.6693 136.705 36.5438 136.533 36.4556C136.361 36.3674 136.149 36.3233 135.896 36.3233C135.66 36.3233 135.452 36.364 135.274 36.4454C135.098 36.5268 134.96 36.6337 134.859 36.766C134.761 36.8983 134.712 37.0407 134.712 37.1934H133.776C133.776 36.9966 133.827 36.8016 133.928 36.6082C134.029 36.4149 134.174 36.2402 134.363 36.0841C134.555 35.9247 134.785 35.7992 135.051 35.7076C135.321 35.6126 135.621 35.5652 135.951 35.5652C136.349 35.5652 136.7 35.633 137.004 35.7687C137.31 35.9044 137.55 36.1096 137.722 36.3843C137.897 36.6557 137.985 36.9966 137.985 37.4071V39.9715C137.985 40.1547 138 40.3497 138.03 40.5566C138.064 40.7635 138.113 40.9416 138.177 41.0909V41.1723H137.201C137.154 41.0637 137.116 40.9196 137.09 40.7398C137.063 40.5566 137.049 40.387 137.049 40.231ZM137.211 37.8345L137.221 38.4959H136.275C136.009 38.4959 135.771 38.518 135.562 38.5621C135.353 38.6028 135.177 38.6655 135.036 38.7503C134.894 38.8351 134.786 38.942 134.712 39.0709C134.638 39.1964 134.601 39.3439 134.601 39.5135C134.601 39.6865 134.64 39.8443 134.717 39.9867C134.795 40.1292 134.911 40.2428 135.066 40.3276C135.225 40.4091 135.419 40.4498 135.648 40.4498C135.935 40.4498 136.187 40.3887 136.407 40.2666C136.626 40.1445 136.799 39.9952 136.928 39.8188C137.059 39.6425 137.13 39.4711 137.14 39.3049L137.54 39.7578C137.516 39.9002 137.452 40.058 137.348 40.231C137.243 40.404 137.103 40.5702 136.928 40.7296C136.756 40.8857 136.55 41.0162 136.311 41.1214C136.074 41.2232 135.808 41.274 135.511 41.274C135.14 41.274 134.815 41.2011 134.535 41.0553C134.258 40.9094 134.043 40.7143 133.888 40.4701C133.736 40.2225 133.66 39.946 133.66 39.6408C133.66 39.3456 133.717 39.0861 133.832 38.8623C133.947 38.635 134.112 38.4467 134.328 38.2975C134.543 38.1448 134.803 38.0295 135.107 37.9515C135.41 37.8735 135.749 37.8345 136.123 37.8345H137.211Z" fill="#121820" />
  <path d="M142.683 40.5006C142.906 40.5006 143.111 40.4549 143.3 40.3633C143.489 40.2717 143.644 40.1462 143.766 39.9867C143.887 39.8239 143.956 39.6391 143.973 39.4321H144.863C144.846 39.7578 144.737 40.0614 144.534 40.3429C144.335 40.6211 144.074 40.8466 143.75 41.0196C143.427 41.1892 143.071 41.274 142.683 41.274C142.272 41.274 141.913 41.2011 141.606 41.0553C141.302 40.9094 141.049 40.7093 140.847 40.4549C140.648 40.2004 140.498 39.9087 140.397 39.5797C140.299 39.2473 140.25 38.8962 140.25 38.5265V38.3128C140.25 37.943 140.299 37.5936 140.397 37.2646C140.498 36.9322 140.648 36.6388 140.847 36.3843C141.049 36.1299 141.302 35.9298 141.606 35.7839C141.913 35.6381 142.272 35.5652 142.683 35.5652C143.111 35.5652 143.486 35.6534 143.806 35.8297C144.126 36.0027 144.378 36.2402 144.56 36.5421C144.745 36.8406 144.846 37.1798 144.863 37.5597H143.973C143.956 37.3324 143.892 37.1272 143.781 36.944C143.673 36.7609 143.524 36.615 143.336 36.5065C143.15 36.3945 142.933 36.3386 142.683 36.3386C142.396 36.3386 142.155 36.3962 141.96 36.5116C141.768 36.6235 141.614 36.7761 141.499 36.9695C141.388 37.1594 141.307 37.3714 141.257 37.6055C141.209 37.8362 141.186 38.0719 141.186 38.3128V38.5265C141.186 38.7673 141.209 39.0047 141.257 39.2388C141.304 39.4728 141.383 39.6849 141.494 39.8748C141.609 40.0648 141.762 40.2174 141.955 40.3327C142.15 40.4447 142.393 40.5006 142.683 40.5006Z" fill="#121820" />
  <path d="M150.609 35.6669V36.4454H147.963V35.6669H150.609ZM151.433 35.6669V41.1723H150.497V35.6669H151.433ZM147.735 35.6669H148.676L148.535 38.3229C148.511 38.7334 148.472 39.0963 148.418 39.4118C148.368 39.7239 148.297 39.9918 148.206 40.2157C148.118 40.4396 148.007 40.6228 147.872 40.7652C147.74 40.9043 147.582 41.0078 147.396 41.0756C147.211 41.1401 146.997 41.1723 146.754 41.1723H146.461V40.3429L146.663 40.3276C146.808 40.3175 146.931 40.2836 147.032 40.2259C147.137 40.1682 147.225 40.0834 147.295 39.9715C147.366 39.8562 147.423 39.7086 147.467 39.5288C147.515 39.349 147.55 39.1353 147.574 38.8877C147.601 38.6401 147.621 38.3518 147.634 38.0227L147.735 35.6669Z" fill="#121820" />
  <path d="M157.204 40.231V37.3969C157.204 37.1798 157.16 36.9915 157.072 36.8321C156.988 36.6693 156.86 36.5438 156.688 36.4556C156.516 36.3674 156.303 36.3233 156.05 36.3233C155.814 36.3233 155.607 36.364 155.428 36.4454C155.253 36.5268 155.115 36.6337 155.013 36.766C154.916 36.8983 154.867 37.0407 154.867 37.1934H153.931C153.931 36.9966 153.982 36.8016 154.083 36.6082C154.184 36.4149 154.329 36.2402 154.518 36.0841C154.71 35.9247 154.939 35.7992 155.206 35.7076C155.475 35.6126 155.776 35.5652 156.106 35.5652C156.504 35.5652 156.855 35.633 157.158 35.7687C157.465 35.9044 157.704 36.1096 157.876 36.3843C158.052 36.6557 158.14 36.9966 158.14 37.4071V39.9715C158.14 40.1547 158.155 40.3497 158.185 40.5566C158.219 40.7635 158.268 40.9416 158.332 41.0909V41.1723H157.355C157.308 41.0637 157.271 40.9196 157.244 40.7398C157.217 40.5566 157.204 40.387 157.204 40.231ZM157.366 37.8345L157.376 38.4959H156.43C156.163 38.4959 155.926 38.518 155.717 38.5621C155.507 38.6028 155.332 38.6655 155.19 38.7503C155.049 38.8351 154.941 38.942 154.867 39.0709C154.793 39.1964 154.755 39.3439 154.755 39.5135C154.755 39.6865 154.794 39.8443 154.872 39.9867C154.949 40.1292 155.066 40.2428 155.221 40.3276C155.379 40.4091 155.573 40.4498 155.803 40.4498C156.089 40.4498 156.342 40.3887 156.561 40.2666C156.78 40.1445 156.954 39.9952 157.082 39.8188C157.214 39.6425 157.285 39.4711 157.295 39.3049L157.694 39.7578C157.671 39.9002 157.607 40.058 157.502 40.231C157.398 40.404 157.258 40.5702 157.082 40.7296C156.91 40.8857 156.705 41.0162 156.465 41.1214C156.229 41.2232 155.963 41.274 155.666 41.274C155.295 41.274 154.97 41.2011 154.69 41.0553C154.413 40.9094 154.197 40.7143 154.042 40.4701C153.89 40.2225 153.815 39.946 153.815 39.6408C153.815 39.3456 153.872 39.0861 153.987 38.8623C154.101 38.635 154.266 38.4467 154.482 38.2975C154.698 38.1448 154.958 38.0295 155.261 37.9515C155.565 37.8735 155.904 37.8345 156.278 37.8345H157.366Z" fill="#121820" />
</svg>