<svg width="256" height="70" viewBox="0 0 256 70" fill="none" xmlns="http://www.w3.org/2000/svg">
  <path d="M70.7835 18.2953H17.4973L35.7896 0H89.0758V16.7044L70.7835 34.9997V18.2953Z" fill="white" />
  <path d="M53.2862 53.2956H0L18.2923 35.0003H71.5785V51.7047L53.2862 70V53.2956Z" fill="white" />
  <path d="M109.224 44.7996L114.683 17.0405L116.013 18.7381H104.223L105.416 12.6816H133.262L132.07 18.7381H120.004L122.023 17.0405L116.564 44.7996H109.224Z" fill="white" />
  <path d="M146.783 25.6206H162.243L161.096 31.4018H145.636L146.783 25.6206ZM144.672 38.8348H162.197L160.958 44.7996H136.094L142.516 12.6816H166.784L165.546 18.6464H148.709L144.672 38.8348Z" fill="white" />
  <path d="M171.594 44.7996L178.017 12.6816H184.072L193.202 35.4395L189.99 35.3936L207.744 12.6816H214.121L207.744 44.7996H200.817L205.083 23.2805H206.46L192.33 41.4043H188.981L181.458 23.2346L182.788 23.3723L178.522 44.7996H171.594Z" fill="white" />
  <path d="M220.355 44.7996L226.777 12.6816H256L249.577 44.7996H242.237L247.651 17.0405L248.981 18.7381H231.09L233.154 17.0405L227.695 44.7996H220.355Z" fill="white" />
  <path d="M106.958 63.51L109.936 56.7428H111.377L107.476 65.5014H106.44L102.555 56.7428H103.996L106.958 63.51ZM103.559 56.7428V65.5014H102.061V56.7428H103.559ZM110.309 65.5014V56.7428H111.814V65.5014H110.309Z" fill="white" />
  <path d="M115.487 61.2192V61.033C115.487 60.4017 115.578 59.8161 115.762 59.2765C115.945 58.7314 116.21 58.2592 116.555 57.8599C116.9 57.4552 117.319 57.1422 117.81 56.9209C118.301 56.6943 118.851 56.5809 119.461 56.5809C120.076 56.5809 120.629 56.6943 121.12 56.9209C121.616 57.1422 122.037 57.4552 122.382 57.8599C122.733 58.2592 123 58.7314 123.184 59.2765C123.367 59.8161 123.459 60.4017 123.459 61.033V61.2192C123.459 61.8506 123.367 62.4361 123.184 62.9758C123 63.5154 122.733 63.9876 122.382 64.3924C122.037 64.7917 121.619 65.1047 121.128 65.3314C120.642 65.5526 120.092 65.6632 119.477 65.6632C118.862 65.6632 118.309 65.5526 117.818 65.3314C117.327 65.1047 116.906 64.7917 116.555 64.3924C116.21 63.9876 115.945 63.5154 115.762 62.9758C115.578 62.4361 115.487 61.8506 115.487 61.2192ZM116.984 61.033V61.2192C116.984 61.6563 117.035 62.0692 117.138 62.4577C117.24 62.8409 117.394 63.1809 117.599 63.4777C117.81 63.7745 118.071 64.0092 118.384 64.1819C118.697 64.3492 119.061 64.4328 119.477 64.4328C119.887 64.4328 120.246 64.3492 120.553 64.1819C120.866 64.0092 121.125 63.7745 121.33 63.4777C121.535 63.1809 121.689 62.8409 121.791 62.4577C121.899 62.0692 121.953 61.6563 121.953 61.2192V61.033C121.953 60.6013 121.899 60.1939 121.791 59.8107C121.689 59.4222 121.533 59.0795 121.322 58.7827C121.117 58.4805 120.858 58.2431 120.545 58.0704C120.238 57.8977 119.876 57.8113 119.461 57.8113C119.051 57.8113 118.689 57.8977 118.376 58.0704C118.069 58.2431 117.81 58.4805 117.599 58.7827C117.394 59.0795 117.24 59.4222 117.138 59.8107C117.035 60.1939 116.984 60.6013 116.984 61.033Z" fill="white" />
  <path d="M130.385 56.7428V65.5014H128.88V56.7428H130.385ZM133.323 56.7428V57.957H125.998V56.7428H133.323Z" fill="white" />
  <path d="M135.717 61.2192V61.033C135.717 60.4017 135.809 59.8161 135.992 59.2765C136.176 58.7314 136.44 58.2592 136.785 57.8599C137.131 57.4552 137.549 57.1422 138.04 56.9209C138.531 56.6943 139.081 56.5809 139.691 56.5809C140.306 56.5809 140.859 56.6943 141.35 56.9209C141.846 57.1422 142.267 57.4552 142.613 57.8599C142.963 58.2592 143.23 58.7314 143.414 59.2765C143.597 59.8161 143.689 60.4017 143.689 61.033V61.2192C143.689 61.8506 143.597 62.4361 143.414 62.9758C143.23 63.5154 142.963 63.9876 142.613 64.3924C142.267 64.7917 141.849 65.1047 141.358 65.3314C140.873 65.5526 140.322 65.6632 139.707 65.6632C139.092 65.6632 138.539 65.5526 138.048 65.3314C137.557 65.1047 137.136 64.7917 136.785 64.3924C136.44 63.9876 136.176 63.5154 135.992 62.9758C135.809 62.4361 135.717 61.8506 135.717 61.2192ZM137.214 61.033V61.2192C137.214 61.6563 137.266 62.0692 137.368 62.4577C137.471 62.8409 137.624 63.1809 137.829 63.4777C138.04 63.7745 138.302 64.0092 138.614 64.1819C138.927 64.3492 139.292 64.4328 139.707 64.4328C140.117 64.4328 140.476 64.3492 140.784 64.1819C141.096 64.0092 141.355 63.7745 141.561 63.4777C141.766 63.1809 141.919 62.8409 142.022 62.4577C142.13 62.0692 142.184 61.6563 142.184 61.2192V61.033C142.184 60.6013 142.13 60.1939 142.022 59.8107C141.919 59.4222 141.763 59.0795 141.552 58.7827C141.347 58.4805 141.088 58.2431 140.775 58.0704C140.468 57.8977 140.106 57.8113 139.691 57.8113C139.281 57.8113 138.919 57.8977 138.606 58.0704C138.299 58.2431 138.04 58.4805 137.829 58.7827C137.624 59.0795 137.471 59.4222 137.368 59.8107C137.266 60.1939 137.214 60.6013 137.214 61.033Z" fill="white" />
  <path d="M148.722 58.4265V68.8688H147.216V56.7428H148.592L148.722 58.4265ZM154.622 61.0492V61.2192C154.622 61.856 154.546 62.4469 154.395 62.992C154.244 63.5316 154.023 64.0011 153.731 64.4005C153.445 64.7998 153.092 65.1101 152.671 65.3314C152.25 65.5526 151.767 65.6632 151.222 65.6632C150.667 65.6632 150.176 65.5715 149.749 65.388C149.323 65.2045 148.962 64.9374 148.665 64.5866C148.368 64.2359 148.131 63.8149 147.953 63.3239C147.78 62.8328 147.661 62.2796 147.597 61.6644V60.7578C147.661 60.1102 147.783 59.5301 147.961 59.0175C148.139 58.5048 148.374 58.0677 148.665 57.7061C148.962 57.3391 149.32 57.0612 149.741 56.8723C150.162 56.6781 150.648 56.5809 151.198 56.5809C151.749 56.5809 152.237 56.6889 152.663 56.9047C153.089 57.1152 153.448 57.4174 153.739 57.8113C154.031 58.2053 154.249 58.6775 154.395 59.2279C154.546 59.773 154.622 60.3801 154.622 61.0492ZM153.116 61.2192V61.0492C153.116 60.6121 153.07 60.202 152.979 59.8188C152.887 59.4303 152.744 59.0903 152.55 58.7989C152.361 58.5021 152.118 58.27 151.821 58.1027C151.525 57.9301 151.171 57.8437 150.761 57.8437C150.383 57.8437 150.054 57.9085 149.774 58.038C149.499 58.1675 149.264 58.3429 149.07 58.5642C148.875 58.78 148.716 59.0282 148.592 59.3089C148.473 59.5841 148.384 59.8701 148.325 60.1669V62.2634C148.433 62.6412 148.584 62.9974 148.778 63.332C148.972 63.6611 149.231 63.9283 149.555 64.1333C149.879 64.333 150.286 64.4328 150.777 64.4328C151.182 64.4328 151.53 64.3492 151.821 64.1819C152.118 64.0092 152.361 63.7745 152.55 63.4777C152.744 63.1809 152.887 62.8409 152.979 62.4577C153.07 62.0692 153.116 61.6563 153.116 61.2192Z" fill="white" />
  <path d="M164.13 60.5393V61.7535H159.5V60.5393H164.13ZM159.816 56.7428V65.5014H158.319V56.7428H159.816ZM165.344 56.7428V65.5014H163.838V56.7428H165.344Z" fill="white" />
  <path d="M170.643 59.7541H173.274C173.981 59.7541 174.577 59.8782 175.062 60.1264C175.548 60.3693 175.915 60.7066 176.163 61.1383C176.417 61.5646 176.544 62.0503 176.544 62.5953C176.544 63.0001 176.473 63.3805 176.333 63.7367C176.193 64.0875 175.982 64.3951 175.702 64.6595C175.427 64.9239 175.084 65.1317 174.674 65.2828C174.269 65.4285 173.803 65.5014 173.274 65.5014H169.551V56.7428H171.048V64.271H173.274C173.705 64.271 174.051 64.1927 174.31 64.0362C174.569 63.8797 174.755 63.6773 174.868 63.4291C174.982 63.1809 175.038 62.9218 175.038 62.652C175.038 62.3876 174.982 62.1285 174.868 61.8749C174.755 61.6213 174.569 61.4108 174.31 61.2435C174.051 61.0708 173.705 60.9845 173.274 60.9845H170.643V59.7541ZM179.66 56.7428V65.5014H178.162V56.7428H179.66Z" fill="white" />
  <path d="M187.573 65.6632C186.964 65.6632 186.41 65.5607 185.914 65.3557C185.423 65.1452 185 64.8511 184.643 64.4733C184.293 64.0956 184.023 63.6477 183.834 63.1296C183.645 62.6115 183.551 62.0449 183.551 61.4297V61.0897C183.551 60.3774 183.656 59.7433 183.866 59.1874C184.077 58.6262 184.363 58.1513 184.724 57.7628C185.086 57.3742 185.496 57.0801 185.955 56.8804C186.413 56.6808 186.888 56.5809 187.379 56.5809C188.005 56.5809 188.544 56.6889 188.998 56.9047C189.456 57.1206 189.831 57.4228 190.123 57.8113C190.414 58.1945 190.63 58.6478 190.77 59.1713C190.91 59.6893 190.981 60.256 190.981 60.8712V61.543H184.441V60.3207H189.483V60.2074C189.462 59.8188 189.381 59.4411 189.241 59.0741C189.106 58.7072 188.89 58.405 188.593 58.1675C188.296 57.9301 187.892 57.8113 187.379 57.8113C187.039 57.8113 186.726 57.8842 186.44 58.0299C186.154 58.1702 185.909 58.3807 185.704 58.6613C185.499 58.9419 185.339 59.2846 185.226 59.6893C185.113 60.0941 185.056 60.5609 185.056 61.0897V61.4297C185.056 61.8452 185.113 62.2365 185.226 62.6034C185.345 62.965 185.515 63.2834 185.736 63.5586C185.963 63.8338 186.235 64.0497 186.553 64.2062C186.877 64.3627 187.244 64.4409 187.654 64.4409C188.183 64.4409 188.631 64.333 188.998 64.1172C189.365 63.9013 189.686 63.6126 189.961 63.251L190.867 63.9715C190.678 64.2575 190.438 64.53 190.147 64.789C189.856 65.048 189.497 65.2585 189.071 65.4204C188.65 65.5823 188.151 65.6632 187.573 65.6632Z" fill="white" />
  <path d="M205.189 63.51L208.168 56.7428H209.608L205.707 65.5014H204.671L200.787 56.7428H202.227L205.189 63.51ZM201.79 56.7428V65.5014H200.293V56.7428H201.79ZM208.54 65.5014V56.7428H210.045V65.5014H208.54Z" fill="white" />
  <path d="M219.278 64.0038V59.495C219.278 59.1497 219.208 58.8502 219.068 58.5965C218.933 58.3375 218.728 58.1378 218.453 57.9975C218.178 57.8572 217.838 57.787 217.433 57.787C217.055 57.787 216.724 57.8518 216.438 57.9813C216.157 58.1108 215.936 58.2808 215.774 58.4913C215.618 58.7018 215.539 58.9284 215.539 59.1713H214.042C214.042 58.8583 214.123 58.548 214.285 58.2404C214.447 57.9328 214.679 57.6548 214.981 57.4066C215.288 57.153 215.655 56.9533 216.082 56.8076C216.513 56.6565 216.993 56.5809 217.522 56.5809C218.159 56.5809 218.72 56.6889 219.206 56.9047C219.697 57.1206 220.08 57.4471 220.355 57.8842C220.635 58.3159 220.776 58.8583 220.776 59.5112V63.591C220.776 63.8824 220.8 64.1927 220.849 64.5219C220.903 64.8511 220.981 65.1344 221.083 65.3718V65.5014H219.521C219.446 65.3287 219.386 65.0993 219.343 64.8133C219.3 64.5219 219.278 64.2521 219.278 64.0038ZM219.537 60.1912L219.554 61.2435H218.04C217.614 61.2435 217.234 61.2786 216.899 61.3487C216.564 61.4135 216.284 61.5133 216.057 61.6482C215.831 61.7832 215.658 61.9532 215.539 62.1582C215.421 62.3579 215.361 62.5926 215.361 62.8625C215.361 63.1377 215.423 63.3886 215.547 63.6153C215.671 63.8419 215.858 64.0227 216.106 64.1576C216.359 64.2871 216.67 64.3519 217.037 64.3519C217.495 64.3519 217.9 64.2548 218.251 64.0605C218.601 63.8662 218.879 63.6288 219.084 63.3482C219.295 63.0675 219.408 62.795 219.424 62.5306L220.064 63.251C220.026 63.4777 219.923 63.7286 219.756 64.0038C219.589 64.279 219.365 64.5435 219.084 64.7971C218.809 65.0453 218.48 65.2531 218.097 65.4204C217.719 65.5823 217.293 65.6632 216.818 65.6632C216.225 65.6632 215.704 65.5472 215.256 65.3152C214.814 65.0831 214.468 64.7728 214.22 64.3843C213.977 63.9903 213.856 63.5505 213.856 63.0648C213.856 62.5953 213.948 62.1825 214.131 61.8263C214.314 61.4648 214.579 61.1653 214.924 60.9278C215.27 60.685 215.685 60.5015 216.171 60.3774C216.656 60.2533 217.198 60.1912 217.797 60.1912H219.537Z" fill="white" />
  <path d="M228.293 64.4328C228.649 64.4328 228.978 64.36 229.28 64.2143C229.582 64.0686 229.831 63.8689 230.025 63.6153C230.219 63.3562 230.33 63.0621 230.357 62.7329H231.781C231.754 63.251 231.579 63.734 231.255 64.1819C230.937 64.6244 230.519 64.9833 230.001 65.2585C229.483 65.5283 228.913 65.6632 228.293 65.6632C227.635 65.6632 227.06 65.5472 226.569 65.3152C226.083 65.0831 225.679 64.7647 225.355 64.36C225.037 63.9553 224.797 63.4912 224.635 62.9677C224.478 62.4388 224.4 61.8803 224.4 61.2921V60.9521C224.4 60.3639 224.478 59.808 224.635 59.2846C224.797 58.7557 225.037 58.2889 225.355 57.8842C225.679 57.4795 226.083 57.1611 226.569 56.929C227.06 56.697 227.635 56.5809 228.293 56.5809C228.978 56.5809 229.577 56.7212 230.09 57.0019C230.602 57.2771 231.004 57.6548 231.296 58.1351C231.592 58.61 231.754 59.1497 231.781 59.7541H230.357C230.33 59.3925 230.227 59.066 230.049 58.7746C229.877 58.4832 229.639 58.2512 229.337 58.0785C229.04 57.9004 228.692 57.8113 228.293 57.8113C227.834 57.8113 227.449 57.9031 227.136 58.0866C226.828 58.2646 226.583 58.5075 226.399 58.8151C226.221 59.1173 226.092 59.4546 226.011 59.8269C225.935 60.1939 225.897 60.569 225.897 60.9521V61.2921C225.897 61.6752 225.935 62.053 226.011 62.4253C226.086 62.7977 226.213 63.135 226.391 63.4372C226.574 63.7394 226.82 63.9822 227.127 64.1657C227.44 64.3438 227.829 64.4328 228.293 64.4328Z" fill="white" />
  <path d="M240.974 56.7428V57.9813H236.741V56.7428H240.974ZM242.293 56.7428V65.5014H240.796V56.7428H242.293ZM236.377 56.7428H237.882L237.655 60.9683C237.618 61.6213 237.556 62.1987 237.469 62.7006C237.388 63.197 237.275 63.6234 237.129 63.9795C236.989 64.3357 236.811 64.6271 236.595 64.8538C236.385 65.075 236.131 65.2396 235.834 65.3475C235.538 65.4501 235.195 65.5014 234.807 65.5014H234.337V64.1819L234.661 64.1576C234.893 64.1414 235.09 64.0875 235.252 63.9957C235.419 63.904 235.559 63.7691 235.673 63.591C235.786 63.4075 235.878 63.1728 235.948 62.8867C236.023 62.6007 236.08 62.2608 236.118 61.8668C236.161 61.4729 236.193 61.0142 236.215 60.4907L236.377 56.7428Z" fill="white" />
  <path d="M251.526 64.0038V59.495C251.526 59.1497 251.456 58.8502 251.315 58.5965C251.181 58.3375 250.976 58.1378 250.7 57.9975C250.425 57.8572 250.085 57.787 249.681 57.787C249.303 57.787 248.971 57.8518 248.685 57.9813C248.405 58.1108 248.183 58.2808 248.021 58.4913C247.865 58.7018 247.787 58.9284 247.787 59.1713H246.289C246.289 58.8583 246.37 58.548 246.532 58.2404C246.694 57.9328 246.926 57.6548 247.228 57.4066C247.536 57.153 247.903 56.9533 248.329 56.8076C248.761 56.6565 249.241 56.5809 249.77 56.5809C250.406 56.5809 250.967 56.6889 251.453 56.9047C251.944 57.1206 252.327 57.4471 252.602 57.8842C252.883 58.3159 253.023 58.8583 253.023 59.5112V63.591C253.023 63.8824 253.047 64.1927 253.096 64.5219C253.15 64.8511 253.228 65.1344 253.331 65.3718V65.5014H251.769C251.693 65.3287 251.634 65.0993 251.591 64.8133C251.548 64.5219 251.526 64.2521 251.526 64.0038ZM251.785 60.1912L251.801 61.2435H250.288C249.861 61.2435 249.481 61.2786 249.146 61.3487C248.812 61.4135 248.531 61.5133 248.305 61.6482C248.078 61.7832 247.905 61.9532 247.787 62.1582C247.668 62.3579 247.609 62.5926 247.609 62.8625C247.609 63.1377 247.671 63.3886 247.795 63.6153C247.919 63.8419 248.105 64.0227 248.353 64.1576C248.607 64.2871 248.917 64.3519 249.284 64.3519C249.743 64.3519 250.147 64.2548 250.498 64.0605C250.849 63.8662 251.127 63.6288 251.332 63.3482C251.542 63.0675 251.655 62.795 251.672 62.5306L252.311 63.251C252.273 63.4777 252.171 63.7286 252.003 64.0038C251.836 64.279 251.612 64.5435 251.332 64.7971C251.056 65.0453 250.727 65.2531 250.344 65.4204C249.967 65.5823 249.54 65.6632 249.066 65.6632C248.472 65.6632 247.951 65.5472 247.503 65.3152C247.061 65.0831 246.716 64.7728 246.468 64.3843C246.225 63.9903 246.103 63.5505 246.103 63.0648C246.103 62.5953 246.195 62.1825 246.379 61.8263C246.562 61.4648 246.826 61.1653 247.172 60.9278C247.517 60.685 247.932 60.5015 248.418 60.3774C248.904 60.2533 249.446 60.1912 250.045 60.1912H251.785Z" fill="white" />
</svg>