<svg width="548" height="470" viewBox="0 0 548 470" fill="none" xmlns="http://www.w3.org/2000/svg">
<path d="M267.899 196.259L293.068 234.011C293.793 235.098 293.731 236.529 292.915 237.549L243.879 298.833C241.738 301.509 245.034 305.104 247.886 303.203L313.035 259.768C314.195 258.995 315.734 259.123 316.751 260.076L434.331 370.327C437.037 372.864 441.034 369.199 438.741 366.284L339.098 239.589C338.237 238.493 338.243 236.949 339.114 235.86L388.033 174.722C390.174 172.046 386.878 168.45 384.027 170.351L318.723 213.889C317.636 214.614 316.204 214.552 315.184 213.736L279.806 185.429" stroke="#5A7B67"/>
<path d="M267.913 196.297L232.567 168.015C231.546 167.199 230.115 167.137 229.028 167.861L163.724 211.399C160.873 213.3 157.577 209.705 159.718 207.029L208.637 145.89C209.508 144.802 209.514 143.257 208.652 142.162L109.009 15.4665C106.717 12.5514 110.714 8.88676 113.42 11.4235L231 121.675C232.017 122.628 233.556 122.755 234.716 121.982L299.865 78.5473C302.717 76.6462 306.013 80.2417 303.872 82.9177L254.836 144.201C254.02 145.222 253.958 146.653 254.683 147.74L279.825 185.451" stroke="#5A7B67"/>
</svg>
