<svg width="233" height="181" viewBox="0 0 233 181" fill="none" xmlns="http://www.w3.org/2000/svg">
<path d="M103.331 62.9075C155.544 35.7036 204.006 25.6424 211.781 40.417C219.564 55.208 183.788 89.3724 131.706 117.018" stroke="#5A7B67" stroke-width="0.8"/>
<path d="M96.6196 66.6061C46.8371 93.8255 13.188 126.548 20.7595 140.936C28.3312 155.325 74.3574 146.12 124.984 120.502" stroke="#5A7B67" stroke-width="0.8"/>
<path d="M94.1235 53.6289L118 78.8462L118.155 79.0093L118.374 78.9623L152.334 71.699L127.117 95.5758L126.954 95.7303L127.001 95.9499L134.264 129.91L110.387 104.692L110.233 104.529L110.013 104.576L76.0534 111.839L101.271 87.9627L101.434 87.8082L101.387 87.5885L94.1235 53.6289Z" stroke="#5A7B67" stroke-width="0.8"/>
</svg>
