<svg xmlns="http://www.w3.org/2000/svg" xmlns:xlink="http://www.w3.org/1999/xlink" width="343" height="202" viewBox="0 0 343 202" fill="none">
<path d="M10.0557 63.6411C3.83632 67.2053 3.22701e-06 73.8254 3.54035e-06 80.9937L7.95547e-06 182C8.4383e-06 193.046 8.95431 202 20 202L217.006 202C220.216 202 223.378 201.227 226.227 199.748L332.221 144.678C338.844 141.237 343 134.394 343 126.93L343 20C343 8.95428 334.046 -1.46016e-05 323 -1.41188e-05L126.433 -5.52657e-06C122.944 -5.37406e-06 119.516 0.91268 116.489 2.64742L10.0557 63.6411Z" fill="white"/>
<defs>
<pattern id="pattern0" patternContentUnits="objectBoundingBox" width="1" height="1">
<use xlink:href="#image0_2197_7711" transform="matrix(0 -0.000270476 0.000459274 0 -0.033261 1.04956)"/>
</pattern>
</defs>
</svg>