<svg width="464" height="551" viewBox="0 0 464 551" fill="none" xmlns="http://www.w3.org/2000/svg">
<path d="M245.381 203.6L232.355 204.642V187.448L230.271 179.112L226.103 173.902L225.582 168.171L222.456 161.398L219.33 152.54V145.767L222.456 140.036L226.103 132.221L222.456 118.153V104.086V89.4975L215.162 67.0938V59.7996V47.2952L211.515 42.6061L188.59 26.9756L185.985 21.2445L148.993 12.9082L149.514 2.48791L147.43 -26.689H218.288L216.204 -25.6469L208.389 -19.3947L205.262 16.0343L222.977 13.4292L237.565 17.5974L250.591 22.8075L273.515 32.1858L286.02 35.8329L304.255 37.917L325.617 38.438L338.121 42.6061L356.357 57.1945L364.693 53.0264L361.046 61.3627V67.6149L355.315 71.783L347.5 77.5142L339.163 88.4555L338.121 95.2287L331.869 97.3127L333.953 112.943L331.869 113.985L325.617 100.439L321.97 104.607L322.491 110.859L318.844 120.237L313.634 128.574L307.381 130.658V140.036L306.339 153.061L303.213 161.919L293.835 179.633L288.625 194.222L286.541 206.205L275.6 194.222L274.557 204.642H262.574L261.532 210.373L256.322 216.104L251.633 214.02L249.028 210.894L245.381 209.331V203.6Z" stroke="#B3C7FA" stroke-width="5"/>
<path d="M180.254 259.349L176.086 257.786L162.019 229.651L160.456 218.188L153.683 194.222L142.741 171.818V161.919L145.867 152.541L135.968 147.851L128.674 124.927L114.606 86.8926L112.001 72.3041L100.539 62.4049L102.623 58.2367H122.943L133.363 55.6317L186.507 21.2446L188.07 27.4968L212.036 43.6483L214.12 48.8585V68.657L220.894 88.9766V118.154L224.541 133.263L218.81 143.162V152.541L223.499 165.045L224.541 171.818L228.188 178.07H230.793L232.356 204.121L228.188 229.651L195.885 235.382L188.07 239.029L184.423 257.786L180.254 259.349Z" fill="#B3C7FA" fill-opacity="0.5" stroke="#B3C7FA" stroke-width="5"/>
<path d="M170.875 265.08L178.17 262.475L165.665 237.987L159.934 223.399L155.245 199.953L142.741 173.382V161.919L145.346 154.625L137.009 149.415L128.673 127.532L114.085 86.8929L111.48 72.3045L101.059 63.9682L90.118 68.6574L78.6556 59.8001L68.2353 54.59L65.6302 33.7493L57.294 27.4971L56.2519 14.9928L49.4787 12.3877L37.4954 16.5558L36.4534 27.4971L32.2852 32.1863L39.0584 40.5225L40.6215 54.59L42.7055 61.3632L46.3527 68.6574L68.2353 72.3045L71.8824 81.1618L60.9411 103.565L57.294 106.171H47.9157L44.2686 103.565V91.5821L46.3527 84.8089L42.7055 81.1618L30.2012 84.8089L20.3019 91.5821L14.0497 94.1871L10.9236 108.255L4.15039 118.154L17.1758 124.927L10.9236 129.095L15.6127 136.389L20.3019 152.02V157.23H28.1171L33.8483 149.415L46.3527 143.684L59.378 141.6L54.1679 173.382L42.7055 203.6L36.4534 206.205L39.0584 211.937L37.4954 237.987H71.8824L93.2441 235.903L104.706 228.088L114.085 231.735L121.9 245.282L119.295 256.223L101.059 269.769L98.4542 273.938L104.706 282.274L114.085 284.879L126.068 277.064L132.32 269.769L130.757 249.45L135.446 241.635L149.514 243.198L164.102 254.66L170.875 265.08Z" stroke="#B3C7FA" stroke-width="5"/>
<path d="M40.1022 281.753L36.4551 240.592L52.6066 239.55L84.3885 237.987L95.8509 235.903L106.271 231.214L113.565 232.777L119.818 247.366L117.734 256.223L104.187 262.996L97.9349 271.853L101.061 281.232L113.565 285.921L117.734 283.316L129.717 276.021L133.885 270.811L132.843 262.996V252.055L136.49 244.761L145.347 244.24L155.247 248.929L163.062 256.223L170.356 267.164L179.734 262.996L178.692 260.912L185.466 257.265L189.113 239.55L227.147 231.214L229.231 229.13L232.878 205.684H242.256L248.508 212.458L256.324 216.626L262.055 210.373L263.097 205.163H275.08L275.601 196.306L287.064 206.726V204.121L292.795 184.844L302.173 167.129L307.904 150.978V131.179L314.677 129.095L321.451 115.549L323.014 105.649L325.098 102.002L332.392 115.549L334.997 112.944L332.392 97.8341L339.165 94.708V89.4979L348.022 78.0355L361.569 67.6152L363.132 69.1783L407.939 107.733L456.915 154.104L460.562 186.928V302.072L452.226 349.485L449.62 376.056L456.915 423.469L375.636 512.562L332.392 540.176L304.778 553.723L257.887 547.471L224.021 542.781L163.583 515.689L114.086 443.788L78.1363 365.636L65.632 349.485L48.9595 314.577L40.1022 281.753Z" stroke="#B3C7FA" stroke-width="5"/>
</svg>
