<svg width="712" height="554" viewBox="0 0 712 554" fill="none" xmlns="http://www.w3.org/2000/svg">
<path d="M690.315 108.832C703.631 115.69 712 129.414 712 144.392L712 514C712 536.091 694.091 554 672 554L242.695 554C236.324 554 230.045 552.478 224.381 549.561L21.6854 445.168C8.3688 438.31 -1.7666e-05 424.586 -1.70428e-05 409.608L-1.66431e-06 40C-7.45135e-07 17.9086 17.9086 -2.39107e-05 40 -2.30552e-05L469.305 -6.4295e-06C475.676 -6.18276e-06 481.955 1.52194 487.619 4.43913L690.315 108.832Z" fill="#2E574D"/>
</svg>
