<svg width="33" height="33" viewBox="0 0 33 33" fill="none" xmlns="http://www.w3.org/2000/svg">
<path d="M27.8276 6.76361C27.5745 6.75673 27.3249 6.83342 27.0991 7.01361C27.0028 7.09048 26.9054 7.19386 26.8198 7.31048C25.3885 9.26173 23.8024 10.8936 22.1206 12.373C21.5731 13.2912 22.7891 15.1484 23.7203 15.1484C25.8543 14.3404 28.0713 13.7411 30.3921 13.5037C33.0564 13.2314 31.4976 9.24536 28.7515 10.6619C30.6453 9.24523 29.1949 6.79998 27.8276 6.76348V6.76361ZM19.7223 7.39442C19.3368 7.38767 18.9588 7.46767 18.6226 7.66192C18.5253 7.71824 18.4332 7.78297 18.3472 7.85536C18.3448 7.85186 18.3416 7.84723 18.3393 7.84373C13.3448 11.9939 11.0684 12.4355 8.45057 13.2715C8.0202 13.409 7.6837 13.7202 7.41932 14.2402C7.15495 14.7602 6.98857 15.4804 6.96038 16.3105C6.90413 17.9707 7.39382 20.056 8.44288 21.8749C9.48788 23.6868 11.1535 25.2465 12.6714 26.0703C13.4303 26.4822 14.1515 26.7057 14.6948 26.7225C15.2382 26.7394 15.5645 26.6007 15.8062 26.2616C17.7428 23.546 21.3901 21.9459 25.566 20.496C25.5657 20.4956 25.5662 20.4945 25.566 20.4941C25.693 20.4528 25.8153 20.3985 25.9311 20.332C26.4436 20.0359 26.7771 19.5259 26.9488 18.9492C27.1204 18.3725 27.15 17.7148 27.0756 16.996C27.0161 16.419 26.8861 15.8006 26.691 15.1602C26.3212 15.2455 25.9642 15.3575 25.5717 15.502C25.7489 16.0802 25.8648 16.6257 25.9155 17.1152C25.9784 17.7239 25.9406 18.2439 25.8295 18.6172C25.7185 18.9905 25.5538 19.2009 25.3471 19.3204C25.1404 19.4397 24.8757 19.4769 24.4974 19.3866C24.1192 19.2964 23.6506 19.0697 23.1556 18.711C22.1657 17.9934 21.0722 16.7595 20.1791 15.211C19.2859 13.6622 18.7659 12.0961 18.6401 10.8789C18.5772 10.2702 18.6149 9.75217 18.726 9.37886C18.8373 9.00554 19.0019 8.79323 19.2085 8.67386C19.3118 8.61404 19.4285 8.57511 19.5679 8.56248C19.6027 8.55936 19.6396 8.55829 19.6773 8.55854C19.7904 8.55942 19.9163 8.57554 20.0581 8.60942C20.4363 8.69967 20.903 8.92442 21.3979 9.28317C21.9116 9.65548 22.4532 10.1685 22.9801 10.791C23.2969 10.5376 23.5638 10.2754 23.8179 9.96679C23.2573 9.31304 22.6701 8.76304 22.0836 8.33792C21.4989 7.91417 20.9128 7.61229 20.3277 7.47267C20.1833 7.43797 20.0364 7.41447 19.8883 7.40236C19.8331 7.3981 19.7777 7.39551 19.7223 7.39461V7.39442ZM20.2202 9.53117C20.1928 9.53267 20.1665 9.53511 20.1402 9.53898C19.0573 9.69773 19.2046 11.7912 20.4546 14.199C21.7046 16.607 23.6121 18.4225 24.6948 18.2635C25.0695 18.2085 25.2738 17.908 25.3609 17.4588C25.2566 17.5955 25.1205 17.6765 24.9409 17.703C23.9837 17.8435 22.2962 16.2597 21.1909 14.1307C20.0858 12.0017 19.9876 10.1364 20.9449 9.99592C21.1723 9.96279 21.4255 10.022 21.7164 10.1698C21.174 9.74479 20.6319 9.50836 20.2203 9.53117H20.2202ZM6.69288 20.9549C5.6582 21.0702 4.48638 21.1587 3.12645 21.2284C0.0559466 21.3861 1.52926 25.7019 5.00732 24.4922C1.92201 26.3609 5.24857 29.9251 6.69295 27.414C7.34057 26.288 8.06045 25.3022 8.84139 24.4257C8.31514 23.8229 7.83651 23.1617 7.4312 22.4588C7.15188 21.9746 6.90525 21.4722 6.69295 20.955L6.69288 20.9549Z" fill="white"/>
</svg>
