<svg width="107" height="107" viewBox="0 0 107 107" fill="none" xmlns="http://www.w3.org/2000/svg">
<g clip-path="url(#clip0_1939_988)">
<path d="M50.0445 43.9377H63.9377V57.8309M62.9729 44.9025L44.0627 63.8127" stroke="white" stroke-width="1.5" stroke-linecap="round" stroke-linejoin="round"/>
</g>
<path d="M15.5594 53.9409C14.873 53.8437 14.2482 53.6195 13.6852 53.2685C13.1222 52.9174 12.6541 52.4835 12.2808 51.9667C11.9002 51.4402 11.6249 50.8498 11.455 50.1955C11.2862 49.5326 11.2517 48.8493 11.3513 48.1457C11.4473 47.4678 11.6708 46.8473 12.0219 46.2843C12.3643 45.7201 12.7946 45.2471 13.3125 44.8652C13.8231 44.4736 14.397 44.1916 15.0341 44.0192C15.6639 43.8371 16.3134 43.7934 16.9828 43.8881C17.6607 43.9841 18.2811 44.2076 18.8441 44.5587C19.3986 44.9085 19.8667 45.3424 20.2485 45.8604C20.6303 46.3784 20.9068 46.9602 21.078 47.6059C21.2492 48.2516 21.2862 48.9177 21.189 49.6042C21.0918 50.2907 20.8713 50.9204 20.5276 51.4932C20.1754 52.0648 19.7433 52.5507 19.2315 52.9509C18.7209 53.3425 18.1507 53.6294 17.5209 53.8116C16.8826 53.9925 16.2288 54.0356 15.5594 53.9409ZM15.6961 52.9755C16.2453 53.0532 16.7839 53.0201 17.312 52.876C17.8315 52.7308 18.3019 52.4997 18.7231 52.183C19.1358 51.865 19.484 51.4767 19.7678 51.0179C20.0527 50.5506 20.2347 50.0381 20.3137 49.4803C20.3927 48.9225 20.3595 48.3839 20.2143 47.8644C20.069 47.3449 19.8423 46.8751 19.5341 46.4551C19.2174 46.0339 18.8296 45.6814 18.3709 45.3976C17.9121 45.1138 17.4081 44.9331 16.859 44.8553C16.2926 44.7751 15.7497 44.8077 15.2302 44.9529C14.7021 45.097 14.2317 45.328 13.8191 45.646C13.3979 45.9627 13.0441 46.359 12.7579 46.8349C12.4729 47.3023 12.2903 47.8191 12.2102 48.3855C12.1336 48.9261 12.1723 49.4567 12.3261 49.9774C12.4714 50.4969 12.7024 50.9673 13.0192 51.3885C13.3371 51.8012 13.7255 52.1494 14.1842 52.4332C14.643 52.717 15.1469 52.8977 15.6961 52.9755Z" fill="white"/>
<path d="M15.3267 35.2828L15.8107 34.4514L19.6192 36.6689L18.0151 30.6654L18.6561 29.5644L20.3804 36.0591L26.9584 34.3984L26.3043 35.5218L20.2483 37.0352L24.113 39.2854L23.6289 40.1167L15.3267 35.2828Z" fill="white"/>
<path d="M23.3733 30.8921C22.8888 30.3961 22.5307 29.8373 22.2989 29.2156C22.0671 28.5939 21.9611 27.9645 21.9808 27.3273C22.0006 26.6779 22.1429 26.0422 22.4075 25.4201C22.6784 24.792 23.068 24.2297 23.5763 23.7331C24.0661 23.2546 24.6218 22.8995 25.2435 22.6677C25.8592 22.4298 26.4887 22.3176 27.132 22.3312C27.7755 22.3326 28.4022 22.4595 29.0121 22.7117C29.6222 22.9517 30.1634 23.3135 30.6358 23.797C31.1143 24.2868 31.4694 24.8425 31.7012 25.4642C31.9269 26.0797 32.0329 26.7091 32.0193 27.3525C32.0056 27.9959 31.8696 28.6255 31.6111 29.2415C31.3527 29.8575 30.9755 30.4077 30.4795 30.8922C29.9836 31.3767 29.4247 31.741 28.8028 31.985C28.1749 32.2228 27.5361 32.3441 26.8864 32.3488C26.2429 32.3474 25.6162 32.2267 25.0061 31.9867C24.39 31.7405 23.8457 31.3756 23.3733 30.8921ZM24.0707 30.2107C24.4583 30.6075 24.9053 30.9099 25.4115 31.1181C25.9117 31.32 26.4253 31.4241 26.9523 31.4302C27.4732 31.4302 27.9861 31.335 28.4909 31.1448C29.0018 30.9485 29.4588 30.6536 29.8618 30.2599C30.2647 29.8662 30.5672 29.4193 30.7691 28.9191C30.9711 28.4189 31.0782 27.9084 31.0904 27.3876C31.0965 26.8606 31.0045 26.3448 30.8142 25.84C30.624 25.3352 30.3351 24.8844 29.9475 24.4877C29.5478 24.0785 29.0978 23.773 28.5976 23.571C28.0914 23.3629 27.5778 23.2588 27.0568 23.2589C26.5298 23.2527 26.0078 23.3508 25.4906 23.5532C24.9796 23.7494 24.5196 24.0474 24.1104 24.4472C23.7198 24.8287 23.4266 25.2727 23.2307 25.7791C23.0288 26.2793 22.9247 26.7929 22.9186 27.3199C22.9186 27.8408 23.0138 28.3537 23.204 28.8584C23.3942 29.3632 23.6831 29.814 24.0707 30.2107Z" fill="white"/>
<path d="M30.7163 17.9253L32.0666 17.2837L38.7344 23.1687L38.3721 14.2878L39.7224 13.6462L43.8453 22.3235L42.9764 22.7364L39.3054 15.0101L39.7121 24.2873L38.9606 24.6444L32.0371 18.4635L35.7081 26.1898L34.8392 26.6026L30.7163 17.9253Z" fill="white"/>
<path d="M43.3181 12.7802L49.9576 11.7368L51.449 21.2273L50.4987 21.3767L49.1425 12.7466L44.4036 13.4913L45.7598 22.1214L44.8095 22.2707L43.3181 12.7802Z" fill="white"/>
<path d="M57.1356 11.9131L58.2085 12.0274L61.3017 22.0183L60.2546 21.9067L59.2143 18.5406L54.7674 18.0669L53.0285 21.137L52.0202 21.0295L57.1356 11.9131ZM58.9317 17.6345L57.5629 13.0568L55.2217 17.2393L58.9317 17.6345Z" fill="white"/>
<path d="M65.2065 13.321L66.1042 13.667L64.5846 17.6093L69.2304 19.4L70.75 15.4577L71.6476 15.8037L68.1924 24.7679L67.2948 24.4219L68.9172 20.2127L64.2714 18.422L62.6489 22.6311L61.7513 22.2851L65.2065 13.321Z" fill="white"/>
<path d="M74.8293 17.4714L75.6068 18.038L70.791 24.6464L80.2295 21.4068L81.007 21.9733L75.349 29.7374L74.5715 29.1708L79.3873 22.5624L69.9488 25.8021L69.1713 25.2355L74.8293 17.4714Z" fill="white"/>
<path d="M83.8537 24.658L84.4497 25.4132L78.0311 30.4793L87.9936 29.9031L88.5896 30.6582L81.0485 36.6103L80.4525 35.8552L86.8711 30.789L76.9087 31.3652L76.3126 30.6101L83.8537 24.658Z" fill="white"/>
<path d="M91.3536 52.5234C92.0414 52.6107 92.6693 52.8259 93.2373 53.1689C93.8053 53.5118 94.2795 53.939 94.6601 54.4504C95.0482 54.9714 95.332 55.5578 95.5113 56.2096C95.6895 56.87 95.7338 57.5527 95.6443 58.2577C95.558 58.9369 95.3434 59.5605 95.0004 60.1285C94.666 60.6976 94.2426 61.1767 93.7302 61.5659C93.2252 61.9648 92.6554 62.255 92.0208 62.4365C91.3938 62.6276 90.7449 62.6806 90.0743 62.5955C89.3951 62.5092 88.7715 62.2946 88.2035 61.9516C87.6441 61.6097 87.1698 61.1826 86.7806 60.6701C86.3914 60.1576 86.1066 59.5798 85.9263 58.9366C85.7459 58.2934 85.6993 57.6279 85.7867 56.9401C85.8741 56.2523 86.0855 55.6196 86.4209 55.0419C86.765 54.4653 87.19 53.9733 87.6961 53.5658C88.201 53.1669 88.7671 52.8719 89.3941 52.6807C90.0298 52.4907 90.683 52.4382 91.3536 52.5234ZM91.2307 53.4906C90.6805 53.4207 90.1424 53.4616 89.6164 53.6132C89.0991 53.7659 88.6321 54.0036 88.2154 54.3263C87.8074 54.6502 87.4647 55.0435 87.1875 55.5062C86.9093 55.9776 86.7346 56.4927 86.6637 57.0515C86.5927 57.6104 86.6335 58.1485 86.7862 58.6658C86.9389 59.1832 87.1723 59.6497 87.4865 60.0652C87.8092 60.4819 88.202 60.8288 88.6647 61.106C89.1275 61.3832 89.634 61.5567 90.1843 61.6266C90.7517 61.6987 91.2941 61.6584 91.8115 61.5057C92.3374 61.3541 92.8044 61.1163 93.2125 60.7925C93.6291 60.4698 93.9771 60.0684 94.2565 59.5885C94.5348 59.1171 94.71 58.5977 94.782 58.0303C94.8508 57.4886 94.8046 56.9586 94.6433 56.4401C94.4906 55.9227 94.2529 55.4557 93.9301 55.0391C93.6063 54.631 93.213 54.2884 92.7503 54.0112C92.2875 53.734 91.781 53.5605 91.2307 53.4906Z" fill="white"/>
<path d="M91.8534 71.1762L91.3813 72.0144L87.5415 69.8517L89.2313 75.8316L88.6061 76.9416L86.7891 70.4723L80.2355 72.227L80.8735 71.0943L86.9072 69.4944L83.0107 67.2998L83.4828 66.4616L91.8534 71.1762Z" fill="white"/>
<path d="M83.8704 75.6817C84.362 76.1707 84.7281 76.7243 84.9687 77.3426C85.2093 77.9609 85.3244 78.5888 85.3138 79.2262C85.3033 79.8758 85.1701 80.5135 84.9144 81.1392C84.6526 81.7711 84.271 82.339 83.7699 82.8429C83.287 83.3283 82.7364 83.6913 82.1181 83.9319C81.5059 84.1787 80.8781 84.2998 80.2346 84.2954C79.5912 84.3033 78.9627 84.1854 78.3492 83.9419C77.7358 83.7107 77.1894 83.3567 76.7102 82.8799C76.2248 82.3971 75.8617 81.8465 75.6211 81.2282C75.3866 80.616 75.2716 79.9881 75.276 79.3446C75.2804 78.7012 75.4074 78.0696 75.6571 77.45C75.9067 76.8304 76.276 76.2748 76.7649 75.7832C77.2539 75.2917 77.8075 74.9194 78.4258 74.6665C79.0502 74.4198 79.6872 74.2894 80.3368 74.2754C80.9803 74.2676 81.6087 74.3793 82.2221 74.6105C82.8417 74.8479 83.3911 75.205 83.8704 75.6817ZM83.1828 76.3729C82.7896 75.9818 82.3384 75.6857 81.8292 75.4849C81.3261 75.2901 80.8111 75.1934 80.2841 75.1948C79.7632 75.2023 79.2518 75.3048 78.7498 75.5022C78.2417 75.7058 77.789 76.0073 77.3917 76.4067C76.9944 76.806 76.6984 77.2573 76.5036 77.7603C76.3088 78.2633 76.2091 78.7753 76.2043 79.2962C76.2057 79.8232 76.3051 80.3378 76.5025 80.8398C76.7 81.3417 76.9953 81.7883 77.3886 82.1795C77.7941 82.5829 78.2484 82.882 78.7514 83.0768C79.2606 83.2776 79.7756 83.3743 80.2965 83.3668C80.8235 83.3654 81.3442 83.2599 81.8584 83.0501C82.3665 82.8466 82.8222 82.542 83.2256 82.1365C83.6107 81.7494 83.8975 81.3013 84.0862 80.7921C84.2809 80.2891 84.3776 79.774 84.3762 79.247C84.3687 78.7261 84.2663 78.2147 84.0688 77.7127C83.8714 77.2107 83.5761 76.7641 83.1828 76.3729Z" fill="white"/>
<path d="M76.7138 88.7521L75.3728 89.413L68.6214 83.6241L69.1109 92.4989L67.7698 93.1597L63.5232 84.5423L64.3861 84.117L68.1673 91.7899L67.6278 82.5195L68.3741 82.1517L75.3854 88.2328L71.6042 80.5599L72.4671 80.1347L76.7138 88.7521Z" fill="white"/>
<path d="M64.1869 94.0771L57.563 95.2154L55.9359 85.7472L56.884 85.5843L58.3636 94.1941L63.0913 93.3816L61.6117 84.7718L62.5598 84.6089L64.1869 94.0771Z" fill="white"/>
<path d="M50.3832 95.1419L49.3088 95.043L46.073 85.0974L47.1215 85.194L48.2099 88.5449L52.6631 88.9549L54.3579 85.8602L55.3677 85.9532L50.3832 95.1419ZM48.5055 89.4468L49.9396 94.0045L52.2207 89.7888L48.5055 89.4468Z" fill="white"/>
<path d="M42.293 93.8497L41.3905 93.5166L42.8535 89.553L38.1825 87.8289L36.7195 91.7925L35.817 91.4594L39.1436 82.4467L40.0461 82.7799L38.4841 87.0118L43.155 88.7358L44.7171 84.5039L45.6195 84.837L42.293 93.8497Z" fill="white"/>
<path d="M32.6118 89.8374L31.8263 89.282L36.547 82.6053L27.1558 85.9797L26.3703 85.4243L31.9166 77.5801L32.7021 78.1354L27.9814 84.8121L37.3726 81.4377L38.1581 81.9931L32.6118 89.8374Z" fill="white"/>
<path d="M23.4855 82.7807L22.8787 82.0342L29.2241 76.8768L19.2709 77.5955L18.6642 76.849L26.1192 70.7896L26.726 71.5361L20.3806 76.6935L30.3338 75.9748L30.9405 76.7213L23.4855 82.7807Z" fill="white"/>
<defs>
<clipPath id="clip0_1939_988">
<rect width="32" height="32" fill="white" transform="translate(38 38)"/>
</clipPath>
</defs>
</svg>
