<svg width="108" height="108" viewBox="0 0 108 108" fill="none" xmlns="http://www.w3.org/2000/svg">
<g clip-path="url(#clip0_2581_11720)">
<path d="M50.8639 44.5726H64.7571V58.4658M63.7923 45.5374L44.8822 64.4476" stroke="white" stroke-width="1.5" stroke-linecap="round" stroke-linejoin="round"/>
</g>
<path d="M88.3291 65.3737C86.7613 64.069 86.1701 62.4564 86.5555 60.536C86.6971 59.8308 86.9516 59.2012 87.3192 58.6474C87.6867 58.0936 88.1315 57.6392 88.6535 57.2843C89.1756 56.9295 89.7553 56.6834 90.3928 56.5462C91.0371 56.4192 91.7033 56.4247 92.3916 56.5629C93.0969 56.7045 93.7222 56.9582 94.2675 57.324C94.8213 57.6915 95.2714 58.1354 95.6178 58.6558C95.9727 59.1778 96.2136 59.761 96.3406 60.4052C96.466 61.058 96.4587 61.7328 96.3188 62.4295C96.2216 62.9139 96.0692 63.365 95.8615 63.783C95.6521 64.2095 95.3952 64.5866 95.0908 64.9145C94.7948 65.244 94.4564 65.5208 94.0755 65.7449C93.6929 65.9775 93.2797 66.142 92.8361 66.2386L93.0484 65.1807C94.3592 64.6836 95.1579 63.7213 95.4444 62.2938C95.557 61.733 95.5599 61.1899 95.4532 60.6647C95.3465 60.1394 95.1505 59.6625 94.8653 59.234C94.5801 58.8055 94.2115 58.4398 93.7596 58.1369C93.3145 57.8443 92.8073 57.6408 92.238 57.5265C91.6856 57.4156 91.1426 57.4127 90.6088 57.5177C90.0818 57.6329 89.5998 57.8323 89.1628 58.1158C88.7326 58.4096 88.3627 58.7773 88.053 59.219C87.7434 59.6607 87.534 60.1534 87.4248 60.6973C87.2918 61.36 87.3126 61.983 87.4872 62.5661C87.6704 63.1509 88.0209 63.7384 88.5389 64.3286L88.3291 65.3737Z" fill="white"/>
<path d="M94.3779 69.8038L92.35 74.6486L91.5466 74.3123L93.203 70.3549L90.0251 69.0248L88.424 72.8502L87.6205 72.5139L89.2217 68.6885L85.9479 67.3182L84.2915 71.2755L83.488 70.9392L85.5159 66.0945L94.3779 69.8038Z" fill="white"/>
<path d="M90.9591 77.2464L89.4545 79.4302C89.1004 79.9441 88.7807 80.3395 88.4952 80.6163C88.2097 80.8932 87.9059 81.105 87.5839 81.2515C87.1919 81.4234 86.768 81.4734 86.3124 81.4015C85.8567 81.3296 85.4041 81.1388 84.9544 80.829C84.5477 80.5487 84.234 80.2326 84.0134 79.8807C83.7999 79.5336 83.6889 79.1677 83.6804 78.783C83.6692 78.4174 83.7374 78.0434 83.8851 77.661C84.035 77.2907 84.2919 76.8415 84.6557 76.3134L85.7031 74.7932L82.5023 72.5879L83.0481 71.7957L90.9591 77.2464ZM85.4099 76.754C85.2082 77.0466 85.0343 77.3372 84.8881 77.6259C84.7418 77.9145 84.6558 78.1921 84.6301 78.4585C84.6066 78.737 84.6626 79.0071 84.798 79.2688C84.9285 79.5377 85.1686 79.7926 85.5183 80.0335C85.9251 80.3138 86.2883 80.4588 86.6079 80.4685C86.9346 80.4831 87.2326 80.4095 87.5019 80.2478C87.7713 80.086 88.0223 79.8591 88.2552 79.5669C88.4831 79.282 88.7053 78.9825 88.9216 78.6684L89.6961 77.5444L86.4203 75.2874L85.4099 76.754Z" fill="white"/>
<path d="M83.9757 84.7594L85.5405 83.2172L86.1519 83.8375L82.3372 87.5972L81.7258 86.9768L83.2906 85.4347L77.1583 79.2127L77.8435 78.5374L83.9757 84.7594Z" fill="white"/>
<path d="M80.3374 89.227L79.5412 89.7668L74.9526 82.9986L74.8067 92.9766L74.0104 93.5165L68.6194 85.5646L69.4157 85.0248L74.0042 91.793L74.1502 81.815L74.9465 81.2752L80.3374 89.227Z" fill="white"/>
<path d="M64.0744 87.6813C64.7061 87.5589 65.311 87.534 65.8891 87.6066C66.4589 87.6815 66.9764 87.8429 67.4415 88.091C67.909 88.3474 68.3082 88.6814 68.639 89.0929C68.9722 89.5128 69.2156 89.9982 69.3694 90.5492C69.5186 91.0834 69.554 91.6134 69.4758 92.1391C69.4 92.6732 69.2285 93.1709 68.9614 93.6324C68.686 94.0962 68.3251 94.5119 67.8788 94.8794C67.4325 95.2469 66.9159 95.5396 66.3288 95.7575L66.4687 96.2583L65.5421 96.517L65.4023 96.0161C64.7873 96.1338 64.1937 96.1511 63.6216 96.0678C63.0495 95.9846 62.5297 95.8147 62.0622 95.5583C61.5863 95.3043 61.1777 94.9684 60.8362 94.5509C60.497 94.1417 60.2528 93.6699 60.1037 93.1357C59.9499 92.5848 59.9068 92.0434 59.9743 91.5117C60.0441 90.9883 60.2126 90.4959 60.4797 90.0344C60.7491 89.5813 61.1123 89.174 61.5693 88.8125C62.0179 88.4533 62.544 88.1624 63.1478 87.9399L62.959 87.2638L63.8856 87.0051L64.0744 87.6813ZM66.0912 94.906C66.5553 94.7315 66.9579 94.4976 67.299 94.2044C67.6424 93.9196 67.9206 93.5945 68.1335 93.2292C68.3381 92.8661 68.4684 92.4788 68.5245 92.0672C68.5806 91.6557 68.5492 91.237 68.4303 90.8113C68.3092 90.3772 68.1222 89.9975 67.8694 89.6722C67.6083 89.3492 67.2962 89.0854 66.9331 88.8808C66.5724 88.6845 66.1714 88.5535 65.7302 88.4877C65.2806 88.4243 64.8078 88.4393 64.312 88.5327L66.0912 94.906ZM63.3855 88.7914C62.913 88.9682 62.505 89.1991 62.1616 89.4839C61.8099 89.7711 61.5305 90.092 61.3236 90.4467C61.119 90.8097 60.9929 91.1959 60.9451 91.6051C60.8891 92.0167 60.9216 92.4395 61.0428 92.8736C61.1616 93.2993 61.3516 93.6737 61.6127 93.9967C61.8739 94.3197 62.1901 94.5823 62.5615 94.7846C62.9246 94.9892 63.3267 95.1244 63.768 95.1901C64.2116 95.2643 64.6771 95.2558 65.1646 95.1647L63.3855 88.7914Z" fill="white"/>
<path d="M57.658 98.0327L56.6962 98.0141L56.854 89.8387L50.9772 97.9038L50.0154 97.8852L50.2008 88.28L51.1626 88.2986L51.0048 96.474L56.8816 88.4089L57.8434 88.4275L57.658 98.0327Z" fill="white"/>
<path d="M46.3188 97.2595L45.3903 97.0079L46.543 92.7543L41.1618 95.862L39.9321 95.5288L45.7565 92.1775L42.445 86.2562L43.6997 86.5963L46.7334 92.0517L47.9031 87.7353L48.8316 87.987L46.3188 97.2595Z" fill="white"/>
<path d="M34.4586 92.8725L33.5197 92.3409L34.6554 81.944L35.5717 82.4628L35.1874 85.965L39.079 88.1682L41.8955 86.0431L42.7779 86.5427L34.4586 92.8725ZM35.0863 86.9087L34.5215 91.6532L38.3331 88.7469L35.0863 86.9087Z" fill="white"/>
<path d="M27.4967 86.9789L29.1325 88.4455L28.5511 89.094L24.5631 85.5187L25.1446 84.8702L26.7804 86.3367L32.612 79.8321L33.3283 80.4742L27.4967 86.9789Z" fill="white"/>
<path d="M22.8152 83.6013L22.231 82.837L25.4744 80.3584L24.3536 78.8917C23.6116 77.9207 23.2425 77.0738 23.2464 76.351C23.2434 75.6333 23.6138 74.9904 24.3575 74.4221C25.1287 73.8327 25.8749 73.6387 26.5961 73.8403C27.312 74.0349 28.0594 74.6418 28.8382 75.6609L30.4485 77.7681L22.8152 83.6013ZM28.3435 76.448C28.1225 76.1588 27.8946 75.8748 27.6598 75.5961C27.4181 75.3227 27.1657 75.1066 26.9025 74.9477C26.6272 74.7873 26.331 74.7137 26.0139 74.7269C25.6899 74.7455 25.3386 74.8994 24.9598 75.1889C24.4434 75.5835 24.1943 76.0356 24.2128 76.545C24.226 77.0476 24.5168 77.6708 25.0851 78.4145L26.1665 79.8296L29.1723 77.5326L28.3435 76.448ZM18.1975 77.5587L17.6134 76.7943L25.2467 70.9611L25.8308 71.7255L18.1975 77.5587Z" fill="white"/>
<path d="M21.081 42.7054C22.6489 44.0101 23.2401 45.6227 22.8546 47.5431C22.7131 48.2483 22.4585 48.8779 22.091 49.4317C21.7235 49.9856 21.2787 50.4399 20.7566 50.7948C20.2346 51.1496 19.6548 51.3957 19.0174 51.5329C18.3731 51.6599 17.7068 51.6544 17.0186 51.5162C16.3133 51.3746 15.688 51.1209 15.1426 50.7551C14.5888 50.3876 14.1387 49.9437 13.7923 49.4233C13.4375 48.9013 13.1965 48.3181 13.0695 47.6739C12.9442 47.0211 12.9515 46.3463 13.0913 45.6496C13.1886 45.1652 13.341 44.7141 13.5486 44.2961C13.758 43.8696 14.0149 43.4925 14.3194 43.1646C14.6154 42.8351 14.9538 42.5583 15.3347 42.3342C15.7173 42.1016 16.1304 41.9371 16.5741 41.8405L16.3617 42.8984C15.0509 43.3955 14.2523 44.3578 13.9657 45.7853C13.8531 46.3461 13.8502 46.8892 13.9569 47.4144C14.0636 47.9397 14.2596 48.4166 14.5449 48.8451C14.8301 49.2736 15.1987 49.6393 15.6506 49.9422C16.0957 50.2348 16.6029 50.4383 17.1722 50.5526C17.7245 50.6635 18.2676 50.6664 18.8013 50.5614C19.3283 50.4462 19.8103 50.2468 20.2473 49.9633C20.6775 49.6695 21.0475 49.3018 21.3571 48.8601C21.6668 48.4184 21.8762 47.9257 21.9854 47.3818C22.1184 46.7191 22.0976 46.0961 21.9229 45.513C21.7398 44.9282 21.3892 44.3407 20.8712 43.7505L21.081 42.7054Z" fill="white"/>
<path d="M15.0323 38.2753L17.0601 33.4305L17.8636 33.7668L16.2072 37.7242L19.385 39.0543L20.9862 35.2289L21.7897 35.5652L20.1885 39.3906L23.4623 40.7609L25.1187 36.8036L25.9221 37.1399L23.8943 41.9846L15.0323 38.2753Z" fill="white"/>
<path d="M18.451 30.8327L19.9557 28.6489C20.3097 28.135 20.6295 27.7397 20.915 27.4628C21.2005 27.1859 21.5042 26.9741 21.8262 26.8276C22.2183 26.6557 22.6421 26.6057 23.0978 26.6776C23.5535 26.7495 24.0061 26.9403 24.4557 27.2501C24.8625 27.5304 25.1762 27.8465 25.3968 28.1984C25.6102 28.5455 25.7212 28.9114 25.7298 29.2961C25.741 29.6617 25.6728 30.0357 25.5251 30.4181C25.3752 30.7884 25.1183 31.2376 24.7544 31.7657L23.7071 33.2859L26.9079 35.4912L26.3621 36.2834L18.451 30.8327ZM24.0003 31.3251C24.2019 31.0325 24.3758 30.7419 24.5221 30.4532C24.6683 30.1646 24.7543 29.887 24.78 29.6206C24.8035 29.3421 24.7476 29.072 24.6121 28.8103C24.4816 28.5414 24.2415 28.2865 23.8918 28.0456C23.485 27.7653 23.1218 27.6203 22.8023 27.6106C22.4755 27.596 22.1775 27.6696 21.9082 27.8313C21.6389 27.9931 21.3878 28.22 21.155 28.5122C20.927 28.7971 20.7049 29.0967 20.4885 29.4107L19.7141 30.5347L22.9898 32.7917L24.0003 31.3251Z" fill="white"/>
<path d="M25.4344 23.3197L23.8696 24.8619L23.2583 24.2416L27.0729 20.4819L27.6843 21.1023L26.1196 22.6444L32.2518 28.8665L31.5666 29.5417L25.4344 23.3197Z" fill="white"/>
<path d="M29.0727 18.8521L29.869 18.3123L34.4575 25.0805L34.6035 15.1025L35.3998 14.5626L40.7907 22.5145L39.9945 23.0543L35.406 16.2861L35.26 26.2641L34.4637 26.8039L29.0727 18.8521Z" fill="white"/>
<path d="M45.3358 20.3978C44.7041 20.5202 44.0992 20.5451 43.5211 20.4725C42.9513 20.3976 42.4338 20.2362 41.9686 19.9881C41.5011 19.7317 41.102 19.3977 40.7712 18.9862C40.438 18.5663 40.1945 18.0809 40.0407 17.5299C39.8916 16.9957 39.8561 16.4657 39.9343 15.94C40.0102 15.4059 40.1817 14.9082 40.4487 14.4467C40.7242 13.9829 41.085 13.5672 41.5313 13.1997C41.9776 12.8322 42.4943 12.5395 43.0813 12.3216L42.9415 11.8208L43.8681 11.5621L44.0079 12.063C44.6229 11.9453 45.2165 11.928 45.7886 12.0113C46.3607 12.0945 46.8805 12.2644 47.348 12.5208C47.8238 12.7749 48.2325 13.1107 48.574 13.5282C48.9132 13.9374 49.1573 14.4092 49.3065 14.9434C49.4603 15.4943 49.5034 16.0357 49.4359 16.5674C49.366 17.0908 49.1976 17.5832 48.9305 18.0447C48.6611 18.4978 48.2979 18.9051 47.8409 19.2666C47.3923 19.6258 46.8661 19.9167 46.2624 20.1392L46.4511 20.8153L45.5245 21.074L45.3358 20.3978ZM43.319 13.1731C42.8548 13.3476 42.4522 13.5815 42.1112 13.8747C41.7678 14.1595 41.4896 14.4846 41.2767 14.8499C41.0721 15.213 40.9417 15.6003 40.8857 16.0119C40.8296 16.4234 40.861 16.8421 40.9798 17.2678C41.101 17.7019 41.288 18.0816 41.5407 18.4069C41.8019 18.7299 42.114 18.9937 42.477 19.1983C42.8377 19.3946 43.2387 19.5256 43.68 19.5914C44.1296 19.6548 44.6023 19.6398 45.0981 19.5464L43.319 13.1731ZM46.0247 19.2877C46.4972 19.1109 46.9052 18.88 47.2486 18.5952C47.6003 18.308 47.8796 17.9871 48.0865 17.6324C48.2911 17.2694 48.4173 16.8832 48.465 16.474C48.5211 16.0624 48.4885 15.6396 48.3674 15.2055C48.2485 14.7798 48.0585 14.4055 47.7974 14.0824C47.5363 13.7594 47.22 13.4968 46.8486 13.2945C46.4856 13.0899 46.0834 12.9547 45.6422 12.889C45.1986 12.8148 44.733 12.8233 44.2456 12.9144L46.0247 19.2877Z" fill="white"/>
<path d="M51.7522 10.0464L52.714 10.065L52.5562 18.2404L58.4329 10.1753L59.3948 10.1939L59.2094 19.7991L58.2475 19.7806L58.4053 11.6051L52.5286 19.6702L51.5668 19.6516L51.7522 10.0464Z" fill="white"/>
<path d="M63.0914 10.8196L64.0199 11.0712L62.8672 15.3248L68.2484 12.2171L69.478 12.5503L63.6537 15.9016L66.9652 21.8229L65.7105 21.4828L62.6768 16.0274L61.5071 20.3438L60.5786 20.0921L63.0914 10.8196Z" fill="white"/>
<path d="M74.9515 15.2066L75.8905 15.7382L74.7548 26.1351L73.8385 25.6163L74.2228 22.1141L70.3312 19.9109L67.5146 22.036L66.6322 21.5364L74.9515 15.2066ZM74.3238 21.1704L74.8887 16.4259L71.0771 19.3322L74.3238 21.1704Z" fill="white"/>
<path d="M81.9135 21.1002L80.2776 19.6336L80.859 18.9851L84.847 22.5604L84.2656 23.2089L82.6297 21.7424L76.7982 28.247L76.0819 27.6049L81.9135 21.1002Z" fill="white"/>
<path d="M86.595 24.4778L87.1791 25.2421L83.9357 27.7207L85.0566 29.1874C85.7986 30.1584 86.1676 31.0053 86.1637 31.7281C86.1667 32.4458 85.7964 33.0887 85.0527 33.657C84.2814 34.2464 83.5352 34.4404 82.814 34.2388C82.0981 34.0442 81.3507 33.4373 80.5719 32.4182L78.9617 30.311L86.595 24.4778ZM81.0667 31.6311C81.2877 31.9203 81.5156 32.2043 81.7504 32.483C81.992 32.7564 82.2445 32.9725 82.5076 33.1314C82.783 33.2918 83.0792 33.3654 83.3963 33.3522C83.7202 33.3336 84.0716 33.1797 84.4503 32.8902C84.9668 32.4956 85.2158 32.0435 85.1973 31.5341C85.1841 31.0315 84.8934 30.4083 84.3251 29.6646L83.2437 28.2495L80.2378 30.5465L81.0667 31.6311ZM91.2127 30.5204L91.7968 31.2848L84.1634 37.118L83.5793 36.3536L91.2127 30.5204Z" fill="white"/>
<defs>
<clipPath id="clip0_2581_11720">
<rect width="32" height="32" fill="white" transform="translate(38.8184 38.6348)"/>
</clipPath>
</defs>
</svg>
