<svg width="60" height="60" viewBox="0 0 60 60" fill="none" xmlns="http://www.w3.org/2000/svg">
<path d="M43.7513 4.51221C43.7009 4.51326 41.5441 6.19631 41.5441 6.19631L38.1498 5.51756C38.125 5.52459 35.3205 8.1967 35.3205 8.1967L32.3149 8.01635L30.5032 9.98791L27.2134 9.9033L25.0436 12.3191L22.0704 12.6622L20.0638 14.815L16.8745 15.8638L14.9923 18.512L12.2126 19.2414L10.6887 21.641L8.20992 22.964L7.34262 25.5163L4.56902 27.1511L4.20855 29.9517C5.93262 29.3264 7.54465 30.0344 8.77312 30.9361L11.7878 29.0646L15.8802 28.4142L19.3978 25.2402L24.6959 24.6202L28.5595 21.1389L32.3895 20.1805L34.763 17.0647C35.987 16.3804 37.7542 15.894 39.3165 15.2415L40.4648 12.3242L43.7829 11.0621C43.8009 11.0424 43.8204 11.0221 43.8383 11.0023L44.1995 8.80373L46.6002 6.97982C46.6057 6.96541 46.6112 6.951 46.6165 6.9367L44.7504 6.24025L43.7513 4.51221ZM30 24.316C29.9723 24.316 29.945 24.3164 29.9174 24.3164C29.5814 24.5154 29.2443 24.7125 28.9061 24.9076C27.9688 25.4465 27.0228 25.9701 26.0685 26.4782C27.3787 26.4428 28.6893 26.4253 30 26.4254C37.1979 26.4254 43.7173 26.95 48.3762 27.7819C50.7057 28.1979 52.5755 28.6978 53.7769 29.2051C54.3777 29.4587 54.8074 29.7197 55.0232 29.908C55.1163 29.9892 55.1466 30.0301 55.1673 30.0581C55.1466 30.0863 55.1163 30.1271 55.0232 30.2083C54.8075 30.3966 54.3777 30.6576 53.7769 30.9112C52.5755 31.4185 50.7057 31.9184 48.3763 32.3344C43.7173 33.1664 37.1978 33.691 30 33.691C22.9471 33.691 16.5503 33.1866 11.9121 32.3836C11.7877 32.4181 11.6604 32.4551 11.5375 32.4879C9.78469 32.9555 8.19727 33.2547 6.795 33.3596C8.0393 33.7554 9.53063 34.1035 11.2529 34.4111C16.0946 35.2756 22.7004 35.8003 30 35.8003C37.2996 35.8003 43.9054 35.2756 48.7471 34.4111C51.1679 33.9787 53.1423 33.4688 54.5974 32.8544C55.3252 32.5473 55.9267 32.2194 56.4103 31.7973C56.8938 31.3755 57.3047 30.7807 57.3047 30.0583C57.3047 29.3356 56.8938 28.7408 56.4102 28.3188C55.9267 27.897 55.325 27.5691 54.5974 27.2618C53.1423 26.6475 51.1679 26.1375 48.7471 25.7053C43.9054 24.8407 37.2996 24.316 30 24.316ZM56.25 33.7995C54.154 34.8965 51.2933 35.6397 47.9468 36.2624C42.7593 37.2278 36.3851 37.7194 30.0073 37.7642C23.6296 37.8089 17.2573 37.4066 12.0751 36.5553C9.4841 36.1295 7.19133 35.5934 5.32172 34.9263C4.7598 34.7257 4.23516 34.5162 3.75 34.2912V47.4742C10.1633 49.8013 20.0954 51.0347 30 51.0347C39.9046 51.0347 49.8367 49.8013 56.25 47.4742V33.7995ZM2.7368 49.3518C2.70926 49.4813 2.69536 49.6133 2.69531 49.7456C2.69531 50.4682 3.10617 51.0628 3.5898 51.4849C4.07332 51.9069 4.67496 52.2347 5.40258 52.542C6.8577 53.1563 8.83207 53.6663 11.2529 54.0986C16.0946 54.9631 22.7004 55.4878 30 55.4878C37.2996 55.4878 43.9054 54.9631 48.7471 54.0986C51.1679 53.6662 53.1423 53.1563 54.5974 52.5419C55.3252 52.2348 55.9267 51.9069 56.4103 51.4848C56.8938 51.063 57.3047 50.4682 57.3047 49.7458C57.3047 49.6098 57.29 49.4783 57.2632 49.3518C50.4046 51.9278 40.2183 53.1441 30 53.1441C19.7817 53.1441 9.59543 51.9277 2.7368 49.3518Z" fill="#CBCCCA"/>
</svg>
