<svg width="60" height="60" viewBox="0 0 60 60" fill="none" xmlns="http://www.w3.org/2000/svg">
<path fill-rule="evenodd" clip-rule="evenodd" d="M52.1999 9.4125H39.6562C38.6851 7.6961 37.2763 6.26779 35.5735 5.27309C33.8706 4.27838 31.9345 3.75284 29.9624 3.75C27.9904 3.75284 26.0543 4.27838 24.3514 5.27309C22.6486 6.26779 21.2398 7.6961 20.2687 9.4125H7.72494C5.88744 9.4125 4.35556 10.8169 3.88119 12.735C3.74431 13.2825 3.70306 13.7625 4.02181 14.2575C4.17303 14.4962 4.38206 14.6928 4.62953 14.8292C4.877 14.9655 5.15489 15.0372 5.43744 15.0375H5.62494V56.25H54.3749V15.0375H54.5249C54.8011 15.0375 55.073 14.9692 55.3164 14.8387C55.5598 14.7082 55.7672 14.5195 55.9199 14.2894C56.2406 13.815 56.2218 13.3688 56.0962 12.8363C55.6237 10.8675 54.0712 9.4125 52.1999 9.4125ZM19.9143 54.375C19.2749 54.375 18.7499 54.9 18.7499 55.5375V15.0375H20.6249V54.375H19.9143ZM39.3749 54.375H40.0856C40.7249 54.375 41.2499 54.9 41.2499 55.5375V15.0375H39.3749V54.375ZM11.2499 44.4169V39.9487C11.2499 39.63 10.9874 39.3675 10.6687 39.3675H8.08119C7.76244 39.3675 7.49994 39.63 7.49994 39.9487V44.4188C7.49994 44.7375 7.76244 45 8.08119 45H10.6499C10.9874 45 11.2499 44.7356 11.2499 44.4169ZM16.8749 44.4169V39.9487C16.8749 39.63 16.6124 39.3675 16.2937 39.3675H13.7062C13.3874 39.3675 13.1249 39.63 13.1249 39.9487V44.4188C13.1249 44.7375 13.3874 45 13.7062 45H16.2749C16.6124 45 16.8749 44.7356 16.8749 44.4169ZM11.2499 35.0287V30.5588C11.2499 30.24 10.9874 29.9775 10.6687 29.9775H8.08119C7.76244 29.9775 7.49994 30.24 7.49994 30.5588V35.0287C7.49994 35.3475 7.76244 35.61 8.08119 35.61H10.6499C10.9874 35.61 11.2499 35.3475 11.2499 35.0287ZM16.8749 35.0287V30.5588C16.8749 30.24 16.6124 29.9775 16.2937 29.9775H13.7062C13.3874 29.9775 13.1249 30.24 13.1249 30.5588V35.0287C13.1249 35.3475 13.3874 35.61 13.7062 35.61H16.2749C16.6124 35.61 16.8749 35.3475 16.8749 35.0287ZM11.2499 25.6763V21.2081C11.2499 20.8894 10.9874 20.625 10.6687 20.625H8.08119C7.76244 20.625 7.49994 20.8875 7.49994 21.2063V25.6763C7.49994 25.995 7.76244 26.2575 8.08119 26.2575H10.6499C10.9874 26.2575 11.2499 25.995 11.2499 25.6763ZM16.8749 25.6744V21.2063C16.8749 20.8875 16.6124 20.625 16.2937 20.625H13.7062C13.3874 20.625 13.1249 20.8875 13.1249 21.2063V25.6744C13.1249 25.9931 13.3874 26.2556 13.7062 26.2556H16.2749C16.6124 26.2556 16.8749 25.9931 16.8749 25.6744ZM46.8637 44.415V39.9469C46.8637 39.6281 46.5974 39.3656 46.2787 39.3656H43.7043C43.3856 39.3656 43.1231 39.6281 43.1231 39.9469V44.4169C43.1241 44.571 43.1859 44.7186 43.2951 44.8275C43.4043 44.9363 43.552 44.9976 43.7062 44.9981H46.2824C46.6012 44.9981 46.8637 44.7337 46.8637 44.415ZM52.4981 44.415V39.9469C52.4981 39.6281 52.2337 39.3656 51.9149 39.3656H49.3406C49.0218 39.3656 48.7593 39.6281 48.7593 39.9469V44.4169C48.7603 44.571 48.8221 44.7186 48.9313 44.8275C49.0405 44.9363 49.1883 44.9976 49.3424 44.9981H51.9168C52.2356 44.9981 52.4981 44.7337 52.4981 44.415ZM46.8618 35.0269V30.5569C46.8618 30.2381 46.5974 29.9756 46.2787 29.9756H43.7043C43.3856 29.9756 43.1231 30.2381 43.1231 30.5569V35.0269C43.1241 35.1811 43.1859 35.3286 43.2951 35.4375C43.4043 35.5463 43.552 35.6076 43.7062 35.6081H46.2806C46.5993 35.6081 46.8618 35.3456 46.8618 35.0269ZM52.4981 35.0269V30.5569C52.4981 30.2381 52.2337 29.9756 51.9149 29.9756H49.3406C49.0218 29.9756 48.7593 30.2381 48.7593 30.5569V35.0269C48.7603 35.1811 48.8221 35.3286 48.9313 35.4375C49.0405 35.5463 49.1883 35.6076 49.3424 35.6081H51.9168C52.2356 35.6081 52.4981 35.3456 52.4981 35.0269ZM46.8618 25.6744V21.2063C46.8618 20.8875 46.5974 20.625 46.2787 20.625H43.7043C43.3856 20.625 43.1231 20.8875 43.1231 21.2063V25.6744C43.1241 25.8286 43.1859 25.9761 43.2951 26.085C43.4043 26.1938 43.552 26.2551 43.7062 26.2556H46.2806C46.5993 26.2556 46.8618 25.9931 46.8618 25.6744ZM52.4981 25.6744V21.2063C52.4981 20.8875 52.2337 20.625 51.9149 20.625H49.3406C49.0218 20.625 48.7593 20.8875 48.7593 21.2063V25.6744C48.7603 25.8286 48.8221 25.9761 48.9313 26.085C49.0405 26.1938 49.1883 26.2551 49.3424 26.2556H51.9168C52.2356 26.2556 52.4981 25.9931 52.4981 25.6744ZM28.1249 29.4187V24.9563C28.1249 24.6375 27.8606 24.375 27.5399 24.375H24.9599C24.6374 24.375 24.3749 24.6375 24.3749 24.9563V29.4187C24.3759 29.5732 24.438 29.7211 24.5476 29.83C24.6572 29.9389 24.8054 30 24.9599 30H27.5399C27.8624 30 28.1249 29.7375 28.1249 29.4187ZM25.0556 50.625H28.3818C28.7493 50.625 29.0624 50.3269 29.0624 49.9331V41.2537H24.3749V49.9312C24.3737 50.0216 24.3904 50.1113 24.424 50.1952C24.4576 50.279 24.5074 50.3554 24.5707 50.4199C24.634 50.4844 24.7094 50.5357 24.7926 50.5709C24.8758 50.6061 24.9652 50.6245 25.0556 50.625ZM30.9374 39.375V39.3787H35.6249V39.375H37.5862C37.6976 39.376 37.8081 39.3549 37.9114 39.3129C38.0146 39.271 38.1085 39.209 38.1877 39.1305C38.2668 39.0521 38.3296 38.9587 38.3725 38.8559C38.4154 38.753 38.4374 38.6427 38.4374 38.5312C38.4374 38.4 38.4187 38.2688 38.3624 38.175C38.3531 38.1656 38.3531 38.1525 38.3531 38.1375C38.3531 38.1225 38.3531 38.1094 38.3437 38.1C37.4881 36.6539 36.2703 35.4558 34.8104 34.6239C33.3505 33.7921 31.699 33.3551 30.0187 33.3563C28.3384 33.3551 26.6869 33.7921 25.227 34.6239C23.7671 35.4558 22.5493 36.6539 21.6937 38.1V38.1169C21.6924 38.1209 21.6891 38.1239 21.6833 38.1294C21.6809 38.1316 21.6782 38.1343 21.6749 38.1375C21.6187 38.25 21.5624 38.3812 21.5624 38.5312C21.5624 38.6427 21.5845 38.753 21.6274 38.8559C21.6702 38.9587 21.7331 39.0521 21.8122 39.1305C21.8914 39.209 21.9853 39.271 22.0885 39.3129C22.1917 39.3549 22.3023 39.376 22.4137 39.375H24.3749V39.3787H29.0624V39.375H30.9374ZM30.9374 49.9331V41.2537H35.6249V49.9312C35.6249 50.325 35.3118 50.625 34.9443 50.625H31.6181C31.2506 50.625 30.9374 50.3269 30.9374 49.9331ZM35.6249 24.9563V29.4187C35.6249 29.7375 35.3606 30 35.0399 30H32.4599C32.1374 30 31.8749 29.7375 31.8749 29.4187V24.9563C31.8764 24.8019 31.9386 24.6544 32.0481 24.5456C32.1576 24.4368 32.3056 24.3755 32.4599 24.375H35.0399C35.3624 24.375 35.6249 24.6375 35.6249 24.9563ZM32.2526 18.2003C32.8268 17.825 33.3259 17.2491 33.7499 16.4725H32.6369C32.257 16.9699 31.8771 17.3277 31.4973 17.5458C31.1263 17.7552 30.6801 17.8599 30.1589 17.8599C29.7526 17.8599 29.3727 17.7858 29.0194 17.6374C28.666 17.4891 28.3568 17.2884 28.0918 17.0353C27.8268 16.7736 27.6192 16.4725 27.469 16.1322C27.3188 15.7832 27.2437 15.4079 27.2437 15.0065C27.2437 14.6051 27.3188 14.2299 27.469 13.8809C27.6192 13.5318 27.8224 13.2308 28.0785 12.9777C28.3347 12.716 28.6351 12.5109 28.9796 12.3626C29.333 12.2142 29.7128 12.1401 30.1192 12.1401C30.6581 12.1401 31.1395 12.2666 31.5635 12.5196C31.9964 12.764 32.3542 13.1217 32.6369 13.5929H33.7367C33.5953 13.2352 33.401 12.9123 33.1536 12.6243C32.9151 12.3277 32.6413 12.079 32.3321 11.8783C32.0229 11.6776 31.6828 11.5249 31.3118 11.4202C30.9407 11.3067 30.5476 11.25 30.1324 11.25C29.5936 11.25 29.0856 11.346 28.6086 11.538C28.1404 11.7299 27.7296 11.9961 27.3763 12.3364C27.0229 12.668 26.7446 13.0606 26.5414 13.5144C26.3471 13.9682 26.2499 14.4568 26.2499 14.9804C26.2499 15.5127 26.3515 16.01 26.5547 16.4725C26.7579 16.9263 27.0361 17.3233 27.3895 17.6636C27.7429 18.0039 28.1581 18.2701 28.6351 18.462C29.121 18.654 29.6422 18.75 30.1987 18.75C30.9937 18.75 31.6784 18.5668 32.2526 18.2003Z" fill="#CBCCCA"/>
</svg>
