<svg width="60" height="60" viewBox="0 0 60 60" fill="none" xmlns="http://www.w3.org/2000/svg">
<path fill-rule="evenodd" clip-rule="evenodd" d="M37.4758 0.29992C34.3325 1.09413 31.5991 3.37429 30.0347 6.5071C29.1999 8.179 29.1137 8.60014 29.1215 10.969C29.1285 12.9935 29.2794 13.961 29.7898 15.2501L30.4491 16.9153L23.7156 23.814C20.0122 27.6083 16.9359 30.7126 16.8793 30.7126C16.8227 30.7126 16.1785 30.4244 15.4478 30.0721C13.8212 29.2885 13.5798 29.5214 13.5731 31.8796C13.5696 33.1476 13.74 33.7461 14.3955 34.7714C16.6628 38.3182 22.7724 40.8591 29.9645 41.2463L33.1566 41.4185L38.6145 35.9741L44.0724 30.5295L46.0143 30.9351C52.131 32.2118 57.5192 29.3786 59.4754 23.8571C60.3082 21.507 60.1318 17.9378 59.0717 15.681C57.7055 12.7721 54.8431 10.2312 52.0044 9.40731C50.949 9.10102 50.7749 8.91478 50.2987 7.58341C48.3637 2.17045 42.732 -1.02799 37.4758 0.29992ZM13.8987 3.16645C12.4347 3.71829 10.6657 5.32254 10.0584 6.64901C9.39265 8.10329 9.33375 11.0349 9.9414 12.4776C10.1808 13.0462 10.3767 13.5439 10.3767 13.5839C10.3767 13.6236 9.84796 13.3971 9.202 13.0799C7.37758 12.1846 5.80184 12.1204 4.04503 12.87C-0.785758 14.9317 -1.44043 21.4639 2.8982 24.314C3.93592 24.9956 4.38369 25.0993 6.29197 25.0993C7.5012 25.0993 9.39294 24.9896 10.496 24.8554L12.5012 24.6116L11.6228 25.719C9.80763 28.0067 9.36799 29.205 9.36799 31.864C9.36799 34.5501 9.72376 35.5066 11.5891 37.8372C16.6523 44.1618 29.6749 46.9791 40.5164 44.095C45.9911 42.6387 51.0929 39.1942 52.6916 35.8751C53.5053 34.1865 53.5337 33.0155 52.7615 33.0155C52.3686 33.0155 51.9133 33.5454 51.2572 34.7665C48.5512 39.803 40.8263 43.0907 31.6993 43.0907C22.5545 43.0907 14.8169 39.7184 12.2536 34.616C9.85464 29.8401 13.7072 24.6073 21.7144 21.7661C24.3203 20.8412 24.9439 20.2833 24.1981 19.5438C23.8456 19.1938 23.5423 19.1843 22.2855 19.4834C21.4643 19.6788 20.717 19.7643 20.6253 19.6733C20.5336 19.5824 20.8018 18.3178 21.2214 16.8632C23.1015 10.3446 23.1955 8.20721 21.7045 5.87524C20.1544 3.45057 16.5052 2.18427 13.8987 3.16645ZM5.40777 30.961C3.46814 32.1813 2.06072 33.7515 1.01052 35.8679C0.166065 37.5692 0.0749453 38.0059 0.0749453 40.3499C0.0749453 42.6091 0.184637 43.1822 0.917947 44.7577C2.18434 47.4785 5.24584 50.0091 8.1431 50.7305C8.70723 50.871 8.98465 51.2446 9.35203 52.3584C11.1454 57.7973 17.0296 61.072 22.5081 59.6796C26.2034 58.7406 28.3934 56.999 29.9033 53.7983C30.6105 52.2991 30.8264 51.4007 30.9242 49.5535L31.0481 47.2105L28.2771 47.0171C20.7681 46.4938 13.574 43.306 10.0232 38.9287C8.21971 36.7053 7.47479 34.7216 7.47479 32.1409C7.47479 29.8167 7.34478 29.7425 5.40777 30.961Z" fill="#CBCCCA"/>
</svg>
