<svg width="60" height="60" viewBox="0 0 60 60" fill="none" xmlns="http://www.w3.org/2000/svg">
<mask id="mask0_4801_2143" style="mask-type:alpha" maskUnits="userSpaceOnUse" x="-8" y="-8" width="76" height="76">
<rect x="-7.5" y="-7.5" width="75" height="75" fill="#D9D9D9"/>
</mask>
<g mask="url(#mask0_4801_2143)">
<path d="M29.7957 60C27.7731 60 25.8107 59.7761 23.9084 59.3282C22.0062 58.8804 20.2846 58.3081 18.7435 57.6115C16.5283 56.6163 14.7256 55.4056 13.3354 53.9792C11.9451 52.5529 11.25 50.9639 11.25 49.2122V31.871C11.25 30.3195 11.8138 28.8926 12.9413 27.5902C14.0688 26.2879 15.5201 25.1358 17.2953 24.134C19.1185 23.1321 21.1298 22.3594 23.3293 21.8157C25.5288 21.2719 27.7524 21 30 21C32.2476 21 34.4712 21.2719 36.6706 21.8157C38.8702 22.3594 40.8815 23.1319 42.7047 24.1333C44.5278 25.1346 45.9912 26.2862 47.0947 27.5879C48.1982 28.8897 48.75 30.3166 48.75 31.8687V49.217C48.75 50.0681 48.5704 50.8937 48.2112 51.6937C47.852 52.4937 47.3372 53.2438 46.6667 53.9438C45.9962 54.6438 45.2093 55.3062 44.3058 55.9312C43.4024 56.5562 42.4018 57.1187 41.304 57.6187C41.3561 57.3684 41.4342 56.6673 41.5384 55.5156C41.5384 52.6113 40.5516 50.1326 38.5779 48.0796C36.6042 46.0265 34.2257 45 31.4423 45C29.3687 45 27.5362 45.5708 25.9447 46.7125C24.3534 47.8542 23.1551 49.3271 22.3498 51.1312C23.8762 51.5645 25.2783 51.852 26.5561 51.9937C27.8338 52.1354 28.9549 52.2062 29.9192 52.2062C30.7389 52.2062 31.4019 52.1791 31.9082 52.125C32.4145 52.0708 32.74 52.0437 32.8846 52.0437V59.8375C32.3518 59.9125 31.8319 59.9583 31.3251 59.975C30.8183 59.9917 30.3085 60 29.7957 60ZM38.6453 43.5C40.2295 43.5 41.5885 42.9134 42.7223 41.7401C43.8561 40.5668 44.423 39.1564 44.423 37.5088C44.423 35.8613 43.8569 34.4479 42.7246 33.2688C41.5923 32.0896 40.2311 31.5 38.641 31.5C37.051 31.5 35.6941 32.0888 34.5703 33.2664C33.4465 34.444 32.8846 35.8596 32.8846 37.5133C32.8846 39.1669 33.4487 40.5781 34.5768 41.7469C35.7049 42.9156 37.0611 43.5 38.6453 43.5ZM30 18.0001C32.4039 18.0001 34.4471 17.1334 36.1298 15.4C37.8125 13.6667 38.6539 11.5292 38.6539 8.98767C38.6539 6.49589 37.8121 4.37501 36.1285 2.62504C34.445 0.875011 32.4008 0 29.9958 0C27.5426 0 25.4878 0.875011 23.8311 2.62504C22.1745 4.37501 21.3461 6.5 21.3461 9.00002C21.3461 11.5334 22.1755 13.6667 23.8341 15.4C25.4928 17.1334 27.5481 18.0001 30 18.0001Z" fill="#CBCCCA"/>
</g>
</svg>
