<svg width="24" height="24" viewBox="0 0 24 24" fill="none" xmlns="http://www.w3.org/2000/svg">
<g clip-path="url(#clip0_2581_15634)">
<path d="M16.0195 2.8501H16.0295C16.5195 4.1201 16.9095 5.4001 17.1895 6.6601C17.2695 7.0301 17.3395 7.4001 17.4095 7.7801H22.1595C20.9395 4.8801 18.5195 2.5901 15.5195 1.6001L15.5895 1.7801L15.6395 1.8901C15.7795 2.2101 15.8995 2.5201 16.0195 2.8501Z" fill="#240403"/>
<path d="M21.4598 8.78003H17.5498C17.7098 9.86003 17.7798 10.94 17.7798 12C17.7798 13.06 17.7098 14.14 17.5598 15.22H22.5198C22.8298 14.2 22.9998 13.12 22.9998 12C22.9998 10.88 22.8298 9.80003 22.5198 8.78003H21.4598Z" fill="#240403"/>
<path d="M7.95984 21.14C7.48984 19.92 7.09984 18.64 6.79984 17.33C6.71984 16.96 6.64984 16.59 6.58984 16.22H1.83984C3.05984 19.13 5.47984 21.4 8.47984 22.4H8.48984L8.19984 21.74C8.11984 21.54 8.03984 21.34 7.95984 21.14Z" fill="#240403"/>
<path d="M17.4095 16.22C17.3495 16.59 17.2795 16.95 17.1995 17.32C16.8995 18.64 16.5095 19.92 16.0395 21.14C15.9995 21.26 15.9495 21.38 15.8995 21.5L15.5995 22.21L15.5195 22.4C18.5195 21.41 20.9395 19.12 22.1595 16.22H17.4095Z" fill="#240403"/>
<path d="M12.5 15.22H16.54C16.7 14.13 16.78 13.05 16.78 12C16.78 10.94 16.7 9.86003 16.55 8.78003H12.5V15.22Z" fill="#240403"/>
<path d="M14.76 2.39001C14.75 2.36001 14.74 2.33001 14.73 2.30001L14.68 2.18001L14.29 1.25001C13.71 1.11001 13.11 1.04001 12.5 1.01001V7.78001H16.39C16.34 7.48001 16.28 7.18001 16.21 6.88001C15.89 5.39001 15.4 3.88001 14.77 2.39001H14.76Z" fill="#240403"/>
<path d="M6.58984 7.7801C6.65984 7.4001 6.72984 7.0301 6.80984 6.6601C7.08984 5.4001 7.47984 4.1201 7.96984 2.8501H7.97984C8.02984 2.6901 8.08984 2.5401 8.14984 2.3901L8.31984 2.0001L8.38484 1.8431L8.48984 1.6001C5.48984 2.5901 3.05984 4.8701 1.83984 7.7801H6.58984Z" fill="#240403"/>
<path d="M6.44 15.22C6.29 14.14 6.22 13.06 6.22 12C6.22 10.94 6.29 9.86003 6.45 8.78003H1.48C1.17 9.80003 1 10.88 1 12C1 13.12 1.17 14.2 1.48 15.22H6.44Z" fill="#240403"/>
<path d="M7.21973 12C7.21973 13.05 7.29973 14.13 7.45973 15.22H11.4997V8.78003H7.44973C7.29973 9.86003 7.21973 10.94 7.21973 12Z" fill="#240403"/>
<path d="M7.78035 17.11C8.13035 18.68 8.62035 20.19 9.24035 21.61L9.32035 21.81L9.72035 22.75C10.3004 22.89 10.8904 22.96 11.5004 22.99V16.22H7.61035C7.66035 16.51 7.72035 16.81 7.78035 17.11Z" fill="#240403"/>
<path d="M9.35035 2.08001L9.24035 2.39001H9.23035C8.60035 3.88001 8.11035 5.39001 7.79035 6.88001C7.72035 7.18001 7.66035 7.48001 7.61035 7.78001H11.5004V1.01001C10.8704 1.04001 10.2404 1.12001 9.64035 1.27001L9.35035 2.08001Z" fill="#240403"/>
<path d="M14.76 21.61C15.38 20.19 15.87 18.68 16.22 17.11C16.28 16.81 16.34 16.51 16.39 16.22H12.5V22.99C13.1 22.96 13.7 22.89 14.27 22.75L14.68 21.81L14.729 21.688L14.81 21.5L14.76 21.61Z" fill="#240403"/>
</g>
<defs>
<clipPath id="clip0_2581_15634">
<rect width="24" height="24" fill="white"/>
</clipPath>
</defs>
</svg>
