<svg width="33" height="33" viewBox="0 0 33 33" fill="none" xmlns="http://www.w3.org/2000/svg">
<path fill-rule="evenodd" clip-rule="evenodd" d="M17.7364 2.9207C17.0069 3.10092 16.2336 3.72774 15.4755 4.75347C15.2319 5.08299 14.6529 5.9946 13.7405 7.4848C13.5145 7.85399 13.1318 8.47896 12.8902 8.87361C12.6485 9.26826 12.3859 9.69861 12.3066 9.82995C12.0515 10.2525 11.3263 11.4311 11.072 11.8364C10.2852 13.0908 10.2691 13.1224 10.3022 13.3427C10.367 13.7733 10.8603 15.6606 10.9278 15.7362C10.9551 15.7667 11.6165 15.5199 11.6747 15.4575C11.6874 15.4438 11.6637 15.4447 11.6219 15.4596C11.5201 15.4958 11.3495 15.3713 11.3495 15.2607C11.3495 15.0545 11.9603 14.9475 12.2303 15.1064C12.3557 15.1802 12.3697 15.1768 12.7962 14.9658C13.1432 14.7942 13.2667 14.7053 13.3947 14.535C13.6369 14.2125 13.7541 14.1448 14.1193 14.1168C14.5781 14.0816 15.0576 13.8219 15.4603 13.3904C15.6439 13.1938 15.7461 13.1259 15.9481 13.0668C16.2263 12.9852 16.6054 12.7491 17.3069 12.2205L17.7599 11.8791L17.6669 11.7796C17.5501 11.6547 17.5506 11.6249 17.6737 11.3933C17.7911 11.1725 17.7684 11.0077 17.5973 10.8371C17.4579 10.6982 17.242 10.691 17.0058 10.8172C16.9113 10.8676 16.8027 10.8969 16.7644 10.8823C16.6575 10.8414 16.6293 10.6864 16.7072 10.568C16.8976 10.2783 17.4646 10.2257 17.7834 10.4681C18.0625 10.6802 18.1372 10.8405 18.119 11.1883C18.1104 11.3538 18.0856 11.5309 18.0638 11.5818C18.0338 11.6522 18.0622 11.6405 18.1823 11.5328C18.2692 11.4549 18.4239 11.331 18.526 11.2575C18.7588 11.09 18.765 11.0806 18.8508 10.7717C18.8897 10.6316 19.0037 10.2462 19.1042 9.91522C19.4902 8.64386 19.8195 7.44369 19.9008 7.01112C20.2145 5.34247 20.0587 4.07295 19.4542 3.37466C19.0814 2.94394 18.386 2.7602 17.7364 2.9207ZM18.648 3.82135C18.8865 3.97208 19.0269 4.21632 19.005 4.44238C18.9938 4.55746 18.9662 4.59487 18.8835 4.60658C18.7566 4.6245 18.6422 4.54191 18.6422 4.43242C18.6422 4.38937 18.5792 4.29401 18.5022 4.22049C18.2128 3.94421 17.8574 4.09791 17.7423 4.54904C17.6784 4.79963 17.5557 4.86772 17.417 4.72949C17.2651 4.57811 17.3823 4.10758 17.6257 3.89134C17.8936 3.65344 18.3346 3.62326 18.648 3.82135ZM27.9162 4.87138C27.9269 4.89925 27.7815 5.13933 27.5931 5.40487C27.4047 5.67041 27.2001 5.97794 27.1385 6.0883L27.0264 6.28894L27.1414 6.36607C27.2046 6.40847 27.3491 6.51337 27.4626 6.5992L27.6688 6.75521L28.1209 6.29829C28.7416 5.67092 28.8044 5.41663 28.4453 4.98494C28.3285 4.84462 28.2827 4.82277 28.1036 4.8218C27.9724 4.82111 27.9038 4.83925 27.9162 4.87138ZM16.4533 5.56065C16.7604 5.71893 17.005 6.1421 16.8923 6.32019C16.8038 6.46004 16.6306 6.41449 16.5426 6.22816C16.4211 5.97104 16.2416 5.85063 16.0229 5.8797C15.7874 5.91105 15.7163 5.98863 15.6486 6.28848C15.5943 6.52837 15.5879 6.53578 15.4336 6.53578C15.2821 6.53578 15.2738 6.52721 15.2596 6.35426C15.2075 5.71851 15.8852 5.26789 16.4533 5.56065ZM18.7015 6.00618C18.9036 6.0621 19.1738 6.28237 19.2716 6.47092C19.4397 6.79484 19.2757 7.33296 18.9561 7.50656C18.7918 7.59577 18.7861 7.59586 18.6919 7.51096C18.639 7.46323 18.5957 7.40851 18.5957 7.38943C18.5957 7.37032 18.6689 7.2674 18.7583 7.16074C18.969 6.90937 18.9812 6.67795 18.7935 6.49092C18.6722 6.37 18.6514 6.36546 18.3552 6.39454C18.0688 6.42264 18.0401 6.41727 17.9912 6.32611C17.9246 6.20219 18.0302 6.06863 18.2436 6.00687C18.4396 5.95016 18.4988 5.95007 18.7015 6.00618ZM24.1115 6.09803C23.8389 6.16506 23.5129 6.34783 23.3181 6.54272C23.1077 6.75331 22.7762 7.23541 22.7762 7.33092C22.7762 7.40041 23.0517 7.39693 23.8544 7.31745C24.0558 7.29749 24.24 7.30722 24.375 7.34485C24.5857 7.40369 24.9211 7.65104 25.007 7.81108C25.0538 7.89811 25.2052 8.61372 25.2637 9.02407C25.2986 9.26877 25.3263 9.28021 25.6848 9.19767C25.7899 9.1735 26.1035 9.14943 26.3815 9.14429C26.9531 9.13364 27.1447 9.19281 27.3591 9.44622C27.5356 9.65477 27.5942 9.82189 27.6549 10.2887C27.6844 10.5161 27.7161 10.7273 27.7252 10.758C27.7422 10.815 28.0984 10.6476 28.2689 10.5024C28.3136 10.4644 28.3502 10.4513 28.3502 10.4734C28.3502 10.5524 28.8241 10.0505 28.921 9.86893C29.2133 9.32122 28.8868 8.5933 27.964 7.73571C27.3018 7.12024 26.0329 6.36199 25.4528 6.2351C25.3282 6.20783 25.19 6.16617 25.1456 6.14251C25.0267 6.07909 24.3132 6.0484 24.1115 6.09803ZM15.6865 7.48568C15.9372 7.64414 16.1028 7.9426 16.0786 8.19226C16.065 8.33281 16.0537 8.34123 15.8784 8.34123C15.7148 8.34123 15.6909 8.32739 15.6788 8.2255C15.6376 7.87922 15.42 7.68312 15.1359 7.73622C14.9549 7.77006 14.8641 7.86538 14.788 8.10143C14.7247 8.2979 14.6568 8.34211 14.4848 8.29906C14.1727 8.22096 14.5489 7.47614 14.9494 7.37916C15.2239 7.31268 15.4688 7.34809 15.6865 7.48568ZM23.6588 7.93237C23.5438 7.94047 23.3362 7.95963 23.1975 7.97496C22.9179 8.00579 23.0486 7.89779 21.4953 9.38233C18.0212 12.7026 15.2787 14.5983 11.8778 16.0303C11.1298 16.3453 9.5421 16.8957 8.86444 17.075C8.44449 17.1861 8.31721 17.2406 8.35094 17.2949C8.36371 17.3155 8.48448 17.3032 8.61933 17.2674C8.8585 17.204 10.0018 17.172 10.0899 17.2262C10.1331 17.2529 9.96833 18.0077 9.84277 18.3581C9.75512 18.6028 9.75544 18.5953 9.83227 18.5953C9.94106 18.5953 10.9887 19.2898 11.2789 19.5543C12.7424 20.8884 13.4141 22.594 13.2211 24.4862C13.1898 24.7932 13.1933 24.8912 13.2355 24.8912C13.3318 24.8912 14.2723 24.5002 14.9378 24.1834L15.5765 23.8795L15.5766 23.4479C15.577 22.4338 15.7375 21.3387 16.0932 19.9225C16.6105 17.8626 17.2467 16.5816 18.1523 15.7762C18.5449 15.4271 18.8537 15.2921 19.3111 15.2697C19.7035 15.2505 19.9082 15.2936 20.3032 15.4788L20.5475 15.5933L20.7677 15.3981C21.3187 14.9097 22.0386 14.7669 22.7501 15.005C23.2 15.1556 23.6054 15.3772 23.9868 15.6811C24.145 15.8071 24.2923 15.9103 24.3141 15.9103C24.3359 15.9103 24.366 15.8529 24.381 15.7829C24.5245 15.1121 24.8023 14.4694 25.1264 14.0585C25.3127 13.8223 26.6382 12.5486 26.8607 12.3919C27.004 12.2911 27.2077 11.3202 27.1448 11.0381C27.1207 10.9297 27.0787 10.6612 27.0515 10.4413C26.9576 9.68199 26.929 9.65843 26.2187 9.75319C25.2965 9.87624 25.1762 9.88212 25.0202 9.81189C24.7993 9.71255 24.7509 9.60274 24.6373 8.94305C24.4501 7.8558 24.4689 7.87519 23.6588 7.93237ZM18.3047 8.16226C18.6217 8.41465 18.7281 8.81042 18.5764 9.17239C18.4474 9.47992 18.083 9.57385 18.0863 9.29873C18.087 9.2304 18.1184 9.13406 18.1559 9.08466C18.2745 8.92842 18.2427 8.65358 18.0883 8.4997C17.9184 8.33031 17.739 8.32424 17.5086 8.48011C17.4144 8.54377 17.3287 8.59585 17.3181 8.59585C17.285 8.59585 17.1093 8.39521 17.1093 8.35744C17.1093 8.29841 17.3088 8.12657 17.4577 8.05736C17.5424 8.01796 17.7015 7.99852 17.8634 8.00778C18.0762 8.01991 18.1649 8.05097 18.3047 8.16226ZM16.0774 9.39386C16.2537 9.51015 16.3733 9.69412 16.4363 9.94591C16.4592 10.0375 16.4418 10.0944 16.3691 10.1669C16.2449 10.2907 16.1084 10.2315 16.0651 10.035C16.0268 9.86143 15.8519 9.6732 15.6917 9.63311C15.5308 9.59283 15.2631 9.71722 15.2097 9.85698C15.1878 9.91448 15.1516 10.0218 15.1293 10.0956C15.0293 10.4263 14.765 10.3372 14.7792 9.97758C14.8027 9.3783 15.5466 9.04383 16.0774 9.39386ZM13.8882 10.241C14.244 10.4488 14.3778 10.9466 14.1811 11.3309C14.0577 11.5718 13.8943 11.6523 13.7651 11.5357C13.6498 11.4316 13.6497 11.3814 13.7649 11.2346C13.8162 11.1693 13.8562 11.0459 13.8568 10.9515C13.859 10.5928 13.4969 10.3965 13.1784 10.5838C12.9135 10.7396 12.7895 10.6959 12.7895 10.4469C12.7895 10.3525 13.0017 10.183 13.1978 10.121C13.3819 10.0627 13.6681 10.1125 13.8882 10.241ZM5.45037 10.391C5.45037 10.4107 5.53416 10.5381 5.63659 10.6739C6.13105 11.3298 6.47835 11.9814 6.79895 12.8549C7.14858 13.8074 7.25987 14.4467 7.26108 15.5093L7.26192 16.2425L7.43996 16.2125C7.59877 16.1857 7.65265 16.2057 7.9393 16.3975L8.26059 16.6125L8.63219 16.5138C9.39146 16.3123 10.3276 15.9946 10.3276 15.9386C10.3276 15.9072 10.2321 15.539 10.1154 15.1204C9.9987 14.7019 9.8528 14.1342 9.79121 13.859C9.66064 13.2756 9.5689 13.0523 9.28653 12.6307C8.68073 11.726 7.69613 11.0821 6.13086 10.5668C5.42064 10.333 5.45037 10.3407 5.45037 10.391ZM15.9118 11.4218C16.1576 11.4899 16.338 11.6589 16.4557 11.9316C16.5504 12.1511 16.5525 12.1759 16.4841 12.2799C16.4435 12.3415 16.3864 12.3919 16.3571 12.3919C16.2717 12.3919 16.1339 12.2462 16.1339 12.1559C16.1339 12.0027 15.9379 11.8324 15.7296 11.8046C15.5566 11.7815 15.5184 11.7946 15.3929 11.9196C15.315 11.9972 15.2513 12.1098 15.2513 12.1698C15.2513 12.4233 14.984 12.5861 14.8813 12.395C14.8048 12.2524 14.8248 12.0813 14.9454 11.8465C15.1421 11.4636 15.4979 11.3072 15.9118 11.4218ZM12.9771 12.0692C13.2768 12.2819 13.3863 12.7833 13.2088 13.1301C13.0508 13.4387 12.7597 13.5937 12.613 13.4474C12.5199 13.3547 12.5487 13.2759 12.743 13.0917C12.9393 12.9055 12.9774 12.7541 12.8755 12.5644C12.7508 12.3321 12.5032 12.2437 12.2553 12.3431C12.0501 12.4253 11.8906 12.1852 12.053 12.0387C12.1594 11.9427 12.4752 11.8896 12.6814 11.9329C12.7625 11.95 12.8956 12.0113 12.9771 12.0692ZM26.6646 13.3525C25.6537 14.3407 25.5294 14.4758 25.3907 14.7369C25.2414 15.018 24.9426 15.909 24.9839 15.9501C25.0117 15.9779 25.5333 16.0878 25.5546 16.0705C25.5627 16.0639 25.5991 15.931 25.6356 15.7752C25.7264 15.3873 25.8912 15.0807 26.1195 14.8752C26.3453 14.6718 26.4271 14.6375 26.7804 14.5974C26.9881 14.5739 27.0965 14.5875 27.2817 14.6602C27.5843 14.7791 27.9041 14.8174 28.0305 14.75C28.1218 14.7013 28.1274 14.6693 28.1064 14.3201C28.0552 13.4702 27.7393 12.9012 27.3186 12.9012C27.1379 12.9012 27.0985 12.9284 26.6646 13.3525ZM11.6649 13.1747C11.9922 13.3425 12.1861 13.6256 12.1852 13.9342C12.1845 14.1453 11.9451 14.5378 11.7633 14.6255C11.5916 14.7084 11.5081 14.6901 11.4349 14.5537C11.392 14.4738 11.402 14.4421 11.4953 14.3621C11.78 14.118 11.8386 13.8832 11.6686 13.6678C11.5307 13.4931 11.3797 13.445 11.157 13.5048C10.9906 13.5494 10.9655 13.5442 10.8881 13.449C10.7816 13.3179 10.8051 13.2533 10.9929 13.161C11.1929 13.0627 11.4569 13.0681 11.6649 13.1747ZM21.4879 15.6325C21.1148 15.8198 20.9933 15.9726 20.5682 16.7886C19.7288 18.4003 19.0905 20.2164 18.8431 21.697C18.7538 22.2312 18.7272 23.7943 18.7965 24.4332C18.8288 24.7321 18.8231 24.7969 18.7583 24.8615C18.6429 24.9765 18.3797 24.9603 18.3012 24.8334C18.2393 24.7333 18.1659 24.2817 18.107 23.6376C18.0716 23.2511 18.1581 22.1111 18.2754 21.4192C18.4971 20.1113 19.1921 18.1163 19.9115 16.7226C20.0692 16.4171 20.2048 16.1521 20.2129 16.1338C20.2486 16.0525 19.8126 15.8947 19.495 15.8741C19.2115 15.8556 19.1274 15.8691 18.9144 15.9675C18.1663 16.3131 17.3791 17.607 16.8818 19.3081C16.6314 20.1646 16.3849 21.277 16.2982 21.9417C16.1432 23.1293 16.1621 24.4435 16.347 25.331C16.5193 26.1585 16.9451 27.1596 17.3087 27.5925C17.7728 28.1449 18.5138 28.3772 19.2974 28.2159C19.8091 28.1106 20.1623 28.3285 20.4796 28.9454C20.6867 29.3479 20.9523 29.6723 21.1674 29.7855C21.3647 29.8895 22.3408 29.8891 22.8016 29.785C23.5947 29.6057 24.5174 29.2056 25.3077 28.6982C26.1739 28.1421 27.4145 27.0258 28.119 26.1685C28.2845 25.9671 28.5321 25.668 28.6692 25.5038C29.0706 25.0231 29.5943 24.2134 29.8632 23.6577C30.4361 22.474 30.4689 21.5994 29.9574 21.1517C29.7732 20.9905 29.4619 20.8174 29.3563 20.8174C29.3201 20.8174 29.2102 20.9163 29.1121 21.0373C29.014 21.1582 28.8342 21.3718 28.7124 21.5118C28.0668 22.2542 27.0958 23.5758 26.2463 24.8681C25.8782 25.4281 25.7821 25.4911 25.5819 25.3036C25.5205 25.2462 25.4703 25.1627 25.4703 25.1183C25.4703 24.8948 26.5085 23.3328 27.4811 22.0931C27.8028 21.6829 28.6534 20.6552 28.8078 20.49C28.9479 20.3402 28.9335 20.1807 28.7241 19.5605C28.3536 18.4629 27.8642 17.747 27.1979 17.3278C26.9394 17.1652 26.1537 16.8526 25.7355 16.746C25.333 16.6434 24.3067 16.4658 24.1164 16.4658C24.0262 16.4658 23.9171 16.408 23.7855 16.2905C23.4657 16.0052 23.262 15.8696 22.881 15.6883C22.5759 15.5431 22.4638 15.5146 22.1491 15.5019C21.8093 15.4883 21.7528 15.4994 21.4879 15.6325ZM7.35458 16.9059C7.01889 17.3922 6.84387 17.9888 6.84387 18.6469C6.84387 19.1254 6.81261 19.1971 6.60395 19.1971C6.39711 19.1971 6.36506 19.0761 6.39679 18.4149C6.41216 18.094 6.43748 17.7444 6.45308 17.6379C6.48063 17.4496 6.47659 17.442 6.30012 17.3523C6.03578 17.2179 5.58563 17.1345 5.40564 17.1867C5.22142 17.2401 5.23516 17.3055 5.44568 17.3777C5.98947 17.564 6.2069 18.0729 5.93805 18.5301L5.82192 18.7276L5.61062 18.6099C5.4323 18.5106 5.35431 18.4951 5.11124 18.5105C4.87174 18.5257 4.77777 18.5588 4.55398 18.7069C4.37863 18.8228 4.21234 18.893 4.07689 18.9083C3.81723 18.9374 3.78848 18.9803 3.9518 19.0948C4.19148 19.2628 4.36478 19.3297 4.75696 19.4058C5.3426 19.5195 5.44391 19.5596 5.52083 19.7079C5.61926 19.8976 5.60639 20.0863 5.47359 20.4007C5.39439 20.5883 5.3577 20.7608 5.35816 20.9433C5.35923 21.3383 5.38696 21.3631 5.71444 21.2622C6.27509 21.0895 6.68947 20.7478 6.82264 20.3483C6.92432 20.0434 7.0266 19.9684 7.36908 19.9474C7.6082 19.9328 7.71657 19.9538 8.01139 20.0721C8.4711 20.2565 8.90806 20.3177 9.37971 20.2637C9.78095 20.2176 10.1027 20.1268 10.127 20.0525C10.1539 19.9703 9.7612 19.7534 9.36912 19.6339C8.56832 19.39 8.32302 18.9921 8.81121 18.729C8.93458 18.6626 9.09799 18.5459 9.17431 18.4699C9.31333 18.3313 9.55998 17.7347 9.49481 17.6946C9.42096 17.6491 8.64817 17.7608 8.45865 17.8444C8.3482 17.8931 8.11771 18.0443 7.9464 18.1803C7.67147 18.3987 7.62627 18.4576 7.56068 18.6823C7.51985 18.8224 7.48037 19.0579 7.47299 19.2057C7.45863 19.492 7.40912 19.5888 7.25695 19.6285C7.09405 19.6709 6.98312 19.5097 6.98401 19.2318C6.98605 18.6261 7.21904 17.9964 7.65456 17.4197C7.79628 17.232 7.91222 17.0563 7.91222 17.0291C7.91222 16.9854 7.70709 16.8115 7.55511 16.7263C7.5218 16.7076 7.44237 16.7787 7.35458 16.9059ZM3.24274 19.8617C2.52276 20.4338 1.85885 21.3661 1.56993 22.2109C1.21501 23.2486 1.23768 24.6538 1.62498 25.6225C2.29887 27.3081 3.65224 28.4709 5.54327 28.9891C6.09012 29.1389 7.16093 29.1954 7.77709 29.107C8.46465 29.0082 9.32783 28.7255 9.8476 28.4287C11.5389 27.463 12.5048 25.9796 12.6424 24.1366C12.661 23.887 12.6673 23.6738 12.6563 23.6629C12.6454 23.652 12.6303 23.5229 12.6228 23.376C12.6076 23.0764 12.4704 22.4595 12.3285 22.0518C12.121 21.4563 11.6331 20.7361 11.0736 20.1994C10.8387 19.9741 10.636 19.8002 10.6231 19.813C10.6103 19.8258 10.6421 19.9189 10.6938 20.0198L10.7878 20.2035L10.6855 20.299C10.6292 20.3516 10.4681 20.4477 10.3276 20.5126C9.63193 20.834 8.79347 20.8542 7.93103 20.5704C7.64759 20.4771 7.40303 20.4007 7.38761 20.4007C7.37219 20.4007 7.29662 20.5322 7.21969 20.6928C6.92032 21.318 5.95365 21.8829 5.27859 21.8272C5.02279 21.8061 4.88261 21.539 4.85534 21.0208C4.83769 20.6854 4.84944 20.6111 4.95707 20.3767C5.12317 20.0151 5.11802 19.938 4.9278 19.9371C4.69184 19.936 4.21721 19.8111 3.96462 19.6835C3.83823 19.6197 3.70742 19.5675 3.67398 19.5675C3.64049 19.5675 3.44647 19.6999 3.24274 19.8617ZM15.9016 20.3544C15.9016 20.3799 15.8795 20.4007 15.8524 20.4007C15.8254 20.4007 15.8161 20.3799 15.8319 20.3544C15.8477 20.329 15.8698 20.3082 15.8811 20.3082C15.8924 20.3082 15.9016 20.329 15.9016 20.3544ZM14.8565 24.4301C14.4988 24.6051 14.0494 24.8021 13.8578 24.8679C13.0774 25.1361 13.1399 25.0958 13.0486 25.3896C12.9035 25.8561 12.7384 26.2342 12.4854 26.6795C12.2906 27.0222 12.2554 27.1133 12.3177 27.1133C12.4546 27.1133 13.458 26.8422 13.9399 26.6751C14.4411 26.5012 15.73 25.9066 15.7798 25.8262C15.7967 25.7991 15.7875 25.6765 15.7594 25.5539C15.7113 25.3441 15.5811 24.3618 15.5779 24.1853C15.5771 24.1407 15.5608 24.106 15.5416 24.1082C15.5224 24.1103 15.2142 24.2552 14.8565 24.4301ZM2.01307 24.5501C2.01307 24.818 2.46795 25.8377 2.81373 26.3448C3.20744 26.9222 3.93498 27.5542 4.62634 27.9194C5.06228 28.1497 5.92968 28.4298 6.56517 28.5456C7.29025 28.6777 7.30837 28.6824 7.30837 28.7368C7.30837 28.7969 6.73824 28.7572 6.19728 28.6594C5.16358 28.4727 3.99867 27.8926 3.33243 27.2329C2.69779 26.6045 2.22678 25.8558 1.98413 25.0896C1.89369 24.8042 1.83307 24.5489 1.84947 24.5225C1.89634 24.4469 2.01307 24.4666 2.01307 24.5501Z" fill="#6AA64C"/>
</svg>
