<svg width="24" height="24" viewBox="0 0 24 24" fill="none" xmlns="http://www.w3.org/2000/svg">
<g clip-path="url(#clip0_2581_15629)">
<path fill-rule="evenodd" clip-rule="evenodd" d="M5.95693 3.14978C7.56282 1.58459 9.73523 0.706055 11.9997 0.706055C14.2641 0.706055 16.4365 1.58459 18.0424 3.14978C24.1705 9.15778 17.2744 16.6168 12.9832 22.3359C12.8698 22.4873 12.7216 22.6104 12.5506 22.6952C12.3797 22.7801 12.1908 22.8243 11.9992 22.8243C11.8076 22.8243 11.6187 22.7801 11.4477 22.6952C11.2768 22.6104 11.1286 22.4873 11.0152 22.3359C6.72565 16.6168 -0.171226 9.15778 5.95693 3.14978ZM11.9997 5.84131C11.3934 5.84131 10.8008 6.01754 10.2968 6.34772C9.79268 6.6779 9.3998 7.14721 9.16777 7.69629C8.93575 8.24537 8.875 8.84958 8.99322 9.4325C9.11144 10.0154 9.40331 10.5509 9.83192 10.9712C10.2605 11.3915 10.8066 11.6778 11.4012 11.7938C11.9958 11.9099 12.6121 11.8505 13.1722 11.6231C13.7323 11.3958 14.2111 11.0107 14.548 10.5166C14.8849 10.0225 15.0648 9.44153 15.0649 8.84719C15.065 8.45248 14.9858 8.06163 14.8318 7.69694C14.6778 7.33225 14.452 7.00088 14.1674 6.72175C13.8827 6.44262 13.5448 6.2212 13.1729 6.07013C12.8009 5.91906 12.4023 5.84131 11.9997 5.84131Z" fill="#240403"/>
</g>
<defs>
<clipPath id="clip0_2581_15629">
<rect width="24" height="24" fill="white"/>
</clipPath>
</defs>
</svg>
