<svg width="108" height="108" viewBox="0 0 108 108" fill="none" xmlns="http://www.w3.org/2000/svg">
<g clip-path="url(#clip0_2704_12905)">
<path d="M50.3639 44.5726H64.2571V58.4658M63.2923 45.5374L44.3822 64.4476" stroke="white" stroke-width="1.5" stroke-linecap="round" stroke-linejoin="round"/>
</g>
<path d="M96.309 56.2377L95.508 62.9108L85.9694 61.7658L86.0841 60.8106L94.7578 61.8519L95.3296 57.0891L86.6559 56.0478L86.7705 55.0927L96.309 56.2377Z" fill="white"/>
<path d="M94.5871 66.276L93.7463 68.7911C93.5485 69.3829 93.3507 69.8514 93.1531 70.1966C92.9555 70.5417 92.7223 70.8293 92.4535 71.0593C92.1244 71.333 91.7309 71.4985 91.2732 71.5557C90.8155 71.6128 90.3277 71.5548 89.8098 71.3817C89.3413 71.2251 88.9523 71.0082 88.6429 70.7312C88.3417 70.4568 88.1337 70.136 88.0189 69.7687C87.9068 69.4205 87.8688 69.0422 87.9048 68.6339C87.9462 68.2366 88.0686 67.7338 88.272 67.1255L88.8572 65.3748L85.1708 64.1424L85.4758 63.23L94.5871 66.276ZM89.1186 67.34C89.006 67.677 88.9193 68.0045 88.8588 68.3223C88.7982 68.6402 88.7925 68.9307 88.8416 69.1938C88.8961 69.4679 89.0247 69.712 89.2274 69.9259C89.4272 70.1481 89.7285 70.3265 90.1313 70.4611C90.5998 70.6178 90.989 70.6565 91.2987 70.5773C91.6167 70.5008 91.8827 70.3476 92.0966 70.1175C92.3106 69.8875 92.489 69.5999 92.6318 69.2547C92.7719 68.9177 92.9024 68.5684 93.0233 68.2067L93.4561 66.9122L89.6833 65.6509L89.1186 67.34Z" fill="white"/>
<path d="M87.4382 72.2108C87.9989 72.6186 88.4455 73.1096 88.7781 73.6837C89.1106 74.2579 89.3205 74.8607 89.4078 75.4921C89.4969 76.1357 89.4631 76.7863 89.3063 77.4438C89.1443 78.1084 88.8544 78.728 88.4363 79.3027C88.0336 79.8564 87.5451 80.2995 86.971 80.6321C86.4039 80.9697 85.802 81.1857 85.1655 81.2799C84.5308 81.3863 83.8917 81.3661 83.2482 81.2195C82.6065 81.085 82.0124 80.8189 81.4657 80.4213C80.912 80.0185 80.4689 79.5301 80.1364 78.9559C79.8108 78.3869 79.6009 77.7841 79.5067 77.1475C79.4124 76.511 79.4412 75.8674 79.5929 75.2169C79.7446 74.5663 80.0244 73.9607 80.4322 73.4C80.8401 72.8393 81.3301 72.3867 81.9024 72.042C82.4816 71.7024 83.0911 71.476 83.7308 71.3626C84.3655 71.2563 85.0036 71.2704 85.6452 71.4049C86.2939 71.5445 86.8915 71.8131 87.4382 72.2108ZM86.8647 72.9992C86.4161 72.6729 85.9249 72.4496 85.3909 72.3291C84.864 72.2137 84.3402 72.1971 83.8196 72.2792C83.306 72.3665 82.8164 72.5461 82.3505 72.8181C81.8796 73.0972 81.4785 73.4645 81.1471 73.92C80.8157 74.3756 80.5923 74.8668 80.477 75.3938C80.3616 75.9207 80.3415 76.4419 80.4166 76.9574C80.4987 77.478 80.6758 77.9712 80.9479 78.437C81.2199 78.9028 81.5802 79.2989 82.0287 79.6252C82.4913 79.9616 82.9861 80.1876 83.513 80.303C84.047 80.4234 84.5707 80.4401 85.0843 80.3528C85.6049 80.2707 86.1032 80.0866 86.5792 79.8005C87.0501 79.5215 87.4538 79.1507 87.7903 78.6881C88.1115 78.2466 88.3262 77.7598 88.4346 77.2277C88.55 76.7008 88.5666 76.177 88.4845 75.6564C88.3972 75.1429 88.2176 74.6532 87.9455 74.1874C87.6735 73.7215 87.3132 73.3255 86.8647 72.9992Z" fill="white"/>
<path d="M77.9784 78.6409L77.171 79.2104L79.1466 88.5073L78.2542 89.1367L70.1595 84.1556L69.3521 84.7251L67.8311 82.5685L68.3835 82.1789L69.7 83.4139L76.6265 78.5286L75.9049 76.874L76.4573 76.4844L77.9784 78.6409ZM70.9987 83.5637L78.071 87.9296L76.3317 79.8023L70.9987 83.5637Z" fill="white"/>
<path d="M66.5148 87.4411L71.7255 93.0849L70.7696 93.4232L66.4315 88.7254L66.0146 95.1062L65.0588 95.4445L65.7381 85.013L66.694 84.6747L66.5148 87.4411Z" fill="white"/>
<path d="M62.0834 96.1027L61.1283 96.2173L60.603 91.8417L56.7785 96.7395L55.5136 96.8913L59.6577 91.6017L54.3685 87.3528L55.6593 87.1979L60.5162 91.1189L59.9832 86.6788L60.9384 86.5641L62.0834 96.1027Z" fill="white"/>
<path d="M51.6505 95.8184L53.8416 95.9793L53.7778 96.848L48.4362 96.4558L48.5 95.5871L50.6911 95.748L51.3308 87.0354L52.2902 87.1059L51.6505 95.8184Z" fill="white"/>
<path d="M45.8408 96.0234L44.9129 95.7694L45.9903 91.8322L44.2098 91.345C43.0311 91.0224 42.2243 90.5725 41.7892 89.9952C41.3519 89.4262 41.2568 88.6904 41.5038 87.7876C41.76 86.8513 42.236 86.2448 42.9318 85.9679C43.6191 85.6888 44.5814 85.7185 45.8186 86.0571L48.3766 86.7571L45.8408 96.0234ZM45.9022 86.983C45.5511 86.8869 45.1977 86.7992 44.842 86.7198C44.4841 86.6488 44.1523 86.6299 43.8467 86.6631C43.5305 86.7023 43.2503 86.8233 43.0061 87.0261C42.7596 87.2372 42.5735 87.5726 42.4477 88.0324C42.2761 88.6593 42.3521 89.1698 42.6755 89.5638C42.9906 89.9555 43.5996 90.2749 44.5024 90.522L46.2202 90.9921L47.2188 87.3433L45.9022 86.983ZM38.5055 94.016L37.5776 93.7621L40.1134 84.4958L41.0413 84.7497L38.5055 94.016Z" fill="white"/>
<path d="M11.8121 51.711L12.6131 45.0379L22.1517 46.183L22.037 47.1381L13.3633 46.0969L12.7915 50.8597L21.4652 51.9009L21.3506 52.8561L11.8121 51.711Z" fill="white"/>
<path d="M13.534 41.6733L14.3748 39.1581C14.5726 38.5663 14.7704 38.0978 14.968 37.7527C15.1656 37.4075 15.3988 37.1199 15.6676 36.89C15.9967 36.6162 16.3902 36.4507 16.8479 36.3936C17.3056 36.3364 17.7934 36.3944 18.3113 36.5675C18.7798 36.7241 19.1687 36.941 19.4782 37.2181C19.7794 37.4924 19.9874 37.8132 20.1022 38.1806C20.2143 38.5287 20.2523 38.907 20.2163 39.3153C20.1749 39.7127 20.0525 40.2155 19.8491 40.8237L19.2639 42.5745L22.9503 43.8069L22.6453 44.7192L13.534 41.6733ZM19.0025 40.6092C19.1151 40.2722 19.2017 39.9448 19.2623 39.6269C19.3229 39.309 19.3286 39.0185 19.2795 38.7554C19.225 38.4813 19.0964 38.2372 18.8937 38.0233C18.6939 37.8011 18.3925 37.6227 17.9898 37.4881C17.5213 37.3315 17.1321 37.2927 16.8224 37.372C16.5044 37.4484 16.2384 37.6017 16.0245 37.8317C15.8105 38.0617 15.6321 38.3493 15.4893 38.6945C15.3492 39.0315 15.2187 39.3808 15.0978 39.7425L14.665 41.037L18.4378 42.2983L19.0025 40.6092Z" fill="white"/>
<path d="M20.6829 35.7385C20.1222 35.3306 19.6756 34.8396 19.343 34.2655C19.0105 33.6913 18.8006 33.0885 18.7133 32.4571C18.6242 31.8135 18.658 31.163 18.8148 30.5054C18.9767 29.8408 19.2667 29.2212 19.6848 28.6465C20.0875 28.0928 20.576 27.6497 21.1501 27.3171C21.7172 26.9795 22.3191 26.7635 22.9556 26.6693C23.5903 26.5629 24.2294 26.5831 24.8729 26.7297C25.5146 26.8642 26.1087 27.1303 26.6554 27.5279C27.2091 27.9307 27.6522 28.4191 27.9847 28.9933C28.3103 29.5623 28.5202 30.1651 28.6144 30.8017C28.7087 31.4382 28.6799 32.0818 28.5282 32.7323C28.3765 33.3829 28.0967 33.9885 27.6889 34.5492C27.281 35.1099 26.791 35.5626 26.2187 35.9072C25.6395 36.2468 25.03 36.4732 24.3903 36.5866C23.7556 36.6929 23.1175 36.6789 22.4758 36.5444C21.8272 36.4048 21.2295 36.1361 20.6829 35.7385ZM21.2564 34.95C21.705 35.2763 22.1962 35.4997 22.7302 35.6201C23.2571 35.7355 23.7809 35.7521 24.3015 35.67C24.815 35.5828 25.3047 35.4031 25.7706 35.1311C26.2415 34.852 26.6426 34.4847 26.974 34.0292C27.3054 33.5736 27.5287 33.0824 27.6441 32.5554C27.7595 32.0285 27.7796 31.5073 27.7045 30.9918C27.6223 30.4712 27.4453 29.978 27.1732 29.5122C26.9012 29.0464 26.5409 28.6503 26.0923 28.324C25.6298 27.9876 25.135 27.7616 24.6081 27.6463C24.0741 27.5258 23.5504 27.5092 23.0368 27.5964C22.5162 27.6786 22.0179 27.8627 21.5419 28.1487C21.071 28.4277 20.6673 28.7986 20.3308 29.2611C20.0096 29.7027 19.7949 30.1894 19.6865 30.7215C19.5711 31.2484 19.5545 31.7722 19.6366 32.2928C19.7239 32.8064 19.9035 33.2961 20.1756 33.7619C20.4476 34.2277 20.8079 34.6237 21.2564 34.95Z" fill="white"/>
<path d="M30.1427 29.3078L30.9501 28.7383L28.9745 19.4414L29.8669 18.8121L37.9616 23.7931L38.769 23.2237L40.29 25.3802L39.7376 25.7699L38.4211 24.5349L31.4946 29.4201L32.2162 31.0747L31.6637 31.4644L30.1427 29.3078ZM37.1223 24.385L30.0501 20.0191L31.7894 28.1464L37.1223 24.385Z" fill="white"/>
<path d="M41.6063 20.5082L36.3956 14.8643L37.3515 14.526L41.6896 19.2238L42.1064 12.843L43.0623 12.5047L42.383 22.9362L41.4271 23.2745L41.6063 20.5082Z" fill="white"/>
<path d="M46.0377 11.8466L46.9928 11.7319L47.5181 16.1075L51.3426 11.2097L52.6075 11.0579L48.4634 16.3475L53.7526 20.5964L52.4618 20.7513L47.6048 16.8303L48.1379 21.2704L47.1827 21.3851L46.0377 11.8466Z" fill="white"/>
<path d="M56.4706 12.1308L54.2795 11.9699L54.3433 11.1012L59.6849 11.4935L59.6211 12.3621L57.43 12.2012L56.7903 20.9138L55.8309 20.8433L56.4706 12.1308Z" fill="white"/>
<path d="M62.2803 11.9259L63.2082 12.1798L62.1308 16.117L63.9113 16.6043C65.0899 16.9268 65.8968 17.3767 66.3319 17.954C66.7692 18.523 66.8643 19.2589 66.6173 20.1617C66.3611 21.0979 65.8851 21.7045 65.1893 21.9813C64.502 22.2604 63.5397 22.2307 62.3025 21.8921L59.7445 21.1922L62.2803 11.9259ZM62.2189 20.9663C62.57 21.0623 62.9234 21.1501 63.2791 21.2294C63.637 21.3004 63.9688 21.3193 64.2744 21.2861C64.5906 21.2469 64.8708 21.1259 65.115 20.9231C65.3615 20.712 65.5476 20.3766 65.6734 19.9169C65.845 19.2899 65.769 18.7794 65.4456 18.3854C65.1305 17.9937 64.5215 17.6743 63.6187 17.4272L61.9008 16.9571L60.9023 20.606L62.2189 20.9663ZM69.6156 13.9332L70.5435 14.1871L68.0077 23.4534L67.0798 23.1995L69.6156 13.9332Z" fill="white"/>
<defs>
<clipPath id="clip0_2704_12905">
<rect width="32" height="32" fill="white" transform="translate(38.3184 38.6348)"/>
</clipPath>
</defs>
</svg>
