<svg width="52" height="80" viewBox="0 0 52 80" fill="none" xmlns="http://www.w3.org/2000/svg">
<path fill-rule="evenodd" clip-rule="evenodd" d="M24.8422 0.725751C24.6418 0.7921 24.3525 0.944847 24.1993 1.06519C23.8674 1.326 23.7302 1.4135 23.4626 1.53507C23.352 1.58532 23.2408 1.66033 23.2153 1.70172C23.1898 1.74311 23.1068 1.80422 23.0306 1.83746C22.8968 1.89605 22.7144 2.0054 22.5743 2.11114C22.537 2.13933 22.275 2.33237 21.9922 2.54021C21.5193 2.88767 19.5252 4.89148 19.2718 5.27393C19.0784 5.56584 18.6636 6.19454 18.5551 6.36042C18.4969 6.44934 18.3532 6.71124 18.2356 6.94243C18.1182 7.17362 17.9389 7.48791 17.8373 7.64085C17.7356 7.79379 17.6525 7.94718 17.6525 7.98165C17.6525 8.01612 17.5861 8.15289 17.5049 8.28559C17.3543 8.53165 16.9638 9.32778 16.879 9.56149C16.8327 9.68927 16.6656 10.1289 16.5504 10.426C16.5178 10.5103 16.4332 10.8809 16.3624 11.2496C16.2917 11.6183 16.1638 12.1313 16.0783 12.3898C15.9409 12.8046 15.8738 13.2597 15.6989 14.9613C15.5814 16.105 15.5219 16.5872 15.4635 16.869C15.3642 17.3488 15.2748 19.1939 15.2395 21.4928C15.2224 22.6131 15.1785 23.8936 15.1421 24.3382C15.0913 24.959 15.0969 25.3866 15.1664 26.1812C15.2381 27.0013 15.245 27.6922 15.1999 29.5116C15.1685 30.7743 15.1302 31.8946 15.1147 32.0013C15.0993 32.108 15.0676 32.4282 15.0444 32.7127C15.0211 32.9972 14.9889 33.2523 14.9728 33.2796C14.9566 33.3069 14.9299 33.4087 14.9134 33.5059C14.8969 33.6032 14.841 33.8524 14.7892 34.0598C14.7375 34.2672 14.6951 34.4764 14.6951 34.5248C14.6951 34.5732 14.5794 34.8636 14.438 35.1701C14.2965 35.4766 14.1808 35.7421 14.1808 35.76C14.1808 35.778 14.1054 35.9582 14.0133 36.1604C13.9212 36.3626 13.7468 36.7755 13.6256 37.0778C13.5045 37.3801 13.381 37.6721 13.3512 37.7266C13.3214 37.7811 13.2774 37.9156 13.2535 38.0255C13.2295 38.1354 13.0666 38.4533 12.8917 38.7321C12.7167 39.0108 12.5735 39.2764 12.5735 39.3224C12.5735 39.3683 12.5446 39.4058 12.5092 39.4058C12.4739 39.4058 12.4449 39.4467 12.4449 39.4966C12.4449 39.5784 11.6437 40.6402 11.0655 41.3245C10.9402 41.4728 10.8377 41.6189 10.8377 41.6491C10.8377 41.6793 10.7675 41.747 10.6816 41.7997C10.5958 41.8524 10.3526 42.0629 10.1412 42.2674C9.9298 42.4719 9.73841 42.6393 9.71584 42.6393C9.67495 42.6393 9.43393 42.8497 8.80876 43.4314C8.62714 43.6003 8.45972 43.7386 8.43671 43.7386C8.41363 43.7386 8.22834 43.8981 8.02499 44.0929C7.82164 44.2878 7.61912 44.4478 7.57489 44.4486C7.53072 44.4494 7.49452 44.481 7.49452 44.5189C7.49452 44.5569 7.14015 44.9504 6.70696 45.3933C6.27376 45.8364 5.90782 46.2346 5.89367 46.2783C5.87953 46.3219 5.85054 46.3722 5.82926 46.39C5.71276 46.4874 5.22666 47.28 5.04934 47.6616C4.79623 48.2063 4.73554 48.3943 4.66649 48.8474C4.4569 50.222 4.36503 50.5934 4.23464 50.5934C4.17704 50.5934 4.14676 50.6104 4.16733 50.631C4.1879 50.6517 4.13666 50.7695 4.05354 50.8927C3.97041 51.0159 3.86452 51.2027 3.8183 51.3078C3.77207 51.4128 3.69312 51.4988 3.64278 51.4988C3.5925 51.4988 3.56949 51.517 3.59167 51.5394C3.61385 51.5617 3.56743 51.6999 3.48848 51.8466C3.40953 51.9932 3.24848 52.3459 3.13057 52.6305C3.01266 52.915 2.87772 53.2351 2.83072 53.3418C2.75794 53.5069 2.68247 53.7 2.64113 53.8268C2.63534 53.8446 2.60724 53.9756 2.57876 54.1178C2.55022 54.2601 2.48663 54.4565 2.43745 54.5544C2.38821 54.6522 2.36242 54.7322 2.38017 54.7322C2.39785 54.7322 2.3821 54.8122 2.34507 54.91C2.2539 55.151 1.959 56.7387 1.99468 56.7967C2.0103 56.8222 1.98426 57.0872 1.93675 57.3855C1.83331 58.0354 1.8128 59.389 1.89766 59.9651C1.957 60.3681 1.95257 60.391 1.74857 60.7412C1.63298 60.9396 1.48672 61.2475 1.42365 61.4254C1.36058 61.6032 1.28619 61.8069 1.25835 61.878C1.20043 62.026 0.9576 62.9614 0.914204 63.2037C0.89826 63.2926 0.828247 63.54 0.75862 63.7534C0.443979 64.7172 0.235419 66.3211 0.350307 66.8934C0.389203 67.0871 0.448737 67.5365 0.482618 67.8922C0.516564 68.2478 0.572883 68.6341 0.607921 68.7505C0.812045 69.4296 1.79184 70.5333 2.45172 70.8277C2.5247 70.8602 2.81625 71.0159 3.09971 71.1736C3.38317 71.3313 3.77188 71.5145 3.96359 71.5807C4.22918 71.6724 4.4279 71.8147 4.79867 72.1787C5.41683 72.7855 6.0699 73.1921 7.01234 73.557C7.2245 73.6392 7.42702 73.7265 7.46238 73.7509C7.49774 73.7754 7.71472 73.8436 7.94456 73.9026C8.1744 73.9615 8.45529 74.0388 8.5687 74.0744C8.70634 74.1176 8.85614 74.1175 9.01873 74.0743C9.33209 73.991 10.4441 73.9675 10.5105 74.0428C10.5383 74.0744 10.6113 74.2313 10.6726 74.3913C10.7338 74.5514 10.8215 74.7696 10.8674 74.8763C10.9133 74.983 11.0437 75.3322 11.1572 75.6523C11.2707 75.9725 11.4044 76.3261 11.4542 76.4381C11.5041 76.5502 11.5449 76.6585 11.5449 76.6789C11.5449 76.6992 11.6133 76.8694 11.697 77.0571C11.7806 77.2448 11.8998 77.5293 11.9618 77.6894C12.0238 77.8494 12.1007 78.0386 12.1325 78.1097C12.1644 78.1809 12.218 78.37 12.2517 78.5301C12.3056 78.7857 12.3093 78.7639 12.282 78.3504C12.2648 78.0914 12.2254 77.8295 12.1944 77.7683C12.1633 77.7071 12.0873 77.4243 12.0255 77.1397C11.8657 76.4044 11.4303 75.1572 11.0544 74.3581C10.9705 74.1797 10.9019 73.9793 10.9019 73.9126C10.9019 73.7787 11.0514 73.7838 12.1514 73.9558C12.6584 74.0352 12.6626 74.0374 12.8396 74.3266C12.9375 74.4867 13.086 74.7486 13.1695 74.9087C13.4469 75.4405 14.2279 76.7028 14.4382 76.9592C14.4734 77.0021 14.5029 77.0603 14.5037 77.0885C14.5044 77.1167 14.5617 77.2125 14.6308 77.3014C14.8737 77.6137 14.7695 77.274 14.3532 76.396C14.2773 76.236 14.2144 76.0905 14.2133 76.0727C14.2092 76.0023 14.0248 75.5857 13.9843 75.5553C13.9606 75.5376 13.8258 75.3048 13.6847 75.038C13.5435 74.7712 13.3624 74.4426 13.2821 74.3077C13.2019 74.1728 13.147 74.0527 13.1602 74.0409C13.1735 74.029 13.35 74.0017 13.5525 73.9802L13.9208 73.9411L14.2861 74.5048C14.487 74.8149 14.7199 75.1999 14.8036 75.3605C14.9702 75.6798 15.0952 75.8931 15.1452 75.9434C15.1628 75.9611 15.268 76.1503 15.3788 76.3637C15.7622 77.1019 15.8204 77.2044 15.8684 77.2259C15.895 77.2378 15.9166 77.2846 15.9166 77.3301C15.9166 77.3755 15.9886 77.5193 16.0765 77.6497C16.1646 77.7801 16.2544 77.9587 16.2764 78.0467C16.2983 78.1348 16.3421 78.2067 16.3736 78.2067C16.4052 78.2067 16.431 78.2494 16.431 78.3015C16.431 78.4185 16.6381 78.8778 16.7042 78.9073C16.7308 78.9192 16.7524 79.0137 16.7524 79.1175C16.7524 79.2213 16.7756 79.3061 16.8038 79.3061C16.8321 79.3061 16.8434 79.2042 16.8289 79.0798C16.8145 78.9553 16.7806 78.8534 16.7537 78.8534C16.7267 78.8534 16.6857 78.7091 16.6624 78.5327C16.6392 78.3564 16.592 78.1946 16.5577 78.1732C16.5234 78.1519 16.4953 78.0832 16.4953 78.0205C16.4953 77.9578 16.44 77.7923 16.3726 77.6528C16.3051 77.5133 16.2634 77.3771 16.28 77.3503C16.2965 77.3234 16.2793 77.3014 16.2419 77.3014C16.2045 77.3014 16.1738 77.2621 16.1738 77.2141C16.1738 77.0687 15.2882 75.3723 14.8494 74.6772C14.6231 74.3186 14.438 73.9805 14.438 73.9258C14.438 73.8577 14.5241 73.8147 14.7112 73.7893C14.9459 73.7574 15.0092 73.7761 15.1606 73.9216C15.2574 74.0147 15.3249 74.1028 15.3105 74.1172C15.2961 74.1317 15.3312 74.1987 15.3884 74.2659C15.4975 74.3941 16.2378 75.6411 16.4033 75.9757C16.4562 76.0824 16.5547 76.257 16.6224 76.3637C16.6901 76.4704 16.8121 76.6887 16.8936 76.8487C16.975 77.0088 17.0582 77.1543 17.0785 77.1721C17.0988 77.1898 17.1361 77.248 17.1615 77.3014C17.2834 77.5583 17.3935 77.7125 17.3944 77.6276C17.3973 77.3364 16.7212 75.6166 16.4885 75.3234C16.4006 75.2127 16.0451 74.5649 16.0035 74.4398C15.9829 74.3775 15.9404 74.3266 15.9091 74.3266C15.8779 74.3266 15.8524 74.2984 15.8524 74.2639C15.8524 74.2293 15.7592 74.0682 15.6454 73.9058L15.4385 73.6105L15.6293 73.4535C15.7343 73.3672 15.8425 73.2956 15.8697 73.2943C15.8969 73.293 16.0364 73.2175 16.1796 73.1266L16.44 72.9612L17.1267 73.1298C18.1319 73.3767 18.3665 73.4988 18.6014 73.8975C18.9141 74.4281 19.2598 75.115 19.2598 75.2056C19.2598 75.2515 19.285 75.3047 19.3158 75.3239C19.3911 75.3707 19.2411 74.6867 19.1009 74.3429C19.0392 74.1919 19.0063 74.0221 19.0278 73.9658C19.0621 73.876 19.0947 73.8807 19.2931 74.004C19.5659 74.1736 20.0269 74.4372 20.1599 74.4996C20.3948 74.6098 21.1924 75.1475 21.5743 75.4532C21.9646 75.7656 22.7059 76.2788 23.1493 76.5436C23.4385 76.7163 24.7817 77.3661 24.8496 77.3661C24.9074 77.3661 25.9186 77.8762 26.1686 78.0314C26.6198 78.3116 26.7908 78.4007 26.8767 78.4007C26.9303 78.4007 27.2441 78.6772 27.574 79.0151C28.173 79.6285 28.408 79.759 28.4964 79.5273C28.541 79.4104 28.3309 78.9537 28.1353 78.7426C28.0627 78.6643 28.0034 78.573 28.0034 78.5397C28.0034 78.5065 27.96 78.4625 27.9069 78.442C27.8539 78.4216 27.8105 78.366 27.8105 78.3185C27.8105 78.2312 26.5191 76.9134 26.4337 76.9134C26.4083 76.9134 26.2927 76.8406 26.1768 76.7517C26.0609 76.6628 25.95 76.59 25.9305 76.59C25.8476 76.59 24.3918 75.6748 24.1781 75.4883C24.1073 75.4267 23.9834 75.356 23.9028 75.3314C23.8221 75.3068 23.6871 75.2224 23.6029 75.1439C23.5187 75.0654 23.3677 74.9588 23.2674 74.907C22.9295 74.7325 22.4244 74.3969 22.1294 74.1508C21.5737 73.6872 21.1103 73.3308 20.7233 73.0692C20.2842 72.7725 20.2853 72.7731 19.9348 72.6069C19.7934 72.5397 19.6564 72.4555 19.6304 72.4196C19.6045 72.3836 19.5828 72.3768 19.5822 72.4044C19.5817 72.432 19.4872 72.4041 19.3723 72.3425C19.2573 72.2808 19.1489 72.2289 19.1312 72.2271C19.0512 72.2189 18.443 71.9695 18.3276 71.8975C18.2568 71.8533 18.1047 71.7975 17.9894 71.7733C17.5725 71.6859 17.468 71.384 17.7489 71.0792C17.8373 70.9834 17.9097 70.8857 17.9097 70.8621C17.9097 70.8386 17.9931 70.7237 18.0951 70.6069C18.1971 70.49 18.2951 70.3552 18.313 70.3073C18.3344 70.2496 18.4444 70.3293 18.6389 70.5436C18.8004 70.7214 18.9339 70.8306 18.9354 70.7861C18.937 70.7416 18.9127 70.7052 18.8816 70.7052C18.8503 70.7052 18.8072 70.6543 18.7858 70.5921C18.7282 70.4242 18.5643 70.1925 18.1347 69.6709C17.9225 69.4134 17.72 69.1587 17.6847 69.1049C17.6493 69.0512 17.483 68.876 17.315 68.7157C17.147 68.5553 17.0096 68.3845 17.0096 68.336C17.0096 68.2875 16.9794 68.2478 16.9425 68.2478C16.9056 68.2478 16.6379 68.0196 16.3478 67.7405C15.7445 67.1604 15.4106 66.8662 15.0602 66.606C14.8192 66.427 14.817 66.4217 14.9477 66.3297C15.114 66.2124 15.115 66.1147 14.9523 65.8375C14.6714 65.3585 14.2855 65.3643 14.4132 65.8456C14.4879 66.1271 14.4878 66.1271 13.9524 65.7798C13.4988 65.4857 12.7757 65.1438 12.6075 65.1438C12.4851 65.1438 12.424 65.1954 12.3588 65.3539C12.2972 65.5035 12.2925 65.5778 12.3425 65.6116C12.3895 65.6434 12.3841 65.6594 12.3263 65.6601C12.2787 65.6607 11.9803 65.4865 11.6631 65.2731C11.1526 64.9297 11.0499 64.8851 10.7691 64.8851C10.4659 64.8851 10.4519 64.8929 10.4523 65.0629C10.4526 65.1865 10.5066 65.2747 10.6291 65.3517C10.7261 65.4128 11.062 65.6456 11.3754 65.8691C11.9307 66.265 11.9456 66.2825 11.9582 66.5503C11.9653 66.7015 11.9615 66.8251 11.9496 66.8251C11.9377 66.8251 11.8135 66.7524 11.6734 66.6635C11.3776 66.4757 11.2097 66.4595 11.0879 66.6073C11.0127 66.6984 11.022 66.7268 11.1574 66.8174C11.2435 66.875 11.7156 67.3217 12.2063 67.81C13.051 68.6504 13.0963 68.7084 13.0554 68.8958C13.0214 69.0517 13.0478 69.1406 13.18 69.3149C13.3477 69.5362 13.5379 69.5643 13.5379 69.3679C13.5379 69.1926 13.7182 69.3118 14.2885 69.8645C14.6005 70.1669 14.9379 70.4568 15.0382 70.509C15.1385 70.5611 15.3101 70.7211 15.4196 70.8646C15.529 71.0081 15.6804 71.1838 15.756 71.2549C16.079 71.559 16.0099 71.6733 15.3059 71.9987C15.0584 72.1131 14.8056 72.2326 14.7442 72.2643C14.5623 72.3582 14.4775 72.3303 14.3393 72.1312C14.1188 71.8134 13.4833 71.1102 12.5574 70.1596C12.0713 69.6605 11.6734 69.2292 11.6734 69.2013C11.6734 69.1734 11.5416 69.0571 11.3806 68.9429C11.092 68.7383 11.09 68.7345 11.247 68.6818C11.343 68.6496 11.4343 68.5477 11.4766 68.4254L11.547 68.2222L11.866 68.5422C12.0414 68.7182 12.1856 68.9107 12.1864 68.9699C12.1871 69.0292 12.2746 69.1163 12.3806 69.1635C12.4867 69.2108 12.5735 69.286 12.5735 69.3306C12.5735 69.3753 12.5999 69.4119 12.6321 69.4119C12.6972 69.4119 13.6665 70.5298 13.6665 70.605C13.6665 70.6201 13.7533 70.7282 13.8593 70.845C13.9654 70.9618 14.0522 71.0235 14.0522 70.9821C14.0522 70.9408 14.0228 70.8886 13.9869 70.8663C13.9509 70.8439 13.9382 70.7985 13.9585 70.7654C13.9789 70.7323 13.9648 70.7052 13.9274 70.7052C13.89 70.7052 13.8593 70.6762 13.8593 70.6406C13.8593 70.6051 13.6456 70.2778 13.3844 69.9131C13.1232 69.5485 12.8898 69.1847 12.8657 69.1047C12.8417 69.0247 12.7806 68.9592 12.7299 68.9592C12.6793 68.9592 12.6374 68.9373 12.637 68.9107C12.6355 68.822 11.9213 67.9658 11.2788 67.2825C10.9301 66.9115 10.6448 66.5842 10.6448 66.555C10.6448 66.5257 10.7026 66.5018 10.7734 66.5018C10.8843 66.5018 10.9019 66.4587 10.9019 66.1872C10.9019 65.8122 10.7115 65.513 10.4927 65.5444C10.2917 65.5732 10.2586 66.0236 10.4476 66.1569C10.5818 66.2514 10.6306 66.4371 10.5213 66.4371C10.4887 66.4371 10.3498 66.328 10.2126 66.1946C9.66569 65.663 9.27037 65.3666 9.026 65.3049C8.896 65.2721 8.83287 65.3001 8.72454 65.4387C8.64913 65.535 8.58747 65.6506 8.58747 65.6955C8.58747 65.7403 8.72486 65.8676 8.89285 65.9784C9.06084 66.0892 9.26536 66.2367 9.34739 66.3063L9.49654 66.4329L9.36063 66.5795C9.28593 66.6602 9.25494 66.7364 9.29184 66.7488C9.32874 66.7611 9.35896 66.827 9.35896 66.8952C9.35896 66.9634 9.38455 67.0191 9.41573 67.0191C9.44698 67.0191 9.48767 67.0773 9.50619 67.1485C9.531 67.2439 9.59388 67.2778 9.74619 67.2778C9.93019 67.2778 9.94935 67.2607 9.92267 67.1203C9.86384 66.8108 9.97301 66.8032 10.2993 67.0942C10.4725 67.2485 10.6994 67.4419 10.8035 67.5239C10.9667 67.6526 10.9821 67.6902 10.9152 67.7979C10.8726 67.8666 10.8377 68.0395 10.8377 68.1823C10.8377 68.3251 10.8199 68.4418 10.7982 68.4418C10.7765 68.4418 10.5955 68.2997 10.3962 68.1259C9.81614 67.6205 9.11266 67.1577 8.97817 67.1931C8.75276 67.2524 8.75932 67.7952 8.98537 67.7952C9.0368 67.7952 9.37966 68.0253 9.57807 68.193C9.61195 68.2217 9.60128 68.2849 9.55254 68.344C9.48729 68.423 9.4851 68.482 9.54251 68.6087C9.66132 68.8711 9.50889 68.739 8.85061 68.0093C8.20661 67.2953 7.95369 67.0765 7.65525 66.9751C7.22231 66.828 7.17429 67.1035 7.57116 67.4577C8.31545 68.1218 8.45214 68.3163 8.23387 68.4006C8.08928 68.4564 8.10464 68.974 8.25502 69.1108C8.48717 69.3222 8.75591 69.1738 8.68146 68.8754C8.63305 68.6814 8.74897 68.5854 8.83538 68.7479C8.86926 68.8114 9.17445 69.1382 9.51371 69.4739C9.85291 69.8098 10.1305 70.109 10.1305 70.1389C10.1305 70.2007 10.1627 70.2447 10.4808 70.6161C10.6063 70.7627 10.7091 70.913 10.7091 70.9502C10.7091 70.9874 10.733 71.0275 10.7622 71.0394C10.829 71.0664 11.352 71.859 11.352 71.9331C11.352 71.9632 11.3749 71.9975 11.403 72.0094C11.456 72.0318 11.7377 72.4729 11.7377 72.5335C11.7377 72.5526 11.4046 72.5717 10.9974 72.576C10.2855 72.5835 10.2546 72.5782 10.1928 72.4367C10.1575 72.3558 10.0731 72.2023 10.0053 72.0956C9.93752 71.9889 9.81954 71.7852 9.74317 71.6429C9.66672 71.5006 9.55627 71.326 9.49764 71.2549C9.43907 71.1838 9.35498 71.0601 9.31074 70.9801C9.10797 70.613 9.05853 70.5383 8.89028 70.3457C8.79159 70.2328 8.6281 70.009 8.52691 69.8485C8.42565 69.688 8.30993 69.5362 8.26968 69.5111C8.22943 69.4861 8.12502 69.3517 8.03759 69.2124C7.95015 69.0731 7.83706 68.9592 7.78621 68.9592C7.73536 68.9592 7.67068 68.9198 7.64239 68.8716C7.54685 68.7089 7.34215 68.6401 7.22038 68.7297C6.99665 68.8943 7.08447 69.125 7.55881 69.6195C7.80633 69.8775 8.00885 70.1224 8.00885 70.1636C8.00885 70.205 8.05225 70.2555 8.10529 70.276C8.15833 70.2964 8.20172 70.3523 8.20172 70.4001C8.20172 70.4479 8.28852 70.5707 8.3946 70.6729C8.50068 70.7751 8.58747 70.8851 8.58747 70.9172C8.58747 70.9493 8.68873 71.0947 8.81249 71.2401C8.93625 71.3855 9.03751 71.5341 9.03751 71.5702C9.03751 71.6063 9.10598 71.7102 9.18968 71.801C9.27345 71.8919 9.42081 72.1045 9.51725 72.2734C9.72227 72.6325 9.71501 72.6352 9.03314 72.4528C8.77038 72.3825 8.45407 72.3239 8.33031 72.3225C8.11487 72.3202 7.59899 72.1701 7.46289 72.0703C7.42727 72.0441 7.28236 72.0147 7.14092 72.0049C6.99948 71.9951 6.83811 71.9461 6.78224 71.8958C6.72644 71.8457 6.63411 71.8046 6.57709 71.8046C6.52013 71.8046 6.45757 71.7788 6.43822 71.7472C6.41887 71.7157 6.30771 71.672 6.19128 71.65C6.07478 71.628 5.93707 71.5492 5.88519 71.4749C5.83324 71.4007 5.72993 71.2674 5.65561 71.1788C5.53236 71.0321 5.52779 70.9967 5.60456 70.7807C5.65085 70.6503 5.69 70.331 5.69154 70.0712C5.6945 69.5747 5.57325 69.1978 5.28182 68.7975C4.8791 68.2445 4.82985 67.6371 5.11575 66.7499C5.29847 66.1829 5.37735 65.4671 5.25713 65.4671C5.14783 65.4671 4.85955 65.6321 4.8591 65.6949C4.85885 65.7313 4.76453 65.813 4.64964 65.8763C4.53469 65.9398 4.28312 66.1364 4.0905 66.3134C3.60343 66.761 3.10974 67.0191 2.74071 67.0191C2.40614 67.0191 1.83022 66.8277 1.66512 66.6615C1.45618 66.4514 1.3267 65.9256 1.35511 65.4024C1.42107 64.1865 1.43901 64.0863 1.66982 63.6408C1.79358 63.402 1.91284 63.0968 1.93476 62.9626C1.97597 62.7113 1.99281 62.6625 2.20845 62.169C2.2784 62.009 2.3893 61.7034 2.455 61.49C2.52064 61.2766 2.59651 61.0923 2.62357 61.0805C2.65058 61.0686 2.67269 61.0212 2.67269 60.9752C2.67269 60.9292 2.7193 60.8526 2.77633 60.805C2.83336 60.7574 2.9503 60.5638 3.03626 60.3748C3.19069 60.0352 3.19133 60.0264 3.08608 59.6494C2.92279 59.064 2.9836 57.6369 3.21087 56.7206C3.30577 56.3381 3.40902 55.7997 3.44033 55.5242C3.498 55.0169 3.51953 54.9069 3.59553 54.7322C3.61874 54.6788 3.69177 54.446 3.75793 54.2149C3.96391 53.495 4.68565 51.676 4.83776 51.4937C4.88456 51.4375 4.92288 51.3742 4.92288 51.3528C4.92288 51.3315 5.03025 51.1328 5.16146 50.9112C5.32663 50.6324 5.39471 50.4459 5.38275 50.3056C5.37317 50.1942 5.41278 49.9625 5.47077 49.7907C5.52876 49.6189 5.58765 49.4165 5.60166 49.3407C5.63715 49.1489 5.82154 48.7322 6.00059 48.439C6.16479 48.1702 6.37689 47.8003 6.49962 47.5688C6.5686 47.4386 7.18702 46.7097 7.99278 45.809C8.14309 45.641 8.26601 45.4854 8.26601 45.4631C8.26601 45.4409 8.39878 45.2983 8.56105 45.1465C8.72325 44.9946 8.9909 44.7437 9.15574 44.5889C9.4401 44.3218 10.6046 43.4219 11.1001 43.0862C11.2267 43.0004 11.4871 42.8237 11.6787 42.6934C12.0875 42.4155 12.6883 41.802 13.1099 41.232C13.2745 41.0093 13.4093 40.8115 13.4093 40.7926C13.4093 40.7736 13.5599 40.5339 13.7439 40.2598C14.2959 39.4375 14.6601 38.7463 14.7217 38.4035C14.7409 38.2968 14.7976 38.1222 14.8477 38.0155C15.1927 37.2805 15.419 36.6214 15.447 36.2694C15.4612 36.0916 15.4986 35.8879 15.53 35.8168C15.6334 35.5827 15.7836 34.6643 15.8259 34.0061C15.8488 33.6504 15.923 33.0829 15.9907 32.745C16.1061 32.1697 16.1394 31.8662 16.3011 29.9158C16.3797 28.9683 16.3798 26.502 16.3013 25.3245C16.2661 24.796 16.2657 24.4139 16.3003 24.379C16.3331 24.3461 16.343 23.8796 16.3232 23.3108C16.3017 22.692 16.3187 22.0257 16.3673 21.5898C16.4109 21.1985 16.4602 20.7038 16.477 20.4904C16.4938 20.277 16.5325 20.0718 16.563 20.0344C16.5935 19.9969 16.6017 19.9019 16.5812 19.823C16.544 19.68 16.6123 18.999 16.7872 17.77C16.8381 17.4119 16.8961 16.5535 16.9159 15.8623C16.9541 14.5345 17.0085 14.0667 17.2166 13.2799C17.3537 12.761 17.4888 12.1651 17.5945 11.6122C17.6586 11.2775 17.7505 10.9848 17.9138 10.5962C17.9587 10.4895 18.0003 10.3876 18.0063 10.3698C18.07 10.1814 18.1696 9.96256 18.5066 9.27048C18.723 8.82589 18.9014 8.39973 18.9031 8.32342C18.9048 8.24711 18.952 8.13071 19.0081 8.06475C19.0641 7.99878 19.1969 7.81383 19.3032 7.65378C20.0135 6.58352 20.3339 6.15885 20.7828 5.69246C21.0626 5.40184 21.404 5.01855 21.5417 4.84071C21.9023 4.37472 22.2959 3.96769 22.3859 3.96769C22.4287 3.96769 22.4732 3.94584 22.4851 3.91919C22.4968 3.89249 22.7524 3.71355 23.053 3.52155C23.3535 3.32948 23.6718 3.12429 23.7602 3.06551C24.1226 2.82449 24.4185 2.72497 24.6579 2.76344C24.8586 2.79571 25.6078 3.15695 25.9461 3.38458C25.9991 3.42028 26.2548 3.5782 26.5143 3.7356C26.8097 3.9148 27.1463 4.19882 27.4144 4.49532C27.8014 4.9233 28.859 6.02712 30.3018 7.50886C30.5935 7.80847 30.8322 8.08331 30.8322 8.11965C30.8322 8.15599 30.9066 8.27699 30.9975 8.3886C31.2499 8.69837 31.457 9.01427 31.6182 9.33515C31.6986 9.49521 31.7844 9.64136 31.8088 9.65992C31.8822 9.71579 32.5384 11.0273 32.6492 11.3399C32.8235 11.8311 33.1015 12.7808 33.1508 13.0536C33.1765 13.1958 33.2924 13.6469 33.4083 14.0559C33.6057 14.7523 33.6207 14.8766 33.6439 16.0091C33.6706 17.3079 33.6511 17.4126 33.3559 17.5649C32.8906 17.8051 32.2615 18.1598 32.1064 18.2693C32.0023 18.3429 31.9185 18.3656 31.8946 18.3267C31.8729 18.2912 31.9036 18.0361 31.963 17.7597C32.0537 17.3371 32.1588 15.414 32.0912 15.414C32.043 15.414 31.6722 16.2502 31.6037 16.5133C31.3255 17.5831 30.8966 18.8393 30.8094 18.8406C30.7476 18.8414 30.7757 18.5962 30.9237 17.839C31.0488 17.1987 31.1422 16.2769 31.2186 14.9289C31.266 14.0909 31.2593 13.8167 31.1832 13.4861C31.1316 13.2615 31.0893 12.9861 31.0893 12.8741C31.0893 12.6886 31.0802 12.6794 30.9881 12.7719C30.8475 12.9135 30.7694 13.2514 30.6689 14.1529C30.5462 15.2535 30.3877 16.4 30.3533 16.4346C30.3028 16.4853 30.2628 16.1816 30.2231 15.4463C30.1523 14.1335 29.9141 12.4075 29.7566 12.0661C29.6827 11.9059 29.6391 11.8712 29.5768 11.9233C29.5177 11.9726 29.4837 11.9685 29.4558 11.9084C29.419 11.8288 29.4422 12.9222 29.5132 14.6056C29.5535 15.5595 29.4443 15.363 29.3516 14.3146C29.2671 13.3615 29.0516 12.1406 28.863 11.5478C28.8145 11.3953 28.7749 11.2327 28.7749 11.1863C28.7749 11.0375 28.4239 10.4542 28.3497 10.4796C28.3104 10.493 28.2431 10.4084 28.2003 10.2915C28.003 9.75245 27.5107 8.80526 27.3177 8.59334C27.2002 8.4644 27.0864 8.28759 27.0647 8.20035C27.0429 8.11312 27.0065 8.04101 26.9838 8.04004C26.9611 8.03907 26.8717 7.92267 26.785 7.78137C26.6983 7.64007 26.6043 7.52444 26.576 7.52444C26.5478 7.52444 26.5247 7.48137 26.5247 7.42867C26.5247 7.31259 26.2194 7.22367 26.1298 7.31375C26.0536 7.39039 26.2238 7.84778 26.3285 7.84778C26.3657 7.84778 26.3961 7.88096 26.3961 7.92151C26.3961 7.96212 26.4516 8.11486 26.5195 8.26101C26.8199 8.90757 26.9172 9.16191 27.19 10.0142C27.5213 11.0489 27.7185 11.801 27.9107 12.7626C27.9284 12.8515 27.9865 13.1279 28.0398 13.3769C28.1606 13.9414 28.297 15.1434 28.3541 16.1442C28.3851 16.69 28.3693 17.1127 28.2983 17.6316C28.2056 18.3087 28.1275 19.5372 28.1354 20.1958C28.1392 20.5118 28.0538 20.9337 27.8677 21.5196C27.8009 21.73 27.7462 21.9939 27.7462 22.1061C27.7462 22.3473 27.5689 22.9801 27.5013 22.9801C27.4754 22.9801 27.3831 23.1111 27.2962 23.2711C27.2092 23.4312 27.111 23.5621 27.0778 23.5621C27.0447 23.5621 27.0371 23.5818 27.061 23.6059C27.0849 23.6299 27.049 23.7099 26.9813 23.7837C26.9135 23.8575 26.7927 24.0488 26.7129 24.2088C26.633 24.3689 26.5326 24.5435 26.4898 24.5968C26.4469 24.6502 26.2912 24.9266 26.1438 25.2112C25.9964 25.4957 25.8482 25.7795 25.8145 25.8417C25.6895 26.0724 25.628 26.1903 25.4346 26.5692C25.3256 26.7826 25.1233 27.1464 24.9849 27.3776C24.8464 27.6088 24.5263 28.2053 24.2734 28.7033C24.0205 29.2012 23.7726 29.6545 23.7226 29.7107C23.6725 29.7669 23.6316 29.876 23.6316 29.9532C23.6316 30.0304 23.6058 30.0936 23.5742 30.0936C23.5427 30.0936 23.4974 30.1719 23.4735 30.2675C23.4497 30.3632 23.3789 30.5159 23.3163 30.607C23.2087 30.7636 23.0218 31.245 22.9446 31.5648C22.9252 31.6449 22.8838 31.7103 22.8526 31.7103C22.8214 31.7103 22.7958 31.7959 22.7958 31.9005C22.7958 32.0052 22.7681 32.1079 22.7343 32.1289C22.7005 32.1499 22.6891 32.2099 22.7091 32.2621C22.7289 32.3143 22.7231 32.4079 22.696 32.4702C22.6689 32.5324 22.6358 32.6707 22.6223 32.7774C22.5839 33.0804 22.2266 34.0826 21.9537 34.6527C21.8175 34.9373 21.5534 35.3658 21.3669 35.6049C21.1804 35.8441 20.8831 36.2318 20.7063 36.4665C20.3411 36.9514 19.7238 37.5565 19.1608 37.9815C18.7597 38.2842 18.5971 38.4246 17.9097 39.061C17.3061 39.6199 16.2784 40.3759 16.1221 40.3759C16.0798 40.3759 16.0446 40.3977 16.0438 40.4244C16.043 40.4511 15.899 40.5747 15.7238 40.6992C15.5486 40.8237 15.4046 40.9473 15.4037 40.974C15.403 41.0008 15.3738 41.0225 15.339 41.0225C15.3041 41.0225 15.1089 41.1798 14.905 41.372C14.7012 41.5642 14.3531 41.8555 14.1315 42.0193C13.91 42.1831 13.2446 42.8161 12.6528 43.4259C12.0611 44.0358 11.4034 44.6971 11.1913 44.8956C10.5109 45.5322 9.91424 46.1525 9.56714 46.584C9.38121 46.8152 9.20029 47.0397 9.16512 47.0827C9.13002 47.1259 9.06779 47.235 9.0269 47.3252C8.98601 47.4155 8.92828 47.4894 8.89857 47.4894C8.86894 47.4894 8.84463 47.5212 8.84463 47.5602C8.84463 47.5992 8.78555 47.7145 8.71329 47.8166C8.64102 47.9187 8.57082 48.0905 8.55725 48.1985C8.53719 48.3577 8.5559 48.3947 8.65645 48.3947C8.7246 48.3947 8.78034 48.3719 8.78034 48.344C8.78034 48.2768 9.082 47.9051 9.34096 47.653C9.45476 47.5421 9.84005 47.2635 10.1971 47.0339C10.5541 46.8043 11.0251 46.4941 11.2438 46.3446C11.9178 45.8839 13.7165 45.004 14.3758 44.8124C14.7105 44.7152 15.0733 44.6084 15.1819 44.5751C15.5119 44.474 16.1314 44.5065 17.1123 44.6763C17.6259 44.7652 18.1746 44.838 18.3315 44.838C18.6115 44.838 18.6169 44.834 18.6169 44.6243C18.6169 44.4353 18.5816 44.392 18.3115 44.2484C18.1435 44.1591 17.8253 44.0324 17.6043 43.9668C17.3833 43.9012 17.2025 43.8249 17.2025 43.7975C17.2025 43.7699 17.2965 43.681 17.4114 43.5998C17.5264 43.5187 17.6296 43.4307 17.6408 43.4043C17.6625 43.3536 18.2764 42.8979 18.3231 42.8979C18.3382 42.8979 18.5189 42.7983 18.7248 42.6766C18.9306 42.5549 19.2292 42.4191 19.3884 42.3747C19.5475 42.3304 19.7051 42.2699 19.7388 42.2403C19.7723 42.2108 19.8474 42.1866 19.9056 42.1866C19.9638 42.1866 20.06 42.1326 20.1194 42.0665C20.2156 41.9595 20.2168 41.9375 20.1297 41.8649C20.0713 41.8161 19.9737 41.8017 19.8869 41.8292C19.8072 41.8544 19.4527 41.8969 19.0991 41.9237C18.3861 41.9777 18.0031 42.1233 17.3077 42.6047C16.5396 43.1364 16.4953 43.1592 16.4953 43.0227C16.4953 42.9423 16.5212 42.916 17.0607 42.4483C17.3506 42.197 17.46 42.0597 17.4465 41.9642C17.4138 41.7344 17.1719 41.7655 16.868 42.0384C16.5567 42.3178 15.6996 43.0141 15.4889 43.1586C15.4127 43.2109 15.1668 43.3854 14.9424 43.5465C14.2882 44.0161 13.0713 44.5799 12.9916 44.4503C12.9396 44.3656 13.2408 44.0835 13.9879 43.5174C14.2178 43.3432 14.4979 43.1143 14.6104 43.0086C14.7229 42.9029 14.9608 42.711 15.139 42.5823C15.6511 42.2123 16.7819 41.3497 17.3107 40.9255C17.5768 40.7121 18.0089 40.3878 18.271 40.2049C18.533 40.0219 18.9377 39.7018 19.1703 39.4935C19.4028 39.2852 19.6411 39.0876 19.6997 39.0544C20.05 38.8555 21.1307 37.9187 21.7504 37.2767C22.1478 36.865 22.4732 36.5096 22.4736 36.487C22.474 36.4643 22.5873 36.2752 22.7253 36.0666C22.8633 35.8581 23.0132 35.5565 23.0584 35.3964C23.1035 35.2364 23.1445 35.0909 23.1495 35.0731C23.2665 34.6565 23.4203 34.203 23.5224 33.9737C23.5936 33.8137 23.6626 33.6191 23.6756 33.5414C23.6885 33.4637 23.7416 33.3182 23.7935 33.2181C23.8455 33.118 23.8885 32.9924 23.8892 32.939C23.8898 32.8857 23.9768 32.6706 24.0824 32.4611C24.1881 32.2515 24.2745 32.0319 24.2745 31.9728C24.2745 31.9138 24.2999 31.8379 24.3311 31.8041C24.3622 31.7703 24.4794 31.4662 24.5915 31.1283C24.7035 30.7904 24.8227 30.4635 24.8563 30.4017C24.8899 30.34 24.9174 30.2453 24.9174 30.1915C24.9174 30.1377 24.9396 30.0936 24.9667 30.0936C24.9938 30.0936 25.0866 29.9118 25.1728 29.6895C25.259 29.4672 25.3944 29.1834 25.4736 29.0589C25.619 28.8304 26.1094 27.9173 26.455 27.2315C26.5583 27.0267 26.7163 26.7712 26.8061 26.6638C26.896 26.5564 27.0755 26.2584 27.2051 26.0015C27.5123 25.3927 27.558 25.3117 27.7301 25.0705C27.8097 24.959 27.8748 24.8528 27.8748 24.8344C27.8748 24.7954 28.4183 23.9903 28.6295 23.7165C28.7087 23.6138 28.9879 23.2243 29.25 22.8508C29.7593 22.1248 30.1247 21.7527 31.2818 20.7814C31.6844 20.4435 32.1312 20.063 32.2748 19.9357C32.5631 19.6803 33.0148 19.4239 34.6896 18.5648C36.0178 17.8836 36.1046 17.846 36.1024 17.9538C36.1015 17.9974 35.9063 18.1785 35.6685 18.3564C35.4307 18.5342 35.2216 18.6944 35.204 18.7124C35.1863 18.7305 34.9842 18.9051 34.7549 19.1004C34.5256 19.2959 34.2218 19.5757 34.0798 19.7223C33.9379 19.869 33.7783 20.0049 33.7253 20.0244C33.6609 20.0481 33.6566 20.0615 33.7123 20.065C33.791 20.0698 33.2698 20.6205 32.6309 21.2076C32.0023 21.7854 30.7724 23.2667 30.5387 23.7276C30.4244 23.9529 30.4185 24.0022 30.4965 24.0755C30.6228 24.1942 31.0429 24.0633 31.1721 23.865C31.2254 23.7832 31.3733 23.6083 31.5007 23.4763C31.628 23.3444 31.7322 23.2146 31.7322 23.1878C31.7322 23.1189 32.8097 22.0684 33.0934 21.8607C33.2232 21.7657 33.4981 21.5281 33.7041 21.3326C33.9102 21.1372 34.0988 20.9768 34.1231 20.9763C34.1475 20.9758 34.2632 20.8853 34.3803 20.7753C34.6992 20.4755 35.6366 19.8124 36.0397 19.6016C36.1282 19.5554 36.3655 19.4091 36.5671 19.2765C36.7687 19.1439 36.9493 19.0354 36.9684 19.0354C36.9875 19.0354 37.0773 18.9699 37.1681 18.8899C37.2588 18.8098 37.5121 18.6462 37.7311 18.5262C38.584 18.0587 39.299 17.6943 39.5758 17.586C39.7349 17.5237 39.9519 17.4354 40.0579 17.3898C40.164 17.3442 40.381 17.2556 40.5401 17.1928C40.6992 17.1302 41.0474 16.9686 41.3139 16.8339C41.8941 16.5406 43.4139 16.0191 43.819 15.9742C43.9781 15.9566 44.2529 15.8849 44.4297 15.8148C44.909 15.6249 45.5669 15.5433 46.6181 15.5433C47.5589 15.5433 48.0235 15.6184 48.4581 15.841C48.9761 16.1062 48.9288 17.6376 48.3943 17.9094C48.3181 17.9482 48.2756 17.9998 48.2998 18.0241C48.324 18.0484 48.2804 18.1129 48.203 18.1675C48.1255 18.222 48.0622 18.3029 48.0622 18.3472C48.0622 18.4483 46.5023 20.0054 46.401 20.0054C46.3599 20.0054 46.3335 20.0272 46.3424 20.0539C46.3512 20.0806 46.2337 20.2625 46.0812 20.4581C45.6392 21.0252 45.0941 21.8867 44.9659 22.2209C44.9009 22.3902 44.7464 22.6736 44.6226 22.8507C44.4988 23.0279 44.3976 23.2122 44.3976 23.2605C44.3976 23.3086 44.3397 23.4008 44.269 23.4651C44.1983 23.5295 44.1404 23.6189 44.1404 23.6638C44.1404 23.7087 44.1173 23.7551 44.089 23.7669C43.9876 23.8094 43.6261 24.6574 43.6261 24.8527C43.6261 24.9623 43.56 25.1606 43.4792 25.2933C43.2772 25.6249 43.1761 25.8713 43.1761 26.0317C43.1761 26.1061 43.1209 26.2866 43.0535 26.4328C42.7471 27.0968 42.5974 27.4508 42.5974 27.5114C42.5974 27.5474 42.5372 27.6412 42.4636 27.7198C42.39 27.7983 42.2784 27.9644 42.2156 28.0889C42.1527 28.2134 42.0541 28.4026 41.9962 28.5093C41.9383 28.616 41.8909 28.7427 41.8906 28.791C41.8902 28.8845 41.7003 29.1434 41.1044 29.8632C40.9001 30.1098 40.733 30.337 40.733 30.3681C40.733 30.3992 40.61 30.5563 40.4598 30.7172C40.3095 30.8782 40.1576 31.0604 40.1222 31.122C40.0113 31.3154 38.9804 32.5669 38.7072 32.84C38.5636 32.9834 38.2586 33.2753 38.0294 33.4887C37.6416 33.8498 36.6123 35.0571 36.4505 35.3407C36.4112 35.4096 36.3206 35.5303 36.2491 35.609C36.1776 35.6877 36.0716 35.8394 36.0135 35.9461C35.9553 36.0528 35.8361 36.2565 35.7484 36.3988C35.6608 36.541 35.531 36.7593 35.4601 36.8838C35.2854 37.1906 35.1785 37.3624 35.1382 37.4011C35.0944 37.4432 34.8751 37.7812 34.7711 37.967C34.5479 38.3655 34.4975 38.4762 34.4972 38.5684C34.497 38.6235 34.462 38.7035 34.4196 38.7462C34.3772 38.7889 34.361 38.8238 34.3835 38.8238C34.4062 38.8238 34.3554 39.0232 34.2707 39.2669C34.1861 39.5107 34.0624 39.9141 33.9959 40.1636C33.86 40.673 33.905 40.8285 34.1882 40.8285C34.3205 40.8285 34.3819 40.7581 34.5476 40.4162C34.6576 40.1894 34.7672 39.9247 34.7914 39.8279C34.8317 39.6666 35.0997 39.1059 35.2872 38.7906C35.729 38.0479 36.0812 37.5602 36.5007 37.1101C36.6665 36.9323 36.896 36.6558 37.0108 36.4958C37.4331 35.907 39.3193 33.909 39.4529 33.909C39.4764 33.909 39.8334 33.5016 40.2463 33.0037C40.6591 32.5058 41.0243 32.0983 41.0578 32.0983C41.0914 32.0983 41.1187 32.069 41.1187 32.0331C41.1187 31.9727 41.3156 31.7223 41.5849 31.4402C41.6467 31.3754 41.6974 31.3093 41.6974 31.2934C41.6974 31.2355 42.3473 30.3728 42.7342 29.9171C42.9526 29.66 43.1775 29.3798 43.234 29.2943C43.2906 29.2089 43.4448 28.9757 43.5768 28.7761C43.7829 28.4644 44.1038 27.8262 44.3451 27.2482C44.3822 27.1593 44.4432 27.0284 44.4807 26.9572C45.1457 25.6953 45.554 24.8171 45.6232 24.4998C45.6697 24.2864 45.7567 24.0226 45.8165 23.9134C45.8763 23.8043 45.9458 23.6205 45.9711 23.5049C45.9963 23.3894 46.0575 23.2167 46.107 23.1213C46.1565 23.0259 46.1971 22.8968 46.1974 22.8346C46.1975 22.7724 46.2238 22.7215 46.2556 22.7215C46.2874 22.7215 46.3469 22.5814 46.3877 22.4103C46.4298 22.2336 46.6341 21.8336 46.8603 21.4851C47.0793 21.1474 47.2996 20.7928 47.3498 20.697C47.3999 20.6011 47.465 20.5227 47.4944 20.5227C47.5694 20.5227 47.561 21.2125 47.481 21.6295C47.4442 21.821 47.3716 22.3124 47.3195 22.7215C47.2675 23.1305 47.2115 23.5648 47.1951 23.6866C47.1788 23.8084 47.1357 23.9379 47.0994 23.9744C47.0632 24.0109 47.0333 24.0858 47.0331 24.1409C47.0329 24.196 46.9922 24.3192 46.9427 24.4147C46.8932 24.5101 46.8333 24.6774 46.8095 24.7865C46.7856 24.8956 46.7455 24.9848 46.7203 24.9848C46.695 24.9848 46.6192 25.1521 46.5516 25.3567C46.4841 25.5612 46.4062 25.7722 46.3785 25.8255C46.3509 25.8789 46.2699 26.1037 46.1986 26.3252C46.06 26.755 45.8101 27.3511 45.6352 27.6686C45.5764 27.7753 45.434 28.0372 45.3187 28.2506C45.2035 28.464 45.0463 28.7544 44.9697 28.8958C44.8929 29.0372 44.7183 29.3051 44.5817 29.4912C44.4451 29.6772 44.3333 29.8472 44.3333 29.8688C44.3333 29.8905 44.261 30.0036 44.1726 30.1202C44.0842 30.2368 44.0118 30.3623 44.0118 30.399C44.0118 30.4357 43.9681 30.5023 43.9146 30.547C43.8612 30.5916 43.7616 30.7552 43.6933 30.9105C43.6249 31.0658 43.5385 31.193 43.5011 31.193C43.4638 31.193 43.4332 31.2265 43.4332 31.2675C43.4332 31.3085 43.3453 31.4612 43.2378 31.607C43.1302 31.7528 42.8617 32.1194 42.641 32.4217C42.1108 33.148 41.5077 33.8884 41.2214 34.1642C41.0942 34.2868 40.9902 34.425 40.9902 34.4714C40.9902 34.5178 40.9576 34.5557 40.9178 34.5557C40.8779 34.5557 40.5814 34.8139 40.2588 35.1294C39.9362 35.4449 39.3974 35.9461 39.0614 36.2431C38.7255 36.5402 38.4362 36.8017 38.4185 36.8242C38.4008 36.8467 38.2128 37.0174 38.0006 37.2035L37.6149 37.5419L37.5824 37.3583C37.5417 37.1296 37.3474 37.0879 37.1289 37.2612C36.9583 37.3965 36.4255 38.3532 36.4255 38.5244C36.4255 38.5824 36.3966 38.6298 36.3612 38.6298C36.3258 38.6298 36.2969 38.688 36.2969 38.7592C36.2969 38.8303 36.2703 38.8885 36.2377 38.8885C36.2052 38.8885 36.1581 38.9821 36.1331 39.0965C36.1082 39.211 36.0635 39.3492 36.0338 39.4037C36.0042 39.4582 35.9195 39.6483 35.8456 39.8262C35.6444 40.3105 35.5645 40.4679 35.4934 40.5204C35.458 40.5465 35.4523 40.5683 35.4807 40.5689C35.5092 40.5694 35.4322 40.7663 35.3097 41.0064C34.9197 41.7707 34.727 42.2591 34.7971 42.3051C34.8332 42.3288 34.8806 42.421 34.9024 42.5099C34.9242 42.5988 34.9982 42.7064 35.0668 42.7491C35.177 42.8175 35.2281 42.7862 35.5032 42.4822C35.8198 42.1322 36.5241 41.1813 36.8883 40.612C37.0577 40.3472 37.1642 40.264 37.5742 40.0761C37.8412 39.9537 38.1042 39.8466 38.1587 39.838C38.2132 39.8295 38.2867 39.8046 38.3221 39.7827C38.437 39.7118 39.9814 39.2347 40.4437 39.1273C41.1539 38.9623 42.5643 38.7493 43.3368 38.6904C43.7257 38.6607 44.1886 38.6076 44.3654 38.5723C44.5422 38.537 45.2113 38.5064 45.8524 38.5044C46.7478 38.5014 47.0344 38.4803 47.0897 38.4133C47.2074 38.2707 46.9672 38.1127 46.5762 38.0757C46.0953 38.0302 45.0247 37.8702 44.1083 37.707C43.2202 37.5488 41.3906 37.5226 40.2244 37.6513C39.8563 37.6919 39.5382 37.7082 39.5176 37.6875C39.4969 37.6668 39.6101 37.5316 39.769 37.3872C40.6817 36.5575 41.7177 35.4622 41.8954 35.1391C41.9512 35.0375 42.1937 34.741 42.4341 34.4802C42.6746 34.2195 42.9467 33.9042 43.0387 33.7797C43.1307 33.6552 43.3894 33.3351 43.6135 33.0684C43.8375 32.8016 44.1185 32.4669 44.2378 32.3247C44.4963 32.0165 44.8956 31.4584 44.9549 31.3223C44.9781 31.269 45.0465 31.1526 45.107 31.0637C45.1673 30.9747 45.4045 30.5382 45.634 30.0936C46.1135 29.1644 46.1891 29.0263 46.3479 28.7888C46.8338 28.0618 47.7407 26.0513 47.7407 25.7011C47.7407 25.6209 47.8811 25.2662 48.0069 25.0284C48.1002 24.8521 48.3053 24.1439 48.3379 23.8855C48.3537 23.761 48.4115 23.4845 48.4665 23.2711C48.5215 23.0577 48.6304 22.6067 48.7086 22.2688C48.7866 21.9309 48.8792 21.6181 48.9143 21.5736C48.9493 21.5292 48.962 21.4928 48.9425 21.4928C48.9001 21.4928 48.9615 21.287 49.1765 20.708C49.3231 20.313 49.4159 19.9394 49.5107 19.3614C49.5309 19.2383 49.5702 19.1073 49.598 19.0704C49.6525 18.9977 49.956 18.1925 49.9577 18.1159C49.9583 18.0904 50.0022 18.0177 50.0552 17.9543C50.2654 17.703 50.6338 17.1561 50.6338 17.0952C50.6338 17.0597 50.6628 17.0307 50.6981 17.0307C50.7335 17.0307 50.7624 16.9915 50.7624 16.9437C50.7624 16.8958 50.8203 16.804 50.891 16.7397C50.9617 16.6753 51.0196 16.5953 51.0196 16.5618C51.0196 16.5283 51.0732 16.4237 51.1389 16.3293C51.2819 16.1234 51.3561 15.6997 51.2991 15.4132C51.2065 14.9474 50.4557 14.468 49.6777 14.3778C49.4433 14.3507 48.9333 14.2613 48.5444 14.1792C47.9095 14.0453 47.6595 14.0297 46.1013 14.0268C44.5081 14.0239 44.273 14.0383 43.2403 14.203C41.3458 14.505 40.985 14.5768 40.214 14.805C39.8048 14.9262 39.3274 15.0424 39.1532 15.0633C38.8435 15.1004 38.6479 15.1566 38.2578 15.3203C38.1517 15.3647 37.9781 15.431 37.872 15.4674C37.6229 15.5529 35.9427 16.2897 35.6701 16.4329C35.5551 16.4933 35.4611 16.5652 35.4611 16.5927C35.4611 16.6633 35.0906 16.6551 35.0467 16.5836C35.0267 16.5511 34.9942 16.2965 34.9744 16.0178C34.9546 15.739 34.898 15.3364 34.8486 15.123C34.7279 14.6008 34.439 13.2792 34.4104 13.1182C34.3978 13.0471 34.3717 12.9453 34.3523 12.8919C34.333 12.8385 34.2534 12.6057 34.1756 12.3746C34.0978 12.1434 34.0103 11.896 33.9811 11.8249C33.9518 11.7537 33.8794 11.5209 33.8202 11.3075C33.7609 11.0941 33.6884 10.8613 33.6591 10.7902C33.6299 10.7191 33.5451 10.4717 33.4708 10.2405C33.3966 10.0093 33.3118 9.76196 33.2826 9.69083C33.0435 9.10972 32.7417 8.50061 32.4498 8.00945C32.2594 7.68935 32.0305 7.29649 31.9409 7.13643C31.8514 6.97638 31.7225 6.76543 31.6544 6.66759C31.5863 6.56975 31.5448 6.48975 31.5623 6.48975C31.5797 6.48975 31.5392 6.42431 31.4722 6.34425C31.0866 5.88336 29.9966 4.5609 29.8143 4.33275C29.6964 4.1853 29.4216 3.87477 29.2035 3.64267C28.9854 3.41058 28.6768 3.06234 28.5177 2.86879C28.1552 2.42788 27.8145 2.08339 27.3436 1.6818C26.8124 1.2288 26.735 1.17558 26.2185 0.908438C25.6395 0.60896 25.3224 0.566861 24.8422 0.725751ZM45.5227 16.39C45.4166 16.4227 45.0405 16.5083 44.6869 16.5802C43.7243 16.7761 43.5327 16.8819 43.7109 17.1194C43.7724 17.2014 43.8359 17.209 44.044 17.1595C44.1854 17.1259 44.5552 17.0977 44.8657 17.0969C45.5029 17.0951 45.5793 17.1505 45.3884 17.4755C45.2701 17.677 44.9575 17.8285 44.494 17.9089C44.3526 17.9335 44.0488 18.0183 43.819 18.0976C43.5891 18.1767 43.1262 18.3214 42.7903 18.419C41.8904 18.6807 40.934 19.0964 40.6366 19.3553C40.5658 19.4168 40.3923 19.5229 40.2508 19.591C39.621 19.8944 38.8043 20.7017 37.6525 22.1597C37.2086 22.7215 37.0546 22.9979 37.1078 23.1373C37.1663 23.2908 37.4276 23.0841 38.3221 22.1764C39.0308 21.4573 39.4965 21.0694 39.7847 20.9582C39.8465 20.9344 39.8972 20.8848 39.8972 20.8481C39.8972 20.8114 39.9241 20.7814 39.9569 20.7814C40.0238 20.7814 40.7763 20.3492 40.9259 20.2249C40.9789 20.1809 41.1091 20.1256 41.2152 20.1021C41.715 19.9914 43.9287 19.3004 44.2369 19.1588C44.5238 19.027 45.3465 18.7532 45.6666 18.6831C45.7811 18.658 45.8913 18.6106 45.9115 18.5777C45.9316 18.5449 46.0148 18.518 46.0961 18.518C46.2326 18.518 46.6108 18.3013 46.8406 18.0912C46.8937 18.0428 47.0239 17.9289 47.13 17.8382C47.6551 17.3889 47.9336 17.0653 47.9336 16.9043C47.9336 16.7673 47.8656 16.6996 47.5558 16.5283C47.1899 16.3259 47.1548 16.3195 46.4467 16.3249C46.0446 16.3279 45.6288 16.3572 45.5227 16.39ZM31.8608 25.3463C31.7371 25.4494 31.6013 25.5665 31.5591 25.6066C31.517 25.6467 31.3056 26.0123 31.0895 26.419C30.8733 26.8258 30.5838 27.3024 30.4461 27.4782C30.1995 27.7932 30.1376 27.9011 29.8734 28.4769C29.8 28.637 29.6394 28.9561 29.5166 29.186C29.3938 29.416 29.2746 29.6924 29.2517 29.8004C29.2288 29.9083 29.1864 30.0264 29.1575 30.0627C29.1285 30.0991 29.0426 30.3464 28.9666 30.6124C28.7594 31.3368 28.722 31.5063 28.7609 31.5454C28.7804 31.565 28.7643 31.581 28.7253 31.581C28.6862 31.581 28.6536 31.632 28.6528 31.6942C28.6505 31.8704 28.5106 32.5061 28.4466 32.631C28.415 32.6927 28.3891 32.8145 28.3891 32.9016C28.3891 32.9887 28.3619 33.1319 28.3286 33.2199C28.2954 33.308 28.2508 33.5499 28.2296 33.7577C28.2084 33.9654 28.1749 34.2081 28.1552 34.2971C28.1356 34.386 28.0742 34.7206 28.0188 35.0407C27.9049 35.6984 27.8337 37.7891 27.9251 37.7891C28.0057 37.7891 28.1718 38.2008 28.2644 38.6298C28.3066 38.8254 28.3789 39.0292 28.425 39.0826C28.555 39.2333 28.6502 39.5124 28.8109 40.2142C28.8924 40.5699 29.0044 40.9851 29.0599 41.1369C29.3854 42.0277 29.6392 43.2141 29.7064 44.159C29.7242 44.4079 29.7669 44.8299 29.8015 45.0966C29.836 45.3634 29.8963 45.8872 29.9355 46.2607C30.0145 47.0135 30.0885 47.2307 30.266 47.2307C30.5802 47.2307 30.7727 45.7759 30.7922 43.2536C30.8035 41.7891 30.8725 41.0533 31.0246 40.7758C31.0574 40.7159 31.1618 40.4923 31.2566 40.2789C31.3513 40.0655 31.4876 39.8253 31.5596 39.7453C31.6315 39.6654 31.6697 39.5998 31.6444 39.5998C31.6192 39.5998 31.6986 39.4908 31.8208 39.3573C32.1199 39.0313 32.2522 38.8461 32.4329 38.5005C32.5165 38.3404 32.7794 38.0058 33.0169 37.7568C33.2545 37.5078 33.5168 37.2023 33.6 37.0778C33.8261 36.7394 35.5673 35.0029 35.9924 34.6921C36.3152 34.4559 36.3542 34.4048 36.2955 34.2944C36.2103 34.1342 35.9459 34.1355 35.6861 34.2974C35.5801 34.3635 35.2763 34.5265 35.0111 34.6596C34.5215 34.9053 33.9124 35.2598 33.8539 35.3332C33.8362 35.3554 33.7783 35.3931 33.7253 35.4169C33.4428 35.5439 33.1629 35.778 32.2419 36.6574C31.4827 37.3824 31.2682 37.5485 30.7827 37.7877C30.5483 37.9031 30.4711 37.9127 30.2523 37.8535C30.1116 37.8153 29.9964 37.7631 29.9964 37.7373C29.9964 37.7115 29.9336 37.6617 29.8568 37.6266C29.6562 37.5349 29.568 37.2067 29.4806 36.2275C29.3958 35.2773 29.4333 34.2669 29.5804 33.5372C29.6324 33.2794 29.7205 32.8429 29.7762 32.5672C29.8319 32.2916 29.9182 31.9351 29.9679 31.775C30.0177 31.6149 30.069 31.4258 30.082 31.3547C30.095 31.2835 30.1228 31.1817 30.1437 31.1283C30.1647 31.075 30.224 30.8567 30.2757 30.6433C30.4247 30.0267 30.5805 29.3584 30.5998 29.2529C30.6324 29.0758 30.7724 28.5759 30.8264 28.4446C30.8556 28.3735 30.9577 28.0679 31.0531 27.7656C31.2477 27.1488 31.6693 26.1991 31.9969 25.6393C32.0672 25.5191 32.116 25.3618 32.1053 25.2898C32.087 25.1666 32.0727 25.1699 31.8608 25.3463ZM28.3496 27.069C28.1025 27.261 28.0034 27.3592 28.0034 27.412C28.0034 27.436 27.8277 27.6387 27.6129 27.8624C27.3983 28.0861 27.1612 28.3959 27.0861 28.5508C27.0111 28.7058 26.9287 28.8475 26.903 28.8656C26.8773 28.8838 26.8364 28.9783 26.8121 29.0758C26.7878 29.1732 26.7421 29.2529 26.7106 29.2529C26.679 29.2529 26.6533 29.2985 26.6533 29.3542C26.6533 29.4099 26.6185 29.519 26.576 29.5967C26.5335 29.6744 26.4919 29.7795 26.4836 29.8302C26.4752 29.8809 26.4262 30.0118 26.3747 30.1212C26.2403 30.4064 26.1699 30.5887 26.0103 31.0637C25.9327 31.2948 25.8457 31.5422 25.817 31.6133C25.7456 31.7904 25.6706 31.9914 25.6542 32.0498C25.6468 32.0765 25.6349 32.1056 25.6279 32.1145C25.6208 32.1234 25.6025 32.2034 25.5871 32.2923C25.5718 32.3813 25.5321 32.5268 25.499 32.6157C25.4659 32.7046 25.3777 33.0102 25.303 33.2947C25.2282 33.5792 25.15 33.8557 25.129 33.909C25.1081 33.9624 25.0806 34.0643 25.0679 34.1354C25.0552 34.2065 25.0169 34.3375 24.9827 34.4264C24.7718 34.9741 24.4939 38.4859 24.5554 39.8262C24.6543 41.9855 24.6739 43.3015 24.6089 43.4375C24.5723 43.5142 24.4776 43.7283 24.3983 43.9134C24.3191 44.0985 24.2138 44.2655 24.1644 44.2846C24.0435 44.3313 23.6509 44.1614 23.3744 43.9429C23.2507 43.8451 22.9512 43.6404 22.709 43.4881C22.326 43.2472 22.194 43.2016 21.6968 43.1385C21.036 43.0546 20.5943 43.1197 20.0271 43.3846C19.5103 43.6259 19.4865 43.643 19.465 43.7883C19.4398 43.9577 19.5708 43.9867 20.0313 43.9135C20.4704 43.8436 21.0698 43.8991 21.5707 44.0559C21.9708 44.1811 22.1412 44.2909 22.6888 44.7769C22.8714 44.939 23.1408 45.1645 23.2874 45.2782C23.434 45.3918 23.6398 45.5656 23.7448 45.6642C23.9541 45.8609 24.5192 46.0667 24.8501 46.0667C24.9661 46.0667 25.2003 46.0169 25.3707 45.956C25.7555 45.8185 25.9088 45.5704 26.0016 44.935C26.0379 44.686 26.0845 44.4095 26.105 44.3206C26.1256 44.2317 26.1702 43.8505 26.2044 43.4734C26.2701 42.7463 26.2435 42.4328 26.0098 41.1842C25.7241 39.6581 25.689 37.4147 25.9182 35.3364C26.0249 34.3683 26.0917 34.0475 26.3661 33.1833C26.4533 32.9086 26.5247 32.6306 26.5247 32.5657C26.5247 32.5007 26.5527 32.4194 26.587 32.3849C26.6212 32.3505 26.6673 32.2064 26.6895 32.0648C26.7117 31.9232 26.7527 31.7782 26.7806 31.7427C26.8085 31.7071 26.8528 31.5771 26.879 31.4538C26.9053 31.3305 26.9489 31.185 26.976 31.1305C27.0715 30.9379 27.1891 30.6421 27.2064 30.5511C27.216 30.5004 27.2669 30.3694 27.3195 30.2601C27.4958 29.8939 27.6176 29.5897 27.6176 29.5157C27.6176 29.4468 28.1248 28.3422 28.3955 27.8214C28.4627 27.6921 28.5177 27.5248 28.5177 27.4496C28.5177 27.3744 28.5433 27.3129 28.5745 27.3129C28.6436 27.3129 28.6998 27.117 28.6626 27.0057C28.6244 26.8916 28.5615 26.9043 28.3496 27.069ZM33.4114 43.3091C33.2456 43.51 33.1076 44.7809 33.1245 45.9507C33.1337 46.5887 33.2059 47.0194 33.4204 47.7167C33.5091 48.0052 33.8551 48.5827 33.9414 48.5863C33.9718 48.5877 34.131 48.6979 34.295 48.8312C34.459 48.9646 34.6552 49.1084 34.731 49.1508C34.9267 49.2603 35.2186 49.169 35.2458 48.9899C35.2577 48.9115 35.2387 48.8474 35.2036 48.8474C35.1684 48.8474 35.1397 48.7761 35.1397 48.689C35.1397 48.6018 35.0568 48.4054 34.9555 48.2524C34.7928 48.0069 34.681 47.7824 34.495 47.3277C34.466 47.2566 34.4265 47.1256 34.4074 47.0367C34.3738 46.8804 34.2514 46.3756 34.1172 45.8403C33.8999 44.9731 33.8501 44.6627 33.8598 44.2374C33.8659 43.9759 33.838 43.7005 33.798 43.6252C33.758 43.55 33.7253 43.4345 33.7253 43.3686C33.7253 43.2295 33.5106 43.1888 33.4114 43.3091ZM42.4183 46.1798C42.3504 46.2777 42.2744 46.4421 42.2496 46.5453C42.1963 46.7666 41.8751 47.1877 41.3791 47.6867C41.1829 47.8842 40.9066 48.2015 40.7651 48.3919C40.4925 48.7589 39.0894 50.2054 39.0061 50.2054C38.979 50.2054 38.8726 50.2939 38.7696 50.4021C38.5663 50.6155 38.2193 50.8277 37.7926 50.9994L37.5215 51.1085L37.3614 50.9348C37.2734 50.8393 37.1353 50.6075 37.0545 50.4197C36.94 50.1535 36.8759 50.078 36.763 50.0772C36.6341 50.0762 36.6184 50.108 36.6184 50.369C36.6184 50.5658 36.6816 50.7878 36.8112 51.0461C36.9173 51.2575 37.0041 51.4743 37.0041 51.5279C37.0041 51.5816 37.0599 51.8079 37.128 52.0309C37.1961 52.254 37.2979 52.6256 37.3542 52.8568C37.4104 53.088 37.5016 53.4518 37.5567 53.6652C37.6886 54.1759 37.7602 57.8394 37.6531 58.5932C37.5182 59.5414 37.505 59.6147 37.4573 59.6793C37.4079 59.7462 37.2416 60.2618 37.173 60.5611C37.1474 60.6729 37.1669 60.7591 37.2298 60.8115C37.3357 60.9 37.3602 61.2345 37.2651 61.2936C37.2154 61.3246 37.2866 61.676 37.3618 61.7701C37.4218 61.8453 37.6495 61.6128 37.7147 61.4097C37.7576 61.276 37.8699 61.0502 37.9641 60.9079C38.0584 60.7656 38.1881 60.46 38.2524 60.2289C38.3167 59.9977 38.4203 59.6922 38.4825 59.55C38.7476 58.9436 38.8591 58.4634 39.0004 57.3189C39.1553 56.0631 39.1754 55.6338 39.1168 54.8262C38.9746 52.8646 38.974 52.805 39.0927 52.6227C39.1538 52.529 39.4393 52.1885 39.7272 51.8659C40.0152 51.5433 40.3231 51.1939 40.4115 51.0895C40.4999 50.985 40.7419 50.707 40.9493 50.4717C41.1752 50.2152 41.4146 49.8494 41.5469 49.5587C41.8668 48.8555 42.3657 47.8503 42.4135 47.8127C42.4593 47.7767 42.5473 47.4922 42.7288 46.7935C42.9073 46.1071 42.7225 45.7421 42.4183 46.1798ZM21.3357 46.4344C21.3094 46.5034 21.3363 46.5687 21.409 46.6122C21.6841 46.7769 21.8265 46.9229 21.956 47.1727C22.1344 47.5171 22.192 47.5716 22.6282 47.809C22.9331 47.9749 23.0627 48.0067 23.4336 48.0067C23.9101 48.0067 24.3139 47.8403 24.5058 47.5646C24.6141 47.4091 24.66 47.4272 23.8398 47.3021C23.583 47.2629 23.3226 47.2043 23.2611 47.1718C23.1997 47.1394 23.0047 47.0628 22.8279 47.0018C22.6511 46.9407 22.4197 46.8118 22.3136 46.7154C21.9336 46.37 21.4169 46.2215 21.3357 46.4344ZM20.2242 48.106C19.9943 48.1891 19.7339 48.2591 19.6455 48.2616C19.5571 48.2642 19.4019 48.3097 19.3007 48.3628C19.0236 48.5081 18.5998 48.4826 18.2188 48.2977C18.0356 48.2088 17.8404 48.1369 17.7851 48.1381C17.6692 48.1404 17.3971 48.33 17.5096 48.33C17.5506 48.33 17.5695 48.3685 17.5516 48.4155C17.5329 48.4643 17.5891 48.5331 17.6821 48.5758C17.9088 48.6797 17.8957 48.8474 17.6609 48.8474C17.5595 48.8474 17.2629 48.9179 17.0019 49.004C16.7409 49.0902 16.5065 49.1403 16.4808 49.1156C16.4552 49.0907 16.5065 48.9859 16.5948 48.8825C16.9532 48.4629 16.5779 48.4061 16.1385 48.8134C15.9635 48.9756 15.7291 49.1534 15.6178 49.2085C15.443 49.2949 14.888 49.875 14.888 49.9713C14.888 49.9898 14.8012 50.1343 14.6951 50.2924C14.589 50.4505 14.5022 50.6075 14.5022 50.6414C14.5022 50.7009 14.3641 51.0254 14.241 51.2554C14.2079 51.3171 14.1805 51.4481 14.18 51.5464C14.1796 51.6447 14.1366 51.8852 14.0844 52.0808C13.9624 52.5379 13.9633 52.7557 14.0876 52.8595C14.2332 52.9811 14.3353 52.8409 14.443 52.3718L14.5319 51.9838L14.5741 52.7275C14.6746 54.5028 14.7028 54.8445 14.77 55.1054C14.8277 55.3292 14.8236 55.4028 14.7484 55.4934C14.6072 55.6637 14.5015 55.9484 14.5411 56.0521C14.5803 56.1548 14.9341 56.3417 15.1215 56.3585C15.3985 56.3836 15.5335 56.3403 15.6271 56.1965C15.7105 56.0687 15.7146 55.9882 15.6533 55.6954C15.6131 55.5035 15.5511 55.3101 15.5155 55.2656C15.4799 55.2212 15.4447 55.0297 15.4372 54.8403C15.4297 54.6508 15.4082 54.4689 15.3895 54.4361C15.3707 54.4034 15.3596 54.2965 15.3648 54.1987C15.3701 54.1008 15.3524 54.0208 15.3254 54.0208C15.2984 54.0208 15.2854 53.5771 15.2965 53.0347C15.3133 52.2151 15.3411 51.9775 15.4613 51.6281C15.6202 51.1664 15.7798 50.8026 15.8824 50.6681C16.6108 49.7136 17.1401 49.4949 18.9705 49.3923C19.3948 49.3686 19.8891 49.3118 20.069 49.2662C20.7959 49.082 21.7484 48.6176 21.8143 48.4153C21.828 48.3732 21.7799 48.3068 21.7073 48.2678C21.6054 48.2129 21.5287 48.2211 21.3696 48.3038C20.8914 48.5526 20.5965 48.5305 20.8364 48.2637C20.9661 48.1195 20.9205 47.9393 20.7565 47.9484C20.6936 47.952 20.454 48.0229 20.2242 48.106ZM19.4527 49.6234C19.3996 49.6579 19.0736 49.6865 18.7282 49.6871C17.8661 49.6885 17.2509 49.8593 16.71 50.2475C16.1226 50.6692 15.8664 51.0432 15.6819 51.7486C15.5582 52.2217 15.5012 53.1068 15.5594 53.6533C15.6025 54.0578 15.6156 54.0855 15.7649 54.0855C15.8525 54.0855 15.909 54.0607 15.8904 54.0303C15.8717 54 15.8969 53.92 15.9463 53.8525C16.034 53.7326 16.037 53.7327 16.0786 53.8592C16.2314 54.3234 16.3308 54.3835 16.724 54.2493C16.8782 54.1966 17.2008 54.123 17.4409 54.0856C18.0476 53.9914 18.2706 53.8879 19.0561 53.3361C19.2786 53.1798 19.6121 52.6185 19.7442 52.1778C19.8714 51.7534 19.8929 50.5756 19.7824 50.0812C19.7457 49.9169 19.7463 49.8023 19.784 49.7789C19.857 49.7335 19.7272 49.5583 19.6216 49.5597C19.5817 49.5603 19.5057 49.5889 19.4527 49.6234ZM20.3761 49.6257C20.3342 49.6679 20.328 49.8058 20.3594 49.9976C20.4303 50.4304 20.4272 51.1136 20.3514 51.7898C20.2729 52.4885 20.1776 52.8434 20.02 53.0226C19.9555 53.0961 19.9023 53.1834 19.9019 53.2166C19.901 53.2852 19.4936 53.7287 19.2524 53.9238C18.9187 54.1937 18.0544 54.5004 16.8613 54.7725C16.4294 54.8709 16.3195 54.9259 16.0737 55.1662C15.758 55.4748 15.7342 55.5393 15.9022 55.6297C15.9814 55.6724 16.1194 55.6546 16.3538 55.5716C16.8775 55.3861 17.2971 55.3186 18.1493 55.2827C19.1034 55.2426 19.5393 55.0923 20.1584 54.5902C20.2814 54.4905 20.4206 54.4089 20.4676 54.4089C20.5147 54.4089 20.5364 54.3815 20.5158 54.3481C20.4953 54.3146 20.5587 54.1909 20.6567 54.073C20.8651 53.8225 20.9692 53.6621 21.0684 53.4388C21.1079 53.3499 21.166 53.219 21.1975 53.1478C21.3858 52.723 21.5253 51.3619 21.3893 51.2774C21.3583 51.2581 21.2956 51.1036 21.25 50.934C21.2045 50.7645 21.1622 50.6112 21.1562 50.5934C21.1279 50.5097 21.0429 50.2897 20.9938 50.1731C20.9639 50.102 20.9196 49.971 20.8953 49.8821C20.8712 49.7932 20.8224 49.6841 20.787 49.6396C20.7091 49.5416 20.4679 49.5335 20.3761 49.6257ZM29.7392 51.2142C29.7392 51.271 29.779 51.4093 29.8276 51.5214C29.8762 51.6334 29.968 51.9143 30.0317 52.1455C30.0954 52.3767 30.1663 52.5949 30.1893 52.6305C30.2442 52.7157 30.4222 53.3605 30.5429 53.9117C30.7101 54.6756 30.6201 56.2877 30.3951 56.5598C30.3486 56.616 30.3376 56.6769 30.3702 56.6972C30.4597 56.7528 30.1405 57.6713 29.817 58.2889C29.5027 58.8893 29.2445 59.2931 28.8237 59.8432C28.5761 60.1667 28.4708 60.2915 28.0883 60.714C28.0239 60.7851 27.8266 60.974 27.6498 61.1336C27.3802 61.3769 27.1676 61.6514 27.1676 61.7561C27.1676 61.8826 27.5637 61.684 28.2293 61.2236C29.1096 60.6147 30.575 58.9182 30.575 58.5079C30.575 58.4586 30.5985 58.4183 30.6273 58.4183C30.7017 58.4183 30.9225 57.8865 31.0837 57.3189C31.1595 57.0522 31.2479 56.7863 31.28 56.7281C31.3734 56.5589 31.4879 55.3224 31.4433 54.9633C31.4209 54.7828 31.3489 54.4606 31.2832 54.2472C31.1598 53.8458 31.0663 53.4085 31.0879 53.3342C31.0947 53.3108 31.0707 53.2732 31.0344 53.2507C30.9982 53.2281 30.9553 53.1359 30.939 53.0456C30.9227 52.9552 30.7949 52.6358 30.655 52.3356C30.515 52.0354 30.3531 51.6879 30.2952 51.5635C30.2372 51.439 30.1503 51.2862 30.1021 51.2239C29.9909 51.0805 29.7392 51.0737 29.7392 51.2142ZM17.4861 51.3744C17.6867 51.6142 17.6893 51.6531 17.5213 51.8905C17.256 52.2654 16.6239 52.1792 16.6239 51.7683C16.6239 51.547 16.7253 51.4056 16.9775 51.2756C17.2451 51.1377 17.2964 51.1476 17.4861 51.3744ZM11.0305 63.1585C11.0305 63.3943 11.1262 63.5271 11.2962 63.5271C11.4825 63.5271 11.5121 63.2782 11.3468 63.1012C11.1414 62.8812 11.0305 62.9013 11.0305 63.1585ZM12.2607 63.0915C12.1396 63.2134 12.1783 63.4955 12.3365 63.6451C12.5098 63.8088 12.6901 63.8276 12.7436 63.6876C12.8387 63.4383 12.4244 62.9269 12.2607 63.0915ZM9.18216 63.4455C9.04863 63.4915 9.08746 63.8551 9.24022 63.9883C9.39329 64.1219 9.58565 64.1463 9.65065 64.0405C9.76052 63.8617 9.37934 63.3776 9.18216 63.4455ZM13.9094 63.5044C13.8197 63.5946 13.8202 63.629 13.915 63.8561C14.0305 64.1327 14.1988 64.1876 14.3071 63.9839C14.4535 63.7088 14.1136 63.299 13.9094 63.5044ZM10.0409 63.9527C9.91096 64.2933 9.96606 64.3199 10.9808 64.4055C11.475 64.4471 11.4777 64.4483 11.5155 64.65C11.5679 64.9295 11.8814 65.306 12.0178 65.2533C12.1388 65.2066 12.1612 64.8828 12.0569 64.6868C11.975 64.5328 11.9582 64.5332 12.7736 64.6694C13.396 64.7734 13.4166 64.7821 13.3802 64.928C13.3595 65.0111 13.3607 65.1519 13.3829 65.2408C13.414 65.3655 13.4648 65.4024 13.6048 65.4024C13.8048 65.4024 13.9283 65.1872 13.8014 65.0596C13.6044 64.8615 13.7766 64.8352 14.1444 65.0075C14.2882 65.0748 14.5505 65.1799 14.7273 65.2412C15.4905 65.5056 17.0426 66.2378 18.3597 66.9549C18.4835 67.0222 18.7149 67.1379 18.874 67.2119C19.0332 67.2859 19.2791 67.418 19.4205 67.5053C19.562 67.5927 19.8151 67.7419 19.9831 67.8369C20.1511 67.932 20.2884 68.0342 20.2884 68.0641C20.2884 68.0941 20.3273 68.1185 20.3749 68.1185C20.4225 68.1185 20.5138 68.1767 20.5778 68.2478C20.6417 68.319 20.7193 68.3772 20.75 68.3772C20.8377 68.3772 21.4246 68.7988 21.6434 69.0188C21.7523 69.1283 21.8912 69.2179 21.9521 69.2179C22.0131 69.2179 22.0904 69.2437 22.124 69.2753C22.2149 69.3607 22.4743 69.4287 22.4743 69.3671C22.4743 69.2885 22.1966 69.0153 21.9282 68.8299C21.7995 68.7409 21.5443 68.5438 21.361 68.3917C21.1778 68.2396 20.8108 67.9376 20.5456 67.7207C20.2804 67.5037 20.0538 67.3008 20.042 67.2697C20.0302 67.2386 19.9978 67.2132 19.9699 67.2132C19.942 67.2132 19.6045 67.0204 19.2199 66.7848C18.4402 66.3072 16.5179 65.3238 15.706 64.9871C14.2214 64.3715 11.9516 63.8533 10.732 63.8514C10.1961 63.8506 10.073 63.8686 10.0409 63.9527ZM9.23038 64.662C9.23038 64.9588 9.61625 65.5197 9.82713 65.5294C9.92511 65.534 9.98213 65.2496 9.91026 65.1153C9.78605 64.8834 9.58938 64.5958 9.52117 64.5466C9.37317 64.4397 9.23038 64.4964 9.23038 64.662ZM7.8642 64.6984C7.68791 64.7984 7.73124 65.0068 7.98037 65.2574C8.18372 65.4619 8.21979 65.4767 8.30555 65.3904C8.5109 65.1838 8.11172 64.558 7.8642 64.6984ZM13.0887 65.9667C13.5651 66.2186 13.6665 66.2988 13.6665 66.4236C13.6665 66.5068 13.6977 66.6337 13.736 66.7056C13.8588 66.9364 13.7409 66.9156 13.4585 66.6567C13.3074 66.5182 13.005 66.2606 12.7866 66.0843C12.5681 65.9081 12.4036 65.7407 12.421 65.7125C12.4672 65.6372 12.4618 65.6351 13.0887 65.9667ZM7.89512 66.0848C7.82832 66.2049 7.87095 66.5665 7.95182 66.5665C7.9832 66.5665 8.00885 66.6056 8.00885 66.6534C8.00885 66.7854 8.24814 66.9752 8.36007 66.932C8.42687 66.9062 8.45889 66.8074 8.45889 66.6268C8.45889 66.4114 8.42025 66.3234 8.2592 66.1721C8.03129 65.9579 7.97343 65.944 7.89512 66.0848ZM15.6381 66.0276C15.5526 66.1135 15.5982 66.389 15.7281 66.5726C15.8382 66.7281 15.8823 66.7489 15.9852 66.6935C16.1435 66.6083 16.1424 66.4598 15.9816 66.1946C15.8607 65.9951 15.7324 65.9327 15.6381 66.0276ZM13.5057 67.3063C13.7578 67.5291 13.7599 67.5346 13.6109 67.5769C13.4753 67.6154 13.4625 67.6486 13.4913 67.8854C13.5091 68.0314 13.546 68.2058 13.5732 68.2731C13.6132 68.3717 13.6034 68.3842 13.522 68.3377C13.3617 68.2463 12.6378 67.5336 12.6378 67.4672C12.6378 67.4342 12.5911 67.4072 12.5338 67.4072C12.4545 67.4072 12.4415 67.3727 12.4786 67.2617C12.5053 67.1817 12.5254 67.0242 12.5232 66.9117L12.5192 66.7074L12.8838 66.8931C13.0844 66.9952 13.3643 67.1811 13.5057 67.3063ZM14.7714 67.0353C15.4164 67.4332 16.6153 68.4443 17.4464 69.2914L18.1674 70.0262L17.9185 70.2526C17.7817 70.377 17.6143 70.5225 17.5466 70.5759C17.4789 70.6292 17.3745 70.7122 17.3147 70.7601C17.2229 70.8339 17.1909 70.8322 17.1078 70.7486C17.0538 70.6942 17.0096 70.621 17.0096 70.5859C17.0096 70.5507 16.9848 70.5123 16.9545 70.5004C16.9014 70.4797 16.1825 69.5569 15.9766 69.2452C15.9212 69.1613 15.5306 68.7353 15.1087 68.2985C14.0211 67.1729 14.0201 67.1716 14.1407 67.0502C14.1951 66.9955 14.2233 66.9079 14.2034 66.8556C14.1425 66.6961 14.3049 66.7475 14.7714 67.0353ZM15.9158 69.8218C15.9163 69.8516 16.0468 70.0257 16.206 70.2086C16.3651 70.3917 16.4953 70.5737 16.4953 70.6133C16.4953 70.6528 16.5531 70.7379 16.6239 70.8022C16.6946 70.8666 16.7524 70.9715 16.7524 71.0353C16.7524 71.1641 16.3774 71.4812 16.2251 71.4812C16.1716 71.4812 15.9284 71.2232 15.6847 70.9077C15.441 70.5923 14.9523 69.9931 14.5987 69.5763C13.7711 68.6006 13.815 68.6712 13.9502 68.5352C14.0349 68.4501 14.0525 68.3694 14.0192 68.2211C13.8973 67.6792 13.8993 67.6803 14.9158 68.7328C15.4653 69.3019 15.9153 69.7919 15.9158 69.8218ZM32.9283 67.9338C32.7904 68.0069 32.4972 68.2206 32.2768 68.4088C32.0563 68.5969 31.7418 68.8299 31.5779 68.9265C31.4141 69.0231 31.2444 69.1519 31.2008 69.2128C31.1572 69.2736 31.0781 69.3444 31.025 69.3702C30.8662 69.4472 30.6815 69.5642 30.4486 69.7352C30.1574 69.9491 29.7026 70.2053 28.6141 70.7687C28.1191 71.025 27.6707 71.2695 27.6176 71.3121C27.4942 71.4113 27.063 71.613 26.4971 71.8363C26.252 71.9329 26.0061 72.0364 25.9506 72.0662C25.463 72.3279 24.7458 72.6136 24.4052 72.6818C24.1077 72.7413 23.953 72.8454 23.953 72.9862C23.953 73.1697 24.0774 73.1766 24.8536 73.036C25.2546 72.9634 25.7788 72.9039 26.0184 72.9039C26.258 72.9039 26.5929 72.8773 26.7626 72.8447C26.9323 72.8121 27.4039 72.7377 27.8105 72.6794C28.7725 72.5414 29.0608 72.476 29.8357 72.2205C30.1893 72.1039 30.6811 71.9654 30.9286 71.9127C31.6659 71.7556 32.1975 71.6034 32.4891 71.4659C32.7151 71.3593 32.7502 71.3198 32.6873 71.2436C32.5092 71.0277 32.3881 71.0203 31.7804 71.1879C30.8229 71.4519 30.8275 71.4241 31.8287 70.8986C32.1473 70.7313 32.2847 70.6214 32.2993 70.5221C32.3174 70.398 32.29 70.3819 32.0603 70.3819C31.9177 70.3819 31.6914 70.4296 31.5576 70.4879C31.1443 70.6679 31.0658 70.6988 30.7863 70.7921C30.4515 70.9038 30.3884 70.8575 30.6318 70.6788C31.2192 70.2474 31.5405 69.9748 31.8098 69.6793C31.9763 69.4967 32.0947 69.3472 32.0731 69.3472C32.0515 69.3472 32.0862 69.289 32.1501 69.2179C32.2141 69.1467 32.3026 69.0885 32.3467 69.0885C32.3908 69.0885 32.4551 69.0069 32.4897 68.9072C32.5243 68.8074 32.7007 68.5555 32.8818 68.3474C33.0628 68.1393 33.2109 67.9299 33.2109 67.8821C33.2109 67.7765 33.2321 67.7726 32.9283 67.9338ZM10.2397 68.5922C10.268 68.6393 10.3445 68.6977 10.4098 68.7219C10.4751 68.746 10.5433 68.8229 10.5614 68.8927C10.5795 68.9625 10.6491 69.0371 10.716 69.0584C10.7829 69.0798 10.8377 69.1244 10.8377 69.1575C10.8377 69.1907 10.8696 69.2179 10.9086 69.2179C11.0739 69.2179 14.0522 72.2948 14.0522 72.4656C14.0522 72.5288 13.6703 72.6606 13.5837 72.6272C13.5369 72.6091 13.3849 72.4239 13.2459 72.2156C13.1069 72.0073 12.906 71.7311 12.7994 71.6017C12.6928 71.4723 12.523 71.2501 12.422 71.1078C12.321 70.9655 12.0711 70.6828 11.8669 70.4795C11.5722 70.1861 11.4673 70.1187 11.3594 70.1532C11.2692 70.182 11.2234 70.2505 11.2234 70.3567C11.2234 70.5217 11.593 71.0703 11.8906 71.347C11.9833 71.4333 12.0592 71.5262 12.0592 71.5536C12.0592 71.581 12.1614 71.7141 12.2864 71.8495C12.4114 71.9848 12.6012 72.2265 12.7081 72.3866L12.9026 72.6776L12.6291 72.6981C12.3304 72.7205 12.2623 72.6647 12.0249 72.2033C11.9579 72.0729 11.7935 71.8087 11.6596 71.6162C11.5258 71.4237 11.4163 71.2273 11.4163 71.1797C11.4163 71.1322 11.3941 71.0932 11.367 71.0932C11.34 71.0932 11.2187 70.9405 11.0976 70.7537C10.9765 70.567 10.7166 70.1997 10.52 69.9375C9.94607 69.172 9.97397 69.2201 10.0563 69.1372C10.1474 69.0456 10.1537 68.7873 10.0662 68.7328C9.96831 68.672 9.98946 68.5065 10.0951 68.5065C10.1464 68.5065 10.2115 68.5451 10.2397 68.5922ZM9.30753 69.9421C9.1713 70.0792 9.21604 70.4107 9.39162 70.5643C9.57247 70.7224 9.79621 70.7494 9.8459 70.619C9.88975 70.5041 9.56682 69.8645 9.46485 69.8645C9.42075 69.8645 9.34996 69.8995 9.30753 69.9421ZM18.9383 70.956C18.9383 70.9959 18.9651 71.0286 18.9979 71.0286C19.0307 71.0286 19.0707 71.0795 19.0869 71.1417C19.1117 71.2372 19.1174 71.2385 19.1237 71.1496C19.1279 71.0918 19.0878 71.0082 19.0348 70.9639C18.9682 70.9083 18.9383 70.9058 18.9383 70.956Z" fill="#6AA64C"/>
</svg>
