<svg width="97" height="97" viewBox="0 0 97 97" fill="none" xmlns="http://www.w3.org/2000/svg">
<g clip-path="url(#clip0_2704_12900)">
<path fill-rule="evenodd" clip-rule="evenodd" d="M56.5307 30.1769C58.8985 24.5012 59.9119 18.3522 59.4906 12.2169C52.7477 17.4731 47.449 24.3545 44.0907 32.2169C41.7228 37.8925 40.7094 44.0416 41.1306 50.1769C47.912 44.8763 53.2155 37.92 56.5307 29.9769V30.1769ZM16.5307 55.4168C13.4551 45.4802 12.9324 34.9287 15.0107 24.7367C13.9256 33.4829 14.7165 42.36 17.3307 50.7767C18.9875 56.2862 21.4835 61.5074 24.7307 66.2567C28.3801 62.4165 31.12 57.8056 32.748 52.7643C34.3759 47.7229 34.8503 42.3802 34.136 37.131C33.4218 31.8817 31.5371 26.86 28.6214 22.4369C25.7057 18.0138 21.8335 14.3023 17.2907 11.5768C13.539 15.5905 10.7557 20.4097 9.15414 25.6651C7.55255 30.9206 7.17506 36.473 8.05063 41.8968C9.33257 49.5592 13.0995 56.5871 18.7707 61.8968C17.8641 59.8233 17.0762 57.6997 16.4107 55.5367L16.5307 55.4168ZM34.0506 72.5367C31.6218 74.4778 29.2985 76.5474 27.0907 78.7367C32.2443 67.0301 41.593 57.6765 53.2968 52.5167C65.0007 47.3569 78.2121 46.7648 90.3307 50.8568C88.8161 57.8971 85.8346 64.5389 81.5805 70.3495C77.3265 76.16 71.8954 81.0088 65.6414 84.5792C59.3875 88.1496 52.4513 90.3616 45.2849 91.0711C38.1186 91.7806 30.8832 90.9717 24.0506 88.6969C24.0693 88.618 24.0693 88.5358 24.0506 88.4569C28.6589 82.0232 34.1532 76.2729 40.3706 71.3768C49.8344 63.7997 60.7128 58.1838 72.3706 54.8568C58.2985 57.7443 45.1113 63.9267 33.8907 72.8968L34.0506 72.5367Z" fill="#CBCCCA"/>
</g>
<defs>
<clipPath id="clip0_2704_12900">
<rect width="96" height="96" fill="white" transform="translate(0.318359 0.634766)"/>
</clipPath>
</defs>
</svg>
