<svg width="996" height="561" viewBox="0 0 996 561" fill="none" xmlns="http://www.w3.org/2000/svg" xmlns:xlink="http://www.w3.org/1999/xlink">
<path fill-rule="evenodd" clip-rule="evenodd" d="M696.438 20.1651C693.081 9.70301 684.457 0.634766 673.469 0.634766H17.7745C8.13374 0.634766 0.318359 8.45756 0.318359 18.1075V543.162C0.318359 552.812 8.13373 560.635 17.7745 560.635H977.862C987.503 560.635 995.318 552.812 995.318 543.162V18.1075C995.318 8.45756 987.503 0.634766 977.862 0.634766H844.321V0.634766C833.334 0.634766 824.556 9.70301 821.199 20.1651C812.736 46.5425 788.007 65.6348 758.818 65.6348C729.63 65.6348 704.901 46.5425 696.438 20.1651Z" fill="white"/>
<defs>
<pattern id="pattern0" patternContentUnits="objectBoundingBox" width="1" height="1">
<use xlink:href="#image0_2704_12902" transform="matrix(0.000760234 0 0 0.00135205 -0.0701754 -0.154077)"/>
</pattern>
</defs>
</svg>
