<svg width="27" height="22" viewBox="0 0 27 22" fill="none" xmlns="http://www.w3.org/2000/svg">
<path d="M24.7463 14.8309C24.7463 14.7764 24.7463 14.7219 24.7463 14.6564C24.7463 10.8075 21.7263 7.72174 18.0054 7.72174C17.9229 7.72174 16.6654 7.72174 15.0575 7.68902C14.8926 7.79806 14.738 7.88529 14.573 7.97252C13.2331 8.79029 11.8416 9.44451 10.5842 9.86975C10.5017 9.69529 10.4192 9.55354 10.3471 9.4118C11.553 9.04107 12.9445 8.39776 14.336 7.54728C17.9435 5.36655 20.3039 2.56432 19.5824 1.26679C18.8918 -0.00893724 15.4079 0.699799 11.821 2.91324C9.36791 4.41794 7.49199 6.22794 6.7911 7.6236C6.49219 7.65631 6.20359 7.73264 5.90468 7.81987C5.33779 7.96162 4.75028 8.19059 4.19369 8.49589C1.44166 10.0551 0.101723 13.0536 1.20459 15.2343C2.02917 16.9026 4.07 17.5786 6.18298 17.1316L6.23451 17.2406C6.10052 17.4369 5.99745 17.6658 5.91499 17.8948C4.17307 18.0911 2.81252 19.6503 2.81252 21.5475L2.99805 21.3513L2.7816 21.6348L5.51301 21.6021H11.4809C11.4809 19.454 13.1713 17.6658 15.2018 17.6658V18.1783C13.4083 18.1783 11.9653 19.7048 11.9653 21.5693H12.5528H18.2218C20.2008 21.4821 21.9633 20.5553 23.1487 19.0833C23.5197 19.3995 24.0041 19.5958 24.5401 19.5958C25.7976 19.5958 26.818 18.5163 26.818 17.1861C26.8386 15.9431 25.9213 14.9181 24.7463 14.8309ZM6.10052 11.8651C5.53362 11.8651 5.08011 11.3854 5.08011 10.7857C5.08011 10.186 5.53362 9.7062 6.10052 9.7062C6.66742 9.7062 7.12093 10.186 7.12093 10.7857C7.12093 11.3854 6.65711 11.8651 6.10052 11.8651Z" fill="white"/>
</svg>
