<svg width="33" height="33" viewBox="0 0 33 33" fill="none" xmlns="http://www.w3.org/2000/svg">
<path d="M30.1159 18.3028C32.0314 14.6538 28.1379 12.1233 23.0474 10.8823C23.4304 10.0118 23.5414 8.87228 22.4614 7.78428C21.0764 6.39178 21.9969 4.36328 21.9969 4.36328C21.9969 4.36328 19.0899 7.04478 20.9254 8.89378C21.6024 9.57528 21.9549 10.1738 22.1234 10.6743C20.7181 10.3846 19.2952 10.1885 17.8639 10.0873C18.2914 8.92528 18.3329 7.46578 16.9859 6.06828C15.1419 4.15278 16.3699 1.36328 16.3699 1.36328C16.3699 1.36328 12.4934 5.05028 14.9409 7.59228C15.8344 8.51928 16.3049 9.33528 16.5329 10.0193C15.0159 9.97378 13.5559 10.0403 12.2589 10.2218C12.4134 9.47428 12.2844 8.61478 11.4599 7.78478C10.0749 6.39228 10.9959 4.36328 10.9959 4.36328C10.9959 4.36328 8.0884 7.04478 9.9244 8.89378C10.4994 9.47278 10.8364 9.98978 11.0299 10.4403C10.8109 10.4883 10.5984 10.5403 10.3939 10.5968C4.0729 10.0053 1.3159 11.3113 2.5754 13.8733C0.377402 16.0713 1.2034 18.5798 3.9539 20.4993C5.3889 26.4098 5.7584 31.3633 16.5664 31.3633C26.2104 31.3633 27.5429 27.4183 28.7374 22.3693C32.3214 21.6558 31.5579 19.9378 30.1159 18.3028ZM29.2224 17.7123C28.0219 20.2723 22.8119 22.1993 16.5664 22.1993C10.3214 22.1993 5.1114 20.2723 3.9104 17.7123C3.8849 17.6363 3.8604 17.5573 3.8359 17.4803C4.4079 16.0293 6.2669 14.7703 8.8779 13.9273C8.2644 14.5203 8.1369 15.4058 9.7514 15.7163C10.2134 15.8053 11.4819 15.4973 10.9274 13.9233C10.8499 13.7033 10.7234 13.5558 10.5679 13.4668C12.3619 13.0563 14.3984 12.8198 16.5664 12.8198C16.8094 12.8198 17.0479 12.8283 17.2874 12.8338C16.0364 13.2778 15.0159 14.6458 17.5704 15.0493C18.1344 15.1383 19.6829 14.8303 19.0059 13.2563C18.9468 13.116 18.852 12.9936 18.7309 12.9013C21.1244 13.0773 23.2929 13.5383 25.0459 14.2028C23.5044 14.1168 21.7944 15.0668 24.5329 16.4043C25.1204 16.6913 26.9054 16.9548 26.6599 15.2168C26.6421 15.0912 26.5978 14.9709 26.5299 14.8638C27.9314 15.6023 28.9089 16.4978 29.2964 17.4803L29.2224 17.7123Z" fill="#6AA64C"/>
<path d="M13.2363 18.7838C14.8528 18.7838 15.9308 17.3223 16.7753 16.7503C17.9553 15.9503 20.9223 15.6383 18.3093 15.5753C15.8308 15.5158 12.7708 17.5278 10.7258 17.3893C7.33978 17.1593 10.8078 18.7838 13.2363 18.7838ZM16.7293 21.7698C17.3003 21.8798 18.8698 21.4988 18.1833 19.5523C17.4078 17.3498 12.7133 20.9968 16.7293 21.7698ZM7.84128 16.9523C7.29578 16.1823 6.50478 15.2058 6.17728 15.7143C5.72978 16.4098 5.58878 17.8093 5.91378 17.8713C8.46178 18.3598 8.28328 17.5758 7.84128 16.9523ZM22.6538 17.2643C23.1133 16.6953 22.1958 15.3258 21.6068 15.5653C20.6848 15.9403 20.1533 15.6863 19.7483 16.2553C18.7998 17.5878 22.0293 18.0368 22.6538 17.2643ZM22.3668 18.8948C21.7058 18.6033 21.8618 19.5798 20.8853 18.7963C20.1863 18.2353 18.6823 19.6503 19.6743 20.6113C20.7783 21.6808 21.0723 20.6643 21.5363 20.7498C22.4793 20.9233 24.1008 19.6598 22.3668 18.8948ZM11.3758 19.2288C11.0313 18.8898 10.5693 19.2988 10.3083 19.7978C10.0498 19.6708 9.83928 19.6413 9.83928 19.6413C9.64178 19.0783 9.05428 18.6923 9.05428 18.6923C9.05428 18.6923 9.10778 19.2778 9.18528 19.5633C8.53628 19.3328 8.51628 18.1728 8.51628 18.1728C8.51628 18.1728 8.08078 18.4333 8.12028 18.8758C7.40578 18.2993 6.79728 18.5688 6.79728 18.5688C6.79728 18.5688 7.70378 19.0788 7.82878 19.4228C7.31978 19.4623 7.02278 19.6383 6.84978 20.0478C6.85028 20.0513 7.85578 19.5693 8.59978 19.9173C8.30628 20.1573 8.45228 20.7568 8.45228 20.7568C9.14478 20.0228 9.69778 20.1013 10.1403 20.2328C10.0868 20.4573 10.0903 20.6623 10.1853 20.7868C10.9528 21.7958 13.6263 21.5688 14.3443 20.8228C15.2138 19.9203 12.7978 20.6283 11.3758 19.2288Z" fill="#6AA64C"/>
<path d="M13.265 15.4283C13.0375 15.8853 13.036 16.2303 13.299 16.5893C13.3025 16.5903 13.405 15.4803 14.0855 15.0203C14.141 15.3953 14.73 15.5773 14.73 15.5773C14.259 13.9093 15.634 13.8223 15.6275 13.2238C14.8985 13.2853 14.4845 13.8153 14.4845 13.8153C13.9 13.6958 13.2665 14.0013 13.2665 14.0013C13.2665 14.0013 13.797 14.2558 14.0815 14.3363C13.5505 14.7748 12.5445 14.1963 12.5445 14.1963C12.5445 14.1963 12.5445 14.7043 12.9445 14.8968C12.083 15.2143 12.002 15.8743 12.002 15.8743C12.002 15.8743 12.905 15.3588 13.265 15.4283ZM26.0405 17.7063C26.2475 17.3133 25.9455 16.9048 25.9455 16.9048C25.9455 16.9048 25.481 17.9683 24.7935 17.9318C24.9745 17.6978 25.2495 17.1778 25.2495 17.1778C25.2495 17.1778 24.5585 17.3093 24.1595 17.7528C24.1595 17.7528 23.5115 17.5733 22.8895 17.9573C23.2405 18.4423 24.3975 17.6938 25.011 19.3148C25.011 19.3148 25.376 18.8183 25.1975 18.4838C26.0185 18.4483 26.7615 19.2793 26.764 19.2763C26.761 18.8313 26.555 18.5553 26.0995 18.3233C26.3475 18.0538 27.3805 17.9313 27.3805 17.9313C27.3805 17.9313 26.9225 17.4488 26.0405 17.7063Z" fill="#6AA64C"/>
</svg>
