<svg width="143" height="32" viewBox="0 0 143 32" fill="none" xmlns="http://www.w3.org/2000/svg">
<path d="M44.423 15.9463V20.0826H42.4927V9.03157C43.0367 9.03157 43.6278 9.02631 44.266 9.01579C44.9042 9.00526 45.4274 9 45.8354 9C48.4928 9 49.8216 10.1367 49.8216 12.41C49.8216 13.252 49.6071 13.9466 49.1781 14.4939C48.7492 15.0202 48.2574 15.378 47.7029 15.5674L51.1398 20.0826H48.8015L45.7726 15.9463H44.423ZM45.7412 10.8155C45.6889 10.8155 45.6052 10.8208 45.4901 10.8313C45.3751 10.8313 45.2129 10.8366 45.0036 10.8471H44.423V14.1308H45.6785C46.2957 14.1308 46.7979 13.9782 47.185 13.673C47.5826 13.3678 47.7814 12.952 47.7814 12.4258C47.7814 11.3523 47.1013 10.8155 45.7412 10.8155ZM57.2001 18.0934L57.718 19.3722C57.017 19.9615 56.1173 20.2562 55.0187 20.2562C53.8888 20.2562 52.9681 19.9142 52.2567 19.2301C51.5661 18.5565 51.2209 17.6566 51.2209 16.5305C51.2209 15.478 51.5609 14.5939 52.241 13.8782C52.921 13.1625 53.826 12.8047 54.9559 12.8047C55.8871 12.8047 56.677 13.1152 57.3257 13.7361C57.9743 14.3571 58.2987 15.1465 58.2987 16.1042C58.2987 16.5252 58.262 16.8515 58.1888 17.083H53.0893C53.1625 17.5987 53.3875 18.0039 53.7641 18.2986C54.1512 18.5933 54.6325 18.7407 55.2079 18.7407C55.9926 18.7407 56.657 18.5249 57.201 18.0934H57.2001ZM54.8775 14.3203C53.8522 14.3203 53.2349 14.836 53.0256 15.8674H56.4939C56.5044 15.4148 56.3579 15.0465 56.0545 14.7623C55.7615 14.4676 55.3692 14.3203 54.8775 14.3203ZM66.4863 23.24H64.6816V19.7195C64.1667 20.0683 63.5603 20.2552 62.9396 20.2562C61.8201 20.2562 60.9256 19.9194 60.256 19.2459C59.5969 18.5617 59.2673 17.6566 59.2673 16.5305C59.2673 15.4675 59.6492 14.5834 60.4129 13.8782C61.1871 13.1625 62.1549 12.8047 63.3162 12.8047C64.5299 12.8047 65.5866 13.0889 66.4863 13.6572V23.24ZM63.175 18.567C63.7818 18.567 64.284 18.3512 64.6816 17.9197V14.857C64.2108 14.6255 63.7504 14.5097 63.3005 14.5097C62.6519 14.5097 62.1392 14.7097 61.7626 15.1096C61.3859 15.499 61.1976 15.999 61.1976 16.6094C61.1976 17.1777 61.3755 17.6461 61.7312 18.0145C62.0974 18.3828 62.5786 18.567 63.175 18.567ZM73.0549 12.9784H74.8597V20.0826H73.0549V19.2143C72.49 19.9089 71.7367 20.2562 70.7951 20.2562C70.0418 20.2562 69.4402 20.0036 68.9903 19.4984C68.5404 18.9933 68.3155 18.2671 68.3155 17.3198V12.9784H70.1202V16.9409C70.1202 18.025 70.5701 18.567 71.4699 18.567C72.0872 18.567 72.6155 18.2776 73.0549 17.6987V12.9784ZM82.41 18.0934L82.9279 19.3722C82.2269 19.9615 81.3272 20.2562 80.2286 20.2562C79.0987 20.2562 78.178 19.9142 77.4666 19.2301C76.776 18.5565 76.4308 17.6566 76.4308 16.5305C76.4308 15.478 76.7708 14.5939 77.4509 13.8782C78.1309 13.1625 79.0359 12.8047 80.1658 12.8047C81.097 12.8047 81.8869 13.1152 82.5356 13.7361C83.1842 14.3571 83.5086 15.1465 83.5086 16.1042C83.5086 16.5252 83.4719 16.8515 83.3987 17.083H78.2983C78.3716 17.5987 78.5965 18.0039 78.9731 18.2986C79.3602 18.5933 79.8415 18.7407 80.4169 18.7407C81.2016 18.7407 81.866 18.5249 82.41 18.0934ZM80.0874 14.3203C79.0621 14.3203 78.4448 14.836 78.2355 15.8674H81.7038C81.7143 15.4148 81.5678 15.0465 81.2644 14.7623C80.9714 14.4676 80.5791 14.3203 80.0874 14.3203ZM84.7274 14.9675C84.7274 14.3045 84.9681 13.7782 85.4493 13.3888C85.9306 12.9994 86.5531 12.8047 87.3169 12.8047C88.4677 12.8047 89.3622 13.1047 90.0005 13.7046L89.3256 14.9991C88.7502 14.5465 88.112 14.3203 87.411 14.3203C87.1599 14.3203 86.9507 14.3834 86.7833 14.5097C86.6159 14.6255 86.5322 14.7676 86.5322 14.936C86.5322 15.2833 86.9768 15.5727 87.8661 15.8043C88.1905 15.8779 88.4782 15.9621 88.7293 16.0569C88.9804 16.141 89.2367 16.2673 89.4983 16.4357C89.7703 16.5936 89.9795 16.8041 90.126 17.0672C90.2725 17.3303 90.3457 17.6356 90.3457 17.9829C90.3457 18.6775 90.0842 19.2301 89.561 19.6405C89.0484 20.051 88.3579 20.2562 87.4895 20.2562C86.8722 20.2562 86.2706 20.1247 85.6847 19.8616C85.0884 19.5879 84.7065 19.3143 84.5391 19.0406L85.4179 17.8566C85.6167 18.0987 85.9463 18.3039 86.4066 18.4723C86.8774 18.6512 87.2802 18.7407 87.615 18.7407C88.0231 18.7828 88.3108 18.6512 88.4782 18.346C88.6456 18.0302 88.5357 17.7724 88.1486 17.5724C87.9917 17.4882 87.7458 17.3988 87.411 17.304C87.0867 17.2093 86.7833 17.1146 86.5008 17.0199C86.2104 16.9061 85.9274 16.7743 85.6533 16.6252C85.3761 16.4724 85.1435 16.2492 84.9785 15.9779C84.8111 15.6937 84.7274 15.357 84.7274 14.9675ZM91.779 17.383V11.005H93.5838V12.9784H95.8594V14.6834H93.5838V17.2725C93.5838 18.125 93.8663 18.5512 94.4313 18.5512C94.787 18.5512 95.1479 18.4144 95.5141 18.1408L96.0634 19.5458C95.488 20.0089 94.7922 20.2404 93.9761 20.2404C93.2124 20.2404 92.6527 20.0089 92.2969 19.5458C91.9517 19.0722 91.779 18.3512 91.779 17.383ZM101.695 20.0826H101.561V9.64552H101.724C102.15 9.64552 102.545 9.64026 102.91 9.63061C103.345 9.6171 103.78 9.60716 104.214 9.60079C105.213 9.60079 106.092 9.74024 106.853 10.0183C107.623 10.2867 108.236 10.6647 108.691 11.1514C109.137 11.6152 109.481 12.1692 109.698 12.7766C109.926 13.373 110.039 14.0194 110.039 14.7149C110.039 16.2849 109.521 17.5777 108.483 18.5916C107.456 19.6054 105.993 20.1124 104.096 20.1124C103.671 20.1124 103.281 20.1071 102.925 20.0975C102.515 20.0869 102.105 20.0819 101.695 20.0826ZM104.185 10.3761C103.968 10.3761 103.647 10.3858 103.221 10.4059C102.806 10.4156 102.525 10.4208 102.377 10.4208V19.3072C102.703 19.3072 103.01 19.3125 103.295 19.3222C103.582 19.3222 103.79 19.3274 103.918 19.3371H104.125C105.737 19.3371 106.982 18.9099 107.861 18.0548C108.74 17.19 109.18 16.077 109.18 14.7149C109.18 13.4327 108.76 12.389 107.92 11.5838C107.071 10.7787 105.826 10.3761 104.185 10.3761ZM117.22 18.6661L117.472 19.2625C116.869 19.8984 116.049 20.2168 115.012 20.2168C113.944 20.2168 113.089 19.8984 112.447 19.2625C111.795 18.6266 111.469 17.7812 111.469 16.7278C111.469 15.7139 111.766 14.879 112.358 14.2229C112.961 13.5669 113.791 13.2388 114.849 13.2388C115.708 13.2388 116.429 13.5169 117.012 14.0738C117.585 14.6202 117.872 15.3508 117.872 16.2656C117.872 16.5042 117.857 16.7129 117.828 16.8918H112.329C112.358 17.697 112.62 18.3328 113.114 18.8003C113.608 19.2573 114.256 19.4862 115.056 19.4862C115.985 19.4862 116.706 19.2125 117.22 18.6661ZM114.774 13.9694C114.063 13.9694 113.485 14.1782 113.04 14.5957C112.605 15.0131 112.353 15.5648 112.284 16.2507H117.087C117.076 15.5446 116.864 14.9877 116.449 14.5808C116.034 14.1729 115.475 13.9694 114.774 13.9694ZM123.17 18.3232C123.17 18.0153 123.041 17.7662 122.784 17.5777C122.507 17.3742 122.196 17.2227 121.865 17.1304C121.51 17.0207 121.149 16.9023 120.783 16.7725C120.425 16.6386 120.104 16.4185 119.85 16.1314C119.602 15.8332 119.479 15.4604 119.479 15.0131C119.479 14.4764 119.676 14.0484 120.072 13.7309C120.467 13.4029 120.986 13.2388 121.628 13.2388C122.547 13.2388 123.244 13.4871 123.718 13.9844L123.392 14.5658C122.937 14.1387 122.354 13.9247 121.643 13.9247C121.247 13.9247 120.921 14.0291 120.665 14.2378C120.548 14.326 120.453 14.441 120.388 14.5732C120.324 14.7054 120.292 14.851 120.294 14.9982C120.294 15.3166 120.417 15.5797 120.665 15.7885C120.921 15.9876 121.228 16.1463 121.584 16.2656C121.949 16.3752 122.314 16.4936 122.68 16.6234C123.046 16.7524 123.352 16.9567 123.599 17.2347C123.856 17.5128 123.985 17.8662 123.985 18.2934C123.985 18.8994 123.757 19.3722 123.303 19.7098C122.858 20.0475 122.285 20.2168 121.584 20.2168C121.149 20.2168 120.694 20.1177 120.22 19.9186C119.775 19.73 119.469 19.5063 119.301 19.2476L119.731 18.7407C119.918 18.9687 120.2 19.1581 120.576 19.3072C120.961 19.4563 121.326 19.5309 121.673 19.5309C122.107 19.5309 122.462 19.4265 122.74 19.2178C123.026 18.9985 123.17 18.7003 123.17 18.3232ZM127.052 20.0826H126.281V13.373H127.052V20.0826ZM126.148 10.7638C126.145 10.6955 126.159 10.6275 126.187 10.5654C126.216 10.5033 126.258 10.4487 126.311 10.4059C126.419 10.3166 126.556 10.269 126.696 10.2717C126.824 10.2717 126.939 10.3217 127.037 10.4208C127.089 10.4612 127.131 10.5133 127.159 10.5728C127.187 10.6324 127.202 10.6978 127.2 10.7638C127.204 10.8375 127.193 10.9112 127.167 10.9804C127.142 11.0496 127.103 11.1128 127.052 11.1663C127.007 11.2159 126.952 11.2549 126.891 11.2806C126.829 11.3064 126.763 11.3183 126.696 11.3154C126.549 11.3193 126.405 11.2659 126.296 11.1663C126.246 11.1128 126.206 11.0496 126.181 10.9804C126.155 10.9112 126.144 10.8375 126.148 10.7638ZM128.812 21.0666C128.812 20.5597 128.99 20.1326 129.346 19.7844C129.702 19.4362 130.206 19.1932 130.858 19.0538C130.709 18.874 130.63 18.6463 130.635 18.4126C130.635 18.1644 130.719 17.9408 130.887 17.7417C130.47 17.5674 130.114 17.2714 129.865 16.8918C129.616 16.5113 129.487 16.0646 129.494 15.6095C129.494 14.9237 129.736 14.3571 130.22 13.9098C130.704 13.4625 131.342 13.2388 132.132 13.2388C132.764 13.2388 133.322 13.4081 133.807 13.7458H133.822L135.719 13.2388V13.9694L134.37 14.3124C134.637 14.7202 134.771 15.1526 134.771 15.6095C134.771 16.2761 134.523 16.8418 134.029 17.3093C133.535 17.7566 132.903 17.9803 132.132 17.9803C131.855 17.9803 131.633 17.9601 131.465 17.9206C131.372 18.0669 131.325 18.2387 131.332 18.4126C131.332 18.6407 131.396 18.8205 131.525 18.9494C131.9 18.9292 132.107 18.9196 132.147 18.9196C133.165 18.9196 133.975 19.1082 134.578 19.4862C135.18 19.8633 135.482 20.3904 135.482 21.0666C135.482 21.7332 135.18 22.2498 134.578 22.6173C133.975 22.9944 133.165 23.1839 132.147 23.1839C131.119 23.1839 130.304 22.9997 129.702 22.6322C129.109 22.2638 128.812 21.7429 128.812 21.0666ZM129.598 21.0666C129.598 21.5043 129.824 21.8472 130.28 22.0954C130.743 22.3542 131.366 22.4831 132.147 22.4831C132.918 22.4831 133.535 22.3542 134 22.0954C134.464 21.8367 134.696 21.4938 134.696 21.0666C134.696 20.629 134.464 20.2817 134 20.0229C133.545 19.7545 132.927 19.6204 132.147 19.6204C131.376 19.6204 130.758 19.7493 130.294 20.008C129.83 20.2668 129.598 20.6193 129.598 21.0666ZM130.798 14.4167C130.631 14.5657 130.498 14.7496 130.408 14.9556C130.319 15.1616 130.275 15.3848 130.28 15.6095C130.28 16.0867 130.452 16.484 130.798 16.8024C131.144 17.1207 131.588 17.2795 132.132 17.2795C132.675 17.2795 133.12 17.1207 133.466 16.8024C133.812 16.484 133.985 16.0867 133.985 15.6095C133.985 15.1324 133.807 14.7351 133.451 14.4167C133.105 14.0984 132.666 13.9396 132.132 13.9396C131.608 13.9396 131.164 14.0984 130.798 14.4167ZM137.812 20.0826H137.042V13.373H137.812V14.3124C138.089 14.0045 138.445 13.7511 138.88 13.552C139.298 13.3589 139.753 13.2573 140.214 13.2538C141.142 13.2538 141.839 13.4976 142.303 13.9844C142.767 14.4711 143 15.2271 143 16.2507V20.0826H142.229V16.3998C142.229 14.7895 141.498 13.9844 140.036 13.9844C139.61 13.9844 139.195 14.0835 138.791 14.2826C138.414 14.4495 138.08 14.6991 137.812 15.0131V20.0826Z" fill="#240403"/>
<path d="M13.7283 2.1898L2.17679 13.8102C0.974583 15.0196 0.974583 16.9804 2.17679 18.1898L13.7283 29.8102C14.9305 31.0196 16.8797 31.0196 18.0819 29.8102L29.6334 18.1898C30.8356 16.9804 30.8356 15.0196 29.6334 13.8102L18.0819 2.1898C16.8797 0.980414 14.9305 0.980414 13.7283 2.1898Z" fill="#240403"/>
<path d="M15.9414 25.1629C20.9722 25.1629 25.0505 21.0603 25.0505 15.9994C25.0505 10.9386 20.9722 6.83594 15.9414 6.83594C10.9106 6.83594 6.83228 10.9386 6.83228 15.9994C6.83228 21.0603 10.9106 25.1629 15.9414 25.1629Z" fill="white"/>
<path d="M18.6363 10.2734H13.326C11.6258 10.2734 10.2476 11.6599 10.2476 13.3703V18.7123C10.2476 20.4226 11.6258 21.8091 13.326 21.8091H18.6363C20.3365 21.8091 21.7148 20.4226 21.7148 18.7123V13.3703C21.7148 11.6599 20.3365 10.2734 18.6363 10.2734Z" fill="#240403"/>
<path d="M15.9252 19.9778C18.1173 19.9778 19.8943 18.1902 19.8943 15.985C19.8943 13.7798 18.1173 11.9922 15.9252 11.9922C13.7331 11.9922 11.9561 13.7798 11.9561 15.985C11.9561 18.1902 13.7331 19.9778 15.9252 19.9778Z" fill="white"/>
<path d="M15.3269 14.9L14.959 15.2701C14.5583 15.6732 14.5583 16.3268 14.959 16.7299L15.3269 17.1C15.7276 17.5031 16.3773 17.5031 16.7781 17.1L17.1459 16.7299C17.5467 16.3268 17.5467 15.6732 17.1459 15.2701L16.7781 14.9C16.3773 14.4969 15.7276 14.4969 15.3269 14.9Z" fill="#240403"/>
</svg>
