<svg width="37" height="41" fill="none" xmlns="http://www.w3.org/2000/svg"><path d="m20.384 0 10.723 9.564-12.655 4.734-4.637-4.924L20.384 0Zm-7.149 9.185L19.031.758 6.086 9.848l7.149-.663Zm.58 31.152-.58-30.205L0 20.737l13.815 19.6ZM.483 19.6l11.98-9.752-7.053.662L.483 19.6Zm17.486-4.829-4.154-4.45.483 27.838 3.67-23.388Zm12.558 5.682-12.075-5.398L14.587 41l15.747-2.462.193-18.085Zm-11.303-5.871 11.303 5.113L37 12.215l-5.41-2.083-12.366 4.45Zm11.883 5.681L37 13.067l-3.381 20.642-2.512 3.977V20.263Z" fill="#000"/></svg>