<svg width="24" height="24" fill="none" xmlns="http://www.w3.org/2000/svg"><path d="M11.5 6.927a1.87 1.87 0 1 0 0 3.736 1.87 1.87 0 1 0 0-3.736ZM19 2H4C2.345 2 1 3.345 1 5v15c0 1.655 1.345 3 3 3h15c1.655 0 3-1.345 3-3V5c0-1.655-1.345-3-3-3Zm-7.5 2.995a3.8 3.8 0 1 1 0 7.6 3.8 3.8 0 0 1 0-7.6Zm2.78 7.89c.787-.62 1.383-.258 1.598.168.366.75-.051 1.111-1.008 1.734-.801.511-1.907.713-2.634.788l.61.605 2.235 2.236c.816.839-.515 2.146-1.34 1.34a462.17 462.17 0 0 0-2.236-2.245l-2.236 2.245c-.83.806-2.157-.515-1.332-1.34l.586-.586c.488-.488 1.06-1.064 1.65-1.65l.605-.605c-.722-.075-1.842-.267-2.653-.787-.952-.624-1.373-.98-1.003-1.735.216-.426.81-.787 1.598-.169 0 0 1.064.844 2.78.844 1.716 0 2.78-.844 2.78-.844Z" fill="#393C43"/></svg>