<svg width="26" height="18" fill="none" xmlns="http://www.w3.org/2000/svg"><path d="M13.04.417c-3.495 0-6.294 1.416-8.331 3.103C2.685 5.191 1.33 7.193.69 8.568a1.101 1.101 0 0 0 0 .947c.64 1.375 1.994 3.377 4.018 5.048 2.037 1.687 4.836 3.103 8.33 3.103 3.496 0 6.294-1.416 8.332-3.103 2.024-1.675 3.378-3.673 4.022-5.048a1.101 1.101 0 0 0 0-.947C24.75 7.193 23.395 5.19 21.37 3.52 19.334 1.833 16.535.417 13.04.417ZM6.81 9.04c0-1.47.656-2.88 1.824-3.92 1.168-1.04 2.753-1.624 4.405-1.624 1.652 0 3.236.584 4.404 1.624 1.168 1.04 1.824 2.45 1.824 3.92 0 1.471-.656 2.881-1.824 3.921-1.168 1.04-2.752 1.624-4.404 1.624-1.652 0-3.237-.584-4.405-1.624-1.168-1.04-1.824-2.45-1.824-3.92Zm6.229-2.464c0 1.36-1.242 2.464-2.769 2.464-.307 0-.6-.046-.878-.127-.238-.069-.514.062-.506.285.013.266.056.532.139.797.592 1.972 2.872 3.142 5.086 2.615 2.215-.528 3.53-2.557 2.937-4.528-.48-1.598-2.067-2.672-3.832-2.738a.33.33 0 0 0-.32.45c.09.247.143.509.143.782Z" fill="#fff"/></svg>