<svg width="24" height="25" fill="none" xmlns="http://www.w3.org/2000/svg"><g clip-path="url(#a)"><path fill-rule="evenodd" clip-rule="evenodd" d="M23 12.5c0 6.075-4.925 11-11 11s-11-4.925-11-11 4.925-11 11-11 11 4.925 11 11ZM12.394 9.62a548.68 548.68 0 0 0-6.415 2.764c-.52.207-.793.41-.818.608-.042.334.377.466.948.646l.24.076c.562.183 1.318.396 1.71.405.357.008.754-.14 1.193-.44 2.997-2.023 4.543-3.046 4.64-3.068.069-.015.164-.035.228.022.064.058.058.166.051.195-.041.177-1.687 1.707-2.538 2.499-.266.246-.454.421-.493.462a9.51 9.51 0 0 1-.258.255c-.522.503-.913.88.021 1.496.45.296.809.541 1.167.785.392.267.783.533 1.288.864.129.085.252.172.372.258.455.325.865.617 1.37.57.295-.027.598-.303.752-1.128.365-1.948 1.081-6.169 1.247-7.908a1.937 1.937 0 0 0-.019-.433.463.463 0 0 0-.156-.298c-.132-.107-.335-.13-.427-.128-.413.007-1.048.228-4.103 1.499Z" fill="#787B83"/></g><defs><clipPath id="a"><path fill="#fff" transform="translate(1 1.5)" d="M0 0h22v22H0z"/></clipPath></defs></svg>