<svg width="24" height="24" fill="none" xmlns="http://www.w3.org/2000/svg"><g clip-path="url(#a)"><path d="M18.074 4.29A4.885 4.885 0 0 1 16.789 1h-3.744v14.467a2.974 2.974 0 0 1-.957 2.068 3.206 3.206 0 0 1-2.181.848c-1.72 0-3.15-1.353-3.15-3.033 0-2.007 2.01-3.512 4.083-2.893V8.77C6.66 8.233 3 11.36 3 15.35 3 19.235 6.344 22 9.895 22c3.805 0 6.895-2.975 6.895-6.65V8.012A9.143 9.143 0 0 0 22 9.622V6.017s-2.278.105-3.926-1.727Z" fill="#393C43"/></g><defs><clipPath id="a"><path fill="#fff" d="M0 0h24v24H0z"/></clipPath></defs></svg>