<svg width="24" height="25" fill="none" xmlns="http://www.w3.org/2000/svg"><g clip-path="url(#a)"><path fill-rule="evenodd" clip-rule="evenodd" d="M17.263 2.093c-3.387-.79-6.9-.79-10.287 0l-.365.084a5.219 5.219 0 0 0-2.529 1.426 5.57 5.57 0 0 0-1.438 2.596 22.792 22.792 0 0 0 0 10.76c.23.941.693 1.803 1.344 2.497a5.24 5.24 0 0 0 2.364 1.457l.5 3.119a.583.583 0 0 0 .12.268.538.538 0 0 0 .233.168.517.517 0 0 0 .537-.11l2.94-2.745a22.66 22.66 0 0 0 6.581-.547l.366-.085a5.218 5.218 0 0 0 2.529-1.426 5.57 5.57 0 0 0 1.438-2.596c.859-3.53.859-7.229 0-10.759a5.57 5.57 0 0 0-1.439-2.596 5.219 5.219 0 0 0-2.529-1.426l-.365-.085ZM7.884 6.108a.854.854 0 0 0-.578.119h-.015a4.469 4.469 0 0 0-1.078.925c-.258.31-.398.625-.435.929-.021.18-.006.361.044.533l.02.012c.29.89.67 1.748 1.132 2.554a15.014 15.014 0 0 0 2.186 3.118l.026.038.04.031.026.03.03.028c.9.894 1.907 1.664 2.995 2.292 1.244.706 1.999 1.04 2.452 1.18v.006c.132.043.253.062.375.062.386-.03.751-.194 1.038-.465.35-.324.646-.705.876-1.128v-.008c.216-.427.143-.83-.17-1.102a13.086 13.086 0 0 0-2.024-1.517c-.483-.273-.973-.108-1.17.169l-.424.557c-.217.276-.612.238-.612.238l-.01.007c-2.94-.783-3.726-3.89-3.726-3.89s-.036-.422.236-.638l.53-.445c.254-.215.43-.725.158-1.229a13.27 13.27 0 0 0-1.45-2.112.8.8 0 0 0-.474-.295h.002Zm4.968-1.35a.525.525 0 0 0-.38.164.575.575 0 0 0 0 .794.527.527 0 0 0 .38.165c1.362 0 2.493.464 3.387 1.354a4.98 4.98 0 0 1 1.053 1.694c.236.632.344 1.308.316 1.984a.584.584 0 0 0 .142.404.526.526 0 0 0 .761.033.573.573 0 0 0 .174-.39 6.257 6.257 0 0 0-.389-2.438A6.146 6.146 0 0 0 17 6.44l-.011-.011c-1.11-1.107-2.515-1.67-4.137-1.67Zm-.036 1.846a.53.53 0 0 0-.381.165.575.575 0 0 0 0 .794.527.527 0 0 0 .38.165h.019c.982.073 1.697.414 2.197.975.514.577.78 1.295.76 2.183a.576.576 0 0 0 .148.4c.1.109.235.171.378.175a.527.527 0 0 0 .384-.156.574.574 0 0 0 .166-.393c.026-1.165-.334-2.17-1.046-2.973v-.002c-.73-.816-1.73-1.247-2.933-1.331l-.019-.003-.053.001Zm-.02 1.882a.517.517 0 0 0-.401.136.56.56 0 0 0-.185.395.585.585 0 0 0 .144.412.54.54 0 0 0 .385.178c.45.025.738.167.919.357.181.19.317.497.342.977a.582.582 0 0 0 .171.4.534.534 0 0 0 .396.15.522.522 0 0 0 .378-.192.57.57 0 0 0 .13-.418c-.035-.674-.237-1.27-.652-1.707-.417-.438-.984-.652-1.628-.688Z" fill="#787B83"/></g><defs><clipPath id="a"><path fill="#fff" transform="translate(0 .5)" d="M0 0h24v24H0z"/></clipPath></defs></svg>