<svg width="24" height="24" fill="none" xmlns="http://www.w3.org/2000/svg"><g clip-path="url(#a)"><path d="M24.741 5.946s-.254-1.793-1.036-2.58c-.99-1.036-2.097-1.041-2.605-1.102C17.464 2 12.005 2 12.005 2h-.01s-5.46 0-9.095.264c-.508.061-1.615.066-2.605 1.102-.782.787-1.03 2.58-1.03 2.58S-1 8.053-1 10.156v1.97c0 2.102.259 4.21.259 4.21s.254 1.792 1.03 2.58c.991 1.035 2.291 1 2.87 1.111 2.082.198 8.841.26 8.841.26s5.464-.01 9.1-.27c.508-.06 1.615-.066 2.605-1.102.782-.787 1.036-2.58 1.036-2.58s.259-2.102.259-4.21v-1.97c0-2.102-.259-4.21-.259-4.21ZM9.314 14.518V7.21l7.023 3.667-7.023 3.64Z" fill="#393C43"/></g><defs><clipPath id="a"><path fill="#fff" d="M0 0h24v24H0z"/></clipPath></defs></svg>