<svg width="75" height="23" viewBox="0 0 75 23" fill="none" xmlns="http://www.w3.org/2000/svg">
<path d="M5.8 16.15C5.84 17.05 6.3 17.5 7.18 17.5H14.14L14.62 21.76C12.86 21.98 9.76 22.09 5.32 22.09C3.82 22.09 2.6 21.65 1.66 20.77C0.72 19.89 0.25 18.73 0.25 17.29V1.3H5.89L5.8 16.15ZM24.2603 0.879998C27.6403 0.879998 30.0603 1.65 31.5203 3.19C33.1203 4.87 33.9303 7.76 33.9503 11.86C33.9703 15.96 33.2903 18.77 31.9103 20.29C30.6503 21.71 28.3803 22.42 25.1003 22.42C21.6403 22.42 19.2003 21.64 17.7803 20.08C16.2803 18.46 15.5203 15.58 15.5003 11.44C15.4803 7.38 16.1403 4.59 17.4803 3.07C18.7403 1.61 21.0003 0.879998 24.2603 0.879998ZM24.7703 5.2C23.4503 5.2 22.5703 5.63 22.1303 6.49C21.7103 7.37 21.4803 9.16 21.4403 11.86C21.4203 14.36 21.6203 16.03 22.0403 16.87C22.4803 17.69 23.3403 18.1 24.6203 18.1C25.9603 18.1 26.8503 17.66 27.2903 16.78C27.7103 15.92 27.9403 14.14 27.9803 11.44C28.0003 8.92 27.7903 7.24 27.3503 6.4C26.9103 5.6 26.0503 5.2 24.7703 5.2ZM53.4925 10.06V22H49.3825L48.8425 19.54C47.2625 21.46 45.3525 22.42 43.1125 22.42C38.5925 22.42 36.3125 18.76 36.2725 11.44C36.2525 7.28 37.0025 4.44 38.5225 2.92C39.8625 1.56 42.2825 0.879998 45.7825 0.879998C48.2825 0.879998 50.5325 1.16 52.5325 1.72L52.4425 5.77C50.3025 5.71 48.2325 5.68 46.2325 5.68C44.6325 5.68 43.5625 6.09 43.0225 6.91C42.4625 7.75 42.1825 9.4 42.1825 11.86C42.2025 14.14 42.3925 15.66 42.7525 16.42C43.1325 17.2 43.8725 17.59 44.9725 17.59C46.0525 17.59 47.1025 17.11 48.1225 16.15V10.06H53.4925ZM64.7486 0.879998C68.1286 0.879998 70.5486 1.65 72.0086 3.19C73.6086 4.87 74.4186 7.76 74.4386 11.86C74.4586 15.96 73.7786 18.77 72.3986 20.29C71.1386 21.71 68.8686 22.42 65.5886 22.42C62.1286 22.42 59.6886 21.64 58.2686 20.08C56.7686 18.46 56.0086 15.58 55.9886 11.44C55.9686 7.38 56.6286 4.59 57.9686 3.07C59.2286 1.61 61.4886 0.879998 64.7486 0.879998ZM65.2586 5.2C63.9386 5.2 63.0586 5.63 62.6186 6.49C62.1986 7.37 61.9686 9.16 61.9286 11.86C61.9086 14.36 62.1086 16.03 62.5286 16.87C62.9686 17.69 63.8286 18.1 65.1086 18.1C66.4486 18.1 67.3386 17.66 67.7786 16.78C68.1986 15.92 68.4286 14.14 68.4686 11.44C68.4886 8.92 68.2786 7.24 67.8386 6.4C67.3986 5.6 66.5386 5.2 65.2586 5.2Z" fill="#2E574D"/>
</svg>
