<svg width="78" height="36" viewBox="0 0 78 36" fill="none" xmlns="http://www.w3.org/2000/svg">
<path d="M7.8 24.15C7.84 25.05 8.3 25.5 9.18 25.5H16.14L16.62 29.76C14.86 29.98 11.76 30.09 7.32 30.09C5.82 30.09 4.6 29.65 3.66 28.77C2.72 27.89 2.25 26.73 2.25 25.29V9.3H7.89L7.8 24.15ZM26.2603 8.88C29.6403 8.88 32.0603 9.65 33.5203 11.19C35.1203 12.87 35.9303 15.76 35.9503 19.86C35.9703 23.96 35.2903 26.77 33.9103 28.29C32.6503 29.71 30.3803 30.42 27.1003 30.42C23.6403 30.42 21.2003 29.64 19.7803 28.08C18.2803 26.46 17.5203 23.58 17.5003 19.44C17.4803 15.38 18.1403 12.59 19.4803 11.07C20.7403 9.61 23.0003 8.88 26.2603 8.88ZM26.7703 13.2C25.4503 13.2 24.5703 13.63 24.1303 14.49C23.7103 15.37 23.4803 17.16 23.4403 19.86C23.4203 22.36 23.6203 24.03 24.0403 24.87C24.4803 25.69 25.3403 26.1 26.6203 26.1C27.9603 26.1 28.8503 25.66 29.2903 24.78C29.7103 23.92 29.9403 22.14 29.9803 19.44C30.0003 16.92 29.7903 15.24 29.3503 14.4C28.9103 13.6 28.0503 13.2 26.7703 13.2ZM55.4925 18.06V30H51.3825L50.8425 27.54C49.2625 29.46 47.3525 30.42 45.1125 30.42C40.5925 30.42 38.3125 26.76 38.2725 19.44C38.2525 15.28 39.0025 12.44 40.5225 10.92C41.8625 9.56 44.2825 8.88 47.7825 8.88C50.2825 8.88 52.5325 9.16 54.5325 9.72L54.4425 13.77C52.3025 13.71 50.2325 13.68 48.2325 13.68C46.6325 13.68 45.5625 14.09 45.0225 14.91C44.4625 15.75 44.1825 17.4 44.1825 19.86C44.2025 22.14 44.3925 23.66 44.7525 24.42C45.1325 25.2 45.8725 25.59 46.9725 25.59C48.0525 25.59 49.1025 25.11 50.1225 24.15V18.06H55.4925ZM66.7486 8.88C70.1286 8.88 72.5486 9.65 74.0086 11.19C75.6086 12.87 76.4186 15.76 76.4386 19.86C76.4586 23.96 75.7786 26.77 74.3986 28.29C73.1386 29.71 70.8686 30.42 67.5886 30.42C64.1286 30.42 61.6886 29.64 60.2686 28.08C58.7686 26.46 58.0086 23.58 57.9886 19.44C57.9686 15.38 58.6286 12.59 59.9686 11.07C61.2286 9.61 63.4886 8.88 66.7486 8.88ZM67.2586 13.2C65.9386 13.2 65.0586 13.63 64.6186 14.49C64.1986 15.37 63.9686 17.16 63.9286 19.86C63.9086 22.36 64.1086 24.03 64.5286 24.87C64.9686 25.69 65.8286 26.1 67.1086 26.1C68.4486 26.1 69.3386 25.66 69.7786 24.78C70.1986 23.92 70.4286 22.14 70.4686 19.44C70.4886 16.92 70.2786 15.24 69.8386 14.4C69.3986 13.6 68.5386 13.2 67.2586 13.2Z" fill="#D3FCA0"/>
</svg>
