<svg width="101" height="100" fill="none" xmlns="http://www.w3.org/2000/svg"><g clip-path="url(#a)" fill="#427AA1"><path d="M76.537 10.017h.05c.727-.012 1.43.682.888 1.388-.417.543-1.074.992-1.562 1.487l-3.645 3.672c-.928.906-1.907 1.772-2.764 2.746l5.95 6.034c.859.944-.243 2.057-1.192 1.3-1.484-1.182-2.895-3.106-4.462-4.448l-3.89 3.628 2.299 2.352c.437.417 1.22.785 1.278 1.463.062.743-.696 1.297-1.318.842-.58-.423-1.104-1.032-1.624-1.532L62.6 25.035l-4.892-5.163c-.449-.498-1.02-1.013-1.385-1.573-.584-.897.325-2.276 1.75-.646l3.604 3.699 3.83-3.631-3.952-4.049c-1.283-1.286.19-2.089.847-1.634.248.172.457.427.663.646l.955 1.005c1.373 1.419 2.737 2.896 4.234 4.184l6.36-6.122c.605-.6 1.156-1.343 1.922-1.733Zm-9.826 8.967-3.866 3.606 1.945 1.898 3.805-3.655c-.55-.677-1.216-1.29-1.884-1.85ZM75.634 83.5l-7.176.013c-2.058.015-3.713-.993-3.774-3.28l.002-24.272c-.012-2.06.162-2.117 2.222-2.103v-4.019c0-1.644-.4-3.022 2.001-2.529l.046-2.228c.001-1.194-.043-2.154.61-3.212 1.785-2.897 6.517-2.157 7.265 1.204.1.45.044.985.044 1.448l-.006 2.735c2.327-.17 1.916.746 1.91 2.491l.016 4.168c2.272-.23 2.28.165 2.281 2.081l-.001 17.854.005 4.535c0 .957.17 2.073-.19 2.986l-.031.082c-.894 2.269-3.219 2.065-5.224 2.046Zm-.543-1.806 2.678-.038c.521-.056.903-.235 1.23-.652l.05-.065c.436-.549.227-2.906.228-3.649l.004-5.771v-9.584l-12.805-.022.026 14.483 4.872.025c.846.001 1.672-.133 1.627 1.041-.037.968-.986.81-1.672.81l-4.65.006c-.429 0-.663 3.326 1.262 3.41l7.15.005Zm-8.61-26.022-.013 4.384 12.814.04.01-4.41-12.81-.014Zm2.199-6.531.008 4.71 7.501.005c.265 0 .566.03.827-.072l.022-4.656-8.358.013Zm3.932-7.332c-1.777.35-1.891 1.455-1.887 3.005l.022 2.463 2.53.014h1.73l.014-2.433c.003-.528.072-1.127-.072-1.64-.267-.948-1.394-1.567-2.337-1.409Z"/><path d="m70.388 71.75 3.582.01c.55-.004 1.16-.078 1.7-.002 1.23.172 1.087 1.691-.208 1.79l-3.795.012c-.58.001-1.237.06-1.808-.026-.843-.127-1.27-1.721.53-1.785Zm-.986-6.719c.194-.068.403-.03.598-.031l1.662-.001c.602.008.611 1.495.166 1.933-.39.111-.812.029-1.205.03h-.724c-.253 0-.562.096-.719-.554-.117-.485.048-1.156.222-1.377ZM74.28 76.57c.193-.068.402-.031.597-.031l1.662-.002c.603.01.554 1.258.109 1.697-.39.11-.812.028-1.206.03h-.723c-.253 0-.562.096-.72-.554-.116-.485.106-.919.28-1.14Zm-.167-11.47c.194-.069.403-.032.598-.032l1.662-.002c.603.01.611 1.496.166 1.934-.39.111-.812.029-1.205.03h-.723c-.254 0-.563.096-.72-.554-.117-.485.048-1.156.222-1.377ZM56.567 21.314c.878-.046 1.89 1.398 2.435 1.95l4.082 4.095c.34.328.69.637.978 1.012-.582.669-1.291 1.246-1.941 1.848l-2.36 2.363c-.273.294-.366.246-.28.621.335 1.442-1.765 2.64-2.788 3.653l-6.842 6.852c-.601.606-.88 1.008-1.384 1.601l3.277.016c2.881.019 2.16.656 2.157 3.301l-.012 5.427c.08.068.146.123.245.16 1.996.75 2.785 3.026 2.792 4.985l.007 19.87c-.01 3.881-1.405 4.426-5.162 4.43h-8.577c-1.074 0-2.239.209-3.229-.273-1.346-.656-1.937-1.798-1.995-3.225l.028-21.47c.108-1.88 1.009-3.713 2.838-4.472.272-.113.235-.15.232-.413l-.007-7.433c.017-1.114 1.326-1.033 2.1-1.036l2.178-.007c.394-.003 1.524-.102 1.41-.753-.023-.124-.555-.573-.658-.673l-1.804-1.849c-.548-.616-1.195-1.32-1.481-2.102.136-.275.617-.642.897-.75.488.072 3.776 3.538 4.243 4.097l1.655-1.764-1.148-1.129c-.666-.708-1.016-1.121-1.473-1.989.295-.373.553-.613.966-.851.677.387.934.687 1.49 1.225l1.585 1.615c.513-.447.95-.985 1.39-1.501l-1.859-2.101c-.51-.575-1.18-1.193-1.543-1.87.187-.439.636-.739 1.021-.988.744.524 3.117 2.886 3.665 3.62l1.429-1.4L52.412 33c1.148-2.093 2.158-.193 3.301 1.012.505.531.334.2.805.764l1.032-.997-2.779-2.772c-.604-.562-1.3-1.218-2.087-1.507-.516.282-.941.661-1.373 1.055-.992.861-1.886 1.828-2.808 2.762l-5.715 5.808-16.274 16.15c-1.376 1.353-3.884 2.972-2.42 4.963 2.641 3.587 3.584 2.2 5.758-.01l6.983-7.174c.398-.421.92-1.242 1.605-1.1.81.168.984.995.474 1.548l-9.312 9.448c-.947.893-2.221 1.688-3.587 1.24l-.046-.017c-.075.046-.066.034-.114.081l-1.848 1.721c-1.809 1.735-2.828 3.065-5.291 1.52-.305.426-.678.78-1.047 1.15l-6.53 6.448c-.553.533-1.115 1.24-1.748 1.664-.958-.065-1.506-.705-.815-1.459l7.79-7.826c.428-.404.87-.8 1.347-1.146-.186-.479-.3-1.061-.192-1.572l.012-.057c.217-1.13 1.206-1.92 1.993-2.688l1.63-1.578c.231-.219.597-.479.78-.73.159-.218-.242-1.971.812-3.172.91-1.038 2-1.98 2.98-2.957l23.827-23.826c1.703-1.685 2.502-2.647 5.003-1.454l3.596-3.581c-.743-.675-3.22-2.788-1.587-3.397ZM50.313 52.48l-7.544.028.01 1.488c.004 2.216-2.867 1.341-3.026 4.454l-.013 18.682c0 1.649-.68 4.478 1.57 4.564l10.992.004c2.102.018 3.337-.229 2.765-2.9l-7.538-.022c-.565.02-1.117.109-1.545-.358-.347-.378-.085-1.07.26-1.353.19-.157.514-.08.745-.08l6.673.012 1.026-.003c.164-.001.346.022.501-.035l.025-1.246-5.03.016c-.774.001-1.643.083-2.408-.014-.895-.113-.797-1.614.136-1.722l7.233-.023.034-2.922-3.58.012c-.538.001-1.171.066-1.7-.02-.971-.159-1.023-1.617-.007-1.753 1.107-.148 4.125-.046 5.246.019l.004-6.364-7.324.004c-.336 0-.695.021-1.03-.023-.88-.119-.78-1.67.135-1.726.79-.048 1.61-.003 2.402-.002l4.703.011c.355.003.765.071 1.11.037.021-2.542.355-4.322-2.083-5.711-.772-.44-.948-.439-.95-1.302l.003-1.766-1.795.014Zm-1.86-5.375-5.665.025-.004 3.59h3.773l5.547.004.044-3.509c.004-.064.003-.041-.01-.114l-3.685.004ZM59.297 25.89c-.862 1.232-2.548 2.457-3.186 3.69l1.936 2.133c.057-.036.107-.066.155-.114l3.365-3.235-2.27-2.474ZM22.72 61.276c-.944 1.016-2.572 2.205-3.325 3.25l-.046.064c-.56.801.706 2.022 1.562 1.781l.062-.02c.679-.336 1.194-.956 1.719-1.49l1.755-1.786-1.727-1.8Z"/><path d="M45.394 69.37c.194-.069.403-.032.598-.032l1.662-.002c.602.01.554 1.259.109 1.697-.39.111-.812.029-1.206.03h-.723c-.253 0-.562.096-.72-.554-.116-.485.106-.919.28-1.14Z"/></g><defs><clipPath id="a"><path fill="#fff" transform="translate(.5)" d="M0 0h100v100H0z"/></clipPath></defs></svg>