<svg width="101" height="100" fill="none" xmlns="http://www.w3.org/2000/svg"><g clip-path="url(#a)" fill="#427AA1"><path d="M55.74 57.477c1.608.171 1.306 2.091-.03 2.398-1.715-.178-1.43-2.112.03-2.398Zm-35.561-9.318c1.711-.19 1.997 1.676.686 2.416-1.677.216-2.058-1.762-.686-2.416ZM55.44 61.14c1.816-.113 1.942 2.966.466 3.61-1.69.052-2.107-2.98-.465-3.61ZM18.016 27.851l5.03-.019c1.546.001 3.134-.073 4.675.014 1.269.07 1.423 2.279-.342 2.284l-8.61-.004c-2.035 0-2.007 1.044-2.005 2.842V41.2c0 .795.064 1.334.879 1.706l.074.033c.597.27 1.34.171 1.978.172h60.777c1.45 0 3.738.442 3.84-1.692l-.006-8.553c-.006-2.199-.486-2.727-2.528-2.732l-7.658-.003-.563-.005c-1.568-.033-1.452-2.18-.188-2.29.62-.053 1.285-.006 1.908-.007h6.785c.434.002.942-.052 1.365.04 1.452.319 2.921 1.82 3.114 3.333.075.584.034 1.212.035 1.802l-.002 7.092c-.001.71.078 1.547-.079 2.235-.324 1.425-1.756 2.956-3.297 3.051-.475.03-.965 0-1.442 0l-61.51-.01c-.81 0-1.799.109-2.58-.085-2.755-.685-3.08-2.603-3.086-5.18l-.01-8.508c.052-1.964 1.592-3.407 3.446-3.749Z"/><path d="M80.506 47.768c1.39-.069 1.202 1.453 1.203 2.362l-.002 26.981c0 .65.041 1.332-.045 1.975-.385 2.842-2.673 5.118-5.502 5.527-1.26.182-2.588.11-3.858.11l-45.135.004c-.851 0-1.736.06-2.575-.095-2.581-.477-4.74-2.79-5.064-5.4-.159-1.27-.07-2.63-.068-3.91l-.003-17.793c0-.35-.05-.794.038-1.13.244-.94 1.807-1.074 2.116.105.108.413.04.977.04 1.411l.01 20.335c.005.338-.023.79.13 1.096 1.307 2.62 2.015 3.065 5.099 3.072l2.98.002 14.332-.015-.005-25.873c0-1.04-.057-2.112.004-3.148.073-1.247 2.09-1.444 2.215-.074.093 1.005.019 2.072.02 3.084L46.428 82.4l8.098.021-.012-8.326c.001-.807-.117-2.203 1.04-2.307 1.236-.111 1.237 1.118 1.238 1.956l.002 8.662 16.532.015c2.59 0 4.924.042 5.916-3.04.35-1.085.202-2.387.201-3.515l.005-27.086c.03-.611.526-.85 1.057-1.012ZM34.71 13.792c6.96.096 12.962 5.655 15.774 11.723.2-.282.334-.674.491-.986l.883-1.582c2.657-4.375 7.364-7.983 12.387-8.99 1.026-.207 2.123-.291 3.15-.048l.235.058c4.494 1.24 5.276 5.812 4.138 9.788-.972 2.947-3.197 5.974-6.498 6.357-.53.062-1.1.021-1.634.021l-26.353.001c-.538 0-1.115.038-1.648-.026-5.476-.66-9.078-9.88-5.402-14.102 1.172-1.346 2.702-2.1 4.477-2.214Zm30.955 2.292c-5.598.508-11.462 5.565-13.221 10.933-.077.234-.2.548-.22.788l4.404.029 7.811.002c3.698-.003 5.819-4.724 5.508-7.914l-.009-.098c-.214-2.272-1.953-3.9-4.273-3.74ZM34.69 16.08c-2.837.359-3.977 2.726-3.602 5.391.48 3.408 2.411 6.352 6.07 6.36l8.094.003 3.578-.067c-.126-.227-.15-.556-.25-.806-1.856-4.68-5.853-8.729-10.66-10.311-.994-.327-2.176-.632-3.23-.57Z"/></g><defs><clipPath id="a"><path fill="#fff" transform="translate(.5)" d="M0 0h100v100H0z"/></clipPath></defs></svg>