<svg width="1116" height="820" viewBox="0 0 1116 820" fill="none" xmlns="http://www.w3.org/2000/svg">
<path fill-rule="evenodd" clip-rule="evenodd" d="M68.5 410C30.6685 410 0 440.668 0 478.5V494.5C0 532.332 30.6685 563 68.5 563C106.332 563 137 532.332 137 494.5V478.5C137 440.668 106.332 410 68.5 410ZM907.5 410C869.669 410 839 440.668 839 478.5V494.5C839 532.332 869.669 563 907.5 563C945.331 563 976 532.332 976 494.5V478.5C976 440.668 945.331 410 907.5 410ZM560 478.5C560 440.668 590.669 410 628.5 410C666.331 410 697 440.668 697 478.5V618.5C697 656.332 666.331 687 628.5 687C590.669 687 560 656.331 560 618.5V478.5ZM348.5 410C310.668 410 280 440.669 280 478.5V751.5C280 789.332 310.668 820 348.5 820C386.332 820 417 789.331 417 751.5V478.5C417 440.668 386.332 410 348.5 410Z" fill="white"/>
<path fill-rule="evenodd" clip-rule="evenodd" d="M487.502 410C525.333 410 556.002 379.331 556.002 341.5V68.5C556.002 30.6685 525.333 0 487.502 0C449.67 0 419.002 30.6685 419.002 68.5V341.5C419.002 379.332 449.67 410 487.502 410ZM836.002 341.5C836.002 379.332 805.333 410 767.502 410C729.67 410 699.002 379.332 699.002 341.5V201.5C699.002 163.668 729.67 133 767.502 133C805.333 133 836.002 163.669 836.002 201.5V341.5ZM208.502 410C246.333 410 277.002 379.332 277.002 341.5C277.002 303.668 246.333 273 208.502 273C170.67 273 140.002 303.668 140.002 341.5C140.002 379.332 170.67 410 208.502 410ZM1047.5 410C1085.33 410 1116 379.332 1116 341.5C1116 303.668 1085.33 273 1047.5 273C1009.67 273 979.002 303.668 979.002 341.5C979.002 379.332 1009.67 410 1047.5 410Z" fill="white"/>
</svg>
