<svg width="1274" height="682" viewBox="0 0 1274 682" fill="none" xmlns="http://www.w3.org/2000/svg">
<path d="M378.358 166.07C379.341 166.35 380.353 165.522 380.491 163.917C380.223 163.408 379.952 162.345 379.276 161.766C378.468 161.066 376.429 162.674 376.518 163.943C376.578 165.039 377.287 165.754 378.358 166.07ZM385.534 216.079C385.081 215.75 384.176 215.703 383.657 215.925C381.751 216.742 381.039 220.624 382.436 222.114C383.706 223.487 385.279 223.999 387.054 223.511C387.599 223.37 388.014 222.686 388.496 222.242C388.512 219.705 387.628 217.557 385.534 216.079ZM378.948 151.786C378.893 151.531 378.896 151.147 378.734 151.043C378.468 150.87 378.006 150.716 377.798 150.844C376.992 151.345 377.102 151.87 378.069 152.102C378.327 152.17 378.658 151.904 378.948 151.786ZM394.303 191.101L393.656 191.336L394.225 191.709L394.303 191.101ZM402.227 111.584C402.874 110.71 402.449 109.713 401.39 109.246C400.663 108.922 400.034 109.18 399.734 109.966C399.325 111.049 399.68 112.062 400.535 112.422C401.122 112.154 401.891 112.041 402.227 111.584ZM398.955 191.349C398.965 191.451 399.414 191.571 399.643 191.547C399.734 191.534 399.805 191.187 399.88 190.989C399.231 190.558 398.882 190.67 398.955 191.349ZM406.764 174.003C407.213 173.39 407.09 173.05 406.423 173.123C406.321 173.131 406.193 173.552 406.206 173.786C406.211 173.862 406.569 173.93 406.764 174.003ZM367.141 31.1153C366.956 32.196 367.603 32.8591 368.927 33.0705C369.913 33.2376 371.151 33.047 371.855 33.5847C373.874 35.1066 376.1 35.8166 378.546 36.0515C378.87 36.0881 379.242 36.2342 379.464 36.4587C379.915 36.9364 379.584 37.2732 378.598 37.4246C377.216 37.636 375.85 37.8187 374.492 38.085C373.099 38.3538 371.884 38.9202 371.058 40.1706C370.502 41.0059 370.972 42.084 372.601 43.5745C374.638 45.4383 376.601 47.3517 378.687 49.1502C379.141 49.5417 379.98 49.7871 380.564 49.6827C384.747 48.8787 387.519 44.5168 386.478 40.3298C386.238 39.3901 385.438 38.5731 385.899 37.5107C386.035 37.2288 386.311 36.9338 386.606 36.8164C386.9 36.6911 387.485 36.6284 387.602 36.7954C389.028 38.7375 390.595 40.6353 390.228 43.3083C390.04 44.6813 389.904 46.0544 389.717 47.4248C389.211 50.9409 389.193 51.1263 392.332 51.2411C394.939 51.3351 397.091 51.9407 398.47 54.3396C400.397 57.6991 403.492 58.8398 407.197 58.8973C413.048 58.9964 418.902 59.2679 424.573 61.0221C425.501 61.317 426.716 61.3614 427.585 61.0012C430.148 59.944 432.482 58.4666 434.283 56.266C434.985 55.4151 435.115 53.1727 434.448 52.3453C434.017 51.8023 433.626 51.2072 433.115 50.766C432.067 49.8707 431.003 48.9257 429.819 48.2418C428.367 47.4039 428.111 46.2553 428.372 44.7648C428.896 41.6585 425.919 39.9279 425.376 37.2157C424.333 31.9559 420.485 29.0244 416.263 26.4793C414.36 25.3282 412.188 24.9131 410.391 26.2522C408.597 27.5835 407.309 27.0981 405.784 26.0722C403.487 24.5112 401.244 24.7592 399.054 26.3645C398.574 26.7143 398.029 26.9466 397.495 27.2129C397.482 27.3512 397.489 27.4818 397.476 27.6227C397.294 27.6018 397.15 27.6462 396.963 27.6305C395.432 29.1811 393.922 30.7368 392.347 32.2404C391.75 32.7964 391.109 32.692 390.754 32.0159C390.64 31.794 390.71 31.3529 390.866 31.131C392.387 29.0245 394.238 27.4895 396.963 27.6279C397.054 27.5391 397.15 27.4583 397.239 27.3617C397.325 27.3173 397.406 27.2598 397.495 27.2102C397.789 24.1561 397.424 21.4074 394.577 19.3348C392.191 17.5911 391.422 14.9286 391.289 11.9946C391.221 10.5302 390.053 9.34509 388.637 9.21718C384.137 8.76037 381.099 6.13172 378.215 2.99147C377.112 1.76983 375.428 1.03893 373.941 0.211449C372.867 -0.391541 370.698 0.378498 370.377 1.46962C369.608 4.13479 368.826 6.78689 367.235 9.09705C364.669 12.8559 364.369 17.0925 365.976 21.0315C367.355 24.4276 367.762 27.6148 367.141 31.1153ZM371.949 153.822C371.97 153.935 372.463 154.055 372.729 154.044C372.823 154.044 372.911 153.661 372.987 153.439C372.257 152.925 371.866 153.052 371.949 153.822ZM406.071 180.947L405.33 180.563L405.265 181.213L406.071 180.947ZM357.175 213.182C357.332 213.03 357.235 212.584 357.264 212.271C357.045 212.041 356.727 211.574 356.636 211.621C356.075 211.861 355.421 212.119 355.084 212.574C354.607 213.224 354.897 214.028 355.645 214.095C356.13 214.142 356.714 213.576 357.175 213.182ZM205.192 316.191C204.994 317.204 204.842 318.23 204.589 319.728C204.921 320.976 205.228 322.673 205.807 324.265C206.54 326.278 208.793 327.137 210.944 326.518C215.147 325.322 216.824 322.041 217.796 318.227C217.945 317.679 217.585 316.81 217.181 316.353C214.975 313.876 212.128 312.876 208.845 313.004C207.374 313.062 205.523 314.633 205.192 316.191ZM210.847 57.3102C211.309 57.5216 212.362 57.2319 212.657 56.8325C214.258 54.7077 214.618 51.7736 217.035 50.1343C217.442 49.8681 217.731 48.7273 217.499 48.3514C215.721 45.527 214.704 42.2459 212.328 39.7843C211.846 39.2727 209.898 39.2335 209.471 39.7713C208.211 41.361 206.894 42.922 205.804 44.6343C205.288 45.4488 205.236 46.5607 205.061 47.2264C204.978 52.5645 206.54 55.2767 210.847 57.3102ZM200.055 35.3258C201.531 35.1405 202.352 34.0833 202.021 33.2454C201.648 32.2561 200.874 31.828 199.857 31.8985C198.85 31.9637 197.88 33.1645 198.35 33.9215C198.77 34.5819 199.635 34.9917 200.055 35.3258ZM370.335 183.554C370.059 184.275 370.348 184.836 371.055 185.16C371.295 184.94 371.647 184.773 371.741 184.507C372.022 183.787 371.746 183.181 371.029 182.951C370.857 182.902 370.44 183.288 370.335 183.554ZM226.359 277.911C225.798 278.19 225.201 278.422 224.677 278.785C224.573 278.853 224.682 279.495 224.873 279.691C225.762 280.636 226.654 281.609 227.686 282.38C228.075 282.68 228.87 282.588 229.431 282.473C230.26 282.275 230.315 280.795 229.613 279.889C228.784 278.809 227.853 277.911 226.359 277.911ZM195.424 60.5549C194.887 60.8785 194.225 61.5103 194.178 62.0428C193.912 65.1125 193.654 68.2762 195.077 71.1137C195.638 72.2466 196.84 73.5909 197.935 73.8023C201.059 74.3844 204.047 73.6614 206.555 71.5105C207.205 70.9675 207.481 69.5684 207.046 68.7226C206.894 68.4068 206.722 68.104 206.532 67.8247C206.13 67.2661 205.698 66.7413 205.327 66.1645C204.271 64.5774 204.284 64.5774 205.755 62.6954C207.387 60.6019 207.551 59.4715 206.519 58.2786C205.15 56.715 203.593 56.916 201.914 57.6965C200.988 58.1246 199.979 58.3726 199.012 58.7067L199.067 58.6571C199.051 58.6675 199.046 58.6572 199.041 58.6676C199.033 58.6676 199.028 58.678 199.028 58.678C197.826 59.2993 196.571 59.8474 195.424 60.5549ZM364.802 218.217C364.768 218.063 364.362 217.995 364.124 217.899C363.908 218.032 363.621 218.123 363.486 218.324C363.433 218.403 363.665 218.846 363.824 218.88C364.541 219.052 364.933 218.776 364.802 218.217ZM356.052 226.837C356.232 226.826 356.37 226.372 356.584 225.999C356.466 225.153 356.458 224.15 356.135 223.268C355.958 222.798 355.217 222.255 354.769 222.268C354.258 222.274 353.58 222.822 353.353 223.313C352.751 224.615 353.11 225.894 354.229 226.743C354.638 227.058 355.452 226.907 356.052 226.837ZM325.414 227.583C328.121 229.314 332.725 227.544 334.039 224.393C334.167 224.103 334.081 223.717 334.099 223.37C333.424 220.916 331.651 219.314 329.659 217.964C329.158 217.614 328.319 217.486 327.711 217.614C323.63 218.442 322.215 221.117 323.711 225.184C324.035 226.09 324.647 227.092 325.414 227.583ZM220.487 238.596C217.752 241.676 218.19 245.819 216.18 249.066C215.15 250.752 215.788 252.332 217.168 253.692C217.893 254.41 218.518 255.284 219.011 256.182C220.216 258.309 219.494 261.335 217.348 262.478C215.812 263.3 214.125 263.804 213.731 265.788C213.306 267.861 213.34 269.952 214.198 271.909C215.035 273.851 216.38 275.48 218.203 276.574C219.048 277.088 220.151 277.456 221.102 277.388C222.464 277.292 223.757 276.6 225.118 276.376C227.389 275.995 229.248 277.007 230.555 278.748C231.352 279.808 232.098 281.158 232.228 282.45C232.583 285.823 234.739 287.138 237.613 287.929C239.245 288.394 240.945 288.811 242.476 289.558C244.082 290.325 245.628 290.803 247.44 290.534C248.799 290.349 250.202 290.498 251.584 290.498C251.584 290.579 251.584 290.662 251.576 290.73C253.659 290.73 255.75 290.811 257.805 290.686C258.355 290.636 259.075 290.043 259.336 289.521C259.792 288.603 259.92 287.532 260.217 286.553C260.684 285.019 260.134 283.729 258.958 282.915C256.965 281.542 254.744 280.505 252.734 279.145C247.062 275.318 243.292 270.004 241.274 263.512C240.353 260.534 239.741 257.464 239.05 254.412C238.061 249.915 239.245 245.435 239.282 240.932C239.292 238.708 240.669 237.103 241.722 235.315C242.403 234.153 242.864 232.767 243.078 231.431C243.98 225.625 244.851 219.807 245.516 213.983C245.811 211.412 246.569 209.01 248.7 207.758C251.904 205.86 253.81 203.093 255.044 199.835C256.663 195.565 259.549 192.077 261.894 188.282C264.076 184.781 266.676 181.584 269.893 178.777C273.559 175.593 277.061 172.312 281.384 169.954C283.184 168.978 284.589 167.326 286.315 166.183C290.012 163.718 291.162 160.51 289.577 156.308C289.217 155.342 288.956 154.332 288.75 153.308C288.451 151.852 287.645 150.821 286.453 149.991C285.611 149.411 284.777 148.756 283.979 148.095C281.512 146.025 278.678 146.177 276.182 147.513C272.48 149.492 269.158 152.029 268.563 156.741C268.193 159.753 266.17 161.834 263.797 163.207C260.535 165.081 257.19 167.464 253.338 167.464C246.942 167.464 243.229 171.153 239.931 175.828C239.738 176.118 239.511 176.386 239.362 176.7C238.585 178.422 237.149 179.258 235.451 179.827C234.093 180.304 233.165 181.166 232.815 182.714C232.427 184.377 231.957 186.11 231.097 187.551C230.13 189.154 229.77 190.631 230.218 192.448C230.335 192.939 229.835 193.635 229.509 194.171C229.347 194.437 228.948 194.578 228.617 194.693C226.849 195.296 225.887 196.742 224.925 198.193C224.041 199.506 222.711 199.598 221.298 199.707C220.406 199.778 219.676 201.401 220.083 202.09C221.306 204.171 223.233 206.123 223.627 208.358C224.093 210.963 223.029 213.814 223.021 216.547C223.016 218.387 222.542 219.922 221.684 221.457C220.5 223.563 219.329 225.68 218.187 227.821C217.387 229.322 217.749 230.877 219.176 232.428C221.741 235.234 222.331 236.526 220.487 238.596ZM754.678 79.5764C753.924 79.2501 752.563 79.4694 751.896 79.9914C751.228 80.5031 750.696 81.7483 750.777 82.5993C751.048 85.5098 752.678 87.5772 755.364 88.7962C756.12 89.1329 757.567 88.6813 757.935 87.8069C758.32 86.8985 758.576 85.9117 758.803 85.2121C758.482 82.3329 756.936 80.5866 754.678 79.5764ZM705.579 57.3807C707.196 59.6125 709.128 61.4658 709.232 64.5017C709.266 65.3031 710.341 66.2767 711.17 66.791C712.919 67.8638 714.747 69.0228 716.692 69.524C719.156 70.1636 721.146 71.2938 722.849 73.0949C724.382 74.7264 726.217 75.2485 728.481 74.9431C730.155 74.7264 731.93 75.1545 733.607 74.8961C734.454 74.7708 735.461 73.9094 735.901 73.1106C736.694 71.6645 736.765 70.0017 738.543 68.9445C739.925 68.1274 740.819 66.4177 741.8 65.0133C743.747 62.2098 746.081 60.6044 749.718 61.6068C750.561 61.8365 751.752 61.4084 752.6 60.9411C753.478 60.466 754.208 59.6386 754.863 58.8477C755.249 58.3465 755.583 57.6025 755.538 56.9839C755.47 55.7048 756.344 55.2297 757.139 54.6241C757.692 54.2013 758.276 53.7731 758.636 53.2145C759.199 52.3662 759.843 51.4343 759.994 50.458C760.208 49.1346 760.226 47.6884 759.906 46.3885C759.509 44.757 758.675 43.2326 758.028 41.6507C759.035 38.393 757.066 37.3123 754.427 36.7772C750.034 35.8688 745.651 34.9865 741.257 34.112C740.921 34.0415 740.514 33.9711 740.24 34.099C739.364 34.5323 738.399 34.9265 737.75 35.5895C737.419 35.9132 737.474 36.9938 737.771 37.4715C739.633 40.4838 740.715 43.6737 740.561 47.2656C740.517 48.1296 740.777 49.0014 740.97 49.8707C741.088 49.9437 741.221 50.0012 741.333 50.0691C741.442 50.3249 741.591 50.5337 741.719 50.7791C741.502 50.6251 741.299 50.4659 741.069 50.3275C741.036 50.1761 741.002 50.0221 740.97 49.8733C740.475 49.607 739.933 49.3616 739.656 48.9466C737.536 45.7802 735.521 42.5121 735.221 38.5914C735.033 36.0098 733.377 35.0439 731.286 34.4958C729.289 33.9606 727.252 33.5194 725.216 33.2401C724.697 33.1723 723.826 33.7048 723.563 34.206C722.903 35.3963 722.225 36.6858 722.09 37.9962C721.897 39.9305 722.09 41.9065 722.15 43.8591C722.238 43.8956 722.337 43.9191 722.431 43.9556C722.715 44.3602 723.005 44.7701 723.349 45.0938C722.953 44.8014 722.564 44.5091 722.163 44.2089C722.163 44.094 722.155 43.9713 722.15 43.8591C719.399 42.8828 716.4 42.7313 714.228 40.0583C712.51 37.9492 709.537 37.2523 706.893 36.4169C705.762 36.0567 704.051 37.0409 703.624 38.3121C702.771 40.9277 701.986 43.5824 701.053 46.164C700.662 47.2577 700.834 48.2236 701.29 49.1555C702.648 51.9355 703.783 54.9034 705.579 57.3807ZM743.304 52.2879L743.669 52.7186L743.069 52.5306C743.009 52.2278 742.817 52.0608 742.689 51.8441C742.892 51.9929 743.033 52.1913 743.304 52.2879ZM724.778 45.7594L724.846 46.2814L724.569 46.0021C724.189 45.7228 723.816 45.4462 723.44 45.1643C723.795 45.4801 724.197 45.7255 724.778 45.7594ZM723.652 94.6616C722.862 94.3588 722.251 94.6251 722.084 95.4525C722.035 95.6483 722.481 96.126 722.744 96.1626C723.328 96.2435 723.923 96.1626 724.52 96.1391C724.577 95.4525 724.33 94.9174 723.652 94.6616ZM724.52 96.1391C724.52 96.22 724.57 96.267 724.551 96.3505C724.629 96.3244 724.718 96.3114 724.796 96.2879C724.783 96.2304 724.742 96.1965 724.731 96.1391C724.663 96.1391 724.593 96.1391 724.52 96.1391ZM129.179 389.767C129.591 390.205 130.003 390.649 130.399 391.08C130.67 390.926 131.153 390.8 131.168 390.636C131.26 389.868 130.809 389.383 130.039 389.357C129.75 389.344 129.468 389.628 129.179 389.767ZM724.794 96.2879C725.414 98.6033 727.2 98.9661 729.255 98.7547C729.427 98.7416 729.659 98.2326 729.659 97.9533C729.651 97.6479 729.487 97.2772 729.271 97.0658C727.946 95.7893 726.389 95.8728 724.794 96.2879ZM761.968 101.511C762.208 101.686 762.688 101.851 762.876 101.725C765.812 99.6526 769.094 99.2819 772.607 99.2088C776.38 99.1279 780.153 98.4519 783.926 97.9559C785.678 97.7079 786.418 95.4656 785.417 93.8707C783.54 90.8427 781.24 88.3942 777.67 87.3814C776.02 86.9142 774.45 86.0423 772.781 85.716C771.113 85.3897 769.353 85.4419 767.632 85.4732C766.169 85.4993 764.101 87.1595 763.794 88.556C763.348 90.566 763.053 92.6151 762.328 96.7812C762.352 96.6899 761.843 98.6999 761.405 100.725C761.353 100.953 761.705 101.336 761.968 101.511ZM278.216 308.53L279.048 308.193L278.242 307.83L278.216 308.53ZM773.897 44.3289C778.969 46.5268 784.364 47.4796 789.454 48.1661C791.201 47.9495 792.596 47.9233 793.902 47.5762C796.728 46.8192 798.827 45.099 799.654 42.2146C799.928 41.2931 800.05 40.0114 799.623 39.2466C798.019 36.383 795.459 34.5114 792.129 34.6262C789.793 34.6993 787.493 35.8975 785.136 36.0358C782.45 36.2003 779.746 35.7096 777.039 35.5973C776.38 35.5712 775.621 35.767 775.071 36.1194C773.475 37.1427 771.827 36.8972 770.101 36.751C769.259 36.678 768.651 38.2964 769.11 39.1213C770.25 41.2801 771.592 43.3422 773.897 44.3289ZM443.258 53.9115C443.597 54.8329 443.563 55.8901 443.508 55.5664C443.342 57.9497 443.037 59.02 443.24 59.9936C444.017 63.7317 444.828 67.4539 445.871 71.1137C446.632 73.7814 447.644 76.4206 449.899 78.2452C450.343 78.608 451.203 78.7124 451.785 78.574C452.41 78.4096 453.06 77.9424 453.456 77.4203C457.479 72.056 457.581 72.1604 464.775 67.4514C466.78 66.1201 468.647 64.5043 470.329 62.7737C471.507 61.5625 472.407 60.0014 473.124 58.4587C473.526 57.6104 473.617 56.3418 473.301 55.4699C472.704 53.8593 471.617 52.4445 470.884 50.8861C469.786 48.5577 468.159 46.8244 465.607 46.2789C462.121 45.5454 459.37 43.2874 456.191 41.9874C453.031 40.6927 449.644 40.0897 446.88 37.8109C445.91 37.0225 444.301 36.8842 442.95 36.6858C442.395 36.6153 441.417 37.0226 441.193 37.4872C439.681 40.6013 438.095 43.6764 440.312 47.2682C441.571 49.3199 442.387 51.6561 443.258 53.9115ZM449.547 114.727C449.281 114.853 449.018 115.166 448.937 115.461C448.721 116.168 449.086 116.693 449.879 116.714C450.616 116.75 450.984 116.262 450.948 115.505C450.765 114.678 450.285 114.378 449.547 114.727ZM455.174 111.096L456.001 111.248L455.432 110.843L455.075 110.598L455.174 111.096ZM439.631 108.363C442.731 108.596 444.911 106.813 445.263 103.884C444.937 103.341 444.666 102.733 444.257 102.255C444.124 102.104 443.558 102.127 443.321 102.279C441.928 103.208 440.515 104.127 439.238 105.194C438.792 105.57 438.523 106.419 438.573 107.011C438.617 107.515 439.227 108.329 439.631 108.363ZM492.195 60.3304C492.453 60.1816 492.581 59.8083 492.769 59.542C492.466 58.9756 492.276 58.0436 491.835 57.9027C489.306 57.1222 486.563 59.0905 484.026 57.4277C483.968 57.3807 483.494 57.8349 483.358 58.1246C483.228 58.3935 483.137 58.8686 483.285 59.0461C485.543 61.8496 488.983 62.3482 492.195 60.3304ZM575.436 137.49C575.284 140.001 576.786 141.222 578.909 141.865C579.884 142.152 580.922 142.259 581.907 142.444C582.278 142.444 582.614 142.434 582.948 142.46C585.667 142.585 587.391 140.609 587.104 137.907C586.864 135.803 586.084 133.963 584.888 132.251C584.142 131.196 582.583 130.53 581.289 130.998C579.699 131.569 578.142 132.251 576.643 133.047C575.292 133.752 574.794 134.947 575.282 136.485C575.389 136.806 575.446 137.163 575.436 137.49ZM699.415 65.7677C699.58 65.9791 700.223 66.0914 700.377 65.953C700.834 65.5719 701.152 65.0264 701.642 64.3686C701.457 63.5124 701.298 62.5126 700.985 61.5442C700.098 58.8216 698.625 56.6132 695.653 55.7518C695.014 55.5691 694.456 55.0992 693.882 54.7076C693.165 54.2038 692.537 54.2404 692.091 54.9713C691.94 55.2141 691.916 55.7309 692.075 55.9397C694.495 59.2418 696.949 62.5204 699.415 65.7677ZM662.963 127.171C663.169 127.187 663.404 126.834 663.638 126.636C663.424 126.414 663.247 126.017 663.041 126.009C662.827 125.996 662.593 126.346 662.366 126.542C662.569 126.766 662.757 127.15 662.963 127.171ZM506.111 79.4459C506.753 78.5976 506.338 77.5143 505.274 76.9348C504.567 76.5536 503.936 76.7807 503.626 77.5638C503.199 78.6445 503.563 79.7852 504.403 80.2159C504.99 79.9706 505.78 79.8766 506.111 79.4459ZM1112.33 486.407C1112.14 486.336 1111.84 486.519 1111.58 486.576C1111.63 486.845 1111.56 487.216 1111.71 487.357C1112.31 487.965 1112.77 487.824 1112.85 487.023C1112.85 486.827 1112.57 486.49 1112.33 486.407ZM1083.73 288.101C1083.55 288.188 1083.36 288.245 1083.16 288.313C1083.16 288.347 1083.15 288.394 1083.14 288.43C1083.25 288.475 1083.34 288.535 1083.43 288.579C1083.53 288.43 1083.64 288.266 1083.73 288.101ZM1120 486.629C1119.42 486.616 1118.81 486.741 1118.24 486.929C1117.95 487.023 1117.61 487.292 1117.49 487.568C1116.22 490.312 1114.87 493.024 1113.86 495.851C1113.61 496.535 1114.42 497.639 1114.86 498.49C1114.96 498.688 1115.48 498.689 1115.81 498.777C1116.36 498.441 1117.05 498.224 1117.44 497.744C1119.94 494.742 1120.96 491.262 1120.59 487.391C1120.56 487.106 1120.21 486.629 1120 486.629ZM1084.09 287.543C1083.97 287.728 1083.86 287.919 1083.73 288.101C1083.8 288.078 1083.87 288.078 1083.92 288.049C1084.05 287.958 1084.05 287.72 1084.09 287.543ZM280.438 676.779L280.487 676.633C280.333 676.38 280.104 676.195 279.937 675.949C280.125 676.208 280.26 676.51 280.438 676.779ZM949.101 627.919C949.187 627.82 949.252 627.713 949.348 627.619C949.252 627.713 949.189 627.817 949.101 627.911V627.919ZM199.035 58.6701C199.622 57.8453 200.344 57.0648 200.725 56.1564C201.421 54.4806 200.284 52.5854 198.566 52.2043C197.15 51.9041 195.87 52.1939 194.665 52.9587C193.09 53.9481 192.984 55.9371 194.384 57.3102C195.708 58.6153 197.226 59.1452 199.035 58.6701ZM1197.81 145.853C1196.35 145.712 1195.71 144.159 1195.35 142.786C1195.18 142.133 1195.28 141.403 1195.31 140.713C1195.47 137.385 1194.78 134.629 1191.54 132.781C1190.13 131.979 1189.21 130.28 1188.13 128.943C1186.86 127.359 1186.73 126.683 1188.26 125.511C1190.95 123.462 1192.08 120.661 1192.94 117.612C1193.24 116.515 1193.11 115.495 1192.42 114.714C1189.49 111.425 1188.4 107.536 1188.4 103.211C1188.4 101.804 1187.77 101.313 1186.44 101.313C1185.76 101.313 1185.03 101.723 1184.4 101.584C1180.73 100.728 1177.18 99.3498 1173.38 98.9269C1172.1 98.799 1170.94 97.674 1169.7 97.0423C1167.57 95.9511 1165.61 96.4027 1164 98.0107C1161.82 100.198 1159.96 102.733 1156.61 103.349C1156.07 103.44 1155.66 104.294 1155.22 104.824C1154.32 105.954 1154.17 107.779 1154.95 108.684C1156.52 110.533 1158.26 112.242 1159.68 114.195C1160.5 115.315 1160.6 116.85 1159.92 118.168C1159.64 118.7 1158.96 119.045 1158.4 119.384C1158.18 119.515 1157.58 119.434 1157.51 119.282C1155.22 114.062 1149.99 111.175 1147.34 106.241C1143.61 103.111 1139.96 99.9606 1134.43 101.112C1132.47 101.522 1130.17 101.579 1128.31 100.947C1125.24 99.9215 1122.21 99.9815 1119.08 99.9345C1115.27 99.8771 1111.54 99.5848 1107.82 98.3057C1104.58 97.2067 1101 96.8282 1097.61 98.2378C1095.01 99.3185 1093.02 98.5171 1090.97 96.8673C1089.07 95.3194 1086.77 94.4476 1084.29 94.1657C1076.75 93.3173 1069.38 90.921 1061.67 91.6075C1060.63 91.7015 1059.53 91.6414 1058.56 91.3647C1053.54 89.8873 1048.85 91.4091 1044.42 93.2964C1041.23 94.6564 1038.06 96.5881 1034.69 96.7525C1030.87 96.9509 1027.26 98.3918 1023.41 98.2064C1021.72 98.1072 1020 98.5171 1018.3 98.7651C1017.44 98.8904 1017.22 99.4594 1017.31 100.337C1017.63 103.777 1021.04 106.267 1020.28 110.118C1020.16 110.676 1021.44 111.919 1022.29 112.18C1024.98 113.012 1027.65 113.814 1029.57 115.991C1031.63 118.33 1033.57 120.76 1035.52 123.193C1036.31 124.164 1036.19 126.215 1035.3 127.077C1034.29 128.03 1033.26 128.964 1032.15 129.8C1030.44 131.092 1028.45 131.11 1027.63 129.473C1025.5 125.177 1021.9 123.681 1017.5 123.305C1016.8 123.25 1016.06 123.19 1015.47 122.885C1014.58 122.407 1013.62 121.874 1013.01 121.107C1012.16 120.034 1011.59 118.734 1010.91 117.523C1010.5 116.779 1010.69 116.218 1011.26 115.693C1013.52 113.623 1012.97 111.334 1011.6 109.112C1010.1 106.706 1007.65 106.518 1005.15 106.724C1003.78 106.834 1001.65 108.974 1001.64 110.206C1001.59 112.963 1001.68 115.735 1001.59 118.489C1001.54 120.303 1000.15 121.872 998.473 122.162C995.062 122.741 991.547 122.976 988.257 123.931C985.853 124.639 983.626 125.224 981.157 124.527C980.552 124.362 979.733 124.409 979.183 124.699C975.204 126.792 971.191 128.842 967.337 131.157C961.817 134.449 955.953 136.111 949.531 135.482C948.144 135.341 946.991 134.462 946.438 133.044C946.303 132.713 946.112 132.399 946.042 132.076C944.759 125.513 941.023 120.757 935.338 117.406C934.754 117.045 934.334 116.416 933.763 116.043C927.678 112.08 921.428 109.543 914.314 113.67C913.151 114.359 911.71 114.555 910.411 115.069C904.917 117.231 899.587 119.711 894.813 123.284C892.318 125.153 889.656 126.819 887.004 128.458C885.181 129.596 882.657 129.011 881.76 126.98C880.707 124.574 879.075 123.018 876.744 122.015C875.143 121.339 873.56 120.619 872.016 119.838C870.165 118.907 868.791 119.58 867.333 120.791C865.75 122.094 865.604 122.07 864.035 120.862C862.895 119.979 861.808 119.165 860.306 119.643C859.245 119.969 858.103 120.024 857.399 119.282C855.845 117.654 853.855 117.304 851.858 116.782C851.083 116.586 851.083 115.91 851.548 115.122C853.31 112 853.284 110.475 851.555 108.851C851.292 108.619 851.099 108.293 850.812 108.121C846.883 105.745 842.797 103.957 838.033 105.15C836.015 105.651 833.952 106.035 831.984 106.721C830.717 107.163 829.222 107.781 828.461 108.778C826.213 111.746 823.895 112.047 820.3 111.013C816.748 109.99 812.725 110.256 808.947 110.36C804.431 110.491 799.93 110.963 795.44 111.467C790.95 111.968 786.52 112.644 782.048 111.211C781.279 110.955 780.077 111.655 779.243 112.18C778.763 112.467 778.546 113.292 778.377 113.931C778.322 114.137 778.666 114.652 778.93 114.748C780.518 115.401 782.173 115.886 783.733 116.607C784.304 116.863 784.711 117.552 785.076 118.108C785.433 118.651 784.562 120.097 783.584 120.525C782.63 120.93 781.563 121.11 780.674 121.619C778.674 122.746 777.939 124.631 777.988 126.865C778.02 128.622 779.43 130.238 781.232 130.355C782.575 130.46 783.936 130.319 785.287 130.29C785.313 130.181 785.318 130.087 785.349 129.995L785.477 129.473L785.344 130.29C785.323 130.29 785.308 130.29 785.287 130.29C784.935 131.937 785.049 133.53 786.022 134.973C787.584 137.278 789.271 139.463 791.638 141.058C792.588 141.697 792.554 142.734 791.871 143.801C791.234 144.78 790.111 145.323 789.302 144.765C787.109 143.256 784.953 142.778 782.598 144.383C781.17 145.36 779.608 146.151 778.265 147.234C776.523 148.651 774.711 149.153 772.487 148.745C770.794 148.432 769 148.223 767.329 148.469C764.865 148.816 762.451 149.839 761.739 152.483C760.964 155.295 759.384 156.24 756.579 156.506C751.429 157.007 746.978 155.812 743.195 152.241C742.962 152.016 742.637 151.81 742.331 151.75C742.05 151.706 741.651 151.784 741.424 151.961C741.176 152.16 740.931 152.517 740.918 152.823C740.809 156.031 741.789 158.975 743.067 161.857C744.767 165.687 746.266 169.558 746.845 173.734C747.004 174.872 746.329 175.585 744.999 175.444C742.955 175.212 740.986 174.99 738.952 174.327C732.762 172.338 728.757 167.396 723.701 163.891C723.529 163.763 723.714 163.207 723.61 162.891C722.757 160.158 722.71 160.145 720.405 161.539C718.27 162.833 717.302 162.844 715.837 161.33C715.201 160.68 714.919 159.678 714.497 158.808C714.411 158.853 714.322 158.902 714.228 158.949C714.142 158.879 714.064 158.808 713.988 158.727C713.209 158.811 712.45 158.892 711.97 157.96C712.234 157.845 712.625 157.555 712.755 157.644C713.196 157.96 713.582 158.357 713.988 158.727C714.137 158.717 714.293 158.709 714.442 158.693C714.468 158.727 714.481 158.774 714.497 158.811C715.621 158.239 716.804 157.725 717.826 156.994C718.272 156.67 718.564 155.759 718.51 155.167C718.244 152.645 716.617 150.734 715.05 148.957C713.897 147.654 712.015 147.529 710.231 147.448C708.74 147.365 708.401 146.897 708.797 145.48C709.167 144.13 709.725 142.877 708.552 141.7C705.884 139.011 703.28 136.255 700.482 133.697C698.338 131.729 688.904 129.042 685.825 129.298C685.152 129.356 684.347 129.405 683.833 129.776C682.383 130.825 681.171 131.141 679.234 130.556C674.916 129.264 670.378 128.868 665.909 129.927C664.629 130.23 663.414 131.055 662.324 131.846C660.196 133.417 659.711 135.19 660.846 137.223C662.183 139.63 663.701 141.932 665.13 144.282C665.594 145.039 665.25 146.775 664.52 147.072C660.395 148.771 656.317 150.633 652.092 152.053C649.407 152.964 646.718 152.648 644.374 150.458C642.807 149.009 642.625 149.252 640.914 150.45C636.189 153.812 631.973 152.413 630.988 147.158C630.86 146.482 630.935 145.775 630.795 145.109C630.448 143.47 628.524 142.321 626.816 142.669C621.418 143.786 615.995 144.853 610.597 146.052C608.59 146.495 606.543 147.028 604.707 147.915C602.548 148.959 600.579 150.439 598.538 151.729C596.392 150.693 594.246 149.643 592.095 148.644C591.855 148.542 591.55 148.599 591.245 148.61C591.109 149.205 591.005 149.823 590.796 150.393C589.438 154.128 585.362 155.347 582.703 152.731C581.754 151.799 581.086 150.565 580.416 149.395C579.853 148.396 579.104 147.79 578.056 148.338C576.471 149.153 574.945 149.395 573.146 149.127C571.235 148.847 569.916 150.032 569.355 151.86C569.042 152.838 568.826 153.872 568.758 154.885C568.674 156.373 569.355 157.621 570.711 158.187C571.858 158.675 573.125 158.863 574.346 159.142C574.364 159.085 574.377 159.012 574.395 158.967C574.492 158.902 574.588 158.829 574.693 158.761C574.729 158.271 574.737 157.78 574.945 157.375C575.167 156.921 575.767 156.652 576.187 156.315C576.249 156.574 576.416 156.838 576.364 157.072C576.32 157.375 576.16 157.715 575.939 157.9C575.55 158.226 575.107 158.479 574.693 158.761C574.677 158.913 574.674 159.062 574.646 159.197C574.554 159.179 574.45 159.166 574.346 159.142C574.08 160.085 574.017 161.272 573.391 161.815C571.496 163.431 570.067 165.399 568.914 167.506C566.643 171.609 563.05 173.157 558.651 173.541C557.061 173.682 556.393 173.191 557.069 171.902C558.067 169.994 558.443 168.015 558.597 165.919C558.774 163.491 561.72 163.303 562.484 161.33C562.855 160.361 563.616 159.247 563.389 158.406C562.49 155.089 563.561 152.243 564.948 149.393C565.59 148.124 566.031 146.806 565.707 145.388C565.368 143.984 565.543 142.726 566.135 141.389C567.546 138.226 569.214 135.098 570.036 131.76C570.86 128.434 571.123 124.973 572.403 121.684C573.55 118.706 573.149 115.482 571.84 112.529C570.445 109.402 568.249 106.633 567.634 103.132C567.522 102.503 567.053 101.668 566.531 101.435C562.808 99.817 560.988 96.3061 558.393 93.5705C557.653 92.803 556.505 92.8709 555.775 93.6958C555.152 94.4058 555.209 97.084 553.449 94.7687C551.463 92.1766 548.795 90.66 546.016 89.219C543.565 87.9504 540.866 87.0655 538.639 85.4993C536.329 83.8679 534.269 83.5441 531.964 85.066C527.886 87.7755 523.313 89.3809 518.752 91.0228C517.777 91.3726 517.172 92.6517 517.571 93.5575C517.993 94.5103 518.648 95.3612 519.018 96.314C519.722 98.1439 519.143 99.5169 517.336 100.702C515.357 102.005 513.039 100.992 512.763 98.6189C512.57 96.9091 512.695 95.1759 512.533 93.4635C512.385 91.7563 512.181 90.0361 511.795 88.3707C511.446 86.8097 509.3 85.4732 507.772 85.7525C506.414 86.0057 505.094 86.4155 503.77 86.7888C501.621 87.3996 499.71 86.8071 497.754 85.9248C496.289 85.2748 495.449 84.322 495.783 82.7741C496.503 79.3885 494.39 77.6787 492.078 76.0159C488.169 76.491 484.743 74.1651 480.973 74.0712C480.073 74.0503 479.085 74.7812 478.256 75.345C477.705 75.7027 477.228 76.3213 476.941 76.9348C474.198 82.6932 472.934 88.8562 473.46 95.1184C473.786 99.0157 473.575 103.573 478.068 106.027C480.143 107.168 479.515 109.796 480.24 111.707C481.105 113.996 480.873 114.299 479.074 114.495C476.662 114.753 474.201 114.693 472.003 115.972C471.015 116.542 470.517 117.346 470.684 118.499C470.835 119.499 471.424 120.692 471.08 121.462C470.086 123.66 468.762 125.72 467.479 127.756C467.135 128.291 466.467 128.708 465.854 128.951C463.633 129.815 461.409 130.617 459.158 131.337C458.593 131.522 458.217 130.883 458.428 129.987C458.728 128.651 459.213 127.356 459.524 126.03C459.826 124.717 458.46 123.459 456.971 123.563C454.794 123.738 452.71 124.255 452.165 126.67C451.813 128.205 451.378 129.197 449.693 129.348C448.33 129.478 446.963 129.87 445.579 129.943C443.253 130.071 441.829 131.606 440.406 133.096C438.617 135.002 438.539 136.119 440.445 138.482C441.253 139.481 441.18 140.648 440.427 141.11C437.79 142.742 435.232 144.543 432.461 145.89C429.955 147.101 427.514 148.101 425.791 150.547C424.216 152.742 421.648 154.115 420.79 156.999C420.182 159.022 418.86 160.863 416.738 161.489C413.883 162.33 414.597 165.666 412.532 166.968C411.299 167.759 410.772 169.015 410.151 170.27C408.965 172.703 409.802 174.961 410.295 177.347C410.608 178.869 411.471 179.566 412.6 180.443C415.032 182.356 417.34 184.28 420.414 185.311C423.658 186.405 426.894 187.838 429.238 190.568C429.624 191.025 429.84 191.861 429.731 192.456C429.632 193.059 429.173 193.782 428.651 194.095C427.18 194.98 427.011 193.656 426.662 192.735C426.265 191.688 425.676 190.85 424.411 191.038C423.061 191.234 421.371 191.13 420.432 191.902C417.176 194.633 413.267 195.844 409.505 197.541C405.682 199.253 401.807 200.637 397.823 201.842C396.485 202.239 395.148 202.576 393.86 203.077C390.121 204.531 389.028 207.58 390.978 211.373C391.756 212.895 392.705 214.396 393.826 215.696C395.437 217.578 396.697 219.535 397.148 222.062C397.369 223.386 397.946 224.761 398.715 225.863C399.463 226.944 400.54 227.993 401.713 228.575C404.274 229.867 407.161 229.345 409.911 229.543C412.146 231.66 414.339 233.811 416.633 235.874C417.105 236.291 417.914 236.338 418.552 236.604C420.138 237.254 421.744 237.897 423.306 238.617C424.602 239.223 425.692 240.165 425.95 241.616C426.766 246.106 428.104 250.34 430.766 254.122C431.449 255.086 430.675 256.028 429.723 256.61C428.578 257.31 427.413 258.007 426.25 258.706C426.312 258.798 426.37 258.892 426.43 258.986C426.268 259.244 426.08 259.487 425.966 259.753C425.869 259.975 425.835 260.244 425.785 260.486C425.918 259.904 426.057 259.32 426.192 258.74L426.247 258.709C425.958 258.197 425.697 257.66 425.334 257.218C422.404 253.671 421.606 249.891 423.893 245.678C424.198 245.122 424.119 244.331 424.198 243.645C424.406 241.689 422.375 239.408 420.409 239.549C418.699 239.677 416.985 239.933 415.306 240.282C412.055 240.958 409.173 240.528 406.587 238.21C405.056 236.837 403.364 235.524 401.528 234.628C398.446 233.12 395.281 231.522 391.972 230.768C388.595 229.998 385.409 228.792 382.108 227.844C381.292 227.612 379.973 228.079 379.287 228.685C377.707 230.068 376.718 231.94 376.7 234.104C376.7 234.662 377.198 235.477 377.691 235.722C378.598 236.171 379.678 236.278 380.689 236.521C380.596 236.44 380.504 236.346 380.424 236.278L380.836 235.706L380.689 236.521C381.328 237.126 381.949 237.8 382.71 238.197C383.597 238.672 384.721 238.708 385.683 239.092C386.89 239.57 387.362 241.415 386.707 242.619C386.149 243.673 385.146 244.141 384.134 243.919C382.833 243.629 381.597 242.966 380.353 242.407C379.412 241.99 378.538 241.204 377.563 241.092C376.147 240.906 374.768 241.637 373.97 242.754C373.43 243.498 373.031 244.871 373.352 245.605C375.13 249.5 377.74 252.559 382.111 253.882C384.465 254.598 386.744 255.271 389.208 255.373C390.209 255.42 391.208 255.814 392.165 256.132C392.444 256.224 392.705 256.587 392.812 256.887C393.067 257.62 392.6 258.202 391.878 257.876C390.269 257.161 388.658 256.48 386.882 256.769C383.756 257.297 380.645 256.957 377.535 256.688C375.741 256.54 374.181 255.877 373.313 254.13C372.995 253.514 372.752 252.851 372.39 252.267C370.168 248.735 368.161 245.208 367.913 240.802C367.728 237.288 366.077 234.109 363.955 231.3C363.358 230.501 362.445 229.935 361.621 229.332C361.439 229.191 360.975 229.222 360.75 229.353C360.479 229.517 360.101 229.948 360.15 230.146C360.967 232.775 361.903 235.38 362.682 238.019C363.29 240.115 363.063 242.159 361.898 244.031C361.52 244.626 361.199 245.253 360.745 245.777C359.095 247.732 358.114 249.753 358.982 252.454C359.738 254.757 358.242 257.498 359.773 259.575C361.191 261.481 363.178 262.995 364.94 264.658C366.197 265.835 367.441 267.031 368.779 268.137C370.771 269.8 371.801 271.855 371.858 274.468C371.902 277.232 371.91 279.965 372.335 282.755C373.149 288.096 376.455 292.247 378.45 297.008C379.018 298.371 380.53 298.741 381.98 298.647C384.809 298.472 387.378 297.937 389.349 295.473C391.542 292.719 394.274 293.677 396.871 295.006C397.161 295.157 397.521 295.481 397.542 295.75C397.56 295.982 397.156 296.285 396.887 296.483C394.115 298.553 391.244 300.519 388.574 302.717C386.11 304.753 385.774 308.801 387.711 311.221C388.801 312.571 390.17 313.698 391.182 315.092C392.679 317.152 393.372 319.582 392.407 322.002C391.091 325.294 390.54 328.588 390.658 332.146C390.705 333.775 390.123 335.657 389.234 337.056C387.193 340.264 384.754 343.198 384.1 347.127C384.027 347.523 382.961 348.079 382.405 348.038C378.272 347.625 374.168 347.116 370.043 346.571C369.412 346.484 368.419 346.161 368.309 345.753C368.056 344.845 368.195 343.822 368.2 342.833C368.158 342.814 368.111 342.786 368.069 342.762C367.324 342.741 367.248 342.519 367.845 342.123C367.963 342.308 368.09 342.506 368.21 342.692C368.21 342.741 368.2 342.786 368.2 342.833C369.089 343.276 369.957 343.772 370.87 344.138C374.437 345.545 376.997 344.461 378.403 341.076C380.955 334.926 382.191 328.447 383.294 321.942C383.459 320.979 383.294 319.767 382.812 318.93C381.381 316.408 380.747 313.858 381.237 310.939C381.555 309.089 380.604 307.593 379.091 306.499C377.686 305.486 376.213 304.541 374.815 303.515C372.802 302.051 371.402 300.125 370.588 297.723C367.91 289.837 364.891 282.058 362.51 274.076C361.055 269.189 358.709 265.282 354.552 262.361C352.438 260.883 351.34 258.79 351.371 256.14C351.436 249.137 350.305 242.298 348.547 235.55C348.198 234.156 347.28 233.026 345.911 232.525C340.631 230.622 335.34 229.094 329.669 231.115C328.454 231.559 326.871 230.883 325.568 231.198C324.762 231.394 323.766 232.42 323.591 233.235C323.242 234.895 323.276 236.675 323.331 238.395C323.534 243.958 323.842 249.502 324.089 255.065C324.217 257.915 323.724 260.591 321.75 262.823C319.552 265.313 318.864 268.2 319.047 271.513C319.187 273.737 319.412 275.585 321.427 276.911C323.198 278.072 324.89 279.717 325.258 281.703C325.787 284.658 328 287.451 326.423 290.717C326.162 291.278 326.178 292.194 326.462 292.732C327.925 295.476 329.497 298.175 331.148 300.801C331.286 301.036 332.415 300.897 332.884 300.605C334.564 299.579 336.178 299.352 337.544 300.931C340.266 304.108 343.009 307.188 347.254 308.436C347.703 308.574 348.156 309.561 348.177 310.167C348.253 311.892 348.146 313.61 348.018 315.335C347.937 316.437 346.605 317.029 345.682 316.426C343.653 315.103 341.648 313.719 339.612 312.391C338.175 311.435 336.803 310.321 335.244 309.634C332.715 308.53 330.024 307.776 327.456 306.747C325.218 305.865 323.044 304.805 320.835 303.829C317.563 304.468 316.071 301.352 313.594 300.255C308.695 298.094 303.811 296.721 298.447 297.697C297.767 297.827 297.079 297.976 296.395 297.989C290.409 297.997 284.701 297.269 279.859 293.113C277.51 291.101 274.764 289.542 272.193 287.796C271.518 287.331 269.951 287.926 269.489 288.751C269.32 289.054 269.098 289.339 268.988 289.662C268.047 292.638 268.968 295.081 271.374 297.021C274.06 299.198 278.018 299.221 280.138 302.372C280.443 302.826 281.382 302.931 282.057 303.048C283.512 303.291 284.675 304.061 285.554 305.155C287.52 307.572 289.4 310.049 291.293 312.529C292.169 313.691 292.033 315.34 290.928 316.285C288.881 318.063 286.351 319.376 285.634 322.323C285.582 322.519 285.004 322.796 284.871 322.728C284.339 322.401 283.627 322.038 283.429 321.516C282.949 320.25 282.878 318.82 282.375 317.564C281.695 315.875 279.496 314.902 278.104 315.536C275.627 316.666 273.46 318.622 270.443 318.235C270.185 318.217 269.716 318.517 269.625 318.773C268.548 321.485 266.394 322.085 263.758 321.916C261.182 321.754 258.647 322.566 257.151 324.424C255.271 326.766 252.499 327.23 250.28 328.765C249.586 329.256 248.335 328.938 247.328 328.987C247.315 328.345 247.214 327.685 247.315 327.056C247.821 324.148 246.765 321.822 244.901 319.752C242.614 319.553 240.846 320.122 240.09 322.61C239.931 323.124 239.198 323.847 238.76 323.819C236.632 323.751 236.153 325.938 234.685 326.591C233.125 327.29 231.371 327.57 229.699 327.987C227.24 328.601 225.447 330.047 223.796 331.976C219.989 336.469 216.138 340.948 211.085 344.119C209.802 344.921 209.215 346.043 209.03 347.505C208.821 349.228 208.555 350.948 208.167 352.637C208.018 353.248 207.531 353.866 207.069 354.331C204.276 357.088 198.707 357.427 196.652 355.072C195.278 353.514 193.742 352.11 192.308 350.601C191.01 349.228 190.997 347.111 192.431 345.994C194.042 344.725 195.854 343.689 197.56 342.548C198.597 341.854 198.848 339.898 197.946 338.836C196.613 337.257 195.051 335.866 193.862 334.19C191.604 330.974 188.465 329.708 184.825 330.42C182.03 330.974 179.391 330.861 176.671 330.36C176.413 330.313 176.043 330.572 175.829 330.794C175.323 331.295 175.305 332.039 175.973 332.537C180.968 336.273 182.408 341.305 181.563 347.254C181.38 348.622 181.247 350.019 181.276 351.405C181.294 352.838 181.777 354.255 183.127 354.882C185.717 356.077 186.491 358.234 186.509 360.802C186.527 362.175 186.387 363.559 186.243 364.932C186.092 366.271 184.533 367.586 183.365 367.352C181.323 366.944 179.274 366.574 177.258 366.038C174.312 365.268 171.858 365.527 169.952 368.317C169.008 369.716 167.749 371.024 166.359 371.98C164.296 373.413 162.946 375.331 161.525 377.32C158.489 381.596 156.497 383.228 161.824 388.926C162.278 389.414 162.609 390.067 162.893 390.683C163.556 392.103 163 393.392 162.244 394.591C161.457 395.846 159.78 396.553 158.698 395.974C153.799 393.416 148.185 392.38 143.781 388.785C143.03 388.182 141.828 388.135 140.834 387.845C139.95 387.587 138.631 388.182 138.271 389.064C137.734 390.346 137.252 391.646 136.764 392.938C136.196 394.382 136.595 395.739 137.525 396.812C139.583 399.195 141.836 401.336 145.324 401.383C145.976 401.39 146.638 401.764 147.236 402.08C148.305 402.602 148.542 403.638 148.531 404.695C148.508 406.337 146.641 408.023 145.082 407.783C141.656 407.235 138.214 406.77 135.859 403.685C134.516 401.928 132.376 401.568 130.355 401.046C128.913 400.686 127.875 399.699 127.534 398.289C126.783 395.23 125.849 392.296 124.021 389.678C122.759 387.874 122.911 385.888 123.171 383.726C123.771 378.537 122.191 375.908 117.453 373.979C115.498 373.183 113.712 372.502 112.296 370.789C110.849 369.046 108.424 368.184 107.532 365.866C107.412 365.866 107.289 365.843 107.151 365.843C107.125 365.634 106.992 365.527 106.937 365.357C106.314 365.078 105.845 364.647 105.558 364.029C105.375 363.971 105.266 363.83 105.05 363.817L104.982 363.285L105.305 363.574C105.347 363.773 105.485 363.864 105.561 364.026C106.262 364.224 106.713 364.671 106.94 365.355C107.102 365.425 107.224 365.54 107.401 365.597C107.425 365.702 107.511 365.762 107.534 365.864C110.606 365.817 113.365 366.908 116.168 368.017C123.576 370.928 131.208 373.008 139.056 374.332C145.051 375.347 150.816 374.517 156.341 372.066C157.28 371.646 158.242 371.124 158.93 370.39C162.296 366.772 164.865 362.669 165.412 357.641C165.561 356.339 165.394 354.663 164.669 353.65C162.505 350.603 160.933 346.986 157.11 345.299C155.585 344.636 154.359 343.232 153.108 342.042C151.577 340.601 150.013 339.784 147.773 339.403C144.438 338.81 141.275 337.32 138.498 335.004C135.865 332.793 132.879 330.955 129.912 329.188C121.375 324.127 118.913 323.472 109.279 323.485C107.902 323.485 106.536 324.069 105.177 324.056C103.472 324.043 101.741 323.798 100.067 323.438C98.5413 323.111 99.1437 322.054 99.5139 321.088C99.9103 320.031 99.6573 318.927 98.7916 318.272C97.7043 317.447 96.4422 316.831 95.2011 316.215C94.9925 316.11 94.7814 316.123 94.565 316.063H92.359C92.0383 316.228 91.7123 316.434 91.4255 316.75C89.9079 318.376 88.2627 319.449 85.9499 318.514C85.9081 318.507 85.8769 318.507 85.8587 318.494L85.9212 320.274L84.8131 321.809L82.9253 320.785L81.4702 321.3L81.6397 323.532L80.2734 325.495L78.3073 325.753L76.1771 327.81L76.1224 329.23L76.6776 330.553L76.0858 330.66L76.091 330.196L76.0807 330.809L75.048 331.065L74.7117 327.301L75.0271 330.859L71.1995 331.577L70 332.772L72.4015 333.125L71.7158 338.429L74.6178 344.08L77.5304 345.117L79.9319 349.398L84.2029 352.48L80.4429 361.567L83.1807 364.647L90.3721 382.129L89.1727 382.296L89.0032 388.811L90.5443 390.357L89.6863 390.693L90.8831 395.655L92.771 396.005L93.4541 397.89L92.9404 401.999L96.1997 405.429L95.5089 408.514L94.8204 412.625L98.0772 417.77L100.304 418.971L103.722 423.604L104.408 425.998L102.531 430.791L98.2467 439.188L94.3199 446.215L93.8009 449.123L90.5494 451.018L86.268 454.952L87.1232 455.986C87.1232 455.986 86.221 457.604 85.3475 459.277C85.6265 459.243 85.903 459.21 86.1846 459.186C86.8026 459.152 87.8716 459.361 88.0124 459.729C89.2614 462.929 92.711 462.125 94.8673 463.637C95.1463 463.835 95.5244 463.929 95.7512 464.161C95.9181 464.328 96.0302 464.837 95.9546 464.882C94.8099 465.636 93.6679 466.466 92.4346 467.038C90.5442 467.907 88.3435 468.515 87.2692 470.317C86.9745 470.805 86.6774 471.222 86.3566 471.583C86.3697 471.572 86.3827 471.572 86.3983 471.562L87.5821 474.446L87.4648 475.25L85.9838 475.926L85.3005 476.842L85.637 477.297L85.5197 479.134L81.0712 480.38L80.3829 481.304L82.2212 486.443L82.3282 487.467H82.9095L84.1532 488.049L87.1232 493.53L87.3527 494.434L87.9158 494.554L87.8063 495.702L86.4453 496.611L86.7843 498.438L85.8743 500.161L86.1454 499.633L87.3005 500.37V501.649L87.0319 502.763L87.8038 503.277L88.3226 504.904L88.1531 506.024L89.6004 508.511L90.8102 511.5L92.0853 512.792L92.3382 515.282L92.3329 515.157L92.9404 515.392L94.1999 516.073L96.1346 515.157L97.9677 517.901L100.014 516.875L102.184 517.112L103.433 519.963L105.832 518.355L108.46 517.446L109.135 518.702L110.507 519.039L113.933 519.843L115.078 522.135L114.272 524.184L115.529 526.238L115.761 528.637L119.075 533.894L122.72 537.549L123.401 539.956L126.373 541.211L129.68 544.062L129.797 545.669L131.507 546.693L130.595 549.089C130.595 549.089 128.889 551.029 128.54 551.029C128.204 551.029 124.329 551.146 124.329 551.146L123.179 550.123L121.805 552.167L122.373 554.114L123.398 556.518L125.114 560.055L125.745 562.88L127.166 563.078L128.887 562.23L128.704 560.517L130.076 559.309L134.866 560.854L142.399 559.658L144.461 564.289L146.68 565.999L145.656 567.884L148.399 570.455L151.986 569.593L153.361 571.316L154.901 573.365L157.645 578.505L160.38 581.938L162.09 580.567L165.339 581.588L166.872 581.426H168.765L172.192 579.369L174.752 583.473L178.004 586.566L180.225 585.702L187.078 587.412L191.015 588.612L194.785 587.412L196.491 592.042L194.95 594.614L193.403 594.95L192.718 598.555L194.95 599.753L195.122 602.327L194.603 605.744V608.151L191.349 608.999L189.124 609.349L186.387 612.429L185.876 616.885L184.82 618.284C185.422 618.295 186.019 618.271 186.619 618.344C187.153 618.399 187.675 618.42 188.191 618.459L188.421 618.237L188.999 617.853L188.673 618.493C188.514 618.485 188.355 618.469 188.191 618.459C186.569 620.101 184.979 621.751 183.315 623.353C182.113 624.505 182.173 625.763 182.822 627.11C183.292 628.089 183.518 629.078 182.942 630.054C181.219 632.988 179.925 636.22 176.809 638.125C176.457 638.337 176.327 639.569 176.598 639.976C178.572 642.837 180.76 645.231 184.47 646.23C188.825 647.392 192.676 649.817 195.914 653.13C199.839 657.155 204.665 659.841 209.687 662.308C214.808 664.816 217.23 669.254 217.561 674.858C217.582 675.185 217.543 675.498 217.514 675.814L219.765 677.372L221.311 678.57L224.907 678.745L225.762 677.881L227.472 678.233L230.729 680.452L232.951 681.475L232.667 681.35L239.542 679.512L240.83 679.859H245.534L246.111 680.301L246.306 678.654L249.558 677.544L254.345 680.196L257.596 680.455L260.681 682L261.192 679.257L259.651 677.022L257.596 675.921L258.457 672.569L261.023 673.094L264.874 676.349L265.99 678.398L270.183 678.656L270.777 677.121L273.171 676.004L276.438 672.086C275.791 671.527 275.176 670.932 274.464 670.421C269.979 667.278 267.176 662.966 266.131 657.674C265.2 653.054 263.114 649.308 259.461 646.377C257.615 644.899 257.357 642.832 257.912 640.702C258.441 638.713 259.124 636.747 259.865 634.829C260.509 633.166 261.635 631.827 263.367 631.198C267.041 629.858 270.227 627.927 272.412 624.546C272.949 623.708 273.799 622.975 274.657 622.466C274.67 622.453 274.686 622.442 274.704 622.442L270.955 619.169L268.897 619.404L266.159 618.263L265.711 616.206L269.134 616.439L262.97 607.749C262.97 607.749 260.686 606.154 259.317 606.154C257.946 606.154 255.894 605.235 255.894 605.235L255.213 606.384L252.47 604.092L251.101 600.437L248.137 599.067L249.5 591.531L248.817 585.355L252.017 581.478V578.5L254.525 577.362L257.946 581.016L259.088 584.449L264.115 584.681L264.339 581.016L262.29 574.618H267.541L267.992 571.418L267.077 570.058L270.506 566.393L271.872 566.858L273.014 563.647H275.296V559.992L280.779 562.057L278.725 564.798L281.463 564.563L284.652 562.284L288.526 560.225L290.589 562.974L292.643 564.114L295.608 562.284L298.346 564.798L302.215 566.858L306.103 569.82L308.16 571.415L308.846 574.161L310.215 570.058L311.587 568.45L314.084 570.745L316.377 571.65L317.964 573.245L320.019 571.65L320.708 568.22L323.456 566.631L325.278 567.08L326.186 566.171L328.467 565.487L330.295 568.682H332.579L332.809 566.628L334.183 566.393L337.14 565.939L340.561 566.858L338.965 568.682L341.476 571.415L346.271 571.648L349.465 573.021L351.755 572.788L351.981 570.275L352.206 569.134H354.036L356.544 569.818L361.34 569.134L360.651 561.144L357.679 560.225L355.624 557.946L351.298 557.027L350.375 554.059L351.755 553.375L352.665 551.548L353.35 550.175L352.894 548.348L351.757 546.742L355.408 541.718L358.372 541.263L361.342 541.718V539.658L358.586 537.611L356.537 538.079L351.974 537.157L352.425 535.565L354.028 535.787L351.509 533.738L350.824 530.759L352.654 530.075L354.245 528.937L356.299 530.075L357.9 529.856L359.045 530.54L360.187 529.167L362.015 527.34L364.513 529.167V527.34L371.133 525.734L373.409 525.05H375.018L377.524 522.772L379.808 522.317L382.317 521.393L383.685 522.317L384.374 519.339L386.661 518.431L388.254 516.606L390.076 517.747L396.478 514.314L401.038 512.489L402.404 511.114L405.599 511.349L404.91 508.838L407.424 508.148L408.795 505.854L412.902 505.402L416.777 505.635L421.11 507.224L424.078 505.851L426.359 509.973L429.329 513.171L429.102 517.509L428.417 518.647L429.559 520.02L431.389 519.569L432.974 520.477L433.897 520.02V518.196L435.039 517.963L435.498 519.104H436.635V517.512L437.089 516.371L439.138 518.65L440.288 522.08L441.657 523.221L443.023 522.315L441.879 520.942L443.704 520.02L446.906 521.391L449.644 520.942L450.324 522.08L448.958 524.142L448.507 526.872L450.783 527.105L453.526 525.51L458.308 526.87L459.45 525.964L459.229 524.356L462.194 523.218L465.385 521.628L466.989 519.336L468.817 516.603L471.789 514.544L475.888 514.309L476.115 516.136L473.836 517.961L489.126 530.535L511.029 557.267L514.231 554.975V552.926L515.824 551.553L517.871 553.146V555.424L520.158 555.892L522.674 556.803L525.185 555.892L527.915 557.03L530.433 556.111L532.715 555.202L532.253 553.38L536.587 552.694L542.303 554.064L544.811 557.484L546.623 560.46L549.833 561.149L552.336 563.198L553.71 566.174L556.897 569.823L560.328 568.685L564.896 567.536L568.544 564.568L569 567.536L571.963 570.28L575.842 571.888L575.198 572.41L578.127 573.227L577.884 572.342L580.171 569.139L585.417 568.685L586.567 566.631L589.529 565.023L589.756 562.744L593.417 559.546L597.286 555.424L597.059 552.694L600.71 553.146L602.762 550.864L613.035 548.807L616.216 551.553L623.069 550.864L625.35 554.064L633.345 559.311L639.736 557.032L644.291 557.719L650.463 557.951L655.477 557.719L657.078 554.975L655.25 552.926V546.748L651.602 544.469L649.548 540.35L650.231 536.463L652.974 532.811L655.719 532.359L654.794 530.065L656.856 527.554L662.332 529.608L669.409 533.041L676.25 533.727L683.325 534.414L684.691 540.125L690.172 546.058L697.697 549.945L704.779 548.115L710.489 544.918L719.162 544.012L727.829 545.826L733.31 548.805L736.506 548.575L742.209 554.284L749.059 555.657L761.838 555.889L767.54 552.924L773.251 550.399L777.12 549.945L779.41 546.745L782.838 543.777L785.349 540.579L789.229 539.439L794.019 540.347L797.891 542.401L803.145 540.347H806.798L808.744 542.078L811.651 542.172H813.698L817.291 543.72L822.941 538.914L826.709 537.716L828.592 535.494L828.756 532.921L825.676 532.571L825.512 530L824.991 526.23L826.365 522.813L825.856 518.872L824.824 515.951L826.709 512.87L827.39 510.647L829.439 508.412L829.272 505.157L827.387 501.563C827.387 501.563 825.854 498.819 825.51 498.305C825.165 497.796 823.283 499.506 823.283 499.506L821.737 499.853L820.373 498.819L822.083 494.366L824.133 490.596L829.786 489.91L832.346 488.2L835.947 487.174L839.712 486.313L841.767 484.428L845.352 484.089L849.456 485.29L852.205 487.174L853.74 487.002L857.164 488.025L857.852 487.002C857.852 487.002 861.79 487.174 862.301 487.174C862.814 487.174 864.014 489.059 864.014 489.059L867.098 491.119L869.836 493.515L871.891 495.577L873.088 499.683L875.654 500.033L875.137 502.763L879.706 508.138L881.533 512.244L882.678 512.142L884.954 516.478L888.607 518.992L890.323 524.017L892.029 525.612L892.367 528.807L895.507 532.239L900.813 533.263L904.411 533.098L908.343 536.348L912.283 535.15L915.016 537.557L921.349 542.346H926.655L925.8 544.745L928.024 547.314L927.172 551.947L932.473 557.082L935.907 556.398L937.443 557.946L942.746 556.91L945.145 554.166L948.044 550.06L951.142 548.178L955.418 544.409L958.834 545.432L960.38 548.862L962.605 552.806L963.629 556.228L961.397 558.972L961.749 563.078L962.258 568.22L963.629 573.707L962.605 579.186L961.058 586.563L958.498 589.646L958.321 598.208L957.129 598.892L954.216 596.323L952.162 591.703L946.167 594.261L950.79 604.381L950.957 611.234L952.67 612.607L952.331 617.224V619.968L948.042 619.796L947.883 623.403L947.899 623.205L948.389 624.09L950.102 626.486L950.397 626.627C951.064 626.024 951.742 625.429 952.365 624.776C953.322 623.8 954.274 622.79 955.116 621.706C956.334 620.104 956.354 617.59 958.623 616.775C961.569 615.718 962.795 618.718 964.923 619.626C967.316 620.636 969.54 620.892 971.926 619.767C974.153 618.717 976.093 617.378 977.663 615.402C980.296 612.111 982.445 608.456 983.822 604.585C986.04 598.385 989.73 592.755 990.896 586.148C991.122 584.809 991.623 583.368 992.452 582.311C996.757 576.798 997.193 570.204 997.785 563.686C998.277 558.139 1000.66 552.939 1000.51 547.288C1000.49 546.299 1000.82 545.134 1001.38 544.32C1003.79 540.807 1002.98 537.014 1002.6 533.234C1001.9 526.236 999.97 519.616 996.395 513.578C994.916 511.075 994.129 508.54 994.053 505.71C993.881 499.806 993.73 493.896 993.636 487.983C993.626 487.448 994.061 486.903 994.304 486.357C994.585 486.516 994.971 486.6 995.125 486.84C997.32 489.986 999.902 492.773 1002.47 495.6C1005.1 498.508 1004.55 502.883 1006.41 506.256C1007.24 507.78 1008.04 509.315 1008.83 510.863C1010.73 514.619 1012.17 518.517 1012.34 522.772C1012.36 523.474 1012.37 524.192 1012.56 524.844C1013.88 529.465 1014.25 534.359 1017.6 538.35C1019.05 540.081 1019.79 542.78 1019.99 545.116C1020.28 548.69 1021.3 551.95 1022.93 555.03C1024.1 557.273 1024.54 559.564 1024.44 562.057C1024.39 563.075 1024.44 564.146 1024.68 565.151C1025.27 567.602 1026.52 569.664 1028.96 570.651C1029.39 570.823 1030.61 570.34 1030.63 570.071C1030.77 568.722 1030.65 567.349 1030.58 565.986C1030.49 563.764 1031.59 563.169 1033.86 563.428C1036.14 563.694 1037.47 565.404 1039.32 566.255C1039.61 566.38 1040.2 566.45 1040.29 566.323C1040.64 565.78 1041.17 565.085 1041.08 564.534C1040.7 562.078 1039.83 559.457 1037.6 558.424C1033.15 556.377 1032.22 551.227 1028.35 548.815C1027.33 546.246 1026.02 543.743 1025.39 541.083C1024.57 537.734 1024.28 534.244 1023.81 530.798C1023.67 529.775 1023.7 528.728 1023.66 527.682C1023.61 526.416 1024.77 524.868 1026.06 524.682C1027.7 524.461 1029.38 524.353 1031.06 524.202C1031.5 522.458 1030.92 520.874 1030.05 519.425C1023.7 508.697 1018.19 497.428 1010.29 487.678C1007.78 484.593 1006.05 481.418 1006.24 477.273C1006.3 475.613 1005.95 473.694 1005.13 472.28C1002.4 467.518 1001.1 461.857 996.35 458.359C994.596 457.051 994.369 454.749 993.357 452.958C992.293 451.063 990.45 450.013 988.275 449.841C987.772 449.794 987.141 450.457 986.661 450.922C986.473 451.094 986.408 451.642 986.523 451.908C986.802 452.524 987.159 453.12 987.605 453.634C991.094 457.74 990.984 457.787 987.892 463.042C987.569 463.603 987.289 464.415 987.438 464.997C987.801 466.31 988.267 467.683 989.018 468.81C991.219 472.102 991.886 475.861 992.572 479.604C992.677 480.139 992.186 480.86 991.821 481.395C991.347 482.081 989.999 481.246 989.73 479.886C989.336 477.814 988.997 475.791 987.441 474.185C986.45 473.162 985.738 471.883 985.853 470.463C986.113 467.242 984.439 465.193 981.968 463.608C977.9 460.979 973.47 458.943 969.663 455.874C968.925 455.278 967.689 455.08 966.703 455.093C964.972 455.093 963.254 455.49 961.522 455.547C959.577 455.602 958.357 456.231 957.935 458.359C957.46 460.731 956.686 463.07 954.712 464.712C954.516 464.864 953.815 464.759 953.721 464.582C952.331 461.838 951.007 459.048 949.632 456.289C949.494 456.012 949.035 455.581 948.952 455.628C948.381 455.939 947.805 456.312 947.343 456.779C946.193 457.904 946.433 459.231 946.772 460.648C946.889 461.126 946.415 461.977 945.956 462.313C945.351 462.768 944.684 462.392 944.397 461.674C943.403 459.079 942.475 456.474 941.456 453.89C940.506 451.493 939.286 450.995 936.509 451.773C935.508 452.065 934.569 452.624 933.563 452.786C932.559 452.95 931.495 452.833 930.465 452.741C928.598 452.587 927.187 450.669 927.774 449.11C928.137 448.142 928.429 447.129 928.914 446.228C930.53 443.153 932.212 440.104 933.863 437.058C935.675 433.699 937.643 430.323 938.008 426.437C938.681 419.415 940.997 412.965 943.956 406.593C945.979 402.247 947.766 397.637 946.751 392.557C946.324 390.414 946.897 388.344 948.112 386.587C950.031 383.818 950.657 380.98 949.442 377.736C948.939 376.362 949.489 374.989 950.243 373.794C951.948 371.079 954.01 369.234 957.486 368.534C961.517 367.733 965.301 365.764 969.228 364.394C970.912 363.809 972.643 363.929 974.265 364.835C976.049 365.835 977.676 365.579 978.643 363.731C979.963 361.191 982.411 360.17 984.692 360.588C988.724 361.348 992.092 359.079 995.871 358.954C996.371 358.941 997.114 358.158 997.289 357.602C997.813 355.949 998.022 354.206 998.496 352.546C998.966 350.904 1000.83 349.635 1002.47 349.797C1007.29 350.262 1012.11 350.716 1016.92 351.308C1017.87 351.439 1018.84 352.102 1019.61 352.718C1020.02 353.034 1020.26 353.869 1020.16 354.394C1020.03 355.02 1019.38 355.524 1019.11 356.151C1018.43 357.678 1018.7 358.73 1019.84 359.873C1020.89 360.943 1022.35 361.744 1023.53 360.987C1026.98 358.79 1031.15 357.605 1033.54 353.895C1034.39 352.58 1035.67 352.347 1037.18 352.882C1038.61 353.384 1039.98 352.929 1040.87 351.755C1042.05 350.183 1044.73 349.471 1044.21 346.926C1043.67 344.294 1041.29 344.375 1039.24 344.122C1038.89 344.078 1038.55 344.015 1038.2 343.958C1037.09 343.798 1036.3 343.133 1035.91 342.133C1034.51 338.458 1034.08 334.722 1035.57 330.953C1035.84 330.3 1035.92 329.585 1036.23 328.966C1037.62 326.058 1037.84 323.043 1037.7 319.835C1037.54 315.693 1037.94 311.553 1037.54 307.376C1037.25 304.395 1038.82 302.022 1041.73 300.848C1043.99 299.929 1046.4 299.339 1048.5 298.164C1050.81 296.875 1052.96 296.569 1055.44 297.371C1056.91 297.851 1057.99 296.77 1059.16 296.024C1060.31 295.29 1061.44 295.731 1061.58 296.802C1061.89 299.211 1062.26 301.618 1062.43 304.024C1062.6 306.353 1063.83 307.932 1065.67 309.052C1067.67 310.274 1069.96 310.997 1071.81 312.568C1072.06 312.772 1073.19 312.38 1073.56 311.957C1074.23 311.216 1074.91 310.274 1075.12 309.321C1075.94 305.236 1076.83 301.14 1077.25 297.003C1077.54 294.129 1078.93 292.732 1081.48 291.834C1082.97 291.312 1082.89 289.72 1083.14 288.417C1082.92 288.313 1082.71 288.216 1082.52 288.065C1077.84 284.355 1076.39 279.075 1075.53 273.525C1075.48 273.246 1075.72 272.883 1075.89 272.593C1077.18 270.291 1080.59 269.265 1083.2 270.398C1083.96 270.724 1084.76 272.199 1084.27 273.003C1082.45 276.073 1082.95 278.994 1084.59 281.878C1086.64 285.475 1089.03 288.929 1088.69 293.408C1088.64 293.985 1089.2 294.687 1089.65 295.209C1092.1 298.13 1090.73 301.97 1092.09 305.147C1091.54 307.648 1089.53 309.183 1088.13 311.125C1087.92 311.404 1087.66 311.623 1087.43 311.905C1086.07 313.557 1085.52 315.327 1085.59 317.606C1085.73 323.093 1086.21 328.664 1083.86 333.947C1083.32 335.145 1083.4 336.67 1083.37 338.05C1083.25 343.266 1082.94 348.471 1083.22 353.66C1083.44 358.033 1082.92 361.93 1079.85 365.271C1079.18 365.991 1079 367.166 1078.39 367.991C1077.8 368.792 1076.97 369.445 1076.19 370.085C1073.4 372.303 1073.17 372.468 1074.89 374.574C1077.1 377.297 1077.35 380.249 1076.7 383.403C1076.37 385.089 1075.7 386.718 1075.09 388.333C1074.21 390.672 1074.17 393.022 1074.48 395.499C1075 399.699 1076.92 403.445 1078.03 407.436C1081.76 420.715 1089.41 431.884 1096.72 443.234C1098.79 446.422 1101.02 449.517 1102.93 452.822C1104.13 454.916 1105.21 457.325 1106.99 458.787C1109.55 460.896 1110.94 463.556 1112.21 466.372C1113.51 469.21 1114.59 472.141 1115.73 475.06C1116.95 478.213 1119.85 479.458 1122.44 481.05C1122.64 481.168 1123.13 480.922 1123.39 480.727C1125.42 479.095 1125.58 476.459 1126.71 474.339C1129.64 468.857 1129.7 463.279 1127.58 457.299C1125.34 451.008 1124.54 449.178 1131.67 445.667C1131.99 445.513 1132.27 445.307 1132.56 445.122C1133.64 444.401 1133.84 443.647 1133.17 442.571C1132.24 441.096 1131.17 439.723 1130.38 438.189C1129.76 436.977 1129.15 435.591 1129.12 434.268C1129.09 431.172 1129.23 428.032 1129.6 424.962C1129.87 422.79 1131.26 421.242 1133.38 420.391C1134.98 419.757 1136.54 419.021 1138.02 418.157C1139.38 417.366 1139.86 414.774 1138.87 413.518C1137.37 411.613 1135.85 409.715 1134.18 407.971C1129.76 403.33 1128.39 397.848 1129.38 391.638C1129.51 390.719 1130.51 389.764 1131.51 389.881C1132.2 389.962 1132.87 390.255 1133.55 390.278C1135.59 390.372 1137.55 387.741 1136.62 386.065C1135.26 383.671 1133.46 381.494 1132.33 379.007C1131.29 376.67 1129.86 375.945 1127.48 376.318C1126.97 376.402 1126.04 375.926 1125.85 375.457C1124.61 372.643 1122.89 369.894 1124.4 366.561C1124.79 365.689 1124.74 364.485 1124.55 363.512C1124.37 362.525 1123.94 361.463 1123.3 360.711C1121.89 359.066 1119.88 358.406 1117.81 358.09C1117.27 358.009 1116.47 358.51 1116.06 358.972C1115.45 359.648 1115.01 360.463 1114.53 361.243C1114.56 361.251 1114.57 361.277 1114.59 361.288C1114.66 361.486 1114.71 361.512 1114.77 361.637C1114.99 361.671 1115.17 361.708 1115.17 361.742C1115.17 362.233 1115 362.102 1114.77 361.637C1114.61 361.617 1114.45 361.58 1114.33 361.557C1114.39 361.45 1114.46 361.345 1114.53 361.243C1112.58 360.322 1111.34 358.8 1110.48 356.834C1108.91 353.216 1108.58 349.424 1108.78 345.584C1109.09 339.596 1108.76 333.788 1105.38 328.557C1105.02 327.998 1104.95 327.246 1104.77 326.58C1103.66 322.861 1105.45 319.825 1109.44 318.799C1110.07 318.627 1110.82 318.961 1111.51 318.904C1113.57 318.705 1114 318.452 1114.34 316.578C1114.66 314.868 1114.85 313.192 1116.06 311.785C1116.73 311.018 1118.1 310.845 1118.59 311.691C1119.45 313.192 1120.19 314.776 1121.18 316.204C1121.45 316.614 1122.43 316.836 1122.97 316.695C1123.55 316.557 1124.26 315.975 1124.43 315.427C1124.92 313.787 1125.22 312.067 1125.51 310.368C1125.96 307.877 1127.34 305.867 1128.91 304.017C1131.05 301.495 1134.12 300.576 1137.18 300.025C1139.35 299.634 1141.14 301.085 1142.85 302.26C1144.57 303.435 1146.21 304.703 1147.9 305.922C1148.47 306.316 1149.03 306.818 1149.67 307.005C1150.64 307.295 1151.69 307.4 1152.7 307.515C1153.65 307.624 1154.71 306.423 1154.67 305.565C1154.58 303.132 1152.73 301.059 1153.31 298.498C1153.86 296.128 1154.27 293.732 1154.93 291.38C1155.85 288.034 1156.36 284.669 1156.65 281.181C1157.07 275.992 1158.45 270.975 1161.34 266.477C1163.01 263.859 1164.23 261.032 1165.43 258.14C1167.26 253.694 1170.13 249.75 1173.71 246.438C1175.03 245.203 1176.7 244.61 1178.46 244.6C1180.89 244.574 1183.32 244.856 1185.74 244.89C1186.76 244.898 1187.85 244.793 1188.82 244.469C1189.36 244.284 1190.07 243.574 1190.1 243.062C1190.34 238.502 1190.49 233.978 1186.24 230.731C1185.22 229.953 1184.79 228.416 1183.99 227.291C1183.41 226.45 1182.84 225.299 1182 225.022C1178.11 223.675 1175.29 220.23 1171.15 219.428C1171.17 219.486 1171.19 219.554 1171.21 219.614L1170.38 219.843L1170.96 219.361C1171.03 219.368 1171.09 219.415 1171.15 219.428C1170.8 218.157 1170.48 216.868 1170.07 215.622C1169.24 213.101 1167.8 211.308 1164.8 211.61C1164.03 211.691 1163.42 211.506 1163.09 210.752C1162.81 210.12 1162.69 209.423 1162.4 208.796C1160.96 205.813 1159.92 205.004 1156.82 205.607C1153.55 206.246 1151.66 204.534 1149.79 202.443C1149.11 201.678 1149.42 200.08 1150.34 199.788C1151.64 199.37 1152.96 199.013 1154.3 198.65C1158.2 197.603 1159.97 194.732 1160.3 191.02C1160.65 186.88 1160.66 182.703 1160.64 178.553C1160.63 177.214 1160.17 175.817 1159.65 174.562C1158.97 172.977 1157.82 171.573 1157.21 169.968C1156.23 167.456 1154.65 165.968 1151.95 165.569C1149.38 165.172 1147.54 163.614 1146.15 161.523C1145.55 160.654 1145.21 159.719 1145.75 158.636C1146.21 157.709 1146.49 156.694 1146.97 155.775C1147.81 154.112 1149.44 153.914 1149.95 155.31C1150.84 157.715 1152.43 159.375 1154.72 160.568C1160.92 163.815 1161.48 163.65 1164.56 156.947C1164.83 156.326 1164.99 155.613 1165.36 155.044C1166.57 153.193 1168.44 152.275 1170.49 151.773C1172.04 151.39 1173.07 152.624 1174.07 153.52C1175.35 154.668 1176.51 155.973 1177.65 157.279C1179.54 159.419 1182.06 159.886 1184.22 158.487C1186.41 157.046 1188.56 156.569 1191.01 156.733C1192.74 156.837 1194.47 157.104 1196.21 157.049C1197.56 156.999 1198.94 156.636 1200.26 156.268C1200.9 156.094 1201.54 155.684 1202.01 155.219C1202.46 154.754 1203.08 154.021 1202.99 153.499C1202.48 150.178 1202.71 146.354 1197.81 145.853ZM564.038 106.526C564.216 106.701 564.401 106.873 564.583 107.037C564.31 106.959 564.038 106.886 563.772 106.792L563.384 106.165L564.038 106.526ZM103.48 382.625C103.352 382.58 103.237 382.533 103.117 382.484L102.82 382.029L103.352 382.244C103.389 382.452 103.436 382.497 103.48 382.625C103.634 382.682 103.759 382.742 103.905 382.8C103.743 383.194 103.605 383.058 103.48 382.625ZM85.079 485.125C84.9304 485.394 84.6017 485.603 84.3019 485.697C83.5535 485.919 83.0191 485.582 82.7114 484.791C82.3411 483.791 82.3046 482.799 83.1207 481.987C83.285 481.823 83.6917 481.904 83.9838 481.867C85.3892 482.463 85.8586 483.791 85.079 485.125ZM88.4609 493.152L88.0305 492.479L88.7216 492.899L89.1049 493.562L88.4609 493.152ZM105.091 352.603C105.396 352.23 105.707 351.857 106.009 351.486C105.709 351.937 105.399 352.392 105.091 352.843C105.242 353.553 105.065 353.639 104.645 353.089C104.624 353.055 104.943 352.765 105.091 352.603ZM114.355 461.478C114.053 461.653 113.777 461.875 113.479 462.037C111.816 462.945 110.877 462.83 109.884 461.77C106.531 458.223 104.366 453.858 101.717 449.836C101.365 449.314 101.185 448.486 101.316 447.883C101.835 445.437 102.958 443.347 105.261 442.114C105.561 441.95 105.918 441.906 106.252 441.801C106.862 442.075 107.579 442.242 108.103 442.647C110.298 444.323 112.429 446.067 114.58 447.789C115.119 448.217 115.688 448.638 116.17 449.115C120.76 453.579 120.053 458.314 114.355 461.478ZM128.582 413.834C128.086 413.461 127.432 413.181 127.166 412.685C126.926 412.252 127.156 411.576 127.171 411.02C127.685 411.226 128.326 411.307 128.652 411.683C129.025 412.111 129.153 412.785 129.286 413.367C129.312 413.461 128.824 413.672 128.582 413.834ZM142.852 448.82C142.474 449.335 141.812 449.763 141.189 449.927C140.477 450.097 139.932 449.567 139.89 448.8C139.724 445.727 138.146 443.623 135.437 442.352C133.069 441.237 131.75 439.353 130.996 436.922C130.504 435.361 130.918 434.221 132.548 433.988C133.958 433.79 135.22 433.432 136.266 432.454C136.769 431.986 137.239 431.509 137.721 431.031C137.807 431.37 137.904 431.694 137.974 432.031C138.871 435.813 140.92 438.977 143.022 442.167C143.744 443.258 143.927 444.714 144.367 445.996C143.804 447.064 143.447 448.019 142.852 448.82ZM157.167 460.585C156.899 460.606 156.497 460.327 156.375 460.081C156.278 459.86 156.497 459.502 156.56 459.199C156.852 459.233 157.235 459.152 157.431 459.314C158.192 459.967 158.088 460.476 157.167 460.585ZM168.301 486.01C166.455 486.754 165.013 486 163.764 484.731C163.021 483.977 162.721 483.042 163.232 481.995C163.378 481.695 163.511 481.358 163.579 481.035C163.756 480.173 163.916 479.299 164.072 478.435C164.015 478.37 163.942 478.309 163.882 478.236C163.694 478.145 163.509 478.064 163.311 477.97C162.857 477.954 162.422 477.923 162.176 477.691C161.704 477.226 162.15 477.085 162.969 477.821C163.06 477.889 163.196 477.926 163.311 477.973C163.597 477.986 163.897 477.986 164.158 478.02C164.122 478.161 164.103 478.294 164.072 478.435C165.665 480.079 167.269 481.706 168.846 483.366C169.535 484.102 169.172 485.66 168.301 486.01ZM257.02 518.491L257.286 517.697L257.557 517.966L257.02 518.491ZM349.494 283.447L348.897 283.087L349.624 282.946L349.494 283.447ZM410.97 310.216C410.832 310.402 410.501 310.436 410.261 310.543C408.102 306.669 404.866 303.609 402.287 300.038C402.139 299.822 402.12 299.18 402.279 299.06C402.757 298.705 403.463 298.154 403.896 298.282C405.181 298.655 406.587 299.073 407.549 299.918C409.08 301.26 410.31 302.933 411.609 304.513C412.615 305.724 412.263 308.53 410.97 310.216ZM413.932 318.715C413.671 318.569 413.199 318.436 413.189 318.277C413.108 317.476 413.499 317.416 414.18 318.146C414.091 318.332 414.016 318.522 413.932 318.715ZM434.531 267.548C433.733 268.675 432.669 268.981 432.411 268.164C432.325 267.897 432.27 267.561 432.359 267.315C432.755 266.154 433.626 265.571 434.445 265.966C434.669 266.057 434.771 266.443 434.922 266.699C434.794 266.978 434.703 267.292 434.531 267.548ZM477.497 509.172C476.848 509.219 476.183 509.161 475.546 509.057C475.343 509.02 475.189 508.704 475.012 508.519C475.943 508.274 476.866 508.018 477.812 507.833C477.883 507.822 478.065 508.331 478.201 508.592C477.958 508.798 477.739 509.159 477.497 509.172ZM480.524 125.359C479.739 124.72 478.949 124.093 478.156 123.462C478.016 123.255 477.872 123.054 477.737 122.846C477.961 122.973 478.196 123.101 478.425 123.227C479.184 123.858 479.927 124.495 480.686 125.122L480.86 125.706L480.524 125.359ZM493.134 89.172L493.173 88.6578L493.814 88.9032L493.134 89.172ZM516.092 148.644C516.009 148.636 515.926 148.657 515.832 148.657C515.409 150.81 514.976 152.951 514.593 155.102C514.361 156.336 513.42 156.506 512.465 156.634C510.009 156.984 509.829 158.868 509.535 160.669C509.6 160.73 509.678 160.763 509.749 160.823C510.437 161.513 511.117 162.21 511.808 162.904C512.57 163.533 513.316 164.152 514.066 164.776L514.239 165.363L513.9 165.01C513.12 164.394 512.332 163.776 511.553 163.16C510.851 162.465 510.16 161.763 509.472 161.079C509.49 160.938 509.514 160.808 509.535 160.669C507.835 159.252 505.193 159.067 504.109 156.984C503.214 155.248 502.813 153.24 502.294 151.319C502.062 150.447 502.009 149.518 501.903 148.597C501.824 148.539 501.738 148.469 501.658 148.422L501.167 148.119L501.884 148.362C501.892 148.432 501.897 148.513 501.903 148.597C502.933 149.27 503.897 150.037 505.005 150.526C507.193 151.512 509.464 151.873 511.576 150.293C512.857 149.341 514.202 148.597 515.832 148.654C515.845 148.573 515.858 148.49 515.879 148.422C516.092 148.351 516.225 148.205 516.411 148.119C516.314 148.309 516.16 148.424 516.092 148.644ZM528.475 140.69C525.824 142.146 523.242 143.679 520.924 145.694C520.395 146.169 519.341 146.062 518.421 146.099C518.374 146.179 518.317 146.271 518.254 146.365C518.051 146.453 517.915 146.608 517.72 146.715C517.816 146.503 517.967 146.352 518.012 146.109C518.132 146.085 518.29 146.099 518.418 146.099C519.049 145.062 519.599 143.982 520.337 143.037C521.696 141.306 523.159 139.664 524.58 137.999C524.575 137.999 524.559 137.991 524.559 137.991C524.488 137.886 524.423 137.779 524.369 137.688C522.147 137.631 520.09 137.27 519.373 134.652C519.271 134.234 519.826 133.59 520.183 133.138C520.283 133.01 520.859 133.115 521.08 133.287C521.61 133.66 522.142 134.094 522.499 134.626C523.174 135.608 523.756 136.652 524.371 137.685C524.525 137.685 524.674 137.704 524.83 137.704L524.582 137.996C525.568 138.207 526.58 138.348 527.516 138.685C528.024 138.868 528.467 139.369 528.832 139.813C528.932 139.943 528.702 140.562 528.475 140.69ZM543.072 139.395L542.363 139.045L543.124 138.86L543.072 139.395ZM558.007 179.97C557.887 179.902 557.76 179.829 557.635 179.748L557.452 179.354L557.921 179.482C557.927 179.748 557.971 179.822 558.007 179.97C558.148 180.062 558.284 180.145 558.414 180.229C558.208 180.553 558.096 180.393 558.007 179.97ZM663.756 477.192C663.544 477.357 663.044 477.427 662.872 477.276C661.07 475.704 659.057 474.287 658.554 471.718C658.481 471.379 658.528 471.008 658.603 470.679C658.856 469.599 659.37 469.505 659.951 470.46C660.491 471.345 660.947 472.29 661.38 473.102C662.314 474.245 663.203 475.289 664.021 476.383C664.126 476.521 663.951 477.041 663.756 477.192ZM663.766 467.166C663.216 466.746 663.424 466.453 664.334 466.503C664.415 466.503 664.488 466.84 664.564 467.015C664.295 467.072 663.909 467.283 663.766 467.166ZM726.483 496.292C725.534 497.342 725.039 498.72 725.813 500.116C726.452 501.307 726.947 502.168 726.178 503.75C723.529 509.145 719.73 513.581 715.154 517.311C713.117 518.973 711.845 520.662 711.652 523.291C711.47 525.528 710.077 527.058 708.158 528.141C706.043 529.337 703.879 530.469 701.334 530.281C700.695 530.232 700.054 529.898 699.436 529.626C699.392 529.605 699.567 528.989 699.713 528.687C700.513 527.212 701.314 525.732 702.13 524.254C702.057 524.189 701.976 524.142 701.908 524.069C701.126 524.385 701.011 524.233 701.59 523.625C701.775 523.818 701.968 524.004 702.164 524.173C702.151 524.197 702.135 524.231 702.13 524.254C703.105 525.189 704.286 525.732 705.577 525.095C706.44 524.661 707.386 523.837 707.694 522.962C708.857 519.684 710.231 516.567 712.226 513.693C713 512.576 713.386 511.179 713.866 509.887C714.729 507.634 715.355 505.261 716.374 503.084C720.924 493.361 722.113 483.227 720.439 472.689C720.348 472.06 720.609 471.35 720.81 470.713C720.888 470.421 721.266 469.956 721.427 469.993C722.066 470.118 723.052 470.249 723.224 470.669C724.773 474.519 725.56 478.576 726.097 482.682C726.415 485.091 726.428 487.545 727.68 489.735C729.112 492.27 728.277 494.303 726.483 496.292ZM784.596 153.671C782.987 154.381 781.297 153.708 780.486 152.089C780.168 151.486 780.606 150.776 781.391 150.797C782.674 150.844 783.941 151.168 785.211 151.447C785.383 151.486 785.477 151.914 785.618 152.16C785.276 152.684 785.062 153.46 784.596 153.671ZM817.194 115.135C816.522 115.855 815.844 116.578 815.124 117.252C814.908 117.463 814.529 117.487 814.214 117.588C813.507 117.646 813.025 117.285 812.895 116.505C812.582 114.586 813.497 113.715 815.93 113.748C816.542 113.748 817.163 114.109 817.765 114.32C817.567 114.589 817.424 114.892 817.194 115.135ZM827.121 123.07C826.868 124.31 826.12 125.448 825.528 126.602C825.442 126.766 824.878 126.8 824.61 126.696C824.362 126.589 824.013 126.218 824.039 126.012C824.274 123.871 824.563 121.734 824.847 119.601C824.759 119.577 824.699 119.53 824.618 119.52L824.287 118.74L824.884 119.248C824.865 119.366 824.852 119.481 824.847 119.598C826.565 120.086 827.481 121.264 827.121 123.07ZM871.247 465.373C871.093 465.501 870.929 465.621 870.77 465.746L870.303 466.049L870.533 465.501C870.78 465.456 871.007 465.422 871.247 465.373C871.552 465.156 871.855 464.921 872.16 464.697C872.199 464.864 872.256 465.036 872.308 465.2C871.956 465.255 871.599 465.315 871.247 465.373ZM965.843 139.421C965.46 139.04 965.155 138.596 964.829 138.153C964.685 138.173 964.542 138.187 964.399 138.187C964.237 138.027 964.078 137.86 963.919 137.706C964.169 137.779 964.414 137.86 964.649 137.933C964.709 138.012 964.774 138.085 964.829 138.153C965.588 138.085 966.391 137.907 966.618 139.095C966.633 139.165 965.924 139.492 965.843 139.421ZM1144.51 199.757C1143.57 200.388 1142.51 201.153 1141.38 201.769C1140.69 202.153 1139.51 201.433 1139.08 200.475C1138.73 199.712 1139.03 199.245 1139.89 199.044C1141.18 198.757 1142.45 198.407 1143.75 198.151C1144 198.102 1144.4 198.36 1144.54 198.593C1144.68 198.801 1144.55 199.175 1144.51 199.757ZM85.757 318.475C83.7857 317.758 81.8483 317.972 79.8119 318.324C81.8483 317.972 83.8014 317.758 85.757 318.475ZM1031.3 524.479C1031.27 524.374 1031.23 524.301 1031.21 524.197C1031.17 524.197 1031.12 524.207 1031.06 524.207C1031.05 524.265 1031.06 524.325 1031.04 524.385C1031.15 524.387 1031.19 524.466 1031.3 524.479ZM93.6053 315.847C93.9286 315.847 94.2389 315.985 94.5622 316.079H94.7604C94.3693 315.928 93.9886 315.857 93.6053 315.847ZM245.125 319.486C244.987 319.486 244.841 319.499 244.695 319.499C244.77 319.58 244.833 319.671 244.901 319.754H244.924C244.992 319.66 245.065 319.58 245.125 319.486ZM246.869 318.287C246.684 318.162 246.176 318.193 246.006 318.358C245.675 318.684 245.409 319.091 245.125 319.486C245.6 319.499 246.064 319.52 246.512 319.452C247.425 319.3 247.576 318.823 246.869 318.287ZM590.937 148.27C590.979 148.406 591.018 148.424 591.06 148.623C591.122 148.623 591.182 148.623 591.245 148.61C591.268 148.544 591.286 148.474 591.299 148.393C591.203 148.354 591.06 148.309 590.937 148.27ZM1035.77 528.734C1035.63 528.595 1035.48 528.467 1035.34 528.329C1035.18 528.305 1035.09 528.198 1034.96 528.151C1034.98 528.316 1035.1 528.397 1035.1 528.585C1035.32 528.632 1035.54 528.689 1035.77 528.734ZM590.496 148.111C590.486 148.122 590.702 148.192 590.937 148.268C590.775 147.787 590.614 147.636 590.496 148.111ZM1034.96 528.151C1034.82 527.337 1034.34 526.805 1033.55 526.525C1033.64 527.397 1034.15 527.909 1034.96 528.151ZM1033.55 526.525C1033.53 526.376 1033.42 526.314 1033.43 526.141C1033.3 526.152 1033.21 526.102 1033.1 526.102C1033.12 526.196 1033.2 526.241 1033.21 526.348C1033.35 526.382 1033.42 526.481 1033.55 526.525ZM132.058 79.1666C129.015 79.2841 128.436 81.3514 128.248 83.7373C130.978 84.2855 131.038 84.3795 130.733 86.5643C130.597 87.5902 130.271 88.6108 130.285 89.6367C130.318 92.3201 131.768 93.8916 134.602 94.4763C135.63 94.6851 136.618 95.001 137.656 95.1497C139.171 95.3977 140.216 94.6721 141.137 93.4765C142.219 92.0591 143.09 90.6156 143.199 88.7988C143.285 87.3814 143.557 85.9456 144.753 85.0764C147.35 83.1891 147.661 79.6913 150.25 77.7022C151.679 76.5954 151.561 74.2801 150.568 72.9566C149.118 71.025 147.687 69.0828 146.12 67.2582C145.794 66.8849 144.826 66.8014 144.255 66.9397C141.046 67.7228 140.237 68.4172 140.089 71.8289C139.971 74.6533 138.678 76.3527 136.404 77.6213L136.618 77.3968C136.545 77.4229 136.467 77.3968 136.386 77.4307C136.386 77.4542 136.394 77.5012 136.399 77.5352C135.168 78.6446 133.692 79.0988 132.058 79.1666ZM1033.1 526.102C1032.86 525.16 1032.29 524.57 1031.3 524.479C1031.53 525.432 1032.08 526.037 1033.1 526.102ZM117.724 84.7711C120.387 85.4158 123.072 86.0057 125.776 86.4155C127.755 86.7079 127.575 84.8911 127.985 83.6929C127.64 83.2753 127.265 82.8759 127.017 82.4008C126.042 80.5161 126.071 78.702 127.189 77.804C128.532 76.7599 130.026 75.9924 131.789 76.9634C133.257 77.7805 134.788 77.9424 136.391 77.4307C136.282 76.8199 136.287 76.0943 135.93 75.7236C133.745 73.3847 130.89 72.1135 127.836 71.5235C126.564 71.2808 124.95 71.4504 123.86 72.0821C120.543 73.9694 117.954 76.7468 115.727 79.8166C114.569 81.4115 115.706 84.2855 117.724 84.7711ZM937.75 447.588C937.706 447.708 938.201 448.186 938.36 448.144C939.072 447.975 939.349 447.437 939.098 446.753C939.01 446.51 938.684 446.335 938.467 446.137C938.217 446.612 937.917 447.077 937.75 447.588ZM173.897 35.5686C174.643 35.5686 174.963 35.5503 175.297 35.5686C176.593 35.6625 177.811 33.7231 177.274 32.7207C176.893 32.0107 175.743 31.4416 174.864 31.3111C173.459 31.1127 171.897 32.6633 172.385 33.6839C172.765 34.467 173.501 35.0909 173.897 35.5686ZM168.09 63.6612C168.614 63.9039 169.055 64.3633 169.535 64.7548C169.665 64.7052 169.795 64.674 169.915 64.627L170.103 65.1516L169.683 64.8854C169.634 64.841 169.582 64.8018 169.535 64.7575C168.348 65.1386 167.136 65.478 166.022 66.0262C165.483 66.2924 164.93 67.0494 164.878 67.6158C164.833 68.1274 165.363 68.8818 165.853 69.2003C168.515 70.8996 172.012 69.9442 174.692 71.9568C175.3 72.3953 176.695 71.9098 177.686 71.6775C178.33 71.5261 179.318 71.1737 179.427 70.7378C180.28 67.3992 183.018 65.8486 185.425 63.93C186.908 62.7449 186.866 61.5572 185.26 59.4637C185.059 59.2079 184.697 59.0696 184.421 58.8686L184.687 58.5918C184.593 58.5918 184.483 58.5918 184.395 58.5918L184.413 58.7798C183.766 59.2105 183.117 59.1061 182.455 58.7668C182.429 58.7172 182.405 58.6728 182.371 58.6284C182.316 58.6284 182.246 58.6284 182.186 58.6415L182.486 58.8398C181.247 58.2551 179.946 57.7775 178.783 57.0701C178.262 56.7594 177.586 55.8744 177.688 55.4281C178.708 51.322 175.274 47.4482 177.083 43.2873C177.227 42.9819 176.473 42.0527 175.954 41.7394C173.055 39.9357 170.061 41.1782 169.842 44.3576C169.602 47.7772 169.616 51.1837 167.553 54.2195C166.883 55.188 167.631 56.1277 168.635 56.6863C168.914 56.8351 169.29 57.057 169.36 57.3128C169.535 57.9758 169.057 58.2812 168.16 58.3491C166.492 58.5005 164.21 58.2368 163.887 60.2468C163.402 63.2226 166.377 62.8363 168.09 63.6612ZM175.834 60.9307L176.33 61.1265L175.566 60.9881L175.386 60.2651L175.834 60.9307ZM127.985 83.6929C128.076 83.7973 128.136 83.9017 128.23 84.0061C128.23 83.9122 128.248 83.8313 128.248 83.7373C128.141 83.7138 128.112 83.7033 127.99 83.6799L127.985 83.6929ZM946.738 444.088C944.955 443.294 942.97 444.226 941.907 446.359C941.223 447.727 942.222 449.241 944.279 449.904C944.903 450.115 945.552 450.24 946.464 450.483C947.103 450.055 948.107 449.674 948.592 448.94C949.773 447.194 948.855 445.028 946.738 444.088ZM183.513 55.1827C183.12 54.846 182.348 54.8199 181.774 54.8669C180.869 54.9373 180.603 55.5194 181.015 56.2947C181.438 57.0909 181.92 57.8531 182.366 58.6231C183.041 58.6231 183.717 58.5997 184.389 58.5867C184.267 57.4042 184.559 56.0807 183.513 55.1827ZM197.176 86.6949C197.268 87.987 198.577 89.1251 199.857 89.0102C201.69 88.8562 202.968 87.5197 202.892 85.8465C202.827 84.6927 201.455 83.5416 200.144 83.5416C198.368 83.5546 197.059 84.9512 197.176 86.6949ZM178.525 78.2582C178.069 78.3783 177.581 79.2841 177.55 79.8427C177.42 82.4244 178.676 84.5074 180.277 86.3895C181.044 87.3135 182.981 87.8486 184.092 87.3318C185.336 86.7523 186.454 85.6481 187.737 85.4471C189.748 85.1469 190.705 84.1106 191.403 82.3642C191.899 81.0852 192.684 79.9236 193.015 79.2919C194.026 77.0861 193.742 76.1621 192.092 75.2694C190.882 74.6298 189.63 74.0007 188.332 73.5596C187.75 73.3508 186.668 73.3508 186.376 73.711C184.335 76.2718 181.584 77.4568 178.525 78.2582ZM181.925 44.3864C182.256 43.679 181.985 43.1072 181.292 42.7705C181.031 42.9689 180.642 43.1073 180.543 43.3605C180.231 44.0835 180.486 44.7022 181.203 44.958C181.375 45.0181 181.8 44.6396 181.925 44.3864ZM185.093 69.9651L185.388 70.7091L185.823 70.033L185.093 69.9651ZM1118.86 332.898C1118.05 333.493 1117.21 334.109 1116.52 334.824C1115.3 336.116 1114.62 337.609 1115.23 339.481C1115.94 341.747 1116.59 344.062 1117.29 346.343C1117.34 346.526 1117.7 346.612 1117.93 346.738C1118.15 346.479 1118.5 346.26 1118.57 345.957C1119.3 343.201 1121.36 341.272 1122.81 338.967C1123.86 337.301 1123.37 335.116 1121.66 333.417C1120.92 332.699 1119.55 332.396 1118.86 332.898ZM150.87 91.9756C150.907 92.0695 150.938 92.1766 150.98 92.2758C151.04 92.2549 151.113 92.2079 151.183 92.1818C151.207 92.1139 151.238 92.046 151.251 91.9756C151.129 91.9756 150.998 91.9756 150.87 91.9756ZM147.911 88.0757C147.371 88.1723 146.477 88.7962 146.511 89.1356C146.573 90.0231 146.847 91.3804 147.418 91.6127C148.456 92.0199 149.687 91.926 150.87 91.9756C150.485 90.8322 150.164 89.6863 149.606 88.6343C149.387 88.2402 148.456 87.9948 147.911 88.0757ZM150.375 94.8235C150.315 95.3586 150.69 96.1495 151.118 96.5097C152.495 97.6478 155.392 97.1858 156.461 95.7318C156.63 95.4995 156.823 95.0767 156.722 94.9044C156.072 93.7663 155.553 92.4271 154.589 91.6258C153.46 90.673 152.302 91.6728 151.183 92.1818C150.873 93.0537 150.477 93.9307 150.375 94.8235ZM169.441 76.2587C168.473 76.0733 167.498 75.7601 166.513 75.7132C165.892 75.6792 165.172 75.922 164.651 76.2717C164.155 76.6085 163.717 77.1905 163.49 77.7622C163.23 78.4122 163.647 79.1457 164.432 79.1927C167.05 79.3415 169.373 80.4353 171.785 81.2706C171.803 80.4222 171.814 79.5634 171.764 78.7124C171.67 76.7338 171.561 76.6554 169.441 76.2587ZM143.293 61.894C143.559 61.8235 143.89 61.4528 143.958 61.1735C144.143 60.3956 143.796 59.7769 143.032 59.696C142.261 59.6099 141.843 60.1476 141.807 60.9307C141.989 61.6955 142.493 62.0819 143.293 61.894ZM171.785 81.2706C171.785 81.4246 171.795 81.5733 171.795 81.7274C171.889 81.7274 171.996 81.7274 172.095 81.7274C172.1 81.6073 172.1 81.5055 172.106 81.4037C171.996 81.3541 171.897 81.3071 171.785 81.2706ZM175.42 82.6671C174.877 82.3643 174.366 81.9466 173.785 81.7979C173.253 81.6673 172.671 81.7169 172.095 81.7274C172.087 82.3538 172.072 82.9804 172.051 83.6121C172.619 83.6121 173.198 83.646 173.714 83.5154C174.314 83.3666 174.849 82.9569 175.42 82.6671ZM165.566 88.6578C167.902 87.5771 169.545 85.6011 171.417 83.9122C169.271 83.8574 167.125 83.7739 164.974 83.7399C163.817 83.7295 162.768 85.0659 162.849 86.6844C162.88 87.2769 163.245 88.0444 163.712 88.3812C164.174 88.7153 165.076 88.8823 165.566 88.6578ZM172.051 83.6121C171.941 83.6121 171.832 83.6121 171.727 83.6121C171.623 83.7139 171.529 83.8052 171.417 83.9096L172.04 83.9357C172.046 83.8313 172.046 83.7139 172.051 83.6121Z" fill="#EEEEF0"/>
</svg>
