<svg width="1452" height="1085" viewBox="0 0 1452 1085" fill="none" xmlns="http://www.w3.org/2000/svg">
<path fill-rule="evenodd" clip-rule="evenodd" d="M1189.59 542.272C1141.28 542.272 1102.12 581.43 1102.12 629.734V664.718C1102.12 713.022 1141.28 752.18 1189.59 752.18C1237.89 752.18 1277.05 713.022 1277.05 664.718V629.734C1277.05 581.43 1237.89 542.272 1189.59 542.272ZM87.5799 542.272C39.2761 542.272 0.118164 581.43 0.118164 629.734V664.719C0.118164 713.022 39.2761 752.18 87.5799 752.18C135.884 752.18 175.042 713.022 175.042 664.719V629.734C175.042 581.43 135.884 542.272 87.5799 542.272ZM734.819 629.734C734.819 581.43 773.977 542.272 822.281 542.272C870.584 542.272 909.742 581.43 909.742 629.734V822.15C909.742 870.453 870.584 909.611 822.281 909.611C773.977 909.611 734.819 870.453 734.819 822.15V629.734ZM454.884 542.272C406.58 542.272 367.422 581.43 367.422 629.734V997.073C367.422 1045.38 406.58 1084.53 454.884 1084.53C503.188 1084.53 542.346 1045.38 542.346 997.073V629.734C542.346 581.43 503.188 542.272 454.884 542.272Z" fill-opacity="0.4" fill="white"/>
<path fill-rule="evenodd" clip-rule="evenodd" d="M629.813 542.263C678.116 542.263 717.274 503.105 717.274 454.801V87.4617C717.274 39.1579 678.116 0 629.813 0C581.509 0 542.351 39.158 542.351 87.4617V454.801C542.351 503.105 581.509 542.263 629.813 542.263ZM1084.58 454.801C1084.58 503.105 1045.42 542.263 997.118 542.263C948.814 542.263 909.656 503.105 909.656 454.801V262.385C909.656 214.081 948.814 174.923 997.118 174.923C1045.42 174.923 1084.58 214.081 1084.58 262.385V454.801ZM262.417 542.263C310.721 542.263 349.879 503.105 349.879 454.801C349.879 406.497 310.721 367.339 262.417 367.339C214.114 367.339 174.956 406.497 174.956 454.801C174.956 503.105 214.114 542.263 262.417 542.263ZM1364.42 542.263C1412.72 542.263 1451.88 503.105 1451.88 454.801C1451.88 406.497 1412.72 367.339 1364.42 367.339C1316.12 367.339 1276.96 406.497 1276.96 454.801C1276.96 503.105 1316.12 542.263 1364.42 542.263Z" fill="white" fill-opacity="0.2"/>
</svg>
