<svg width="1149" height="713" viewBox="0 0 1149 713" fill="none" xmlns="http://www.w3.org/2000/svg">
<g clip-path="url(#clip0_2350_5245)">
<rect width="1149" height="713" rx="80" fill="#C5C1DD"/>
<path d="M-452.906 81.6085C-519.949 78.1671 -631.42 120.536 -678.775 142.15L-821.562 1403.04C-686.694 1440.34 -604.347 1248.01 -450.907 1224.64C-311.077 1203.34 -84.7892 1467.52 155.5 1403.85C253.251 1377.95 275.966 1272.82 378.5 1263C464.346 1254.78 505.634 1348.88 597.5 1348.88C742 1348.88 813.406 1286.72 933.992 1348.88C1044.4 1405.81 1166.41 1427.26 1228.18 1403.85C1289.96 1380.45 1399.33 1405.04 1467.82 1326.93C1522.61 1264.44 1497.33 1160.13 1509.48 1177.2L1507.99 145.49C1417.86 150.354 1288.68 331.5 1121 331.5C908 331.5 866.998 215.804 819.15 196.263C771.302 176.722 720.187 183.588 675.32 181.287C614.904 178.189 539.474 115.256 461.5 127.5C388.613 138.945 347.758 238.208 277.5 236.5C207.242 234.792 207.102 204.71 129.044 164.635C50.9854 124.56 19.7807 155.395 -38.076 146.565C-94.3027 137.984 -162.131 88.9422 -237.458 71.7866C-315.61 53.9876 -369.103 85.9104 -452.906 81.6085Z" fill="#C5C1DD"/>
<path d="M-452.906 81.6085C-519.949 78.1671 -631.42 120.536 -678.775 142.15L-821.562 1403.04C-686.694 1440.34 -604.347 1248.01 -450.907 1224.64C-311.077 1203.34 -84.7892 1467.52 155.5 1403.85C253.251 1377.95 275.966 1272.82 378.5 1263C464.346 1254.78 505.634 1348.88 597.5 1348.88C742 1348.88 813.406 1286.72 933.992 1348.88C1044.4 1405.81 1166.41 1427.26 1228.18 1403.85C1289.96 1380.45 1399.33 1405.04 1467.82 1326.93C1522.61 1264.44 1497.33 1160.13 1509.48 1177.2L1507.99 145.49C1417.86 150.354 1288.68 331.5 1121 331.5C908 331.5 866.998 215.804 819.15 196.263C771.302 176.722 720.187 183.588 675.32 181.287C614.904 178.189 539.474 115.256 461.5 127.5C388.613 138.945 347.758 238.208 277.5 236.5C207.242 234.792 207.102 204.71 129.044 164.635C50.9854 124.56 19.7807 155.395 -38.076 146.565C-94.3027 137.984 -162.131 88.9422 -237.458 71.7866C-315.61 53.9876 -369.103 85.9104 -452.906 81.6085Z" fill="url(#paint0_linear_2350_5245)"/>
<path d="M-452.906 81.6085C-519.949 78.1671 -631.42 120.536 -678.775 142.15L-821.562 1403.04C-686.694 1440.34 -604.347 1248.01 -450.907 1224.64C-311.077 1203.34 -84.7892 1467.52 155.5 1403.85C253.251 1377.95 275.966 1272.82 378.5 1263C464.346 1254.78 505.634 1348.88 597.5 1348.88C742 1348.88 813.406 1286.72 933.992 1348.88C1044.4 1405.81 1166.41 1427.26 1228.18 1403.85C1289.96 1380.45 1399.33 1405.04 1467.82 1326.93C1522.61 1264.44 1497.33 1160.13 1509.48 1177.2L1507.99 145.49C1417.86 150.354 1288.68 331.5 1121 331.5C908 331.5 866.998 215.804 819.15 196.263C771.302 176.722 720.187 183.588 675.32 181.287C614.904 178.189 539.474 115.256 461.5 127.5C388.613 138.945 347.758 238.208 277.5 236.5C207.242 234.792 207.102 204.71 129.044 164.635C50.9854 124.56 19.7807 155.395 -38.076 146.565C-94.3027 137.984 -162.131 88.9422 -237.458 71.7866C-315.61 53.9876 -369.103 85.9104 -452.906 81.6085Z" fill="url(#paint1_linear_2350_5245)"/>
<path d="M-452.906 81.6085C-519.949 78.1671 -631.42 120.536 -678.775 142.15L-821.562 1403.04C-686.694 1440.34 -604.347 1248.01 -450.907 1224.64C-311.077 1203.34 -84.7892 1467.52 155.5 1403.85C253.251 1377.95 275.966 1272.82 378.5 1263C464.346 1254.78 505.634 1348.88 597.5 1348.88C742 1348.88 813.406 1286.72 933.992 1348.88C1044.4 1405.81 1166.41 1427.26 1228.18 1403.85C1289.96 1380.45 1399.33 1405.04 1467.82 1326.93C1522.61 1264.44 1497.33 1160.13 1509.48 1177.2L1507.99 145.49C1417.86 150.354 1288.68 331.5 1121 331.5C908 331.5 866.998 215.804 819.15 196.263C771.302 176.722 720.187 183.588 675.32 181.287C614.904 178.189 539.474 115.256 461.5 127.5C388.613 138.945 347.758 238.208 277.5 236.5C207.242 234.792 207.102 204.71 129.044 164.635C50.9854 124.56 19.7807 155.395 -38.076 146.565C-94.3027 137.984 -162.131 88.9422 -237.458 71.7866C-315.61 53.9876 -369.103 85.9104 -452.906 81.6085Z" fill="white" fill-opacity="0.2"/>
<path d="M-587.382 236.276C-644.704 249.686 -685.865 247.573 -741.512 228.364L-777.763 1251.55C-728.931 1242.57 -611.199 1244.87 -530.93 1325.9C-430.592 1427.19 -327.787 1482.9 -235.499 1484.01C-32.0894 1486.45 2.46861 1330.33 173.501 1303.5C284.806 1286.04 332.154 1285.02 431.001 1303.5C583.367 1331.99 649.307 1484.01 784.501 1484.01C903.501 1484.01 994.001 1390 1113 1390C1255.29 1390 1486.84 1221.24 1577.83 1221.41C1661.98 1197.92 1776.17 1192.51 1790.54 1152.36L1743.5 65C1702.61 100.992 1598.87 178.873 1508.92 180.31C1387.08 182.256 1172.71 10.8027 968.5 18C814.133 23.4406 748.428 126.262 633.393 134.093C541.365 140.357 495.068 228.313 400.83 210.148C330.056 196.506 294.914 120.122 246.322 112.185C174.656 100.48 159.301 118.601 57.3147 86.1561C-38.1314 55.7916 -73.4924 1.78138 -205.878 0.0862604C-409.28 -2.51817 -438.597 201.466 -587.382 236.276Z" fill="url(#paint2_linear_2350_5245)"/>
<path d="M-587.382 236.276C-644.704 249.686 -685.865 247.573 -741.512 228.364L-777.763 1251.55C-728.931 1242.57 -611.199 1244.87 -530.93 1325.9C-430.592 1427.19 -327.787 1482.9 -235.499 1484.01C-32.0894 1486.45 2.46861 1330.33 173.501 1303.5C284.806 1286.04 332.154 1285.02 431.001 1303.5C583.367 1331.99 649.307 1484.01 784.501 1484.01C903.501 1484.01 994.001 1390 1113 1390C1255.29 1390 1486.84 1221.24 1577.83 1221.41C1661.98 1197.92 1776.17 1192.51 1790.54 1152.36L1743.5 65C1702.61 100.992 1598.87 178.873 1508.92 180.31C1387.08 182.256 1172.71 10.8027 968.5 18C814.133 23.4406 748.428 126.262 633.393 134.093C541.365 140.357 495.068 228.313 400.83 210.148C330.056 196.506 294.914 120.122 246.322 112.185C174.656 100.48 159.301 118.601 57.3147 86.1561C-38.1314 55.7916 -73.4924 1.78138 -205.878 0.0862604C-409.28 -2.51817 -438.597 201.466 -587.382 236.276Z" fill="url(#paint3_linear_2350_5245)"/>
<path d="M-587.382 236.276C-644.704 249.686 -685.865 247.573 -741.512 228.364L-777.763 1251.55C-728.931 1242.57 -611.199 1244.87 -530.93 1325.9C-430.592 1427.19 -327.787 1482.9 -235.499 1484.01C-32.0894 1486.45 2.46861 1330.33 173.501 1303.5C284.806 1286.04 332.154 1285.02 431.001 1303.5C583.367 1331.99 649.307 1484.01 784.501 1484.01C903.501 1484.01 994.001 1390 1113 1390C1255.29 1390 1486.84 1221.24 1577.83 1221.41C1661.98 1197.92 1776.17 1192.51 1790.54 1152.36L1743.5 65C1702.61 100.992 1598.87 178.873 1508.92 180.31C1387.08 182.256 1172.71 10.8027 968.5 18C814.133 23.4406 748.428 126.262 633.393 134.093C541.365 140.357 495.068 228.313 400.83 210.148C330.056 196.506 294.914 120.122 246.322 112.185C174.656 100.48 159.301 118.601 57.3147 86.1561C-38.1314 55.7916 -73.4924 1.78138 -205.878 0.0862604C-409.28 -2.51817 -438.597 201.466 -587.382 236.276Z" fill="white" fill-opacity="0.2"/>
</g>
<defs>
<linearGradient id="paint0_linear_2350_5245" x1="1337" y1="1372" x2="464.692" y2="444.048" gradientUnits="userSpaceOnUse">
<stop stop-color="#D15834"/>
<stop offset="0.154315" stop-color="#C5BAD2"/>
<stop offset="0.885345" stop-color="#C5BAD2" stop-opacity="0"/>
</linearGradient>
<linearGradient id="paint1_linear_2350_5245" x1="-696.06" y1="57.627" x2="-508.592" y2="398.481" gradientUnits="userSpaceOnUse">
<stop stop-color="#D15834"/>
<stop offset="0.508449" stop-color="#C5BAD2"/>
<stop offset="1" stop-color="#C5BAD2" stop-opacity="0"/>
</linearGradient>
<linearGradient id="paint2_linear_2350_5245" x1="-242.499" y1="-41" x2="-117.999" y2="1642" gradientUnits="userSpaceOnUse">
<stop offset="0.635257" stop-color="#D9D9D9" stop-opacity="0"/>
<stop offset="1" stop-color="#C5C0DA"/>
</linearGradient>
<linearGradient id="paint3_linear_2350_5245" x1="317.001" y1="-47.5" x2="376.501" y2="1204" gradientUnits="userSpaceOnUse">
<stop stop-color="#C5C0DA"/>
<stop offset="0.429618" stop-color="#D9D9D9" stop-opacity="0"/>
</linearGradient>
<clipPath id="clip0_2350_5245">
<rect width="1149" height="713" rx="80" fill="white"/>
</clipPath>
</defs>
</svg>
