<svg width="262" height="166" viewBox="0 0 262 166" fill="none" xmlns="http://www.w3.org/2000/svg">
<g filter="url(#filter0_b_4002_52)">
<ellipse cx="131" cy="83" rx="131" ry="83" fill="white" fill-opacity="0.7"/>
<path d="M260 83C260 104.995 245.925 125.197 222.561 140C199.221 154.788 166.855 164 131 164C95.1453 164 62.7791 154.788 39.4394 140C16.075 125.197 2 104.995 2 83C2 61.0054 16.075 40.803 39.4394 25.9996C62.7791 11.2119 95.1453 2.00002 131 2.00002C166.855 2.00002 199.221 11.2119 222.561 25.9996C245.925 40.803 260 61.0054 260 83Z" stroke="white" stroke-width="4"/>
</g>
<defs>
<filter id="filter0_b_4002_52" x="-100" y="-100" width="462" height="366" filterUnits="userSpaceOnUse" color-interpolation-filters="sRGB">
<feFlood flood-opacity="0" result="BackgroundImageFix"/>
<feGaussianBlur in="BackgroundImageFix" stdDeviation="50"/>
<feComposite in2="SourceAlpha" operator="in" result="effect1_backgroundBlur_4002_52"/>
<feBlend mode="normal" in="SourceGraphic" in2="effect1_backgroundBlur_4002_52" result="shape"/>
</filter>
</defs>
</svg>
