<svg width="375" height="820" viewBox="0 0 375 820" fill="none" xmlns="http://www.w3.org/2000/svg">
  <g clip-path="url(#clip0_5029_20331)">
    <path d="M-592.104 906.718C-658.813 914.195 -773.024 876.125 -821.791 856.156L-1042.52 -333.712C-910.407 -380.65 -815.005 -183.426 -660.187 -167.726C-519.102 -153.419 -311.24 -443.884 -66.9384 -390.866C32.4444 -369.298 62.3277 -260.208 165.386 -255.802C251.67 -252.114 286.451 -353.319 378.184 -358.613C522.474 -366.939 598.034 -305.769 714.186 -378.002C820.539 -444.141 940.895 -473.696 1004.19 -452.677C1067.48 -431.658 1175 -463.786 1248.74 -385.704C1307.74 -323.239 1289.63 -212.241 1300.59 -230.873L1361.57 726.641C1271.23 726.727 1084.58 626.411 969.843 619.192C855.101 611.972 716.688 689.737 670.248 713.015C623.809 736.293 572.298 732.028 527.653 737.03C467.537 743.765 396.528 814.2 317.829 805.835C244.264 798.016 196.668 696.13 126.63 701.972C56.5913 707.814 58.5114 739.413 -16.6883 785.995C-91.888 832.578 -125.16 801.994 -182.327 814.601C-237.884 826.852 -302.254 882.261 -376.296 904.618C-453.116 927.813 -508.718 897.372 -592.104 906.718Z" fill="#C5C1DD" />
    <path d="M-592.104 906.718C-658.813 914.195 -773.024 876.125 -821.791 856.156L-1042.52 -333.712C-910.407 -380.65 -815.005 -183.426 -660.187 -167.726C-519.102 -153.419 -311.24 -443.884 -66.9384 -390.866C32.4444 -369.298 62.3277 -260.208 165.386 -255.802C251.67 -252.114 286.451 -353.319 378.184 -358.613C522.474 -366.939 598.034 -305.769 714.186 -378.002C820.539 -444.141 940.895 -473.696 1004.19 -452.677C1067.48 -431.658 1175 -463.786 1248.74 -385.704C1307.74 -323.239 1289.63 -212.241 1300.59 -230.873L1361.57 726.641C1271.23 726.727 1084.58 626.411 969.843 619.192C855.101 611.972 716.688 689.737 670.248 713.015C623.809 736.293 572.298 732.028 527.653 737.03C467.537 743.765 396.528 814.2 317.829 805.835C244.264 798.016 196.668 696.13 126.63 701.972C56.5913 707.814 58.5114 739.413 -16.6883 785.995C-91.888 832.578 -125.16 801.994 -182.327 814.601C-237.884 826.852 -302.254 882.261 -376.296 904.618C-453.116 927.813 -508.718 897.372 -592.104 906.718Z" fill="url(#paint0_linear_5029_20331)" />
    <path d="M-592.104 906.718C-658.813 914.195 -773.024 876.125 -821.791 856.156L-1042.52 -333.712C-910.407 -380.65 -815.005 -183.426 -660.187 -167.726C-519.102 -153.419 -311.24 -443.884 -66.9384 -390.866C32.4444 -369.298 62.3277 -260.208 165.386 -255.802C251.67 -252.114 286.451 -353.319 378.184 -358.613C522.474 -366.939 598.034 -305.769 714.186 -378.002C820.539 -444.141 940.895 -473.696 1004.19 -452.677C1067.48 -431.658 1175 -463.786 1248.74 -385.704C1307.74 -323.239 1289.63 -212.241 1300.59 -230.873L1361.57 726.641C1271.23 726.727 1084.58 626.411 969.843 619.192C855.101 611.972 716.688 689.737 670.248 713.015C623.809 736.293 572.298 732.028 527.653 737.03C467.537 743.765 396.528 814.2 317.829 805.835C244.264 798.016 196.668 696.13 126.63 701.972C56.5913 707.814 58.5114 739.413 -16.6883 785.995C-91.888 832.578 -125.16 801.994 -182.327 814.601C-237.884 826.852 -302.254 882.261 -376.296 904.618C-453.116 927.813 -508.718 897.372 -592.104 906.718Z" fill="url(#paint1_linear_5029_20331)" />
    <path d="M-785.419 544.83C-840.675 524.425 -881.779 521.431 -939.335 533.617L-864.388 -377.435C-817.019 -362.477 -699.905 -350.19 -610.404 -420.707C-498.528 -508.853 -389.74 -551.433 -298.021 -541.118C-95.8642 -518.382 -80.5335 -359.116 85.9365 -311.324C194.273 -280.223 241.135 -273.348 341.474 -279.47C496.139 -288.905 580.042 -431.66 714.205 -414.935C832.298 -400.214 910.69 -295.694 1028.78 -280.973C1169.98 -263.371 1196.59 -111.174 1286.91 -100.092C1367.56 -66.3589 1480.22 -46.8661 1489.61 -5.23208L1324.21 959.225C1288 918.435 1194.51 828.286 1105.43 815.733C984.749 798.727 886.23 942.51 758.083 951.638C629.936 960.766 526.847 819.297 413.64 797.292C323.075 779.688 287.814 686.643 192.088 693.019C120.197 697.806 76.0437 769.289 26.8581 771.157C-45.6829 773.911 -58.7197 754.022 -163.87 773.615C-262.277 791.952 -303.929 841.196 -435.512 826.502C-637.68 803.925 -641.996 597.793 -785.419 544.83Z" fill="url(#paint2_linear_5029_20331)" />
    <path d="M-785.419 544.83C-840.675 524.425 -881.779 521.431 -939.335 533.617L-864.388 -377.435C-817.019 -362.477 -699.905 -350.19 -610.404 -420.707C-498.528 -508.853 -389.74 -551.433 -298.021 -541.118C-95.8642 -518.382 -80.5335 -359.116 85.9365 -311.324C194.273 -280.223 241.135 -273.348 341.474 -279.47C496.139 -288.905 580.042 -431.66 714.205 -414.935C832.298 -400.214 910.69 -295.694 1028.78 -280.973C1169.98 -263.371 1196.59 -111.174 1286.91 -100.092C1367.56 -66.3589 1480.22 -46.8661 1489.61 -5.23208L1324.21 959.225C1288 918.435 1194.51 828.286 1105.43 815.733C984.749 798.727 886.23 942.51 758.083 951.638C629.936 960.766 526.847 819.297 413.64 797.292C323.075 779.688 287.814 686.643 192.088 693.019C120.197 697.806 76.0437 769.289 26.8581 771.157C-45.6829 773.911 -58.7197 754.022 -163.87 773.615C-262.277 791.952 -303.929 841.196 -435.512 826.502C-637.68 803.925 -641.996 597.793 -785.419 544.83Z" fill="url(#paint3_linear_5029_20331)" />
  </g>
  <defs>
    <linearGradient id="paint0_linear_5029_20331" x1="1106.81" y1="-551.516" x2="249.085" y2="429.288" gradientUnits="userSpaceOnUse">
      <stop stop-color="#D15834" />
      <stop offset="0.154315" stop-color="#C5BAD2" />
      <stop offset="0.885345" stop-color="#C5BAD2" stop-opacity="0" />
    </linearGradient>
    <linearGradient id="paint1_linear_5029_20331" x1="-833.261" y1="945.913" x2="-652.494" y2="585.656" gradientUnits="userSpaceOnUse">
      <stop stop-color="#D15834" />
      <stop offset="0.508449" stop-color="#C5BAD2" />
      <stop offset="1" stop-color="#C5BAD2" stop-opacity="0" />
    </linearGradient>
    <linearGradient id="paint2_linear_5029_20331" x1="-476.845" y1="862.76" x2="-145.128" y2="-791.883" gradientUnits="userSpaceOnUse">
      <stop offset="0.635257" stop-color="#D9D9D9" stop-opacity="0" />
      <stop offset="1" stop-color="#C5C0DA" />
    </linearGradient>
    <linearGradient id="paint3_linear_5029_20331" x1="77.6016" y1="938.427" x2="291.464" y2="-296.15" gradientUnits="userSpaceOnUse">
      <stop stop-color="#C5C0DA" />
      <stop offset="0.429618" stop-color="#D9D9D9" stop-opacity="0" />
    </linearGradient>
    <clipPath id="clip0_5029_20331">
      <rect width="375" height="820" fill="white" transform="matrix(1 0 0 -1 0 820)" />
    </clipPath>
  </defs>
</svg>