<svg width="1920" height="1011" viewBox="0 0 1920 1011" fill="none" xmlns="http://www.w3.org/2000/svg">
<g filter="url(#filter0_d_2211_2359)">
<path d="M157.094 -302.391C90.0513 -305.833 -21.4197 -263.464 -68.7748 -241.85L-211.562 949.039C-76.6942 986.335 5.65257 794.01 159.093 770.64C298.923 749.344 525.211 1003.52 765.5 939.851C863.251 913.95 885.966 818.821 988.5 809C1074.35 800.777 1135.63 895 1227.5 895C1372 895 1416.91 817.333 1537.5 879.5C1647.91 936.423 1766.32 979.089 1890 943C2015.27 906.449 2119.48 723.204 2119.48 723.204L2117.99 -238.51C2027.86 -233.646 1848.17 -128.261 1734.16 -115.13C1620.15 -101.999 1477 -168.196 1429.15 -187.737C1381.3 -207.278 1330.19 -200.412 1285.32 -202.713C1224.9 -205.811 1149.47 -268.744 1071.5 -256.5C998.613 -245.055 957.758 -145.792 887.5 -147.5C817.242 -149.208 817.102 -179.29 739.044 -219.365C660.985 -259.44 629.78 -228.605 571.924 -237.435C515.697 -246.016 447.869 -295.058 372.542 -312.213C294.39 -330.012 240.897 -298.09 157.094 -302.391Z" fill="#C5C1DD"/>
<path d="M157.094 -302.391C90.0513 -305.833 -21.4197 -263.464 -68.7748 -241.85L-211.562 949.039C-76.6942 986.335 5.65257 794.01 159.093 770.64C298.923 749.344 525.211 1003.52 765.5 939.851C863.251 913.95 885.966 818.821 988.5 809C1074.35 800.777 1135.63 895 1227.5 895C1372 895 1416.91 817.333 1537.5 879.5C1647.91 936.423 1766.32 979.089 1890 943C2015.27 906.449 2119.48 723.204 2119.48 723.204L2117.99 -238.51C2027.86 -233.646 1848.17 -128.261 1734.16 -115.13C1620.15 -101.999 1477 -168.196 1429.15 -187.737C1381.3 -207.278 1330.19 -200.412 1285.32 -202.713C1224.9 -205.811 1149.47 -268.744 1071.5 -256.5C998.613 -245.055 957.758 -145.792 887.5 -147.5C817.242 -149.208 817.102 -179.29 739.044 -219.365C660.985 -259.44 629.78 -228.605 571.924 -237.435C515.697 -246.016 447.869 -295.058 372.542 -312.213C294.39 -330.012 240.897 -298.09 157.094 -302.391Z" fill="url(#paint0_linear_2211_2359)"/>
<path d="M-55.5007 -306.5C-112.822 -293.089 -135.866 -156.427 -191.513 -175.636L-227.765 777.554C-178.933 768.572 -61.2009 770.867 19.0689 851.901C119.406 953.194 222.212 988.896 314.499 990.006C517.909 992.451 552.467 856.328 723.499 829.5C834.805 812.041 882.153 811.017 980.999 829.5C1133.36 857.991 1199.31 990.006 1334.5 990.006C1453.5 990.006 1544 916 1663 916C1805.28 916 1850.17 768.285 1941.17 768.46C2025.32 744.967 2139.5 739.561 2153.87 699.414L2106.84 -317.951C2065.94 -281.959 1962.21 -204.078 1872.26 -202.641C1750.42 -200.695 1670.09 -355.537 1544.01 -380.444C1417.93 -405.35 1298.43 -277.738 1183.39 -269.907C1091.36 -263.643 1045.07 -175.687 950.829 -193.852C880.055 -207.494 844.912 -283.878 796.32 -291.815C724.655 -303.52 709.3 -285.399 607.313 -317.844C511.867 -348.208 476.506 -402.219 344.12 -403.914C140.718 -406.518 93.2839 -341.309 -55.5007 -306.5Z" fill="url(#paint1_linear_2211_2359)"/>
<path d="M-55.5007 -306.5C-112.822 -293.089 -135.866 -156.427 -191.513 -175.636L-227.765 777.554C-178.933 768.572 -61.2009 770.867 19.0689 851.901C119.406 953.194 222.212 988.896 314.499 990.006C517.909 992.451 552.467 856.328 723.499 829.5C834.805 812.041 882.153 811.017 980.999 829.5C1133.36 857.991 1199.31 990.006 1334.5 990.006C1453.5 990.006 1544 916 1663 916C1805.28 916 1850.17 768.285 1941.17 768.46C2025.32 744.967 2139.5 739.561 2153.87 699.414L2106.84 -317.951C2065.94 -281.959 1962.21 -204.078 1872.26 -202.641C1750.42 -200.695 1670.09 -355.537 1544.01 -380.444C1417.93 -405.35 1298.43 -277.738 1183.39 -269.907C1091.36 -263.643 1045.07 -175.687 950.829 -193.852C880.055 -207.494 844.912 -283.878 796.32 -291.815C724.655 -303.52 709.3 -285.399 607.313 -317.844C511.867 -348.208 476.506 -402.219 344.12 -403.914C140.718 -406.518 93.2839 -341.309 -55.5007 -306.5Z" fill="url(#paint2_linear_2211_2359)"/>
<rect y="-100" width="1920" height="548" fill="url(#paint3_linear_2211_2359)"/>
</g>
<defs>
<filter id="filter0_d_2211_2359" x="-231.765" y="-403.99" width="2389.64" height="1422.99" filterUnits="userSpaceOnUse" color-interpolation-filters="sRGB">
<feFlood flood-opacity="0" result="BackgroundImageFix"/>
<feColorMatrix in="SourceAlpha" type="matrix" values="0 0 0 0 0 0 0 0 0 0 0 0 0 0 0 0 0 0 127 0" result="hardAlpha"/>
<feOffset dy="4"/>
<feGaussianBlur stdDeviation="2"/>
<feComposite in2="hardAlpha" operator="out"/>
<feColorMatrix type="matrix" values="0 0 0 0 0 0 0 0 0 0 0 0 0 0 0 0 0 0 0.25 0"/>
<feBlend mode="normal" in2="BackgroundImageFix" result="effect1_dropShadow_2211_2359"/>
<feBlend mode="normal" in="SourceGraphic" in2="effect1_dropShadow_2211_2359" result="shape"/>
</filter>
<linearGradient id="paint0_linear_2211_2359" x1="1947" y1="988" x2="1074.69" y2="60.0484" gradientUnits="userSpaceOnUse">
<stop stop-color="#D15834"/>
<stop offset="0.154315" stop-color="#C5BAD2"/>
<stop offset="0.885345" stop-color="#C5BAD2" stop-opacity="0"/>
</linearGradient>
<linearGradient id="paint1_linear_2211_2359" x1="307.499" y1="-445" x2="431.999" y2="1238" gradientUnits="userSpaceOnUse">
<stop offset="0.635257" stop-color="#D9D9D9" stop-opacity="0"/>
<stop offset="1" stop-color="#C5C0DA"/>
</linearGradient>
<linearGradient id="paint2_linear_2211_2359" x1="866.999" y1="-451.5" x2="926.499" y2="800" gradientUnits="userSpaceOnUse">
<stop stop-color="#C5C0DA"/>
<stop offset="0.429618" stop-color="#D9D9D9" stop-opacity="0"/>
</linearGradient>
<linearGradient id="paint3_linear_2211_2359" x1="960" y1="-100" x2="960" y2="448" gradientUnits="userSpaceOnUse">
<stop stop-color="#C5C1DD"/>
<stop offset="0.861026" stop-color="#C5C1DD" stop-opacity="0"/>
</linearGradient>
</defs>
</svg>
