<svg width="1920" height="579" viewBox="0 0 1920 579" fill="none" xmlns="http://www.w3.org/2000/svg">
<path d="M157.094 -704.391C90.0513 -707.833 -21.4197 -665.464 -68.7748 -643.85L-211.562 547.039C-76.6942 584.335 0.685943 435.353 159.093 408.64C401.533 367.757 525.211 601.523 765.5 537.851C863.251 511.95 885.966 436.821 988.5 427C1074.35 418.777 1135.63 503 1227.5 503C1372 503 1416.91 415.333 1537.5 477.5C1647.91 534.423 1766.32 577.089 1890 541C2015.27 504.449 2119.48 321.204 2119.48 321.204L2117.99 -640.51C2027.86 -635.646 1848.17 -530.261 1734.16 -517.13C1620.15 -503.999 1477 -570.196 1429.15 -589.737C1381.3 -609.278 1330.19 -602.412 1285.32 -604.713C1224.9 -607.811 1149.47 -670.744 1071.5 -658.5C998.613 -647.055 957.758 -547.792 887.5 -549.5C817.242 -551.208 817.102 -581.29 739.044 -621.365C660.985 -661.44 629.78 -630.605 571.924 -639.435C515.697 -648.016 447.869 -697.058 372.542 -714.213C294.39 -732.012 240.897 -700.09 157.094 -704.391Z" fill="#C5C1DD"/>
<path d="M157.094 -704.391C90.0513 -707.833 -21.4197 -665.464 -68.7748 -643.85L-211.562 547.039C-76.6942 584.335 0.685943 435.353 159.093 408.64C401.533 367.757 525.211 601.523 765.5 537.851C863.251 511.95 885.966 436.821 988.5 427C1074.35 418.777 1135.63 503 1227.5 503C1372 503 1416.91 415.333 1537.5 477.5C1647.91 534.423 1766.32 577.089 1890 541C2015.27 504.449 2119.48 321.204 2119.48 321.204L2117.99 -640.51C2027.86 -635.646 1848.17 -530.261 1734.16 -517.13C1620.15 -503.999 1477 -570.196 1429.15 -589.737C1381.3 -609.278 1330.19 -602.412 1285.32 -604.713C1224.9 -607.811 1149.47 -670.744 1071.5 -658.5C998.613 -647.055 957.758 -547.792 887.5 -549.5C817.242 -551.208 817.102 -581.29 739.044 -621.365C660.985 -661.44 629.78 -630.605 571.924 -639.435C515.697 -648.016 447.869 -697.058 372.542 -714.213C294.39 -732.012 240.897 -700.09 157.094 -704.391Z" fill="url(#paint0_linear_2214_4559)"/>
<path d="M-75.5005 -718.5C-132.822 -705.089 -155.866 -568.427 -211.513 -587.636L-247.764 365.554C-198.932 356.572 -81.2006 358.867 -0.930848 439.901C99.4064 541.194 202.212 576.896 294.5 578.006C497.91 580.451 536.606 463.368 703.5 437.5C803.501 422 861.604 422.244 961 437.5C1107.84 460.036 1179.31 578.006 1314.5 578.006C1433.5 578.006 1524 504 1643 504C1785.28 504 1830.17 356.285 1921.17 356.46C2005.32 332.967 2119.5 327.561 2133.87 287.414L2086.84 -729.951C2045.94 -693.959 1942.21 -616.078 1852.26 -614.641C1730.42 -612.695 1650.09 -767.537 1524.01 -792.444C1397.93 -817.35 1278.43 -689.738 1163.39 -681.907C1071.36 -675.643 1025.07 -587.687 930.829 -605.852C860.055 -619.494 824.913 -695.878 776.321 -703.815C704.655 -715.52 689.3 -697.399 587.314 -729.844C491.867 -760.208 456.506 -814.219 324.12 -815.914C120.719 -818.518 73.2842 -753.309 -75.5005 -718.5Z" fill="url(#paint1_linear_2214_4559)"/>
<path d="M-75.5005 -718.5C-132.822 -705.089 -155.866 -568.427 -211.513 -587.636L-247.764 365.554C-198.932 356.572 -81.2006 358.867 -0.930848 439.901C99.4064 541.194 202.212 576.896 294.5 578.006C497.91 580.451 536.606 463.368 703.5 437.5C803.501 422 861.604 422.244 961 437.5C1107.84 460.036 1179.31 578.006 1314.5 578.006C1433.5 578.006 1524 504 1643 504C1785.28 504 1830.17 356.285 1921.17 356.46C2005.32 332.967 2119.5 327.561 2133.87 287.414L2086.84 -729.951C2045.94 -693.959 1942.21 -616.078 1852.26 -614.641C1730.42 -612.695 1650.09 -767.537 1524.01 -792.444C1397.93 -817.35 1278.43 -689.738 1163.39 -681.907C1071.36 -675.643 1025.07 -587.687 930.829 -605.852C860.055 -619.494 824.913 -695.878 776.321 -703.815C704.655 -715.52 689.3 -697.399 587.314 -729.844C491.867 -760.208 456.506 -814.219 324.12 -815.914C120.719 -818.518 73.2842 -753.309 -75.5005 -718.5Z" fill="url(#paint2_linear_2214_4559)"/>
<rect y="-512" width="1920" height="548" fill="url(#paint3_linear_2214_4559)"/>
<defs>
<linearGradient id="paint0_linear_2214_4559" x1="1860.5" y1="622" x2="1085.52" y2="-544.781" gradientUnits="userSpaceOnUse">
<stop stop-color="#D15834"/>
<stop offset="0.142637" stop-color="#C5BAD2"/>
<stop offset="0.885345" stop-color="#C5BAD2" stop-opacity="0"/>
</linearGradient>
<linearGradient id="paint1_linear_2214_4559" x1="287.5" y1="-857" x2="412" y2="826" gradientUnits="userSpaceOnUse">
<stop offset="0.635257" stop-color="#D9D9D9" stop-opacity="0"/>
<stop offset="1" stop-color="#C5C0DA"/>
</linearGradient>
<linearGradient id="paint2_linear_2214_4559" x1="846.999" y1="-863.5" x2="906.499" y2="388" gradientUnits="userSpaceOnUse">
<stop stop-color="#C5C0DA"/>
<stop offset="0.429618" stop-color="#D9D9D9" stop-opacity="0"/>
</linearGradient>
<linearGradient id="paint3_linear_2214_4559" x1="960" y1="-512" x2="960" y2="36" gradientUnits="userSpaceOnUse">
<stop stop-color="#C5C1DD"/>
<stop offset="0.861026" stop-color="#C5C1DD" stop-opacity="0"/>
</linearGradient>
</defs>
</svg>
