<svg width="375" height="609" viewBox="0 0 375 609" fill="none" xmlns="http://www.w3.org/2000/svg">
  <g clip-path="url(#clip0_2651_9765)">
    <path fill-rule="evenodd" clip-rule="evenodd" d="M377.825 136.122C392.549 112.119 468.015 114.28 475.342 75.1949C487.66 9.49263 387.451 6.2859 352.54 -33.3288C319.548 -70.7667 336.171 -172.364 294.206 -204.342C249.443 -238.451 182.159 -224.521 109.502 -216.75C37.8061 -209.082 -85.0366 -269.309 -84.5252 -168.947C-84.0137 -68.5849 17.9221 -69.3332 46.8002 -28.6178C71.3521 5.99821 23.9886 60.9391 31.3432 93.345C46.7387 161.18 135.303 104.722 190.626 138.362C246.879 172.567 261.607 225.225 318.422 217.914C361.249 212.403 362.053 161.833 377.825 136.122Z" fill="#C14824" />
    <path d="M-590.378 -244.826C-657.087 -252.303 -769.039 -233.989 -816.676 -223.897L-983.465 494.288C-849.921 528.748 -763.754 412.267 -610.404 409.403C-470.656 406.793 -250.929 593.506 -10.1979 571.712C87.7322 562.845 112.622 497.42 214.971 499.211C300.662 500.711 339.765 564.128 431.276 571.359C575.218 582.732 647.685 548.606 766.467 597.844C875.227 642.928 996.297 666.244 1058.34 656.143C1120.38 646.041 1228.79 670.373 1298.7 625.823C1354.63 590.184 1331.69 521.503 1343.42 533.377L1361.56 -49.6413C1271.67 -53.6257 1090.41 -0.391195 976.563 -0.969661C862.713 -1.54814 721.536 -55.1385 674.293 -71.3981C627.051 -87.6578 575.986 -87.2916 531.342 -92.2941C471.226 -99.0303 397.442 -145.203 319.506 -143.512C246.654 -141.932 203.821 -81.6842 133.871 -88.3063C63.9219 -94.9285 64.4292 -114.172 -12.465 -145.938C-89.3592 -177.704 -121.107 -160.446 -178.55 -170.645C-234.375 -180.557 -300.885 -217.25 -375.551 -234.148C-453.019 -251.679 -506.992 -235.48 -590.378 -244.826Z" fill="#C5C1DD" />
    <path d="M-590.378 -244.826C-657.087 -252.303 -769.039 -233.989 -816.676 -223.897L-983.465 494.288C-849.921 528.748 -763.754 412.267 -610.404 409.403C-470.656 406.793 -250.929 593.506 -10.1979 571.712C87.7322 562.845 112.622 497.42 214.971 499.211C300.662 500.711 339.765 564.128 431.276 571.359C575.218 582.732 647.685 548.606 766.467 597.844C875.227 642.928 996.297 666.244 1058.34 656.143C1120.38 646.041 1228.79 670.373 1298.7 625.823C1354.63 590.184 1331.69 521.503 1343.42 533.377L1361.56 -49.6413C1271.67 -53.6257 1090.41 -0.391195 976.563 -0.969661C862.713 -1.54814 721.536 -55.1385 674.293 -71.3981C627.051 -87.6578 575.986 -87.2916 531.342 -92.2941C471.226 -99.0303 397.442 -145.203 319.506 -143.512C246.654 -141.932 203.821 -81.6842 133.871 -88.3063C63.9219 -94.9285 64.4292 -114.172 -12.465 -145.938C-89.3592 -177.704 -121.107 -160.446 -178.55 -170.645C-234.375 -180.557 -300.885 -217.25 -375.551 -234.148C-453.019 -251.679 -506.992 -235.48 -590.378 -244.826Z" fill="url(#paint0_linear_2651_9765)" />
    <path d="M-590.378 -244.826C-657.087 -252.303 -769.039 -233.989 -816.676 -223.897L-983.465 494.288C-849.921 528.748 -763.754 412.267 -610.404 409.403C-470.656 406.793 -250.929 593.506 -10.1979 571.712C87.7322 562.845 112.622 497.42 214.971 499.211C300.662 500.711 339.765 564.128 431.276 571.359C575.218 582.732 647.685 548.606 766.467 597.844C875.227 642.928 996.297 666.244 1058.34 656.143C1120.38 646.041 1228.79 670.373 1298.7 625.823C1354.63 590.184 1331.69 521.503 1343.42 533.377L1361.56 -49.6413C1271.67 -53.6257 1090.41 -0.391195 976.563 -0.969661C862.713 -1.54814 721.536 -55.1385 674.293 -71.3981C627.051 -87.6578 575.986 -87.2916 531.342 -92.2941C471.226 -99.0303 397.442 -145.203 319.506 -143.512C246.654 -141.932 203.821 -81.6842 133.871 -88.3063C63.9219 -94.9285 64.4292 -114.172 -12.465 -145.938C-89.3592 -177.704 -121.107 -160.446 -178.55 -170.645C-234.375 -180.557 -300.885 -217.25 -375.551 -234.148C-453.019 -251.679 -506.992 -235.48 -590.378 -244.826Z" fill="url(#paint1_linear_2651_9765)" />
    <path d="M-977.387 -126.654C-1034.31 -118.118 -1075.49 -119.59 -1131.61 -132.166L-1143.45 458.878C-1094.89 453.188 -977.19 454.972 -894.817 507.631C-791.85 573.455 -687.633 609.774 -595.385 610.726C-392.062 612.825 -361.7 511.849 -191.512 494.917C-80.7565 483.897 -33.4717 483.354 65.7945 495.57C218.807 514.399 288.758 612.97 423.85 613.313C542.761 613.615 630.683 552.991 749.593 553.293C891.772 553.654 932.683 458.147 1023.61 458.492C1107.07 443.497 1221.03 440.287 1234.32 414.335L1161.21 -218.462C1121.31 -195.267 1019.73 -145.116 929.893 -144.414C808.191 -143.463 723.793 -243.901 597.14 -260.343C470.487 -276.785 354.483 -194.481 239.744 -189.704C147.952 -185.882 104.039 -129.063 9.38641 -141.061C-61.6986 -150.071 -98.8546 -199.606 -147.622 -204.867C-219.546 -212.626 -234.406 -200.934 -337.183 -222.196C-433.368 -242.094 -470.145 -277.146 -602.477 -278.579C-805.796 -280.78 -829.643 -148.809 -977.387 -126.654Z" fill="url(#paint2_linear_2651_9765)" />
    <path d="M-977.387 -126.654C-1034.31 -118.118 -1075.49 -119.59 -1131.61 -132.166L-1143.45 458.878C-1094.89 453.188 -977.19 454.972 -894.817 507.631C-791.85 573.455 -687.633 609.774 -595.385 610.726C-392.062 612.825 -361.7 511.849 -191.512 494.917C-80.7565 483.897 -33.4717 483.354 65.7945 495.57C218.807 514.399 288.758 612.97 423.85 613.313C542.761 613.615 630.683 552.991 749.593 553.293C891.772 553.654 932.683 458.147 1023.61 458.492C1107.07 443.497 1221.03 440.287 1234.32 414.335L1161.21 -218.462C1121.31 -195.267 1019.73 -145.116 929.893 -144.414C808.191 -143.463 723.793 -243.901 597.14 -260.343C470.487 -276.785 354.483 -194.481 239.744 -189.704C147.952 -185.882 104.039 -129.063 9.38641 -141.061C-61.6986 -150.071 -98.8546 -199.606 -147.622 -204.867C-219.546 -212.626 -234.406 -200.934 -337.183 -222.196C-433.368 -242.094 -470.145 -277.146 -602.477 -278.579C-805.796 -280.78 -829.643 -148.809 -977.387 -126.654Z" fill="url(#paint3_linear_2651_9765)" />
  </g>
  <defs>
    <linearGradient id="paint0_linear_2651_9765" x1="1164.84" y1="721.065" x2="718.378" y2="-147.72" gradientUnits="userSpaceOnUse">
      <stop stop-color="#D15834" />
      <stop offset="0.154315" stop-color="#C5BAD2" />
      <stop offset="0.885345" stop-color="#C5BAD2" stop-opacity="0" />
    </linearGradient>
    <linearGradient id="paint1_linear_2651_9765" x1="-832.075" y1="-279.297" x2="-761.122" y2="-17.2519" gradientUnits="userSpaceOnUse">
      <stop stop-color="#D15834" />
      <stop offset="0.508449" stop-color="#C5BAD2" />
      <stop offset="1" stop-color="#C5BAD2" stop-opacity="0" />
    </linearGradient>
    <linearGradient id="paint2_linear_2651_9765" x1="-640.168" y1="-305.268" x2="-590.364" y2="789.941" gradientUnits="userSpaceOnUse">
      <stop offset="0.635257" stop-color="#D9D9D9" stop-opacity="0" />
      <stop offset="1" stop-color="#C5C0DA" />
    </linearGradient>
    <linearGradient id="paint3_linear_2651_9765" x1="-81.2607" y1="-308.057" x2="-58.2759" y2="504.206" gradientUnits="userSpaceOnUse">
      <stop stop-color="#C5C0DA" />
      <stop offset="0.429618" stop-color="#D9D9D9" stop-opacity="0" />
    </linearGradient>
    <clipPath id="clip0_2651_9765">
      <rect width="375" height="609" fill="white" />
    </clipPath>
  </defs>
</svg>