<svg width="749" height="244" viewBox="0 0 749 244" fill="none" xmlns="http://www.w3.org/2000/svg">
<path d="M530.819 242.017C530.276 242.117 529.916 242.638 530.017 243.181C530.117 243.724 530.638 244.084 531.181 243.983L530.819 242.017ZM575.955 212.187L576.808 212.709L575.955 212.187ZM584.529 166.733L583.725 167.328L584.529 166.733ZM574.819 166.672L575.774 166.97L574.819 166.672ZM581.213 170.467V171.467L581.221 171.467L581.213 170.467ZM604.938 166.733L605.324 167.655L604.938 166.733ZM633.984 136.822C633.886 136.279 633.366 135.918 632.822 136.016L623.965 137.613C623.422 137.712 623.061 138.232 623.159 138.775C623.257 139.319 623.777 139.68 624.32 139.582L632.193 138.162L633.613 146.035C633.712 146.578 634.232 146.939 634.775 146.841C635.319 146.743 635.68 146.223 635.582 145.68L633.984 136.822ZM531.181 243.983C546.375 241.182 565.548 231.102 576.808 212.709L575.102 211.664C564.188 229.492 545.555 239.299 530.819 242.017L531.181 243.983ZM576.808 212.709C581.613 204.861 585.098 195.139 586.729 186.483C587.545 182.153 587.903 178.058 587.717 174.573C587.534 171.12 586.809 168.13 585.332 166.137L583.725 167.328C584.854 168.851 585.544 171.367 585.72 174.68C585.895 177.961 585.559 181.89 584.764 186.112C583.172 194.56 579.765 204.048 575.102 211.664L576.808 212.709ZM585.332 166.137C583.913 164.223 581.329 163.456 579.123 163.483C577.998 163.497 576.878 163.715 575.948 164.16C575.023 164.603 574.193 165.322 573.865 166.373L575.774 166.97C575.883 166.622 576.196 166.259 576.812 165.964C577.424 165.671 578.244 165.494 579.147 165.483C580.999 165.46 582.833 166.124 583.725 167.328L585.332 166.137ZM573.865 166.373C573.67 166.997 573.638 167.603 573.785 168.174C573.932 168.744 574.24 169.209 574.618 169.58C575.345 170.294 576.382 170.706 577.309 170.958C578.262 171.216 579.238 171.342 579.962 171.404C580.327 171.435 580.635 171.451 580.853 171.459C580.963 171.463 581.05 171.465 581.111 171.466C581.142 171.466 581.166 171.467 581.183 171.467C581.191 171.467 581.198 171.467 581.203 171.467C581.206 171.467 581.208 171.467 581.209 171.467C581.21 171.467 581.211 171.467 581.211 171.467C581.212 171.467 581.212 171.467 581.212 171.467C581.212 171.467 581.213 171.467 581.213 170.467C581.213 169.467 581.213 169.467 581.213 169.467C581.213 169.467 581.213 169.467 581.213 169.467C581.213 169.467 581.213 169.467 581.213 169.467C581.213 169.467 581.212 169.467 581.211 169.467C581.209 169.467 581.205 169.467 581.199 169.467C581.188 169.467 581.169 169.467 581.145 169.466C581.095 169.465 581.021 169.464 580.925 169.46C580.734 169.453 580.459 169.439 580.132 169.411C579.472 169.355 578.627 169.243 577.833 169.027C577.014 168.805 576.378 168.505 576.018 168.152C575.852 167.989 575.762 167.831 575.722 167.674C575.682 167.519 575.672 167.295 575.774 166.97L573.865 166.373ZM581.213 170.467C581.221 171.467 581.221 171.467 581.221 171.467C581.221 171.467 581.222 171.467 581.222 171.467C581.222 171.467 581.223 171.467 581.224 171.467C581.227 171.467 581.23 171.467 581.234 171.467C581.241 171.467 581.253 171.467 581.268 171.466C581.298 171.466 581.342 171.465 581.4 171.465C581.515 171.463 581.684 171.46 581.902 171.454C582.337 171.444 582.966 171.425 583.747 171.391C585.31 171.322 587.484 171.193 589.931 170.95C594.798 170.466 600.854 169.523 605.324 167.655L604.553 165.81C600.374 167.556 594.568 168.479 589.734 168.96C587.331 169.198 585.195 169.325 583.66 169.393C582.893 169.426 582.277 169.445 581.853 169.455C581.642 169.46 581.478 169.463 581.368 169.465C581.314 169.466 581.272 169.466 581.244 169.467C581.231 169.467 581.22 169.467 581.214 169.467C581.21 169.467 581.208 169.467 581.207 169.467C581.206 169.467 581.205 169.467 581.205 169.467C581.205 169.467 581.205 169.467 581.205 169.467C581.205 169.467 581.205 169.467 581.213 170.467ZM605.324 167.655C612.938 164.474 619.096 158.304 623.813 152.3C628.499 146.337 631.937 140.284 633.821 137.57L632.179 136.43C630.12 139.394 626.909 145.124 622.241 151.065C617.604 156.965 611.703 162.823 604.553 165.81L605.324 167.655Z" fill="#D15834"/>
<path d="M1.93157 21.3042L0.641955 19.1741C4.31996 17.7188 8.02904 16.3149 11.707 14.8596C11.6089 13.4811 12.2889 12.4031 13.88 11.4398L18.0887 8.8916C20.8603 7.21354 22.6171 7.79819 24.1087 10.2618L26.0509 13.4697L4.93032 26.2571L3.74947 24.3067L13.3217 18.5112L12.6225 17.3564C12.5138 17.1767 12.4361 17.0484 12.4151 16.9559L1.93157 21.3042ZM19.2851 10.8676L15.3074 13.276C14.0242 14.0528 13.5387 14.8728 14.3156 16.156L15.0925 17.4391L22.894 12.7157L22.1327 11.4582C21.3869 10.2264 20.6196 10.0597 19.2851 10.8676Z" fill="white"/>
<path d="M29.4973 19.0654L33.1474 24.6719L31.2115 25.9322L28.8054 22.2365L10.0501 34.4472L8.80607 32.5365L29.4973 19.0654Z" fill="white"/>
<path d="M18.7584 40.5754L32.5897 30.9866C34.8826 29.397 36.7763 29.6539 38.2463 31.7742C39.7333 33.9191 39.3095 35.7826 37.0166 37.3722L23.1853 46.9609C20.8924 48.5505 18.9987 48.2937 17.5116 46.1487C16.0417 44.0284 16.4655 42.1649 18.7584 40.5754ZM21.8863 45.0872L35.7176 35.4984C36.7531 34.7806 36.9632 33.9778 36.3479 33.0903C35.7496 32.2274 34.9242 32.1425 33.8887 32.8604L20.0574 42.4491C18.9973 43.1841 18.7625 44.0039 19.3607 44.8668C19.9761 45.7544 20.8261 45.8221 21.8863 45.0872Z" fill="white"/>
<path d="M22.482 58.4532L21.3981 57.0161L25.8531 53.656L26.1602 54.0632C26.5215 54.5422 27.0198 54.6549 28.1706 54.2378C29.4593 53.7543 31.4662 52.5789 36.8325 48.9824L45.8402 42.94L49.5796 47.898L31.688 61.3923L32.4647 62.4222L28.0098 65.7823L26.9259 64.3452L29.5606 62.3581L25.1166 56.466L22.482 58.4532ZM27.8221 56.2667L30.315 59.572L46.3624 47.4686L45.116 45.816L37.9348 50.5934C31.9576 54.5756 28.7641 56.2702 27.8221 56.2667Z" fill="white"/>
<path d="M42.4724 78.5661L41.0212 76.8075L60.0645 61.0929L61.5157 62.8515L42.4724 78.5661ZM53.8779 53.5959L55.3291 55.3545L46.8603 62.343L47.8914 63.5925C49.7244 65.8138 49.5274 67.649 47.1209 69.6348L43.4187 72.6899C41.0123 74.6757 39.1309 74.5168 37.2978 72.2955L34.8346 69.3106L53.8779 53.5959ZM41.9635 70.9735L45.7583 67.8421C46.8689 66.9255 47.0002 66.0005 46.1791 65.0055L45.148 63.756L38.0444 69.6179L39.0564 70.8443C39.8965 71.8624 40.8297 71.9092 41.9635 70.9735Z" fill="white"/>
<path d="M120.698 129.623L114.541 137.868C113.697 138.998 113.807 139.904 114.775 140.814L123.606 128.987C122.477 128.294 121.523 128.518 120.698 129.623ZM125.313 130.262L116.482 142.088C117.605 142.74 118.505 142.588 119.348 141.458L125.505 133.213C126.331 132.108 126.299 131.148 125.313 130.262ZM113.044 136.563L119.021 128.559C120.763 126.227 122.273 125.558 124.869 127.197L126.538 124.961L128.341 126.308L126.671 128.543C128.98 130.566 128.767 132.205 127.026 134.536L121.049 142.541C119.325 144.848 117.815 145.517 115.219 143.879L113.568 146.09L111.765 144.744L113.416 142.533C111.108 140.509 111.321 138.871 113.044 136.563Z" fill="white"/>
<path d="M137.101 143.196L139.436 139.813C140.271 138.604 140.218 137.729 139.033 136.911L137.749 136.025L132.961 142.963L134.269 143.866C135.356 144.616 136.232 144.455 137.101 143.196ZM125.038 154.445L123.161 153.15L137.184 132.829L140.345 135.01C142.715 136.646 143.06 138.523 141.287 141.091L138.987 144.425C137.215 146.993 135.379 147.329 133.009 145.693L131.7 144.79L125.038 154.445Z" fill="white"/>
<path d="M156.792 145.894L141.968 161.318C139.836 163.553 138.706 163.652 135.795 161.801L135.517 161.623L136.74 159.7L137.019 159.877C138.386 160.746 139.274 161.027 140.495 159.777L142.849 157.363L148.666 140.726L150.691 142.014L146.023 154.049L154.893 144.687L156.792 145.894Z" fill="white"/>
<path d="M156.139 174.332L153.89 173.007L156.338 160.346L150.168 170.813L148.204 169.655L160.741 148.385L162.705 149.543L157.297 158.718L166.297 151.66L168.417 152.909L158.673 160.225L156.139 174.332Z" fill="white"/>
<path d="M165.81 179.768L163.834 178.692L174.534 159.036L172.11 157.716L173.214 155.687L180.039 159.402L178.934 161.431L176.51 160.111L165.81 179.768Z" fill="white"/>
<path d="M184.735 189.51L182.688 188.505L193.577 166.345L195.623 167.351L184.735 189.51ZM184.853 162.059L186.899 163.064L182.057 172.919L183.511 173.633C186.096 174.903 186.672 176.657 185.296 179.457L183.179 183.765C181.803 186.565 180.023 187.195 177.438 185.925L173.965 184.218L184.853 162.059ZM181.146 182.8L183.316 178.384C183.951 177.092 183.69 176.194 182.532 175.626L181.078 174.911L177.016 183.177L178.444 183.878C179.628 184.46 180.498 184.119 181.146 182.8Z" fill="white"/>
<path d="M273.867 217.048L277.516 200.618C278.12 197.894 279.685 196.798 282.204 197.357C284.752 197.923 285.706 199.579 285.101 202.302L281.453 218.732C280.848 221.456 279.283 222.553 276.735 221.987C274.216 221.428 273.263 219.772 273.867 217.048ZM279.227 218.238L282.875 201.808C283.148 200.578 282.758 199.846 281.703 199.612C280.678 199.384 280.014 199.882 279.741 201.112L276.093 217.542C275.814 218.801 276.198 219.563 277.223 219.79C278.277 220.025 278.947 219.497 279.227 218.238Z" fill="white"/>
<path d="M296.68 209.391L297.431 205.35C297.699 203.905 297.295 203.128 295.879 202.865L294.345 202.58L292.805 210.868L294.368 211.158C295.666 211.4 296.4 210.895 296.68 209.391ZM290.255 224.583L288.014 224.166L292.526 199.892L296.301 200.594C299.132 201.12 300.213 202.694 299.643 205.761L298.903 209.743C298.333 212.811 296.794 213.867 293.962 213.341L292.399 213.05L290.255 224.583Z" fill="white"/>
<path d="M308.785 227.771L302.173 226.752L305.934 202.35L312.398 203.346L312.046 205.629L307.836 204.98L306.515 213.549L309.48 214.006L309.132 216.259L306.167 215.802L304.769 224.875L309.127 225.547L308.785 227.771Z" fill="white"/>
<path d="M323.062 229.684L320.62 229.384C320.08 225.903 319.468 219.813 319.394 218.444C318.988 219.784 316.958 225.489 315.588 228.767L313.265 228.482L318.443 215.848L316.81 204.041L319.222 204.337C319.611 207.075 320.042 211.934 320.108 213.363C320.518 211.993 322.142 207.386 323.182 204.824L325.534 205.112L321.041 216.107L323.062 229.684Z" fill="white"/>
<path d="M332.988 230.738L330.806 230.555L332.871 205.951L334.933 206.124L333.498 223.224L337.923 206.375L340.584 206.598L338.519 231.202L336.426 231.026L337.889 213.598L332.988 230.738Z" fill="white"/>
<path d="M436.213 227.861L433.957 228.188L432.829 224.168L429.177 224.697L429.236 228.872L427.039 229.19L426.854 204.269L429.496 203.886L436.213 227.861ZM429.143 222.58L432.261 222.128C431.149 218.015 430.03 214.055 428.931 209.819C429.05 214.197 429.101 218.312 429.143 222.58Z" fill="white"/>
<path d="M442.086 227.009L441.702 227.08L441.291 224.837L441.616 224.778C442.265 224.659 442.71 224.424 442.85 223.026C442.982 221.752 442.861 219.425 442.036 212.928L440.674 202.167L446.782 201.047L451.233 225.333L448.991 225.744L444.956 203.731L442.92 204.104L444.014 212.901C444.972 220.624 444.841 222.905 444.721 223.751C444.44 225.876 443.502 226.75 442.086 227.009Z" fill="white"/>
<path d="M469.557 221.505L467.011 222.08L460.12 211.181L462.797 223.032L460.573 223.535L455.133 199.452L457.357 198.949L459.703 209.338L461.424 198.03L463.824 197.488L461.738 209.493L469.557 221.505Z" fill="white"/>
<path d="M473.301 216.627L469.047 200.343C468.341 197.644 469.233 195.954 471.729 195.301C474.255 194.642 475.859 195.68 476.564 198.379L480.818 214.663C481.524 217.362 480.632 219.053 478.107 219.712C475.61 220.364 474.006 219.326 473.301 216.627ZM478.612 215.239L474.358 198.956C474.04 197.737 473.358 197.263 472.313 197.536C471.297 197.802 470.934 198.548 471.253 199.767L475.507 216.051C475.833 217.299 476.522 217.801 477.538 217.535C478.583 217.262 478.939 216.487 478.612 215.239Z" fill="white"/>
<path d="M482.349 192.768L488.762 190.863L489.42 193.077L485.193 194.333L491.566 215.786L489.38 216.436L482.349 192.768Z" fill="white"/>
<path d="M500.729 208.954L495.405 192.988C494.522 190.342 495.3 188.596 497.747 187.78C500.223 186.954 501.893 187.883 502.776 190.53L508.1 206.496C508.983 209.142 508.205 210.888 505.729 211.714C503.282 212.53 501.612 211.601 500.729 208.954ZM505.937 207.217L500.613 191.251C500.214 190.056 499.503 189.629 498.478 189.971C497.482 190.303 497.169 191.072 497.568 192.267L502.892 208.233C503.3 209.456 504.021 209.912 505.017 209.579C506.042 209.238 506.345 208.441 505.937 207.217Z" fill="white"/>
<path d="M515.572 208.159L515.206 208.296L514.406 206.161L514.715 206.045C515.333 205.814 515.73 205.505 515.622 204.104C515.527 202.826 514.997 200.557 513.039 194.307L509.8 183.955L515.615 181.776L524.28 204.895L522.145 205.696L514.291 184.739L512.353 185.465L514.981 193.932C517.286 201.365 517.56 203.634 517.591 204.487C517.689 206.629 516.92 207.654 515.572 208.159Z" fill="white"/>
<path d="M521.994 179.369L524.099 178.491L528.325 188.625L529.821 188.001C532.479 186.892 534.177 187.614 535.378 190.494L537.226 194.924C538.427 197.803 537.729 199.557 535.071 200.666L531.499 202.156L521.994 179.369ZM535.161 195.818L533.267 191.277C532.713 189.948 531.866 189.553 530.675 190.05L529.18 190.674L532.725 199.174L534.193 198.562C535.411 198.054 535.727 197.174 535.161 195.818Z" fill="white"/>
<path d="M662.199 120.528L660.506 122.055L652.852 113.566L650.49 115.696L658.144 124.185L656.451 125.711L639.917 107.375L641.61 105.848L648.983 114.025L651.345 111.895L643.972 103.719L645.665 102.192L662.199 120.528Z" fill="white"/>
<path d="M663.64 113.948L651.964 101.827C650.028 99.8174 649.979 97.907 651.837 96.117C653.717 94.3063 655.624 94.4268 657.56 96.4361L669.236 108.557C671.171 110.566 671.221 112.477 669.341 114.288C667.483 116.077 665.576 115.957 663.64 113.948ZM667.594 110.139L655.918 98.0179C655.043 97.1105 654.217 97.0314 653.44 97.7807C652.683 98.5091 652.732 99.3375 653.606 100.245L665.282 112.366C666.177 113.295 667.024 113.396 667.78 112.667C668.558 111.918 668.489 111.068 667.594 110.139Z" fill="white"/>
<path d="M671.07 90.6638L667.335 87.0607C666.32 86.0819 665.683 86.0509 664.912 86.8498L663.767 88.0374L670.05 94.0981L671.216 92.8889C671.966 92.1115 671.912 91.476 671.07 90.6638ZM679.144 98.3257L675.192 94.5144C674.177 93.5356 673.559 93.3558 672.663 94.2843L671.497 95.4935L678.255 102.012L679.401 100.825C680.151 100.047 680.072 99.2213 679.144 98.3257ZM681.02 102.387L678.292 105.215L660.521 88.0748L663.25 85.2462C665.082 83.346 666.676 83.4658 668.835 85.5485L672.398 88.9849C673.499 90.0471 673.814 91.0598 673.321 91.9598C674.139 91.4146 675.24 91.3098 676.536 92.5595L680.768 96.6415C682.863 98.6617 682.853 100.487 681.02 102.387Z" fill="white"/>
<path d="M695.742 86.5193L694.227 88.2232L675.776 71.8172L677.291 70.1134L695.742 86.5193ZM669.317 79.0811L670.832 77.3772L679.037 84.6732L680.114 83.4625C682.027 81.3103 683.871 81.2234 686.203 83.2965L689.79 86.486C692.121 88.5592 692.253 90.4427 690.339 92.5949L687.768 95.487L669.317 79.0811ZM688.317 88.1874L684.64 84.9182C683.564 83.9613 682.63 83.9736 681.773 84.9377L680.696 86.1483L687.579 92.2681L688.636 91.0799C689.513 90.0935 689.416 89.1642 688.317 88.1874Z" fill="white"/>
<path d="M683.023 54.4384L684.196 52.9948C686.99 55.2651 686.899 56.8527 685.215 58.9249C683.266 61.323 681.92 61.5048 679.126 59.2346L680.28 57.8144C682.539 59.6495 683.371 59.2435 684.222 58.1958C684.979 57.2645 685.282 56.2735 683.023 54.4384ZM704.234 76.621L702.853 78.3206L683.691 62.7506L684.997 61.1441L698.314 71.9655L686.888 58.8158L688.572 56.7436L707.734 72.3137L706.409 73.9435L692.836 62.9139L704.234 76.621Z" fill="white"/>
<path d="M710.427 43.5166L706.2 40.5052C705.052 39.687 704.417 39.7506 703.773 40.6546L702.815 41.9985L709.926 47.0639L710.9 45.6956C711.527 44.816 711.38 44.1954 710.427 43.5166ZM719.544 49.9013L715.073 46.7158C713.924 45.8977 713.286 45.8113 712.537 46.8619L711.563 48.2302L719.21 53.6786L720.168 52.3347C720.794 51.4551 720.595 50.6498 719.544 49.9013ZM722 53.6403L719.72 56.8411L699.611 42.5151L701.891 39.3143C703.423 37.1641 705.017 37.0471 707.46 38.7878L711.492 41.6599C712.738 42.5477 713.199 43.5027 712.845 44.4657C713.573 43.8056 714.647 43.5393 716.113 44.5837L720.902 47.9955C723.272 49.684 723.532 51.4901 722 53.6403Z" fill="white"/>
<path d="M732.271 38.737L730.829 40.9125L718.315 37.8013L728.442 44.5135L727.183 46.414L706.602 32.7741L707.862 30.8736L716.739 36.7571L710.166 27.3977L711.525 25.3472L718.317 35.4632L732.271 38.737Z" fill="white"/>
<path d="M720.051 11.8463L735.751 26.3767C738.025 28.4667 738.146 29.5943 736.349 32.5397L736.178 32.8214L734.231 31.6342L734.403 31.3525C735.246 29.9694 735.51 29.0761 734.238 27.8784L731.78 25.571L715.036 20.0678L716.286 18.0188L728.406 22.4595L718.879 13.7672L720.051 11.8463Z" fill="white"/>
<path d="M743.534 12.8255L739.066 10.3048L740.083 8.5019L744.525 11.0079C747.033 12.4231 747.679 14.027 746.44 16.2218C745.158 18.495 743.307 18.9666 740.877 17.5956L726.245 9.34053C723.763 7.94012 723.184 6.09763 724.466 3.82445C725.646 1.73417 727.463 1.38188 729.893 2.75281L733.708 4.90503L732.691 6.7079L728.902 4.57041C727.752 3.9218 727.053 3.94052 726.478 4.95953C725.947 5.90015 726.231 6.68003 727.354 7.3139L741.986 15.569C743.11 16.2029 743.95 16.0569 744.481 15.1162C745.026 14.1495 744.684 13.4741 743.534 12.8255Z" fill="white"/>
<path d="M92.3137 92.6863L87.0307 98.7397C84.4006 101.753 84.4006 106.247 87.0307 109.26L92.3137 115.314L86.2603 110.031C83.2466 107.401 78.7534 107.401 75.7397 110.031L69.6863 115.314L74.9693 109.26C77.5994 106.247 77.5994 101.753 74.9693 98.7397L69.6863 92.6863L75.7397 97.9692C78.7534 100.599 83.2466 100.599 86.2603 97.9692L92.3137 92.6863Z" fill="#D15834"/>
<path d="M239.737 182.141L238.189 190.025C237.418 193.95 239.664 197.841 243.449 199.136L251.051 201.737L243.167 200.189C239.242 199.418 235.351 201.664 234.056 205.449L231.455 213.051L233.003 205.167C233.774 201.242 231.528 197.351 227.743 196.056L220.141 193.455L228.025 195.003C231.95 195.774 235.841 193.528 237.136 189.743L239.737 182.141Z" fill="#D15834"/>
<path d="M383.837 204.022L383.962 212.056C384.024 216.055 387.03 219.394 391.001 219.874L398.978 220.837L390.944 220.962C386.945 221.024 383.606 224.03 383.126 228.002L382.162 235.978L382.038 227.944C381.976 223.945 378.969 220.606 374.998 220.126L367.022 219.163L375.055 219.038C379.055 218.976 382.394 215.97 382.874 211.999L383.837 204.022Z" fill="#D15834"/>
</svg>
