<svg width="375" height="1113" viewBox="0 0 375 1113" fill="none" xmlns="http://www.w3.org/2000/svg">
<g clip-path="url(#clip0_2518_7429)">
<path d="M-554.925 1019.74C-621.967 1023.18 -990.841 1075.61 -1038.2 1054L-865.58 -6.73655C-730.711 -44.0329 -648.364 148.293 -494.924 171.662C-355.094 192.959 -32.6906 -76.0167 228.805 42.4998C273.982 62.9755 291.3 100.694 341.805 108.5C399.165 117.366 441.307 52.9998 502.807 61.9998C659.569 84.9405 769.386 109.585 889.972 47.4181C1000.38 -9.5044 1122.39 -30.9539 1184.16 -7.54856C1245.94 15.8568 1355.31 -8.73607 1423.8 69.3758C1478.59 131.865 1453.31 236.176 1465.46 219.1L1463.97 1040.81C1373.84 1035.95 1194.15 930.564 1080.14 917.433C966.134 904.302 822.979 930.499 775.131 950.04C727.284 969.581 676.169 942.715 631.301 945.016C570.885 948.114 495.455 1031.05 417.481 1018.8C344.594 1007.36 303.739 948.095 233.481 949.803C163.223 951.511 163.085 981.593 85.0268 1021.67C6.96842 1061.74 -24.2359 1030.91 -82.0927 1039.74C-138.319 1048.32 -198.335 1112.7 -281.475 1114.52C-369.778 1116.45 -471.122 1015.44 -554.925 1019.74Z" fill="#C5C1DD"/>
<path d="M-554.925 1019.74C-621.967 1023.18 -990.841 1075.61 -1038.2 1054L-865.58 -6.73655C-730.711 -44.0329 -648.364 148.293 -494.924 171.662C-355.094 192.959 -32.6906 -76.0167 228.805 42.4998C273.982 62.9755 291.3 100.694 341.805 108.5C399.165 117.366 441.307 52.9998 502.807 61.9998C659.569 84.9405 769.386 109.585 889.972 47.4181C1000.38 -9.5044 1122.39 -30.9539 1184.16 -7.54856C1245.94 15.8568 1355.31 -8.73607 1423.8 69.3758C1478.59 131.865 1453.31 236.176 1465.46 219.1L1463.97 1040.81C1373.84 1035.95 1194.15 930.564 1080.14 917.433C966.134 904.302 822.979 930.499 775.131 950.04C727.284 969.581 676.169 942.715 631.301 945.016C570.885 948.114 495.455 1031.05 417.481 1018.8C344.594 1007.36 303.739 948.095 233.481 949.803C163.223 951.511 163.085 981.593 85.0268 1021.67C6.96842 1061.74 -24.2359 1030.91 -82.0927 1039.74C-138.319 1048.32 -198.335 1112.7 -281.475 1114.52C-369.778 1116.45 -471.122 1015.44 -554.925 1019.74Z" fill="url(#paint0_linear_2518_7429)"/>
<path d="M-554.925 1019.74C-621.967 1023.18 -990.841 1075.61 -1038.2 1054L-865.58 -6.73655C-730.711 -44.0329 -648.364 148.293 -494.924 171.662C-355.094 192.959 -32.6906 -76.0167 228.805 42.4998C273.982 62.9755 291.3 100.694 341.805 108.5C399.165 117.366 441.307 52.9998 502.807 61.9998C659.569 84.9405 769.386 109.585 889.972 47.4181C1000.38 -9.5044 1122.39 -30.9539 1184.16 -7.54856C1245.94 15.8568 1355.31 -8.73607 1423.8 69.3758C1478.59 131.865 1453.31 236.176 1465.46 219.1L1463.97 1040.81C1373.84 1035.95 1194.15 930.564 1080.14 917.433C966.134 904.302 822.979 930.499 775.131 950.04C727.284 969.581 676.169 942.715 631.301 945.016C570.885 948.114 495.455 1031.05 417.481 1018.8C344.594 1007.36 303.739 948.095 233.481 949.803C163.223 951.511 163.085 981.593 85.0268 1021.67C6.96842 1061.74 -24.2359 1030.91 -82.0927 1039.74C-138.319 1048.32 -198.335 1112.7 -281.475 1114.52C-369.778 1116.45 -471.122 1015.44 -554.925 1019.74Z" fill="url(#paint1_linear_2518_7429)"/>
<path d="M-807.568 118.276C-864.89 131.686 -906.051 129.574 -961.698 110.364L-997.95 957.554C-949.118 948.572 -831.386 950.866 -751.116 1031.9C-650.779 1133.19 -546.288 987.391 -454 988.5C-250.59 990.945 -134.663 1189.12 38.9997 1096C104.188 1061.05 115.796 1017.54 180 1008C250.757 997.487 260.318 1031.68 354.564 1063.5C554.198 1130.91 773.814 1096 892.814 1096C1035.1 1096 1079.99 948.284 1170.98 948.46C1255.13 924.967 1369.32 919.56 1383.69 879.413L1336.65 -31.951C1295.76 4.04108 1192.02 81.9222 1102.08 83.359C980.23 85.3053 902.153 306.406 776.071 281.5C649.988 256.594 520.071 0.473183 316.071 32.5C247.501 43.265 243.82 110.681 149.067 86C93.2614 71.4637 81.3789 20.7306 26.1355 4.18532C-45.2997 -17.2093 -61.9464 54.9453 -163.933 22.5C-259.379 -7.86455 -293.679 -116.219 -426.065 -117.914C-629.467 -120.518 -658.784 83.4663 -807.568 118.276Z" fill="url(#paint2_linear_2518_7429)"/>
<path d="M-807.568 118.276C-864.89 131.686 -906.051 129.574 -961.698 110.364L-997.95 957.554C-949.118 948.572 -831.386 950.866 -751.116 1031.9C-650.779 1133.19 -546.288 987.391 -454 988.5C-250.59 990.945 -134.663 1189.12 38.9997 1096C104.188 1061.05 115.796 1017.54 180 1008C250.757 997.487 260.318 1031.68 354.564 1063.5C554.198 1130.91 773.814 1096 892.814 1096C1035.1 1096 1079.99 948.284 1170.98 948.46C1255.13 924.967 1369.32 919.56 1383.69 879.413L1336.65 -31.951C1295.76 4.04108 1192.02 81.9222 1102.08 83.359C980.23 85.3053 902.153 306.406 776.071 281.5C649.988 256.594 520.071 0.473183 316.071 32.5C247.501 43.265 243.82 110.681 149.067 86C93.2614 71.4637 81.3789 20.7306 26.1355 4.18532C-45.2997 -17.2093 -61.9464 54.9453 -163.933 22.5C-259.379 -7.86455 -293.679 -116.219 -426.065 -117.914C-629.467 -120.518 -658.784 83.4663 -807.568 118.276Z" fill="url(#paint3_linear_2518_7429)"/>
</g>
<defs>
<linearGradient id="paint0_linear_2518_7429" x1="1204.3" y1="-74.9982" x2="1130.19" y2="189.154" gradientUnits="userSpaceOnUse">
<stop stop-color="#D15834"/>
<stop offset="0.114523" stop-color="#D05F3F"/>
<stop offset="0.442274" stop-color="#C5BAD2"/>
<stop offset="1" stop-color="#C5BAD2" stop-opacity="0"/>
</linearGradient>
<linearGradient id="paint1_linear_2518_7429" x1="1355.8" y1="1452" x2="1153.23" y2="1277.29" gradientUnits="userSpaceOnUse">
<stop stop-color="#D15834"/>
<stop offset="0.77244" stop-color="#C5BAD2"/>
<stop offset="1" stop-color="#C5BAD2" stop-opacity="0"/>
</linearGradient>
<linearGradient id="paint2_linear_2518_7429" x1="112.566" y1="225" x2="79.5708" y2="1151.5" gradientUnits="userSpaceOnUse">
<stop offset="0.811275" stop-color="#D9D9D9" stop-opacity="0"/>
<stop offset="1" stop-color="#C5C0DA"/>
</linearGradient>
<linearGradient id="paint3_linear_2518_7429" x1="391.068" y1="-307.5" x2="-120.431" y2="985.5" gradientUnits="userSpaceOnUse">
<stop offset="0.142621" stop-color="#C5C0DA"/>
<stop offset="0.44739" stop-color="#D9D9D9" stop-opacity="0"/>
</linearGradient>
<clipPath id="clip0_2518_7429">
<rect width="375" height="1113" fill="white"/>
</clipPath>
</defs>
</svg>
