<svg width="1920" height="1582" viewBox="0 0 1920 1582" fill="none" xmlns="http://www.w3.org/2000/svg">
<path d="M1854.09 1411.49C1921.13 1414.36 2290.01 1458.04 2337.36 1440.04L2164.75 181.421C2029.88 150.349 1947.53 310.578 1794.09 330.048C1654.26 347.791 1427.97 127.699 1187.68 180.745C1089.93 202.324 1067.22 289.908 964.685 298.09C878.839 304.94 837.551 226.538 745.685 226.538C601.185 226.538 529.779 278.331 409.193 226.538C298.781 179.115 176.777 161.245 115 180.745C53.2234 200.244 -56.1423 179.755 -124.635 244.831C-179.43 296.892 -154.141 383.794 -166.292 369.568L-164.806 1429.05C-74.67 1425 105.016 1337.2 219.024 1326.26C333.032 1315.32 476.188 1370.47 524.035 1386.75C571.883 1403.03 622.998 1397.31 667.865 1399.23C728.282 1401.81 803.712 1454.24 881.686 1444.04C954.573 1434.5 995.428 1351.81 1065.69 1353.23C1135.94 1354.65 1136.08 1379.71 1214.14 1413.1C1292.2 1446.49 1323.4 1420.8 1381.26 1428.16C1437.49 1435.3 1497.5 1488.94 1580.64 1490.45C1668.95 1492.06 1770.29 1407.91 1854.09 1411.49Z" fill="#C5C1DD"/>
<path d="M1854.09 1411.49C1921.13 1414.36 2290.01 1458.04 2337.36 1440.04L2164.75 181.421C2029.88 150.349 1947.53 310.578 1794.09 330.048C1654.26 347.791 1427.97 127.699 1187.68 180.745C1089.93 202.324 1067.22 289.908 964.685 298.09C878.839 304.94 837.551 226.538 745.685 226.538C601.185 226.538 529.779 278.331 409.193 226.538C298.781 179.115 176.777 161.245 115 180.745C53.2234 200.244 -56.1423 179.755 -124.635 244.831C-179.43 296.892 -154.141 383.794 -166.292 369.568L-164.806 1429.05C-74.67 1425 105.016 1337.2 219.024 1326.26C333.032 1315.32 476.188 1370.47 524.035 1386.75C571.883 1403.03 622.998 1397.31 667.865 1399.23C728.282 1401.81 803.712 1454.24 881.686 1444.04C954.573 1434.5 995.428 1351.81 1065.69 1353.23C1135.94 1354.65 1136.08 1379.71 1214.14 1413.1C1292.2 1446.49 1323.4 1420.8 1381.26 1428.16C1437.49 1435.3 1497.5 1488.94 1580.64 1490.45C1668.95 1492.06 1770.29 1407.91 1854.09 1411.49Z" fill="url(#paint0_linear_2181_653)"/>
<path d="M1854.09 1411.49C1921.13 1414.36 2290.01 1458.04 2337.36 1440.04L2164.75 181.421C2029.88 150.349 1947.53 310.578 1794.09 330.048C1654.26 347.791 1427.97 127.699 1187.68 180.745C1089.93 202.324 1067.22 289.908 964.685 298.09C878.839 304.94 837.551 226.538 745.685 226.538C601.185 226.538 529.779 278.331 409.193 226.538C298.781 179.115 176.777 161.245 115 180.745C53.2234 200.244 -56.1423 179.755 -124.635 244.831C-179.43 296.892 -154.141 383.794 -166.292 369.568L-164.806 1429.05C-74.67 1425 105.016 1337.2 219.024 1326.26C333.032 1315.32 476.188 1370.47 524.035 1386.75C571.883 1403.03 622.998 1397.31 667.865 1399.23C728.282 1401.81 803.712 1454.24 881.686 1444.04C954.573 1434.5 995.428 1351.81 1065.69 1353.23C1135.94 1354.65 1136.08 1379.71 1214.14 1413.1C1292.2 1446.49 1323.4 1420.8 1381.26 1428.16C1437.49 1435.3 1497.5 1488.94 1580.64 1490.45C1668.95 1492.06 1770.29 1407.91 1854.09 1411.49Z" fill="url(#paint1_linear_2181_653)"/>
<path d="M1995.46 243.47C2052.75 254.157 2093.91 252.397 2149.59 236.878L2183.38 1315.99C2134.57 1308.85 2016.84 1310.87 1936.43 1376.1C1835.92 1457.63 1733.02 1502.54 1640.74 1503.57C1437.35 1505.85 1403.08 1380.47 1232.11 1359.17C1120.85 1345.31 1073.5 1344.56 974.632 1359.56C822.229 1382.69 756.016 1504.92 620.835 1505.13C501.846 1505.31 411.527 1429.92 292.538 1430.1C150.266 1430.32 105.651 1311.71 14.6646 1311.99C-69.4335 1293.24 -183.6 1289.07 -197.894 1256.84L-148.286 126.039C-107.463 154.894 -3.87701 217.309 86.0575 218.326C207.887 219.704 288.486 95.1759 414.603 74.9732C540.719 54.7706 659.975 157.116 774.984 163.233C866.992 168.126 913.124 238.721 1007.39 223.983C1078.18 212.915 1113.46 151.492 1162.06 145.042C1233.74 135.528 1249.06 150.064 1351.1 123.841C1446.59 99.2996 1482.05 55.8521 1614.42 54.2885C1817.81 51.8861 1846.75 215.73 1995.46 243.47Z" fill="url(#paint2_linear_2181_653)"/>
<path d="M1995.46 243.47C2052.75 254.157 2093.91 252.397 2149.59 236.878L2183.38 1315.99C2134.57 1308.85 2016.84 1310.87 1936.43 1376.1C1835.92 1457.63 1733.02 1502.54 1640.74 1503.57C1437.35 1505.85 1403.08 1380.47 1232.11 1359.17C1120.85 1345.31 1073.5 1344.56 974.632 1359.56C822.229 1382.69 756.016 1504.92 620.835 1505.13C501.846 1505.31 411.527 1429.92 292.538 1430.1C150.266 1430.32 105.651 1311.71 14.6646 1311.99C-69.4335 1293.24 -183.6 1289.07 -197.894 1256.84L-148.286 126.039C-107.463 154.894 -3.87701 217.309 86.0575 218.326C207.887 219.704 288.486 95.1759 414.603 74.9732C540.719 54.7706 659.975 157.116 774.984 163.233C866.992 168.126 913.124 238.721 1007.39 223.983C1078.18 212.915 1113.46 151.492 1162.06 145.042C1233.74 135.528 1249.06 150.064 1351.1 123.841C1446.59 99.2996 1482.05 55.8521 1614.42 54.2885C1817.81 51.8861 1846.75 215.73 1995.46 243.47Z" fill="url(#paint3_linear_2181_653)"/>
<defs>
<linearGradient id="paint0_linear_2181_653" x1="94.8639" y1="124.549" x2="147.477" y2="349.643" gradientUnits="userSpaceOnUse">
<stop stop-color="#D15834"/>
<stop offset="0.114523" stop-color="#D05F3F"/>
<stop offset="0.442274" stop-color="#C5BAD2"/>
<stop offset="1" stop-color="#C5BAD2" stop-opacity="0"/>
</linearGradient>
<linearGradient id="paint1_linear_2181_653" x1="-56.6359" y1="1396.71" x2="113.873" y2="1220.2" gradientUnits="userSpaceOnUse">
<stop stop-color="#D15834"/>
<stop offset="0.77244" stop-color="#C5BAD2"/>
<stop offset="1" stop-color="#C5BAD2" stop-opacity="0"/>
</linearGradient>
<linearGradient id="paint2_linear_2181_653" x1="1075.21" y1="330.618" x2="1034.9" y2="1644.39" gradientUnits="userSpaceOnUse">
<stop offset="0.666875" stop-color="#D9D9D9" stop-opacity="0"/>
<stop offset="1" stop-color="#C5C0DA"/>
</linearGradient>
<linearGradient id="paint3_linear_2181_653" x1="797.714" y1="-96.7868" x2="952.325" y2="1033.06" gradientUnits="userSpaceOnUse">
<stop stop-color="#C5C0DA"/>
<stop offset="0.508758" stop-color="#D9D9D9" stop-opacity="0"/>
</linearGradient>
</defs>
</svg>
