<svg width="1920" height="1485" viewBox="0 0 1920 1485" fill="none" xmlns="http://www.w3.org/2000/svg">
<path d="M157.094 81.6085C90.0513 78.1671 -21.4195 120.536 -68.7747 142.15L-211.562 1403.04C-76.694 1440.34 5.6527 1248.01 159.093 1224.64C298.923 1203.34 525.211 1467.52 765.5 1403.85C863.251 1377.95 885.966 1272.82 988.5 1263C1074.35 1254.78 1115.63 1348.88 1207.5 1348.88C1352 1348.88 1423.41 1286.72 1543.99 1348.88C1654.4 1405.81 1776.41 1427.26 1838.18 1403.85C1899.96 1380.45 2009.33 1405.04 2077.82 1326.93C2132.61 1264.44 2107.33 1160.13 2119.48 1177.2L2117.99 145.49C2027.86 150.354 1848.17 255.739 1734.16 268.87C1620.15 282.001 1477 215.804 1429.15 196.263C1381.3 176.722 1330.19 183.588 1285.32 181.287C1224.9 178.189 1149.47 115.256 1071.5 127.5C998.613 138.945 957.758 238.208 887.5 236.5C817.242 234.792 817.102 204.71 739.044 164.635C660.985 124.56 629.781 155.395 571.924 146.565C515.697 137.984 447.869 88.9422 372.542 71.7866C294.39 53.9876 240.897 85.9104 157.094 81.6085Z" fill="#C5C1DD"/>
<path d="M157.094 81.6085C90.0513 78.1671 -21.4195 120.536 -68.7747 142.15L-211.562 1403.04C-76.694 1440.34 5.6527 1248.01 159.093 1224.64C298.923 1203.34 525.211 1467.52 765.5 1403.85C863.251 1377.95 885.966 1272.82 988.5 1263C1074.35 1254.78 1115.63 1348.88 1207.5 1348.88C1352 1348.88 1423.41 1286.72 1543.99 1348.88C1654.4 1405.81 1776.41 1427.26 1838.18 1403.85C1899.96 1380.45 2009.33 1405.04 2077.82 1326.93C2132.61 1264.44 2107.33 1160.13 2119.48 1177.2L2117.99 145.49C2027.86 150.354 1848.17 255.739 1734.16 268.87C1620.15 282.001 1477 215.804 1429.15 196.263C1381.3 176.722 1330.19 183.588 1285.32 181.287C1224.9 178.189 1149.47 115.256 1071.5 127.5C998.613 138.945 957.758 238.208 887.5 236.5C817.242 234.792 817.102 204.71 739.044 164.635C660.985 124.56 629.781 155.395 571.924 146.565C515.697 137.984 447.869 88.9422 372.542 71.7866C294.39 53.9876 240.897 85.9104 157.094 81.6085Z" fill="url(#paint0_linear_2312_7704)"/>
<path d="M157.094 81.6085C90.0513 78.1671 -21.4195 120.536 -68.7747 142.15L-211.562 1403.04C-76.694 1440.34 5.6527 1248.01 159.093 1224.64C298.923 1203.34 525.211 1467.52 765.5 1403.85C863.251 1377.95 885.966 1272.82 988.5 1263C1074.35 1254.78 1115.63 1348.88 1207.5 1348.88C1352 1348.88 1423.41 1286.72 1543.99 1348.88C1654.4 1405.81 1776.41 1427.26 1838.18 1403.85C1899.96 1380.45 2009.33 1405.04 2077.82 1326.93C2132.61 1264.44 2107.33 1160.13 2119.48 1177.2L2117.99 145.49C2027.86 150.354 1848.17 255.739 1734.16 268.87C1620.15 282.001 1477 215.804 1429.15 196.263C1381.3 176.722 1330.19 183.588 1285.32 181.287C1224.9 178.189 1149.47 115.256 1071.5 127.5C998.613 138.945 957.758 238.208 887.5 236.5C817.242 234.792 817.102 204.71 739.044 164.635C660.985 124.56 629.781 155.395 571.924 146.565C515.697 137.984 447.869 88.9422 372.542 71.7866C294.39 53.9876 240.897 85.9104 157.094 81.6085Z" fill="url(#paint1_linear_2312_7704)"/>
<path d="M-17.3821 236.276C-74.7038 249.686 -115.865 247.573 -171.512 228.364L-207.763 1251.55C-158.931 1242.57 -41.1996 1244.87 39.0702 1325.9C139.407 1427.19 242.213 1482.9 334.5 1484.01C537.91 1486.45 572.468 1330.33 743.5 1303.5C854.806 1286.04 902.154 1285.02 1001 1303.5C1153.37 1331.99 1219.31 1484.01 1354.5 1484.01C1473.5 1484.01 1564 1390 1683 1390C1825.29 1390 1870.18 1242.28 1961.17 1242.46C2045.32 1218.97 2159.51 1213.56 2173.87 1173.41L2126.84 86.0488C2085.94 122.041 1982.21 199.922 1892.26 201.359C1770.42 203.305 1690.09 48.4626 1564.01 23.5563C1437.93 -1.35001 1318.43 126.262 1203.39 134.093C1111.36 140.357 1065.07 228.313 970.83 210.148C900.056 196.506 864.914 120.122 816.322 112.185C744.656 100.48 729.301 118.601 627.315 86.1561C531.868 55.7915 496.507 1.78136 364.121 0.0862395C160.72 -2.51819 131.403 201.466 -17.3821 236.276Z" fill="url(#paint2_linear_2312_7704)"/>
<path d="M-17.3821 236.276C-74.7038 249.686 -115.865 247.573 -171.512 228.364L-207.763 1251.55C-158.931 1242.57 -41.1996 1244.87 39.0702 1325.9C139.407 1427.19 242.213 1482.9 334.5 1484.01C537.91 1486.45 572.468 1330.33 743.5 1303.5C854.806 1286.04 902.154 1285.02 1001 1303.5C1153.37 1331.99 1219.31 1484.01 1354.5 1484.01C1473.5 1484.01 1564 1390 1683 1390C1825.29 1390 1870.18 1242.28 1961.17 1242.46C2045.32 1218.97 2159.51 1213.56 2173.87 1173.41L2126.84 86.0488C2085.94 122.041 1982.21 199.922 1892.26 201.359C1770.42 203.305 1690.09 48.4626 1564.01 23.5563C1437.93 -1.35001 1318.43 126.262 1203.39 134.093C1111.36 140.357 1065.07 228.313 970.83 210.148C900.056 196.506 864.914 120.122 816.322 112.185C744.656 100.48 729.301 118.601 627.315 86.1561C531.868 55.7915 496.507 1.78136 364.121 0.0862395C160.72 -2.51819 131.403 201.466 -17.3821 236.276Z" fill="url(#paint3_linear_2312_7704)"/>
<defs>
<linearGradient id="paint0_linear_2312_7704" x1="1947" y1="1372" x2="1074.69" y2="444.048" gradientUnits="userSpaceOnUse">
<stop stop-color="#D15834"/>
<stop offset="0.154315" stop-color="#C5BAD2"/>
<stop offset="0.885345" stop-color="#C5BAD2" stop-opacity="0"/>
</linearGradient>
<linearGradient id="paint1_linear_2312_7704" x1="-86.0599" y1="57.627" x2="101.408" y2="398.481" gradientUnits="userSpaceOnUse">
<stop stop-color="#D15834"/>
<stop offset="0.508449" stop-color="#C5BAD2"/>
<stop offset="1" stop-color="#C5BAD2" stop-opacity="0"/>
</linearGradient>
<linearGradient id="paint2_linear_2312_7704" x1="327.501" y1="-41" x2="452.001" y2="1642" gradientUnits="userSpaceOnUse">
<stop offset="0.635257" stop-color="#D9D9D9" stop-opacity="0"/>
<stop offset="1" stop-color="#C5C0DA"/>
</linearGradient>
<linearGradient id="paint3_linear_2312_7704" x1="887" y1="-47.5" x2="946.5" y2="1204" gradientUnits="userSpaceOnUse">
<stop stop-color="#C5C0DA"/>
<stop offset="0.429618" stop-color="#D9D9D9" stop-opacity="0"/>
</linearGradient>
</defs>
</svg>
