<svg width="375" height="1283" viewBox="0 0 375 1283" fill="none" xmlns="http://www.w3.org/2000/svg">
<g clip-path="url(#clip0_5063_20172)">
<path d="M-112.107 90.6755C-179.15 87.4299 -290.621 127.387 -337.976 147.771L-480.763 1195.43C-345.895 1230.6 -257.389 1152.12 -112.107 1144.36C126.076 1131.63 166.222 1247.21 346.3 1222.74C504.584 1201.23 616.765 1072.62 719.299 1063.36C805.144 1055.61 846.433 1144.36 938.299 1144.36C1082.8 1144.36 1154.2 1085.73 1274.79 1144.36C1385.2 1198.04 1507.21 1218.27 1568.98 1196.19C1630.76 1174.12 1740.13 1197.31 1808.62 1123.65C1863.41 1064.72 1838.12 966.343 1850.28 982.447L1848.79 150.92C1758.65 155.508 1578.97 254.895 1464.96 267.278C1350.95 279.661 1207.8 217.233 1159.95 198.804C1112.1 180.375 1060.99 186.85 1016.12 184.68C955.703 181.758 880.273 122.408 802.299 133.955C729.413 144.749 688.557 238.361 618.299 236.75C548.042 235.139 547.901 206.77 469.842 168.976C391.784 131.182 360.579 160.262 302.723 151.935C246.496 143.842 178.668 97.5917 103.341 81.4127C25.1884 64.6267 -28.3044 94.7325 -112.107 90.6755Z" fill="#C5C1DD"/>
<path d="M-112.107 90.6755C-179.15 87.4299 -290.621 127.387 -337.976 147.771L-480.763 1195.43C-345.895 1230.6 -257.389 1152.12 -112.107 1144.36C126.076 1131.63 166.222 1247.21 346.3 1222.74C504.584 1201.23 616.765 1072.62 719.299 1063.36C805.144 1055.61 846.433 1144.36 938.299 1144.36C1082.8 1144.36 1154.2 1085.73 1274.79 1144.36C1385.2 1198.04 1507.21 1218.27 1568.98 1196.19C1630.76 1174.12 1740.13 1197.31 1808.62 1123.65C1863.41 1064.72 1838.12 966.343 1850.28 982.447L1848.79 150.92C1758.65 155.508 1578.97 254.895 1464.96 267.278C1350.95 279.661 1207.8 217.233 1159.95 198.804C1112.1 180.375 1060.99 186.85 1016.12 184.68C955.703 181.758 880.273 122.408 802.299 133.955C729.413 144.749 688.557 238.361 618.299 236.75C548.042 235.139 547.901 206.77 469.842 168.976C391.784 131.182 360.579 160.262 302.723 151.935C246.496 143.842 178.668 97.5917 103.341 81.4127C25.1884 64.6267 -28.3044 94.7325 -112.107 90.6755Z" fill="url(#paint0_linear_5063_20172)"/>
<path d="M-112.107 90.6755C-179.15 87.4299 -290.621 127.387 -337.976 147.771L-480.763 1195.43C-345.895 1230.6 -257.389 1152.12 -112.107 1144.36C126.076 1131.63 166.222 1247.21 346.3 1222.74C504.584 1201.23 616.765 1072.62 719.299 1063.36C805.144 1055.61 846.433 1144.36 938.299 1144.36C1082.8 1144.36 1154.2 1085.73 1274.79 1144.36C1385.2 1198.04 1507.21 1218.27 1568.98 1196.19C1630.76 1174.12 1740.13 1197.31 1808.62 1123.65C1863.41 1064.72 1838.12 966.343 1850.28 982.447L1848.79 150.92C1758.65 155.508 1578.97 254.895 1464.96 267.278C1350.95 279.661 1207.8 217.233 1159.95 198.804C1112.1 180.375 1060.99 186.85 1016.12 184.68C955.703 181.758 880.273 122.408 802.299 133.955C729.413 144.749 688.557 238.361 618.299 236.75C548.042 235.139 547.901 206.77 469.842 168.976C391.784 131.182 360.579 160.262 302.723 151.935C246.496 143.842 178.668 97.5917 103.341 81.4127C25.1884 64.6267 -28.3044 94.7325 -112.107 90.6755Z" fill="url(#paint1_linear_5063_20172)"/>
<path d="M-286.583 236.539C-343.905 249.186 -385.066 247.194 -440.713 229.077L-476.965 1052.57C-428.133 1044.09 -310.401 1046.26 -230.131 1122.68C-129.794 1218.21 -26.9882 1270.74 65.2996 1271.79C268.71 1274.09 303.268 1126.86 474.3 1101.55C585.605 1085.09 632.952 1084.12 731.799 1101.55C884.165 1128.42 950.106 1271.79 1085.3 1271.79C1204.3 1271.79 1294.8 1183.13 1413.8 1183.13C1556.08 1183.13 1600.97 1043.82 1691.97 1043.99C1776.12 1021.83 1890.3 1016.73 1904.67 978.872L1857.64 94.863C1816.74 128.806 1713.01 202.255 1623.06 203.61C1501.22 205.445 1420.89 59.4162 1294.81 35.9276C1168.73 12.439 1049.23 132.787 934.192 140.172C842.164 146.08 795.867 229.029 701.629 211.898C630.855 199.033 595.712 126.996 547.12 119.512C475.455 108.473 460.1 125.563 358.113 94.9642C262.667 66.328 227.306 15.3921 94.9202 13.7935C-108.482 11.3373 -137.799 203.711 -286.583 236.539Z" fill="url(#paint2_linear_5063_20172)"/>
<path d="M-286.583 236.539C-343.905 249.186 -385.066 247.194 -440.713 229.077L-476.965 1052.57C-428.133 1044.09 -310.401 1046.26 -230.131 1122.68C-129.794 1218.21 -26.9882 1270.74 65.2996 1271.79C268.71 1274.09 303.268 1126.86 474.3 1101.55C585.605 1085.09 632.952 1084.12 731.799 1101.55C884.165 1128.42 950.106 1271.79 1085.3 1271.79C1204.3 1271.79 1294.8 1183.13 1413.8 1183.13C1556.08 1183.13 1600.97 1043.82 1691.97 1043.99C1776.12 1021.83 1890.3 1016.73 1904.67 978.872L1857.64 94.863C1816.74 128.806 1713.01 202.255 1623.06 203.61C1501.22 205.445 1420.89 59.4162 1294.81 35.9276C1168.73 12.439 1049.23 132.787 934.192 140.172C842.164 146.08 795.867 229.029 701.629 211.898C630.855 199.033 595.712 126.996 547.12 119.512C475.455 108.473 460.1 125.563 358.113 94.9642C262.667 66.328 227.306 15.3921 94.9202 13.7935C-108.482 11.3373 -137.799 203.711 -286.583 236.539Z" fill="url(#paint3_linear_5063_20172)"/>
</g>
<defs>
<linearGradient id="paint0_linear_5063_20172" x1="1677.8" y1="1307.62" x2="859.513" y2="384.594" gradientUnits="userSpaceOnUse">
<stop stop-color="#D15834"/>
<stop offset="0.154315" stop-color="#C5BAD2"/>
<stop offset="0.885345" stop-color="#C5BAD2" stop-opacity="0"/>
</linearGradient>
<linearGradient id="paint1_linear_5063_20172" x1="-355.261" y1="68.059" x2="-184.132" y2="397.986" gradientUnits="userSpaceOnUse">
<stop stop-color="#D15834"/>
<stop offset="0.508449" stop-color="#C5BAD2"/>
<stop offset="1" stop-color="#C5BAD2" stop-opacity="0"/>
</linearGradient>
<linearGradient id="paint2_linear_5063_20172" x1="58.2993" y1="-24.9542" x2="169.096" y2="1563.2" gradientUnits="userSpaceOnUse">
<stop offset="0.635257" stop-color="#D9D9D9" stop-opacity="0"/>
<stop offset="1" stop-color="#C5C0DA"/>
</linearGradient>
<linearGradient id="paint3_linear_5063_20172" x1="617.799" y1="-31.0841" x2="670.732" y2="1149.47" gradientUnits="userSpaceOnUse">
<stop stop-color="#C5C0DA"/>
<stop offset="0.429618" stop-color="#D9D9D9" stop-opacity="0"/>
</linearGradient>
<clipPath id="clip0_5063_20172">
<rect width="375" height="1283" fill="white"/>
</clipPath>
</defs>
</svg>
