<svg width="1920" height="318" viewBox="0 0 1920 318" fill="none" xmlns="http://www.w3.org/2000/svg">
<path d="M0.251223 179.995L-5.07758 184.04L-20.8037 165.006L-15.5944 161.052L-14.123 162.833L-17.5162 165.409L-11.994 172.092L-9.60436 170.279L-8.15213 172.036L-10.5417 173.85L-4.69461 180.927L-1.1819 178.261L0.251223 179.995Z" fill="white" fill-opacity="0.6"/>
<path d="M23.385 163.606L21.6114 164.786L17.2332 158.733C15.1057 155.792 13.1262 153.005 11.0237 150.047L19.4382 166.231L17.7645 167.344L4.92857 154.1C7.08109 157.025 9.11054 159.779 11.2381 162.721L15.6162 168.773L13.8677 169.936L-0.603155 149.931L1.94479 148.237L15.4239 162.421L6.29129 145.346L8.91417 143.601L23.385 163.606Z" fill="white" fill-opacity="0.6"/>
<path d="M31.7413 153.459L22.6032 139.326C21.0884 136.983 21.4314 135.139 23.6488 133.82C25.8919 132.486 27.7661 133.01 29.281 135.353L38.4191 149.486C39.9339 151.829 39.5909 153.673 37.3478 155.007C35.1304 156.326 33.2562 155.802 31.7413 153.459ZM36.4596 150.652L27.3215 136.519C26.6374 135.461 25.8312 135.208 24.903 135.76C24.0006 136.297 23.8786 137.102 24.5627 138.16L33.7008 152.293C34.4012 153.376 35.2237 153.655 36.1261 153.118C37.0543 152.566 37.16 151.735 36.4596 150.652Z" fill="white" fill-opacity="0.6"/>
<path d="M48.3252 129.79L46.2416 126.247C45.4964 124.98 44.6717 124.642 43.4054 125.328L42.0336 126.071L46.3072 133.337L47.7054 132.58C48.8662 131.952 49.1008 131.109 48.3252 129.79ZM53.3791 145.362L51.3742 146.447L38.8576 125.165L42.2344 123.337C44.767 121.966 46.6385 122.486 48.2202 125.176L50.2733 128.667C51.855 131.356 51.3634 133.122 48.8308 134.494L47.4326 135.251L53.3791 145.362Z" fill="white" fill-opacity="0.6"/>
<path d="M64.9352 134.676L57.0838 119.789C55.7823 117.322 56.2848 115.511 58.6053 114.383C60.9528 113.242 62.7709 113.926 64.0725 116.394L71.9239 131.28C73.2254 133.748 72.7229 135.559 70.3754 136.699C68.0549 137.827 66.2368 137.144 64.9352 134.676ZM69.8731 132.276L62.0218 117.39C61.4339 116.275 60.6544 115.954 59.683 116.426C58.7386 116.885 58.5468 117.678 59.1346 118.793L66.986 133.679C67.5878 134.82 68.3813 135.168 69.3258 134.709C70.2971 134.237 70.4749 133.417 69.8731 132.276Z" fill="white" fill-opacity="0.6"/>
<path d="M86.5305 128.647L84.1283 129.668L82.9252 115.518L74.0463 107.137L76.3104 106.175L84.4639 114.343L79.9828 104.615L82.0812 103.724L86.5624 113.451L85.7536 102.164L87.9901 101.213L88.5027 113.148L98.5967 123.521L96.1945 124.541L87.3281 115.113L92.4117 126.149L90.3133 127.04L85.2296 116.005L86.5305 128.647Z" fill="white" fill-opacity="0.6"/>
<path d="M114.252 117.402L107.981 119.731L98.765 96.8258L104.896 94.5485L105.758 96.6916L101.765 98.175L105.001 106.218L107.813 105.174L108.664 107.289L105.852 108.334L109.278 116.85L113.412 115.314L114.252 117.402Z" fill="white" fill-opacity="0.6"/>
<path d="M127.951 112.593L125.785 113.305L121.957 102.535L118.936 103.527L122.764 114.297L120.598 115.009L112.329 91.7446L114.495 91.033L118.182 101.407L121.203 100.415L117.516 90.0405L119.682 89.3289L127.951 112.593Z" fill="white" fill-opacity="0.6"/>
<path d="M137.72 105.247L132.912 89.118C132.115 86.4442 132.956 84.7498 135.443 84.0634C137.959 83.369 139.605 84.3771 140.402 87.0508L145.21 103.18C146.007 105.853 145.166 107.548 142.65 108.242C140.163 108.928 138.517 107.92 137.72 105.247ZM143.012 103.786L138.204 87.6574C137.844 86.4499 137.144 85.9898 136.103 86.2771C135.09 86.5565 134.75 87.3039 135.11 88.5114L139.917 104.64C140.286 105.876 140.995 106.365 142.007 106.086C143.048 105.799 143.38 105.022 143.012 103.786Z" fill="white" fill-opacity="0.6"/>
<path d="M165.658 101.988L159.138 103.488L153.193 79.5247L159.567 78.0576L160.123 80.2996L155.971 81.2552L158.059 89.6702L160.983 88.9972L161.531 91.2101L158.608 91.8831L160.818 100.793L165.116 99.8038L165.658 101.988Z" fill="white" fill-opacity="0.6"/>
<path d="M296.436 76.9199L296.867 72.8326C297.021 71.3707 296.556 70.6339 295.122 70.4991L293.569 70.3531L292.685 78.7366L294.268 78.8855C295.582 79.009 296.276 78.4415 296.436 76.9199ZM291.222 92.6097L288.952 92.3962L291.542 67.8424L295.365 68.2019C298.232 68.4715 299.435 69.9404 299.107 73.0432L298.683 77.0709C298.355 80.1737 296.903 81.3628 294.035 81.0932L292.452 80.9444L291.222 92.6097Z" fill="white" fill-opacity="0.6"/>
<path d="M316.618 70.5803L309.288 90.7432C308.24 93.6581 307.245 94.2189 303.826 93.7533L303.499 93.7088L303.841 91.4545L304.168 91.499C305.773 91.7176 306.7 91.6018 307.313 89.9596L308.491 86.7899L307.076 69.2807L309.454 69.6046L310.056 82.4621L314.388 70.2766L316.618 70.5803Z" fill="white" fill-opacity="0.6"/>
<path d="M328.342 97.4212L326.099 97.0133L328.216 86.4841C327.826 86.5961 327.041 86.6973 326.185 86.5416C324.06 86.1552 323.039 84.5367 323.589 81.8015L325.594 71.831L327.837 72.2389L325.909 81.827C325.584 83.4446 325.785 84.2737 327.113 84.5152C327.733 84.6279 328.181 84.5266 328.642 84.3665L330.966 72.8078L333.209 73.2157L328.342 97.4212Z" fill="white" fill-opacity="0.6"/>
<path d="M345.793 100.942L343.571 100.431L346.378 89.3512L343.279 88.6389L340.472 99.7188L338.25 99.2081L344.314 75.2742L346.536 75.785L343.832 86.4578L346.931 87.1702L349.635 76.4973L351.857 77.0081L345.793 100.942Z" fill="white" fill-opacity="0.6"/>
<path d="M364.905 105.719L362.707 105.115L363.384 101.009L359.826 100.031L358.107 103.851L355.967 103.263L366.378 80.5271L368.953 81.2344L364.905 105.719ZM360.694 98.0928L363.731 98.9274C364.463 94.7431 365.123 90.6945 365.918 86.4033C364.168 90.4322 362.467 94.1947 360.694 98.0928Z" fill="white" fill-opacity="0.6"/>
<path d="M374.734 108.478L372.358 107.732C374.259 104.243 376.217 100.772 378.118 97.2824C377.15 96.3184 376.978 95.07 377.584 93.3116L379.188 88.6603C380.244 85.5972 381.98 84.885 384.728 85.7474L388.306 86.8704L380.258 110.212L378.083 109.529L381.73 98.9504L380.442 98.5461C380.242 98.4832 380.099 98.4383 380.023 98.383L374.734 108.478ZM381.392 89.352L379.876 93.7481C379.387 95.1662 379.543 96.095 380.974 96.5442L382.405 96.9934L385.378 88.3715L383.975 87.9313C382.601 87.5001 381.9 87.8772 381.392 89.352Z" fill="white" fill-opacity="0.6"/>
<path d="M408.519 102.718L410.041 98.9001C410.585 97.5346 410.333 96.7092 408.979 96.2175L407.513 95.6848L404.392 103.516L405.886 104.059C407.127 104.509 407.952 104.139 408.519 102.718ZM399.227 116.474L397.084 115.696L406.225 92.7604L409.835 94.0717C412.541 95.0551 413.311 96.7702 412.155 99.6685L410.656 103.431C409.501 106.329 407.771 107.104 405.065 106.121L403.57 105.578L399.227 116.474Z" fill="white" fill-opacity="0.6"/>
<path d="M420.298 124.334L418.174 123.505L419.299 119.502L415.861 118.161L413.73 121.771L411.662 120.964L424.531 99.4961L427.018 100.467L420.298 124.334ZM416.939 116.328L419.873 117.473C421.062 113.399 422.163 109.451 423.427 105.277C421.241 109.092 419.133 112.646 416.939 116.328Z" fill="white" fill-opacity="0.6"/>
<path d="M438.566 104.995L444.753 107.538L443.805 109.645L439.726 107.968L436.165 115.873L437.664 116.489C440.328 117.584 440.979 119.278 439.698 122.123L437.726 126.499C436.445 129.344 434.67 130.073 432.006 128.978L428.426 127.507L438.566 104.995ZM435.633 125.671L437.653 121.185C438.245 119.872 437.945 119.004 436.752 118.513L435.254 117.898L431.472 126.295L432.942 126.9C434.163 127.401 435.029 127.012 435.633 125.671Z" fill="white" fill-opacity="0.6"/>
<path d="M445.568 130.297L452.696 115.051C453.878 112.524 455.662 111.753 458.035 112.765C460.435 113.79 461.024 115.573 459.843 118.101L452.714 133.347C451.533 135.874 449.749 136.645 447.349 135.621C444.976 134.608 444.386 132.824 445.568 130.297ZM450.617 132.452L457.746 117.206C458.279 116.064 458.049 115.282 457.056 114.858C456.09 114.446 455.327 114.805 454.793 115.946L447.665 131.192C447.119 132.36 447.336 133.17 448.302 133.582C449.295 134.006 450.071 133.62 450.617 132.452Z" fill="white" fill-opacity="0.6"/>
<path d="M467.365 143.914L465.301 143.019L474.899 122.802L472.366 121.704L473.357 119.618L480.486 122.707L479.496 124.794L476.963 123.697L467.365 143.914Z" fill="white" fill-opacity="0.6"/>
<path d="M484.961 151.543L482.868 150.638L484.146 146.683L480.76 145.217L478.491 148.743L476.453 147.861L490.142 126.898L492.592 127.959L484.961 151.543ZM481.907 143.427L484.798 144.678C486.142 140.653 487.395 136.752 488.818 132.631C486.486 136.359 484.242 139.831 481.907 143.427Z" fill="white" fill-opacity="0.6"/>
<path d="M611.6 197.017L609.382 196.488L612.286 185.433L609.193 184.696L606.289 195.751L604.071 195.222L610.343 171.342L612.561 171.871L609.764 182.52L612.858 183.257L615.655 172.608L617.872 173.137L611.6 197.017Z" fill="white" fill-opacity="0.6"/>
<path d="M631.431 201.415L629.193 200.977L629.538 196.827L625.917 196.118L624.512 200.061L622.333 199.635L630.876 176.153L633.496 176.666L631.431 201.415ZM626.625 194.118L629.717 194.723C630.11 190.49 630.442 186.398 630.89 182.054C629.47 186.208 628.078 190.093 626.625 194.118Z" fill="white" fill-opacity="0.6"/>
<path d="M649.516 200.639L650.332 195.575L652.381 195.872L651.569 200.907C651.111 203.75 649.827 204.928 647.333 204.566C644.75 204.191 643.664 202.639 644.108 199.884L646.781 183.298C647.234 180.485 648.765 179.282 651.348 179.657C653.723 180.002 654.686 181.567 654.242 184.321L653.545 188.645L651.497 188.348L652.189 184.053C652.399 182.75 652.138 182.106 650.98 181.938C649.911 181.783 649.277 182.327 649.071 183.601L646.398 200.187C646.193 201.46 646.623 202.189 647.691 202.345C648.79 202.504 649.306 201.942 649.516 200.639Z" fill="white" fill-opacity="0.6"/>
<path d="M665.297 206.712L663.059 206.481L665.629 184.249L662.884 183.965L663.149 181.671L670.878 182.469L670.613 184.764L667.867 184.48L665.297 206.712Z" fill="white" fill-opacity="0.6"/>
<path d="M676.785 204.04L677.817 187.241C677.988 184.457 679.363 183.118 681.939 183.257C684.546 183.396 685.747 184.873 685.576 187.658L684.544 204.456C684.373 207.241 682.998 208.579 680.392 208.439C677.815 208.301 676.614 206.824 676.785 204.04ZM682.267 204.334L683.299 187.535C683.377 186.278 682.876 185.62 681.798 185.562C680.749 185.506 680.171 186.106 680.094 187.363L679.062 204.162C678.983 205.449 679.481 206.137 680.53 206.193C681.608 206.251 682.188 205.621 682.267 204.334Z" fill="white" fill-opacity="0.6"/>
<path d="M700.583 209.107L698.093 209.105C698.768 205.205 699.503 201.306 700.178 197.406C698.95 196.775 698.385 195.635 698.392 193.775L698.411 188.855C698.423 185.615 699.838 184.416 702.718 184.418L706.468 184.421L706.373 209.111L704.093 209.109L704.136 197.919L702.786 197.918C702.576 197.918 702.426 197.918 702.336 197.888L700.583 209.107ZM700.721 188.857L700.703 193.507C700.697 195.007 701.144 195.847 702.644 195.848L704.144 195.849L704.179 186.73L702.709 186.728C701.269 186.727 700.727 187.297 700.721 188.857Z" fill="white" fill-opacity="0.6"/>
<path d="M732.349 211.647L730.552 211.759L730.338 208.466L719.2 209.161L717.599 184.523L719.874 184.381L721.328 206.744L723.783 206.59L722.329 184.228L724.515 184.091L725.969 206.454L728.394 206.303L726.94 183.94L729.216 183.798L730.669 206.161L731.987 206.079L732.349 211.647Z" fill="white" fill-opacity="0.6"/>
<path d="M748.958 206.979L746.784 207.245L743.584 182.764L745.639 182.512L747.863 199.527L748.617 182.147L751.267 181.822L754.467 206.303L752.383 206.559L750.116 189.216L748.958 206.979Z" fill="white" fill-opacity="0.6"/>
<path d="M765.525 174.023L767.359 173.713C768.001 177.255 766.895 178.385 764.262 178.83C761.216 179.344 760.074 178.594 759.432 175.052L761.236 174.747C761.755 177.61 762.653 177.854 763.984 177.629C765.167 177.43 766.044 176.886 765.525 174.023ZM767.168 204.624L765.009 204.989L760.607 180.695L762.648 180.35L765.707 197.235L765.606 179.85L768.239 179.405L772.641 203.7L770.57 204.05L767.452 186.84L767.168 204.624Z" fill="white" fill-opacity="0.6"/>
<path d="M796.292 183.423L795.02 178.391C794.675 177.024 794.149 176.654 793.068 176.908L791.461 177.284L793.599 185.748L795.235 185.365C796.287 185.118 796.578 184.557 796.292 183.423ZM799.105 194.193L797.76 188.871C797.415 187.504 796.983 187.019 795.727 187.314L794.092 187.697L796.392 196.801L797.998 196.425C799.05 196.178 799.421 195.444 799.105 194.193ZM798.549 198.606L794.723 199.503L788.676 175.565L792.502 174.668C795.072 174.066 796.367 175.025 797.102 177.934L798.314 182.733C798.689 184.217 798.42 185.235 797.522 185.722C798.508 185.707 799.502 186.213 799.943 187.959L801.383 193.66C802.096 196.481 801.119 198.004 798.549 198.606Z" fill="white" fill-opacity="0.6"/>
<path d="M818.947 193.505L816.427 194.184L808.859 183.644L812.256 195.309L810.055 195.903L803.152 172.197L805.354 171.604L808.331 181.829L809.38 170.518L811.755 169.877L810.381 181.897L818.947 193.505Z" fill="white" fill-opacity="0.6"/>
<path d="M829.395 164.791L831.899 185.943C832.271 188.996 831.626 189.913 828.325 190.917L828.009 191.013L827.297 188.847L827.613 188.751C829.163 188.279 829.949 187.79 829.759 186.06L829.388 182.725L820.182 167.593L822.478 166.895L828.844 178.188L827.243 165.446L829.395 164.791Z" fill="white" fill-opacity="0.6"/>
<path d="M848.736 180.421L846.991 175.596L848.954 174.94L850.689 179.736C851.669 182.444 851.104 184.056 848.714 184.855C846.239 185.683 844.517 184.803 843.568 182.18L837.853 166.382C836.883 163.702 837.656 161.957 840.131 161.13C842.407 160.369 844.025 161.314 844.974 163.938L846.464 168.057L844.501 168.713L843.021 164.623C842.572 163.381 842.026 162.931 840.917 163.302C839.892 163.645 839.595 164.408 840.034 165.621L845.749 181.419C846.188 182.632 846.924 183.082 847.949 182.739C849.001 182.387 849.185 181.662 848.736 180.421Z" fill="white" fill-opacity="0.6"/>
<path d="M881.453 173.011L879.459 173.758L876.65 166.836C875.285 163.473 874.027 160.293 872.69 156.919L877.015 174.674L875.132 175.379L865.835 159.487C867.228 162.84 868.543 165.999 869.907 169.362L872.716 176.284L870.75 177.021L861.466 154.143L864.332 153.069L874.029 170.028L869.22 151.238L872.17 150.133L881.453 173.011Z" fill="white" fill-opacity="0.6"/>
<path d="M892.322 164.697L885.688 149.23C884.588 146.666 885.232 144.895 887.631 143.946C890.057 142.985 891.813 143.806 892.912 146.37L899.547 161.838C900.647 164.402 900.003 166.172 897.576 167.133C895.177 168.082 893.422 167.261 892.322 164.697ZM897.427 162.677L890.792 147.209C890.296 146.051 889.545 145.671 888.541 146.069C887.565 146.455 887.311 147.233 887.808 148.391L894.442 163.858C894.951 165.044 895.713 165.451 896.689 165.065C897.693 164.668 897.935 163.862 897.427 162.677Z" fill="white" fill-opacity="0.6"/>
<path d="M914.486 160.118L914.125 160.265L913.205 158.179L913.51 158.055C914.122 157.806 914.506 157.488 914.322 156.106C914.159 154.845 913.505 152.618 911.199 146.498L907.385 136.363L913.137 134.023L923.1 156.613L920.988 157.472L911.957 136.996L910.04 137.776L913.139 146.065C915.857 153.344 916.253 155.579 916.33 156.422C916.542 158.537 915.82 159.575 914.486 160.118Z" fill="white" fill-opacity="0.6"/>
<path d="M931.005 149.141L924.159 133.766C923.024 131.217 923.644 129.439 926.03 128.459C928.445 127.467 930.211 128.265 931.346 130.814L938.193 146.189C939.327 148.737 938.708 150.515 936.294 151.507C933.907 152.487 932.14 151.69 931.005 149.141ZM936.084 147.055L929.237 131.68C928.725 130.529 927.969 130.159 926.97 130.569C925.999 130.968 925.756 131.749 926.268 132.9L933.114 148.275C933.639 149.453 934.407 149.851 935.378 149.452C936.377 149.041 936.608 148.233 936.084 147.055Z" fill="white" fill-opacity="0.6"/>
<path d="M960.561 141.268L958.144 142.253L949.232 132.772L954.144 143.885L952.033 144.746L942.05 122.164L944.161 121.303L948.467 131.044L948.022 119.728L950.3 118.799L950.516 130.856L960.561 141.268Z" fill="white" fill-opacity="0.6"/>
<path d="M976.682 134.762L974.565 135.608L972.418 132.01L968.992 133.379L970.135 137.378L968.074 138.202L961.41 114.287L963.89 113.297L976.682 134.762ZM968.408 131.352L971.333 130.183C969.179 126.49 967.056 122.947 964.881 119.133C966.136 123.314 967.256 127.258 968.408 131.352Z" fill="white" fill-opacity="0.6"/>
<path d="M1096.58 92.379L1095.5 87.3633L1097.53 86.9581L1098.6 91.9444C1099.21 94.7602 1098.43 96.2916 1095.96 96.7849C1093.4 97.2959 1091.82 96.205 1091.23 93.4772L1087.71 77.0516C1087.11 74.2652 1088.11 72.6282 1090.67 72.1172C1093.02 71.6474 1094.49 72.791 1095.08 75.5188L1096 79.8012L1093.97 80.2065L1093.05 75.9534C1092.78 74.6628 1092.3 74.1467 1091.15 74.3757C1090.09 74.5872 1089.69 75.3088 1089.97 76.5701L1093.49 92.9957C1093.76 94.2569 1094.43 94.7965 1095.49 94.585C1096.58 94.3677 1096.86 93.6696 1096.58 92.379Z" fill="white" fill-opacity="0.6"/>
<path d="M1114.56 77.4827L1113.69 72.3653C1113.46 70.975 1112.96 70.5672 1111.86 70.7401L1110.23 70.9972L1111.69 79.6051L1113.35 79.3433C1114.42 79.175 1114.75 78.6363 1114.56 77.4827ZM1116.5 88.443L1115.59 83.0298C1115.35 81.6395 1114.96 81.1242 1113.68 81.3252L1112.03 81.587L1113.59 90.8456L1115.22 90.5885C1116.29 90.4202 1116.72 89.7149 1116.5 88.443ZM1115.6 92.8071L1111.71 93.4195L1107.6 69.0748L1111.48 68.4624C1114.09 68.0511 1115.3 69.1049 1115.8 72.0629L1116.63 76.9437C1116.88 78.4523 1116.53 79.4488 1115.6 79.8692C1116.58 79.9267 1117.53 80.5058 1117.83 82.2806L1118.81 88.0783C1119.3 90.9476 1118.2 92.3957 1115.6 92.8071Z" fill="white" fill-opacity="0.6"/>
<path d="M1127.14 86.9485L1125.12 70.2402C1124.79 67.4704 1125.9 65.9249 1128.46 65.6336C1131.06 65.3389 1132.51 66.5931 1132.84 69.3629L1134.86 86.0712C1135.2 88.841 1134.09 90.3865 1131.49 90.6812C1128.93 90.9725 1127.48 89.7183 1127.14 86.9485ZM1132.6 86.3286L1130.58 69.6203C1130.43 68.3694 1129.81 67.805 1128.74 67.9269C1127.7 68.0455 1127.24 68.7319 1127.39 69.9828L1129.41 86.6911C1129.56 87.9717 1130.18 88.566 1131.22 88.4474C1132.3 88.3255 1132.75 87.6093 1132.6 86.3286Z" fill="white" fill-opacity="0.6"/>
<path d="M1150.76 88.3501L1148.28 88.5183C1148.66 84.5835 1149.11 80.6446 1149.49 76.7098C1148.22 76.1644 1147.57 75.0658 1147.44 73.2104L1147.09 68.3027C1146.86 65.0708 1148.18 63.7786 1151.06 63.584L1154.8 63.3307L1156.54 87.9591L1154.27 88.1131L1153.48 76.951L1152.13 77.0422C1151.92 77.0564 1151.77 77.0665 1151.68 77.0427L1150.76 88.3501ZM1149.39 68.1467L1149.72 72.7851C1149.83 74.2813 1150.34 75.0888 1151.83 74.9875L1153.33 74.8862L1152.69 65.789L1151.22 65.8883C1149.78 65.9855 1149.28 66.5906 1149.39 68.1467Z" fill="white" fill-opacity="0.6"/>
<path d="M1174.65 69.4997L1174.63 79.7897C1174.63 81.1997 1175.26 81.8586 1176.58 82.0062L1176.6 67.2462C1175.28 67.3686 1174.65 68.1197 1174.65 69.4997ZM1178.73 67.2424L1178.71 82.0024C1180 81.8501 1180.63 81.189 1180.63 79.779L1180.65 69.489C1180.65 68.109 1180.05 67.36 1178.73 67.2424ZM1172.66 79.6433L1172.67 69.6533C1172.67 66.7433 1173.48 65.3018 1176.54 65.0563L1176.54 62.2663L1178.79 62.2623L1178.79 65.0523C1181.85 65.2868 1182.66 66.7254 1182.66 69.6354L1182.65 79.6253C1182.64 82.5053 1181.83 83.9468 1178.77 84.1923L1178.77 86.9523L1176.52 86.9563L1176.52 84.1963C1173.46 83.9618 1172.65 82.5233 1172.66 79.6433Z" fill="white" fill-opacity="0.6"/>
<path d="M1202.02 87.2576L1195.33 86.9688L1196.57 62.3097L1203.1 62.592L1202.99 64.8991L1198.73 64.7152L1198.3 73.3744L1201.29 73.5039L1201.18 75.781L1198.18 75.6515L1197.72 84.82L1202.13 85.0104L1202.02 87.2576Z" fill="white" fill-opacity="0.6"/>
<path d="M1220.76 72.2403L1221.17 68.1505C1221.31 66.6877 1220.84 65.9535 1219.41 65.8265L1217.85 65.689L1217.02 74.0777L1218.6 74.2178C1219.92 74.3342 1220.61 73.7628 1220.76 72.2403ZM1215.64 87.9592L1213.37 87.7582L1215.81 63.1894L1219.64 63.5279C1222.51 63.7818 1223.72 65.2441 1223.41 68.3488L1223.01 72.379C1222.7 75.4837 1221.25 76.6808 1218.38 76.4269L1216.8 76.2868L1215.64 87.9592Z" fill="white" fill-opacity="0.6"/>
<path d="M1240.84 90.7146L1238.73 90.4055L1239.93 83.0325C1240.51 79.4497 1241.09 76.0785 1241.7 72.5L1236.15 90.0268L1234.16 89.7351L1234.46 71.4378C1233.91 75.025 1233.39 78.4049 1232.8 81.9878L1231.6 89.3608L1229.53 89.0561L1233.49 64.6867L1236.52 65.1308L1236 84.5489L1241.69 65.8882L1244.8 66.3453L1240.84 90.7146Z" fill="white" fill-opacity="0.6"/>
<path d="M1260.87 94.1474L1258.63 93.6969L1259 89.5491L1255.38 88.8199L1253.96 92.7543L1251.78 92.3157L1260.47 68.8852L1263.08 69.4128L1260.87 94.1474ZM1256.11 86.8234L1259.19 87.4459C1259.61 83.2161 1259.97 79.1268 1260.44 74.7859C1259 78.9312 1257.58 82.8071 1256.11 86.8234Z" fill="white" fill-opacity="0.6"/>
<path d="M1384.65 131.715L1386.89 127.102L1388.78 127.942L1386.55 132.528C1385.29 135.118 1383.71 135.894 1381.41 134.871C1379.02 133.811 1378.42 132.035 1379.64 129.526L1386.99 114.418C1388.24 111.855 1390.06 111.123 1392.45 112.182C1394.64 113.156 1395.12 114.911 1393.9 117.42L1391.98 121.359L1390.09 120.519L1391.99 116.607C1392.57 115.42 1392.5 114.734 1391.44 114.26C1390.45 113.821 1389.68 114.169 1389.12 115.329L1381.77 130.436C1381.2 131.596 1381.41 132.409 1382.39 132.847C1383.41 133.298 1384.07 132.902 1384.65 131.715Z" fill="white" fill-opacity="0.6"/>
<path d="M1400.68 143.211L1394.59 140.434L1405.63 118.348L1411.58 121.062L1410.55 123.129L1406.67 121.36L1402.8 129.116L1405.53 130.362L1404.51 132.401L1401.78 131.156L1397.67 139.368L1401.69 141.198L1400.68 143.211Z" fill="white" fill-opacity="0.6"/>
<path d="M1419.98 152.105L1418.05 151.207L1421.44 144.551C1423.09 141.316 1424.67 138.281 1426.35 135.059L1415.69 150.106L1413.86 149.258L1419.71 131.972C1418.09 135.219 1416.56 138.279 1414.92 141.514L1411.53 148.17L1409.62 147.284L1420.83 125.284L1423.6 126.574L1417.21 144.864L1428.33 128.776L1431.19 130.105L1419.98 152.105Z" fill="white" fill-opacity="0.6"/>
<path d="M1437.16 160.12L1431.1 157.287L1442.35 135.308L1448.27 138.077L1447.22 140.133L1443.36 138.329L1439.41 146.047L1442.13 147.318L1441.09 149.347L1438.37 148.077L1434.19 156.249L1438.18 158.117L1437.16 160.12Z" fill="white" fill-opacity="0.6"/>
<path d="M1464.31 139.213L1466 139.996C1464.37 143.205 1462.78 143.491 1460.36 142.366C1457.55 141.064 1457.08 139.818 1458.71 136.609L1460.37 137.38C1459.05 139.974 1459.63 140.676 1460.86 141.244C1461.95 141.75 1462.99 141.807 1464.31 139.213ZM1447.03 164.736L1445.04 163.814L1456.23 141.807L1458.11 142.679L1450.33 157.974L1460.83 143.943L1463.25 145.067L1452.06 167.074L1450.16 166.19L1458.08 150.6L1447.03 164.736Z" fill="white" fill-opacity="0.6"/>
<path d="M1469.93 175.323L1467.85 174.378L1472.96 164.15L1470.07 162.832L1464.96 173.059L1462.89 172.113L1473.91 150.022L1475.99 150.967L1471.07 160.818L1473.96 162.137L1478.88 152.286L1480.95 153.231L1469.93 175.323Z" fill="white" fill-opacity="0.6"/>
<path d="M1490.67 184.646L1488.58 183.727L1499.3 161.486L1501.39 162.405L1490.67 184.646ZM1490.41 157.571L1492.49 158.489L1487.72 168.38L1489.21 169.033C1491.84 170.193 1492.45 171.902 1491.1 174.712L1489.01 179.036C1487.66 181.846 1485.86 182.531 1483.23 181.371L1479.68 179.812L1490.41 157.571ZM1486.94 178.157L1489.08 173.725C1489.7 172.428 1489.42 171.552 1488.24 171.033L1486.76 170.38L1482.76 178.676L1484.22 179.317C1485.43 179.849 1486.3 179.481 1486.94 178.157Z" fill="white" fill-opacity="0.6"/>
<path d="M1519.69 164.037L1521.41 164.755C1519.91 168.028 1518.33 168.375 1515.87 167.345C1513.02 166.153 1512.49 164.925 1513.99 161.653L1515.68 162.359C1514.47 165.004 1515.08 165.683 1516.33 166.204C1517.43 166.667 1518.48 166.683 1519.69 164.037ZM1503.46 190.237L1501.44 189.392L1511.73 166.947L1513.64 167.745L1506.49 183.345L1516.41 168.903L1518.87 169.933L1508.58 192.378L1506.65 191.568L1513.93 175.668L1503.46 190.237Z" fill="white" fill-opacity="0.6"/>
<path d="M1537.22 177.46L1543.47 179.852L1542.57 181.982L1538.45 180.405L1535.1 188.4L1536.61 188.979C1539.3 190.008 1540 191.687 1538.79 194.564L1536.93 198.99C1535.72 201.866 1533.97 202.639 1531.28 201.61L1527.66 200.226L1537.22 177.46ZM1534.82 198.213L1536.72 193.676C1537.28 192.349 1536.96 191.487 1535.75 191.026L1534.24 190.447L1530.68 198.939L1532.16 199.507C1533.39 199.979 1534.25 199.568 1534.82 198.213Z" fill="white" fill-opacity="0.6"/>
<path d="M1544.85 206.788L1542.78 206.055L1551.75 183.051L1553.7 183.744L1547.47 199.732L1556.53 184.748L1559.04 185.641L1550.08 208.646L1548.1 207.943L1554.45 191.647L1544.85 206.788Z" fill="white" fill-opacity="0.6"/>
<path d="M1567.34 210.448L1569.23 205.134C1569.68 203.891 1569.6 203.205 1568.32 202.788L1567.21 202.427L1567.92 200.421L1569.15 200.819C1570.32 201.198 1570.8 200.66 1571.23 199.445L1572.94 194.64C1573.39 193.369 1573.25 192.692 1572.08 192.313C1570.94 191.943 1570.4 192.397 1569.94 193.669L1568.48 197.766L1566.34 197.072L1567.8 192.974C1568.81 190.148 1570.35 189.322 1572.86 190.137C1575.37 190.951 1576.03 192.49 1575.01 195.344L1573.23 200.347C1572.7 201.844 1571.88 202.366 1570.61 202.429C1571.58 203.026 1572.02 203.926 1571.42 205.622L1569.45 211.132C1568.61 213.506 1566.9 214.719 1564.39 213.904C1561.88 213.09 1561.26 211.156 1562.11 208.782L1563.74 204.204L1565.94 204.916L1564.31 209.495C1563.9 210.625 1564.09 211.442 1565.15 211.785C1566.26 212.146 1566.93 211.606 1567.34 210.448Z" fill="white" fill-opacity="0.6"/>
<path d="M1583.3 219.566L1581.11 218.93L1584.59 208.042L1581.54 207.155L1578.06 218.043L1575.87 217.407L1583.38 193.887L1585.57 194.524L1582.22 205.012L1585.28 205.899L1588.63 195.411L1590.82 196.047L1583.3 219.566Z" fill="white" fill-opacity="0.6"/>
<path d="M1601.51 224.609L1595.02 222.962L1601.67 199.184L1608.01 200.794L1607.39 203.019L1603.26 201.97L1600.92 210.32L1603.83 211.059L1603.22 213.254L1600.31 212.516L1597.84 221.357L1602.11 222.442L1601.51 224.609Z" fill="white" fill-opacity="0.6"/>
<path d="M1617.67 224.484L1618.85 219.492L1620.87 219.927L1619.7 224.89C1619.03 227.692 1617.66 228.778 1615.2 228.249C1612.65 227.7 1611.68 226.08 1612.32 223.365L1616.2 207.019C1616.86 204.246 1618.47 203.151 1621.02 203.7C1623.37 204.204 1624.22 205.828 1623.57 208.543L1622.56 212.805L1620.54 212.37L1621.54 208.137C1621.85 206.853 1621.63 206.193 1620.49 205.947C1619.43 205.72 1618.76 206.22 1618.46 207.475L1614.59 223.821C1614.29 225.077 1614.66 225.832 1615.72 226.059C1616.8 226.293 1617.36 225.768 1617.67 224.484Z" fill="white" fill-opacity="0.6"/>
<path d="M1749.88 212.648L1756.53 211.941L1756.79 214.237L1752.4 214.702L1753.37 223.318L1754.98 223.147C1757.85 222.843 1759.28 224.018 1759.63 227.118L1760.17 231.888C1760.52 234.989 1759.36 236.469 1756.49 236.774L1752.64 237.182L1749.88 212.648ZM1757.93 232.156L1757.38 227.267C1757.22 225.836 1756.52 225.217 1755.23 225.353L1753.62 225.524L1754.65 234.676L1756.24 234.508C1757.55 234.368 1758.1 233.616 1757.93 232.156Z" fill="white" fill-opacity="0.6"/>
<path d="M1776.83 234.447L1770.19 235.286L1766.9 210.817L1773.38 209.997L1773.69 212.287L1769.47 212.821L1770.62 221.413L1773.6 221.037L1773.91 223.297L1770.93 223.673L1772.16 232.77L1776.53 232.218L1776.83 234.447Z" fill="white" fill-opacity="0.6"/>
<path d="M1789.04 228.842L1788.17 223.27C1787.96 221.966 1787.57 221.387 1786.23 221.582L1785.07 221.751L1784.75 219.647L1786.02 219.46C1787.24 219.282 1787.4 218.591 1787.21 217.317L1786.42 212.278C1786.21 210.944 1785.76 210.403 1784.54 210.581C1783.36 210.755 1783.09 211.399 1783.3 212.733L1783.97 217.031L1781.75 217.356L1781.07 213.059C1780.61 210.095 1781.57 208.681 1784.19 208.299C1786.8 207.917 1788.12 208.997 1788.59 211.991L1789.41 217.237C1789.66 218.808 1789.18 219.636 1788.09 220.25C1789.23 220.356 1790.05 220.963 1790.33 222.742L1791.23 228.521C1791.62 231.011 1790.7 232.844 1788.08 233.226C1785.47 233.608 1784 232.155 1783.61 229.666L1782.86 224.864L1785.14 224.53L1785.9 229.332C1786.08 230.517 1786.64 231.164 1787.74 231.003C1788.89 230.834 1789.23 230.058 1789.04 228.842Z" fill="white" fill-opacity="0.6"/>
<path d="M1816.06 228.446L1813.82 228.857L1809.49 206.9L1806.36 207.473L1810.69 229.431L1808.45 229.842L1803.67 205.618L1811.29 204.222L1816.06 228.446Z" fill="white" fill-opacity="0.6"/>
<path d="M1827.81 222.276L1823.96 205.893C1823.32 203.177 1824.25 201.529 1826.78 200.979C1829.33 200.422 1830.91 201.519 1831.55 204.235L1835.4 220.618C1836.04 223.334 1835.1 224.982 1832.55 225.539C1830.03 226.089 1828.45 224.992 1827.81 222.276ZM1833.17 221.105L1829.32 204.722C1829.03 203.495 1828.36 202.997 1827.3 203.227C1826.28 203.451 1825.9 204.18 1826.18 205.406L1830.04 221.789C1830.33 223.045 1831.01 223.573 1832.04 223.349C1833.09 223.118 1833.47 222.361 1833.17 221.105Z" fill="white" fill-opacity="0.6"/>
<path d="M1850.79 221.2L1850.41 221.296L1849.81 219.099L1850.13 219.017C1850.77 218.853 1851.19 218.59 1851.21 217.192C1851.23 215.917 1850.91 213.616 1849.51 207.223L1847.21 196.635L1853.23 195.095L1859.8 218.893L1857.59 219.459L1851.63 197.887L1849.63 198.4L1851.49 207.057C1853.12 214.658 1853.19 216.932 1853.15 217.78C1853.05 219.91 1852.19 220.842 1850.79 221.2Z" fill="white" fill-opacity="0.6"/>
<path d="M1871.11 190.159L1873.36 211.342C1873.7 214.4 1873.04 215.31 1869.73 216.277L1869.42 216.37L1868.73 214.195L1869.05 214.103C1870.6 213.649 1871.39 213.168 1871.22 211.436L1870.89 208.096L1861.87 192.857L1864.17 192.185L1870.4 203.552L1868.96 190.789L1871.11 190.159Z" fill="white" fill-opacity="0.6"/>
<path d="M1882.18 194.404L1885.69 204.078C1886.17 205.403 1886.99 205.823 1888.29 205.545L1883.26 191.67C1882.05 192.202 1881.71 193.107 1882.18 194.404ZM1885.28 190.993L1890.31 204.868C1891.49 204.317 1891.86 203.496 1891.38 202.171L1887.87 192.498C1887.4 191.2 1886.57 190.686 1885.28 190.993ZM1883.76 204.566L1880.35 195.175C1879.36 192.439 1879.64 190.828 1882.46 189.63L1881.51 187.007L1883.64 186.292L1884.59 188.915C1887.57 188.168 1888.83 189.264 1889.83 192L1893.23 201.391C1894.21 204.098 1893.94 205.71 1891.12 206.908L1892.06 209.502L1889.93 210.217L1888.98 207.623C1886 208.37 1884.74 207.273 1883.76 204.566Z" fill="white" fill-opacity="0.6"/>
<path d="M1914.94 201.377L1912.81 202.19L1910.72 198.556L1907.27 199.871L1908.35 203.89L1906.28 204.681L1900.01 180.655L1902.51 179.703L1914.94 201.377ZM1906.72 197.834L1909.67 196.712C1907.58 192.984 1905.51 189.406 1903.4 185.557C1904.59 189.759 1905.64 193.722 1906.72 197.834Z" fill="white" fill-opacity="0.6"/>
<path d="M1915.13 174.822L1921.28 172.19L1922.25 174.286L1918.2 176.021L1921.85 183.885L1923.34 183.248C1925.98 182.115 1927.73 182.805 1929.04 185.635L1931.06 189.989C1932.37 192.819 1931.73 194.563 1929.08 195.696L1925.52 197.218L1915.13 174.822ZM1929 190.901L1926.93 186.438C1926.33 185.132 1925.46 184.754 1924.27 185.261L1922.78 185.899L1926.66 194.253L1928.12 193.628C1929.33 193.108 1929.62 192.235 1929 190.901Z" fill="white" fill-opacity="0.6"/>
</svg>
