<svg width="375" height="395" viewBox="0 0 375 395" fill="none" xmlns="http://www.w3.org/2000/svg">
  <g clip-path="url(#clip0_2776_20212)">
    <path d="M17.7382 -473.862C-23.2482 -475.626 -177.336 -443.342 -205.7 -427.678L-176.641 409.801C-93.4484 434.709 -43.7078 367.24 52.2841 346.904C199.199 315.78 250.066 428.858 395.112 381.73C454.118 362.558 543.835 325.425 600.199 358.632C649.779 387.841 680.822 394.66 738.476 379.255C823.776 356.465 837.083 309.083 912.169 351.621C980.921 390.571 1030.79 411.575 1105.37 384.985C1180.91 358.055 1240.01 228.17 1240.01 228.17L1215.64 -448.131C1160.77 -443.827 1053.71 -367.958 984.474 -357.608C915.238 -347.258 826.285 -392.409 796.616 -405.683C766.947 -418.956 735.929 -413.628 708.5 -414.807C671.564 -416.394 624.009 -459.913 576.736 -450.539C532.547 -441.777 510.043 -371.572 467.137 -372.085C424.232 -372.599 423.412 -393.752 374.811 -421.171C326.21 -448.589 307.924 -426.599 272.41 -432.242C237.897 -437.727 195.319 -471.551 148.943 -482.878C100.828 -494.63 68.9712 -471.657 17.7382 -473.862Z" fill="#C5C1DD" />
    <path d="M17.7382 -473.862C-23.2482 -475.626 -177.336 -443.342 -205.7 -427.678L-176.641 409.801C-93.4484 434.709 -43.7078 367.24 52.2841 346.904C199.199 315.78 250.066 428.858 395.112 381.73C454.118 362.558 543.835 325.425 600.199 358.632C649.779 387.841 680.822 394.66 738.476 379.255C823.776 356.465 837.083 309.083 912.169 351.621C980.921 390.571 1030.79 411.575 1105.37 384.985C1180.91 358.055 1240.01 228.17 1240.01 228.17L1215.64 -448.131C1160.77 -443.827 1053.71 -367.958 984.474 -357.608C915.238 -347.258 826.285 -392.409 796.616 -405.683C766.947 -418.956 735.929 -413.628 708.5 -414.807C671.564 -416.394 624.009 -459.913 576.736 -450.539C532.547 -441.777 510.043 -371.572 467.137 -372.085C424.232 -372.599 423.412 -393.752 374.811 -421.171C326.21 -448.589 307.924 -426.599 272.41 -432.242C237.897 -437.727 195.319 -471.551 148.943 -482.878C100.828 -494.63 68.9712 -471.657 17.7382 -473.862Z" fill="url(#paint0_linear_2776_20212)" />
    <path d="M-135.498 -463.109C-168.672 -453.78 -182.991 -363.017 -214.955 -375.324L-198.743 325.918C-170.5 319.59 -21.5175 398.044 42.2471 371.633C124.608 337.52 154.649 364.891 211.415 368.495C302.894 374.303 268.726 317.046 361.254 319.618C419.755 321.244 411.321 295.077 468.558 304.428C553.112 318.242 624.415 392.785 702.42 391.749C771.083 390.838 778.256 334.972 846.918 334.06C929.016 332.971 956.022 234.714 1008.52 234.133C1057.25 217.916 1123.18 213.459 1131.77 186.737L1112.24 -487.261C1088.38 -463.091 1027.94 -410.673 976.03 -409.031C905.712 -406.808 860.524 -508.83 787.962 -524.373C715.4 -539.917 645.494 -454.414 579.061 -448.342C525.915 -443.485 498.543 -384.83 444.305 -396.148C403.571 -404.649 383.865 -455.011 355.887 -459.899C314.625 -467.109 305.629 -454.98 247.026 -475.705C192.182 -495.101 172.183 -530.63 95.8097 -530.74C-21.5323 -530.909 -49.3896 -487.322 -135.498 -463.109Z" fill="url(#paint1_linear_2776_20212)" />
    <path d="M-135.498 -463.109C-168.672 -453.78 -182.991 -363.017 -214.955 -375.324L-198.743 325.918C-170.5 319.59 -21.5175 398.044 42.2471 371.633C124.608 337.52 154.649 364.891 211.415 368.495C302.894 374.303 268.726 317.046 361.254 319.618C419.755 321.244 411.321 295.077 468.558 304.428C553.112 318.242 624.415 392.785 702.42 391.749C771.083 390.838 778.256 334.972 846.918 334.06C929.016 332.971 956.022 234.714 1008.52 234.133C1057.25 217.916 1123.18 213.459 1131.77 186.737L1112.24 -487.261C1088.38 -463.091 1027.94 -410.673 976.03 -409.031C905.712 -406.808 860.524 -508.83 787.962 -524.373C715.4 -539.917 645.494 -454.414 579.061 -448.342C525.915 -443.485 498.543 -384.83 444.305 -396.148C403.571 -404.649 383.865 -455.011 355.887 -459.899C314.625 -467.109 305.629 -454.98 247.026 -475.705C192.182 -495.101 172.183 -530.63 95.8097 -530.74C-21.5323 -530.909 -49.3896 -487.322 -135.498 -463.109Z" fill="url(#paint2_linear_2776_20212)" />
  </g>
  <defs>
    <linearGradient id="paint0_linear_2776_20212" x1="1089.35" y1="442.236" x2="495.958" y2="-296.749" gradientUnits="userSpaceOnUse">
      <stop stop-color="#D15834" />
      <stop offset="0.142637" stop-color="#C5BAD2" />
      <stop offset="0.885345" stop-color="#C5BAD2" stop-opacity="0" />
    </linearGradient>
    <linearGradient id="paint1_linear_2776_20212" x1="74.9871" y1="-557.694" x2="183.922" y2="552.048" gradientUnits="userSpaceOnUse">
      <stop offset="0.635257" stop-color="#D9D9D9" stop-opacity="0" />
      <stop offset="1" stop-color="#C5C0DA" />
    </linearGradient>
    <linearGradient id="paint2_linear_2776_20212" x1="397.863" y1="-566.287" x2="453.974" y2="260.697" gradientUnits="userSpaceOnUse">
      <stop stop-color="#C5C0DA" />
      <stop offset="0.429618" stop-color="#D9D9D9" stop-opacity="0" />
    </linearGradient>
    <clipPath id="clip0_2776_20212">
      <rect width="374.134" height="393.884" fill="white" transform="translate(0 0.135742) rotate(-0.04304)" />
    </clipPath>
  </defs>
</svg>