          <svg
            width="610"
            height="1418"
            viewBox="0 0 610 1418"
            fill="none"
            xmlns="http://www.w3.org/2000/svg"
          >
            <g clip-path="url(#clip0_2366_6206)">
              <path
                d="M-723.393 1160.91C-726.834 1227.95 -684.465 1482.21 -662.851 1529.56L528.038 1529.56C565.334 1394.7 416.352 1317.32 389.639 1158.91C348.756 916.471 582.522 792.793 518.85 552.504C492.948 454.754 417.82 432.039 407.999 329.505C399.776 243.66 483.999 182.372 483.999 90.5062C483.999 -53.9935 396.331 -98.9082 458.499 -219.494C515.421 -329.906 558.087 -448.312 521.999 -571.993C485.447 -697.262 302.202 -801.469 302.202 -801.469L-659.512 -799.984C-654.647 -709.849 -549.262 -530.163 -536.131 -416.155C-523 -302.146 -589.197 -158.992 -608.738 -111.144C-628.279 -63.2964 -621.414 -12.1812 -623.714 32.686C-626.813 93.1019 -689.745 168.532 -677.501 246.505C-666.056 319.392 -566.793 360.247 -568.501 430.505C-570.209 500.763 -600.291 500.902 -640.366 578.961C-680.442 657.019 -649.606 688.224 -658.436 746.081C-667.018 802.307 -716.059 870.135 -733.215 945.462C-751.014 1023.61 -719.091 1077.11 -723.393 1160.91Z"
                fill="#C5C1DD"
              />
              <path
                d="M-723.393 1160.91C-726.834 1227.95 -684.465 1482.21 -662.851 1529.56L528.038 1529.56C565.334 1394.7 416.352 1317.32 389.639 1158.91C348.756 916.471 582.522 792.793 518.85 552.504C492.948 454.754 417.82 432.039 407.999 329.505C399.776 243.66 483.999 182.372 483.999 90.5062C483.999 -53.9935 396.331 -98.9082 458.499 -219.494C515.421 -329.906 558.087 -448.312 521.999 -571.993C485.447 -697.262 302.202 -801.469 302.202 -801.469L-659.512 -799.984C-654.647 -709.849 -549.262 -530.163 -536.131 -416.155C-523 -302.146 -589.197 -158.992 -608.738 -111.144C-628.279 -63.2964 -621.414 -12.1812 -623.714 32.686C-626.813 93.1019 -689.745 168.532 -677.501 246.505C-666.056 319.392 -566.793 360.247 -568.501 430.505C-570.209 500.763 -600.291 500.902 -640.366 578.961C-680.442 657.019 -649.606 688.224 -658.436 746.081C-667.018 802.307 -716.059 870.135 -733.215 945.462C-751.014 1023.61 -719.091 1077.11 -723.393 1160.91Z"
                fill="url(#paint0_linear_2366_6206)"
              />
              <path
                d="M-709.501 1413.5C-696.09 1470.82 -559.427 1493.87 -578.637 1549.51L374.553 1585.77C365.571 1536.93 367.866 1419.2 448.9 1338.93C550.193 1238.59 585.895 1135.79 587.005 1043.5C589.45 840.091 472.367 801.395 446.499 634.501C430.999 534.5 431.244 476.397 446.499 377.001C469.036 230.165 587.005 158.695 587.005 23.5012C587.005 -95.4988 512.999 -185.999 512.999 -304.999C512.999 -447.284 365.284 -492.174 365.459 -583.168C341.966 -667.317 336.56 -781.504 296.413 -795.873L-720.952 -748.835C-684.96 -707.943 -607.079 -604.205 -605.642 -514.26C-603.696 -392.415 -758.538 -312.091 -783.445 -186.009C-808.351 -59.9264 -680.739 59.5744 -672.908 174.609C-666.644 266.637 -578.688 312.934 -596.853 407.172C-610.495 477.946 -686.879 513.088 -694.816 561.68C-706.521 633.346 -688.399 648.7 -720.845 750.687C-751.209 846.133 -805.22 881.494 -806.915 1013.88C-809.519 1217.28 -744.31 1264.72 -709.501 1413.5Z"
                fill="url(#paint1_linear_2366_6206)"
              />
              <path
                d="M-709.501 1413.5C-696.09 1470.82 -559.427 1493.87 -578.637 1549.51L374.553 1585.77C365.571 1536.93 367.866 1419.2 448.9 1338.93C550.193 1238.59 585.895 1135.79 587.005 1043.5C589.45 840.091 472.367 801.395 446.499 634.501C430.999 534.5 431.244 476.397 446.499 377.001C469.036 230.165 587.005 158.695 587.005 23.5012C587.005 -95.4988 512.999 -185.999 512.999 -304.999C512.999 -447.284 365.284 -492.174 365.459 -583.168C341.966 -667.317 336.56 -781.504 296.413 -795.873L-720.952 -748.835C-684.96 -707.943 -607.079 -604.205 -605.642 -514.26C-603.696 -392.415 -758.538 -312.091 -783.445 -186.009C-808.351 -59.9264 -680.739 59.5744 -672.908 174.609C-666.644 266.637 -578.688 312.934 -596.853 407.172C-610.495 477.946 -686.879 513.088 -694.816 561.68C-706.521 633.346 -688.399 648.7 -720.845 750.687C-751.209 846.133 -805.22 881.494 -806.915 1013.88C-809.519 1217.28 -744.31 1264.72 -709.501 1413.5Z"
                fill="url(#paint2_linear_2366_6206)"
              />
            </g>
            <defs>
              <linearGradient
                id="paint0_linear_2366_6206"
                x1="602.999"
                y1="-542.489"
                x2="-563.782"
                y2="232.493"
                gradientUnits="userSpaceOnUse"
              >
                <stop stop-color="#D15834" />
                <stop offset="0.142637" stop-color="#C5BAD2" />
                <stop offset="0.885345" stop-color="#C5BAD2" stop-opacity="0" />
              </linearGradient>
              <linearGradient
                id="paint1_linear_2366_6206"
                x1="-848.001"
                y1="1050.5"
                x2="834.999"
                y2="926.001"
                gradientUnits="userSpaceOnUse"
              >
                <stop offset="0.635257" stop-color="#D9D9D9" stop-opacity="0" />
                <stop offset="1" stop-color="#C5C0DA" />
              </linearGradient>
              <linearGradient
                id="paint2_linear_2366_6206"
                x1="-854.501"
                y1="491.001"
                x2="396.999"
                y2="431.501"
                gradientUnits="userSpaceOnUse"
              >
                <stop stop-color="#C5C0DA" />
                <stop offset="0.429618" stop-color="#D9D9D9" stop-opacity="0" />
              </linearGradient>
              <clipPath id="clip0_2366_6206">
                <rect width="1418" height="610" fill="white" transform="translate(0 1418) rotate(-90)" />
              </clipPath>
            </defs>
          </svg>