<svg width="326" height="345" viewBox="0 0 326 345" fill="none" xmlns="http://www.w3.org/2000/svg">
<path fill-rule="evenodd" clip-rule="evenodd" d="M0 50C0 22.3858 22.3858 0 50 0H108H218H276C303.614 0 326 22.3858 326 50V291C326 320.823 301.823 345 272 345C242.177 345 218 320.823 218 291V290C218 320.376 193.376 345 163 345C132.624 345 108 320.376 108 290V291C108 320.823 83.8234 345 54 345C24.1766 345 0 320.823 0 291V50Z" fill="#D9D9D9"/>
<path fill-rule="evenodd" clip-rule="evenodd" d="M0 50C0 22.3858 22.3858 0 50 0H108H218H276C303.614 0 326 22.3858 326 50V291C326 320.823 301.823 345 272 345C242.177 345 218 320.823 218 291V290C218 320.376 193.376 345 163 345C132.624 345 108 320.376 108 290V291C108 320.823 83.8234 345 54 345C24.1766 345 0 320.823 0 291V50Z" fill="white"/>
</svg>
