<svg width="375" height="991" viewBox="0 0 375 991" fill="none" xmlns="http://www.w3.org/2000/svg">
<g clip-path="url(#clip0_2520_8131)">
<path d="M-781.732 4.88235C-845.739 -47.1184 -915.914 -61.7853 -943 -62.6187C-921.748 421.139 -1298.02 1353.22 -803 1274.9C-667.977 1253.54 -594.727 1079.3 -459 1063C-269.227 1040.21 -240 1227.4 -26 1227.4C66.9127 1227.4 117.622 1299.83 207.128 1274.9C310.292 1246.17 302.138 999.9 393.398 1073.65C484.659 1147.4 519.663 1227.4 695.932 1227.4C817.196 1227.4 849.699 1360.37 1148.48 1293.65C1251.49 1270.65 1318.17 1095.08 1324 1063C1236.91 687.578 1478.53 481.641 1269.5 233C1161.97 105.096 1053.04 8.18469 907.5 4.88235C793.944 2.30573 690.95 52.3831 623.443 67.3833C555.935 82.3835 442.361 11.1832 337.5 49.8813C270.777 74.5048 265.884 139.885 182.125 144.885C98.3657 149.885 72.2683 7.17617 -39.1494 -11.3679C-134.928 -27.3089 -224.5 73.8813 -326 58.3813C-433.263 42.0013 -511.702 124.884 -595.461 126.134C-679.221 127.384 -701.723 69.8833 -781.732 4.88235Z" fill="url(#paint0_linear_2520_8131)"/>
<path d="M-704.835 -22.1526C-769.412 19.9018 -893.186 57.1165 -947 70.4671L-911.531 1041.9C-915.608 1069.86 -932.323 1145.04 -741.527 1117C-503.031 1081.95 -552.537 1346.76 -291.442 1381.09C-72.5148 1409.88 81.5903 1102.4 211.234 1099.48C377.57 1095.72 335.986 1250.92 504.768 1260.94C673.549 1270.95 819.504 1412.38 926.722 1412.38C1074.71 1412.38 1132.2 1194.6 1178.67 1103.23C1215.85 1030.14 1297.72 1029.39 1334 1038.15V241.939C1253.69 231.091 975.138 185.866 906.647 91.7446C821.033 -25.9075 690.166 -79.727 613.114 -75.9721C536.061 -72.2173 503.038 -12.1397 452.893 6.63458C402.748 25.4088 283.913 -20.9776 185.55 14.1443C113.938 39.7144 145.189 95.4994 21.6606 119.28C-101.868 143.061 -52.7803 -20.5934 -139.783 -12.1396C-333 6.63455 -351.729 -132.119 -500 -132.119C-591.5 -132.119 -624.113 -74.7205 -704.835 -22.1526Z" fill="url(#paint1_linear_2520_8131)"/>
</g>
<defs>
<linearGradient id="paint0_linear_2520_8131" x1="148.63" y1="-62.6187" x2="148.63" y2="931.5" gradientUnits="userSpaceOnUse">
<stop stop-color="#C5C1DD"/>
<stop offset="1" stop-color="#C5C1DD" stop-opacity="0"/>
</linearGradient>
<linearGradient id="paint1_linear_2520_8131" x1="134" y1="-329" x2="134" y2="717.5" gradientUnits="userSpaceOnUse">
<stop stop-color="#C5C0DA"/>
<stop offset="1" stop-color="#D9D9D9" stop-opacity="0"/>
</linearGradient>
<clipPath id="clip0_2520_8131">
<rect width="375" height="991" fill="white"/>
</clipPath>
</defs>
</svg>
