<svg width="326" height="345" viewBox="0 0 326 345" fill="none" xmlns="http://www.w3.org/2000/svg">
<path fill-rule="evenodd" clip-rule="evenodd" d="M50 0C22.3858 0 0 22.3858 0 50V208.378H0.647744C1.49451 218.239 7.43529 227.624 17.8153 231.987C31.3431 237.674 38.2483 252.789 33.6874 266.736C27.0766 286.953 44.3978 306.926 65.3503 303.263C79.8065 300.736 93.7929 309.718 97.4998 323.917C102.873 344.501 128.241 351.945 143.891 337.535C154.688 327.593 171.311 327.593 182.108 337.535C197.759 351.945 223.126 344.501 228.5 323.917C232.206 309.718 246.193 300.736 260.649 303.263C281.602 306.926 298.923 286.953 292.312 266.736C287.751 252.789 294.656 237.674 308.184 231.987C318.564 227.624 324.505 218.239 325.352 208.378H326V50C326 22.3858 303.614 0 276 0H50Z" fill="white"/>
</svg>
