<svg width="1920" height="1544" viewBox="0 0 1920 1544" fill="none" xmlns="http://www.w3.org/2000/svg">
<path d="M-9.73199 136.882C-73.7391 84.8816 -143.914 70.2147 -171 69.3813C-149.748 553.139 -526.017 1485.22 -31 1406.9C104.023 1385.54 177.273 1211.3 313 1195C502.773 1172.21 532 1359.4 746 1359.4C838.913 1359.4 889.622 1431.83 979.128 1406.9C1082.29 1378.17 1074.14 1131.9 1165.4 1205.65C1256.66 1279.4 1291.66 1359.4 1467.93 1359.4C1589.2 1359.4 1621.7 1492.37 1920.48 1425.65C2023.49 1402.65 2090.17 1227.08 2096 1195C2008.91 819.578 2250.53 613.641 2041.5 365C1933.97 237.096 1825.04 140.185 1679.5 136.882C1565.94 134.306 1462.95 184.383 1395.44 199.383C1327.94 214.384 1214.36 173.183 1109.5 211.881C1042.78 236.505 1037.88 301.885 954.125 306.885C870.366 311.885 844.268 139.176 732.851 120.632C637.072 104.691 547.5 205.881 446 190.381C338.737 174.001 260.298 256.884 176.539 258.134C92.7794 259.384 70.2769 201.883 -9.73199 136.882Z" fill="url(#paint0_linear_2194_6904)"/>
<path d="M67.1651 109.847C2.58777 151.902 -121.186 189.117 -175 202.467L-139.531 1173.9C-143.608 1201.86 -160.323 1277.04 30.4734 1249C268.969 1213.95 219.463 1478.76 480.558 1513.09C699.485 1541.88 853.59 1234.4 983.234 1231.48C1149.57 1227.72 1107.99 1382.92 1276.77 1392.94C1445.55 1402.95 1591.5 1544.38 1698.72 1544.38C1846.71 1544.38 1904.2 1326.6 1950.67 1235.23C1987.85 1162.14 2069.72 1161.39 2106 1170.15V373.939C2025.69 363.091 1747.14 317.866 1678.65 223.745C1593.03 106.093 1462.17 52.273 1385.11 56.0279C1308.06 59.7827 1275.04 119.86 1224.89 138.635C1174.75 157.409 1055.91 111.022 957.55 146.144C885.938 171.714 917.189 227.499 793.661 251.28C670.132 275.061 719.22 111.407 632.217 119.86C439 138.635 420.271 -0.118545 272 -0.118652C180.5 -0.118719 147.887 57.2795 67.1651 109.847Z" fill="url(#paint1_linear_2194_6904)"/>
<defs>
<linearGradient id="paint0_linear_2194_6904" x1="920.63" y1="69.3813" x2="920.63" y2="1063.5" gradientUnits="userSpaceOnUse">
<stop stop-color="#C5C1DD"/>
<stop offset="1" stop-color="#C5C1DD" stop-opacity="0"/>
</linearGradient>
<linearGradient id="paint1_linear_2194_6904" x1="906" y1="-197" x2="906" y2="849.5" gradientUnits="userSpaceOnUse">
<stop stop-color="#C5C0DA"/>
<stop offset="1" stop-color="#D9D9D9" stop-opacity="0"/>
</linearGradient>
</defs>
</svg>
