<svg width="182" height="100" viewBox="0 0 182 100" fill="none" xmlns="http://www.w3.org/2000/svg">
<path d="M63.9788 6.54367C64.3503 8.38885 64.9044 11.8414 64.3076 18.1721C63.7083 24.8807 63.6723 33.1517 64.6131 34.9991C64.0889 35.4693 61.8525 36.8777 58.9581 36.865C52.6948 36.8377 52.8712 28.9926 55.6023 23.0494C52.0685 28.0915 49.5296 33.5627 49.4286 34.933C49.3812 34.9802 49.2861 35.0267 49.2383 35.0267C48.572 35.5437 46.1941 36.715 43.6315 36.7982L43.2043 36.7963C36.1342 36.7655 36.4069 28.6847 37.0554 21.4562C37.6539 14.7947 37.2963 9.83065 36.3555 7.98329C36.8793 7.51274 39.4478 6.10616 42.3425 6.11887C47.2298 6.13993 48.1097 11.0593 46.9436 17.2931C46.75 18.1427 46.6046 18.9458 46.5062 19.7017C50.3261 14.2356 51.9052 11.2648 52.4885 8.05337C54.2502 6.73792 57.9612 4.53257 63.9788 6.54367Z" fill="white"/>
<path d="M76.1582 26.6807C75.9683 26.7271 75.8258 26.7736 75.6359 26.7725C75.5881 26.8197 75.5407 26.8197 75.4933 26.8194C75.4879 28.0012 75.5305 29.1827 75.6202 30.3177C77.3255 31.0812 79.4153 30.5228 79.6614 28.5861C79.7124 27.7358 78.4369 26.4069 76.1582 26.6807ZM75.5076 23.5585C77.8825 23.0488 79.5506 21.3546 79.7007 19.654C79.7518 18.8033 79.1897 17.0989 77.5249 18.0375C76.3828 18.7412 75.7554 21.1491 75.5076 23.5585ZM70.3327 13.3741C73.6065 13.3886 74.2135 15.6597 74.1551 18.2118C75.3049 15.7116 77.3061 13.8298 80.5818 13.466C86.4686 12.7826 88.7815 15.6285 88.7673 18.8425C88.756 21.4418 87.1353 23.0891 84.569 24.0233C87.3176 24.7912 89.5405 26.5024 89.5277 29.3856C89.503 35.0098 84.6051 37.3988 77.8212 37.0383C76.4451 36.9377 75.3074 36.6966 74.3604 36.2671C73.3149 36.6407 72.0325 36.9185 70.6564 36.9127C64.1557 36.8843 65.3255 29.7999 65.577 26.5402C65.8792 22.5709 65.8544 17.4192 64.6777 15.1928C65.2019 14.7222 67.438 13.3618 70.3327 13.3741Z" fill="white"/>
<path d="M101.614 25.9874C99.7146 26.2154 98.3841 26.6823 97.6685 27.5298C97.0962 28.2363 97.4221 29.6084 99.1777 29.616C100.506 29.6218 101.176 28.5377 101.466 27.2157L101.614 25.9874ZM103.107 31.8072C101.573 35.3927 98.8605 37.0349 95.7762 37.0214C92.7867 37.0084 89.522 34.9148 89.5391 30.9921C89.5639 25.3201 96.7849 23.4139 102.102 23.0119C102.445 20.4613 101.977 18.8993 99.7467 18.8895C97.2318 18.8786 97.3138 21.8094 97.639 23.4651C92.3661 24.8125 88.9584 22.7654 90.5919 18.1408C91.8889 14.5071 98.1107 13.3053 102.001 13.5584C109.069 13.9676 112.852 17.1504 112.214 21.7796C111.428 27.7788 111.738 32.9789 112.914 35.2053C112.39 35.6759 110.296 37.0846 107.734 37.0734C104.175 37.0581 103.331 34.644 103.107 31.8072Z" fill="white"/>
<path d="M118.977 13.5696C124.529 13.5939 124.508 18.4145 124.208 21.8159C124.398 21.8641 124.54 21.8649 124.73 21.8656C125.536 21.9636 126.295 22.0617 127.007 22.1118C126.971 19.4177 126.65 16.8642 125.945 15.4431C126.468 14.9725 128.989 13.6131 131.932 13.6258C138.432 13.6542 137.265 20.2187 137.013 23.4316C136.711 27.4476 136.734 33.0721 137.91 35.2985C137.386 35.7687 134.818 37.1756 131.923 37.1629C125.707 37.1361 126.494 30.7113 126.794 27.2624C126.604 27.2617 126.415 27.2138 126.225 27.1655L123.901 26.8721C123.839 30.1802 124.061 33.6316 124.956 35.2419C124.432 35.7124 121.864 37.119 118.969 37.1067C112.468 37.0783 113.638 29.9939 113.89 26.7342C114.192 22.7649 114.167 17.6132 112.99 15.3868C113.514 14.9162 116.036 13.5568 118.977 13.5696Z" fill="white"/>
<path d="M25.9407 52.2178C23.6019 54.9957 18.2736 57.3379 14.866 56.1859C12.7768 55.4688 10.3192 53.8516 10.1052 48.3215C9.89632 42.3176 10.6268 37.9726 13.6185 37.0852C15.902 36.3889 18.6906 38.8589 18.2357 44.4805C21.7457 45.7259 25.3087 43.799 25.3236 40.1649C25.3426 36.0969 19.7663 31.7723 13.1155 32.2145C3.76712 32.7918 0.039068 39.8149 -0.00175938 48.278C-0.0371188 56.7817 4.76775 63.6584 14.1639 63.6991C23.2319 63.7361 28.2847 57.8045 25.9407 52.2178Z" fill="white"/>
<path d="M36.0992 56.2662C34.3429 56.2549 34.0177 54.8887 34.5922 54.177C35.3071 53.3321 36.639 52.867 38.5361 52.6379L38.3848 53.8655C38.0946 55.1867 37.4279 56.2684 36.0992 56.2662ZM49.134 48.4305C49.7723 43.8002 45.9878 40.6167 38.925 40.2107C35.0344 39.9551 28.8137 41.1555 27.5167 44.7899C25.8792 49.4148 29.2868 51.4626 34.5634 50.1134C34.2339 48.4589 34.1526 45.5281 36.6675 45.5382C38.901 45.548 39.3694 47.1093 39.0205 49.6625C33.7075 50.0622 26.4829 51.9717 26.461 57.6434C26.4439 61.5643 29.7086 63.6582 32.6992 63.6734C35.7842 63.6865 38.4934 62.0432 40.0299 58.4552C40.2504 61.292 41.0962 63.7083 44.6569 63.7264C47.2199 63.7326 49.3127 62.3246 49.8332 61.8566C48.6616 59.6316 48.3503 54.4304 49.134 48.4305Z" fill="white"/>
<path d="M60.8742 57.1781C60.786 56.0446 60.7412 54.8591 60.7492 53.6773C60.7959 53.6798 60.8425 53.682 60.8859 53.6305C61.0798 53.6341 61.2231 53.5883 61.4141 53.5382C63.6884 53.2681 64.9668 54.5977 64.9165 55.4437C64.6675 57.3814 62.5784 57.9413 60.8742 57.1781ZM62.7785 44.8962C64.4437 43.9605 65.0062 45.6601 64.9544 46.5126C64.805 48.2151 63.134 49.9052 60.759 50.4168C61.0051 48.0107 61.635 45.5984 62.7785 44.8962ZM74.7825 56.2432C74.792 53.3636 72.5676 51.6509 69.8242 50.8812C72.389 49.9452 74.0112 48.2993 74.0199 45.7C74.0334 42.4871 71.7208 39.6409 65.8355 40.3243C62.5562 40.6881 60.5593 42.5692 59.4088 45.0686C59.4682 42.5194 58.8558 40.2484 55.5834 40.2324C52.692 40.2233 50.4541 41.5834 49.9336 42.0511C51.1056 44.276 51.1307 49.4289 50.8282 53.4021C50.5781 56.6567 49.4083 63.7452 55.9068 63.7749C57.2822 63.7793 58.5649 63.4986 59.6108 63.125C60.5607 63.556 61.6955 63.7949 63.0716 63.8998C69.8548 64.2586 74.7566 61.8677 74.7825 56.2432Z" fill="white"/>
<path d="M86.6498 45.0192C87.8841 45.0232 89.0579 47.5829 87.8652 49.0912C87.0559 50.0784 85.5829 50.7839 84.6803 51.111C84.5563 46.9486 85.5628 45.017 86.6498 45.0192ZM98.0068 52.8255C93.008 56.441 87.1711 56.8397 85.3317 54.0447C91.8251 54.3068 95.0267 52.8763 96.1659 49.5494C97.6473 45.2222 94.352 40.7534 89.7709 40.4615C88.7171 40.3943 87.6548 40.3765 86.6746 40.4375C79.9775 40.8775 74.8347 45.6826 74.8048 52.1552C74.7767 59.1024 79.7799 63.992 86.7556 64.02C92.7368 64.0505 97.9718 60.8082 98.0068 52.8255Z" fill="white"/>
<path d="M122.304 41.1982C119.643 41.6612 116.369 41.411 111.442 40.8221C108.169 40.431 103.752 40.5022 102.275 42.9581C103.091 50.9448 102.638 56.5199 97.1602 61.6009C97.4376 62.9715 99.6652 63.9761 102.227 63.9885C110.771 64.0251 112.383 52.9704 111.464 45.927C111.893 45.9295 112.319 45.9786 112.746 46.0272C113.064 48.5357 112.579 51.6513 112.046 54.5302C111.509 57.7428 110.624 64.0237 117.129 64.0546C120.066 64.0662 122.588 62.6607 123.117 62.1876C121.939 59.9612 120.886 51.4948 122.304 41.1982Z" fill="white"/>
<path d="M148.72 50.4365C149.022 46.3297 149.473 40.6602 143.209 40.629C140.741 40.621 139.027 41.7012 137.131 42.4455C136.165 45.7557 134.782 47.8289 133.349 49.7118C134.645 45.837 135.288 40.5992 129.212 40.5705C126.268 40.5578 123.748 41.9168 123.18 42.3889C124.352 44.6138 124.425 49.7627 124.122 53.7359C123.769 58.6952 124.271 64.087 130.248 64.1098C132.763 64.12 134.62 63.0943 136.469 62.2476C137.051 59.4649 137.722 58.05 138.822 56.6376C138.097 59.9874 138.738 64.1494 143.627 64.1694C146.525 64.1799 149.093 62.7766 149.615 62.3024C148.437 60.076 148.415 54.4562 148.72 50.4365Z" fill="white"/>
<path d="M173.491 61.1126C168.927 58.4131 172.947 54.3821 173.199 51.048C173.45 47.7871 174.623 40.7524 168.118 40.7216C165.227 40.7121 162.654 42.0679 162.133 42.5424C162.742 43.7228 163.073 44.7158 163.204 46.7001C163.143 50.1515 162.234 52.1358 160.953 52.1292C160.095 52.1241 161.015 49.1527 161.113 47.0258C161.224 44.6603 160.573 40.6903 155.355 40.6667C152.459 40.65 150.226 42.0178 149.699 42.4843C150.877 44.7107 151.106 46.7469 150.804 50.7136C150.553 53.9748 152.151 57.6659 156.892 57.6909C159.79 57.7014 162.023 56.8148 163.642 55.1148C163.411 55.926 163.237 56.6815 163.114 57.3797C162.615 60.2252 163.02 62.1819 164.469 63.2569C164.761 63.4806 165.101 63.6665 165.483 63.807C166.243 64.1073 167.181 64.2547 168.302 64.2569C171.198 64.2739 173.432 62.8663 173.954 62.3921C173.768 62.0352 173.927 61.3704 173.491 61.1126Z" fill="white"/>
<path d="M16.2452 11.9729C14.9636 9.71821 13.1088 8.02589 11.5002 6.03584C10.6034 4.9299 9.38005 2.71691 11.3565 1.75402C11.5202 1.67451 11.7269 1.72316 11.9252 1.73732C15.6077 1.98785 17.3108 5.31876 17.8853 8.50334C18.1984 10.2454 18.2505 12.0318 18.1718 13.8083C18.1434 14.4259 17.8197 15.5689 17.9826 16.1644C17.5864 14.7164 16.9856 13.2771 16.2452 11.9729ZM21.2892 17.4199C19.58 13.0375 19.7896 8.07708 17.6235 3.86026C16.6003 1.86658 14.8105 0.459999 12.5613 0.119066C4.08781 -1.17205 1.5474 8.33814 4.47603 14.4967C8.97178 23.9401 21.1722 27.0691 29.3676 26.5906C25.1591 25.8804 22.6774 20.9618 21.2892 17.4199Z" fill="white"/>
<path d="M178.929 74.808C173.64 79.2968 165.509 79.5143 161.832 78.611C158.154 77.708 158.922 74.1051 158.922 74.1051C158.967 74.1138 167.515 75.7557 170.048 71.0494C171.54 68.2755 169.111 65.3026 165.495 63.8067C165.032 63.6153 164.795 63.4846 164.505 63.2773C163.057 62.2022 162.627 60.2252 163.127 57.3798C167.494 58.5631 170.887 59.8259 173.503 61.1126C184.684 66.6115 181.581 72.5584 178.929 74.808Z" fill="white"/>
<path d="M149.26 76.051C149.298 77.1754 153.054 78.8071 156.387 77.5618C157.282 77.2274 157.134 76.0114 156.72 75.4668C155.187 73.4459 149.139 72.5022 149.26 76.051Z" fill="white"/>
<path d="M146.805 74.8141C146.618 74.3784 146.197 74.0897 145.729 74.0033C142.071 73.3291 118.459 69.3976 71.254 70.5944C45.2422 71.2537 57.3997 85.6274 64.7285 82.0946C66.3686 81.3042 68.2506 79.7073 69.3781 79.1351C72.0283 77.7899 74.456 77.421 78.1309 76.6912C82.8081 75.7625 103.586 73.544 139.001 76.2893C146.524 76.8728 147.168 75.6564 146.805 74.8141Z" fill="white"/>
<path d="M83.2287 83.3531V89.4472H81.8129V86.9487H79.0338V89.4472H77.6172V83.3531H79.0338V85.756H81.8129V83.3531H83.2287Z" fill="white"/>
<path d="M89.0853 87.0683L88.1154 84.7351L87.1451 87.0683H89.0853ZM89.5312 88.1392H86.6903L86.1484 89.4449H84.6973L87.4248 83.3508H88.8231L91.5592 89.4449H90.073L89.5312 88.1392Z" fill="white"/>
<path d="M94.1525 89.1391C93.6484 88.8691 93.2522 88.495 92.964 88.016C92.6754 87.5371 92.5312 86.9962 92.5312 86.3923C92.5312 85.7888 92.6754 85.2475 92.964 84.7686C93.2522 84.29 93.6484 83.9155 94.1525 83.6455C94.6567 83.3758 95.2234 83.2408 95.8527 83.2408C96.3829 83.2408 96.8626 83.3336 97.2906 83.5193C97.719 83.705 98.0787 83.972 98.3696 84.3202L97.4611 85.1562C97.0471 84.6804 96.5347 84.442 95.9226 84.442C95.5439 84.442 95.2059 84.5248 94.9088 84.6904C94.6116 84.8556 94.3801 85.0866 94.2139 85.3825C94.0477 85.6785 93.9649 86.0151 93.9649 86.3923C93.9649 86.7699 94.0477 87.1065 94.2139 87.4021C94.3801 87.6984 94.6116 87.929 94.9088 88.0946C95.2059 88.2598 95.5439 88.3426 95.9226 88.3426C96.5347 88.3426 97.0471 88.1019 97.4611 87.6199L98.3696 88.4559C98.0787 88.8099 97.7175 89.0796 97.2863 89.2653C96.8548 89.451 96.3739 89.5438 95.8441 89.5438C95.2207 89.5438 94.6567 89.4088 94.1525 89.1391Z" fill="white"/>
<path d="M104.575 84.5021H102.617V89.4472H101.219V84.5021H99.2695V83.3531H104.575V84.5021Z" fill="white"/>
<path d="M109.922 88.1204C110.214 87.9548 110.442 87.7242 110.608 87.4282C110.775 87.1323 110.857 86.7957 110.857 86.4185C110.857 86.0413 110.775 85.7043 110.608 85.4083C110.442 85.1124 110.214 84.8818 109.922 84.7162C109.631 84.551 109.304 84.4682 108.944 84.4682C108.582 84.4682 108.256 84.551 107.964 84.7162C107.673 84.8818 107.444 85.1124 107.278 85.4083C107.112 85.7043 107.029 86.0413 107.029 86.4185C107.029 86.7957 107.112 87.1323 107.278 87.4282C107.444 87.7242 107.673 87.9548 107.964 88.1204C108.256 88.286 108.582 88.3684 108.944 88.3684C109.304 88.3684 109.631 88.286 109.922 88.1204ZM107.226 89.1607C106.716 88.8879 106.317 88.5119 106.028 88.0333C105.74 87.5544 105.596 87.0162 105.596 86.4185C105.596 85.8208 105.74 85.2822 106.028 84.8033C106.317 84.3247 106.716 83.9486 107.226 83.6759C107.735 83.4031 108.308 83.2666 108.944 83.2666C109.579 83.2666 110.15 83.4031 110.656 83.6759C111.163 83.9486 111.562 84.3247 111.854 84.8033C112.145 85.2822 112.291 85.8208 112.291 86.4185C112.291 87.0162 112.145 87.5544 111.854 88.0333C111.562 88.5119 111.163 88.8879 110.656 89.1607C110.15 89.4334 109.579 89.57 108.944 89.57C108.308 89.57 107.735 89.4334 107.226 89.1607Z" fill="white"/>
<path d="M115.205 84.7857C114.993 84.9714 114.886 85.2472 114.886 85.6128C114.886 85.9668 114.989 86.2396 115.192 86.4311C115.396 86.6226 115.696 86.7185 116.092 86.7185H117.334V84.5071H116.128C115.725 84.5071 115.418 84.6 115.205 84.7857ZM118.733 83.3581V89.4522H117.334V87.8327H116.04L114.956 89.4522H113.462L114.738 87.6153C114.324 87.447 114.007 87.1928 113.785 86.8535C113.563 86.5139 113.453 86.1061 113.453 85.6302C113.453 85.1602 113.561 84.7551 113.776 84.4158C113.992 84.0761 114.298 83.815 114.694 83.632C115.09 83.4494 115.556 83.3581 116.092 83.3581H118.733Z" fill="white"/>
<path d="M129.794 88.2841V90.6956H128.483V89.4332H127.53V88.2841H129.794ZM128.963 83.339V89.4332H120.887V83.339H122.294V88.2841H124.226V83.339H125.633V88.2841H127.556V83.339H128.963Z" fill="white"/>
<path d="M136.199 88.3156V89.4472H131.461V83.3531H136.085V84.4851H132.869V85.8082H135.71V86.905H132.869V88.3156H136.199Z" fill="white"/>
<path d="M142.711 88.3155V89.4471H137.973V83.353H142.597V84.485H139.38V85.8081H142.221V86.9049H139.38V88.3155H142.711Z" fill="white"/>
<path d="M81.3278 99.8724L81.3193 96.2245L79.5185 99.2282H78.8897L77.089 96.2941V99.8724H75.7598V93.7782H76.9313L79.2214 97.5654L81.4766 93.7782H82.6477L82.6562 99.8724H81.3278Z" fill="white"/>
<path d="M88.7091 98.5504C89.0008 98.3848 89.2292 98.1543 89.3954 97.8583C89.5617 97.5623 89.6444 97.2257 89.6444 96.8485C89.6444 96.4713 89.5617 96.1344 89.3954 95.8384C89.2292 95.5424 89.0008 95.3119 88.7091 95.1463C88.4178 94.9811 88.0915 94.8983 87.7306 94.8983C87.369 94.8983 87.0427 94.9811 86.7514 95.1463C86.4601 95.3119 86.2313 95.5424 86.0655 95.8384C85.8992 96.1344 85.8161 96.4713 85.8161 96.8485C85.8161 97.2257 85.8992 97.5623 86.0655 97.8583C86.2313 98.1543 86.4601 98.3848 86.7514 98.5504C87.0427 98.716 87.369 98.7984 87.7306 98.7984C88.0915 98.7984 88.4178 98.716 88.7091 98.5504ZM86.0126 99.5907C85.5026 99.318 85.1041 98.9419 84.8151 98.4634C84.5269 97.9844 84.3828 97.4463 84.3828 96.8485C84.3828 96.2508 84.5269 95.7123 84.8151 95.2333C85.1041 94.7547 85.5026 94.3787 86.0126 94.1059C86.5222 93.8332 87.0952 93.6966 87.7306 93.6966C88.3657 93.6966 88.9367 93.8332 89.4436 94.1059C89.9501 94.3787 90.3494 94.7547 90.6411 95.2333C90.9324 95.7123 91.0781 96.2508 91.0781 96.8485C91.0781 97.4463 90.9324 97.9844 90.6411 98.4634C90.3494 98.9419 89.9501 99.318 89.4436 99.5907C88.9367 99.8635 88.3657 100 87.7306 100C87.0952 100 86.5222 99.8635 86.0126 99.5907Z" fill="white"/>
<path d="M96.3901 96.7686C96.6115 96.586 96.7218 96.3261 96.7218 95.9895C96.7218 95.6471 96.6115 95.3844 96.3901 95.2014C96.1687 95.0188 95.8447 94.9275 95.4194 94.9275H94.2662V97.0429H95.4194C95.8447 97.0429 96.1687 96.9512 96.3901 96.7686ZM96.9102 94.0481C97.3091 94.228 97.6167 94.4833 97.8323 94.8141C98.0475 95.1449 98.1555 95.5368 98.1555 95.9895C98.1555 96.4363 98.0475 96.8267 97.8323 97.1606C97.6167 97.4944 97.3091 97.7498 96.9102 97.9266C96.5105 98.1038 96.0401 98.192 95.4983 98.192H94.2662V99.8722H92.8496V93.7781H95.4983C96.0401 93.7781 96.5105 93.8682 96.9102 94.0481Z" fill="white"/>
<path d="M103.684 98.5504C103.975 98.3848 104.204 98.1543 104.37 97.8583C104.536 97.5623 104.619 97.2257 104.619 96.8485C104.619 96.4713 104.536 96.1344 104.37 95.8384C104.204 95.5424 103.975 95.3119 103.684 95.1463C103.392 94.9811 103.066 94.8983 102.705 94.8983C102.344 94.8983 102.017 94.9811 101.726 95.1463C101.435 95.3119 101.206 95.5424 101.04 95.8384C100.874 96.1344 100.791 96.4713 100.791 96.8485C100.791 97.2257 100.874 97.5623 101.04 97.8583C101.206 98.1543 101.435 98.3848 101.726 98.5504C102.017 98.716 102.344 98.7984 102.705 98.7984C103.066 98.7984 103.392 98.716 103.684 98.5504ZM100.987 99.5907C100.477 99.318 100.079 98.9419 99.7897 98.4634C99.5015 97.9844 99.3574 97.4463 99.3574 96.8485C99.3574 96.2508 99.5015 95.7123 99.7897 95.2333C100.079 94.7547 100.477 94.3787 100.987 94.1059C101.497 93.8332 102.07 93.6966 102.705 93.6966C103.34 93.6966 103.911 93.8332 104.418 94.1059C104.925 94.3787 105.324 94.7547 105.616 95.2333C105.907 95.7123 106.053 96.2508 106.053 96.8485C106.053 97.4463 105.907 97.9844 105.616 98.4634C105.324 98.9419 104.925 99.318 104.418 99.5907C103.911 99.8635 103.34 100 102.705 100C102.07 100 101.497 99.8635 100.987 99.5907Z" fill="white"/>
<path d="M113.174 97.418H112.282V99.8732H110.893V97.418H109.984L108.611 99.8732H106.977L108.812 96.6868L107.091 93.779H108.585L109.957 96.2427H110.893V93.779H112.282V96.2427H113.191L114.573 93.779H116.067L114.354 96.6868L116.181 99.8732H114.547L113.174 97.418Z" fill="white"/>
<path d="M122.258 98.7406V99.8722H117.52V93.7781H122.144V94.9101H118.927V96.2332H121.768V97.33H118.927V98.7406H122.258Z" fill="white"/>
<path d="M129.643 93.779V99.8732H128.227V97.3747H125.448V99.8732H124.031V93.779H125.448V96.1819H128.227V93.779H129.643Z" fill="white"/>
<path d="M135.758 98.5504C136.05 98.3848 136.278 98.1543 136.444 97.8583C136.61 97.5623 136.693 97.2257 136.693 96.8485C136.693 96.4713 136.61 96.1344 136.444 95.8384C136.278 95.5424 136.05 95.3119 135.758 95.1463C135.467 94.9811 135.14 94.8983 134.779 94.8983C134.418 94.8983 134.092 94.9811 133.8 95.1463C133.509 95.3119 133.28 95.5424 133.114 95.8384C132.948 96.1344 132.865 96.4713 132.865 96.8485C132.865 97.2257 132.948 97.5623 133.114 97.8583C133.28 98.1543 133.509 98.3848 133.8 98.5504C134.092 98.716 134.418 98.7984 134.779 98.7984C135.14 98.7984 135.467 98.716 135.758 98.5504ZM133.061 99.5907C132.551 99.318 132.153 98.9419 131.864 98.4634C131.576 97.9844 131.432 97.4463 131.432 96.8485C131.432 96.2508 131.576 95.7123 131.864 95.2333C132.153 94.7547 132.551 94.3787 133.061 94.1059C133.571 93.8332 134.144 93.6966 134.779 93.6966C135.415 93.6966 135.986 93.8332 136.492 94.1059C136.999 94.3787 137.398 94.7547 137.69 95.2333C137.981 95.7123 138.127 96.2508 138.127 96.8485C138.127 97.4463 137.981 97.9844 137.69 98.4634C137.398 98.9419 136.999 99.318 136.492 99.5907C135.986 99.8635 135.415 100 134.779 100C134.144 100 133.571 99.8635 133.061 99.5907Z" fill="white"/>
<path d="M144.568 98.7406V99.8722H139.83V93.7781H144.454V94.9101H141.238V96.2332H144.079V97.33H141.238V98.7406H144.568Z" fill="white"/>
</svg>
