<svg width="1281" height="1020" viewBox="0 0 1281 1020" fill="none" xmlns="http://www.w3.org/2000/svg">
<path fill-rule="evenodd" clip-rule="evenodd" d="M1055.38 830.792C1088.99 776.01 1261.22 780.941 1277.95 691.738C1306.06 541.786 1077.35 534.467 997.676 444.054C922.377 358.61 960.316 126.735 864.538 53.752C762.377 -24.0954 608.814 7.6974 442.989 25.4323C279.358 42.9325 -1.00569 -94.5236 0.161552 134.533C1.32881 363.589 233.977 361.882 299.885 454.806C355.92 533.811 247.822 659.202 264.608 733.162C299.745 887.983 501.875 759.127 628.14 835.904C756.524 913.97 790.139 1034.15 919.808 1017.47C1017.55 1004.89 1019.39 889.472 1055.38 830.792Z" fill="#C14824"/>
</svg>
