<svg width="1920" height="1200" viewBox="0 0 1920 1200" fill="none" xmlns="http://www.w3.org/2000/svg">
  <path d="M1918.09 978.093C1988.99 981.732 2379.2 1035.26 2429.22 1013.78L2242.38 -417.68C2099.65 -455.38 2013.14 -263.269 1850.96 -240.348C1703.16 -219.46 1463.1 -484.346 1209.19 -421.373C1105.91 -395.756 1082.2 -290.679 973.802 -281.158C883.05 -273.188 839.113 -367.431 741.97 -367.702C589.17 -368.128 513.846 -306.161 386.151 -368.694C269.23 -425.95 140.155 -447.763 74.8991 -424.536C9.64307 -401.309 -106.077 -426.229 -178.273 -348.307C-236.031 -285.97 -208.983 -181.57 -221.881 -198.684L-218.775 855.875C-165.804 853.319 -55.3231 1073.09 48.8365 1044.81C132.068 1022.21 177 927.22 279.622 915.774C353.497 907.533 365.85 932.016 511.548 974.468C582.457 995.129 607.837 965.725 666.815 974.901C756.738 988.893 807.527 1056.31 889.944 1044.3C966.983 1033.06 1000.87 956.107 1084.25 955.826C1148.92 955.608 1152.5 979.5 1241.38 1008.14C1328.92 1036.34 1356.95 1017.7 1418.15 1026.7C1477.64 1035.45 1541.29 1070.02 1629.21 1072.08C1722.59 1074.27 1829.46 973.543 1918.09 978.093Z" fill="#C5C1DD" />
  <path d="M1918.09 978.093C1988.99 981.732 2379.2 1035.26 2429.22 1013.78L2242.38 -417.68C2099.65 -455.38 2013.14 -263.269 1850.96 -240.348C1703.16 -219.46 1463.1 -484.346 1209.19 -421.373C1105.91 -395.756 1082.2 -290.679 973.802 -281.158C883.05 -273.188 839.113 -367.431 741.97 -367.702C589.17 -368.128 513.846 -306.161 386.151 -368.694C269.23 -425.95 140.155 -447.763 74.8991 -424.536C9.64307 -401.309 -106.077 -426.229 -178.273 -348.307C-236.031 -285.97 -208.983 -181.57 -221.881 -198.684L-218.775 855.875C-165.804 853.319 -55.3231 1073.09 48.8365 1044.81C132.068 1022.21 177 927.22 279.622 915.774C353.497 907.533 365.85 932.016 511.548 974.468C582.457 995.129 607.837 965.725 666.815 974.901C756.738 988.893 807.527 1056.31 889.944 1044.3C966.983 1033.06 1000.87 956.107 1084.25 955.826C1148.92 955.608 1152.5 979.5 1241.38 1008.14C1328.92 1036.34 1356.95 1017.7 1418.15 1026.7C1477.64 1035.45 1541.29 1070.02 1629.21 1072.08C1722.59 1074.27 1829.46 973.543 1918.09 978.093Z" fill="url(#paint0_linear_2853_20911)" />
  <path d="M2061.37 -337.123C2120.24 -323.792 2162.53 -325.962 2219.73 -345.252L2255.16 917.98C2205 909.066 2113.37 888.846 2009.5 940C1843 1022 1887.99 1106.45 1796 1145.5C1609.06 1224.87 1451.15 982.744 1287.22 1067.26C1143.29 1141.46 1122.94 999.978 1013.53 1000.13C855.292 1000.34 780.322 1133.46 641.432 1133.64C519.177 1133.81 497.25 1019.83 325.639 1051.07C181.882 1077.24 225.5 1000.13 122.5 1000.13C0.926201 1000.13 22.8754 1187.99 -92.4999 1161C-466.5 1073.5 -141.271 -484.35 -141.271 -484.35C-99.3106 -448.413 7.1547 -370.672 99.558 -369.361C224.732 -367.586 307.47 -522.552 437.035 -547.638C566.6 -572.723 689.19 -445.269 807.359 -437.599C901.895 -431.464 949.334 -343.567 1046.17 -361.865C1118.9 -375.608 1155.11 -452.047 1205.05 -460.052C1278.69 -471.858 1294.44 -453.757 1399.26 -486.348C1497.36 -516.849 1533.76 -570.913 1669.77 -572.794C1878.74 -575.684 1908.57 -371.726 2061.37 -337.123Z" fill="url(#paint1_linear_2853_20911)" />
  <path d="M2061.37 -337.123C2120.24 -323.792 2162.53 -325.962 2219.73 -345.252L2255.16 917.98C2205 909.066 2113.37 888.846 2009.5 940C1843 1022 1887.99 1106.45 1796 1145.5C1609.06 1224.87 1451.15 982.744 1287.22 1067.26C1143.29 1141.46 1122.94 999.978 1013.53 1000.13C855.292 1000.34 780.322 1133.46 641.432 1133.64C519.177 1133.81 497.25 1019.83 325.639 1051.07C181.882 1077.24 225.5 1000.13 122.5 1000.13C0.926201 1000.13 22.8754 1187.99 -92.4999 1161C-466.5 1073.5 -141.271 -484.35 -141.271 -484.35C-99.3106 -448.413 7.1547 -370.672 99.558 -369.361C224.732 -367.586 307.47 -522.552 437.035 -547.638C566.6 -572.723 689.19 -445.269 807.359 -437.599C901.895 -431.464 949.334 -343.567 1046.17 -361.865C1118.9 -375.608 1155.11 -452.047 1205.05 -460.052C1278.69 -471.858 1294.44 -453.757 1399.26 -486.348C1497.36 -516.849 1533.76 -570.913 1669.77 -572.794C1878.74 -575.684 1908.57 -371.726 2061.37 -337.123Z" fill="url(#paint2_linear_2853_20911)" />
  <defs>
    <linearGradient id="paint0_linear_2853_20911" x1="53.4086" y1="-492.058" x2="123.514" y2="-225.272" gradientUnits="userSpaceOnUse">
      <stop stop-color="#D15834" />
      <stop offset="0.114523" stop-color="#D05F3F" />
      <stop offset="0.442274" stop-color="#C5BAD2" />
      <stop offset="1" stop-color="#C5BAD2" stop-opacity="0" />
    </linearGradient>
    <linearGradient id="paint1_linear_2853_20911" x1="1115.93" y1="-229.099" x2="1054.38" y2="1405.41" gradientUnits="userSpaceOnUse">
      <stop offset="0.666875" stop-color="#D9D9D9" stop-opacity="0" />
      <stop offset="1" stop-color="#C5C0DA" />
    </linearGradient>
    <linearGradient id="paint2_linear_2853_20911" x1="830.558" y1="-761.246" x2="1061.13" y2="633.455" gradientUnits="userSpaceOnUse">
      <stop stop-color="#C5C0DA" />
      <stop offset="0.508758" stop-color="#D9D9D9" stop-opacity="0" />
    </linearGradient>
  </defs>
</svg>