<svg width="375" height="1029" viewBox="0 0 375 1029" fill="none" xmlns="http://www.w3.org/2000/svg">
<g clip-path="url(#clip0_2675_13371)">
<path d="M-781.731 7.95316C-845.738 -45.2131 -915.913 -60.2088 -942.999 -61.0608C-921.747 433.539 -1298.02 1386.51 -802.999 1306.44C-667.976 1284.6 -594.726 1106.45 -458.999 1089.79C-269.226 1066.48 -239.999 1257.88 -25.999 1257.88C66.9137 1257.88 117.623 1331.93 207.129 1306.44C310.293 1277.06 302.139 1025.27 393.399 1100.68C484.66 1176.08 519.664 1257.88 695.933 1257.88C817.197 1257.88 849.7 1393.82 1148.48 1325.61C1251.49 1302.1 1318.17 1122.59 1324 1089.79C1236.91 705.95 1478.53 495.398 1269.5 241.184C1161.97 110.413 1053.04 11.3295 907.501 7.95316C793.945 5.31879 690.951 56.5186 623.444 71.855C555.936 87.1914 442.362 14.3953 337.501 53.9608C270.778 79.1362 265.885 145.982 182.126 151.094C98.3667 156.206 72.2693 10.2984 -39.1484 -8.6613C-134.927 -24.9597 -224.499 78.4987 -325.999 62.6513C-433.262 45.904 -511.701 130.645 -595.46 131.923C-679.22 133.201 -701.722 74.411 -781.731 7.95316Z" fill="url(#paint0_linear_2675_13371)"/>
<path d="M-704.835 -11.461C-769.412 34.6367 -893.186 75.4296 -947 90.0638L-911.531 1154.9C-915.608 1185.54 -932.323 1267.95 -741.527 1237.22C-503.031 1198.8 -552.537 1489.07 -291.442 1526.7C-72.5148 1558.26 81.5903 1221.22 211.234 1218.01C377.57 1213.89 335.986 1384.02 504.768 1394.99C673.549 1405.97 819.504 1561 926.722 1561C1074.71 1561 1132.2 1322.28 1178.67 1222.13C1215.85 1142 1297.72 1141.18 1334 1150.78V278.022C1253.69 266.132 975.138 216.558 906.647 113.387C821.033 -15.5769 690.166 -74.571 613.114 -70.4552C536.061 -66.3393 503.038 -0.485367 452.893 20.094C402.748 40.6733 283.913 -10.173 185.55 28.3257C113.938 56.3543 145.189 117.503 21.6606 143.57C-101.868 169.637 -52.7803 -9.75186 -139.783 -0.485336C-333 20.0939 -351.729 -132 -500 -132C-591.5 -132 -624.113 -69.0832 -704.835 -11.461Z" fill="url(#paint1_linear_2675_13371)"/>
</g>
<defs>
<linearGradient id="paint0_linear_2675_13371" x1="148.63" y1="-61.0608" x2="132" y2="533.5" gradientUnits="userSpaceOnUse">
<stop stop-color="#C5C1DD"/>
<stop offset="1" stop-color="#C5C1DD" stop-opacity="0"/>
</linearGradient>
<linearGradient id="paint1_linear_2675_13371" x1="134" y1="-347.811" x2="156.5" y2="260.5" gradientUnits="userSpaceOnUse">
<stop stop-color="#C5C0DA"/>
<stop offset="1" stop-color="#D9D9D9" stop-opacity="0"/>
</linearGradient>
<clipPath id="clip0_2675_13371">
<rect width="375" height="1029" fill="white"/>
</clipPath>
</defs>
</svg>
