<svg width="1920" height="1545" viewBox="0 0 1920 1545" fill="none" xmlns="http://www.w3.org/2000/svg">
<path d="M71.2768 137.001C7.26968 85.0002 -62.9048 70.3333 -89.9912 69.5C-68.7388 553.257 -445.008 1485.34 50.0088 1407.02C185.032 1385.66 258.282 1211.42 394.009 1195.12C583.782 1172.33 613.009 1359.52 827.009 1359.52C919.922 1359.52 970.631 1431.95 1060.14 1407.02C1163.3 1378.29 1155.15 1132.02 1246.41 1205.77C1337.67 1279.52 1372.67 1359.52 1548.94 1359.52C1670.2 1359.52 1702.71 1492.48 2001.49 1425.77C2104.5 1402.77 2171.17 1227.2 2177.01 1195.12C2089.92 819.696 2331.54 613.76 2122.51 365.119C2014.98 237.215 1906.05 140.303 1760.51 137.001C1646.95 134.424 1543.96 184.502 1476.45 199.502C1408.94 214.502 1295.37 173.302 1190.51 212C1123.79 236.623 1118.89 302.003 1035.13 307.004C951.375 312.004 925.277 139.295 813.859 120.751C718.081 104.81 628.509 206 527.009 190.5C419.746 174.12 341.307 257.003 257.547 258.253C173.788 259.503 151.286 202.002 71.2768 137.001Z" fill="url(#paint0_linear_2312_7926)"/>
<path d="M148.173 109.966C83.5956 152.02 -40.1777 189.235 -93.9922 202.586L-58.5236 1174.02C-62.6004 1201.97 -79.3155 1277.16 111.481 1249.12C349.977 1214.07 300.471 1478.88 561.566 1513.21C780.493 1542 934.598 1234.52 1064.24 1231.6C1230.58 1227.84 1188.99 1383.04 1357.78 1393.05C1526.56 1403.07 1672.51 1544.5 1779.73 1544.5C1927.72 1544.5 1985.2 1326.72 2031.68 1235.35C2068.86 1162.26 2150.72 1161.51 2187.01 1170.27V374.057C2106.69 363.21 1828.15 317.985 1759.65 223.863C1674.04 106.211 1543.17 52.3917 1466.12 56.1465C1389.07 59.9014 1356.05 119.979 1305.9 138.753C1255.76 157.527 1136.92 111.141 1038.56 146.263C966.946 171.833 998.197 227.618 874.668 251.399C751.14 275.179 800.228 111.525 713.225 119.979C520.008 138.753 501.279 0.000107792 353.008 0C261.508 -6.65195e-05 228.895 57.3982 148.173 109.966Z" fill="url(#paint1_linear_2312_7926)"/>
<defs>
<linearGradient id="paint0_linear_2312_7926" x1="1002" y1="-155" x2="1001.64" y2="1063.62" gradientUnits="userSpaceOnUse">
<stop stop-color="#C5C1DD"/>
<stop offset="0.826749" stop-color="#C5C1DD" stop-opacity="0"/>
</linearGradient>
<linearGradient id="paint1_linear_2312_7926" x1="987.008" y1="-196.881" x2="987.008" y2="849.619" gradientUnits="userSpaceOnUse">
<stop offset="0.0948194" stop-color="#C5C0DA"/>
<stop offset="0.689966" stop-color="#D9D9D9" stop-opacity="0"/>
</linearGradient>
</defs>
</svg>
