<svg width="24" height="25" viewBox="0 0 24 25" fill="none" xmlns="http://www.w3.org/2000/svg">
<path d="M12.0002 0.833496C8.9435 0.833496 6.4585 3.3185 6.4585 6.37516C6.4585 9.3735 8.8035 11.8002 11.8602 11.9052C11.9535 11.8935 12.0468 11.8935 12.1168 11.9052C12.1402 11.9052 12.1518 11.9052 12.1752 11.9052C12.1868 11.9052 12.1868 11.9052 12.1985 11.9052C15.1852 11.8002 17.5302 9.3735 17.5418 6.37516C17.5418 3.3185 15.0568 0.833496 12.0002 0.833496Z" fill="white"/>
<path d="M17.9266 15.0085C14.6716 12.8385 9.36329 12.8385 6.08495 15.0085C4.60329 16.0002 3.78662 17.3419 3.78662 18.7769C3.78662 20.2119 4.60329 21.5419 6.07329 22.5219C7.70662 23.6185 9.85329 24.1669 12 24.1669C14.1466 24.1669 16.2933 23.6185 17.9266 22.5219C19.3966 21.5302 20.2133 20.2002 20.2133 18.7535C20.2016 17.3185 19.3966 15.9885 17.9266 15.0085Z" fill="white"/>
</svg>
