<svg width="24" height="25" viewBox="0 0 24 25" fill="none" xmlns="http://www.w3.org/2000/svg">
<path d="M16.7083 9.25018C16.23 9.25018 15.8333 8.85352 15.8333 8.37518V4.29185C15.8333 3.03185 15.0517 2.25018 13.7917 2.25018H10.2917C9.03167 2.25018 8.25 3.03185 8.25 4.29185V8.37518C8.25 8.85352 7.85333 9.25018 7.375 9.25018C6.89667 9.25018 6.5 8.85352 6.5 8.37518V4.29185C6.5 2.06352 8.06333 0.500183 10.2917 0.500183H13.7917C16.02 0.500183 17.5833 2.06352 17.5833 4.29185V8.37518C17.5833 8.85352 17.1867 9.25018 16.7083 9.25018Z" fill="white"/>
<path d="M7.33331 19.2435C6.85498 19.2435 6.45831 18.8468 6.45831 18.3685C6.45831 17.8785 6.85498 17.4935 7.33331 17.4935H21.0533C21.4033 17.4935 21.6716 17.1902 21.6366 16.8402L20.8433 10.6183C20.5633 8.355 20.1667 6.5 16.2 6.5H7.79998C3.83331 6.5 3.43665 8.355 3.16831 10.6183L2.11831 18.9518C1.77998 21.8218 2.66665 24.1668 6.76165 24.1668H17.2383C20.925 24.1668 22.01 22.2652 21.9516 19.7918C21.94 19.4768 21.6833 19.2435 21.3683 19.2435H7.33331Z" fill="white"/>
</svg>
