<svg width="32" height="32" fill="none" xmlns="http://www.w3.org/2000/svg"><path d="m10.013 26.402.375-.65-.375.65Zm-.914-.102.237.712-.237-.712Zm-3.076 1.025-.237-.711a.898.898 0 0 0-.023.008l.26.703Zm-1.349-1.349-.711-.237-.003.01.714.227ZM5.7 22.901l-.712-.237.712.237Zm-.102-.915-.65.375.65-.375Zm.195.567-.749-.051.749.05Zm-.191-.56-.65.375.65-.375Zm.169.336-.723.2.723-.2Zm.244 5 .238.71a.926.926 0 0 0 .023-.007l-.26-.704Zm-1.184.245.252-.706-.252.706Zm-.158-1.594.712.238.003-.01-.715-.228Zm-.247 1.19-.707.252.707-.252Zm5.582-.77-.375.649.375-.65Zm-.337-.17-.2.722.2-.723Zm-.224-.024-.05-.748.05.748ZM16 16v-.75a.75.75 0 0 0-.75.75H16Zm.003 0 .75.017a.75.75 0 0 0-.75-.767V16Zm0 .003-.018.75a.75.75 0 0 0 .767-.733l-.75-.017Zm-.003 0h-.75c0 .407.325.74.732.75l.018-.75ZM21.333 16v-.75a.75.75 0 0 0-.75.75h.75Zm.003 0 .75.017a.75.75 0 0 0-.75-.767V16Zm0 .003-.018.75a.75.75 0 0 0 .768-.733l-.75-.017Zm-.003 0h-.75c0 .407.325.74.732.75l.018-.75ZM10.667 16v-.75a.75.75 0 0 0-.75.75h.75Zm.002 0 .75.017a.75.75 0 0 0-.75-.767V16Zm0 .003-.018.75a.75.75 0 0 0 .768-.733l-.75-.017Zm-.002 0h-.75c0 .407.325.74.732.75l.018-.75Zm5.332 11.247c-2.045 0-3.96-.545-5.611-1.497l-.75 1.299A12.694 12.694 0 0 0 16 28.75v-1.5Zm-7.137-1.661-3.076 1.025.475 1.423 3.075-1.025-.474-1.423Zm-3.476.625 1.025-3.076-1.423-.474-1.025 3.075 1.423.474Zm.861-4.602A11.195 11.195 0 0 1 4.75 16h-1.5c0 2.315.618 4.488 1.698 6.361l1.3-.75ZM4.75 16C4.75 9.787 9.787 4.75 16 4.75v-1.5C8.958 3.25 3.25 8.958 3.25 16h1.5ZM16 4.75c6.213 0 11.25 5.037 11.25 11.25h1.5c0-7.042-5.708-12.75-12.75-12.75v1.5ZM27.25 16c0 6.213-5.037 11.25-11.25 11.25v1.5c7.041 0 12.75-5.708 12.75-12.75h-1.5ZM6.411 23.138c.047-.14.116-.332.13-.534l-1.497-.102c.002-.027.007-.037 0-.01l-.056.172 1.423.474Zm-1.463-.777.004.007 1.3-.75-.005-.006-1.3.75Zm.004.007c.052.09.079.138.097.172.016.031.008.02-.001-.011l1.446-.4c-.054-.196-.168-.381-.243-.51l-1.3.749Zm1.589.236a1.42 1.42 0 0 0-.047-.475l-1.446.4-.001-.006a.148.148 0 0 1-.002-.013v-.008l1.496.102Zm-.778 4.018-.008.003.52 1.407.009-.003-.52-1.407Zm.015-.005c-.337.112-.54.18-.688.214-.157.037-.112 0-.007.037l-.504 1.413c.32.114.635.061.854.01.23-.054.51-.148.82-.251l-.475-1.423Zm-1.818-.869-.001.004 1.429.456.001-.004-1.429-.456Zm.002-.005a10.4 10.4 0 0 0-.253.823c-.051.22-.104.535.01.856l1.413-.504c.038.105 0 .15.038-.01a9.3 9.3 0 0 1 .215-.69l-1.423-.475Zm1.12 1.125a.08.08 0 0 1 .05.05l-1.413.504c.144.401.46.716.86.859l.504-1.413Zm5.306-1.115-.006-.003-.75 1.299.006.003.75-1.3Zm-.006-.003c-.13-.076-.315-.19-.512-.244l-.4 1.446c-.03-.009-.041-.017-.01 0 .035.017.082.044.173.097l.75-1.3Zm-1.046 1.262.11-.037.064-.02c.029-.008.018-.002-.011 0l-.103-1.497c-.203.014-.399.086-.534.13l.474 1.424Zm.534-1.506a1.384 1.384 0 0 0-.474-.048l.103 1.497h-.004a.113.113 0 0 1-.023-.003h-.001l.4-1.446ZM16 16.75h.003v-1.5H16v1.5Zm-.747-.768v.003l1.5.035v-.003l-1.5-.034Zm.767-.73h-.002l-.036 1.5h.003l.035-1.5Zm.73.75V16h-1.5v.003h1.5Zm4.583.748h.003v-1.5h-.003v1.5Zm-.747-.768v.003l1.5.035v-.003l-1.5-.034Zm.768-.73h-.003l-.036 1.5h.003l.036-1.5Zm.73.75V16h-1.5v.003h1.5Zm-11.417.748h.002v-1.5h-.002v1.5Zm-.747-.768v.003l1.5.035v-.003l-1.5-.034Zm.767-.73h-.002l-.036 1.5h.002l.036-1.5Zm.73.75V16h-1.5v.003h1.5Z" fill="#676767"/></svg>