<svg width="32" height="32" fill="none" xmlns="http://www.w3.org/2000/svg"><path clip-rule="evenodd" d="M23.453 3.479 26.8 6.204a1.661 1.661 0 0 1-.014 2.393l-2.544 3.098-8.66 10.565a1.1 1.1 0 0 1-.576.357l-4.49 1.033a1.138 1.138 0 0 1-1.177-1.007l.21-4.43a1.03 1.03 0 0 1 .255-.611L18.09 7.505l2.918-3.56a1.828 1.828 0 0 1 2.445-.466Z" stroke="#676767" stroke-width="1.5" stroke-linecap="round" stroke-linejoin="round"/><path d="M3.2 28.258a.75.75 0 0 0 0 1.5v-1.5Zm23.584 1.5a.75.75 0 0 0 0-1.5v1.5ZM18.785 7.225a.75.75 0 1 0-1.39.562l1.39-.562Zm5.622 5.208a.75.75 0 1 0-.33-1.463l.33 1.463ZM3.2 29.758h23.585v-1.5H3.199v1.5ZM17.394 7.787c.377.934 1.157 2.272 2.306 3.294 1.162 1.033 2.766 1.79 4.707 1.352l-.33-1.463c-1.328.3-2.456-.188-3.38-1.01-.938-.834-1.6-1.963-1.912-2.735l-1.39.562Z" fill="#676767"/></svg>