<svg width="32" height="32" fill="none" xmlns="http://www.w3.org/2000/svg"><path d="M15.468 19.47a.75.75 0 0 0 1.061 1.061l-1.06-1.06Zm4.53-3.47.531.531a.75.75 0 0 0 0-1.06l-.53.53Zm-3.469-4.53a.75.75 0 1 0-1.06 1.061l1.06-1.06ZM5.332 15.25a.75.75 0 1 0 0 1.5v-1.5Zm5.917-5.585a.75.75 0 0 0 1.5 0h-1.5Zm1.5 12.669a.75.75 0 0 0-1.5 0h1.5Zm.705 4.043-.34.668.34-.668Zm-1.165-1.166.669-.34-.669.34Zm14.086 0 .668.34-.668-.34Zm-1.166 1.166.34.668-.34-.668Zm0-20.752.34-.669-.34.669Zm1.166 1.165.668-.34-.668.34Zm-14.086 0 .669.34-.669-.34Zm1.165-1.165-.34-.669.34.669ZM16.53 20.53l4-4-1.06-1.06-4 4 1.06 1.06Zm4-5.06-4-4-1.06 1.06 4 4 1.06-1.06Zm-.53-.22H5.332v1.5h14.667v-1.5Zm-7.25-5.586V9.6h-1.5v.064h1.5Zm3.517-3.581H22.4v-1.5h-6.133v1.5ZM12.75 22.4v-.067h-1.5v.067h1.5Zm3.512 3.516c-.757 0-1.28 0-1.687-.034-.398-.032-.617-.092-.78-.174l-.68 1.336c.408.208.847.293 1.337.333.482.04 1.077.04 1.81.04v-1.5ZM11.25 22.4c0 .734 0 1.33.038 1.812.04.49.126.93.334 1.338l1.337-.68c-.083-.163-.143-.382-.175-.78-.034-.407-.034-.931-.034-1.69h-1.5Zm2.546 3.308a1.918 1.918 0 0 1-.837-.839l-1.337.681c.327.643.85 1.166 1.493 1.494l.68-1.336Zm12.12-3.304c0 .758 0 1.281-.033 1.687-.033.398-.093.617-.175.779l1.336.68c.208-.408.294-.846.334-1.336.039-.482.038-1.077.038-1.81h-1.5Zm-3.512 5.012c.733 0 1.328 0 1.81-.039.49-.04.928-.125 1.336-.333l-.68-1.336c-.163.082-.382.142-.78.175-.405.033-.928.033-1.686.033v1.5Zm3.304-2.546a1.92 1.92 0 0 1-.839.838l.681 1.336a3.421 3.421 0 0 0 1.494-1.493l-1.336-.681ZM22.399 6.084c.76 0 1.283 0 1.69.034.398.032.617.092.78.175l.68-1.337c-.408-.208-.847-.293-1.338-.333-.482-.04-1.078-.039-1.812-.039v1.5Zm5.016 3.513c0-.733 0-1.328-.038-1.81-.04-.49-.126-.93-.334-1.338l-1.336.681c.082.162.142.381.175.779.033.406.033.93.033 1.688h1.5Zm-2.547-3.304c.362.184.655.477.839.837l1.336-.68a3.419 3.419 0 0 0-1.494-1.494l-.68 1.337ZM12.748 9.6c0-.76.001-1.284.035-1.69.032-.4.092-.619.175-.78l-1.337-.682c-.208.409-.293.848-.334 1.34-.039.482-.038 1.078-.038 1.812h1.5Zm3.518-5.017c-.735 0-1.33 0-1.813.039-.491.04-.93.125-1.34.333l.682 1.337c.162-.083.381-.143.78-.175.407-.033.932-.034 1.69-.034v-1.5ZM12.958 7.13c.183-.36.476-.653.837-.837l-.681-1.337A3.415 3.415 0 0 0 11.62 6.45l1.337.681Zm12.957 2.467v12.808h1.5V9.597h-1.5Zm-3.512 16.32H16.26v1.5h6.142v-1.5Z" fill="#676767"/></svg>