<svg width="62" height="62" fill="none" xmlns="http://www.w3.org/2000/svg"><rect x=".75" y=".75" width="60.5" height="60.5" rx="7.25" stroke="#fff" stroke-width="1.5"/><g clip-path="url(#a)"><path fill-rule="evenodd" clip-rule="evenodd" d="m37.529 25.53.53-.53-1.06-1.06-.531.53-5.47 5.47-5.47-5.47-.53-.53-1.06 1.06.53.53 5.47 5.47-5.47 5.47-.53.53 1.06 1.06.53-.53 5.47-5.47 5.47 5.47.53.53 1.06-1.06-.53-.53-5.47-5.47 5.47-5.47ZM30.998 30l-1 1 1 1 1-1-1-1Z" fill="#fff"/></g><defs><clipPath id="a"><path fill="#fff" transform="translate(19 19)" d="M0 0h24v24H0z"/></clipPath></defs></svg>