<svg width="252" height="80" fill="none" xmlns="http://www.w3.org/2000/svg"><path fill-rule="evenodd" clip-rule="evenodd" d="M95.597 39.307c3.281-.906 5.009-3.125 5.009-6.372v-.166c0-5.344-3.73-7.44-8.904-7.44h-8.325v13.234h2.253V27.184h6.028c4.309 0 6.677 1.75 6.677 5.554v.162c0 3.702-2.132 5.69-6.597 5.69h-6.126v1.81h6.482c5.124 0 7.71 2.057 7.71 6.083v.167c0 4.07-2.341 6.25-6.931 6.25h-7.26V40.374h-2.254v14.35h9.567c5.574 0 9.095-2.713 9.095-8.105v-.166c-.008-3.965-2.056-6.333-6.424-7.147Zm15.887 1.273h11.815v-1.89h-11.815V27.22h14.558v-1.891h-16.851V38.69h2.293v1.89h-2.293v14.145h17.594V52.83h-15.301V40.58Zm33.319.578c4.39-.621 7.608-2.862 7.608-7.768v-.17c0-5.69-4.278-7.878-9.985-7.878h-8.035v14.14h2.297v1.851h-2.297v13.405h2.297V41.32h5.702l2.413-.162Zm-8.115-1.69V27.216h5.858c4.55 0 7.546 1.48 7.546 6.004v.167c0 4.289-2.831 6.083-7.546 6.083h-5.858Zm28.342 15.257h2.298V27.26h-2.298v-1.89h-9.272v1.89h9.272v27.466Zm21.29-14.145h11.81v-1.89h-11.81V27.22h14.552v-1.891h-16.849V38.69h2.297v1.89h-2.297v14.145h17.594V52.83H186.32V40.58Z" fill="#fff"/><path d="M176.6 25.368h-9.272v1.89h9.272v-1.89Z" fill="#fff"/><path fill-rule="evenodd" clip-rule="evenodd" d="m216.216 38.03-7.944-12.751h-2.499l9.159 14.811 1.284-2.06Zm0 4.137 1.285-2.077 9.158 14.7h-2.637l-7.806-12.623Z" fill="#fff"/><path fill-rule="evenodd" clip-rule="evenodd" d="m216.216 38.03 7.946-12.751h2.497l-9.158 14.811-1.285-2.06Zm0 4.137-1.284-2.077-9.159 14.7h2.638l7.805-12.623Z" fill="#fff"/><path d="M54.502 54.721h-2.346V25.28h2.346v26.23l18.096-26.23H74.9v29.44h-2.345V28.49L54.502 54.72Z" fill="#fff"/><path fill-rule="evenodd" clip-rule="evenodd" d="M35.183 54.721c5.704 0 9.311-3.047 9.311-8.441v-.165c0-5.477-3.816-8.194-9.856-8.194h-6.886v1.853h6.676c5.159 0 7.802 2.306 7.802 6.341v.165c0 4.077-2.391 6.588-7.089 6.588h-7.424V39.817H25.41v14.904h9.773ZM25.41 37.886V25.28h16.945v1.894H27.717v10.712H25.41Z" fill="#fff"/></svg>