<svg width="171" height="26" fill="none" xmlns="http://www.w3.org/2000/svg"><g clip-path="url(#a)" fill="#012028"><path fill-rule="evenodd" clip-rule="evenodd" d="M59.805 12.41c2.773-.77 4.233-2.655 4.233-5.415v-.142c0-4.542-3.153-6.324-7.525-6.324h-7.037v11.25h1.904V2.106h5.095c3.642 0 5.644 1.487 5.644 4.72v.138c0 3.147-1.802 4.836-5.576 4.836h-5.178v1.54h5.479c4.33 0 6.517 1.748 6.517 5.17v.142c0 3.46-1.98 5.312-5.859 5.312h-6.137V13.319h-1.904v12.197h8.086c4.711 0 7.688-2.306 7.688-6.89v-.14c-.008-3.37-1.739-5.383-5.43-6.075Zm13.422 1.083h9.986v-1.607h-9.986v-9.75H85.53V.53H71.29v11.357h1.938v1.607H71.29v12.023h14.87v-1.61H73.228V13.492Zm28.168.491c3.71-.528 6.43-2.433 6.43-6.603v-.145c0-4.836-3.615-6.696-8.44-6.696h-6.791v12.02h1.941v1.573h-1.941v11.394h1.941V14.122h4.82l2.04-.138Zm-6.86-1.436V2.132h4.952c3.846 0 6.378 1.258 6.378 5.104v.142c0 3.645-2.393 5.17-6.378 5.17h-4.952Zm23.951 12.969h1.942V2.17h-1.942V.563h-7.838V2.17h7.838v23.347Zm18.002-12.024h9.982v-1.607h-9.982v-9.75h12.3V.53h-14.241v11.357h1.941v1.607h-1.941v12.023h14.87v-1.61h-12.929V13.492Z"/><path d="M128.267.563h-7.837V2.17h7.837V.563Z"/><path fill-rule="evenodd" clip-rule="evenodd" d="M161.757 11.325 155.042.488h-2.112l7.741 12.59 1.086-1.752Zm0 3.517 1.085-1.765 7.741 12.495h-2.229l-6.597-10.73Z"/><path fill-rule="evenodd" clip-rule="evenodd" d="M161.757 11.325 168.473.488h2.11l-7.741 12.59-1.085-1.752Zm0 3.517-1.086-1.765-7.741 12.495h2.229l6.598-10.73Z"/><path d="M25.069 25.513h-1.983V.487h1.983v22.296L40.364.487h1.947v25.026h-1.983V3.217l-15.26 22.296Z"/><path fill-rule="evenodd" clip-rule="evenodd" d="M8.737 25.514c4.821 0 7.87-2.59 7.87-7.176v-.14c0-4.655-3.226-6.965-8.331-6.965h-5.82v1.575h5.643c4.36 0 6.594 1.96 6.594 5.39v.14c0 3.465-2.02 5.6-5.992 5.6H2.426V12.845H.476v12.668h8.26ZM.477 11.203V.487h14.322v1.61H2.426v9.106H.476Z"/></g><defs><clipPath id="a"><path fill="#fff" d="M0 0h171v26H0z"/></clipPath></defs></svg>