<svg width="32" height="32" fill="none" xmlns="http://www.w3.org/2000/svg"><path d="M25.335 20H6.668a4 4 0 0 0 0 8h18.667a4 4 0 1 0 0-8ZM8 12c0-3.771 0-5.657 1.172-6.828C10.343 4 12.229 4 16 4c3.771 0 5.657 0 6.828 1.172C24 6.343 24 8.229 24 12c0 3.771 0 5.657-1.172 6.828C21.657 20 19.771 20 16 20c-3.771 0-5.657 0-6.828-1.172C8 17.657 8 15.771 8 12Z" stroke="#676767" stroke-width="1.5"/><path d="M15.993 24h.012m-6.673 0h.012m13.31 0h.011" stroke="#676767" stroke-width="2" stroke-linecap="round" stroke-linejoin="round"/><path d="M14 8h4" stroke="#676767" stroke-width="1.5" stroke-linecap="round" stroke-linejoin="round"/></svg>