<svg width="1080" height="161" fill="none" xmlns="http://www.w3.org/2000/svg"><path fill-rule="evenodd" clip-rule="evenodd" d="M377.455 76.553c17.541-4.844 26.777-16.707 26.777-34.069v-.89c0-28.569-19.946-39.777-47.604-39.777h-44.509v70.758h12.043V11.738h32.228c23.04 0 35.703 9.36 35.703 29.693v.866c0 19.795-11.401 30.418-35.275 30.418h-32.75v9.687h34.655c27.395 0 41.224 10.997 41.224 32.524v.89c0 21.76-12.519 33.413-37.059 33.413h-38.82V82.262h-12.045v76.724h51.15c29.801 0 48.628-14.507 48.628-43.334v-.89c-.048-21.2-10.996-33.858-34.346-38.21Zm84.936 6.808h63.169V73.253h-63.169V11.925h77.832V1.817h-90.09v71.436h12.258v10.108h-12.258v75.625h94.064v-10.132h-81.806V83.361Zm178.145 3.089c23.468-3.323 40.672-15.303 40.672-41.533v-.913c0-30.417-22.869-42.117-53.383-42.117h-42.962v75.601h12.282v9.897h-12.282v71.671h12.282v-71.74h30.49l12.901-.866Zm-43.391-9.032V11.9h31.323c24.325 0 40.344 7.91 40.344 32.103v.89c0 22.93-15.138 32.524-40.344 32.524h-31.323Zm151.531 81.568h12.285V12.136h-12.285V2.028h-49.574v10.108h49.574v146.85Zm113.827-75.625h63.145V73.253h-63.145V11.925h77.807V1.817h-90.083v71.436h12.276v10.108h-12.276v75.625h94.062v-10.132h-81.786V83.361Z" fill="#fff" fill-opacity=".5"/><path d="M810.539 2.028h-49.574v10.108h49.574V2.028Z" fill="#fff" fill-opacity=".5"/><path fill-rule="evenodd" clip-rule="evenodd" d="M1022.35 69.724 979.872 1.551h-13.36l48.968 79.19 6.87-11.017Zm0 22.12 6.86-11.102 48.97 78.591h-14.1l-41.73-67.49Z" fill="#fff" fill-opacity=".5"/><path fill-rule="evenodd" clip-rule="evenodd" d="m1022.35 69.724 42.48-68.173h13.35l-48.97 79.19-6.86-11.017Zm0 22.12-6.87-11.102-48.968 78.591h14.104l41.734-67.49Z" fill="#fff" fill-opacity=".5"/><path d="M157.729 158.966h-12.541V1.55h12.541v140.243L254.478 1.55h12.317v157.416h-12.541V18.723l-96.525 140.243Z" fill="#fff" fill-opacity=".5"/><path fill-rule="evenodd" clip-rule="evenodd" d="M54.442 158.966c30.498 0 49.784-16.292 49.784-45.133v-.881c0-29.282-20.406-43.812-52.7-43.812H14.712v9.907h35.694c27.583 0 41.711 12.33 41.711 33.905v.881c0 21.796-12.783 35.226-37.899 35.226H14.525v-69.78H2.191v79.687h52.251ZM2.192 68.95V1.55h90.597v10.128H14.525V68.95H2.191Z" fill="#fff" fill-opacity=".5"/></svg>