<svg width="60" height="90" fill="none" xmlns="http://www.w3.org/2000/svg"><path d="M60 30.84c0 18.11-24.51 52.348-29.222 58.763a.96.96 0 0 1-1.556 0C24.51 83.188 0 48.95 0 30.84 0 13.808 13.431 0 30 0c16.569 0 30 13.808 30 30.84Z" fill="#013341"/><circle cx="30" cy="30" r="26" fill="#fff"/><path fill-rule="evenodd" clip-rule="evenodd" d="m12.133 25.205 3.993 8.233 14.456 8.712.523-.763-6.347-4.131.113-.17 6.476 3.92.338-.448-8.282-13.52 4.537-1.21-2.53-.878 1.242-.126 1.235.27-.936-.595.747-.107 2.171.77-.146-1.001 3.246.543 2.665 2.019.304 1.257 1.77.627 2.835-2.81 3.787 1.178 1.697-.598 1.315 1.865-2.617 3.485-1.608-.3 3.784-2.88-1.066-1.51-1.34.534-3.744-1.007-1.51 1.768 3.033 3.066-5.82.695-3.406-.666-1.014-1.336-.413.201 1.349 2.036 3.333.953-1.448 8.084 3.134.022 10.01-13.03-1.428-2.456-9.683-6.255-.29.336 1.476 1.121-.194.202-3.753-2.047-4.574-1.226H21.86l-.146.337 1.688.433v.264l-4.874.192-5.578 5.232 4.86 6.653-.286.122-4.908-6.486-.484.426Zm18.322.832 3.547 1.257s.133-.338.128-.72h-.003l-.005.003h-.004l-.006.002-.002.001-.007.002h-.001l-.007.002h-.002l-.006.002h-.004l-.007.002h-.001l-.008.002h-.003l-.006.001h-.001l-.009.002h-.012l-.007.001h-.002l-.008.001H34c-.208 0-.376-.155-.376-.347v-.016l.001-.004v-.008l.001-.006v-.003l.001-.005v-.003l.002-.007v-.001l.001-.007v-.004l.002-.005v-.003l.002-.005v-.004l.002-.004v-.003l.002-.005.001-.003.002-.005v-.002l.002-.006.001-.002.001-.003.002-.005.001-.003.002-.004.002-.003v-.001l.001-.003.002-.004.001-.003.002-.005.002-.002.002-.005.004-.006.003-.007.002-.003.002-.004.003-.004.002-.002.002-.004.002-.003.003-.004.002-.003.002-.003.002-.003.003-.004.005-.006.003-.004h.001v-.002l.005-.004v-.001l.004-.004.002-.002.004-.005h.001l.004-.005.002-.002.004-.003v-.001h.001v-.001h.001v-.001h.001v-.001h.001l.002-.002V26h.001l.001-.001.002-.001v-.001h.001v-.002h.002v-.001h.001v-.001l.002-.001.006-.005.001-.001.004-.003.002-.002.005-.004h.001l.001-.001h.001l.004-.003v-.001h.001v-.001h.001l.001-.001.003-.002h.001v-.001h.001l.001-.001h.001v-.001l.004-.002.001-.001h.001l.001-.001h.001v-.001h.001l.002-.001v-.001h.001l.001-.001h.001v-.001h.001l.006-.004h.001l.006-.004h.002v-.001l.005-.002.002-.001.001-.001.005-.002.001-.001h.002v-.001h.001l.004-.002.002-.001h.001v-.001l.005-.002h.002v-.001h.002l.005-.003h.002l.001-.001.004-.002h.003v-.001h.002l.004-.002h.002l.001-.001h.002l.003-.002h.004v-.001h.001l.004-.002h.003l.002-.001.004-.001h.002v-.001h.002l.004-.002h.005l.005-.002h.004v-.001l.006-.001c-.36-.455-1.282-.665-3.463.128Zm7.128 14.513.54-.032 6.189-8.24-1.542-.28-5.187 8.552Zm4.354-8.554-3.948.472-2.195 8.162 1.299-.058 4.844-8.576ZM21.184 24.09l1.423.504.582-.301-.57-.81.007-.744 1.39.635-.317-.726c-.242-.555-3.693-1.603-2.515 1.442Z" fill="#012028"/></svg>