<svg width="16" height="17" fill="none" xmlns="http://www.w3.org/2000/svg"><path clip-rule="evenodd" d="m11.728 2.24 1.675 1.362a.83.83 0 0 1-.007 1.196l-1.273 1.55-4.33 5.282a.55.55 0 0 1-.288.178l-2.244.517a.569.569 0 0 1-.59-.504l.106-2.214a.516.516 0 0 1 .127-.306l4.143-5.048 1.46-1.78a.914.914 0 0 1 1.221-.234Z" stroke="#676767" stroke-width="1.5" stroke-linecap="round" stroke-linejoin="round"/><path d="M1.602 14.253a.75.75 0 0 0 0 1.5v-1.5Zm11.792 1.5a.75.75 0 0 0 0-1.5v1.5ZM9.742 3.97a.75.75 0 1 0-1.39.562l1.39-.562Zm2.546 3.11a.75.75 0 1 0-.33-1.463l.33 1.463ZM1.602 15.753h11.792v-1.5H1.602v1.5Zm6.75-11.22a5.02 5.02 0 0 0 1.25 1.787c.64.569 1.562 1.015 2.686.761l-.33-1.463c-.51.115-.955-.06-1.359-.42a3.522 3.522 0 0 1-.857-1.227l-1.39.562Z" fill="#676767"/></svg>