<svg width="24" height="24" fill="none" xmlns="http://www.w3.org/2000/svg"><path d="m3.297 6.429-.006.006c-.241.27-.405.623-.524.97-.122.357-.216.77-.288 1.205-.145.872-.214 1.903-.227 2.925a27.79 27.79 0 0 0 .117 2.945c.082.854.211 1.642.398 2.137.147.418.394.793.72 1.096.325.303.72.526 1.149.65.276.086.7.142 1.165.186.492.047 1.102.085 1.784.115 1.365.06 3.045.09 4.71.086a95.787 95.787 0 0 0 4.645-.11 26.7 26.7 0 0 0 1.705-.133 7.8 7.8 0 0 0 .618-.093c.162-.032.352-.078.512-.154a2.805 2.805 0 0 0 1.317-1.276l.002-.005c.253-.514.405-1.286.502-2.092.1-.833.15-1.798.154-2.756a26.776 26.776 0 0 0-.123-2.76c-.083-.814-.214-1.576-.42-2.087a2.804 2.804 0 0 0-.72-1.046 2.93 2.93 0 0 0-1.101-.632c-.234-.079-.585-.126-.94-.16a29.39 29.39 0 0 0-1.44-.099 101.137 101.137 0 0 0-3.992-.094c-2.916-.019-6.117.05-7.717.212a3.013 3.013 0 0 0-2 .964Zm7.231 3.81 3.129 1.565-3.129 1.553V10.24Z" stroke="#fff" stroke-width="1.5"/></svg>