<svg width="1149" height="713" fill="none" xmlns="http://www.w3.org/2000/svg"><g clip-path="url(#a)"><rect width="1149" height="713" rx="80" fill="#C5C1DD"/><path d="M-452.906 81.609c-67.043-3.442-178.514 38.927-225.869 60.541l-142.787 1260.89c134.868 37.3 217.215-155.03 370.655-178.4 139.83-21.3 366.118 242.88 606.407 179.21 97.751-25.9 120.466-131.03 223-140.85 85.846-8.22 127.134 85.88 219 85.88 144.5 0 215.906-62.16 336.492 0 110.408 56.93 232.418 78.38 294.188 54.97 61.78-23.4 171.15 1.19 239.64-76.92 54.79-62.49 29.51-166.8 41.66-149.73l-1.49-1031.71c-90.13 4.864-219.31 186.01-386.99 186.01-213 0-254.002-115.696-301.85-135.237-47.848-19.541-98.963-12.675-143.83-14.976-60.416-3.098-135.846-66.031-213.82-53.787-72.887 11.445-113.742 110.708-184 109-70.258-1.708-70.398-31.79-148.456-71.865-78.059-40.075-109.263-9.24-167.12-18.07-56.227-8.581-124.055-57.623-199.382-74.778-78.152-17.8-131.645 14.123-215.448 9.822Z" fill="#C5C1DD"/><path d="M-452.906 81.609c-67.043-3.442-178.514 38.927-225.869 60.541l-142.787 1260.89c134.868 37.3 217.215-155.03 370.655-178.4 139.83-21.3 366.118 242.88 606.407 179.21 97.751-25.9 120.466-131.03 223-140.85 85.846-8.22 127.134 85.88 219 85.88 144.5 0 215.906-62.16 336.492 0 110.408 56.93 232.418 78.38 294.188 54.97 61.78-23.4 171.15 1.19 239.64-76.92 54.79-62.49 29.51-166.8 41.66-149.73l-1.49-1031.71c-90.13 4.864-219.31 186.01-386.99 186.01-213 0-254.002-115.696-301.85-135.237-47.848-19.541-98.963-12.675-143.83-14.976-60.416-3.098-135.846-66.031-213.82-53.787-72.887 11.445-113.742 110.708-184 109-70.258-1.708-70.398-31.79-148.456-71.865-78.059-40.075-109.263-9.24-167.12-18.07-56.227-8.581-124.055-57.623-199.382-74.778-78.152-17.8-131.645 14.123-215.448 9.822Z" fill="url(#b)"/><path d="M-452.906 81.609c-67.043-3.442-178.514 38.927-225.869 60.541l-142.787 1260.89c134.868 37.3 217.215-155.03 370.655-178.4 139.83-21.3 366.118 242.88 606.407 179.21 97.751-25.9 120.466-131.03 223-140.85 85.846-8.22 127.134 85.88 219 85.88 144.5 0 215.906-62.16 336.492 0 110.408 56.93 232.418 78.38 294.188 54.97 61.78-23.4 171.15 1.19 239.64-76.92 54.79-62.49 29.51-166.8 41.66-149.73l-1.49-1031.71c-90.13 4.864-219.31 186.01-386.99 186.01-213 0-254.002-115.696-301.85-135.237-47.848-19.541-98.963-12.675-143.83-14.976-60.416-3.098-135.846-66.031-213.82-53.787-72.887 11.445-113.742 110.708-184 109-70.258-1.708-70.398-31.79-148.456-71.865-78.059-40.075-109.263-9.24-167.12-18.07-56.227-8.581-124.055-57.623-199.382-74.778-78.152-17.8-131.645 14.123-215.448 9.822Z" fill="url(#c)"/><path d="M-452.906 81.609c-67.043-3.442-178.514 38.927-225.869 60.541l-142.787 1260.89c134.868 37.3 217.215-155.03 370.655-178.4 139.83-21.3 366.118 242.88 606.407 179.21 97.751-25.9 120.466-131.03 223-140.85 85.846-8.22 127.134 85.88 219 85.88 144.5 0 215.906-62.16 336.492 0 110.408 56.93 232.418 78.38 294.188 54.97 61.78-23.4 171.15 1.19 239.64-76.92 54.79-62.49 29.51-166.8 41.66-149.73l-1.49-1031.71c-90.13 4.864-219.31 186.01-386.99 186.01-213 0-254.002-115.696-301.85-135.237-47.848-19.541-98.963-12.675-143.83-14.976-60.416-3.098-135.846-66.031-213.82-53.787-72.887 11.445-113.742 110.708-184 109-70.258-1.708-70.398-31.79-148.456-71.865-78.059-40.075-109.263-9.24-167.12-18.07-56.227-8.581-124.055-57.623-199.382-74.778-78.152-17.8-131.645 14.123-215.448 9.822Z" fill="#fff" fill-opacity=".2"/><path d="M-587.382 236.276c-57.322 13.41-98.483 11.297-154.13-7.912l-36.251 1023.186c48.832-8.98 166.564-6.68 246.833 74.35 100.338 101.29 203.143 157 295.431 158.11 203.41 2.44 237.968-153.68 409-180.51 111.305-17.46 158.653-18.48 257.5 0 152.366 28.49 218.306 180.51 353.5 180.51 119 0 209.5-94.01 328.499-94.01 142.29 0 373.84-168.76 464.83-168.59 84.15-23.49 198.34-28.9 212.71-69.05L1743.5 65c-40.89 35.992-144.63 113.873-234.58 115.31C1387.08 182.256 1172.71 10.803 968.5 18c-154.367 5.44-220.072 108.262-335.107 116.093-92.028 6.264-138.325 94.22-232.563 76.055-70.774-13.642-105.916-90.026-154.508-97.963-71.666-11.705-87.021 6.416-189.007-26.029C-38.131 55.792-73.492 1.781-205.878.086c-203.402-2.604-232.719 201.38-381.504 236.19Z" fill="url(#d)"/><path d="M-587.382 236.276c-57.322 13.41-98.483 11.297-154.13-7.912l-36.251 1023.186c48.832-8.98 166.564-6.68 246.833 74.35 100.338 101.29 203.143 157 295.431 158.11 203.41 2.44 237.968-153.68 409-180.51 111.305-17.46 158.653-18.48 257.5 0 152.366 28.49 218.306 180.51 353.5 180.51 119 0 209.5-94.01 328.499-94.01 142.29 0 373.84-168.76 464.83-168.59 84.15-23.49 198.34-28.9 212.71-69.05L1743.5 65c-40.89 35.992-144.63 113.873-234.58 115.31C1387.08 182.256 1172.71 10.803 968.5 18c-154.367 5.44-220.072 108.262-335.107 116.093-92.028 6.264-138.325 94.22-232.563 76.055-70.774-13.642-105.916-90.026-154.508-97.963-71.666-11.705-87.021 6.416-189.007-26.029C-38.131 55.792-73.492 1.781-205.878.086c-203.402-2.604-232.719 201.38-381.504 236.19Z" fill="url(#e)"/><path d="M-587.382 236.276c-57.322 13.41-98.483 11.297-154.13-7.912l-36.251 1023.186c48.832-8.98 166.564-6.68 246.833 74.35 100.338 101.29 203.143 157 295.431 158.11 203.41 2.44 237.968-153.68 409-180.51 111.305-17.46 158.653-18.48 257.5 0 152.366 28.49 218.306 180.51 353.5 180.51 119 0 209.5-94.01 328.499-94.01 142.29 0 373.84-168.76 464.83-168.59 84.15-23.49 198.34-28.9 212.71-69.05L1743.5 65c-40.89 35.992-144.63 113.873-234.58 115.31C1387.08 182.256 1172.71 10.803 968.5 18c-154.367 5.44-220.072 108.262-335.107 116.093-92.028 6.264-138.325 94.22-232.563 76.055-70.774-13.642-105.916-90.026-154.508-97.963-71.666-11.705-87.021 6.416-189.007-26.029C-38.131 55.792-73.492 1.781-205.878.086c-203.402-2.604-232.719 201.38-381.504 236.19Z" fill="#fff" fill-opacity=".2"/></g><defs><linearGradient id="b" x1="1337" y1="1372" x2="464.692" y2="444.048" gradientUnits="userSpaceOnUse"><stop stop-color="#D15834"/><stop offset=".154" stop-color="#C5BAD2"/><stop offset=".885" stop-color="#C5BAD2" stop-opacity="0"/></linearGradient><linearGradient id="c" x1="-696.06" y1="57.627" x2="-508.592" y2="398.481" gradientUnits="userSpaceOnUse"><stop stop-color="#D15834"/><stop offset=".508" stop-color="#C5BAD2"/><stop offset="1" stop-color="#C5BAD2" stop-opacity="0"/></linearGradient><linearGradient id="d" x1="-242.499" y1="-41" x2="-117.999" y2="1642" gradientUnits="userSpaceOnUse"><stop offset=".635" stop-color="#D9D9D9" stop-opacity="0"/><stop offset="1" stop-color="#C5C0DA"/></linearGradient><linearGradient id="e" x1="317.001" y1="-47.5" x2="376.501" y2="1204" gradientUnits="userSpaceOnUse"><stop stop-color="#C5C0DA"/><stop offset=".43" stop-color="#D9D9D9" stop-opacity="0"/></linearGradient><clipPath id="a"><rect width="1149" height="713" rx="80" fill="#fff"/></clipPath></defs></svg>