<svg width="262" height="166" fill="none" xmlns="http://www.w3.org/2000/svg"><g filter="url(#a)"><ellipse cx="131" cy="83" rx="131" ry="83" fill="#fff" fill-opacity=".7"/><path d="M260 83c0 21.995-14.075 42.197-37.439 57-23.34 14.788-55.706 24-91.561 24-35.855 0-68.22-9.212-91.56-24C16.074 125.197 2 104.995 2 83c0-21.995 14.075-42.197 37.44-57C62.78 11.212 95.144 2 131 2c35.855 0 68.221 9.212 91.561 24C245.925 40.803 260 61.005 260 83Z" stroke="#fff" stroke-width="4"/></g><defs><filter id="a" x="-100" y="-100" width="462" height="366" filterUnits="userSpaceOnUse" color-interpolation-filters="sRGB"><feFlood flood-opacity="0" result="BackgroundImageFix"/><feGaussianBlur in="BackgroundImageFix" stdDeviation="50"/><feComposite in2="SourceAlpha" operator="in" result="effect1_backgroundBlur_4002_52"/><feBlend in="SourceGraphic" in2="effect1_backgroundBlur_4002_52" result="shape"/></filter></defs></svg>