<svg width="375" height="820" fill="none" xmlns="http://www.w3.org/2000/svg"><g clip-path="url(#a)"><path d="M-592.104 906.718c-66.709 7.477-180.92-30.593-229.687-50.562L-1042.52-333.712c132.113-46.938 227.515 150.286 382.333 165.986 141.085 14.307 348.947-276.158 593.249-223.14 99.382 21.568 129.266 130.658 232.324 135.064 86.284 3.688 121.065-97.517 212.798-102.811 144.29-8.326 219.85 52.844 336.002-19.389 106.353-66.139 226.709-95.694 290.004-74.675 63.29 21.019 170.81-11.109 244.55 66.973 59 62.465 40.89 173.463 51.85 154.831l60.98 957.514c-90.34.086-276.99-100.23-391.727-107.449-114.742-7.22-253.155 70.545-299.595 93.823-46.439 23.278-97.95 19.013-142.595 24.015-60.116 6.735-131.125 77.17-209.824 68.805-73.565-7.819-121.161-109.705-191.199-103.863-70.039 5.842-68.119 37.441-143.318 84.023-75.2 46.583-108.472 15.999-165.639 28.606-55.557 12.251-119.927 67.66-193.969 90.017-76.82 23.195-132.422-7.246-215.808 2.1Z" fill="#C5C1DD"/><path d="M-592.104 906.718c-66.709 7.477-180.92-30.593-229.687-50.562L-1042.52-333.712c132.113-46.938 227.515 150.286 382.333 165.986 141.085 14.307 348.947-276.158 593.249-223.14 99.382 21.568 129.266 130.658 232.324 135.064 86.284 3.688 121.065-97.517 212.798-102.811 144.29-8.326 219.85 52.844 336.002-19.389 106.353-66.139 226.709-95.694 290.004-74.675 63.29 21.019 170.81-11.109 244.55 66.973 59 62.465 40.89 173.463 51.85 154.831l60.98 957.514c-90.34.086-276.99-100.23-391.727-107.449-114.742-7.22-253.155 70.545-299.595 93.823-46.439 23.278-97.95 19.013-142.595 24.015-60.116 6.735-131.125 77.17-209.824 68.805-73.565-7.819-121.161-109.705-191.199-103.863-70.039 5.842-68.119 37.441-143.318 84.023-75.2 46.583-108.472 15.999-165.639 28.606-55.557 12.251-119.927 67.66-193.969 90.017-76.82 23.195-132.422-7.246-215.808 2.1Z" fill="url(#b)"/><path d="M-592.104 906.718c-66.709 7.477-180.92-30.593-229.687-50.562L-1042.52-333.712c132.113-46.938 227.515 150.286 382.333 165.986 141.085 14.307 348.947-276.158 593.249-223.14 99.382 21.568 129.266 130.658 232.324 135.064 86.284 3.688 121.065-97.517 212.798-102.811 144.29-8.326 219.85 52.844 336.002-19.389 106.353-66.139 226.709-95.694 290.004-74.675 63.29 21.019 170.81-11.109 244.55 66.973 59 62.465 40.89 173.463 51.85 154.831l60.98 957.514c-90.34.086-276.99-100.23-391.727-107.449-114.742-7.22-253.155 70.545-299.595 93.823-46.439 23.278-97.95 19.013-142.595 24.015-60.116 6.735-131.125 77.17-209.824 68.805-73.565-7.819-121.161-109.705-191.199-103.863-70.039 5.842-68.119 37.441-143.318 84.023-75.2 46.583-108.472 15.999-165.639 28.606-55.557 12.251-119.927 67.66-193.969 90.017-76.82 23.195-132.422-7.246-215.808 2.1Z" fill="url(#c)"/><path d="M-785.419 544.83c-55.256-20.405-96.36-23.399-153.916-11.213l74.947-911.052c47.369 14.958 164.483 27.245 253.984-43.272 111.876-88.146 220.664-130.726 312.383-120.411C-95.864-518.382-80.533-359.116 85.936-311.324c108.337 31.101 155.199 37.976 255.538 31.854 154.665-9.435 238.568-152.19 372.731-135.465 118.093 14.721 196.485 119.241 314.575 133.962 141.2 17.602 167.81 169.799 258.13 180.881 80.65 33.733 193.31 53.226 202.7 94.86l-165.4 964.457c-36.21-40.79-129.7-130.939-218.78-143.492-120.681-17.006-219.2 126.777-347.347 135.905S526.847 819.297 413.64 797.292c-90.565-17.604-125.826-110.649-221.552-104.273-71.891 4.787-116.044 76.27-165.23 78.138-72.54 2.754-85.578-17.135-190.728 2.458-98.407 18.337-140.059 67.581-271.642 52.887-202.168-22.577-206.484-228.709-349.907-281.672Z" fill="url(#d)"/><path d="M-785.419 544.83c-55.256-20.405-96.36-23.399-153.916-11.213l74.947-911.052c47.369 14.958 164.483 27.245 253.984-43.272 111.876-88.146 220.664-130.726 312.383-120.411C-95.864-518.382-80.533-359.116 85.936-311.324c108.337 31.101 155.199 37.976 255.538 31.854 154.665-9.435 238.568-152.19 372.731-135.465 118.093 14.721 196.485 119.241 314.575 133.962 141.2 17.602 167.81 169.799 258.13 180.881 80.65 33.733 193.31 53.226 202.7 94.86l-165.4 964.457c-36.21-40.79-129.7-130.939-218.78-143.492-120.681-17.006-219.2 126.777-347.347 135.905S526.847 819.297 413.64 797.292c-90.565-17.604-125.826-110.649-221.552-104.273-71.891 4.787-116.044 76.27-165.23 78.138-72.54 2.754-85.578-17.135-190.728 2.458-98.407 18.337-140.059 67.581-271.642 52.887-202.168-22.577-206.484-228.709-349.907-281.672Z" fill="url(#e)"/></g><defs><linearGradient id="b" x1="1106.81" y1="-551.516" x2="249.085" y2="429.288" gradientUnits="userSpaceOnUse"><stop stop-color="#D15834"/><stop offset=".154" stop-color="#C5BAD2"/><stop offset=".885" stop-color="#C5BAD2" stop-opacity="0"/></linearGradient><linearGradient id="c" x1="-833.261" y1="945.913" x2="-652.494" y2="585.656" gradientUnits="userSpaceOnUse"><stop stop-color="#D15834"/><stop offset=".508" stop-color="#C5BAD2"/><stop offset="1" stop-color="#C5BAD2" stop-opacity="0"/></linearGradient><linearGradient id="d" x1="-476.845" y1="862.76" x2="-145.128" y2="-791.883" gradientUnits="userSpaceOnUse"><stop offset=".635" stop-color="#D9D9D9" stop-opacity="0"/><stop offset="1" stop-color="#C5C0DA"/></linearGradient><linearGradient id="e" x1="77.602" y1="938.427" x2="291.464" y2="-296.15" gradientUnits="userSpaceOnUse"><stop stop-color="#C5C0DA"/><stop offset=".43" stop-color="#D9D9D9" stop-opacity="0"/></linearGradient><clipPath id="a"><path fill="#fff" transform="matrix(1 0 0 -1 0 820)" d="M0 0h375v820H0z"/></clipPath></defs></svg>