<svg width="1920" height="1011" fill="none" xmlns="http://www.w3.org/2000/svg"><g filter="url(#a)"><path d="M157.094-302.391C90.051-305.833-21.42-263.464-68.775-241.85L-211.562 949.039C-76.694 986.335 5.653 794.01 159.093 770.64c139.83-21.296 366.118 232.88 606.407 169.211 97.751-25.901 120.466-121.03 223-130.851 85.85-8.223 147.13 86 239 86 144.5 0 189.41-77.667 310-15.5 110.41 56.923 228.82 99.589 352.5 63.5 125.27-36.551 229.48-219.796 229.48-219.796l-1.49-961.714c-90.13 4.864-269.82 110.249-383.83 123.38-114.01 13.131-257.16-53.066-305.01-72.607-47.85-19.541-98.96-12.675-143.83-14.976-60.42-3.098-135.85-66.031-213.82-53.787-72.887 11.445-113.742 110.708-184 109-70.258-1.708-70.398-31.79-148.456-71.865-78.059-40.075-109.264-9.24-167.12-18.07-56.227-8.581-124.055-57.623-199.382-74.778-78.152-17.799-131.645 14.123-215.448 9.822Z" fill="#C5C1DD"/><path d="M157.094-302.391C90.051-305.833-21.42-263.464-68.775-241.85L-211.562 949.039C-76.694 986.335 5.653 794.01 159.093 770.64c139.83-21.296 366.118 232.88 606.407 169.211 97.751-25.901 120.466-121.03 223-130.851 85.85-8.223 147.13 86 239 86 144.5 0 189.41-77.667 310-15.5 110.41 56.923 228.82 99.589 352.5 63.5 125.27-36.551 229.48-219.796 229.48-219.796l-1.49-961.714c-90.13 4.864-269.82 110.249-383.83 123.38-114.01 13.131-257.16-53.066-305.01-72.607-47.85-19.541-98.96-12.675-143.83-14.976-60.42-3.098-135.85-66.031-213.82-53.787-72.887 11.445-113.742 110.708-184 109-70.258-1.708-70.398-31.79-148.456-71.865-78.059-40.075-109.264-9.24-167.12-18.07-56.227-8.581-124.055-57.623-199.382-74.778-78.152-17.799-131.645 14.123-215.448 9.822Z" fill="url(#b)"/><path d="M-55.5-306.5c-57.322 13.411-80.366 150.073-136.013 130.864l-36.252 953.19c48.832-8.982 166.564-6.687 246.834 74.347 100.337 101.293 203.143 136.995 295.43 138.105 203.41 2.445 237.968-133.678 409-160.506 111.306-17.459 158.654-18.483 257.5 0 152.361 28.491 218.311 160.506 353.501 160.506 119 0 209.5-74.006 328.5-74.006 142.28 0 187.17-147.715 278.17-147.54 84.15-23.493 198.33-28.899 212.7-69.046l-47.03-1017.365c-40.9 35.992-144.63 113.873-234.58 115.31-121.84 1.946-202.17-152.896-328.25-177.803-126.08-24.906-245.58 102.706-360.62 110.537-92.03 6.264-138.32 94.22-232.561 76.055-70.774-13.642-105.917-90.026-154.509-97.963-71.665-11.705-87.02 6.416-189.007-26.029-95.446-30.364-130.807-84.375-263.193-86.07C140.718-406.518 93.284-341.309-55.5-306.5Z" fill="url(#c)"/><path d="M-55.5-306.5c-57.322 13.411-80.366 150.073-136.013 130.864l-36.252 953.19c48.832-8.982 166.564-6.687 246.834 74.347 100.337 101.293 203.143 136.995 295.43 138.105 203.41 2.445 237.968-133.678 409-160.506 111.306-17.459 158.654-18.483 257.5 0 152.361 28.491 218.311 160.506 353.501 160.506 119 0 209.5-74.006 328.5-74.006 142.28 0 187.17-147.715 278.17-147.54 84.15-23.493 198.33-28.899 212.7-69.046l-47.03-1017.365c-40.9 35.992-144.63 113.873-234.58 115.31-121.84 1.946-202.17-152.896-328.25-177.803-126.08-24.906-245.58 102.706-360.62 110.537-92.03 6.264-138.32 94.22-232.561 76.055-70.774-13.642-105.917-90.026-154.509-97.963-71.665-11.705-87.02 6.416-189.007-26.029-95.446-30.364-130.807-84.375-263.193-86.07C140.718-406.518 93.284-341.309-55.5-306.5Z" fill="url(#d)"/><path fill="url(#e)" d="M0-100h1920v548H0z"/></g><defs><linearGradient id="b" x1="1947" y1="988" x2="1074.69" y2="60.048" gradientUnits="userSpaceOnUse"><stop stop-color="#D15834"/><stop offset=".154" stop-color="#C5BAD2"/><stop offset=".885" stop-color="#C5BAD2" stop-opacity="0"/></linearGradient><linearGradient id="c" x1="307.499" y1="-445" x2="431.999" y2="1238" gradientUnits="userSpaceOnUse"><stop offset=".635" stop-color="#D9D9D9" stop-opacity="0"/><stop offset="1" stop-color="#C5C0DA"/></linearGradient><linearGradient id="d" x1="866.999" y1="-451.5" x2="926.499" y2="800" gradientUnits="userSpaceOnUse"><stop stop-color="#C5C0DA"/><stop offset=".43" stop-color="#D9D9D9" stop-opacity="0"/></linearGradient><linearGradient id="e" x1="960" y1="-100" x2="960" y2="448" gradientUnits="userSpaceOnUse"><stop stop-color="#C5C1DD"/><stop offset=".861" stop-color="#C5C1DD" stop-opacity="0"/></linearGradient><filter id="a" x="-231.765" y="-403.99" width="2389.64" height="1422.99" filterUnits="userSpaceOnUse" color-interpolation-filters="sRGB"><feFlood flood-opacity="0" result="BackgroundImageFix"/><feColorMatrix in="SourceAlpha" values="0 0 0 0 0 0 0 0 0 0 0 0 0 0 0 0 0 0 127 0" result="hardAlpha"/><feOffset dy="4"/><feGaussianBlur stdDeviation="2"/><feComposite in2="hardAlpha" operator="out"/><feColorMatrix values="0 0 0 0 0 0 0 0 0 0 0 0 0 0 0 0 0 0 0.25 0"/><feBlend in2="BackgroundImageFix" result="effect1_dropShadow_2211_2359"/><feBlend in="SourceGraphic" in2="effect1_dropShadow_2211_2359" result="shape"/></filter></defs></svg>