<svg width="1920" height="579" fill="none" xmlns="http://www.w3.org/2000/svg"><path d="M157.094-704.391C90.051-707.833-21.42-665.464-68.775-643.85L-211.562 547.039C-76.694 584.335.686 435.353 159.093 408.64c242.44-40.883 366.118 192.883 606.407 129.211 97.751-25.901 120.466-101.03 223-110.851 85.85-8.223 147.13 76 239 76 144.5 0 189.41-87.667 310-25.5 110.41 56.923 228.82 99.589 352.5 63.5 125.27-36.551 229.48-219.796 229.48-219.796l-1.49-961.714c-90.13 4.864-269.82 110.249-383.83 123.38-114.01 13.131-257.16-53.066-305.01-72.607-47.85-19.541-98.96-12.675-143.83-14.976-60.42-3.098-135.85-66.031-213.82-53.787-72.887 11.445-113.742 110.708-184 109-70.258-1.708-70.398-31.79-148.456-71.865-78.059-40.075-109.264-9.24-167.12-18.07-56.227-8.581-124.055-57.623-199.382-74.778-78.152-17.799-131.645 14.123-215.448 9.822Z" fill="#C5C1DD"/><path d="M157.094-704.391C90.051-707.833-21.42-665.464-68.775-643.85L-211.562 547.039C-76.694 584.335.686 435.353 159.093 408.64c242.44-40.883 366.118 192.883 606.407 129.211 97.751-25.901 120.466-101.03 223-110.851 85.85-8.223 147.13 76 239 76 144.5 0 189.41-87.667 310-25.5 110.41 56.923 228.82 99.589 352.5 63.5 125.27-36.551 229.48-219.796 229.48-219.796l-1.49-961.714c-90.13 4.864-269.82 110.249-383.83 123.38-114.01 13.131-257.16-53.066-305.01-72.607-47.85-19.541-98.96-12.675-143.83-14.976-60.42-3.098-135.85-66.031-213.82-53.787-72.887 11.445-113.742 110.708-184 109-70.258-1.708-70.398-31.79-148.456-71.865-78.059-40.075-109.264-9.24-167.12-18.07-56.227-8.581-124.055-57.623-199.382-74.778-78.152-17.799-131.645 14.123-215.448 9.822Z" fill="url(#a)"/><path d="M-75.5-718.5c-57.322 13.411-80.366 150.073-136.013 130.864l-36.251 953.19c48.832-8.982 166.563-6.687 246.833 74.347C99.406 541.194 202.212 576.896 294.5 578.006c203.41 2.445 242.106-114.638 409-140.506 100.001-15.5 158.104-15.256 257.5 0 146.84 22.536 218.31 140.506 353.5 140.506 119 0 209.5-74.006 328.5-74.006 142.28 0 187.17-147.715 278.17-147.54 84.15-23.493 198.33-28.899 212.7-69.046l-47.03-1017.365c-40.9 35.992-144.63 113.873-234.58 115.31-121.84 1.946-202.17-152.896-328.25-177.803-126.08-24.906-245.58 102.706-360.62 110.537-92.03 6.264-138.32 94.22-232.561 76.055-70.774-13.642-105.916-90.026-154.508-97.963-71.666-11.705-87.021 6.416-189.007-26.029-95.447-30.364-130.808-84.375-263.194-86.07C120.719-818.518 73.284-753.309-75.5-718.5Z" fill="url(#b)"/><path d="M-75.5-718.5c-57.322 13.411-80.366 150.073-136.013 130.864l-36.251 953.19c48.832-8.982 166.563-6.687 246.833 74.347C99.406 541.194 202.212 576.896 294.5 578.006c203.41 2.445 242.106-114.638 409-140.506 100.001-15.5 158.104-15.256 257.5 0 146.84 22.536 218.31 140.506 353.5 140.506 119 0 209.5-74.006 328.5-74.006 142.28 0 187.17-147.715 278.17-147.54 84.15-23.493 198.33-28.899 212.7-69.046l-47.03-1017.365c-40.9 35.992-144.63 113.873-234.58 115.31-121.84 1.946-202.17-152.896-328.25-177.803-126.08-24.906-245.58 102.706-360.62 110.537-92.03 6.264-138.32 94.22-232.561 76.055-70.774-13.642-105.916-90.026-154.508-97.963-71.666-11.705-87.021 6.416-189.007-26.029-95.447-30.364-130.808-84.375-263.194-86.07C120.719-818.518 73.284-753.309-75.5-718.5Z" fill="url(#c)"/><path fill="url(#d)" d="M0-512h1920V36H0z"/><defs><linearGradient id="a" x1="1860.5" y1="622" x2="1085.52" y2="-544.781" gradientUnits="userSpaceOnUse"><stop stop-color="#D15834"/><stop offset=".143" stop-color="#C5BAD2"/><stop offset=".885" stop-color="#C5BAD2" stop-opacity="0"/></linearGradient><linearGradient id="b" x1="287.5" y1="-857" x2="412" y2="826" gradientUnits="userSpaceOnUse"><stop offset=".635" stop-color="#D9D9D9" stop-opacity="0"/><stop offset="1" stop-color="#C5C0DA"/></linearGradient><linearGradient id="c" x1="846.999" y1="-863.5" x2="906.499" y2="388" gradientUnits="userSpaceOnUse"><stop stop-color="#C5C0DA"/><stop offset=".43" stop-color="#D9D9D9" stop-opacity="0"/></linearGradient><linearGradient id="d" x1="960" y1="-512" x2="960" y2="36" gradientUnits="userSpaceOnUse"><stop stop-color="#C5C1DD"/><stop offset=".861" stop-color="#C5C1DD" stop-opacity="0"/></linearGradient></defs></svg>