<svg width="375" height="609" fill="none" xmlns="http://www.w3.org/2000/svg"><g clip-path="url(#a)"><path fill-rule="evenodd" clip-rule="evenodd" d="M377.825 136.122c14.724-24.003 90.19-21.842 97.517-60.927C487.66 9.493 387.451 6.285 352.54-33.33c-32.992-37.438-16.369-139.035-58.334-171.013-44.763-34.109-112.047-20.179-184.704-12.408-71.696 7.668-194.539-52.559-194.027 47.803C-84.014-68.585 17.922-69.333 46.8-28.617 71.352 5.997 23.99 60.938 31.343 93.344c15.396 67.835 103.96 11.377 159.283 45.017 56.253 34.205 70.981 86.863 127.796 79.552 42.827-5.511 43.631-56.081 59.403-81.792Z" fill="#C14824"/><path d="M-590.378-244.826c-66.709-7.477-178.661 10.837-226.298 20.929l-166.789 718.185c133.544 34.46 219.711-82.021 373.061-84.885 139.748-2.61 359.475 184.103 600.206 162.309 97.93-8.867 122.82-74.292 225.169-72.501 85.691 1.5 124.794 64.917 216.305 72.148 143.942 11.373 216.409-22.753 335.191 26.485 108.76 45.084 229.83 68.4 291.873 58.299 62.04-10.102 170.45 14.23 240.36-30.32 55.93-35.639 32.99-104.32 44.72-92.446l18.14-583.018C1271.67-53.626 1090.41-.391 976.563-.97c-113.85-.578-255.027-54.169-302.27-70.428-47.242-16.26-98.307-15.894-142.951-20.896-60.116-6.736-133.9-52.909-211.836-51.218-72.852 1.58-115.685 61.828-185.635 55.206-69.95-6.623-69.442-25.866-146.336-57.632-76.894-31.766-108.642-14.508-166.085-24.707-55.825-9.912-122.335-46.605-197.001-63.503-77.468-17.531-131.441-1.332-214.827-10.678Z" fill="#C5C1DD"/><path d="M-590.378-244.826c-66.709-7.477-178.661 10.837-226.298 20.929l-166.789 718.185c133.544 34.46 219.711-82.021 373.061-84.885 139.748-2.61 359.475 184.103 600.206 162.309 97.93-8.867 122.82-74.292 225.169-72.501 85.691 1.5 124.794 64.917 216.305 72.148 143.942 11.373 216.409-22.753 335.191 26.485 108.76 45.084 229.83 68.4 291.873 58.299 62.04-10.102 170.45 14.23 240.36-30.32 55.93-35.639 32.99-104.32 44.72-92.446l18.14-583.018C1271.67-53.626 1090.41-.391 976.563-.97c-113.85-.578-255.027-54.169-302.27-70.428-47.242-16.26-98.307-15.894-142.951-20.896-60.116-6.736-133.9-52.909-211.836-51.218-72.852 1.58-115.685 61.828-185.635 55.206-69.95-6.623-69.442-25.866-146.336-57.632-76.894-31.766-108.642-14.508-166.085-24.707-55.825-9.912-122.335-46.605-197.001-63.503-77.468-17.531-131.441-1.332-214.827-10.678Z" fill="url(#b)"/><path d="M-590.378-244.826c-66.709-7.477-178.661 10.837-226.298 20.929l-166.789 718.185c133.544 34.46 219.711-82.021 373.061-84.885 139.748-2.61 359.475 184.103 600.206 162.309 97.93-8.867 122.82-74.292 225.169-72.501 85.691 1.5 124.794 64.917 216.305 72.148 143.942 11.373 216.409-22.753 335.191 26.485 108.76 45.084 229.83 68.4 291.873 58.299 62.04-10.102 170.45 14.23 240.36-30.32 55.93-35.639 32.99-104.32 44.72-92.446l18.14-583.018C1271.67-53.626 1090.41-.391 976.563-.97c-113.85-.578-255.027-54.169-302.27-70.428-47.242-16.26-98.307-15.894-142.951-20.896-60.116-6.736-133.9-52.909-211.836-51.218-72.852 1.58-115.685 61.828-185.635 55.206-69.95-6.623-69.442-25.866-146.336-57.632-76.894-31.766-108.642-14.508-166.085-24.707-55.825-9.912-122.335-46.605-197.001-63.503-77.468-17.531-131.441-1.332-214.827-10.678Z" fill="url(#c)"/><path d="M-977.387-126.654c-56.923 8.536-98.103 7.064-154.223-5.512l-11.84 591.044c48.56-5.69 166.26-3.906 248.633 48.753 102.967 65.824 207.184 102.143 299.432 103.095 203.323 2.099 233.685-98.877 403.873-115.809 110.755-11.02 158.04-11.563 257.307.653 153.012 18.829 222.963 117.4 358.055 117.743 118.911.302 206.833-60.322 325.743-60.02 142.179.361 183.09-95.146 274.017-94.801 83.46-14.995 197.42-18.205 210.71-44.157l-73.11-632.797c-39.9 23.195-141.48 73.346-231.317 74.048-121.702.951-206.1-99.487-332.753-115.929-126.653-16.442-242.657 65.862-357.396 70.639-91.792 3.822-135.705 60.641-230.358 48.643-71.085-9.01-108.24-58.545-157.008-63.806-71.924-7.759-86.784 3.933-189.561-17.329-96.185-19.898-132.962-54.95-265.294-56.383-203.319-2.201-227.166 129.77-374.91 151.925Z" fill="url(#d)"/><path d="M-977.387-126.654c-56.923 8.536-98.103 7.064-154.223-5.512l-11.84 591.044c48.56-5.69 166.26-3.906 248.633 48.753 102.967 65.824 207.184 102.143 299.432 103.095 203.323 2.099 233.685-98.877 403.873-115.809 110.755-11.02 158.04-11.563 257.307.653 153.012 18.829 222.963 117.4 358.055 117.743 118.911.302 206.833-60.322 325.743-60.02 142.179.361 183.09-95.146 274.017-94.801 83.46-14.995 197.42-18.205 210.71-44.157l-73.11-632.797c-39.9 23.195-141.48 73.346-231.317 74.048-121.702.951-206.1-99.487-332.753-115.929-126.653-16.442-242.657 65.862-357.396 70.639-91.792 3.822-135.705 60.641-230.358 48.643-71.085-9.01-108.24-58.545-157.008-63.806-71.924-7.759-86.784 3.933-189.561-17.329-96.185-19.898-132.962-54.95-265.294-56.383-203.319-2.201-227.166 129.77-374.91 151.925Z" fill="url(#e)"/></g><defs><linearGradient id="b" x1="1164.84" y1="721.065" x2="718.378" y2="-147.72" gradientUnits="userSpaceOnUse"><stop stop-color="#D15834"/><stop offset=".154" stop-color="#C5BAD2"/><stop offset=".885" stop-color="#C5BAD2" stop-opacity="0"/></linearGradient><linearGradient id="c" x1="-832.075" y1="-279.297" x2="-761.122" y2="-17.252" gradientUnits="userSpaceOnUse"><stop stop-color="#D15834"/><stop offset=".508" stop-color="#C5BAD2"/><stop offset="1" stop-color="#C5BAD2" stop-opacity="0"/></linearGradient><linearGradient id="d" x1="-640.168" y1="-305.268" x2="-590.364" y2="789.941" gradientUnits="userSpaceOnUse"><stop offset=".635" stop-color="#D9D9D9" stop-opacity="0"/><stop offset="1" stop-color="#C5C0DA"/></linearGradient><linearGradient id="e" x1="-81.261" y1="-308.057" x2="-58.276" y2="504.206" gradientUnits="userSpaceOnUse"><stop stop-color="#C5C0DA"/><stop offset=".43" stop-color="#D9D9D9" stop-opacity="0"/></linearGradient><clipPath id="a"><path fill="#fff" d="M0 0h375v609H0z"/></clipPath></defs></svg>