<svg width="749" height="244" fill="none" xmlns="http://www.w3.org/2000/svg"><path d="M530.819 242.017a.999.999 0 1 0 .362 1.966l-.362-1.966Zm45.136-29.83.853.522-.853-.522Zm8.574-45.454-.804.595.804-.595Zm-9.71-.061.955.298-.955-.298Zm6.394 3.795v1h.008l-.008-1Zm23.725-3.734.386.922-.386-.922Zm29.046-29.911a1 1 0 0 0-1.162-.806l-8.857 1.597a1.001 1.001 0 0 0 .355 1.969l7.873-1.42 1.42 7.873a1.001 1.001 0 0 0 1.969-.355l-1.598-8.858ZM531.181 243.983c15.194-2.801 34.367-12.881 45.627-31.274l-1.706-1.045c-10.914 17.828-29.547 27.635-44.283 30.353l.362 1.966Zm45.627-31.274c4.805-7.848 8.29-17.57 9.921-26.226.816-4.33 1.174-8.425.988-11.91-.183-3.453-.908-6.443-2.385-8.436l-1.607 1.191c1.129 1.523 1.819 4.039 1.995 7.352.175 3.281-.161 7.21-.956 11.432-1.592 8.448-4.999 17.936-9.662 25.552l1.706 1.045Zm8.524-46.572c-1.419-1.914-4.003-2.681-6.209-2.654-1.125.014-2.245.232-3.175.677-.925.443-1.755 1.162-2.083 2.213l1.909.597c.109-.348.422-.711 1.038-1.006.612-.293 1.432-.47 2.335-.481 1.852-.023 3.686.641 4.578 1.845l1.607-1.191Zm-11.467.236c-.195.624-.227 1.23-.08 1.801a3.02 3.02 0 0 0 .833 1.406c.727.714 1.764 1.126 2.691 1.378.953.258 1.929.384 2.653.446a18.818 18.818 0 0 0 1.149.062l.072.001h.029l.001-1v-1h-.014l-.054-.001c-.05-.001-.124-.002-.22-.006a16.459 16.459 0 0 1-.793-.049 13.332 13.332 0 0 1-2.299-.384c-.819-.222-1.455-.522-1.815-.875a1.024 1.024 0 0 1-.296-.478c-.04-.155-.05-.379.052-.704l-1.909-.597Zm7.348 4.094.008 1h.013l.034-.001.132-.001a91.433 91.433 0 0 0 2.347-.074c1.563-.069 3.737-.198 6.184-.441 4.867-.484 10.923-1.427 15.393-3.295l-.771-1.845c-4.179 1.746-9.985 2.669-14.819 3.15-2.403.238-4.539.365-6.074.433a95.11 95.11 0 0 1-2.292.072l-.124.002h-.039l.008 1Zm24.111-2.812c7.614-3.181 13.772-9.351 18.489-15.355 4.686-5.963 8.124-12.016 10.008-14.73l-1.642-1.14c-2.059 2.964-5.27 8.694-9.938 14.635-4.637 5.9-10.538 11.758-17.688 14.745l.771 1.845Z" fill="#D15834"/><path d="m1.932 21.304-1.29-2.13c3.678-1.455 7.387-2.86 11.065-4.314-.098-1.379.582-2.457 2.173-3.42l4.209-2.548c2.771-1.678 4.528-1.094 6.02 1.37l1.942 3.208L4.93 26.257l-1.182-1.95 9.573-5.796-.7-1.155c-.108-.18-.186-.308-.207-.4L1.932 21.304Zm17.353-10.436-3.978 2.408c-1.283.777-1.768 1.597-.991 2.88l.776 1.283 7.802-4.723-.761-1.258c-.746-1.232-1.513-1.398-2.848-.59Zm10.212 8.197 3.65 5.607-1.935 1.26-2.407-3.695-18.755 12.21-1.244-1.91 20.691-13.472Zm-10.739 21.51 13.832-9.588c2.293-1.59 4.186-1.333 5.656.787 1.487 2.145 1.063 4.009-1.23 5.598l-13.83 9.589c-2.294 1.59-4.187 1.333-5.674-.812-1.47-2.12-1.047-3.984 1.246-5.574Zm3.128 4.512 13.832-9.589c1.035-.717 1.245-1.52.63-2.408-.598-.863-1.424-.948-2.46-.23l-13.83 9.59c-1.06.734-1.296 1.554-.697 2.417.615.887 1.465.955 2.525.22Zm.596 13.366-1.084-1.437 4.455-3.36.307.407c.361.48.86.592 2.01.175 1.29-.484 3.296-1.66 8.663-5.256l9.007-6.042 3.74 4.958-17.892 13.494.777 1.03-4.455 3.36-1.084-1.437 2.635-1.987-4.444-5.892-2.635 1.987Zm5.34-2.186 2.493 3.305 16.047-12.103-1.246-1.653-7.181 4.777c-5.977 3.983-9.17 5.677-10.113 5.674Zm14.65 22.299-1.45-1.758 19.043-15.715 1.45 1.758-19.043 15.715Zm11.406-24.97 1.451 1.759-8.469 6.988 1.031 1.25c1.833 2.22 1.636 4.056-.77 6.042l-3.702 3.055c-2.407 1.986-4.288 1.827-6.121-.394l-2.463-2.985 19.043-15.715ZM41.964 70.974l3.794-3.132c1.11-.916 1.242-1.841.421-2.837l-1.031-1.249-7.104 5.862 1.012 1.226c.84 1.018 1.774 1.065 2.908.13Zm78.734 58.649-6.157 8.245c-.844 1.13-.734 2.036.234 2.946l8.831-11.827c-1.129-.693-2.083-.469-2.908.636Zm4.615.639-8.831 11.826c1.123.652 2.023.5 2.866-.63l6.157-8.245c.826-1.105.794-2.065-.192-2.951Zm-12.269 6.301 5.977-8.004c1.742-2.332 3.252-3.001 5.848-1.362l1.669-2.236 1.803 1.347-1.67 2.235c2.309 2.023 2.096 3.662.355 5.993l-5.977 8.005c-1.724 2.307-3.234 2.976-5.83 1.338l-1.651 2.211-1.803-1.346 1.651-2.211c-2.308-2.024-2.095-3.662-.372-5.97Zm24.057 6.633 2.335-3.383c.835-1.209.782-2.084-.403-2.902l-1.284-.886-4.788 6.938 1.308.903c1.087.75 1.963.589 2.832-.67Zm-12.063 11.249-1.877-1.295 14.023-20.321 3.161 2.181c2.37 1.636 2.715 3.513.942 6.081l-2.3 3.334c-1.772 2.568-3.608 2.904-5.978 1.268l-1.309-.903-6.662 9.655Zm31.754-8.551-14.824 15.424c-2.132 2.235-3.262 2.334-6.173.483l-.278-.178 1.223-1.923.279.177c1.367.869 2.255 1.15 3.476-.1l2.354-2.414 5.817-16.637 2.025 1.288-4.668 12.035 8.87-9.362 1.899 1.207Zm-.653 28.438-2.249-1.325 2.448-12.661-6.17 10.467-1.964-1.158 12.537-21.27 1.964 1.158-5.408 9.175 9-7.058 2.12 1.249-9.744 7.316-2.534 14.107Zm9.671 5.436-1.976-1.076 10.7-19.656-2.424-1.32 1.104-2.029 6.825 3.715-1.105 2.029-2.424-1.32-10.7 19.657Zm18.925 9.742-2.047-1.005 10.889-22.16 2.046 1.006-10.888 22.159Zm.118-27.451 2.046 1.005-4.842 9.855 1.454.714c2.585 1.27 3.161 3.024 1.785 5.824l-2.117 4.308c-1.376 2.8-3.156 3.43-5.741 2.16l-3.473-1.707 10.888-22.159Zm-3.707 20.741 2.17-4.416c.635-1.292.374-2.19-.784-2.758l-1.454-.715-4.062 8.266 1.428.701c1.184.582 2.054.241 2.702-1.078Zm92.721 34.248 3.649-16.43c.604-2.724 2.169-3.82 4.688-3.261 2.548.566 3.502 2.222 2.897 4.945l-3.648 16.43c-.605 2.724-2.17 3.821-4.718 3.255-2.519-.559-3.472-2.215-2.868-4.939Zm5.36 1.19 3.648-16.43c.273-1.23-.117-1.962-1.172-2.196-1.025-.228-1.689.27-1.962 1.5l-3.648 16.43c-.279 1.259.105 2.021 1.13 2.248 1.054.235 1.724-.293 2.004-1.552Zm17.453-8.847.751-4.041c.268-1.445-.136-2.222-1.552-2.485l-1.534-.285-1.54 8.288 1.563.29c1.298.242 2.032-.263 2.312-1.767Zm-6.425 15.192-2.241-.417 4.512-24.274 3.775.702c2.831.526 3.912 2.1 3.342 5.167l-.74 3.982c-.57 3.068-2.109 4.124-4.941 3.598l-1.563-.291-2.144 11.533Zm18.53 3.188-6.612-1.019 3.761-24.402 6.464.996-.352 2.283-4.21-.649-1.321 8.569 2.965.457-.348 2.253-2.965-.457-1.398 9.073 4.358.672-.342 2.224Zm14.277 1.913-2.442-.3c-.54-3.481-1.152-9.571-1.226-10.94-.406 1.34-2.436 7.045-3.806 10.323l-2.323-.285 5.178-12.634-1.633-11.807 2.412.296c.389 2.738.82 7.597.886 9.026.41-1.37 2.034-5.977 3.074-8.539l2.352.288-4.493 10.995 2.021 13.577Zm9.926 1.054-2.182-.183 2.065-24.604 2.062.173-1.435 17.1 4.425-16.849 2.661.223-2.065 24.604-2.093-.176 1.463-17.428-4.901 17.14Zm103.225-2.877-2.256.327-1.128-4.02-3.652.529.059 4.175-2.197.318-.185-24.921 2.642-.383 6.717 23.975Zm-7.07-5.281 3.118-.452c-1.112-4.113-2.231-8.073-3.33-12.309.119 4.378.17 8.493.212 12.761Zm12.943 4.429-.384.071-.411-2.243.325-.059c.649-.119 1.094-.354 1.234-1.752.132-1.274.011-3.601-.814-10.098l-1.362-10.761 6.108-1.12 4.451 24.286-2.242.411-4.035-22.013-2.036.373 1.094 8.797c.958 7.723.827 10.004.707 10.85-.281 2.125-1.219 2.999-2.635 3.258Zm27.471-5.504-2.546.575-6.891-10.899 2.677 11.851-2.224.503-5.44-24.083 2.224-.503 2.346 10.389 1.721-11.308 2.4-.542-2.086 12.005 7.819 12.012Zm3.744-4.878-4.254-16.284c-.706-2.699.186-4.389 2.682-5.042 2.526-.659 4.13.379 4.835 3.078l4.254 16.284c.706 2.699-.186 4.39-2.711 5.049-2.497.652-4.101-.386-4.806-3.085Zm5.311-1.388-4.254-16.283c-.318-1.219-1-1.693-2.045-1.42-1.016.266-1.379 1.012-1.06 2.231l4.254 16.284c.326 1.248 1.015 1.75 2.031 1.484 1.045-.273 1.401-1.048 1.074-2.296Zm3.737-22.471 6.413-1.905.658 2.214-4.227 1.256 6.373 21.453-2.186.65-7.031-23.668Zm18.38 16.186-5.324-15.966c-.883-2.646-.105-4.392 2.342-5.208 2.476-.826 4.146.103 5.029 2.75l5.324 15.966c.883 2.646.105 4.392-2.371 5.218-2.447.816-4.117-.113-5-2.76Zm5.208-1.737-5.324-15.966c-.399-1.195-1.11-1.622-2.135-1.28-.996.332-1.309 1.101-.91 2.296l5.324 15.966c.408 1.223 1.129 1.679 2.125 1.346 1.025-.341 1.328-1.138.92-2.362Zm9.635.942-.366.137-.8-2.135.309-.116c.618-.231 1.015-.54.907-1.941-.095-1.278-.625-3.547-2.583-9.797l-3.239-10.352 5.815-2.179 8.665 23.119-2.135.801-7.854-20.957-1.938.726 2.628 8.467c2.305 7.433 2.579 9.702 2.61 10.555.098 2.142-.671 3.167-2.019 3.672Zm6.422-28.79 2.105-.878 4.226 10.134 1.496-.624c2.658-1.109 4.356-.387 5.557 2.493l1.848 4.43c1.201 2.879.503 4.633-2.155 5.742l-3.572 1.49-9.505-22.787Zm13.167 16.449-1.894-4.541c-.554-1.329-1.401-1.724-2.592-1.227l-1.495.624 3.545 8.5 1.468-.612c1.218-.508 1.534-1.388.968-2.744Zm127.038-75.29-1.693 1.527-7.654-8.489-2.362 2.13 7.654 8.489-1.693 1.526-16.534-18.336 1.693-1.527 7.373 8.177 2.362-2.13-7.373-8.176 1.693-1.527 16.534 18.336Zm1.441-6.58-11.676-12.121c-1.936-2.01-1.985-3.92-.127-5.71 1.88-1.81 3.787-1.69 5.723.32l11.676 12.12c1.935 2.009 1.985 3.92.105 5.731-1.858 1.789-3.765 1.669-5.701-.34Zm3.954-3.809-11.676-12.121c-.875-.907-1.701-.987-2.478-.237-.757.728-.708 1.556.166 2.464l11.676 12.121c.895.929 1.742 1.03 2.498.301.778-.749.709-1.599-.186-2.528Zm3.476-19.475-3.735-3.603c-1.015-.98-1.652-1.01-2.423-.211l-1.145 1.187 6.283 6.061 1.166-1.21c.75-.776.696-1.412-.146-2.224Zm8.074 7.662-3.952-3.812c-1.015-.978-1.633-1.158-2.529-.23l-1.166 1.21 6.758 6.518 1.146-1.187c.75-.778.671-1.604-.257-2.5Zm1.876 4.061-2.728 2.828-17.771-17.14 2.729-2.829c1.832-1.9 3.426-1.78 5.585.303l3.563 3.436c1.101 1.062 1.416 2.075.923 2.975.818-.545 1.919-.65 3.215.6l4.232 4.081c2.095 2.02 2.085 3.846.252 5.746Zm14.722-15.867-1.515 1.703-18.451-16.406 1.515-1.704 18.451 16.406Zm-26.425-7.439 1.515-1.704 8.205 7.296 1.077-1.21c1.913-2.153 3.757-2.24 6.089-.166l3.587 3.189c2.331 2.073 2.463 3.957.549 6.109l-2.571 2.892-18.451-16.406Zm19 9.106-3.677-3.269c-1.076-.957-2.01-.944-2.867.02l-1.077 1.21 6.883 6.12 1.057-1.188c.877-.986.78-1.916-.319-2.893Zm-5.294-33.749 1.173-1.443c2.794 2.27 2.703 3.858 1.019 5.93-1.949 2.398-3.295 2.58-6.089.31l1.154-1.42c2.259 1.835 3.091 1.428 3.942.38.757-.93 1.06-1.922-1.199-3.757Zm21.211 22.183-1.381 1.7-19.162-15.57 1.306-1.607 13.317 10.822-11.426-13.15 1.684-2.072 19.162 15.57-1.325 1.63-13.573-11.03 11.398 13.707Zm6.193-33.104-4.227-3.012c-1.148-.818-1.783-.754-2.427.15l-.958 1.343 7.111 5.066.974-1.368c.627-.88.48-1.5-.473-2.18Zm9.117 6.384-4.471-3.185c-1.149-.818-1.787-.905-2.536.146l-.974 1.368 7.647 5.449.958-1.344c.626-.88.427-1.685-.624-2.434Zm2.456 3.74-2.28 3.2-20.109-14.326 2.28-3.2c1.532-2.15 3.126-2.268 5.569-.527l4.032 2.872c1.246.888 1.707 1.843 1.353 2.806.728-.66 1.802-.927 3.268.118l4.789 3.411c2.37 1.689 2.63 3.495 1.098 5.645Zm10.271-14.904-1.442 2.175-12.514-3.11 10.127 6.712-1.259 1.9-20.581-13.64 1.26-1.9 8.877 5.883-6.573-9.36 1.359-2.05 6.792 10.116 13.954 3.274Zm-12.22-26.891 15.7 14.53c2.274 2.09 2.395 3.218.598 6.164l-.171.281-1.947-1.187.172-.282c.843-1.383 1.107-2.276-.165-3.474l-2.458-2.307-16.744-5.503 1.25-2.05 12.12 4.441-9.527-8.692 1.172-1.92Zm23.483.979-4.468-2.52 1.017-1.803 4.442 2.506c2.508 1.415 3.154 3.019 1.915 5.214-1.282 2.273-3.133 2.745-5.563 1.374L726.245 9.34c-2.482-1.4-3.061-3.243-1.779-5.517 1.18-2.09 2.997-2.442 5.427-1.071l3.815 2.152-1.017 1.803-3.789-2.138c-1.15-.648-1.849-.63-2.424.39-.531.94-.247 1.72.876 2.354l14.632 8.255c1.124.634 1.964.488 2.495-.453.545-.966.203-1.642-.947-2.29Z" fill="#fff"/><path d="M92.314 92.686 87.03 98.74a8 8 0 0 0 0 10.52l5.283 6.054-6.054-5.283a8 8 0 0 0-10.52 0l-6.054 5.283 5.283-6.054a8 8 0 0 0 0-10.52l-5.283-6.054 6.054 5.283a8 8 0 0 0 10.52 0l6.054-5.283Zm147.423 89.455-1.548 7.884a8 8 0 0 0 5.26 9.111l7.602 2.601-7.884-1.548a8 8 0 0 0-9.111 5.26l-2.601 7.602 1.548-7.884a8 8 0 0 0-5.26-9.111l-7.602-2.601 7.884 1.548a8 8 0 0 0 9.111-5.26l2.601-7.602Zm144.1 21.881.125 8.034a8 8 0 0 0 7.039 7.818l7.977.963-8.034.125a8 8 0 0 0-7.818 7.04l-.964 7.976-.124-8.034a8 8 0 0 0-7.04-7.818l-7.976-.963 8.033-.125a8 8 0 0 0 7.819-7.039l.963-7.977Z" fill="#D15834"/></svg>