<svg width="1920" height="1582" fill="none" xmlns="http://www.w3.org/2000/svg"><path d="M1854.09 1411.49c67.04 2.87 435.92 46.55 483.27 28.55L2164.75 181.421c-134.87-31.072-217.22 129.157-370.66 148.627-139.83 17.743-366.12-202.349-606.41-149.303-97.75 21.579-120.46 109.163-222.995 117.345-85.846 6.85-127.134-71.552-219-71.552-144.5 0-215.906 51.793-336.492 0C298.781 179.115 176.777 161.245 115 180.745c-61.777 19.499-171.142-.99-239.635 64.086-54.795 52.061-29.506 138.963-41.657 124.737l1.486 1059.482c90.136-4.05 269.822-91.85 383.83-102.79 114.008-10.94 257.164 44.21 305.011 60.49 47.848 16.28 98.963 10.56 143.83 12.48 60.417 2.58 135.847 55.01 213.821 44.81 72.887-9.54 113.742-92.23 184.004-90.81 70.25 1.42 70.39 26.48 148.45 59.87 78.06 33.39 109.26 7.7 167.12 15.06 56.23 7.14 116.24 60.78 199.38 62.29 88.31 1.61 189.65-82.54 273.45-78.96Z" fill="#C5C1DD"/><path d="M1854.09 1411.49c67.04 2.87 435.92 46.55 483.27 28.55L2164.75 181.421c-134.87-31.072-217.22 129.157-370.66 148.627-139.83 17.743-366.12-202.349-606.41-149.303-97.75 21.579-120.46 109.163-222.995 117.345-85.846 6.85-127.134-71.552-219-71.552-144.5 0-215.906 51.793-336.492 0C298.781 179.115 176.777 161.245 115 180.745c-61.777 19.499-171.142-.99-239.635 64.086-54.795 52.061-29.506 138.963-41.657 124.737l1.486 1059.482c90.136-4.05 269.822-91.85 383.83-102.79 114.008-10.94 257.164 44.21 305.011 60.49 47.848 16.28 98.963 10.56 143.83 12.48 60.417 2.58 135.847 55.01 213.821 44.81 72.887-9.54 113.742-92.23 184.004-90.81 70.25 1.42 70.39 26.48 148.45 59.87 78.06 33.39 109.26 7.7 167.12 15.06 56.23 7.14 116.24 60.78 199.38 62.29 88.31 1.61 189.65-82.54 273.45-78.96Z" fill="url(#a)"/><path d="M1854.09 1411.49c67.04 2.87 435.92 46.55 483.27 28.55L2164.75 181.421c-134.87-31.072-217.22 129.157-370.66 148.627-139.83 17.743-366.12-202.349-606.41-149.303-97.75 21.579-120.46 109.163-222.995 117.345-85.846 6.85-127.134-71.552-219-71.552-144.5 0-215.906 51.793-336.492 0C298.781 179.115 176.777 161.245 115 180.745c-61.777 19.499-171.142-.99-239.635 64.086-54.795 52.061-29.506 138.963-41.657 124.737l1.486 1059.482c90.136-4.05 269.822-91.85 383.83-102.79 114.008-10.94 257.164 44.21 305.011 60.49 47.848 16.28 98.963 10.56 143.83 12.48 60.417 2.58 135.847 55.01 213.821 44.81 72.887-9.54 113.742-92.23 184.004-90.81 70.25 1.42 70.39 26.48 148.45 59.87 78.06 33.39 109.26 7.7 167.12 15.06 56.23 7.14 116.24 60.78 199.38 62.29 88.31 1.61 189.65-82.54 273.45-78.96Z" fill="url(#b)"/><path d="M1995.46 243.47c57.29 10.687 98.45 8.927 154.13-6.592l33.79 1079.112c-48.81-7.14-166.54-5.12-246.95 60.11-100.51 81.53-203.41 126.44-295.69 127.47-203.39 2.28-237.66-123.1-408.63-144.4-111.26-13.86-158.61-14.61-257.478.39-152.403 23.13-218.616 145.36-353.797 145.57-118.989.18-209.308-75.21-328.297-75.03-142.272.22-186.887-118.39-277.873-118.11-84.099-18.75-198.265-22.92-212.559-55.15l49.608-1130.801c40.823 28.855 144.409 91.27 234.344 92.287 121.829 1.378 202.428-123.15 328.545-143.353 126.116-20.202 245.372 82.143 360.381 88.26 92.008 4.893 138.14 75.488 232.406 60.75 70.79-11.068 106.07-72.491 154.67-78.941 71.68-9.514 87 5.022 189.04-21.201 95.49-24.541 130.95-67.989 263.32-69.552 203.39-2.403 232.33 161.441 381.04 189.181Z" fill="url(#c)"/><path d="M1995.46 243.47c57.29 10.687 98.45 8.927 154.13-6.592l33.79 1079.112c-48.81-7.14-166.54-5.12-246.95 60.11-100.51 81.53-203.41 126.44-295.69 127.47-203.39 2.28-237.66-123.1-408.63-144.4-111.26-13.86-158.61-14.61-257.478.39-152.403 23.13-218.616 145.36-353.797 145.57-118.989.18-209.308-75.21-328.297-75.03-142.272.22-186.887-118.39-277.873-118.11-84.099-18.75-198.265-22.92-212.559-55.15l49.608-1130.801c40.823 28.855 144.409 91.27 234.344 92.287 121.829 1.378 202.428-123.15 328.545-143.353 126.116-20.202 245.372 82.143 360.381 88.26 92.008 4.893 138.14 75.488 232.406 60.75 70.79-11.068 106.07-72.491 154.67-78.941 71.68-9.514 87 5.022 189.04-21.201 95.49-24.541 130.95-67.989 263.32-69.552 203.39-2.403 232.33 161.441 381.04 189.181Z" fill="url(#d)"/><defs><linearGradient id="a" x1="94.864" y1="124.549" x2="147.477" y2="349.643" gradientUnits="userSpaceOnUse"><stop stop-color="#D15834"/><stop offset=".115" stop-color="#D05F3F"/><stop offset=".442" stop-color="#C5BAD2"/><stop offset="1" stop-color="#C5BAD2" stop-opacity="0"/></linearGradient><linearGradient id="b" x1="-56.636" y1="1396.71" x2="113.873" y2="1220.2" gradientUnits="userSpaceOnUse"><stop stop-color="#D15834"/><stop offset=".772" stop-color="#C5BAD2"/><stop offset="1" stop-color="#C5BAD2" stop-opacity="0"/></linearGradient><linearGradient id="c" x1="1075.21" y1="330.618" x2="1034.9" y2="1644.39" gradientUnits="userSpaceOnUse"><stop offset=".667" stop-color="#D9D9D9" stop-opacity="0"/><stop offset="1" stop-color="#C5C0DA"/></linearGradient><linearGradient id="d" x1="797.714" y1="-96.787" x2="952.325" y2="1033.06" gradientUnits="userSpaceOnUse"><stop stop-color="#C5C0DA"/><stop offset=".509" stop-color="#D9D9D9" stop-opacity="0"/></linearGradient></defs></svg>