<svg width="375" height="1283" fill="none" xmlns="http://www.w3.org/2000/svg"><g clip-path="url(#a)"><path d="M-112.107 90.675c-67.043-3.245-178.514 36.712-225.869 57.096L-480.763 1195.43c134.868 35.17 223.374-43.31 368.656-51.07 238.183-12.73 278.329 102.85 458.407 78.38 158.284-21.51 270.465-150.12 372.999-159.38 85.845-7.75 127.134 81 219 81 144.501 0 215.901-58.63 336.491 0 110.41 53.68 232.42 73.91 294.19 51.83 61.78-22.07 171.15 1.12 239.64-72.54 54.79-58.93 29.5-157.307 41.66-141.203l-1.49-831.527c-90.14 4.588-269.82 103.975-383.83 116.358-114.01 12.383-257.16-50.045-305.01-68.474-47.85-18.429-98.96-11.954-143.83-14.124-60.417-2.922-135.847-62.272-213.821-50.725-72.886 10.794-113.742 104.406-184 102.795-70.257-1.611-70.398-29.98-148.457-67.774-78.058-37.794-109.263-8.714-167.119-17.041-56.227-8.093-124.055-54.343-199.382-70.522-78.153-16.786-131.645 13.32-215.448 9.263Z" fill="#C5C1DD"/><path d="M-112.107 90.675c-67.043-3.245-178.514 36.712-225.869 57.096L-480.763 1195.43c134.868 35.17 223.374-43.31 368.656-51.07 238.183-12.73 278.329 102.85 458.407 78.38 158.284-21.51 270.465-150.12 372.999-159.38 85.845-7.75 127.134 81 219 81 144.501 0 215.901-58.63 336.491 0 110.41 53.68 232.42 73.91 294.19 51.83 61.78-22.07 171.15 1.12 239.64-72.54 54.79-58.93 29.5-157.307 41.66-141.203l-1.49-831.527c-90.14 4.588-269.82 103.975-383.83 116.358-114.01 12.383-257.16-50.045-305.01-68.474-47.85-18.429-98.96-11.954-143.83-14.124-60.417-2.922-135.847-62.272-213.821-50.725-72.886 10.794-113.742 104.406-184 102.795-70.257-1.611-70.398-29.98-148.457-67.774-78.058-37.794-109.263-8.714-167.119-17.041-56.227-8.093-124.055-54.343-199.382-70.522-78.153-16.786-131.645 13.32-215.448 9.263Z" fill="url(#b)"/><path d="M-112.107 90.675c-67.043-3.245-178.514 36.712-225.869 57.096L-480.763 1195.43c134.868 35.17 223.374-43.31 368.656-51.07 238.183-12.73 278.329 102.85 458.407 78.38 158.284-21.51 270.465-150.12 372.999-159.38 85.845-7.75 127.134 81 219 81 144.501 0 215.901-58.63 336.491 0 110.41 53.68 232.42 73.91 294.19 51.83 61.78-22.07 171.15 1.12 239.64-72.54 54.79-58.93 29.5-157.307 41.66-141.203l-1.49-831.527c-90.14 4.588-269.82 103.975-383.83 116.358-114.01 12.383-257.16-50.045-305.01-68.474-47.85-18.429-98.96-11.954-143.83-14.124-60.417-2.922-135.847-62.272-213.821-50.725-72.886 10.794-113.742 104.406-184 102.795-70.257-1.611-70.398-29.98-148.457-67.774-78.058-37.794-109.263-8.714-167.119-17.041-56.227-8.093-124.055-54.343-199.382-70.522-78.153-16.786-131.645 13.32-215.448 9.263Z" fill="url(#c)"/><path d="M-286.583 236.539c-57.322 12.647-98.483 10.655-154.13-7.462l-36.252 823.493c48.832-8.48 166.564-6.31 246.834 70.11 100.337 95.53 203.143 148.06 295.43 149.11 203.411 2.3 237.969-144.93 409.001-170.24 111.305-16.46 158.652-17.43 257.499 0 152.366 26.87 218.307 170.24 353.501 170.24 119 0 209.5-88.66 328.5-88.66 142.28 0 187.17-139.31 278.17-139.14 84.15-22.16 198.33-27.26 212.7-65.118l-47.03-884.009c-40.9 33.943-144.63 107.392-234.58 108.747-121.84 1.835-202.17-144.194-328.25-167.682-126.08-23.489-245.58 96.859-360.618 104.244-92.028 5.908-138.325 88.857-232.563 71.726-70.774-12.865-105.917-84.902-154.509-92.386-71.665-11.039-87.02 6.051-189.007-24.548-95.446-28.636-130.807-79.572-263.193-81.17-203.402-2.457-232.719 189.917-381.503 222.745Z" fill="url(#d)"/><path d="M-286.583 236.539c-57.322 12.647-98.483 10.655-154.13-7.462l-36.252 823.493c48.832-8.48 166.564-6.31 246.834 70.11 100.337 95.53 203.143 148.06 295.43 149.11 203.411 2.3 237.969-144.93 409.001-170.24 111.305-16.46 158.652-17.43 257.499 0 152.366 26.87 218.307 170.24 353.501 170.24 119 0 209.5-88.66 328.5-88.66 142.28 0 187.17-139.31 278.17-139.14 84.15-22.16 198.33-27.26 212.7-65.118l-47.03-884.009c-40.9 33.943-144.63 107.392-234.58 108.747-121.84 1.835-202.17-144.194-328.25-167.682-126.08-23.489-245.58 96.859-360.618 104.244-92.028 5.908-138.325 88.857-232.563 71.726-70.774-12.865-105.917-84.902-154.509-92.386-71.665-11.039-87.02 6.051-189.007-24.548-95.446-28.636-130.807-79.572-263.193-81.17-203.402-2.457-232.719 189.917-381.503 222.745Z" fill="url(#e)"/></g><defs><linearGradient id="b" x1="1677.8" y1="1307.62" x2="859.513" y2="384.594" gradientUnits="userSpaceOnUse"><stop stop-color="#D15834"/><stop offset=".154" stop-color="#C5BAD2"/><stop offset=".885" stop-color="#C5BAD2" stop-opacity="0"/></linearGradient><linearGradient id="c" x1="-355.261" y1="68.059" x2="-184.132" y2="397.986" gradientUnits="userSpaceOnUse"><stop stop-color="#D15834"/><stop offset=".508" stop-color="#C5BAD2"/><stop offset="1" stop-color="#C5BAD2" stop-opacity="0"/></linearGradient><linearGradient id="d" x1="58.299" y1="-24.954" x2="169.096" y2="1563.2" gradientUnits="userSpaceOnUse"><stop offset=".635" stop-color="#D9D9D9" stop-opacity="0"/><stop offset="1" stop-color="#C5C0DA"/></linearGradient><linearGradient id="e" x1="617.799" y1="-31.084" x2="670.732" y2="1149.47" gradientUnits="userSpaceOnUse"><stop stop-color="#C5C0DA"/><stop offset=".43" stop-color="#D9D9D9" stop-opacity="0"/></linearGradient><clipPath id="a"><path fill="#fff" d="M0 0h375v1283H0z"/></clipPath></defs></svg>