<svg width="1920" height="1485" fill="none" xmlns="http://www.w3.org/2000/svg"><path d="M157.094 81.609C90.051 78.167-21.419 120.536-68.775 142.15l-142.787 1260.89c134.868 37.3 217.215-155.03 370.655-178.4 139.83-21.3 366.118 242.88 606.407 179.21 97.751-25.9 120.466-131.03 223-140.85 85.85-8.22 127.13 85.88 219 85.88 144.5 0 215.91-62.16 336.49 0 110.41 56.93 232.42 78.38 294.19 54.97 61.78-23.4 171.15 1.19 239.64-76.92 54.79-62.49 29.51-166.8 41.66-149.73l-1.49-1031.71c-90.13 4.864-269.82 110.249-383.83 123.38-114.01 13.131-257.16-53.066-305.01-72.607-47.85-19.541-98.96-12.675-143.83-14.976-60.42-3.098-135.85-66.031-213.82-53.787-72.887 11.445-113.742 110.708-184 109-70.258-1.708-70.398-31.79-148.456-71.865-78.059-40.075-109.263-9.24-167.12-18.07-56.227-8.581-124.055-57.623-199.382-74.778-78.152-17.8-131.645 14.123-215.448 9.822Z" fill="#C5C1DD"/><path d="M157.094 81.609C90.051 78.167-21.419 120.536-68.775 142.15l-142.787 1260.89c134.868 37.3 217.215-155.03 370.655-178.4 139.83-21.3 366.118 242.88 606.407 179.21 97.751-25.9 120.466-131.03 223-140.85 85.85-8.22 127.13 85.88 219 85.88 144.5 0 215.91-62.16 336.49 0 110.41 56.93 232.42 78.38 294.19 54.97 61.78-23.4 171.15 1.19 239.64-76.92 54.79-62.49 29.51-166.8 41.66-149.73l-1.49-1031.71c-90.13 4.864-269.82 110.249-383.83 123.38-114.01 13.131-257.16-53.066-305.01-72.607-47.85-19.541-98.96-12.675-143.83-14.976-60.42-3.098-135.85-66.031-213.82-53.787-72.887 11.445-113.742 110.708-184 109-70.258-1.708-70.398-31.79-148.456-71.865-78.059-40.075-109.263-9.24-167.12-18.07-56.227-8.581-124.055-57.623-199.382-74.778-78.152-17.8-131.645 14.123-215.448 9.822Z" fill="url(#a)"/><path d="M157.094 81.609C90.051 78.167-21.419 120.536-68.775 142.15l-142.787 1260.89c134.868 37.3 217.215-155.03 370.655-178.4 139.83-21.3 366.118 242.88 606.407 179.21 97.751-25.9 120.466-131.03 223-140.85 85.85-8.22 127.13 85.88 219 85.88 144.5 0 215.91-62.16 336.49 0 110.41 56.93 232.42 78.38 294.19 54.97 61.78-23.4 171.15 1.19 239.64-76.92 54.79-62.49 29.51-166.8 41.66-149.73l-1.49-1031.71c-90.13 4.864-269.82 110.249-383.83 123.38-114.01 13.131-257.16-53.066-305.01-72.607-47.85-19.541-98.96-12.675-143.83-14.976-60.42-3.098-135.85-66.031-213.82-53.787-72.887 11.445-113.742 110.708-184 109-70.258-1.708-70.398-31.79-148.456-71.865-78.059-40.075-109.263-9.24-167.12-18.07-56.227-8.581-124.055-57.623-199.382-74.778-78.152-17.8-131.645 14.123-215.448 9.822Z" fill="url(#b)"/><path d="M-17.382 236.276c-57.322 13.41-98.483 11.297-154.13-7.912l-36.251 1023.186c48.832-8.98 166.563-6.68 246.833 74.35 100.337 101.29 203.143 157 295.43 158.11 203.41 2.44 237.968-153.68 409-180.51 111.306-17.46 158.654-18.48 257.5 0 152.37 28.49 218.31 180.51 353.5 180.51 119 0 209.5-94.01 328.5-94.01 142.29 0 187.18-147.72 278.17-147.54 84.15-23.49 198.34-28.9 212.7-69.05L2126.84 86.049c-40.9 35.992-144.63 113.873-234.58 115.31-121.84 1.946-202.17-152.896-328.25-177.803-126.08-24.906-245.58 102.706-360.62 110.537-92.03 6.264-138.32 94.22-232.56 76.055-70.774-13.642-105.916-90.026-154.508-97.963-71.666-11.705-87.021 6.416-189.007-26.029C531.868 55.791 496.507 1.781 364.121.086 160.72-2.518 131.403 201.466-17.382 236.276Z" fill="url(#c)"/><path d="M-17.382 236.276c-57.322 13.41-98.483 11.297-154.13-7.912l-36.251 1023.186c48.832-8.98 166.563-6.68 246.833 74.35 100.337 101.29 203.143 157 295.43 158.11 203.41 2.44 237.968-153.68 409-180.51 111.306-17.46 158.654-18.48 257.5 0 152.37 28.49 218.31 180.51 353.5 180.51 119 0 209.5-94.01 328.5-94.01 142.29 0 187.18-147.72 278.17-147.54 84.15-23.49 198.34-28.9 212.7-69.05L2126.84 86.049c-40.9 35.992-144.63 113.873-234.58 115.31-121.84 1.946-202.17-152.896-328.25-177.803-126.08-24.906-245.58 102.706-360.62 110.537-92.03 6.264-138.32 94.22-232.56 76.055-70.774-13.642-105.916-90.026-154.508-97.963-71.666-11.705-87.021 6.416-189.007-26.029C531.868 55.791 496.507 1.781 364.121.086 160.72-2.518 131.403 201.466-17.382 236.276Z" fill="url(#d)"/><defs><linearGradient id="a" x1="1947" y1="1372" x2="1074.69" y2="444.048" gradientUnits="userSpaceOnUse"><stop stop-color="#D15834"/><stop offset=".154" stop-color="#C5BAD2"/><stop offset=".885" stop-color="#C5BAD2" stop-opacity="0"/></linearGradient><linearGradient id="b" x1="-86.06" y1="57.627" x2="101.408" y2="398.481" gradientUnits="userSpaceOnUse"><stop stop-color="#D15834"/><stop offset=".508" stop-color="#C5BAD2"/><stop offset="1" stop-color="#C5BAD2" stop-opacity="0"/></linearGradient><linearGradient id="c" x1="327.501" y1="-41" x2="452.001" y2="1642" gradientUnits="userSpaceOnUse"><stop offset=".635" stop-color="#D9D9D9" stop-opacity="0"/><stop offset="1" stop-color="#C5C0DA"/></linearGradient><linearGradient id="d" x1="887" y1="-47.5" x2="946.5" y2="1204" gradientUnits="userSpaceOnUse"><stop stop-color="#C5C0DA"/><stop offset=".43" stop-color="#D9D9D9" stop-opacity="0"/></linearGradient></defs></svg>