<svg width="1920" height="318" fill="none" xmlns="http://www.w3.org/2000/svg"><path d="m.251 179.995-5.329 4.045-15.726-19.034 5.21-3.954 1.471 1.781-3.393 2.576 5.522 6.683 2.39-1.813 1.452 1.757-2.39 1.814 5.847 7.077 3.513-2.666 1.433 1.734Zm23.134-16.389-1.774 1.18-4.378-6.053c-2.127-2.941-4.107-5.728-6.21-8.686l8.415 16.184-1.673 1.113L4.929 154.1c2.152 2.925 4.182 5.679 6.31 8.621l4.377 6.052-1.748 1.163-14.471-20.005 2.548-1.694 13.479 14.184-9.133-17.075 2.623-1.745 14.471 20.005Zm8.356-10.147-9.138-14.133c-1.515-2.343-1.172-4.187 1.046-5.506 2.243-1.334 4.117-.81 5.632 1.533l9.138 14.133c1.515 2.343 1.172 4.187-1.071 5.521-2.218 1.319-4.092.795-5.607-1.548Zm4.719-2.807-9.139-14.133c-.684-1.058-1.49-1.311-2.418-.759-.902.537-1.024 1.342-.34 2.4l9.138 14.133c.7 1.083 1.523 1.362 2.425.825.928-.552 1.034-1.383.334-2.466Zm11.865-20.862-2.083-3.543c-.746-1.267-1.57-1.605-2.837-.919l-1.371.743 4.273 7.266 1.398-.757c1.161-.628 1.396-1.471.62-2.79Zm5.054 15.572-2.005 1.085-12.516-21.282 3.376-1.828c2.533-1.371 4.404-.851 5.986 1.839l2.053 3.491c1.582 2.689 1.09 4.455-1.442 5.827l-1.398.757 5.946 10.111Zm11.556-10.686-7.851-14.887c-1.302-2.467-.8-4.278 1.521-5.406 2.348-1.141 4.166-.457 5.468 2.011l7.85 14.886c1.302 2.468.8 4.279-1.548 5.419-2.32 1.128-4.138.445-5.44-2.023Zm4.938-2.4-7.851-14.886c-.588-1.115-1.368-1.436-2.339-.964-.944.459-1.136 1.252-.548 2.367l7.851 14.886c.602 1.141 1.395 1.489 2.34 1.03.971-.472 1.149-1.292.547-2.433Zm16.657-3.629-2.402 1.021-1.203-14.15-8.879-8.381 2.264-.962 8.154 8.168-4.481-9.728 2.098-.891 4.481 9.727-.808-11.287 2.236-.951.513 11.935 10.094 10.373-2.402 1.02-8.867-9.428 5.084 11.036-2.099.891-5.083-11.035 1.3 12.642Zm27.722-11.245-6.271 2.329-9.216-22.905 6.131-2.277.862 2.143-3.993 1.483 3.236 8.043 2.812-1.044.851 2.115-2.812 1.045 3.426 8.516 4.134-1.536.84 2.088Zm13.699-4.809-2.166.712-3.828-10.77-3.021.992 3.828 10.77-2.166.712-8.269-23.264 2.166-.712 3.687 10.374 3.021-.992-3.687-10.375 2.166-.711 8.269 23.264Zm9.769-7.346-4.808-16.129c-.797-2.674.044-4.368 2.531-5.055 2.516-.694 4.162.314 4.959 2.988l4.808 16.129c.797 2.673-.044 4.368-2.56 5.062-2.487.686-4.133-.322-4.93-2.995Zm5.292-1.461-4.808-16.129c-.36-1.207-1.06-1.667-2.101-1.38-1.013.28-1.353 1.027-.993 2.234l4.807 16.129c.369 1.236 1.078 1.725 2.09 1.446 1.041-.287 1.373-1.064 1.005-2.3Zm22.646-1.798-6.52 1.5-5.945-23.963 6.374-1.467.556 2.242-4.152.955 2.088 8.415 2.924-.673.548 2.213-2.923.673 2.21 8.91 4.298-.99.542 2.185ZM296.436 76.92l.431-4.087c.154-1.462-.311-2.2-1.745-2.334l-1.553-.146-.884 8.384 1.583.148c1.314.124 2.008-.444 2.168-1.965Zm-5.214 15.69-2.27-.214 2.59-24.554 3.823.36c2.867.27 4.07 1.738 3.742 4.841l-.424 4.028c-.328 3.103-1.78 4.292-4.648 4.022l-1.583-.149-1.23 11.666Zm25.396-22.03-7.33 20.163c-1.048 2.915-2.043 3.476-5.462 3.01l-.327-.044.342-2.255.327.045c1.605.219 2.532.103 3.145-1.54l1.178-3.17-1.415-17.508 2.378.324.602 12.857 4.332-12.185 2.23.303Zm11.724 26.841-2.243-.408 2.117-10.529c-.39.112-1.175.213-2.031.058-2.125-.387-3.146-2.005-2.596-4.74l2.005-9.971 2.243.408-1.928 9.588c-.325 1.618-.124 2.447 1.204 2.688.62.113 1.068.012 1.529-.148l2.324-11.56 2.243.409-4.867 24.205Zm17.451 3.521-2.222-.511 2.807-11.08-3.099-.712-2.807 11.08-2.222-.51 6.064-23.935 2.222.511-2.704 10.673 3.099.712 2.704-10.673 2.222.511-6.064 23.934Zm19.112 4.777-2.198-.604.677-4.106-3.558-.978-1.719 3.82-2.14-.588 10.411-22.736 2.575.707-4.048 24.485Zm-4.211-7.626 3.037.834c.732-4.184 1.392-8.233 2.187-12.524a734.795 734.795 0 0 1-5.224 11.69Zm14.04 10.385-2.376-.746c1.901-3.489 3.859-6.96 5.76-10.45-.968-.964-1.14-2.212-.534-3.97l1.604-4.652c1.056-3.063 2.792-3.775 5.54-2.913l3.578 1.123-8.048 23.342-2.175-.683 3.647-10.579-1.288-.404c-.2-.063-.343-.108-.419-.163l-5.289 10.095Zm6.658-19.126-1.516 4.396c-.489 1.418-.333 2.347 1.098 2.796l1.431.45 2.973-8.623-1.403-.44c-1.374-.43-2.075-.054-2.583 1.421Zm27.127 13.366 1.522-3.818c.544-1.365.292-2.19-1.062-2.683l-1.466-.532-3.121 7.831 1.494.543c1.241.45 2.066.08 2.633-1.341Zm-9.292 13.756-2.143-.778 9.141-22.936 3.61 1.312c2.706.983 3.476 2.698 2.32 5.596l-1.499 3.763c-1.155 2.898-2.885 3.673-5.591 2.69l-1.495-.543-4.343 10.896Zm21.071 7.86-2.124-.829 1.125-4.003-3.438-1.341-2.131 3.61-2.068-.807 12.869-21.468 2.487.971-6.72 23.867Zm-3.359-8.006 2.934 1.145c1.189-4.074 2.29-8.022 3.554-12.196-2.186 3.815-4.294 7.369-6.488 11.051Zm21.627-11.333 6.187 2.543-.948 2.107-4.079-1.677-3.561 7.905 1.499.616c2.664 1.095 3.315 2.789 2.034 5.634l-1.972 4.376c-1.281 2.845-3.056 3.574-5.72 2.479l-3.58-1.471 10.14-22.512Zm-2.933 20.676 2.02-4.486c.592-1.313.292-2.181-.901-2.672l-1.498-.615-3.782 8.397 1.47.605c1.221.501 2.087.112 2.691-1.229Zm9.935 4.626 7.128-15.246c1.182-2.527 2.966-3.298 5.339-2.286 2.4 1.025 2.989 2.808 1.808 5.336l-7.129 15.246c-1.181 2.527-2.965 3.298-5.365 2.274-2.373-1.013-2.963-2.797-1.781-5.324Zm5.049 2.155 7.129-15.246c.533-1.142.303-1.924-.69-2.348-.966-.412-1.729-.053-2.263 1.088l-7.128 15.246c-.546 1.168-.329 1.978.637 2.39.993.424 1.769.038 2.315-1.13Zm16.748 11.462-2.064-.895 9.598-20.217-2.533-1.098.991-2.086 7.129 3.089-.99 2.087-2.533-1.097-9.598 20.217Zm17.596 7.629-2.093-.905 1.278-3.955-3.386-1.466-2.269 3.526-2.038-.882 13.689-20.963 2.45 1.061-7.631 23.584Zm-3.054-8.116 2.891 1.251c1.344-4.025 2.597-7.926 4.02-12.047a743.225 743.225 0 0 1-6.911 10.796Zm129.693 53.59-2.218-.529 2.904-11.055-3.093-.737-2.904 11.055-2.218-.529 6.272-23.88 2.218.529-2.797 10.649 3.094.737 2.797-10.649 2.217.529-6.272 23.88Zm19.831 4.398-2.238-.438.345-4.15-3.621-.709-1.405 3.943-2.179-.426 8.543-23.482 2.62.513-2.065 24.749Zm-4.806-7.297 3.092.605c.393-4.233.725-8.325 1.173-12.669a736.407 736.407 0 0 1-4.265 12.064Zm22.891 6.521.816-5.064 2.049.297-.812 5.035c-.458 2.843-1.742 4.021-4.236 3.659-2.583-.375-3.669-1.927-3.225-4.682l2.673-16.586c.453-2.813 1.984-4.016 4.567-3.641 2.375.345 3.338 1.91 2.894 4.664l-.697 4.324-2.048-.297.692-4.295c.21-1.303-.051-1.947-1.209-2.115-1.069-.155-1.703.389-1.909 1.663l-2.673 16.586c-.205 1.273.225 2.002 1.293 2.158 1.099.159 1.615-.403 1.825-1.706Zm15.781 6.073-2.238-.231 2.57-22.232-2.745-.284.265-2.294 7.729.798-.265 2.295-2.746-.284-2.57 22.232Zm11.488-2.672 1.032-16.799c.171-2.784 1.546-4.123 4.122-3.984 2.607.139 3.808 1.616 3.637 4.401l-1.032 16.798c-.171 2.785-1.546 4.123-4.152 3.983-2.577-.138-3.778-1.615-3.607-4.399Zm5.482.294 1.032-16.799c.078-1.257-.423-1.915-1.501-1.973-1.049-.056-1.627.544-1.704 1.801l-1.032 16.799c-.079 1.287.419 1.975 1.468 2.031 1.078.058 1.658-.572 1.737-1.859Zm18.316 4.773-2.49-.002c.675-3.9 1.41-7.799 2.085-11.699-1.228-.631-1.793-1.771-1.786-3.631l.019-4.92c.012-3.24 1.427-4.439 4.307-4.437l3.75.003-.095 24.69-2.28-.002.043-11.19-1.35-.001c-.21 0-.36 0-.45-.03l-1.753 11.219Zm.138-20.25-.018 4.65c-.006 1.5.441 2.34 1.941 2.341l1.5.001.035-9.119-1.47-.002c-1.44-.001-1.982.569-1.988 2.129Zm31.628 22.79-1.797.112-.214-3.293-11.138.695-1.601-24.638 2.275-.142 1.454 22.363 2.455-.154-1.454-22.362 2.186-.137 1.454 22.363 2.425-.151-1.454-22.363 2.276-.142 1.453 22.363 1.318-.082.362 5.568Zm16.609-4.668-2.174.266-3.2-24.481 2.055-.252 2.224 17.015.754-17.38 2.65-.325 3.2 24.481-2.084.256-2.267-17.343-1.158 17.763Zm16.567-32.956 1.834-.31c.642 3.542-.464 4.672-3.097 5.117-3.046.514-4.188-.236-4.83-3.778l1.804-.305c.519 2.863 1.417 3.107 2.748 2.882 1.183-.199 2.06-.743 1.541-3.606Zm1.643 30.601-2.159.365-4.402-24.294 2.041-.345 3.059 16.885-.101-17.385 2.633-.445 4.402 24.295-2.071.35-3.118-17.21-.284 17.784Zm29.124-21.201-1.272-5.032c-.345-1.367-.871-1.737-1.952-1.483l-1.607.376 2.138 8.464 1.636-.383c1.052-.247 1.343-.808 1.057-1.942Zm2.813 10.77-1.345-5.322c-.345-1.367-.777-1.852-2.033-1.557l-1.635.383 2.3 9.104 1.606-.376c1.052-.247 1.423-.981 1.107-2.232Zm-.556 4.413-3.826.897-6.047-23.938 3.826-.897c2.57-.602 3.865.357 4.6 3.266l1.212 4.799c.375 1.484.106 2.502-.792 2.989.986-.015 1.98.491 2.421 2.237l1.44 5.701c.713 2.821-.264 4.344-2.834 4.946Zm20.398-5.101-2.52.679-7.568-10.54 3.397 11.665-2.201.594-6.903-23.706 2.202-.593 2.977 10.225 1.049-11.311 2.375-.641-1.374 12.02 8.566 11.608Zm10.448-28.714 2.504 21.152c.372 3.053-.273 3.97-3.574 4.974l-.316.096-.712-2.166.316-.096c1.55-.472 2.336-.961 2.146-2.691l-.371-3.335-9.206-15.132 2.296-.698 6.366 11.293-1.601-12.742 2.152-.655Zm19.341 15.63-1.745-4.825 1.963-.656 1.735 4.796c.98 2.708.415 4.32-1.975 5.119-2.475.828-4.197-.052-5.146-2.675l-5.715-15.798c-.97-2.68-.197-4.425 2.278-5.252 2.276-.761 3.894.184 4.843 2.808l1.49 4.119-1.963.656-1.48-4.09c-.449-1.242-.995-1.692-2.104-1.321-1.025.343-1.322 1.106-.883 2.319l5.715 15.798c.439 1.213 1.175 1.663 2.2 1.32 1.052-.352 1.236-1.077.787-2.318Zm32.717-7.41-1.994.747-2.809-6.922c-1.365-3.363-2.623-6.543-3.96-9.917l4.325 17.755-1.883.705-9.297-15.892c1.393 3.353 2.708 6.512 4.072 9.875l2.809 6.922-1.966.737-9.284-22.878 2.866-1.074 9.697 16.959-4.809-18.79 2.95-1.105 9.283 22.878Zm10.869-8.314-6.634-15.467c-1.1-2.564-.456-4.335 1.943-5.284 2.426-.961 4.182-.14 5.281 2.424l6.635 15.468c1.1 2.564.456 4.334-1.971 5.295-2.399.949-4.154.128-5.254-2.436Zm5.105-2.02-6.635-15.468c-.496-1.158-1.247-1.538-2.251-1.14-.976.386-1.23 1.164-.733 2.322l6.634 15.467c.509 1.186 1.271 1.593 2.247 1.207 1.004-.397 1.246-1.203.738-2.388Zm17.059-2.559-.361.147-.92-2.086.305-.124c.612-.249.996-.567.812-1.949-.163-1.261-.817-3.488-3.123-9.608l-3.814-10.135 5.752-2.34 9.963 22.59-2.112.859-9.031-20.476-1.917.78 3.099 8.289c2.718 7.279 3.114 9.514 3.191 10.357.212 2.115-.51 3.153-1.844 3.696Zm16.519-10.977-6.846-15.375c-1.135-2.549-.515-4.327 1.871-5.307 2.415-.992 4.181-.194 5.316 2.355l6.847 15.375c1.134 2.548.515 4.326-1.899 5.318-2.387.98-4.154.183-5.289-2.366Zm5.079-2.086-6.847-15.375c-.512-1.151-1.268-1.521-2.267-1.111-.971.399-1.214 1.18-.702 2.331l6.846 15.375c.525 1.178 1.293 1.576 2.264 1.177.999-.411 1.23-1.219.706-2.397Zm24.477-5.787-2.417.985-8.912-9.481 4.912 11.113-2.111.861-9.983-22.582 2.111-.861 4.306 9.741-.445-11.316 2.278-.929.216 12.057 10.045 10.412Zm16.121-6.506-2.117.846-2.147-3.598-3.426 1.369 1.143 3.999-2.061.824-6.664-23.915 2.48-.99 12.792 21.465Zm-8.274-3.41 2.925-1.169c-2.154-3.693-4.277-7.236-6.452-11.05a720.453 720.453 0 0 1 3.527 12.219Zm128.172-38.973-1.08-5.016 2.03-.405 1.07 4.986c.61 2.816-.17 4.348-2.64 4.84-2.56.512-4.14-.579-4.73-3.307l-3.52-16.425c-.6-2.787.4-4.424 2.96-4.935 2.35-.47 3.82.674 4.41 3.402l.92 4.282-2.03.406-.92-4.254c-.27-1.29-.75-1.806-1.9-1.577-1.06.211-1.46.933-1.18 2.194l3.52 16.426c.27 1.26.94 1.8 2 1.589 1.09-.217 1.37-.915 1.09-2.206Zm17.98-14.896-.87-5.118c-.23-1.39-.73-1.798-1.83-1.625l-1.63.257 1.46 8.608 1.66-.262c1.07-.168 1.4-.707 1.21-1.86Zm1.94 10.96-.91-5.413c-.24-1.39-.63-1.906-1.91-1.705l-1.65.262 1.56 9.259 1.63-.258c1.07-.168 1.5-.873 1.28-2.145Zm-.9 4.364-3.89.612-4.11-24.344 3.88-.613c2.61-.41 3.82.643 4.32 3.6l.83 4.882c.25 1.508-.1 2.505-1.03 2.925.98.058 1.93.637 2.23 2.412l.98 5.797c.49 2.87-.61 4.318-3.21 4.73Zm11.54-5.859-2.02-16.708c-.33-2.77.78-4.315 3.34-4.606 2.6-.295 4.05.96 4.38 3.729l2.02 16.708c.34 2.77-.77 4.316-3.37 4.61-2.56.291-4.01-.963-4.35-3.733Zm5.46-.62-2.02-16.708c-.15-1.25-.77-1.815-1.84-1.693-1.04.118-1.5.805-1.35 2.056l2.02 16.708c.15 1.28.77 1.875 1.81 1.756 1.08-.121 1.53-.838 1.38-2.118Zm18.16 2.022-2.48.168c.38-3.934.83-7.873 1.21-11.808-1.27-.546-1.92-1.644-2.05-3.5l-.35-4.907c-.23-3.232 1.09-4.524 3.97-4.719l3.74-.253 1.74 24.628-2.27.154-.79-11.162-1.35.091c-.21.014-.36.025-.45 0l-.92 11.308Zm-1.37-20.203.33 4.638c.11 1.496.62 2.304 2.11 2.203l1.5-.102-.64-9.097-1.47.1c-1.44.097-1.94.702-1.83 2.258Zm25.26 1.353-.02 10.29c0 1.41.63 2.069 1.95 2.216l.02-14.76c-1.32.123-1.95.874-1.95 2.254Zm4.08-2.258-.02 14.76c1.29-.152 1.92-.813 1.92-2.223l.02-10.29c0-1.38-.6-2.129-1.92-2.247Zm-6.07 12.401.01-9.99c0-2.91.81-4.351 3.87-4.597v-2.79l2.25-.004v2.79c3.06.235 3.87 1.673 3.87 4.583l-.01 9.99c-.01 2.88-.82 4.322-3.88 4.567v2.76l-2.25.004v-2.76c-3.06-.234-3.87-1.673-3.86-4.553Zm29.36 7.615-6.69-.29 1.24-24.658 6.53.282-.11 2.307-4.26-.184-.43 8.66 2.99.129-.11 2.277-3-.13-.46 9.169 4.41.19-.11 2.248Zm18.74-15.018.41-4.09c.14-1.462-.33-2.197-1.76-2.324l-1.56-.137-.83 8.389 1.58.14c1.32.116 2.01-.455 2.16-1.978Zm-5.12 15.72-2.27-.202 2.44-24.569 3.83.339c2.87.254 4.08 1.716 3.77 4.82l-.4 4.031c-.31 3.105-1.76 4.302-4.63 4.048l-1.58-.14-1.16 11.672Zm25.2 2.755-2.11-.31 1.2-7.373c.58-3.582 1.16-6.953 1.77-10.532l-5.55 17.527-1.99-.292.3-18.297a947.28 947.28 0 0 1-1.66 10.55l-1.2 7.373-2.07-.305 3.96-24.37 3.03.445-.52 19.418 5.69-18.66 3.11.456-3.96 24.37Zm20.03 3.432-2.24-.45.37-4.148-3.62-.73-1.42 3.935-2.18-.438 8.69-23.43 2.61.527-2.21 24.734Zm-4.76-7.324 3.08.623c.42-4.23.78-8.32 1.25-12.66-1.44 4.145-2.86 8.021-4.33 12.037Zm128.54 44.892 2.24-4.613 1.89.84-2.23 4.586c-1.26 2.59-2.84 3.366-5.14 2.343-2.39-1.06-2.99-2.836-1.77-5.345l7.35-15.108c1.25-2.563 3.07-3.295 5.46-2.236 2.19.974 2.67 2.729 1.45 5.238l-1.92 3.939-1.89-.84 1.9-3.912c.58-1.187.51-1.873-.55-2.347-.99-.439-1.76-.091-2.32 1.069l-7.35 15.107c-.57 1.16-.36 1.973.62 2.411 1.02.451 1.68.055 2.26-1.132Zm16.03 11.496-6.09-2.777 11.04-22.086 5.95 2.714-1.03 2.067-3.88-1.769-3.87 7.756 2.73 1.246-1.02 2.039-2.73-1.245-4.11 8.212 4.02 1.83-1.01 2.013Zm19.3 8.894-1.93-.898 3.39-6.656c1.65-3.235 3.23-6.27 4.91-9.492l-10.66 15.047-1.83-.848 5.85-17.286c-1.62 3.247-3.15 6.307-4.79 9.542l-3.39 6.656-1.91-.886 11.21-22 2.77 1.29-6.39 18.29 11.12-16.088 2.86 1.329-11.21 22Zm17.18 8.015-6.06-2.833 11.25-21.979 5.92 2.769-1.05 2.056-3.86-1.804-3.95 7.718 2.72 1.271-1.04 2.029-2.72-1.27-4.18 8.172 3.99 1.868-1.02 2.003Zm27.15-20.907 1.69.783c-1.63 3.209-3.22 3.495-5.64 2.37-2.81-1.302-3.28-2.548-1.65-5.757l1.66.771c-1.32 2.594-.74 3.296.49 3.864 1.09.506 2.13.563 3.45-2.031Zm-17.28 25.523-1.99-.922 11.19-22.007 1.88.872-7.78 15.295 10.5-14.031 2.42 1.124-11.19 22.007-1.9-.884 7.92-15.59-11.05 14.136Zm22.9 10.587-2.08-.945 5.11-10.228-2.89-1.318-5.11 10.227-2.07-.946 11.02-22.091 2.08.945-4.92 9.851 2.89 1.319 4.92-9.851 2.07.945-11.02 22.092Zm20.74 9.323-2.09-.919 10.72-22.241 2.09.919-10.72 22.241Zm-.26-27.075 2.08.918-4.77 9.891 1.49.653c2.63 1.16 3.24 2.869 1.89 5.679l-2.09 4.324c-1.35 2.81-3.15 3.495-5.78 2.335l-3.55-1.559 10.73-22.241Zm-3.47 20.586 2.14-4.432c.62-1.297.34-2.173-.84-2.692l-1.48-.653-4 8.296 1.46.641c1.21.532 2.08.164 2.72-1.16Zm32.75-14.12 1.72.718c-1.5 3.273-3.08 3.62-5.54 2.59-2.85-1.192-3.38-2.42-1.88-5.692l1.69.706c-1.21 2.645-.6 3.324.65 3.845 1.1.463 2.15.479 3.36-2.167Zm-16.23 26.2-2.02-.845 10.29-22.445 1.91.798-7.15 15.6 9.92-14.442 2.46 1.03-10.29 22.445-1.93-.81 7.28-15.9-10.47 14.569Zm33.76-12.777 6.25 2.392-.9 2.13-4.12-1.577-3.35 7.995 1.51.579c2.69 1.029 3.39 2.708 2.18 5.585l-1.86 4.426c-1.21 2.876-2.96 3.649-5.65 2.62l-3.62-1.384 9.56-22.766Zm-2.4 20.753 1.9-4.537c.56-1.327.24-2.189-.97-2.65l-1.51-.579-3.56 8.492 1.48.568c1.23.472 2.09.061 2.66-1.294Zm10.03 8.575-2.07-.733 8.97-23.004 1.95.693-6.23 15.988 9.06-14.984 2.51.893-8.96 23.005-1.98-.703 6.35-16.296-9.6 15.141Zm22.49 3.66 1.89-5.314c.45-1.243.37-1.929-.91-2.346l-1.11-.361.71-2.006 1.23.398c1.17.379 1.65-.159 2.08-1.374l1.71-4.805c.45-1.271.31-1.948-.86-2.327-1.14-.37-1.68.084-2.14 1.356l-1.46 4.097-2.14-.694 1.46-4.098c1.01-2.826 2.55-3.652 5.06-2.837 2.51.814 3.17 2.353 2.15 5.207l-1.78 5.003c-.53 1.497-1.35 2.019-2.62 2.082.97.597 1.41 1.497.81 3.193l-1.97 5.51c-.84 2.374-2.55 3.587-5.06 2.772-2.51-.814-3.13-2.748-2.28-5.122l1.63-4.578 2.2.712-1.63 4.579c-.41 1.13-.22 1.947.84 2.29 1.11.361 1.78-.179 2.19-1.337Zm15.96 9.118-2.19-.636 3.48-10.888-3.05-.887-3.48 10.888-2.19-.636 7.51-23.52 2.19.637-3.35 10.488 3.06.887 3.35-10.488 2.19.636-7.52 23.519Zm18.21 5.043-6.49-1.647 6.65-23.778 6.34 1.61-.62 2.225-4.13-1.049-2.34 8.35 2.91.739-.61 2.195-2.91-.738-2.47 8.841 4.27 1.085-.6 2.167Zm16.16-.125 1.18-4.992 2.02.435-1.17 4.963c-.67 2.802-2.04 3.888-4.5 3.359-2.55-.549-3.52-2.169-2.88-4.884l3.88-16.346c.66-2.773 2.27-3.868 4.82-3.319 2.35.504 3.2 2.128 2.55 4.843l-1.01 4.262-2.02-.435 1-4.233c.31-1.284.09-1.944-1.05-2.19-1.06-.227-1.73.273-2.03 1.528l-3.87 16.346c-.3 1.256.07 2.011 1.13 2.238 1.08.234 1.64-.291 1.95-1.575Zm132.21-11.836 6.65-.707.26 2.296-4.39.465.97 8.616 1.61-.171c2.87-.304 4.3.871 4.65 3.971l.54 4.77c.35 3.101-.81 4.581-3.68 4.886l-3.85.408-2.76-24.534Zm8.05 19.508-.55-4.889c-.16-1.431-.86-2.05-2.15-1.914l-1.61.171 1.03 9.152 1.59-.168c1.31-.14 1.86-.892 1.69-2.352Zm18.9 2.291-6.64.839-3.29-24.469 6.48-.82.31 2.29-4.22.534 1.15 8.592 2.98-.376.31 2.26-2.98.376 1.23 9.097 4.37-.552.3 2.229Zm12.21-5.605-.87-5.572c-.21-1.304-.6-1.883-1.94-1.688l-1.16.169-.32-2.104 1.27-.187c1.22-.178 1.38-.869 1.19-2.143l-.79-5.039c-.21-1.334-.66-1.875-1.88-1.697-1.18.174-1.45.818-1.24 2.152l.67 4.298-2.22.325-.68-4.297c-.46-2.964.5-4.378 3.12-4.76 2.61-.382 3.93.698 4.4 3.692l.82 5.246c.25 1.571-.23 2.399-1.32 3.013 1.14.106 1.96.713 2.24 2.492l.9 5.779c.39 2.49-.53 4.323-3.15 4.705-2.61.382-4.08-1.071-4.47-3.56l-.75-4.802 2.28-.334.76 4.802c.18 1.185.74 1.832 1.84 1.671 1.15-.169 1.49-.945 1.3-2.161Zm27.02-.396-2.24.411-4.33-21.957-3.13.573 4.33 21.958-2.24.411-4.78-24.224 7.62-1.396 4.77 24.224Zm11.75-6.17-3.85-16.383c-.64-2.716.29-4.364 2.82-4.914 2.55-.557 4.13.54 4.77 3.256l3.85 16.383c.64 2.716-.3 4.364-2.85 4.921-2.52.55-4.1-.547-4.74-3.263Zm5.36-1.171-3.85-16.383c-.29-1.227-.96-1.725-2.02-1.495-1.02.224-1.4.953-1.12 2.179l3.86 16.383c.29 1.256.97 1.784 2 1.56 1.05-.231 1.43-.988 1.13-2.244Zm17.62.095-.38.096-.6-2.197.32-.082c.64-.164 1.06-.427 1.08-1.825.02-1.275-.3-3.576-1.7-9.969l-2.3-10.588 6.02-1.54 6.57 23.798-2.21.566-5.96-21.572-2 .513 1.86 8.657c1.63 7.601 1.7 9.875 1.66 10.723-.1 2.13-.96 3.062-2.36 3.42Zm20.32-31.041 2.25 21.183c.34 3.058-.32 3.968-3.63 4.935l-.31.093-.69-2.175.32-.092c1.55-.454 2.34-.935 2.17-2.667l-.33-3.34-9.02-15.239 2.3-.672 6.23 11.367-1.44-12.763 2.15-.63Zm11.07 4.245 3.51 9.674c.48 1.325 1.3 1.745 2.6 1.467l-5.03-13.875c-1.21.532-1.55 1.437-1.08 2.734Zm3.1-3.411 5.03 13.875c1.18-.551 1.55-1.372 1.07-2.697l-3.51-9.673c-.47-1.298-1.3-1.812-2.59-1.505Zm-1.52 13.573-3.41-9.391c-.99-2.736-.71-4.347 2.11-5.545l-.95-2.623 2.13-.715.95 2.623c2.98-.747 4.24.349 5.24 3.085l3.4 9.391c.98 2.707.71 4.319-2.11 5.517l.94 2.594-2.13.715-.95-2.594c-2.98.747-4.24-.35-5.22-3.057Zm31.18-3.189-2.13.813-2.09-3.634-3.45 1.315 1.08 4.019-2.07.791-6.27-24.026 2.5-.952 12.43 21.674Zm-8.22-3.543 2.95-1.122c-2.09-3.728-4.16-7.306-6.27-11.155 1.19 4.202 2.24 8.165 3.32 12.277Zm8.41-23.012 6.15-2.632.97 2.096-4.05 1.735 3.65 7.864 1.49-.637c2.64-1.133 4.39-.443 5.7 2.387l2.02 4.354c1.31 2.83.67 4.574-1.98 5.707l-3.56 1.522-10.39-22.396Zm13.87 16.079-2.07-4.463c-.6-1.306-1.47-1.684-2.66-1.177l-1.49.638 3.88 8.354 1.46-.625c1.21-.52 1.5-1.393.88-2.727Z" fill="#fff" fill-opacity=".6"/></svg>