<svg width="610" height="1418" fill="none" xmlns="http://www.w3.org/2000/svg"><g clip-path="url(#a)"><path d="M-723.393 1160.91c-3.441 67.04 38.928 321.3 60.542 368.65H528.038c37.296-134.86-111.686-212.24-138.399-370.65-40.883-242.439 192.883-366.117 129.211-606.406-25.902-97.75-101.03-120.465-110.851-222.999-8.223-85.845 76-147.133 76-238.999 0-144.5-87.668-189.414-25.5-310 56.922-110.412 99.588-228.818 63.5-352.499-36.552-125.269-219.797-229.476-219.797-229.476l-961.714 1.485c4.865 90.135 110.25 269.821 123.381 383.829 13.131 114.009-53.066 257.163-72.607 305.011-19.541 47.848-12.676 98.963-14.976 143.83-3.099 60.416-66.031 135.846-53.787 213.819 11.445 72.887 110.708 113.742 109 184-1.708 70.258-31.79 70.397-71.865 148.456-40.076 78.058-9.24 109.263-18.07 167.12-8.582 56.226-57.623 124.054-74.779 199.381-17.799 78.148 14.124 131.648 9.822 215.448Z" fill="#C5C1DD"/><path d="M-723.393 1160.91c-3.441 67.04 38.928 321.3 60.542 368.65H528.038c37.296-134.86-111.686-212.24-138.399-370.65-40.883-242.439 192.883-366.117 129.211-606.406-25.902-97.75-101.03-120.465-110.851-222.999-8.223-85.845 76-147.133 76-238.999 0-144.5-87.668-189.414-25.5-310 56.922-110.412 99.588-228.818 63.5-352.499-36.552-125.269-219.797-229.476-219.797-229.476l-961.714 1.485c4.865 90.135 110.25 269.821 123.381 383.829 13.131 114.009-53.066 257.163-72.607 305.011-19.541 47.848-12.676 98.963-14.976 143.83-3.099 60.416-66.031 135.846-53.787 213.819 11.445 72.887 110.708 113.742 109 184-1.708 70.258-31.79 70.397-71.865 148.456-40.076 78.058-9.24 109.263-18.07 167.12-8.582 56.226-57.623 124.054-74.779 199.381-17.799 78.148 14.124 131.648 9.822 215.448Z" fill="url(#b)"/><path d="M-709.501 1413.5c13.411 57.32 150.074 80.37 130.864 136.01l953.19 36.26c-8.982-48.84-6.687-166.57 74.347-246.84 101.293-100.34 136.995-203.14 138.105-295.43 2.445-203.409-114.638-242.105-140.506-408.999-15.5-100.001-15.255-158.104 0-257.5 22.537-146.836 140.506-218.306 140.506-353.5 0-119-74.006-209.5-74.006-328.5 0-142.285-147.715-187.175-147.54-278.169-23.493-84.149-28.899-198.336-69.046-212.705l-1017.365 47.038c35.992 40.892 113.873 144.63 115.31 234.575 1.946 121.845-152.896 202.169-177.803 328.251-24.906 126.083 102.706 245.583 110.537 360.618 6.264 92.028 94.22 138.325 76.055 232.563-13.642 70.774-90.026 105.916-97.963 154.508-11.705 71.666 6.417 87.02-26.029 189.007-30.364 95.446-84.375 130.807-86.07 263.193-2.604 203.4 62.605 250.84 97.414 399.62Z" fill="url(#c)"/><path d="M-709.501 1413.5c13.411 57.32 150.074 80.37 130.864 136.01l953.19 36.26c-8.982-48.84-6.687-166.57 74.347-246.84 101.293-100.34 136.995-203.14 138.105-295.43 2.445-203.409-114.638-242.105-140.506-408.999-15.5-100.001-15.255-158.104 0-257.5 22.537-146.836 140.506-218.306 140.506-353.5 0-119-74.006-209.5-74.006-328.5 0-142.285-147.715-187.175-147.54-278.169-23.493-84.149-28.899-198.336-69.046-212.705l-1017.365 47.038c35.992 40.892 113.873 144.63 115.31 234.575 1.946 121.845-152.896 202.169-177.803 328.251-24.906 126.083 102.706 245.583 110.537 360.618 6.264 92.028 94.22 138.325 76.055 232.563-13.642 70.774-90.026 105.916-97.963 154.508-11.705 71.666 6.417 87.02-26.029 189.007-30.364 95.446-84.375 130.807-86.07 263.193-2.604 203.4 62.605 250.84 97.414 399.62Z" fill="url(#d)"/></g><defs><linearGradient id="b" x1="602.999" y1="-542.489" x2="-563.782" y2="232.493" gradientUnits="userSpaceOnUse"><stop stop-color="#D15834"/><stop offset=".143" stop-color="#C5BAD2"/><stop offset=".885" stop-color="#C5BAD2" stop-opacity="0"/></linearGradient><linearGradient id="c" x1="-848.001" y1="1050.5" x2="834.999" y2="926.001" gradientUnits="userSpaceOnUse"><stop offset=".635" stop-color="#D9D9D9" stop-opacity="0"/><stop offset="1" stop-color="#C5C0DA"/></linearGradient><linearGradient id="d" x1="-854.501" y1="491.001" x2="396.999" y2="431.501" gradientUnits="userSpaceOnUse"><stop stop-color="#C5C0DA"/><stop offset=".43" stop-color="#D9D9D9" stop-opacity="0"/></linearGradient><clipPath id="a"><path fill="#fff" transform="rotate(-90 709 709)" d="M0 0h1418v610H0z"/></clipPath></defs></svg>