<svg width="326" height="345" fill="none" xmlns="http://www.w3.org/2000/svg"><path fill-rule="evenodd" clip-rule="evenodd" d="M50 0C22.386 0 0 22.386 0 50v158.378h.648c.847 9.861 6.787 19.246 17.167 23.609 13.528 5.687 20.433 20.802 15.872 34.749-6.61 20.217 10.71 40.19 31.663 36.527 14.457-2.527 28.443 6.455 32.15 20.654 5.373 20.584 30.741 28.028 46.391 13.618 10.797-9.942 27.42-9.942 38.217 0 15.651 14.41 41.018 6.966 46.392-13.618 3.706-14.199 17.693-23.181 32.149-20.654 20.953 3.663 38.274-16.31 31.663-36.527-4.561-13.947 2.344-29.062 15.872-34.749 10.38-4.363 16.321-13.748 17.168-23.609H326V50c0-27.614-22.386-50-50-50H50Z" fill="#fff"/></svg>