<svg width="1920" height="1544" fill="none" xmlns="http://www.w3.org/2000/svg"><path d="M-9.732 136.882c-64.007-52-134.182-66.667-161.268-67.5C-149.748 553.138-526.017 1485.22-31 1406.9c135.023-21.36 208.273-195.6 344-211.9 189.773-22.79 219 164.4 433 164.4 92.913 0 143.622 72.43 233.128 47.5 103.162-28.73 95.012-275 186.272-201.25 91.26 73.75 126.26 153.75 302.53 153.75 121.27 0 153.77 132.97 452.55 66.25 103.01-23 169.69-198.57 175.52-230.65-87.09-375.422 154.53-581.359-54.5-830-107.53-127.904-216.46-224.815-362-228.118-113.56-2.576-216.55 47.501-284.06 62.501-67.5 15.001-181.08-26.2-285.94 12.498-66.72 24.624-71.62 90.004-155.375 95.004-83.759 5-109.857-167.709-221.274-186.253C637.072 104.691 547.5 205.881 446 190.381c-107.263-16.38-185.702 66.503-269.461 67.753-83.76 1.25-106.262-56.251-186.271-121.252Z" fill="url(#a)"/><path d="M67.165 109.847C2.588 151.902-121.186 189.117-175 202.467l35.469 971.433c-4.077 27.96-20.792 103.14 170.004 75.1 238.496-35.05 188.99 229.76 450.085 264.09 218.927 28.79 373.032-278.69 502.676-281.61 166.336-3.76 124.756 151.44 293.536 161.46 168.78 10.01 314.73 151.44 421.95 151.44 147.99 0 205.48-217.78 251.95-309.15 37.18-73.09 119.05-73.84 155.33-65.08V373.939c-80.31-10.848-358.86-56.073-427.35-150.194-85.62-117.652-216.48-171.472-293.54-167.717-77.05 3.755-110.07 63.832-160.22 82.607-50.14 18.774-168.98-27.613-267.34 7.509-71.612 25.57-40.361 81.355-163.889 105.136-123.529 23.781-74.441-139.873-161.444-131.42C439 138.635 420.271-.119 272-.119c-91.5 0-124.113 57.398-204.835 109.966Z" fill="url(#b)"/><defs><linearGradient id="a" x1="920.63" y1="69.381" x2="920.63" y2="1063.5" gradientUnits="userSpaceOnUse"><stop stop-color="#C5C1DD"/><stop offset="1" stop-color="#C5C1DD" stop-opacity="0"/></linearGradient><linearGradient id="b" x1="906" y1="-197" x2="906" y2="849.5" gradientUnits="userSpaceOnUse"><stop stop-color="#C5C0DA"/><stop offset="1" stop-color="#D9D9D9" stop-opacity="0"/></linearGradient></defs></svg>