<svg width="375" height="991" fill="none" xmlns="http://www.w3.org/2000/svg"><g clip-path="url(#a)"><path d="M-781.732 4.882c-64.007-52-134.182-66.667-161.268-67.5 21.252 483.757-355.02 1415.838 140 1337.518 135.023-21.36 208.273-195.6 344-211.9 189.773-22.79 219 164.4 433 164.4 92.913 0 143.622 72.43 233.128 47.5 103.164-28.73 95.01-275 186.27-201.25 91.261 73.75 126.265 153.75 302.534 153.75 121.264 0 153.767 132.97 452.548 66.25 103.01-23 169.69-198.57 175.52-230.65-87.09-375.422 154.53-581.359-54.5-830-107.53-127.904-216.46-224.815-362-228.118-113.556-2.576-216.55 47.501-284.057 62.501-67.508 15-181.082-56.2-285.943-17.502-66.723 24.624-71.616 90.004-155.375 95.004-83.76 5-109.857-137.709-221.274-156.253C-134.928-27.308-224.5 73.882-326 58.382c-107.263-16.38-185.702 66.502-269.461 67.752-83.76 1.25-106.262-56.25-186.271-121.252Z" fill="url(#b)"/><path d="M-704.835-22.153C-769.412 19.902-893.186 57.117-947 70.467l35.469 971.433c-4.077 27.96-20.792 103.14 170.004 75.1 238.496-35.05 188.99 229.76 450.085 264.09 218.927 28.79 373.032-278.69 502.676-281.61 166.336-3.76 124.752 151.44 293.534 161.46 168.781 10.01 314.736 151.44 421.954 151.44 147.988 0 205.478-217.78 251.948-309.15 37.18-73.09 119.05-73.84 155.33-65.08V241.939c-80.31-10.848-358.862-56.073-427.353-150.194C821.033-25.908 690.166-79.727 613.114-75.972 536.061-72.217 503.038-12.14 452.893 6.635c-50.145 18.774-168.98-27.613-267.343 7.51-71.612 25.57-40.361 81.354-163.89 105.135-123.528 23.781-74.44-139.873-161.443-131.42C-333 6.635-351.729-132.119-500-132.119c-91.5 0-124.113 57.398-204.835 109.966Z" fill="url(#c)"/></g><defs><linearGradient id="b" x1="148.63" y1="-62.619" x2="148.63" y2="931.5" gradientUnits="userSpaceOnUse"><stop stop-color="#C5C1DD"/><stop offset="1" stop-color="#C5C1DD" stop-opacity="0"/></linearGradient><linearGradient id="c" x1="134" y1="-329" x2="134" y2="717.5" gradientUnits="userSpaceOnUse"><stop stop-color="#C5C0DA"/><stop offset="1" stop-color="#D9D9D9" stop-opacity="0"/></linearGradient><clipPath id="a"><path fill="#fff" d="M0 0h375v991H0z"/></clipPath></defs></svg>