<svg width="326" height="345" fill="none" xmlns="http://www.w3.org/2000/svg"><path fill-rule="evenodd" clip-rule="evenodd" d="M0 50C0 22.386 22.386 0 50 0h226c27.614 0 50 22.386 50 50v241c0 29.823-24.177 54-54 54s-54-24.177-54-54v-1c0 30.376-24.624 55-55 55s-55-24.624-55-55v1c0 29.823-24.177 54-54 54S0 320.823 0 291V50Z" fill="#D9D9D9"/><path fill-rule="evenodd" clip-rule="evenodd" d="M0 50C0 22.386 22.386 0 50 0h226c27.614 0 50 22.386 50 50v241c0 29.823-24.177 54-54 54s-54-24.177-54-54v-1c0 30.376-24.624 55-55 55s-55-24.624-55-55v1c0 29.823-24.177 54-54 54S0 320.823 0 291V50Z" fill="#fff"/></svg>