<svg width="182" height="100" fill="none" xmlns="http://www.w3.org/2000/svg"><path d="M63.979 6.544c.371 1.845.925 5.297.329 11.628-.6 6.709-.636 14.98.305 16.827-.524.47-2.76 1.879-5.655 1.866-6.263-.027-6.087-7.872-3.356-13.816-3.533 5.043-6.072 10.514-6.173 11.884a.359.359 0 0 1-.19.094c-.667.517-3.045 1.688-5.607 1.771l-.428-.002c-7.07-.03-6.797-8.111-6.149-15.34.599-6.661.241-11.625-.7-13.473.524-.47 3.093-1.877 5.988-1.864 4.887.02 5.767 4.94 4.6 11.174-.193.85-.338 1.653-.437 2.409 3.82-5.466 5.4-8.437 5.983-11.649 1.761-1.315 5.472-3.52 11.49-1.51ZM76.158 26.68c-.19.047-.332.094-.522.093-.048.047-.095.047-.143.046a42.241 42.241 0 0 0 .127 3.499c1.706.763 3.795.205 4.041-1.732.051-.85-1.224-2.18-3.503-1.905Zm-.65-3.122c2.374-.51 4.043-2.203 4.193-3.904.05-.85-.511-2.555-2.176-1.616-1.142.703-1.77 3.111-2.017 5.52Zm-5.175-10.184c3.273.015 3.88 2.286 3.822 4.838 1.15-2.5 3.151-4.382 6.427-4.746 5.887-.683 8.2 2.163 8.185 5.377-.011 2.599-1.632 4.246-4.198 5.18 2.749.768 4.971 2.48 4.959 5.363-.025 5.624-4.923 8.013-11.707 7.652-1.376-.1-2.514-.341-3.46-.77a10.997 10.997 0 0 1-3.705.645c-6.5-.029-5.33-7.113-5.079-10.373.302-3.97.277-9.12-.9-11.347.525-.47 2.761-1.831 5.656-1.819Zm31.281 12.613c-1.9.228-3.23.695-3.946 1.543-.572.706-.246 2.078 1.51 2.086 1.328.006 1.998-1.078 2.288-2.4l.148-1.229Zm1.493 5.82c-1.534 3.586-4.246 5.228-7.33 5.214-2.99-.013-6.255-2.106-6.238-6.029.025-5.672 7.246-7.578 12.563-7.98.343-2.55-.125-4.113-2.355-4.122-2.515-.011-2.433 2.92-2.108 4.575-5.273 1.348-8.68-.7-7.047-5.324 1.297-3.634 7.519-4.836 11.409-4.583 7.068.41 10.851 3.592 10.213 8.222-.786 5.999-.476 11.199.7 13.425-.524.47-2.618 1.88-5.18 1.868-3.559-.015-4.403-2.429-4.627-5.266Zm15.87-18.237c5.552.024 5.531 4.845 5.231 8.246.19.048.332.049.522.05.806.098 1.565.196 2.277.246-.036-2.694-.357-5.248-1.062-6.669.523-.47 3.044-1.83 5.987-1.817 6.5.028 5.333 6.593 5.081 9.806-.302 4.016-.279 9.64.897 11.866-.524.47-3.092 1.878-5.987 1.865-6.216-.027-5.429-6.452-5.129-9.9-.19-.001-.379-.05-.569-.098l-2.324-.293c-.062 3.308.16 6.76 1.055 8.37-.524.47-3.092 1.877-5.987 1.865-6.501-.029-5.331-7.113-5.079-10.373.302-3.97.277-9.12-.9-11.347.524-.47 3.046-1.83 5.987-1.817ZM25.94 52.218c-2.338 2.778-7.666 5.12-11.074 3.968-2.09-.717-4.547-2.334-4.76-7.864-.21-6.004.52-10.35 3.512-11.237 2.284-.696 5.073 1.774 4.618 7.395 3.51 1.246 7.073-.681 7.088-4.315.019-4.068-5.558-8.393-12.209-7.95-9.348.577-13.076 7.6-13.117 16.063-.035 8.504 4.77 15.38 14.166 15.421 9.068.037 14.12-5.895 11.777-11.481Z" fill="#fff"/><path d="M36.1 56.266c-1.757-.011-2.082-1.377-1.508-2.089.715-.845 2.047-1.31 3.944-1.54l-.151 1.228c-.29 1.322-.957 2.403-2.286 2.401Zm13.034-7.835c.638-4.63-3.146-7.814-10.209-8.22-3.89-.256-10.111.945-11.408 4.579-1.638 4.625 1.77 6.673 7.046 5.323-.33-1.654-.41-4.585 2.104-4.575 2.234.01 2.702 1.571 2.353 4.125-5.313.4-12.537 2.309-12.559 7.98-.017 3.921 3.248 6.015 6.238 6.03 3.085.014 5.794-1.63 7.33-5.218.221 2.837 1.067 5.253 4.628 5.271 2.563.007 4.656-1.401 5.176-1.87-1.171-2.224-1.483-7.426-.699-13.425Zm11.74 8.747a41.812 41.812 0 0 1-.125-3.5c.047.002.093.004.137-.047.194.003.337-.043.528-.093 2.274-.27 3.553 1.06 3.502 1.906-.248 1.937-2.338 2.497-4.042 1.734Zm1.904-12.282c1.666-.935 2.228.764 2.176 1.617-.149 1.702-1.82 3.392-4.195 3.904.246-2.406.876-4.819 2.02-5.52Zm12.005 11.347c.009-2.88-2.215-4.592-4.959-5.362 2.565-.936 4.187-2.582 4.196-5.181.013-3.213-2.3-6.06-8.184-5.376-3.28.364-5.277 2.245-6.427 4.745.06-2.55-.553-4.82-3.826-4.837-2.891-.009-5.129 1.351-5.65 1.82 1.173 2.224 1.198 7.377.895 11.35-.25 3.255-1.42 10.343 5.079 10.373a11.033 11.033 0 0 0 3.704-.65c.95.431 2.085.67 3.46.775 6.784.359 11.686-2.032 11.712-7.657ZM86.65 45.02c1.234.003 2.408 2.563 1.215 4.071-.81.987-2.282 1.693-3.185 2.02-.124-4.162.883-6.094 1.97-6.092Zm11.357 7.805c-4.999 3.616-10.836 4.015-12.675 1.22 6.493.262 9.695-1.169 10.834-4.496 1.481-4.327-1.814-8.796-6.395-9.087a25.057 25.057 0 0 0-3.096-.025c-6.697.44-11.84 5.246-11.87 11.718-.028 6.947 4.975 11.837 11.95 11.865 5.982.03 11.217-3.212 11.252-11.194Zm24.297-11.627c-2.661.463-5.935.213-10.862-.376-3.273-.391-7.69-.32-9.167 2.136.816 7.987.363 13.562-5.115 18.643.278 1.37 2.505 2.375 5.067 2.388 8.544.036 10.156-11.019 9.237-18.062.429.002.855.052 1.282.1.318 2.509-.167 5.624-.7 8.503-.537 3.213-1.422 9.494 5.083 9.525 2.937.011 5.459-1.394 5.988-1.867-1.178-2.227-2.231-10.693-.813-20.99Zm26.416 9.239c.302-4.107.753-9.777-5.511-9.808-2.468-.008-4.182 1.072-6.078 1.817-.966 3.31-2.349 5.383-3.782 7.266 1.296-3.875 1.939-9.113-4.137-9.142-2.944-.012-5.464 1.347-6.032 1.819 1.172 2.225 1.245 7.374.942 11.347-.353 4.96.149 10.351 6.126 10.374 2.515.01 4.372-1.016 6.221-1.862.582-2.783 1.253-4.198 2.353-5.61-.725 3.35-.084 7.511 4.805 7.531 2.898.01 5.466-1.392 5.988-1.867-1.178-2.226-1.2-7.846-.895-11.865Zm24.771 10.676c-4.564-2.7-.544-6.73-.292-10.065.251-3.26 1.424-10.296-5.081-10.326-2.891-.01-5.464 1.346-5.985 1.82.609 1.18.94 2.174 1.071 4.158-.061 3.451-.97 5.436-2.251 5.43-.858-.006.062-2.977.16-5.104.111-2.366-.54-6.336-5.758-6.36-2.896-.016-5.129 1.352-5.656 1.818 1.178 2.227 1.407 4.263 1.105 8.23-.251 3.26 1.347 6.952 6.088 6.977 2.898.01 5.131-.876 6.75-2.576a22.643 22.643 0 0 0-.528 2.265c-.499 2.845-.094 4.802 1.355 5.877.292.224.632.41 1.014.55.76.3 1.698.448 2.819.45 2.896.017 5.13-1.39 5.652-1.865-.186-.357-.027-1.022-.463-1.28ZM16.245 11.973C14.964 9.718 13.11 8.026 11.5 6.036c-.897-1.106-2.12-3.32-.143-4.282.163-.08.37-.03.568-.017 3.683.25 5.386 3.582 5.96 6.766.313 1.742.365 3.529.287 5.305-.029.618-.352 1.76-.19 2.356a18.466 18.466 0 0 0-1.737-4.191Zm5.044 5.447c-1.709-4.383-1.5-9.343-3.666-13.56C16.6 1.867 14.81.46 12.561.12 4.088-1.173 1.547 8.337 4.476 14.496 8.972 23.94 21.172 27.069 29.368 26.59c-4.209-.71-6.69-5.63-8.079-9.171Z" fill="#fff"/><path d="M178.929 74.808c-5.289 4.489-13.42 4.706-17.097 3.803-3.678-.903-2.91-4.506-2.91-4.506.045.009 8.593 1.65 11.126-3.056 1.492-2.774-.937-5.746-4.553-7.242-.463-.192-.7-.322-.99-.53-1.448-1.075-1.878-3.052-1.378-5.897 4.367 1.183 7.76 2.446 10.376 3.733 11.181 5.499 8.078 11.445 5.426 13.695Zm-29.669 1.243c.038 1.124 3.794 2.756 7.127 1.51.895-.334.747-1.55.333-2.094-1.533-2.021-7.581-2.965-7.46.584Zm-2.455-1.237c-.187-.436-.608-.724-1.076-.81-3.658-.675-27.27-4.606-74.475-3.41-26.012.66-13.854 15.033-6.526 11.5 1.64-.79 3.523-2.387 4.65-2.959 2.65-1.345 5.078-1.714 8.753-2.444 4.677-.928 25.455-3.147 60.87-.402 7.523.584 8.167-.633 7.804-1.475Zm-63.576 8.539v6.094h-1.416V86.95h-2.78v2.498h-1.416v-6.094h1.417v2.403h2.779v-2.403h1.416Zm5.856 3.715-.97-2.333-.97 2.333h1.94Zm.446 1.071h-2.84l-.543 1.306h-1.45l2.727-6.094h1.398l2.736 6.094h-1.486l-.542-1.306Zm4.622 1.001c-.505-.27-.9-.645-1.189-1.124a3.083 3.083 0 0 1-.433-1.624 3.028 3.028 0 0 1 1.621-2.747 3.547 3.547 0 0 1 1.7-.404 3.6 3.6 0 0 1 1.439.278c.428.186.788.453 1.079.801l-.909.836c-.414-.476-.926-.714-1.538-.714-.38 0-.717.083-1.014.248a1.767 1.767 0 0 0-.695.692 2.027 2.027 0 0 0-.25 1.01c0 .378.084.715.25 1.01.166.296.398.527.695.693a2.05 2.05 0 0 0 1.014.248c.612 0 1.124-.241 1.538-.723l.909.836a2.836 2.836 0 0 1-1.084.81 3.613 3.613 0 0 1-1.442.278 3.53 3.53 0 0 1-1.691-.405Zm10.422-4.638h-1.958v4.945h-1.398v-4.945h-1.95v-1.149h5.306v1.15Zm5.347 3.618a1.78 1.78 0 0 0 .686-.692c.167-.296.249-.632.249-1.01a2.02 2.02 0 0 0-.249-1.01 1.78 1.78 0 0 0-.686-.692 1.949 1.949 0 0 0-.978-.248c-.362 0-.688.083-.98.248a1.79 1.79 0 0 0-.686.692 2.03 2.03 0 0 0-.249 1.01c0 .378.083.714.249 1.01.166.296.395.527.686.692.292.166.618.248.98.248.36 0 .687-.082.978-.248Zm-2.696 1.04a3.05 3.05 0 0 1-1.198-1.127 3.072 3.072 0 0 1-.432-1.615c0-.597.144-1.136.432-1.615a3.05 3.05 0 0 1 1.198-1.127 3.58 3.58 0 0 1 1.718-.41 3.55 3.55 0 0 1 1.712.41 3.09 3.09 0 0 1 1.198 1.127 3.05 3.05 0 0 1 .437 1.615 3.048 3.048 0 0 1-1.635 2.743 3.551 3.551 0 0 1-1.712.409 3.58 3.58 0 0 1-1.718-.41Zm7.979-4.374c-.212.185-.319.461-.319.827 0 .354.103.627.306.818.204.192.504.288.9.288h1.242v-2.212h-1.206c-.403 0-.71.093-.923.279Zm3.528-1.428v6.094h-1.399v-1.62h-1.294l-1.084 1.62h-1.494l1.276-1.837a2.004 2.004 0 0 1-.953-.761c-.222-.34-.332-.748-.332-1.224 0-.47.108-.875.323-1.214a2.1 2.1 0 0 1 .918-.784c.396-.183.862-.274 1.398-.274h2.641Zm11.061 4.926v2.412h-1.311v-1.263h-.953v-1.149h2.264Zm-.831-4.945v6.094h-8.076V83.34h1.407v4.945h1.932V83.34h1.407v4.945h1.923V83.34h1.407Zm7.236 4.977v1.131h-4.738v-6.094h4.624v1.132h-3.216v1.323h2.841v1.097h-2.841v1.41h3.33Zm6.512 0v1.131h-4.738v-6.094h4.624v1.132h-3.217v1.323h2.841v1.097h-2.841v1.41h3.331ZM81.328 99.872l-.009-3.647-1.8 3.003h-.63l-1.8-2.934v3.578h-1.33v-6.094h1.172l2.29 3.787 2.256-3.787h1.17l.01 6.094h-1.33Zm7.382-1.322c.29-.165.52-.396.685-.692.167-.296.25-.632.25-1.01a2.02 2.02 0 0 0-.25-1.01 1.784 1.784 0 0 0-.686-.692 1.949 1.949 0 0 0-.978-.248 1.95 1.95 0 0 0-.98.248c-.29.166-.52.396-.686.692a2.03 2.03 0 0 0-.249 1.01c0 .378.083.714.25 1.01.165.296.394.527.685.692.292.166.618.248.98.248.36 0 .687-.082.978-.248Zm-2.697 1.04a3.048 3.048 0 0 1-1.198-1.127 3.07 3.07 0 0 1-.432-1.614c0-.598.144-1.137.432-1.616a3.049 3.049 0 0 1 1.198-1.127 3.584 3.584 0 0 1 1.718-.41c.635 0 1.206.137 1.713.41a3.047 3.047 0 0 1 1.635 2.743 3.046 3.046 0 0 1-1.635 2.742 3.557 3.557 0 0 1-1.713.409 3.583 3.583 0 0 1-1.718-.41Zm10.377-2.821c.222-.183.332-.443.332-.78 0-.342-.11-.605-.332-.788-.221-.182-.545-.273-.97-.273h-1.154v2.115h1.153c.426 0 .75-.092.971-.274Zm.52-2.72c.4.179.707.434.922.765.216.33.324.723.324 1.176 0 .446-.109.837-.324 1.17-.215.334-.523.59-.922.767-.4.177-.87.265-1.412.265h-1.232v1.68H92.85v-6.094h2.648c.542 0 1.012.09 1.412.27Zm6.774 4.501c.291-.165.52-.396.686-.692.166-.296.249-.632.249-1.01a2.03 2.03 0 0 0-.249-1.01 1.787 1.787 0 0 0-.686-.692 1.952 1.952 0 0 0-.979-.248 1.95 1.95 0 0 0-.979.248 1.79 1.79 0 0 0-.686.692 2.03 2.03 0 0 0-.249 1.01c0 .378.083.714.249 1.01.166.296.395.527.686.692.291.166.618.248.979.248s.687-.082.979-.248Zm-2.697 1.04a3.05 3.05 0 0 1-1.197-1.127 3.07 3.07 0 0 1-.433-1.614c0-.598.144-1.137.433-1.616a3.05 3.05 0 0 1 1.197-1.127 3.586 3.586 0 0 1 1.718-.41c.635 0 1.206.137 1.713.41a3.09 3.09 0 0 1 1.198 1.127 3.05 3.05 0 0 1 .437 1.615c0 .598-.146 1.136-.437 1.615a3.09 3.09 0 0 1-1.198 1.128 3.557 3.557 0 0 1-1.713.409 3.585 3.585 0 0 1-1.718-.41Zm12.187-2.172h-.892v2.455h-1.389v-2.455h-.909l-1.373 2.455h-1.634l1.835-3.186-1.721-2.908h1.494l1.372 2.464h.936v-2.464h1.389v2.464h.909l1.382-2.464h1.494l-1.713 2.908 1.827 3.186h-1.634l-1.373-2.455Zm9.084 1.322v1.132h-4.738v-6.094h4.624v1.132h-3.217v1.323h2.841v1.097h-2.841v1.41h3.331Zm7.385-4.961v6.094h-1.416v-2.498h-2.779v2.498h-1.417V93.78h1.417v2.403h2.779V93.78h1.416Zm6.115 4.771a1.78 1.78 0 0 0 .686-.692c.166-.296.249-.632.249-1.01a2.03 2.03 0 0 0-.249-1.01 1.78 1.78 0 0 0-.686-.692 1.95 1.95 0 0 0-.979-.248c-.361 0-.687.083-.979.248a1.79 1.79 0 0 0-.686.692 2.03 2.03 0 0 0-.249 1.01c0 .378.083.714.249 1.01.166.296.395.527.686.692.292.166.618.248.979.248s.688-.082.979-.248Zm-2.697 1.04a3.047 3.047 0 0 1-1.197-1.127 3.072 3.072 0 0 1-.432-1.614c0-.598.144-1.137.432-1.616a3.047 3.047 0 0 1 1.197-1.127 3.586 3.586 0 0 1 1.718-.41 3.55 3.55 0 0 1 1.713.41 3.09 3.09 0 0 1 1.198 1.127 3.05 3.05 0 0 1 .437 1.615c0 .598-.146 1.136-.437 1.615a3.09 3.09 0 0 1-1.198 1.128c-.506.273-1.077.409-1.713.409a3.585 3.585 0 0 1-1.718-.41Zm11.507-.85v1.132h-4.738v-6.094h4.624v1.132h-3.216v1.323h2.841v1.097h-2.841v1.41h3.33Z" fill="#fff"/></svg>