<svg width="1281" height="1020" fill="none" xmlns="http://www.w3.org/2000/svg"><path fill-rule="evenodd" clip-rule="evenodd" d="M1055.38 830.792c33.61-54.782 205.84-49.851 222.57-139.054 28.11-149.952-200.6-157.271-280.274-247.684-75.299-85.444-37.36-317.319-133.138-390.302-102.161-77.847-255.724-46.055-421.549-28.32C279.358 42.932-1.006-94.524.162 134.533c1.167 229.056 233.815 227.349 299.723 320.273 56.035 79.005-52.063 204.396-35.277 278.356 35.137 154.821 237.267 25.965 363.532 102.742 128.384 78.066 161.999 198.246 291.668 181.566 97.742-12.58 99.582-127.998 135.572-186.678Z" fill="#C14824"/></svg>