<svg width="1920" height="1200" fill="none" xmlns="http://www.w3.org/2000/svg"><path d="M1918.09 978.093c70.9 3.639 461.11 57.167 511.13 35.687L2242.38-417.68c-142.73-37.7-229.24 154.411-391.42 177.332-147.8 20.888-387.86-243.998-641.77-181.025-103.28 25.617-126.99 130.694-235.388 140.215-90.752 7.97-134.689-86.273-231.832-86.544-152.8-.426-228.124 61.541-355.819-.992-116.921-57.256-245.996-79.069-311.252-55.842-65.256 23.227-180.976-1.693-253.172 76.229-57.758 62.337-30.71 166.737-43.608 149.623l3.106 1054.559c52.971-2.556 163.452 217.215 267.611 188.935 83.232-22.6 128.164-117.59 230.786-129.036 73.875-8.241 86.228 16.242 231.926 58.694 70.909 20.661 96.289-8.743 155.267.433 89.923 13.992 140.712 81.409 223.129 69.399 77.039-11.24 110.926-88.193 194.306-88.474 64.67-.218 68.25 23.674 157.13 52.314 87.54 28.2 115.57 9.56 176.77 18.56 59.49 8.75 123.14 43.32 211.06 45.38 93.38 2.19 200.25-98.537 288.88-93.987Z" fill="#C5C1DD"/><path d="M1918.09 978.093c70.9 3.639 461.11 57.167 511.13 35.687L2242.38-417.68c-142.73-37.7-229.24 154.411-391.42 177.332-147.8 20.888-387.86-243.998-641.77-181.025-103.28 25.617-126.99 130.694-235.388 140.215-90.752 7.97-134.689-86.273-231.832-86.544-152.8-.426-228.124 61.541-355.819-.992-116.921-57.256-245.996-79.069-311.252-55.842-65.256 23.227-180.976-1.693-253.172 76.229-57.758 62.337-30.71 166.737-43.608 149.623l3.106 1054.559c52.971-2.556 163.452 217.215 267.611 188.935 83.232-22.6 128.164-117.59 230.786-129.036 73.875-8.241 86.228 16.242 231.926 58.694 70.909 20.661 96.289-8.743 155.267.433 89.923 13.992 140.712 81.409 223.129 69.399 77.039-11.24 110.926-88.193 194.306-88.474 64.67-.218 68.25 23.674 157.13 52.314 87.54 28.2 115.57 9.56 176.77 18.56 59.49 8.75 123.14 43.32 211.06 45.38 93.38 2.19 200.25-98.537 288.88-93.987Z" fill="url(#a)"/><path d="M2061.37-337.123c58.87 13.331 101.16 11.161 158.36-8.129l35.43 1263.232c-50.16-8.914-141.79-29.134-245.66 22.02-166.5 82-121.51 166.45-213.5 205.5-186.94 79.37-344.85-162.756-508.78-78.24-143.93 74.2-164.28-67.282-273.69-67.13-158.238.21-233.208 133.33-372.098 133.51-122.255.17-144.182-113.81-315.793-82.57-143.757 26.17-100.139-50.94-203.139-50.94-121.574 0-99.625 187.86-215 160.87-374-87.5-48.771-1645.35-48.771-1645.35 41.96 35.937 148.426 113.678 240.829 114.989 125.174 1.775 207.912-153.191 337.477-178.277C566.6-572.723 689.19-445.269 807.359-437.599c94.536 6.135 141.975 94.032 238.811 75.734 72.73-13.743 108.94-90.182 158.88-98.187 73.64-11.806 89.39 6.295 194.21-26.296 98.1-30.501 134.5-84.565 270.51-86.446 208.97-2.89 238.8 201.068 391.6 235.671Z" fill="url(#b)"/><path d="M2061.37-337.123c58.87 13.331 101.16 11.161 158.36-8.129l35.43 1263.232c-50.16-8.914-141.79-29.134-245.66 22.02-166.5 82-121.51 166.45-213.5 205.5-186.94 79.37-344.85-162.756-508.78-78.24-143.93 74.2-164.28-67.282-273.69-67.13-158.238.21-233.208 133.33-372.098 133.51-122.255.17-144.182-113.81-315.793-82.57-143.757 26.17-100.139-50.94-203.139-50.94-121.574 0-99.625 187.86-215 160.87-374-87.5-48.771-1645.35-48.771-1645.35 41.96 35.937 148.426 113.678 240.829 114.989 125.174 1.775 207.912-153.191 337.477-178.277C566.6-572.723 689.19-445.269 807.359-437.599c94.536 6.135 141.975 94.032 238.811 75.734 72.73-13.743 108.94-90.182 158.88-98.187 73.64-11.806 89.39 6.295 194.21-26.296 98.1-30.501 134.5-84.565 270.51-86.446 208.97-2.89 238.8 201.068 391.6 235.671Z" fill="url(#c)"/><defs><linearGradient id="a" x1="53.409" y1="-492.058" x2="123.514" y2="-225.272" gradientUnits="userSpaceOnUse"><stop stop-color="#D15834"/><stop offset=".115" stop-color="#D05F3F"/><stop offset=".442" stop-color="#C5BAD2"/><stop offset="1" stop-color="#C5BAD2" stop-opacity="0"/></linearGradient><linearGradient id="b" x1="1115.93" y1="-229.099" x2="1054.38" y2="1405.41" gradientUnits="userSpaceOnUse"><stop offset=".667" stop-color="#D9D9D9" stop-opacity="0"/><stop offset="1" stop-color="#C5C0DA"/></linearGradient><linearGradient id="c" x1="830.558" y1="-761.246" x2="1061.13" y2="633.455" gradientUnits="userSpaceOnUse"><stop stop-color="#C5C0DA"/><stop offset=".509" stop-color="#D9D9D9" stop-opacity="0"/></linearGradient></defs></svg>