<svg width="1920" height="1545" fill="none" xmlns="http://www.w3.org/2000/svg"><path d="M71.277 137.001C7.27 85.001-62.905 70.333-89.991 69.5c21.252 483.757-355.017 1415.84 140 1337.52 135.023-21.36 208.273-195.6 344-211.9 189.773-22.79 219 164.4 433 164.4 92.913 0 143.622 72.43 233.131 47.5 103.16-28.73 95.01-275 186.27-201.25s126.26 153.75 302.53 153.75c121.26 0 153.77 132.96 452.55 66.25 103.01-23 169.68-198.57 175.52-230.65-87.09-375.424 154.53-581.36-54.5-830.001-107.53-127.904-216.46-224.816-362-228.118-113.56-2.577-216.55 47.501-284.06 62.501-67.51 15-181.08-26.2-285.94 12.498-66.72 24.623-71.62 90.003-155.38 95.004-83.755 5-109.853-167.709-221.271-186.253C718.081 104.81 628.509 206 527.009 190.5c-107.263-16.38-185.702 66.503-269.462 67.753-83.759 1.25-106.261-56.251-186.27-121.252Z" fill="url(#a)"/><path d="M148.173 109.966c-64.577 42.054-188.35 79.269-242.165 92.62l35.468 971.434c-4.076 27.95-20.791 103.14 170.005 75.1 238.496-35.05 188.99 229.76 450.085 264.09 218.927 28.79 373.032-278.69 502.674-281.61 166.34-3.76 124.75 151.44 293.54 161.45 168.78 10.02 314.73 151.45 421.95 151.45 147.99 0 205.47-217.78 251.95-309.15 37.18-73.09 119.04-73.84 155.33-65.08V374.057c-80.32-10.847-358.86-56.072-427.36-150.194-85.61-117.652-216.48-171.471-293.53-167.716-77.05 3.754-110.07 63.832-160.22 82.606-50.14 18.774-168.98-27.612-267.34 7.51-71.614 25.57-40.363 81.355-163.892 105.136-123.528 23.78-74.44-139.874-161.443-131.42C520.008 138.753 501.279 0 353.008 0c-91.5 0-124.113 57.398-204.835 109.966Z" fill="url(#b)"/><defs><linearGradient id="a" x1="1002" y1="-155" x2="1001.64" y2="1063.62" gradientUnits="userSpaceOnUse"><stop stop-color="#C5C1DD"/><stop offset=".827" stop-color="#C5C1DD" stop-opacity="0"/></linearGradient><linearGradient id="b" x1="987.008" y1="-196.881" x2="987.008" y2="849.619" gradientUnits="userSpaceOnUse"><stop offset=".095" stop-color="#C5C0DA"/><stop offset=".69" stop-color="#D9D9D9" stop-opacity="0"/></linearGradient></defs></svg>