<svg width="375" height="1029" fill="none" xmlns="http://www.w3.org/2000/svg"><g clip-path="url(#a)"><path d="M-781.731 7.953c-64.007-53.166-134.182-68.162-161.268-69.014 21.252 494.6-355.021 1447.571 140 1367.501 135.023-21.84 208.273-199.99 344-216.65 189.773-23.31 219 168.09 433 168.09 92.913 0 143.622 74.05 233.128 48.56 103.164-29.38 95.01-281.17 186.27-205.76 91.261 75.4 126.265 157.2 302.534 157.2 121.264 0 153.767 135.94 452.547 67.73 103.01-23.51 169.69-203.02 175.52-235.82-87.09-383.84 154.53-594.392-54.5-848.606-107.53-130.771-216.46-229.855-361.999-233.23-113.556-2.635-216.55 48.565-284.057 63.901-67.508 15.336-181.082-57.46-285.943-17.894-66.723 25.175-71.616 92.021-155.375 97.133C98.366 156.206 72.269 10.298-39.148-8.661-134.927-24.96-224.5 78.499-326 62.65c-107.263-16.747-185.702 67.994-269.461 69.272-83.76 1.278-106.262-57.512-186.271-123.97Z" fill="url(#b)"/><path d="M-704.835-11.461C-769.412 34.637-893.186 75.429-947 90.064l35.469 1064.836c-4.077 30.64-20.792 113.05 170.004 82.32 238.496-38.42 188.99 251.85 450.085 289.48 218.927 31.56 373.032-305.48 502.676-308.69 166.336-4.12 124.752 166.01 293.534 176.98C673.549 1405.97 819.504 1561 926.722 1561c147.988 0 205.478-238.72 251.948-338.87 37.18-80.13 119.05-80.95 155.33-71.35V278.022c-80.31-11.89-358.862-61.464-427.353-164.635C821.033-15.577 690.166-74.571 613.114-70.455 536.061-66.34 503.038-.485 452.893 20.094c-50.145 20.58-168.98-30.267-267.343 8.232-71.612 28.028-40.361 89.177-163.89 115.244C-101.867 169.637-52.78-9.752-139.782-.485-333 20.094-351.729-132-500-132c-91.5 0-124.113 62.917-204.835 120.539Z" fill="url(#c)"/></g><defs><linearGradient id="b" x1="148.63" y1="-61.061" x2="132" y2="533.5" gradientUnits="userSpaceOnUse"><stop stop-color="#C5C1DD"/><stop offset="1" stop-color="#C5C1DD" stop-opacity="0"/></linearGradient><linearGradient id="c" x1="134" y1="-347.811" x2="156.5" y2="260.5" gradientUnits="userSpaceOnUse"><stop stop-color="#C5C0DA"/><stop offset="1" stop-color="#D9D9D9" stop-opacity="0"/></linearGradient><clipPath id="a"><path fill="#fff" d="M0 0h375v1029H0z"/></clipPath></defs></svg>