<svg width="24" height="25" fill="none" xmlns="http://www.w3.org/2000/svg"><path d="M16.708 9.25a.881.881 0 0 1-.875-.875V4.292c0-1.26-.781-2.042-2.041-2.042h-3.5c-1.26 0-2.042.782-2.042 2.042v4.083a.881.881 0 0 1-.875.875.881.881 0 0 1-.875-.875V4.292C6.5 2.064 8.063.5 10.292.5h3.5c2.228 0 3.791 1.564 3.791 3.792v4.083a.881.881 0 0 1-.875.875Z" fill="#fff"/><path d="M7.333 19.244a.874.874 0 1 1 0-1.75h13.72a.59.59 0 0 0 .584-.654l-.794-6.222C20.563 8.355 20.167 6.5 16.2 6.5H7.8c-3.967 0-4.363 1.855-4.632 4.118l-1.05 8.334c-.338 2.87.549 5.215 4.644 5.215h10.476c3.687 0 4.772-1.902 4.714-4.375a.57.57 0 0 0-.584-.549H7.333Z" fill="#fff"/></svg>