<svg width="230" height="60" viewBox="0 0 230 60" fill="none" xmlns="http://www.w3.org/2000/svg">
<path d="M74.3443 21.5557L73.5305 18.8461C76.3067 17.6102 79.4414 16.9922 82.9344 16.9922C85.1958 16.9922 86.9285 17.323 88.1325 17.9845C89.3404 18.6461 90.2909 19.7315 90.9839 21.2407C92.1285 19.7948 93.3721 18.7253 94.7146 18.032C96.0532 17.3388 97.6275 16.9922 99.4374 16.9922C102.875 16.9922 105.475 17.836 107.237 19.5235C109 21.211 109.881 23.4571 109.881 26.2618C109.881 27.5571 109.76 28.6108 109.519 29.4229H91.6612C91.8433 32.1364 92.673 34.1785 94.1503 35.5492C95.6235 36.9237 97.5978 37.611 100.073 37.611C101.851 37.611 103.275 37.512 104.344 37.3139C105.414 37.1198 106.596 36.7059 107.891 36.0721L108.883 38.8767C106.534 39.9621 103.507 40.5048 99.7998 40.5048C97.6612 40.5048 95.9047 40.1582 94.5305 39.4649C93.1602 38.7717 91.873 37.7002 90.6691 36.2503C88.9503 37.819 87.2394 38.9203 85.5364 39.5541C83.8334 40.1879 81.9127 40.5048 79.774 40.5048C77.2394 40.5048 75.3245 39.9086 74.0295 38.7163C72.7344 37.5278 72.0869 35.8779 72.0869 33.7665C72.0869 31.7463 72.7344 30.0132 74.0295 28.5673C77.8869 27.2402 82.7542 26.5767 88.6315 26.5767V25.3526C88.6315 23.4551 88.2334 22.0607 87.4374 21.1694C86.6374 20.2821 85.077 19.8384 82.7562 19.8384C79.8929 19.8384 77.0889 20.4108 74.3443 21.5557ZM88.6315 34.3548V28.9297C84.2037 28.9297 80.2117 29.411 76.6552 30.3736C75.8711 31.2491 75.479 32.289 75.479 33.4932C75.479 36.2384 77.1661 37.611 80.5404 37.611C82.1364 37.611 83.5305 37.3694 84.7226 36.8861C85.9146 36.4028 87.2176 35.5591 88.6315 34.3548ZM91.5721 26.8441H106.762C106.703 24.3128 106.085 22.4965 104.909 21.3952C103.732 20.2979 101.833 19.7493 99.2117 19.7493C97.1008 19.7493 95.3523 20.3514 93.9661 21.5557C92.58 22.7639 91.782 24.5267 91.5721 26.8441Z" fill="#CDDFEF"/>
<path d="M130.812 18.2994L129.683 21.0149C127.636 20.1712 125.39 19.7493 122.947 19.7493C118.788 19.7493 116.709 20.8644 116.709 23.0947C116.709 24.2395 117.222 25.0615 118.248 25.5606C119.269 26.0558 120.927 26.4539 123.22 26.7549C129.097 27.5393 132.036 29.9062 132.036 33.8557C132.036 36.0859 131.109 37.7517 129.255 38.8529C127.402 39.9542 124.786 40.5048 121.408 40.5048C118.244 40.5048 115.608 40.0512 113.501 39.1441L114.356 36.2503C116.527 37.1852 118.818 37.6526 121.23 37.6526C126.354 37.6526 128.917 36.3711 128.917 33.8081C128.917 32.5722 128.396 31.6452 127.354 31.0273C126.317 30.4093 124.576 29.9656 122.133 29.6962C116.406 29.0624 113.543 26.9213 113.543 23.2729C113.543 21.4032 114.349 19.8879 115.96 18.7273C117.576 17.5705 119.921 16.9922 122.994 16.9922C125.948 16.9922 128.554 17.4279 130.812 18.2994Z" fill="#CDDFEF"/>
<path d="M137.958 20.3383L134.293 19.8392V18.526L137.097 16.8088L140.216 11.8828L141.214 12.0135V17.4446H150.481L150.344 20.3383L141.214 20.0175V32.365C141.214 35.8629 142.796 37.6118 145.96 37.6118C147.766 37.6118 149.438 37.1444 150.974 36.2095L152.198 38.7883C150.36 39.9332 148.16 40.5056 145.598 40.5056C140.505 40.5056 137.958 37.8079 137.958 32.4125V20.3383Z" fill="#CDDFEF"/>
<path d="M175.839 29.4705H156.853C157.004 32.184 157.96 34.2261 159.722 35.5967C161.485 36.9673 163.677 37.6526 166.299 37.6526C169.435 37.6526 172.057 37.0961 174.164 35.9829L175.114 38.8292C172.675 39.9463 169.677 40.5048 166.12 40.5048C162.112 40.5048 159.015 39.457 156.829 37.3615C154.643 35.2659 153.55 32.4098 153.55 28.7931C153.55 25.2952 154.71 22.4529 157.031 20.2662C159.352 18.0835 162.275 16.9922 165.8 16.9922C169.237 16.9922 171.829 17.836 173.576 19.5235C175.326 21.211 176.202 23.4571 176.202 26.2618C176.202 27.4343 176.081 28.5039 175.839 29.4705ZM156.895 26.7134H173.083C173.083 24.2415 172.471 22.4688 171.247 21.3952C170.027 20.3257 168.093 19.7909 165.443 19.7909C163.273 19.7909 161.366 20.4029 159.722 21.627C158.079 22.8471 157.136 24.5425 156.895 26.7134Z" fill="#CDDFEF"/>
<path d="M182.35 20.3383L178.685 19.8392V18.526L181.489 16.8088L184.608 11.8828L185.606 12.0135V17.4446H194.873L194.736 20.3383L185.606 20.0175V32.365C185.606 35.8629 187.188 37.6118 190.352 37.6118C192.158 37.6118 193.829 37.1444 195.366 36.2095L196.59 38.7883C194.752 39.9332 192.552 40.5056 189.99 40.5056C184.897 40.5056 182.35 37.8079 182.35 32.4125V20.3383Z" fill="#CDDFEF"/>
<path d="M200.209 40.054V17.4445H203.464V40.054H200.209ZM199.959 8.55525C200.426 8.06008 201.052 7.8125 201.836 7.8125C202.616 7.8125 203.24 8.06008 203.708 8.55525C204.175 9.05438 204.409 9.66443 204.409 10.3854C204.409 11.0786 204.169 11.6827 203.69 12.1977C203.207 12.7087 202.589 12.9642 201.836 12.9642C201.08 12.9642 200.462 12.7087 199.983 12.1977C199.5 11.6827 199.258 11.0786 199.258 10.3854C199.258 9.66443 199.492 9.05438 199.959 8.55525Z" fill="#CDDFEF"/>
<path d="M209.338 40.053V7.03906H212.593V27.6163L217.066 24.5859L225.116 17.4436H229.227L229.274 17.8001L219.419 26.3031L229.999 39.6905L229.904 40.053H226.155L216.841 28.1154L212.593 30.5992V40.053H209.338Z" fill="#CDDFEF"/>
<path opacity="0.8" d="M12.6776 0C5.65457 0 0 5.65594 0 12.6807V47.3193C0 54.3441 5.65457 60 12.6776 60H47.3079C54.3309 60 59.9855 54.3441 59.9855 47.3193V12.6807C59.9855 5.65594 54.3309 0 47.3079 0H12.6776ZM29.9927 12.5C39.6702 12.5 47.4885 20.3202 47.4885 30C47.4885 39.6797 39.6702 47.5 29.9927 47.5C20.3153 47.5 12.497 39.6797 12.497 30C12.497 20.3202 20.3153 12.5 29.9927 12.5Z" fill="#358CA8"/>
<path d="M56.9354 29.4105C56.9354 44.2953 44.8718 56.3597 29.9927 56.3597C15.1137 56.3597 3.05078 44.2953 3.05078 29.4105C3.05078 14.5292 15.1137 2.46484 29.9927 2.46484C44.8718 2.46484 56.9354 14.5292 56.9354 29.4105Z" fill="white"/>
<path d="M35.2324 20.5253C35.7886 17.6287 33.6926 14.933 32.0087 12.7675C31.5146 12.1322 31.0488 11.533 30.7025 10.9951C30.6734 10.9483 30.6367 10.9069 30.5876 10.8755C30.56 10.8579 30.5294 10.851 30.4995 10.841C30.4842 10.8357 30.4704 10.8265 30.4543 10.8234C30.4283 10.818 30.4022 10.8211 30.3754 10.8219C30.3509 10.8219 30.3279 10.8188 30.3042 10.8234C30.2866 10.8272 30.2712 10.8372 30.2536 10.8433C30.2253 10.8533 30.1962 10.8594 30.1701 10.8755C30.1211 10.9069 30.0843 10.9483 30.0552 10.9951C29.7089 11.533 29.2424 12.1322 28.7482 12.7675C27.0644 14.9337 24.9691 17.6287 25.5245 20.526C25.8938 22.454 27.3639 24.1635 29.997 25.7497V48.3956C29.997 48.607 30.1686 48.7787 30.38 48.7787C30.5915 48.7787 30.7631 48.607 30.7631 48.3956V25.7474C33.3946 24.162 34.8632 22.4532 35.2324 20.5253ZM30.3785 25.0854C27.9507 23.621 26.6024 22.0808 26.2768 20.3812C25.7865 17.8249 27.7638 15.2816 29.3535 13.238C29.7281 12.7567 30.0697 12.3023 30.3792 11.8648C30.6888 12.3023 31.0312 12.756 31.405 13.2372C32.9939 15.2809 34.9712 17.8241 34.4817 20.3804C34.1546 22.0808 32.8062 23.621 30.3785 25.0854Z" fill="#2E2E2E"/>
<path d="M44.652 26.013C44.6459 25.9862 44.6314 25.9647 44.6199 25.9402C44.6107 25.9195 44.6053 25.8981 44.5931 25.8797C44.5823 25.8636 44.567 25.8529 44.554 25.8391C44.5333 25.8153 44.5126 25.7916 44.4858 25.7739C44.4751 25.767 44.4628 25.7647 44.4513 25.7586C44.4207 25.7425 44.3916 25.7249 44.3563 25.7172C44.3533 25.7165 44.3502 25.7172 44.3471 25.7172C44.3456 25.7172 44.3448 25.7172 44.3433 25.7172C44.2905 25.7073 44.2384 25.7096 44.1886 25.7211C43.5642 25.8559 42.8111 25.9502 42.0144 26.0498C39.2925 26.39 35.9048 26.8138 34.2493 29.2551C33.1208 30.9195 32.963 33.2329 33.7674 36.3263C33.7705 36.3371 33.7812 36.3424 33.7843 36.3516C33.8241 36.4704 33.9145 36.5693 34.0447 36.6037C35.3356 36.9394 36.4901 37.1072 37.519 37.1072C38.9546 37.1072 40.1451 36.7792 41.1142 36.1218C43.555 34.4658 43.9779 31.0773 44.3188 28.3555C44.4192 27.5571 44.5126 26.8046 44.6475 26.1793C44.6612 26.1257 44.6643 26.0705 44.652 26.013ZM40.6852 35.488C39.2534 36.4604 37.2118 36.5953 34.4592 35.9133C33.7774 33.1609 33.9122 31.118 34.8844 29.6858C36.3445 27.5318 39.5414 27.1318 42.1102 26.8107C42.7154 26.7348 43.2769 26.6567 43.8048 26.5663C43.7151 27.0942 43.6354 27.6567 43.5604 28.2613C43.2386 30.8298 42.8395 34.0275 40.6852 35.488Z" fill="#2E2E2E"/>
<path d="M18.744 26.0496C17.9473 25.95 17.1957 25.8557 16.5714 25.7209C16.5177 25.7079 16.461 25.704 16.4028 25.717C16.3729 25.7232 16.3492 25.7393 16.3231 25.7523C16.3055 25.7607 16.2871 25.7646 16.2711 25.7753C16.2519 25.7883 16.2381 25.8067 16.2213 25.8228C16.2013 25.8419 16.1799 25.8588 16.1646 25.8818C16.1577 25.8925 16.1554 25.9056 16.1492 25.9163C16.1332 25.9469 16.1148 25.9768 16.1071 26.0121C16.0949 26.0695 16.0987 26.1255 16.1109 26.1791C16.2458 26.8036 16.34 27.5569 16.4396 28.3546C16.7797 31.0772 17.2034 34.4656 19.6442 36.1216C20.614 36.779 21.8038 37.107 23.2394 37.107C24.2683 37.107 25.4228 36.9384 26.7137 36.6036C26.765 36.5898 26.8117 36.566 26.8516 36.5354C26.8516 36.5354 26.8523 36.5338 26.8539 36.5331C26.9121 36.4863 26.9496 36.4219 26.9734 36.353C26.9772 36.3423 26.9879 36.3377 26.9902 36.3277C27.7954 33.2335 27.6376 30.9193 26.5091 29.255C24.8528 26.8136 21.4652 26.3906 18.744 26.0496ZM26.2992 35.9124C23.5474 36.5951 21.505 36.4603 20.0732 35.4871C17.9197 34.0266 17.5198 30.8289 17.1988 28.2596C17.1229 27.6542 17.0448 27.0925 16.9544 26.5645C17.4822 26.655 18.0446 26.7339 18.649 26.809C21.2177 27.1301 24.4131 27.5301 25.874 29.6841C26.8447 31.1185 26.9803 33.1607 26.2992 35.9124Z" fill="#2E2E2E"/>
<path d="M77.0867 51.6761V48.2H77.5858V49.5192H78.5841L79.0951 48.6219C79.2773 48.3011 79.5625 48.1406 79.9507 48.1406C80.0616 48.1406 80.1646 48.1585 80.2597 48.1941L80.1646 48.6279C80.1052 48.612 80.0299 48.6041 79.9388 48.6041C79.7487 48.6041 79.5863 48.717 79.4516 48.9428L79 49.739L80.2775 51.6761H79.6893L78.5722 49.9529H77.5858V51.6761H77.0867Z" fill="#D2E3F5"/>
<path d="M81.5487 49.1737V48.1992H84.1513V51.6753H83.6522V48.627H82.03V49.245C82.03 49.8115 82.0003 50.2631 81.9409 50.5998C81.8855 50.9365 81.7607 51.2079 81.5666 51.4139C81.3685 51.6238 81.117 51.7288 80.8119 51.7288C80.6654 51.7288 80.5327 51.703 80.4138 51.6515L80.4792 51.2712C80.5386 51.2831 80.598 51.2891 80.6574 51.2891C80.8872 51.2891 81.0635 51.2277 81.1863 51.1049C81.3328 50.9583 81.4299 50.7345 81.4774 50.4334C81.525 50.1284 81.5487 49.7085 81.5487 49.1737Z" fill="#D2E3F5"/>
<path d="M85.0535 51.6753V48.1992H85.5466V49.964L85.5229 51.0455L87.7868 48.1992H88.2919V51.6753H87.7987V50.3205L87.8224 48.8588L85.5764 51.6753H85.0535Z" fill="#D2E3F5"/>
<path d="M89.1931 51.6753V48.1992H89.6922V49.6431H91.8492V48.1992H92.3483V51.6753H91.8492V50.0769H89.6922V51.6753H89.1931Z" fill="#D2E3F5"/>
<path d="M93.2527 51.6753V48.1992H93.7518V49.964L93.728 51.0455L95.986 48.1992H96.497V51.6753H96.0038V50.3205L96.0217 48.8588L93.7756 51.6753H93.2527Z" fill="#D2E3F5"/>
<path d="M97.3982 51.6761V48.2H97.8973V49.5192H98.8896L99.4066 48.6219C99.5888 48.3011 99.874 48.1406 100.262 48.1406C100.373 48.1406 100.474 48.1585 100.565 48.1941L100.476 48.6279C100.417 48.612 100.339 48.6041 100.244 48.6041C100.058 48.6041 99.8978 48.717 99.7631 48.9428L99.3115 49.739L100.589 51.6761H99.9948L98.8837 49.9529H97.8973V51.6761H97.3982Z" fill="#D2E3F5"/>
<path d="M101.426 48.8301L101.295 48.4141C101.739 48.224 102.214 48.1289 102.721 48.1289C103.228 48.1289 103.599 48.224 103.832 48.4141C104.07 48.6043 104.189 48.9053 104.189 49.3173V50.8266C104.189 51.0128 104.221 51.1395 104.284 51.2069C104.351 51.2782 104.474 51.3158 104.652 51.3198V51.6763C104.53 51.7199 104.403 51.7417 104.272 51.7417C104.129 51.7417 104.019 51.6981 103.939 51.6109C103.864 51.5198 103.817 51.3653 103.797 51.1475C103.428 51.5436 102.915 51.7417 102.258 51.7417C101.854 51.7417 101.553 51.6525 101.355 51.4743C101.153 51.292 101.052 51.0365 101.052 50.7077C101.052 50.4027 101.153 50.1334 101.355 49.8996C101.933 49.7253 102.713 49.6243 103.696 49.5966V49.3411C103.696 49.0677 103.62 48.8697 103.47 48.7469C103.323 48.628 103.062 48.5686 102.686 48.5686C102.27 48.5686 101.85 48.6558 101.426 48.8301ZM103.696 50.7731V49.965C102.911 49.9769 102.262 50.0502 101.747 50.1848C101.628 50.3235 101.568 50.4839 101.568 50.6662C101.568 51.094 101.814 51.3079 102.305 51.3079C102.872 51.3079 103.335 51.1296 103.696 50.7731Z" fill="#D2E3F5"/>
<path d="M107.343 51.6753V48.1992H109.001C109.338 48.1992 109.617 48.2765 109.839 48.431C110.06 48.5855 110.171 48.8093 110.171 49.1024C110.171 49.4272 110.035 49.653 109.761 49.7798V49.8095C109.952 49.8689 110.104 49.9739 110.219 50.1244C110.338 50.271 110.397 50.4453 110.397 50.6473C110.397 50.9603 110.282 51.2098 110.053 51.396C109.823 51.5822 109.53 51.6753 109.173 51.6753H107.343ZM109.149 50.0888H107.836V51.2594H109.102C109.625 51.2594 109.886 51.0593 109.886 50.6592C109.886 50.2789 109.641 50.0888 109.149 50.0888ZM109.048 48.6152H107.836V49.6728H109.072C109.472 49.6728 109.672 49.4906 109.672 49.1262C109.672 48.7855 109.464 48.6152 109.048 48.6152Z" fill="#D2E3F5"/>
<path d="M111.627 53.2747H111.127V48.3309C111.619 48.1962 112.13 48.1289 112.66 48.1289C113.278 48.1289 113.752 48.2814 114.081 48.5864C114.413 48.8915 114.58 49.3332 114.58 49.9115C114.58 50.4423 114.421 50.8801 114.104 51.2247C113.791 51.5693 113.354 51.7417 112.791 51.7417C112.546 51.7417 112.336 51.7159 112.161 51.6644C111.991 51.609 111.813 51.5079 111.627 51.3614V53.2747ZM111.627 48.6993V50.8325C111.967 51.1376 112.355 51.2901 112.791 51.2901C113.171 51.2901 113.48 51.1673 113.718 50.9217C113.956 50.6721 114.075 50.3354 114.075 49.9115C114.075 49.4599 113.946 49.1212 113.688 48.8954C113.435 48.6657 113.086 48.5508 112.643 48.5508C112.294 48.5508 111.955 48.6003 111.627 48.6993Z" fill="#D2E3F5"/>
<path d="M115.522 48.8301L115.392 48.4141C115.835 48.224 116.311 48.1289 116.818 48.1289C117.321 48.1289 117.691 48.224 117.929 48.4141C118.166 48.6043 118.285 48.9053 118.285 49.3173V50.8266C118.285 51.0128 118.317 51.1395 118.38 51.2069C118.444 51.2782 118.567 51.3158 118.749 51.3198V51.6763C118.622 51.7199 118.495 51.7417 118.369 51.7417C118.222 51.7417 118.111 51.6981 118.036 51.6109C117.96 51.5198 117.913 51.3653 117.893 51.1475C117.525 51.5436 117.01 51.7417 116.348 51.7417C115.948 51.7417 115.647 51.6525 115.445 51.4743C115.247 51.292 115.148 51.0365 115.148 50.7077C115.148 50.4027 115.247 50.1334 115.445 49.8996C116.027 49.7253 116.81 49.6243 117.792 49.5966V49.3411C117.792 49.0677 117.717 48.8697 117.566 48.7469C117.42 48.628 117.158 48.5686 116.782 48.5686C116.366 48.5686 115.946 48.6558 115.522 48.8301ZM117.792 50.7731V49.965C117.008 49.9769 116.358 50.0502 115.843 50.1848C115.724 50.3235 115.665 50.4839 115.665 50.6662C115.665 51.094 115.911 51.3079 116.402 51.3079C116.964 51.3079 117.428 51.1296 117.792 50.7731Z" fill="#D2E3F5"/>
<path d="M119.145 49.2569V48.1992H119.644V49.2153C119.644 49.8808 119.991 50.2136 120.684 50.2136C121.076 50.2136 121.441 50.0947 121.777 49.857V48.1992H122.276V51.6753H121.777V50.3027C121.425 50.5364 121.041 50.6533 120.625 50.6533C120.157 50.6533 119.793 50.5325 119.531 50.2908C119.274 50.0531 119.145 49.7085 119.145 49.2569Z" fill="#D2E3F5"/>
<path d="M126.401 50.0482H123.483C123.507 50.4641 123.654 50.7771 123.923 50.987C124.196 51.2009 124.533 51.3079 124.933 51.3079C125.416 51.3079 125.82 51.2207 126.145 51.0464L126.288 51.4862C125.915 51.6565 125.456 51.7417 124.909 51.7417C124.291 51.7417 123.814 51.5812 123.477 51.2604C123.141 50.9395 122.972 50.4998 122.972 49.9412C122.972 49.4064 123.15 48.9707 123.507 48.634C123.867 48.2973 124.317 48.1289 124.856 48.1289C125.387 48.1289 125.787 48.2596 126.056 48.5211C126.325 48.7786 126.46 49.1232 126.46 49.555C126.46 49.7333 126.44 49.8977 126.401 50.0482ZM123.489 49.6263H125.979C125.979 49.246 125.884 48.9727 125.694 48.8063C125.507 48.6439 125.21 48.5627 124.802 48.5627C124.47 48.5627 124.176 48.6558 123.923 48.8419C123.669 49.0281 123.525 49.2896 123.489 49.6263Z" fill="#D2E3F5"/>
<path d="M130.243 46.5781L130.534 46.8277C130.316 47.2119 129.976 47.4457 129.512 47.5288L128.639 47.6833C128.318 47.7388 128.051 47.8973 127.837 48.1587C127.619 48.4202 127.48 48.747 127.421 49.1391H127.45C127.621 48.8817 127.827 48.6955 128.068 48.5806C128.31 48.4657 128.609 48.4083 128.966 48.4083C129.437 48.4083 129.831 48.5568 130.148 48.8539C130.461 49.155 130.618 49.565 130.618 50.0839C130.618 50.587 130.451 50.9891 130.118 51.2902C129.782 51.5912 129.356 51.7417 128.841 51.7417C128.215 51.7417 127.748 51.5536 127.439 51.1773C127.13 50.8009 126.975 50.28 126.975 49.6145C126.975 48.8935 127.12 48.3409 127.409 47.9567C127.694 47.5724 128.116 47.3268 128.675 47.2199L129.506 47.0594C129.807 47.004 130.053 46.8435 130.243 46.5781ZM127.528 50.0661C127.528 50.4424 127.649 50.7415 127.89 50.9633C128.136 51.1891 128.449 51.302 128.829 51.302C129.217 51.302 129.528 51.1911 129.762 50.9693C130 50.7474 130.118 50.4523 130.118 50.0839C130.118 49.6917 130.007 49.3887 129.786 49.1748C129.564 48.9609 129.249 48.8539 128.841 48.8539C128.437 48.8539 128.116 48.9648 127.878 49.1867C127.645 49.4085 127.528 49.7017 127.528 50.0661Z" fill="#D2E3F5"/>
<path d="M131.347 51.6753V48.1992H131.846V49.6431H134.003V48.1992H134.502V51.6753H134.003V50.0769H131.846V51.6753H131.347Z" fill="#D2E3F5"/>
<path d="M138.502 48.628C138.87 48.9568 139.054 49.3926 139.054 49.9353C139.054 50.478 138.87 50.9157 138.502 51.2485C138.137 51.5773 137.68 51.7417 137.129 51.7417C136.574 51.7417 136.115 51.5773 135.75 51.2485C135.382 50.9157 135.198 50.478 135.198 49.9353C135.198 49.3926 135.382 48.9568 135.75 48.628C136.115 48.2953 136.574 48.1289 137.129 48.1289C137.68 48.1289 138.137 48.2953 138.502 48.628ZM136.101 48.9311C135.839 49.1846 135.709 49.5193 135.709 49.9353C135.709 50.3552 135.839 50.6919 136.101 50.9454C136.362 51.199 136.705 51.3257 137.129 51.3257C137.549 51.3257 137.889 51.199 138.151 50.9454C138.412 50.6919 138.543 50.3552 138.543 49.9353C138.543 49.5193 138.412 49.1846 138.151 48.9311C137.889 48.6736 137.549 48.5448 137.129 48.5448C136.705 48.5448 136.362 48.6736 136.101 48.9311Z" fill="#D2E3F5"/>
<path d="M139.748 51.6776V48.2015H140.241V49.9663L140.217 51.0477L142.475 48.2015H142.986V51.6776H142.493V50.3228L142.511 48.8611L140.265 51.6776H139.748ZM140.449 47.1557L140.853 47.0547C140.92 47.3082 141.09 47.435 141.364 47.435C141.637 47.435 141.809 47.3082 141.881 47.0547L142.285 47.1557C142.126 47.6033 141.819 47.8272 141.364 47.8272C140.912 47.8272 140.607 47.6033 140.449 47.1557Z" fill="#D2E3F5"/>
<path d="M145.938 51.6761V48.2H146.437V49.5192H147.435L147.946 48.6219C148.128 48.3011 148.413 48.1406 148.802 48.1406C148.912 48.1406 149.015 48.1585 149.111 48.1941L149.015 48.6279C148.956 48.612 148.881 48.6041 148.79 48.6041C148.6 48.6041 148.437 48.717 148.302 48.9428L147.851 49.739L149.128 51.6761H148.54L147.423 49.9529H146.437V51.6761H145.938Z" fill="#D2E3F5"/>
<path d="M152.606 48.628C152.974 48.9568 153.158 49.3926 153.158 49.9353C153.158 50.478 152.974 50.9157 152.606 51.2485C152.241 51.5773 151.782 51.7417 151.227 51.7417C150.677 51.7417 150.219 51.5773 149.855 51.2485C149.486 50.9157 149.302 50.478 149.302 49.9353C149.302 49.3926 149.486 48.9568 149.855 48.628C150.219 48.2953 150.677 48.1289 151.227 48.1289C151.782 48.1289 152.241 48.2953 152.606 48.628ZM150.205 48.9311C149.944 49.1846 149.813 49.5193 149.813 49.9353C149.813 50.3552 149.944 50.6919 150.205 50.9454C150.467 51.199 150.807 51.3257 151.227 51.3257C151.651 51.3257 151.994 51.199 152.255 50.9454C152.517 50.6919 152.647 50.3552 152.647 49.9353C152.647 49.5193 152.517 49.1846 152.255 48.9311C151.994 48.6736 151.651 48.5448 151.227 48.5448C150.807 48.5448 150.467 48.6736 150.205 48.9311Z" fill="#D2E3F5"/>
<path d="M156.818 48.3606L156.598 48.7528C156.332 48.6261 156.012 48.5627 155.635 48.5627C155.168 48.5627 154.803 48.6815 154.542 48.9192C154.28 49.1569 154.15 49.4976 154.15 49.9412C154.15 50.3453 154.282 50.6721 154.548 50.9217C154.809 51.1752 155.138 51.302 155.534 51.302C155.978 51.302 156.366 51.2168 156.699 51.0464L156.865 51.4564C156.481 51.6466 156.025 51.7417 155.499 51.7417C154.932 51.7417 154.48 51.5753 154.144 51.2425C153.807 50.9058 153.639 50.478 153.639 49.9591C153.639 49.4203 153.825 48.9806 154.197 48.6399C154.57 48.2992 155.035 48.1289 155.594 48.1289C156.089 48.1289 156.497 48.2062 156.818 48.3606Z" fill="#D2E3F5"/>
<path d="M157.595 51.6753V48.1992H158.189L159.544 50.4334L160.893 48.1992H161.487V51.6753H160.994V50.1066L161.018 48.8885H160.976L159.728 50.9563H159.348L158.094 48.8885H158.064L158.082 49.9165V51.6753H157.595Z" fill="#D2E3F5"/>
<path d="M165.608 50.0482H162.691C162.714 50.4641 162.861 50.7771 163.13 50.987C163.404 51.2009 163.74 51.3079 164.141 51.3079C164.624 51.3079 165.028 51.2207 165.353 51.0464L165.495 51.4862C165.123 51.6565 164.663 51.7417 164.117 51.7417C163.499 51.7417 163.021 51.5812 162.685 51.2604C162.348 50.9395 162.18 50.4998 162.18 49.9412C162.18 49.4064 162.358 48.9707 162.714 48.634C163.075 48.2973 163.525 48.1289 164.063 48.1289C164.594 48.1289 164.994 48.2596 165.264 48.5211C165.533 48.7786 165.668 49.1232 165.668 49.555C165.668 49.7333 165.648 49.8977 165.608 50.0482ZM162.697 49.6263H165.186C165.186 49.246 165.091 48.9727 164.901 48.8063C164.715 48.6439 164.418 48.5627 164.01 48.5627C163.677 48.5627 163.384 48.6558 163.13 48.8419C162.877 49.0281 162.732 49.2896 162.697 49.6263Z" fill="#D2E3F5"/>
<path d="M167.224 51.6753V48.627H165.94V48.1992H169.001V48.627H167.723V51.6753H167.224Z" fill="#D2E3F5"/>
<path d="M172.648 48.628C173.016 48.9568 173.2 49.3926 173.2 49.9353C173.2 50.478 173.016 50.9157 172.648 51.2485C172.283 51.5773 171.826 51.7417 171.275 51.7417C170.72 51.7417 170.261 51.5773 169.897 51.2485C169.532 50.9157 169.35 50.478 169.35 49.9353C169.35 49.3926 169.532 48.9568 169.897 48.628C170.261 48.2953 170.72 48.1289 171.275 48.1289C171.826 48.1289 172.283 48.2953 172.648 48.628ZM170.247 48.9311C169.986 49.1846 169.855 49.5193 169.855 49.9353C169.855 50.3552 169.986 50.6919 170.247 50.9454C170.509 51.199 170.851 51.3257 171.275 51.3257C171.695 51.3257 172.036 51.199 172.297 50.9454C172.559 50.6919 172.689 50.3552 172.689 49.9353C172.689 49.5193 172.559 49.1846 172.297 48.9311C172.036 48.6736 171.695 48.5448 171.275 48.5448C170.851 48.5448 170.509 48.6736 170.247 48.9311Z" fill="#D2E3F5"/>
<path d="M174.505 49.1737V48.1992H177.102V51.6753H176.603V48.627H174.981V49.245C174.981 49.8115 174.953 50.2631 174.897 50.5998C174.838 50.9365 174.711 51.2079 174.517 51.4139C174.323 51.6238 174.073 51.7288 173.768 51.7288C173.618 51.7288 173.485 51.703 173.37 51.6515L173.436 51.2712C173.495 51.2831 173.555 51.2891 173.614 51.2891C173.84 51.2891 174.016 51.2277 174.143 51.1049C174.285 50.9583 174.381 50.7345 174.428 50.4334C174.48 50.1284 174.505 49.7085 174.505 49.1737Z" fill="#D2E3F5"/>
<path d="M181.101 48.628C181.469 48.9568 181.653 49.3926 181.653 49.9353C181.653 50.478 181.469 50.9157 181.101 51.2485C180.736 51.5773 180.277 51.7417 179.722 51.7417C179.172 51.7417 178.714 51.5773 178.35 51.2485C177.981 50.9157 177.797 50.478 177.797 49.9353C177.797 49.3926 177.981 48.9568 178.35 48.628C178.714 48.2953 179.172 48.1289 179.722 48.1289C180.277 48.1289 180.736 48.2953 181.101 48.628ZM178.7 48.9311C178.439 49.1846 178.308 49.5193 178.308 49.9353C178.308 50.3552 178.439 50.6919 178.7 50.9454C178.962 51.199 179.302 51.3257 179.722 51.3257C180.146 51.3257 180.489 51.199 180.75 50.9454C181.012 50.6919 181.142 50.3552 181.142 49.9353C181.142 49.5193 181.012 49.1846 180.75 48.9311C180.489 48.6736 180.146 48.5448 179.722 48.5448C179.302 48.5448 178.962 48.6736 178.7 48.9311Z" fill="#D2E3F5"/>
<path d="M182.349 51.6753V48.1992H184.886V48.627H182.848V51.6753H182.349Z" fill="#D2E3F5"/>
<path d="M185.61 51.6753V48.1992H186.103V49.964L186.085 51.0455L188.343 48.1992H188.854V51.6753H188.361V50.3205L188.379 48.8588L186.133 51.6753H185.61Z" fill="#D2E3F5"/>
<path d="M189.755 51.6753V48.1992H190.248V49.964L190.225 51.0455L192.488 48.1992H192.994V51.6753H192.5V50.3205L192.518 48.8588L190.272 51.6753H189.755Z" fill="#D2E3F5"/>
<path d="M193.897 52.4678L193.76 52.248C193.915 52.1806 194.026 52.1034 194.093 52.0163C194.156 51.9291 194.188 51.8162 194.188 51.6776C194.073 51.6776 193.98 51.6439 193.909 51.5765C193.837 51.5092 193.802 51.432 193.802 51.3448C193.802 51.2418 193.83 51.1566 193.885 51.0893C193.944 51.022 194.038 50.9883 194.164 50.9883C194.303 50.9883 194.408 51.0418 194.479 51.1487C194.551 51.2557 194.586 51.3923 194.586 51.5587C194.586 51.7647 194.527 51.9509 194.408 52.1173C194.289 52.2836 194.119 52.4005 193.897 52.4678Z" fill="#D2E3F5"/>
<path d="M77.7229 55.3718V54.4805H80.3196V57.5287H80.7712L80.6939 58.836H80.3434L80.2661 57.9566H77.2595L77.1406 58.836H76.7722V57.5287C77.1169 57.3307 77.3605 57.0534 77.5031 56.6968C77.6496 56.3443 77.7229 55.9026 77.7229 55.3718ZM79.8205 54.9142H78.1924V55.5976C78.1924 56.4215 77.9349 57.0653 77.4199 57.5287H79.8205V54.9142Z" fill="#D2E3F5"/>
<path d="M84.5123 56.3353H81.5888C81.6126 56.7512 81.7611 57.0642 82.0345 57.2741C82.3038 57.4841 82.6405 57.5891 83.0446 57.5891C83.5239 57.5891 83.926 57.5039 84.2508 57.3336L84.3994 57.7733C84.023 57.9436 83.5616 58.0288 83.0149 58.0288C82.3969 58.0288 81.9216 57.8683 81.5888 57.5475C81.2521 57.2226 81.0837 56.7829 81.0837 56.2283C81.0837 55.6896 81.262 55.2538 81.6185 54.9211C81.975 54.5844 82.4247 54.416 82.9674 54.416C83.4942 54.416 83.8923 54.5448 84.1617 54.8022C84.4311 55.0637 84.5658 55.4103 84.5658 55.8421C84.5658 56.0204 84.5479 56.1848 84.5123 56.3353ZM81.5948 55.9075H84.0844C84.0844 55.5272 83.9914 55.2558 83.8052 55.0934C83.615 54.927 83.3179 54.8438 82.9139 54.8438C82.5772 54.8438 82.284 54.9389 82.0345 55.1291C81.7809 55.3152 81.6344 55.5747 81.5948 55.9075Z" fill="#D2E3F5"/>
<path d="M85.7596 59.5559H85.2605V54.618C85.7517 54.4834 86.2647 54.416 86.7995 54.416C87.4135 54.416 87.8869 54.5685 88.2196 54.8736C88.5484 55.1786 88.7128 55.6183 88.7128 56.1927C88.7128 56.7275 88.5563 57.1672 88.2434 57.5118C87.9265 57.8565 87.4887 58.0288 86.9302 58.0288C86.6846 58.0288 86.4746 58.003 86.3003 57.9515C86.126 57.8961 85.9458 57.7951 85.7596 57.6485V59.5559ZM85.7596 54.9865V57.1196C86.1043 57.4247 86.4945 57.5772 86.9302 57.5772C87.3105 57.5772 87.6175 57.4524 87.8512 57.2028C88.0889 56.9572 88.2077 56.6205 88.2077 56.1927C88.2077 55.745 88.081 55.4064 87.8274 55.1766C87.57 54.9508 87.2194 54.8379 86.7757 54.8379C86.4271 54.8379 86.0884 54.8874 85.7596 54.9865Z" fill="#D2E3F5"/>
<path d="M89.408 57.9566V54.4805H90.0022L91.3569 56.7206L92.7058 54.4805H93.3059V57.9566H92.8127V56.3938L92.8306 55.1697H92.789L91.5471 57.2435H91.1609L89.913 55.1697H89.8774L89.8952 56.1977V57.9566H89.408Z" fill="#D2E3F5"/>
<path d="M94.5292 55.1172L94.3925 54.7012C94.8402 54.5111 95.3155 54.416 95.8186 54.416C96.3257 54.416 96.6961 54.5111 96.9298 54.7012C97.1675 54.8914 97.2863 55.1924 97.2863 55.6044V57.1137C97.2863 57.2959 97.318 57.4227 97.3814 57.494C97.4487 57.5653 97.5715 57.6029 97.7498 57.6069V57.9575C97.627 58.005 97.5002 58.0288 97.3695 58.0288C97.2269 58.0288 97.1179 57.9832 97.0427 57.8921C96.9635 57.801 96.9159 57.6465 96.9001 57.4286C96.5277 57.8287 96.0127 58.0288 95.3552 58.0288C94.9511 58.0288 94.65 57.9377 94.452 57.7554C94.2499 57.5772 94.1489 57.3236 94.1489 56.9949C94.1489 56.6898 94.2499 56.4205 94.452 56.1867C95.0303 56.0124 95.8107 55.9114 96.7931 55.8837V55.6222C96.7931 55.3489 96.7198 55.1528 96.5733 55.034C96.4227 54.9112 96.1593 54.8498 95.783 54.8498C95.367 54.8498 94.9491 54.9389 94.5292 55.1172ZM96.7931 57.0543V56.2521C96.0088 56.264 95.3591 56.3373 94.8441 56.472C94.7253 56.6106 94.6659 56.771 94.6659 56.9533C94.6659 57.3771 94.9115 57.5891 95.4027 57.5891C95.9692 57.5891 96.4326 57.4108 96.7931 57.0543Z" fill="#D2E3F5"/>
<path d="M99.1794 57.9566V54.9142H97.9019V54.4805H100.962V54.9142H99.6845V57.9566H99.1794Z" fill="#D2E3F5"/>
<path d="M104.611 54.9092C104.98 55.242 105.164 55.6797 105.164 56.2224C105.164 56.7651 104.98 57.2008 104.611 57.5296C104.247 57.8624 103.789 58.0288 103.239 58.0288C102.684 58.0288 102.224 57.8624 101.86 57.5296C101.492 57.2008 101.307 56.7651 101.307 56.2224C101.307 55.6797 101.492 55.242 101.86 54.9092C102.224 54.5804 102.684 54.416 103.239 54.416C103.789 54.416 104.247 54.5804 104.611 54.9092ZM102.211 55.2122C101.949 55.4697 101.818 55.8065 101.818 56.2224C101.818 56.6383 101.949 56.9751 102.211 57.2325C102.472 57.4861 102.815 57.6128 103.239 57.6128C103.658 57.6128 103.999 57.4861 104.261 57.2325C104.522 56.9751 104.653 56.6383 104.653 56.2224C104.653 55.8065 104.522 55.4697 104.261 55.2122C103.999 54.9587 103.658 54.832 103.239 54.832C102.815 54.832 102.472 54.9587 102.211 55.2122Z" fill="#D2E3F5"/>
<path d="M106.469 55.455V54.4805H109.065V57.9566H108.566V54.9142H106.944V55.5322C106.944 56.0987 106.916 56.5503 106.861 56.887C106.801 57.2197 106.675 57.4911 106.481 57.701C106.286 57.911 106.037 58.016 105.732 58.016C105.581 58.016 105.449 57.9902 105.334 57.9387L105.393 57.5584C105.457 57.5703 105.518 57.5763 105.577 57.5763C105.803 57.5763 105.979 57.5129 106.106 57.3861C106.249 57.2435 106.344 57.0217 106.391 56.7206C106.443 56.4156 106.469 55.9937 106.469 55.455Z" fill="#D2E3F5"/>
<path d="M113.064 54.9092C113.429 55.242 113.611 55.6797 113.611 56.2224C113.611 56.7651 113.429 57.2008 113.064 57.5296C112.7 57.8624 112.24 58.0288 111.686 58.0288C111.135 58.0288 110.678 57.8624 110.313 57.5296C109.945 57.2008 109.76 56.7651 109.76 56.2224C109.76 55.6797 109.945 55.242 110.313 54.9092C110.678 54.5804 111.135 54.416 111.686 54.416C112.24 54.416 112.7 54.5804 113.064 54.9092ZM110.664 55.2122C110.402 55.4697 110.272 55.8065 110.272 56.2224C110.272 56.6383 110.402 56.9751 110.664 57.2325C110.925 57.4861 111.266 57.6128 111.686 57.6128C112.11 57.6128 112.452 57.4861 112.714 57.2325C112.975 56.9751 113.106 56.6383 113.106 56.2224C113.106 55.8065 112.975 55.4697 112.714 55.2122C112.452 54.9587 112.11 54.832 111.686 54.832C111.266 54.832 110.925 54.9587 110.664 55.2122Z" fill="#D2E3F5"/>
<path d="M114.304 57.9566V54.4805H116.842V54.9142H114.81V57.9566H114.304Z" fill="#D2E3F5"/>
<path d="M117.571 57.9566V54.4805H118.064V56.2512L118.046 57.3326L120.304 54.4805H120.815V57.9566H120.316V56.6018L120.34 55.146L118.094 57.9566H117.571Z" fill="#D2E3F5"/>
<path d="M121.719 57.9566V54.4805H122.212V56.2512L122.188 57.3326L124.446 54.4805H124.957V57.9566H124.464V56.6018L124.482 55.146L122.235 57.9566H121.719Z" fill="#D2E3F5"/>
<path d="M127.908 57.9566V54.4805H128.402V56.2512L128.384 57.3326L130.642 54.4805H131.147V57.9566H130.654V56.6018L130.677 55.146L128.431 57.9566H127.908Z" fill="#D2E3F5"/>
<path d="M135.173 57.9566V54.9142H133.89V54.4805H136.95V54.9142H135.672V57.9566H135.173Z" fill="#D2E3F5"/>
<path d="M138.144 59.5559H137.645V54.618C138.136 54.4834 138.649 54.416 139.184 54.416C139.798 54.416 140.271 54.5685 140.604 54.8736C140.936 55.1786 141.103 55.6183 141.103 56.1927C141.103 56.7275 140.944 57.1672 140.627 57.5118C140.314 57.8565 139.877 58.0288 139.314 58.0288C139.069 58.0288 138.859 58.003 138.684 57.9515C138.51 57.8961 138.33 57.7951 138.144 57.6485V59.5559ZM138.144 54.9865V57.1196C138.488 57.4247 138.878 57.5772 139.314 57.5772C139.695 57.5772 140.004 57.4524 140.241 57.2028C140.475 56.9572 140.592 56.6205 140.592 56.1927C140.592 55.745 140.465 55.4064 140.211 55.1766C139.958 54.9508 139.607 54.8379 139.16 54.8379C138.815 54.8379 138.476 54.8874 138.144 54.9865Z" fill="#D2E3F5"/>
<path d="M141.798 57.9566V54.4805H142.291V56.2512L142.267 57.3326L144.531 54.4805H145.036V57.9566H144.543V56.6018L144.561 55.146L142.315 57.9566H141.798Z" fill="#D2E3F5"/>
<path d="M146.973 56.1502L145.773 54.4805H146.349L147.377 55.9482H147.419L148.459 54.4805H149.053L147.847 56.1324L149.16 57.9566H148.56L147.419 56.3582H147.377L146.237 57.9566H145.66L146.973 56.1502Z" fill="#D2E3F5"/>
<path d="M152.6 54.9092C152.964 55.242 153.147 55.6797 153.147 56.2224C153.147 56.7651 152.964 57.2008 152.6 57.5296C152.231 57.8624 151.772 58.0288 151.221 58.0288C150.671 58.0288 150.213 57.8624 149.849 57.5296C149.48 57.2008 149.296 56.7651 149.296 56.2224C149.296 55.6797 149.48 55.242 149.849 54.9092C150.213 54.5804 150.671 54.416 151.221 54.416C151.772 54.416 152.231 54.5804 152.6 54.9092ZM150.199 55.2122C149.938 55.4697 149.807 55.8065 149.807 56.2224C149.807 56.6383 149.938 56.9751 150.199 57.2325C150.461 57.4861 150.801 57.6128 151.221 57.6128C151.645 57.6128 151.988 57.4861 152.249 57.2325C152.511 56.9751 152.641 56.6383 152.641 56.2224C152.641 55.8065 152.511 55.4697 152.249 55.2122C151.988 54.9587 151.645 54.832 151.221 54.832C150.801 54.832 150.461 54.9587 150.199 55.2122Z" fill="#D2E3F5"/>
<path d="M154.451 55.455V54.4805H157.054V57.9566H156.555V54.9142H154.933V55.5322C154.933 56.0987 154.903 56.5503 154.844 56.887C154.788 57.2197 154.663 57.4911 154.469 57.701C154.275 57.911 154.024 58.016 153.715 58.016C153.568 58.016 153.437 57.9902 153.323 57.9387L153.382 57.5584C153.441 57.5703 153.503 57.5763 153.566 57.5763C153.792 57.5763 153.966 57.5129 154.089 57.3861C154.236 57.2435 154.333 57.0217 154.38 56.7206C154.428 56.4156 154.451 55.9937 154.451 55.455Z" fill="#D2E3F5"/>
<path d="M161.053 54.9092C161.417 55.242 161.599 55.6797 161.599 56.2224C161.599 56.7651 161.417 57.2008 161.053 57.5296C160.684 57.8624 160.225 58.0288 159.674 58.0288C159.124 58.0288 158.664 57.8624 158.296 57.5296C157.931 57.2008 157.749 56.7651 157.749 56.2224C157.749 55.6797 157.931 55.242 158.296 54.9092C158.664 54.5804 159.124 54.416 159.674 54.416C160.225 54.416 160.684 54.5804 161.053 54.9092ZM158.646 55.2122C158.385 55.4697 158.254 55.8065 158.254 56.2224C158.254 56.6383 158.385 56.9751 158.646 57.2325C158.912 57.4861 159.254 57.6128 159.674 57.6128C160.094 57.6128 160.437 57.4861 160.702 57.2325C160.964 56.9751 161.094 56.6383 161.094 56.2224C161.094 55.8065 160.964 55.4697 160.702 55.2122C160.437 54.9587 160.094 54.832 159.674 54.832C159.254 54.832 158.912 54.9587 158.646 55.2122Z" fill="#D2E3F5"/>
<path d="M162.293 57.9566V54.4805H164.83V54.9142H162.792V57.9566H162.293Z" fill="#D2E3F5"/>
<path d="M165.56 57.9566V54.4805H166.053V56.2512L166.035 57.3326L168.293 54.4805H168.798V57.9566H168.305V56.6018L168.329 55.146L166.083 57.9566H165.56Z" fill="#D2E3F5"/>
<path d="M169.699 57.9566V54.4805H170.193V56.2512L170.175 57.3326L172.433 54.4805H172.944V57.9566H172.445V56.6018L172.468 55.146L170.222 57.9566H169.699Z" fill="#D2E3F5"/>
</svg>
