<svg width="157" height="31" viewBox="0 0 157 31" fill="none" xmlns="http://www.w3.org/2000/svg">
<path d="M41.9601 16.2833V20.9993H39.7461V8.39928C40.3701 8.39928 41.0481 8.39328 41.7801 8.38128C42.5121 8.36928 43.1121 8.36328 43.5801 8.36328C46.6281 8.36328 48.1521 9.65928 48.1521 12.2513C48.1521 13.2113 47.9061 14.0033 47.4141 14.6273C46.9221 15.2273 46.3581 15.6353 45.7221 15.8513L49.6641 20.9993H46.9821L43.5081 16.2833H41.9601ZM43.4721 10.4333C43.4121 10.4333 43.3161 10.4393 43.1841 10.4513C43.0521 10.4513 42.8661 10.4573 42.6261 10.4693H41.9601V14.2133H43.4001C44.1081 14.2133 44.6841 14.0393 45.1281 13.6913C45.5841 13.3433 45.8121 12.8693 45.8121 12.2693C45.8121 11.0453 45.0321 10.4333 43.4721 10.4333ZM56.6151 18.7313L57.2091 20.1893C56.4051 20.8613 55.3731 21.1973 54.1131 21.1973C52.8171 21.1973 51.7611 20.8073 50.9451 20.0273C50.1531 19.2593 49.7571 18.2333 49.7571 16.9493C49.7571 15.7493 50.1471 14.7413 50.9271 13.9253C51.7071 13.1093 52.7451 12.7013 54.0411 12.7013C55.1091 12.7013 56.0151 13.0553 56.7591 13.7633C57.5031 14.4713 57.8751 15.3713 57.8751 16.4633C57.8751 16.9433 57.8331 17.3153 57.7491 17.5793H51.9001C51.9841 18.1673 52.2421 18.6293 52.6741 18.9653C53.1181 19.3013 53.6701 19.4693 54.3301 19.4693C55.2301 19.4693 55.9921 19.2233 56.6161 18.7313H56.6151ZM53.9511 14.4293C52.7751 14.4293 52.0671 15.0173 51.8271 16.1933H55.8051C55.8171 15.6773 55.6491 15.2573 55.3011 14.9333C54.9651 14.5973 54.5151 14.4293 53.9511 14.4293ZM67.2661 24.5993H65.1961V20.5853C64.6056 20.9831 63.9101 21.1961 63.1981 21.1973C61.9141 21.1973 60.8881 20.8133 60.1201 20.0453C59.3641 19.2653 58.9861 18.2333 58.9861 16.9493C58.9861 15.7373 59.4241 14.7293 60.3001 13.9253C61.1881 13.1093 62.2981 12.7013 63.6301 12.7013C65.0221 12.7013 66.2341 13.0253 67.2661 13.6733V24.5993ZM63.4681 19.2713C64.1641 19.2713 64.7401 19.0253 65.1961 18.5333V15.0413C64.6561 14.7773 64.1281 14.6453 63.6121 14.6453C62.8681 14.6453 62.2801 14.8733 61.8481 15.3293C61.4161 15.7733 61.2001 16.3433 61.2001 17.0393C61.2001 17.6873 61.4041 18.2213 61.8121 18.6413C62.2321 19.0613 62.7841 19.2713 63.4681 19.2713ZM74.8001 12.8993H76.8701V20.9993H74.8001V20.0093C74.1521 20.8013 73.2881 21.1973 72.2081 21.1973C71.3441 21.1973 70.6541 20.9093 70.1381 20.3333C69.6221 19.7573 69.3641 18.9293 69.3641 17.8493V12.8993H71.4341V17.4173C71.4341 18.6533 71.9501 19.2713 72.9821 19.2713C73.6901 19.2713 74.2961 18.9413 74.8001 18.2813V12.8993ZM85.5301 18.7313L86.1241 20.1893C85.3201 20.8613 84.2881 21.1973 83.0281 21.1973C81.7321 21.1973 80.6761 20.8073 79.8601 20.0273C79.0681 19.2593 78.6721 18.2333 78.6721 16.9493C78.6721 15.7493 79.0621 14.7413 79.8421 13.9253C80.6221 13.1093 81.6601 12.7013 82.9561 12.7013C84.0241 12.7013 84.9301 13.0553 85.6741 13.7633C86.4181 14.4713 86.7901 15.3713 86.7901 16.4633C86.7901 16.9433 86.7481 17.3153 86.6641 17.5793H80.8141C80.8981 18.1673 81.1561 18.6293 81.5881 18.9653C82.0321 19.3013 82.5841 19.4693 83.2441 19.4693C84.1441 19.4693 84.9061 19.2233 85.5301 18.7313ZM82.8661 14.4293C81.6901 14.4293 80.9821 15.0173 80.7421 16.1933H84.7201C84.7321 15.6773 84.5641 15.2573 84.2161 14.9333C83.8801 14.5973 83.4301 14.4293 82.8661 14.4293ZM88.1881 15.1673C88.1881 14.4113 88.4641 13.8113 89.0161 13.3673C89.5681 12.9233 90.2821 12.7013 91.1581 12.7013C92.4781 12.7013 93.5041 13.0433 94.2361 13.7273L93.4621 15.2033C92.8021 14.6873 92.0701 14.4293 91.2661 14.4293C90.9781 14.4293 90.7381 14.5013 90.5461 14.6453C90.3541 14.7773 90.2581 14.9393 90.2581 15.1313C90.2581 15.5273 90.7681 15.8573 91.7881 16.1213C92.1601 16.2053 92.4901 16.3013 92.7781 16.4093C93.0661 16.5053 93.3601 16.6493 93.6601 16.8413C93.9721 17.0213 94.2121 17.2613 94.3801 17.5613C94.5481 17.8613 94.6321 18.2093 94.6321 18.6053C94.6321 19.3973 94.3321 20.0273 93.7321 20.4953C93.1441 20.9633 92.3521 21.1973 91.3561 21.1973C90.6481 21.1973 89.9581 21.0473 89.2861 20.7473C88.6021 20.4353 88.1641 20.1233 87.9721 19.8113L88.9801 18.4613C89.2081 18.7373 89.5861 18.9713 90.1141 19.1633C90.6541 19.3673 91.1161 19.4693 91.5001 19.4693C91.9681 19.5173 92.2981 19.3673 92.4901 19.0193C92.6821 18.6593 92.5561 18.3653 92.1121 18.1373C91.9321 18.0413 91.6501 17.9393 91.2661 17.8313C90.8941 17.7233 90.5461 17.6153 90.2221 17.5073C89.8891 17.3776 89.5645 17.2273 89.2501 17.0573C88.9321 16.883 88.6653 16.6286 88.4761 16.3193C88.2841 15.9953 88.1881 15.6113 88.1881 15.1673ZM96.2761 17.9213V10.6493H98.3461V12.8993H100.956V14.8433H98.3461V17.7953C98.3461 18.7673 98.6701 19.2533 99.3181 19.2533C99.7261 19.2533 100.14 19.0973 100.56 18.7853L101.19 20.3873C100.53 20.9153 99.7321 21.1793 98.7961 21.1793C97.9201 21.1793 97.2781 20.9153 96.8701 20.3873C96.4741 19.8473 96.2761 19.0253 96.2761 17.9213ZM107.649 20.9993H107.496V9.09928H107.683C108.171 9.09928 108.624 9.09328 109.043 9.08228C109.542 9.06688 110.04 9.05554 110.539 9.04828C111.684 9.04828 112.693 9.20728 113.565 9.52428C114.449 9.83028 115.152 10.2613 115.673 10.8163C116.185 11.345 116.579 11.9767 116.829 12.6693C117.09 13.3493 117.22 14.0863 117.22 14.8793C117.22 16.6693 116.625 18.1433 115.435 19.2993C114.257 20.4553 112.579 21.0333 110.403 21.0333C109.916 21.0333 109.468 21.0273 109.06 21.0163C108.59 21.0042 108.119 20.9985 107.649 20.9993ZM110.505 9.93228C110.256 9.93228 109.888 9.94328 109.4 9.96628C108.924 9.97728 108.601 9.98328 108.431 9.98328V20.1153C108.805 20.1153 109.157 20.1213 109.485 20.1323C109.814 20.1323 110.052 20.1383 110.199 20.1493H110.437C112.285 20.1493 113.713 19.6623 114.721 18.6873C115.73 17.7013 116.234 16.4323 116.234 14.8793C116.234 13.4173 115.753 12.2273 114.789 11.3093C113.815 10.3913 112.387 9.93228 110.505 9.93228ZM125.456 19.3843L125.745 20.0643C125.053 20.7893 124.113 21.1523 122.923 21.1523C121.699 21.1523 120.718 20.7893 119.982 20.0643C119.234 19.3393 118.86 18.3753 118.86 17.1743C118.86 16.0183 119.2 15.0663 119.88 14.3183C120.571 13.5703 121.523 13.1963 122.736 13.1963C123.722 13.1963 124.549 13.5133 125.218 14.1483C125.875 14.7713 126.204 15.6043 126.204 16.6473C126.204 16.9193 126.187 17.1573 126.153 17.3613H119.846C119.88 18.2793 120.18 19.0043 120.747 19.5373C121.313 20.0583 122.056 20.3193 122.974 20.3193C124.039 20.3193 124.866 20.0073 125.456 19.3843ZM122.651 14.0293C121.835 14.0293 121.172 14.2673 120.662 14.7433C120.163 15.2193 119.874 15.8483 119.795 16.6303H125.303C125.291 15.8253 125.048 15.1903 124.572 14.7263C124.096 14.2613 123.455 14.0293 122.651 14.0293ZM132.28 18.9933C132.28 18.6423 132.132 18.3583 131.838 18.1433C131.52 17.9113 131.163 17.7386 130.784 17.6333C130.376 17.5083 129.962 17.3733 129.543 17.2253C129.132 17.0726 128.764 16.8216 128.472 16.4943C128.188 16.1543 128.047 15.7293 128.047 15.2193C128.047 14.6073 128.273 14.1193 128.727 13.7573C129.18 13.3833 129.775 13.1963 130.512 13.1963C131.566 13.1963 132.365 13.4793 132.909 14.0463L132.535 14.7093C132.013 14.2223 131.345 13.9783 130.529 13.9783C130.075 13.9783 129.701 14.0973 129.407 14.3353C129.273 14.4359 129.164 14.5669 129.09 14.7176C129.016 14.8684 128.979 15.0345 128.982 15.2023C128.982 15.5653 129.123 15.8653 129.407 16.1033C129.701 16.3303 130.053 16.5113 130.461 16.6473C130.88 16.7723 131.299 16.9073 131.719 17.0553C132.138 17.2023 132.489 17.4353 132.773 17.7523C133.067 18.0693 133.215 18.4723 133.215 18.9593C133.215 19.6503 132.954 20.1893 132.433 20.5743C131.923 20.9593 131.265 21.1523 130.461 21.1523C129.962 21.1523 129.441 21.0393 128.897 20.8123C128.387 20.5973 128.035 20.3423 127.843 20.0473L128.336 19.4693C128.551 19.7293 128.874 19.9453 129.305 20.1153C129.747 20.2853 130.166 20.3703 130.563 20.3703C131.061 20.3703 131.469 20.2513 131.787 20.0133C132.115 19.7633 132.28 19.4233 132.28 18.9933ZM136.733 20.9993H135.849V13.3493H136.733V20.9993ZM135.696 10.3743C135.693 10.2964 135.709 10.219 135.741 10.1481C135.774 10.0773 135.822 10.015 135.883 9.96628C136.008 9.86439 136.164 9.81015 136.325 9.81328C136.472 9.81328 136.603 9.87028 136.716 9.98328C136.776 10.0293 136.824 10.0887 136.856 10.1566C136.888 10.2245 136.905 10.299 136.903 10.3743C136.907 10.4583 136.894 10.5423 136.865 10.6212C136.836 10.7001 136.791 10.7723 136.733 10.8333C136.682 10.8897 136.618 10.9342 136.548 10.9636C136.477 10.993 136.401 11.0065 136.325 11.0033C136.156 11.0076 135.992 10.9468 135.866 10.8333C135.808 10.7723 135.763 10.7001 135.734 10.6212C135.705 10.5423 135.692 10.4583 135.696 10.3743ZM138.752 22.1213C138.752 21.5433 138.956 21.0563 139.364 20.6593C139.772 20.2623 140.35 19.9853 141.098 19.8263C140.928 19.6213 140.837 19.3617 140.843 19.0953C140.843 18.8123 140.939 18.5573 141.132 18.3303C140.653 18.1316 140.245 17.7941 139.959 17.3613C139.674 16.9274 139.526 16.4181 139.534 15.8993C139.534 15.1173 139.811 14.4713 140.367 13.9613C140.922 13.4513 141.653 13.1963 142.56 13.1963C143.285 13.1963 143.925 13.3893 144.481 13.7743H144.498L146.674 13.1963V14.0293L145.127 14.4203C145.433 14.8853 145.586 15.3783 145.586 15.8993C145.586 16.6593 145.302 17.3043 144.736 17.8373C144.169 18.3473 143.444 18.6023 142.56 18.6023C142.242 18.6023 141.987 18.5793 141.795 18.5343C141.688 18.701 141.634 18.897 141.642 19.0953C141.642 19.3553 141.715 19.5603 141.863 19.7073C142.293 19.6843 142.531 19.6733 142.577 19.6733C143.744 19.6733 144.673 19.8883 145.365 20.3193C146.056 20.7493 146.402 21.3503 146.402 22.1213C146.402 22.8813 146.056 23.4703 145.365 23.8893C144.673 24.3193 143.744 24.5353 142.577 24.5353C141.398 24.5353 140.463 24.3253 139.772 23.9063C139.092 23.4863 138.752 22.8923 138.752 22.1213ZM139.653 22.1213C139.653 22.6203 139.913 23.0113 140.435 23.2943C140.967 23.5893 141.681 23.7363 142.577 23.7363C143.461 23.7363 144.169 23.5893 144.702 23.2943C145.234 22.9993 145.501 22.6083 145.501 22.1213C145.501 21.6223 145.234 21.2263 144.702 20.9313C144.18 20.6253 143.472 20.4723 142.577 20.4723C141.693 20.4723 140.984 20.6193 140.452 20.9143C139.919 21.2093 139.653 21.6113 139.653 22.1213ZM141.03 14.5393C140.838 14.7092 140.685 14.9188 140.583 15.1537C140.48 15.3886 140.43 15.643 140.435 15.8993C140.435 16.4433 140.633 16.8963 141.03 17.2593C141.426 17.6223 141.936 17.8033 142.56 17.8033C143.183 17.8033 143.693 17.6223 144.09 17.2593C144.486 16.8963 144.685 16.4433 144.685 15.8993C144.685 15.3553 144.481 14.9023 144.073 14.5393C143.676 14.1763 143.172 13.9953 142.56 13.9953C141.959 13.9953 141.449 14.1763 141.03 14.5393ZM149.075 20.9993H148.191V13.3493H149.075V14.4203C149.392 14.0693 149.8 13.7803 150.299 13.5533C150.779 13.3332 151.301 13.2173 151.829 13.2133C152.894 13.2133 153.693 13.4913 154.226 14.0463C154.758 14.6013 155.025 15.4633 155.025 16.6303V20.9993H154.141V16.8003C154.141 14.9643 153.302 14.0463 151.625 14.0463C151.137 14.0463 150.661 14.1593 150.197 14.3863C149.766 14.5766 149.382 14.8612 149.075 15.2193V20.9993Z" fill="white"/>
<path d="M13.3785 2.12154L2.12132 13.3787C0.949747 14.5503 0.949747 16.4497 2.12132 17.6213L13.3785 28.8785C14.55 30.05 16.4495 30.05 17.6211 28.8785L28.8782 17.6213C30.0498 16.4497 30.0498 14.5503 28.8782 13.3787L17.6211 2.12154C16.4495 0.949967 14.55 0.949967 13.3785 2.12154Z" fill="white"/>
<path d="M15.5332 24.377C20.4359 24.377 24.4103 20.4027 24.4103 15.5C24.4103 10.5974 20.4359 6.62305 15.5332 6.62305C10.6306 6.62305 6.65625 10.5974 6.65625 15.5C6.65625 20.4027 10.6306 24.377 15.5332 24.377Z" fill="#001933"/>
<path d="M18.1594 9.95117H12.9844C11.3275 9.95117 9.98438 11.2943 9.98438 12.9512V18.1262C9.98438 19.783 11.3275 21.1262 12.9844 21.1262H18.1594C19.8162 21.1262 21.1594 19.783 21.1594 18.1262V12.9512C21.1594 11.2943 19.8162 9.95117 18.1594 9.95117Z" fill="white"/>
<path d="M15.5203 19.3532C17.6566 19.3532 19.3883 17.6214 19.3883 15.4852C19.3883 13.349 17.6566 11.6172 15.5203 11.6172C13.3841 11.6172 11.6523 13.349 11.6523 15.4852C11.6523 17.6214 13.3841 19.3532 15.5203 19.3532Z" fill="#001933"/>
<path d="M14.9367 14.4344L14.5782 14.7929C14.1877 15.1834 14.1877 15.8166 14.5782 16.2071L14.9367 16.5656C15.3272 16.9561 15.9604 16.9561 16.3509 16.5656L16.7094 16.2071C17.0999 15.8166 17.0999 15.1834 16.7094 14.7929L16.3509 14.4344C15.9604 14.0439 15.3272 14.0439 14.9367 14.4344Z" fill="white"/>
</svg>
