<svg width="230" height="60" fill="none" xmlns="http://www.w3.org/2000/svg"><path d="m74.344 21.556-.813-2.71c2.776-1.236 5.91-1.854 9.403-1.854 2.262 0 3.995.331 5.198.992 1.208.662 2.159 1.747 2.852 3.257 1.145-1.446 2.388-2.516 3.73-3.209 1.34-.693 2.913-1.04 4.723-1.04 3.438 0 6.038.844 7.8 2.531 1.763 1.688 2.644 3.934 2.644 6.739 0 1.295-.121 2.349-.362 3.16H91.661c.182 2.714 1.012 4.756 2.49 6.127 1.473 1.375 3.447 2.062 5.922 2.062 1.778 0 3.202-.099 4.271-.297 1.07-.194 2.252-.608 3.547-1.242l.992 2.805c-2.349 1.085-5.376 1.628-9.083 1.628-2.139 0-3.895-.347-5.27-1.04-1.37-.693-2.657-1.765-3.86-3.215-1.72 1.569-3.43 2.67-5.134 3.304-1.703.634-3.623.95-5.762.95-2.535 0-4.45-.595-5.745-1.788-1.295-1.188-1.942-2.838-1.942-4.95 0-2.02.647-3.753 1.942-5.199 3.858-1.327 8.725-1.99 14.603-1.99v-1.224c0-1.898-.399-3.292-1.195-4.184-.8-.887-2.36-1.33-4.68-1.33-2.864 0-5.668.572-8.413 1.717Zm14.288 12.799V28.93c-4.428 0-8.42.481-11.977 1.444-.784.875-1.176 1.915-1.176 3.12 0 2.744 1.687 4.117 5.061 4.117 1.596 0 2.99-.242 4.183-.725 1.192-.483 2.495-1.327 3.909-2.531Zm2.94-7.51h15.19c-.059-2.532-.677-4.348-1.853-5.45-1.177-1.097-3.076-1.646-5.697-1.646-2.111 0-3.86.602-5.246 1.807-1.386 1.208-2.184 2.97-2.394 5.288Zm39.24-8.545-1.129 2.715c-2.047-.844-4.293-1.266-6.736-1.266-4.159 0-6.238 1.115-6.238 3.346 0 1.145.513 1.966 1.539 2.466 1.021.495 2.679.893 4.972 1.194 5.877.784 8.816 3.151 8.816 7.1 0 2.23-.927 3.897-2.781 4.998-1.853 1.101-4.469 1.652-7.847 1.652-3.164 0-5.8-.454-7.907-1.36l.855-2.895a17.195 17.195 0 0 0 6.874 1.403c5.124 0 7.687-1.282 7.687-3.845 0-1.236-.521-2.163-1.563-2.78-1.037-.619-2.778-1.062-5.221-1.332-5.727-.634-8.59-2.775-8.59-6.423 0-1.87.806-3.385 2.417-4.546 1.616-1.157 3.961-1.735 7.034-1.735 2.954 0 5.56.436 7.818 1.307Zm7.146 2.038-3.665-.499v-1.313l2.804-1.717 3.119-4.926.998.13v5.432h9.267l-.137 2.893-9.13-.32v12.347c0 3.498 1.582 5.247 4.746 5.247a9.468 9.468 0 0 0 5.014-1.403l1.224 2.58c-1.838 1.144-4.038 1.717-6.6 1.717-5.093 0-7.64-2.698-7.64-8.093V20.338Zm37.881 9.132h-18.986c.151 2.714 1.107 4.756 2.869 6.127 1.763 1.37 3.955 2.056 6.577 2.056 3.136 0 5.758-.557 7.865-1.67l.95 2.846c-2.439 1.117-5.437 1.676-8.994 1.676-4.008 0-7.105-1.048-9.291-3.144-2.186-2.095-3.279-4.951-3.279-8.568 0-3.498 1.16-6.34 3.481-8.527 2.321-2.182 5.244-3.274 8.769-3.274 3.437 0 6.029.844 7.776 2.531 1.75 1.688 2.626 3.934 2.626 6.739 0 1.172-.121 2.242-.363 3.209Zm-18.944-2.757h16.188c0-2.472-.612-4.244-1.836-5.318-1.22-1.07-3.154-1.604-5.804-1.604-2.17 0-4.077.612-5.721 1.836-1.643 1.22-2.586 2.916-2.827 5.086Zm25.455-6.375-3.665-.499v-1.313l2.804-1.717 3.119-4.926.998.13v5.432h9.267l-.137 2.893-9.13-.32v12.347c0 3.498 1.582 5.247 4.746 5.247a9.47 9.47 0 0 0 5.014-1.403l1.224 2.58c-1.838 1.144-4.038 1.717-6.6 1.717-5.093 0-7.64-2.698-7.64-8.093V20.338Zm17.859 19.716v-22.61h3.255v22.61h-3.255Zm-.25-31.499c.467-.495 1.093-.742 1.877-.742.78 0 1.404.247 1.872.742.467.5.701 1.11.701 1.83 0 .694-.24 1.298-.719 1.813-.483.51-1.101.766-1.854.766-.756 0-1.374-.255-1.853-.766a2.564 2.564 0 0 1-.725-1.813c0-.72.234-1.33.701-1.83Zm9.379 31.498V7.039h3.255v20.577l4.473-3.03 8.05-7.142h4.111l.047.356-9.855 8.503 10.58 13.387-.095.363h-3.749l-9.314-11.938-4.248 2.484v9.454h-3.255Z" fill="#CDDFEF"/><path opacity=".8" d="M12.678 0A12.652 12.652 0 0 0 0 12.68v34.64C0 54.343 5.655 60 12.678 60h34.63a12.652 12.652 0 0 0 12.678-12.68V12.68C59.986 5.657 54.33 0 47.308 0h-34.63Zm17.315 12.5c9.677 0 17.496 7.82 17.496 17.5S39.67 47.5 29.993 47.5c-9.678 0-17.496-7.82-17.496-17.5s7.818-17.5 17.496-17.5Z" fill="#358CA8"/><path d="M56.935 29.41c0 14.885-12.063 26.95-26.942 26.95-14.88 0-26.942-12.065-26.942-26.95 0-14.88 12.063-26.945 26.942-26.945S56.935 14.529 56.935 29.41Z" fill="#fff"/><path d="M35.232 20.525c.557-2.896-1.54-5.592-3.223-7.757-.494-.636-.96-1.235-1.306-1.773a.37.37 0 0 0-.115-.12c-.028-.017-.059-.024-.088-.034-.016-.005-.03-.014-.046-.018-.026-.005-.052-.002-.079-.001-.024 0-.047-.003-.07.001-.018.004-.034.014-.051.02-.029.01-.058.016-.084.033a.371.371 0 0 0-.115.12c-.346.537-.813 1.136-1.307 1.771-1.684 2.167-3.779 4.862-3.224 7.759.37 1.928 1.84 3.637 4.473 5.224v22.646a.383.383 0 0 0 .766 0V25.747c2.632-1.585 4.1-3.294 4.47-5.222Zm-4.854 4.56c-2.427-1.464-3.776-3.004-4.101-4.704-.49-2.556 1.487-5.1 3.076-7.143.375-.481.717-.936 1.026-1.373.31.437.652.891 1.026 1.372 1.589 2.044 3.566 4.587 3.077 7.143-.327 1.7-1.676 3.241-4.104 4.705Z" fill="#2E2E2E"/><path d="M44.652 26.013c-.006-.027-.02-.048-.032-.073-.01-.02-.015-.042-.027-.06-.01-.016-.026-.027-.039-.04a.346.346 0 0 0-.068-.066c-.01-.007-.023-.01-.035-.015-.03-.017-.06-.034-.095-.042h-.013a.376.376 0 0 0-.154.004c-.625.135-1.378.23-2.175.329-2.722.34-6.11.764-7.765 3.205-1.128 1.665-1.286 3.978-.482 7.071.003.011.014.016.017.026a.38.38 0 0 0 .26.252c1.292.335 2.446.503 3.475.503 1.436 0 2.626-.328 3.595-.985 2.441-1.656 2.864-5.045 3.205-7.767.1-.798.194-1.55.328-2.176a.358.358 0 0 0 .005-.166Zm-3.967 9.475c-1.432.972-3.473 1.107-6.226.425-.682-2.752-.547-4.795.425-6.227 1.46-2.154 4.657-2.554 7.226-2.875a38.455 38.455 0 0 0 1.695-.245c-.09.528-.17 1.09-.245 1.695-.321 2.569-.72 5.767-2.875 7.227ZM18.744 26.05c-.797-.1-1.548-.194-2.173-.33a.368.368 0 0 0-.168-.003c-.03.006-.054.022-.08.035-.018.009-.036.013-.052.023-.02.013-.033.032-.05.048-.02.019-.041.036-.056.059-.007.01-.01.024-.016.034-.016.03-.034.06-.042.096a.384.384 0 0 0 .004.167c.135.625.229 1.378.329 2.176.34 2.722.763 6.11 3.204 7.767.97.657 2.16.985 3.595.985 1.03 0 2.184-.169 3.475-.503a.396.396 0 0 0 .138-.069l.002-.002a.389.389 0 0 0 .12-.18c.003-.01.014-.015.016-.025.805-3.095.648-5.409-.48-7.073-1.657-2.441-5.045-2.864-7.766-3.205Zm7.555 9.862c-2.752.683-4.794.548-6.226-.425-2.153-1.46-2.553-4.658-2.874-7.227a38.46 38.46 0 0 0-.245-1.696c.528.091 1.09.17 1.695.245 2.569.321 5.764.721 7.225 2.875.97 1.434 1.106 3.477.425 6.228Z" fill="#2E2E2E"/><path d="M77.087 51.676V48.2h.499v1.32h.998l.511-.898c.182-.32.468-.481.856-.481.11 0 .214.017.309.053l-.095.434a.893.893 0 0 0-.226-.024c-.19 0-.353.113-.487.339l-.452.796 1.278 1.937h-.589l-1.117-1.723h-.986v1.723h-.5Zm4.462-2.502v-.975h2.602v3.476h-.499v-3.048H82.03v.618c0 .567-.03 1.018-.09 1.355-.055.337-.18.608-.373.814a.993.993 0 0 1-.755.315.992.992 0 0 1-.398-.078l.065-.38c.06.012.119.018.178.018.23 0 .407-.061.53-.184.146-.147.243-.37.29-.672.048-.305.072-.724.072-1.26Zm3.504 2.501V48.2h.494v1.765l-.024 1.081 2.264-2.846h.505v3.476h-.493v-1.354l.023-1.462-2.246 2.816h-.522Zm4.14 0V48.2h.5v1.444h2.156V48.2h.5v3.476h-.5v-1.598h-2.157v1.598h-.499Zm4.06 0V48.2h.499v1.765l-.024 1.081 2.258-2.846h.511v3.476h-.493v-1.354l.018-1.462-2.246 2.816h-.523Zm4.145.001V48.2h.5v1.32h.992l.517-.898c.182-.32.467-.481.855-.481.111 0 .212.017.303.053l-.089.434a.923.923 0 0 0-.232-.024c-.186 0-.346.113-.48.339l-.453.796 1.278 1.937h-.594l-1.111-1.723h-.987v1.723h-.499Zm4.028-2.846-.131-.416c.444-.19.919-.285 1.426-.285.507 0 .878.095 1.111.285.238.19.357.491.357.903v1.51c0 .186.032.313.095.38.067.071.19.109.368.113v.356a1.122 1.122 0 0 1-.38.066.428.428 0 0 1-.333-.131c-.075-.091-.122-.246-.142-.463-.369.396-.882.594-1.539.594-.404 0-.705-.09-.903-.268-.202-.182-.303-.438-.303-.766a1.2 1.2 0 0 1 .303-.808c.578-.175 1.358-.276 2.341-.303v-.256c0-.273-.076-.471-.226-.594-.147-.119-.408-.178-.784-.178a3.3 3.3 0 0 0-1.26.261Zm2.27 1.943v-.808c-.785.012-1.434.085-1.949.22a.718.718 0 0 0-.179.481c0 .428.246.642.737.642.567 0 1.03-.178 1.391-.535Zm3.647.902V48.2h1.658c.337 0 .616.078.838.232.221.155.332.378.332.671 0 .325-.136.551-.41.678v.03a.893.893 0 0 1 .458.314.805.805 0 0 1 .178.523.916.916 0 0 1-.344.749c-.23.186-.523.28-.88.28h-1.83Zm1.806-1.586h-1.313v1.17h1.266c.523 0 .784-.2.784-.6 0-.38-.245-.57-.737-.57Zm-.101-1.474h-1.212v1.058h1.236c.4 0 .6-.182.6-.547 0-.34-.208-.51-.624-.51Zm2.579 4.66h-.5V48.33a5.78 5.78 0 0 1 1.533-.202c.618 0 1.092.152 1.421.457.332.306.499.747.499 1.325 0 .531-.159.97-.476 1.314-.313.344-.75.517-1.313.517a2.25 2.25 0 0 1-.63-.078 1.766 1.766 0 0 1-.534-.303v1.914Zm0-4.576v2.134c.34.305.728.457 1.164.457.38 0 .689-.123.927-.368.238-.25.357-.587.357-1.01 0-.452-.129-.79-.387-1.017-.253-.23-.602-.344-1.045-.344-.349 0-.688.05-1.016.148Zm3.895.131-.13-.416a3.58 3.58 0 0 1 1.426-.285c.503 0 .873.095 1.111.285.237.19.356.491.356.903v1.51c0 .186.032.313.095.38.064.071.187.109.369.113v.356a1.166 1.166 0 0 1-.38.066c-.147 0-.258-.044-.333-.131-.076-.091-.123-.246-.143-.463-.368.396-.883.594-1.545.594-.4 0-.701-.09-.903-.268-.198-.182-.297-.438-.297-.766 0-.305.099-.575.297-.808.582-.175 1.365-.276 2.347-.303v-.256c0-.273-.075-.471-.226-.594-.146-.119-.408-.178-.784-.178a3.3 3.3 0 0 0-1.26.261Zm2.27 1.943v-.808c-.784.012-1.434.085-1.949.22a.717.717 0 0 0-.178.481c0 .428.246.642.737.642.562 0 1.026-.178 1.39-.535Zm1.353-1.516v-1.058h.499v1.016c0 .666.347.999 1.04.999.392 0 .757-.12 1.093-.357v-1.658h.499v3.476h-.499v-1.372a2.04 2.04 0 0 1-1.152.35c-.468 0-.832-.12-1.094-.362-.257-.238-.386-.582-.386-1.034Zm7.256.791h-2.918c.024.416.171.73.44.939.273.214.61.32 1.01.32.483 0 .887-.086 1.212-.26l.143.44c-.373.17-.832.255-1.379.255-.618 0-1.095-.16-1.432-.482-.336-.32-.505-.76-.505-1.319 0-.535.178-.97.535-1.307.36-.337.81-.505 1.349-.505.531 0 .931.13 1.2.392.269.258.404.602.404 1.034 0 .178-.02.343-.059.493Zm-2.912-.422h2.49c0-.38-.095-.653-.285-.82-.187-.162-.484-.243-.892-.243-.332 0-.626.093-.879.279-.254.186-.398.448-.434.784Zm6.754-3.048.291.25c-.218.384-.558.618-1.022.7l-.873.155a1.294 1.294 0 0 0-.802.476 1.95 1.95 0 0 0-.416.98h.029c.171-.257.377-.444.618-.558.242-.115.541-.173.898-.173.471 0 .865.149 1.182.446.313.301.47.711.47 1.23 0 .503-.167.905-.5 1.206-.336.301-.762.452-1.277.452-.626 0-1.093-.188-1.402-.565-.309-.376-.464-.897-.464-1.563 0-.72.145-1.273.434-1.657.285-.385.707-.63 1.266-.737l.831-.16a1.14 1.14 0 0 0 .737-.482Zm-2.715 3.488c0 .376.121.675.362.897.246.226.559.339.939.339.388 0 .699-.11.933-.333.238-.222.356-.517.356-.885 0-.392-.111-.695-.332-.91-.222-.213-.537-.32-.945-.32-.404 0-.725.11-.963.333-.233.221-.35.515-.35.88Zm3.819 1.609V48.2h.499v1.444h2.157V48.2h.499v3.476h-.499v-1.598h-2.157v1.598h-.499Zm7.155-3.047c.368.329.552.765.552 1.307 0 .543-.184.98-.552 1.313-.365.33-.822.494-1.373.494-.555 0-1.014-.165-1.379-.493-.368-.333-.552-.771-.552-1.314 0-.542.184-.978.552-1.307.365-.333.824-.5 1.379-.5.551 0 1.008.167 1.373.5Zm-2.401.303c-.262.254-.392.588-.392 1.004 0 .42.13.757.392 1.01.261.254.604.38 1.028.38.42 0 .76-.126 1.022-.38.261-.253.392-.59.392-1.01 0-.416-.131-.75-.392-1.004-.262-.257-.602-.386-1.022-.386-.424 0-.767.129-1.028.386Zm3.647 2.747v-3.476h.493v1.764l-.024 1.082 2.258-2.846h.511v3.476h-.493v-1.355l.018-1.462-2.246 2.817h-.517Zm.701-4.522.404-.101c.067.253.237.38.511.38.273 0 .445-.127.517-.38l.404.1c-.159.448-.466.672-.921.672-.452 0-.757-.224-.915-.671Zm5.489 4.52V48.2h.499v1.32h.998l.511-.898c.182-.32.467-.481.856-.481.11 0 .213.017.309.053l-.096.434a.885.885 0 0 0-.225-.024c-.19 0-.353.113-.488.339l-.451.796 1.277 1.937h-.588l-1.117-1.723h-.986v1.723h-.499Zm6.668-3.048c.368.329.552.765.552 1.307 0 .543-.184.98-.552 1.313-.365.33-.824.494-1.379.494-.55 0-1.008-.165-1.372-.493-.369-.333-.553-.771-.553-1.314 0-.542.184-.978.553-1.307.364-.333.822-.5 1.372-.5.555 0 1.014.167 1.379.5Zm-2.401.303c-.261.254-.392.588-.392 1.004 0 .42.131.757.392 1.01.262.254.602.38 1.022.38.424 0 .767-.126 1.028-.38.262-.253.392-.59.392-1.01 0-.416-.13-.75-.392-1.004-.261-.257-.604-.386-1.028-.386-.42 0-.76.129-1.022.386Zm6.613-.571-.22.393c-.266-.127-.586-.19-.963-.19-.467 0-.832.118-1.093.356-.262.238-.392.579-.392 1.022 0 .404.132.731.398.98.261.254.59.381.986.381.444 0 .832-.085 1.165-.256l.166.41c-.384.19-.84.286-1.366.286-.567 0-1.019-.167-1.355-.5-.337-.336-.505-.764-.505-1.283 0-.539.186-.978.558-1.32.373-.34.838-.51 1.397-.51.495 0 .903.077 1.224.232Zm.777 3.315V48.2h.594l1.355 2.234 1.349-2.234h.594v3.476h-.493v-1.568l.024-1.218h-.042l-1.248 2.067h-.38l-1.254-2.068h-.03l.018 1.029v1.758h-.487Zm8.013-1.627h-2.917c.023.416.17.73.439.939.274.214.61.32 1.011.32.483 0 .887-.086 1.212-.26l.142.44c-.372.17-.832.255-1.378.255-.618 0-1.096-.16-1.432-.482-.337-.32-.505-.76-.505-1.319 0-.535.178-.97.534-1.307.361-.337.811-.505 1.349-.505.531 0 .931.13 1.201.392.269.258.404.602.404 1.034 0 .178-.02.343-.06.493Zm-2.911-.422h2.489c0-.38-.095-.653-.285-.82-.186-.162-.483-.243-.891-.243a1.45 1.45 0 0 0-.88.279 1.064 1.064 0 0 0-.433.784Zm4.527 2.049v-3.048h-1.284v-.428h3.061v.428h-1.278v3.048h-.499Zm5.424-3.047c.368.329.552.765.552 1.307 0 .543-.184.98-.552 1.313-.365.33-.822.494-1.373.494-.555 0-1.014-.165-1.378-.493-.365-.333-.547-.771-.547-1.314 0-.542.182-.978.547-1.307.364-.333.823-.5 1.378-.5.551 0 1.008.167 1.373.5Zm-2.401.303c-.261.254-.392.588-.392 1.004 0 .42.131.757.392 1.01.262.254.604.38 1.028.38.42 0 .761-.126 1.022-.38.262-.253.392-.59.392-1.01 0-.416-.13-.75-.392-1.004-.261-.257-.602-.386-1.022-.386-.424 0-.766.129-1.028.386Zm4.258.243v-.975h2.597v3.476h-.499v-3.048h-1.622v.618c0 .567-.028 1.018-.084 1.355-.059.337-.186.608-.38.814a.974.974 0 0 1-.749.315.966.966 0 0 1-.398-.078l.066-.38a.903.903 0 0 0 .178.018c.226 0 .402-.061.529-.184.142-.147.238-.37.285-.672.052-.305.077-.724.077-1.26Zm6.596-.546c.368.329.552.765.552 1.307 0 .543-.184.98-.552 1.313-.365.33-.824.494-1.379.494-.55 0-1.008-.165-1.372-.493-.369-.333-.553-.771-.553-1.314 0-.542.184-.978.553-1.307.364-.333.822-.5 1.372-.5.555 0 1.014.167 1.379.5Zm-2.401.303c-.261.254-.392.588-.392 1.004 0 .42.131.757.392 1.01.262.254.602.38 1.022.38.424 0 .767-.126 1.028-.38.262-.253.392-.59.392-1.01 0-.416-.13-.75-.392-1.004-.261-.257-.604-.386-1.028-.386-.42 0-.76.129-1.022.386Zm3.649 2.744V48.2h2.537v.428h-2.038v3.048h-.499Zm3.261 0V48.2h.493v1.765l-.018 1.081 2.258-2.846h.511v3.476h-.493v-1.354l.018-1.462-2.246 2.816h-.523Zm4.145 0V48.2h.493v1.765l-.023 1.081 2.263-2.846h.506v3.476h-.494v-1.354l.018-1.462-2.246 2.816h-.517Zm4.142.793-.137-.22a.828.828 0 0 0 .333-.232.565.565 0 0 0 .095-.338.389.389 0 0 1-.279-.101.308.308 0 0 1-.107-.232.39.39 0 0 1 .083-.256c.059-.067.153-.1.279-.1.139 0 .244.053.315.16a.72.72 0 0 1 .107.41.937.937 0 0 1-.178.558.94.94 0 0 1-.511.35ZM77.723 55.372v-.892h2.597v3.049h.451l-.077 1.307h-.35l-.078-.88H77.26l-.118.88h-.369v-1.307c.345-.198.588-.476.731-.832.147-.353.22-.794.22-1.325Zm2.097-.458h-1.628v.684c0 .824-.257 1.467-.772 1.93h2.4v-2.614Zm4.692 1.421H81.59c.024.416.172.73.445.94.27.21.606.314 1.01.314.48 0 .882-.085 1.207-.255l.148.44c-.376.17-.837.255-1.384.255-.618 0-1.093-.16-1.426-.482-.337-.324-.505-.764-.505-1.319 0-.538.178-.974.534-1.307.357-.337.807-.505 1.35-.505.526 0 .924.129 1.194.386.27.262.404.608.404 1.04 0 .178-.018.343-.054.493Zm-2.917-.428h2.49c0-.38-.094-.651-.28-.814-.19-.166-.487-.25-.891-.25-.337 0-.63.096-.88.286-.253.186-.4.446-.44.779Zm4.165 3.649h-.5v-4.938a5.798 5.798 0 0 1 1.54-.202c.614 0 1.087.153 1.42.458.328.305.493.744.493 1.319 0 .535-.157.974-.47 1.319-.316.344-.754.517-1.313.517a2.23 2.23 0 0 1-.63-.078 1.743 1.743 0 0 1-.54-.303v1.908Zm0-4.57v2.134c.344.305.734.457 1.17.457.38 0 .688-.125.921-.374.238-.246.357-.583.357-1.01 0-.448-.127-.787-.38-1.016-.258-.226-.609-.34-1.052-.34-.349 0-.688.05-1.016.15Zm3.648 2.971V54.48h.594l1.355 2.24 1.349-2.24h.6v3.477h-.493v-1.563l.018-1.224h-.042l-1.242 2.073h-.386l-1.248-2.073h-.036l.018 1.028v1.759h-.487Zm5.122-2.84-.138-.416a3.61 3.61 0 0 1 1.427-.285c.507 0 .877.095 1.11.285.239.19.357.491.357.903v1.51c0 .182.032.309.095.38.068.071.19.109.369.113v.35c-.123.048-.25.072-.38.072-.143 0-.252-.046-.327-.137-.08-.091-.127-.245-.143-.463-.372.4-.887.6-1.545.6-.404 0-.705-.091-.903-.274-.202-.178-.303-.431-.303-.76a1.2 1.2 0 0 1 .303-.808c.578-.175 1.359-.276 2.341-.303v-.262c0-.273-.073-.47-.22-.588-.15-.123-.414-.184-.79-.184-.416 0-.834.089-1.254.267Zm2.263 1.937v-.802c-.784.012-1.434.085-1.949.22a.717.717 0 0 0-.178.481c0 .424.246.636.737.636.566 0 1.03-.178 1.39-.535Zm2.387.903v-3.043h-1.278v-.434h3.06v.434h-1.278v3.043h-.505Zm5.431-3.047c.369.332.553.77.553 1.312 0 .543-.184.979-.553 1.308-.364.332-.822.499-1.372.499-.555 0-1.015-.167-1.379-.5-.368-.328-.553-.764-.553-1.307 0-.542.185-.98.553-1.313.364-.329.824-.493 1.379-.493.55 0 1.008.164 1.372.493Zm-2.4.302c-.262.258-.393.594-.393 1.01 0 .416.131.753.393 1.01.261.254.604.38 1.028.38.419 0 .76-.126 1.022-.38.261-.257.392-.594.392-1.01 0-.416-.131-.752-.392-1.01-.262-.253-.603-.38-1.022-.38-.424 0-.767.127-1.028.38Zm4.258.243v-.974h2.596v3.476h-.499v-3.043h-1.622v.618c0 .567-.028 1.018-.083 1.355-.06.333-.186.604-.38.814a.976.976 0 0 1-.749.315.963.963 0 0 1-.398-.077l.059-.38c.064.011.125.017.184.017.226 0 .402-.063.529-.19.143-.143.238-.364.285-.665.052-.305.078-.727.078-1.266Zm6.595-.545c.365.332.547.77.547 1.312 0 .543-.182.979-.547 1.308-.364.332-.824.499-1.378.499-.551 0-1.008-.167-1.373-.5-.368-.328-.553-.764-.553-1.307 0-.542.185-.98.553-1.313.365-.329.822-.493 1.373-.493.554 0 1.014.164 1.378.493Zm-2.4.302c-.262.258-.392.594-.392 1.01 0 .416.13.753.392 1.01.261.254.602.38 1.022.38.424 0 .766-.126 1.028-.38.261-.257.392-.594.392-1.01 0-.416-.131-.752-.392-1.01-.262-.253-.604-.38-1.028-.38-.42 0-.761.127-1.022.38Zm3.64 2.745V54.48h2.538v.434h-2.032v3.043h-.506Zm3.267 0V54.48h.493v1.771l-.018 1.082 2.258-2.852h.511v3.476h-.499v-1.355l.024-1.456-2.246 2.81h-.523Zm4.148 0V54.48h.493v1.771l-.024 1.082 2.258-2.852h.511v3.476h-.493v-1.355l.018-1.456-2.247 2.81h-.516Zm6.189 0V54.48h.494v1.771l-.018 1.082 2.258-2.852h.505v3.476h-.493v-1.355l.023-1.456-2.246 2.81h-.523Zm7.265 0v-3.043h-1.283v-.434h3.06v.434h-1.278v3.043h-.499Zm2.971 1.599h-.499v-4.938a5.795 5.795 0 0 1 1.539-.202c.614 0 1.087.153 1.42.458.332.305.499.744.499 1.319 0 .535-.159.974-.476 1.319-.313.344-.75.517-1.313.517a2.25 2.25 0 0 1-.63-.078 1.741 1.741 0 0 1-.54-.303v1.908Zm0-4.57v2.134c.344.305.734.457 1.17.457.381 0 .69-.125.927-.374.234-.246.351-.583.351-1.01 0-.448-.127-.787-.381-1.016-.253-.226-.604-.34-1.051-.34-.345 0-.684.05-1.016.15Zm3.654 2.971V54.48h.493v1.771l-.024 1.082 2.264-2.852h.505v3.476h-.493v-1.355l.018-1.456-2.246 2.81h-.517Zm5.175-1.807-1.2-1.67h.576l1.028 1.468h.042l1.04-1.468h.594l-1.206 1.652 1.313 1.825h-.6l-1.141-1.599h-.042l-1.14 1.599h-.577l1.313-1.807Zm5.627-1.24c.364.332.547.77.547 1.312 0 .543-.183.979-.547 1.308-.369.332-.828.499-1.379.499-.55 0-1.008-.167-1.372-.5-.369-.328-.553-.764-.553-1.307 0-.542.184-.98.553-1.313.364-.329.822-.493 1.372-.493.551 0 1.01.164 1.379.493Zm-2.401.302c-.261.258-.392.594-.392 1.01 0 .416.131.753.392 1.01.262.254.602.38 1.022.38.424 0 .767-.126 1.028-.38.262-.257.392-.594.392-1.01 0-.416-.13-.752-.392-1.01-.261-.253-.604-.38-1.028-.38-.42 0-.76.127-1.022.38Zm4.252.243v-.974h2.603v3.476h-.499v-3.043h-1.622v.618c0 .567-.03 1.018-.089 1.355a1.545 1.545 0 0 1-.375.814.979.979 0 0 1-.754.315.944.944 0 0 1-.392-.077l.059-.38a.934.934 0 0 0 .184.017c.226 0 .4-.063.523-.19.147-.143.244-.364.291-.665.048-.305.071-.727.071-1.266Zm6.602-.545c.364.332.546.77.546 1.312 0 .543-.182.979-.546 1.308-.369.332-.828.499-1.379.499-.55 0-1.01-.167-1.378-.5-.365-.328-.547-.764-.547-1.307 0-.542.182-.98.547-1.313.368-.329.828-.493 1.378-.493.551 0 1.01.164 1.379.493Zm-2.407.302c-.261.258-.392.594-.392 1.01 0 .416.131.753.392 1.01.266.254.608.38 1.028.38.42 0 .763-.126 1.028-.38.262-.257.392-.594.392-1.01 0-.416-.13-.752-.392-1.01-.265-.253-.608-.38-1.028-.38-.42 0-.762.127-1.028.38Zm3.647 2.745V54.48h2.537v.434h-2.038v3.043h-.499Zm3.267 0V54.48h.493v1.771l-.018 1.082 2.258-2.852h.505v3.476h-.493v-1.355l.024-1.456-2.246 2.81h-.523Zm4.139 0V54.48h.494v1.771l-.018 1.082 2.258-2.852h.511v3.476h-.499v-1.355l.023-1.456-2.246 2.81h-.523Z" fill="#D2E3F5"/></svg>