<svg width="75" height="23" fill="none" xmlns="http://www.w3.org/2000/svg"><path d="M5.8 16.15c.04.9.5 1.35 1.38 1.35h6.96l.48 4.26c-1.76.22-4.86.33-9.3.33-1.5 0-2.72-.44-3.66-1.32-.94-.88-1.41-2.04-1.41-3.48V1.3h5.64L5.8 16.15ZM24.26.88c3.38 0 5.8.77 7.26 2.31 1.6 1.68 2.41 4.57 2.43 8.67.02 4.1-.66 6.91-2.04 8.43-1.26 1.42-3.53 2.13-6.81 2.13-3.46 0-5.9-.78-7.32-2.34-1.5-1.62-2.26-4.5-2.28-8.64-.02-4.06.64-6.85 1.98-8.37C18.74 1.61 21 .88 24.26.88Zm.51 4.32c-1.32 0-2.2.43-2.64 1.29-.42.88-.65 2.67-.69 5.37-.02 2.5.18 4.17.6 5.01.44.82 1.3 1.23 2.58 1.23 1.34 0 2.23-.44 2.67-1.32.42-.86.65-2.64.69-5.34.02-2.52-.19-4.2-.63-5.04-.44-.8-1.3-1.2-2.58-1.2Zm28.723 4.86V22h-4.11l-.54-2.46c-1.58 1.92-3.49 2.88-5.73 2.88-4.52 0-6.8-3.66-6.84-10.98-.02-4.16.73-7 2.25-8.52 1.34-1.36 3.76-2.04 7.26-2.04 2.5 0 4.75.28 6.75.84l-.09 4.05c-2.14-.06-4.21-.09-6.21-.09-1.6 0-2.67.41-3.21 1.23-.56.84-.84 2.49-.84 4.95.02 2.28.21 3.8.57 4.56.38.78 1.12 1.17 2.22 1.17 1.08 0 2.13-.48 3.15-1.44v-6.09h5.37ZM64.749.88c3.38 0 5.8.77 7.26 2.31 1.6 1.68 2.41 4.57 2.43 8.67.02 4.1-.66 6.91-2.04 8.43-1.26 1.42-3.53 2.13-6.81 2.13-3.46 0-5.9-.78-7.32-2.34-1.5-1.62-2.26-4.5-2.28-8.64-.02-4.06.64-6.85 1.98-8.37 1.26-1.46 3.52-2.19 6.78-2.19Zm.51 4.32c-1.32 0-2.2.43-2.64 1.29-.42.88-.65 2.67-.69 5.37-.02 2.5.18 4.17.6 5.01.44.82 1.3 1.23 2.58 1.23 1.34 0 2.23-.44 2.67-1.32.42-.86.65-2.64.69-5.34.02-2.52-.19-4.2-.63-5.04-.44-.8-1.3-1.2-2.58-1.2Z" fill="#2E574D"/></svg>